<?xml version="1.0" encoding="utf-8"?>
<!-- Generator: Adobe Illustrator 24.2.0, SVG Export Plug-In . SVG Version: 6.00 Build 0)  -->
<svg version="1.1" id="Capa_1" xmlns="http://www.w3.org/2000/svg" xmlns:xlink="http://www.w3.org/1999/xlink" x="0px" y="0px"
	 viewBox="0 0 490 254" style="enable-background:new 0 0 490 254;" xml:space="preserve">
<style type="text/css">
	.st0{fill:none;stroke:#80CBC4;stroke-width:3;}
	.st1{fill:#80CBC4;}
	.st2{fill:#7CB342;}
	.st3{fill:#A0DED8;}
	.st4{enable-background:new    ;}
	.st5{fill:#002B45;}
	.st6{fill:#FFFFFF;}
</style>
<g id="Grupo_11400" transform="translate(-278 -2879)">
	<line id="Línea_110" class="st0" x1="371" y1="2901" x2="704" y2="2901"/>
	<line id="Línea_111" class="st0" x1="392" y1="3029" x2="659" y2="3029"/>
	<line id="Línea_113" class="st0" x1="372" y1="2961" x2="659" y2="2961"/>
	<line id="Línea_112" class="st0" x1="412" y1="3098" x2="659" y2="3098"/>
	<path id="Rectángulo_3162" class="st1" d="M290,2932h154c6.6,0,12,5.4,12,12v32c0,6.6-5.4,12-12,12H290c-6.6,0-12-5.4-12-12v-32
		C278,2937.4,283.4,2932,290,2932z"/>
	<path id="Rectángulo_3344" class="st1" d="M290,3002h154c6.6,0,12,5.4,12,12v32c0,6.6-5.4,12-12,12H290c-6.6,0-12-5.4-12-12v-32
		C278,3007.4,283.4,3002,290,3002z"/>
	<path id="Rectángulo_3345" class="st1" d="M290,3070h154c6.6,0,12,5.4,12,12v32c0,6.6-5.4,12-12,12H290c-6.6,0-12-5.4-12-12v-32
		C278,3075.4,283.4,3070,290,3070z"/>
	<path id="Rectángulo_3163" class="st2" d="M488,2879h111c6.6,0,12,5.4,12,12v20c0,6.6-5.4,12-12,12H488c-6.6,0-12-5.4-12-12v-20
		C476,2884.4,481.4,2879,488,2879z"/>
	<path id="Rectángulo_3338" class="st2" d="M645,2879h111c6.6,0,12,5.4,12,12v20c0,6.6-5.4,12-12,12H645c-6.6,0-12-5.4-12-12v-20
		C633,2884.4,638.4,2879,645,2879z"/>
	<path id="Rectángulo_3164" class="st3" d="M492,2932h105c6.6,0,12,5.4,12,12v32c0,6.6-5.4,12-12,12H492c-6.6,0-12-5.4-12-12v-32
		C480,2937.4,485.4,2932,492,2932z"/>
	<path id="Rectángulo_3341" class="st3" d="M495,3000h105c6.6,0,12,5.4,12,12v32c0,6.6-5.4,12-12,12H495c-6.6,0-12-5.4-12-12v-32
		C483,3005.4,488.4,3000,495,3000z"/>
	<path id="Rectángulo_3343" class="st3" d="M495,3068h105c6.6,0,12,5.4,12,12v32c0,6.6-5.4,12-12,12H495c-6.6,0-12-5.4-12-12v-32
		C483,3073.4,488.4,3068,495,3068z"/>
	<path id="Rectángulo_3339" class="st3" d="M648,2932h105c6.6,0,12,5.4,12,12v32c0,6.6-5.4,12-12,12H648c-6.6,0-12-5.4-12-12v-32
		C636,2937.4,641.4,2932,648,2932z"/>
	<path id="Rectángulo_3340" class="st3" d="M651,3000h105c6.6,0,12,5.4,12,12v32c0,6.6-5.4,12-12,12H651c-6.6,0-12-5.4-12-12v-32
		C639,3005.4,644.4,3000,651,3000z"/>
	<path id="Rectángulo_3342" class="st3" d="M651,3068h105c6.6,0,12,5.4,12,12v32c0,6.6-5.4,12-12,12H651c-6.6,0-12-5.4-12-12v-32
		C639,3073.4,644.4,3068,651,3068z"/>
	<g class="st4">
		<path class="st5" d="M539,2959.2c0.8,0.7,1.3,1.7,1.3,2.8c0,0.8-0.2,1.5-0.6,2.1c-0.4,0.6-1,1.1-1.8,1.5c-0.8,0.4-1.8,0.6-2.9,0.6
			c-0.9,0-1.8-0.1-2.6-0.4c-0.9-0.2-1.6-0.6-2.2-1l1.2-2.2c0.5,0.4,1,0.6,1.7,0.8c0.6,0.2,1.3,0.3,1.9,0.3c0.7,0,1.3-0.1,1.7-0.4
			c0.4-0.3,0.6-0.7,0.6-1.2c0-0.5-0.2-0.9-0.7-1.2c-0.4-0.3-1.2-0.4-2.3-0.4h-3.2l0.6-7.1h7.7v2.3h-5.3l-0.2,2.4h1
			C536.8,2958.1,538.1,2958.5,539,2959.2z"/>
		<path class="st5" d="M544,2965.4c-0.8-0.5-1.5-1.3-1.9-2.2c-0.5-1-0.7-2.1-0.7-3.5s0.2-2.5,0.7-3.5c0.5-1,1.1-1.7,1.9-2.2
			s1.7-0.8,2.8-0.8c1,0,2,0.3,2.8,0.8s1.5,1.3,1.9,2.2c0.5,1,0.7,2.1,0.7,3.5s-0.2,2.5-0.7,3.5c-0.5,1-1.1,1.7-1.9,2.2
			c-0.8,0.5-1.7,0.8-2.8,0.8C545.8,2966.2,544.8,2966,544,2965.4z M548.6,2962.8c0.4-0.7,0.7-1.7,0.7-3.1s-0.2-2.4-0.7-3.1
			c-0.4-0.7-1-1-1.8-1c-0.8,0-1.4,0.3-1.8,1c-0.4,0.7-0.7,1.7-0.7,3.1s0.2,2.4,0.7,3.1c0.4,0.7,1,1,1.8,1
			C547.6,2963.8,548.2,2963.4,548.6,2962.8z"/>
		<path class="st5" d="M554.3,2959.3c-0.6-0.6-0.9-1.5-0.9-2.5c0-1.1,0.3-1.9,0.9-2.5s1.3-0.9,2.3-0.9c0.9,0,1.7,0.3,2.3,0.9
			c0.6,0.6,0.9,1.5,0.9,2.5c0,1.1-0.3,1.9-0.9,2.5c-0.6,0.6-1.3,0.9-2.3,0.9C555.6,2960.2,554.9,2959.9,554.3,2959.3z M557.5,2958.2
			c0.2-0.3,0.4-0.8,0.4-1.5c0-0.7-0.1-1.2-0.4-1.5s-0.6-0.5-1-0.5c-0.4,0-0.7,0.2-1,0.5s-0.4,0.8-0.4,1.5c0,0.6,0.1,1.1,0.4,1.5
			s0.6,0.5,1,0.5C557,2958.7,557.3,2958.6,557.5,2958.2z M564.1,2953.4h2.1l-8.6,12.6h-2.1L564.1,2953.4z M563.5,2965.7
			c-0.5-0.3-0.8-0.7-1.1-1.2c-0.3-0.5-0.4-1.1-0.4-1.8c0-0.7,0.1-1.3,0.4-1.8c0.3-0.5,0.6-0.9,1.1-1.2c0.5-0.3,1-0.4,1.6-0.4
			c0.9,0,1.7,0.3,2.3,0.9c0.6,0.6,0.9,1.5,0.9,2.5c0,1.1-0.3,1.9-0.9,2.5s-1.3,0.9-2.3,0.9C564.5,2966.1,564,2966,563.5,2965.7z
			 M566.1,2964.2c0.2-0.3,0.4-0.8,0.4-1.5c0-0.6-0.1-1.1-0.4-1.5c-0.2-0.3-0.6-0.5-1-0.5c-0.4,0-0.7,0.2-1,0.5s-0.4,0.8-0.4,1.5
			s0.1,1.2,0.4,1.5s0.6,0.5,1,0.5C565.5,2964.7,565.8,2964.5,566.1,2964.2z"/>
	</g>
	<g class="st4">
		<path class="st5" d="M545.2,3031.4h-2.1v2.6h-2.8v-2.6h-6.8v-2l5.9-8h3.1l-5.5,7.6h3.4v-2.4h2.8v2.4h2.1V3031.4z"/>
		<path class="st5" d="M554.3,3027.2c0.8,0.7,1.3,1.7,1.3,2.8c0,0.8-0.2,1.5-0.6,2.1c-0.4,0.6-1,1.1-1.8,1.5s-1.8,0.6-2.9,0.6
			c-0.9,0-1.8-0.1-2.6-0.4c-0.9-0.2-1.6-0.6-2.2-1l1.2-2.2c0.5,0.4,1,0.6,1.7,0.8c0.6,0.2,1.3,0.3,1.9,0.3c0.7,0,1.3-0.1,1.7-0.4
			s0.6-0.7,0.6-1.2c0-0.5-0.2-0.9-0.7-1.2s-1.2-0.4-2.3-0.4h-3.2l0.6-7.1h7.7v2.3h-5.3l-0.2,2.4h1
			C552.2,3026.1,553.5,3026.5,554.3,3027.2z"/>
		<path class="st5" d="M557.3,3027.3c-0.6-0.6-0.9-1.5-0.9-2.5c0-1.1,0.3-1.9,0.9-2.5s1.3-0.9,2.3-0.9s1.7,0.3,2.3,0.9
			s0.9,1.5,0.9,2.5c0,1.1-0.3,1.9-0.9,2.5s-1.3,0.9-2.3,0.9S557.8,3027.9,557.3,3027.3z M560.5,3026.2c0.2-0.3,0.4-0.8,0.4-1.5
			c0-0.7-0.1-1.2-0.4-1.5c-0.2-0.3-0.6-0.5-1-0.5c-0.4,0-0.7,0.2-1,0.5c-0.2,0.3-0.4,0.8-0.4,1.5c0,0.6,0.1,1.1,0.4,1.5
			c0.2,0.3,0.6,0.5,1,0.5C559.9,3026.7,560.2,3026.6,560.5,3026.2z M567,3021.4h2.1l-8.6,12.6h-2.1L567,3021.4z M566.5,3033.7
			c-0.5-0.3-0.8-0.7-1.1-1.2c-0.3-0.5-0.4-1.1-0.4-1.8c0-0.7,0.1-1.3,0.4-1.8s0.6-0.9,1.1-1.2c0.5-0.3,1-0.4,1.6-0.4
			c0.9,0,1.7,0.3,2.3,0.9c0.6,0.6,0.9,1.5,0.9,2.5c0,1.1-0.3,1.9-0.9,2.5s-1.3,0.9-2.3,0.9C567.5,3034.1,566.9,3034,566.5,3033.7z
			 M569,3032.2c0.2-0.3,0.4-0.8,0.4-1.5c0-0.6-0.1-1.1-0.4-1.5c-0.2-0.3-0.6-0.5-1-0.5c-0.4,0-0.7,0.2-1,0.5s-0.4,0.8-0.4,1.5
			s0.1,1.2,0.4,1.5s0.6,0.5,1,0.5C568.5,3032.7,568.8,3032.5,569,3032.2z"/>
	</g>
	<g class="st4">
		<path class="st5" d="M542.1,3095.8c0.6,0.6,0.9,1.4,0.9,2.4c0,0.7-0.2,1.4-0.6,2c-0.4,0.6-1,1.1-1.8,1.5s-1.7,0.6-2.9,0.6
			c-0.9,0-1.8-0.1-2.6-0.4c-0.9-0.2-1.6-0.6-2.2-1l1.1-2.2c0.5,0.4,1,0.6,1.7,0.8c0.6,0.2,1.3,0.3,1.9,0.3c0.7,0,1.3-0.1,1.7-0.4
			c0.4-0.3,0.6-0.7,0.6-1.2c0-1-0.8-1.5-2.4-1.5h-1.3v-1.9l2.6-2.9h-5.4v-2.3h8.8v1.9l-2.8,3.2
			C540.7,3094.7,541.5,3095.1,542.1,3095.8z"/>
		<path class="st5" d="M552.4,3095.2c0.8,0.7,1.3,1.7,1.3,2.8c0,0.8-0.2,1.5-0.6,2.1s-1,1.1-1.8,1.5c-0.8,0.4-1.8,0.6-2.9,0.6
			c-0.9,0-1.8-0.1-2.6-0.4c-0.9-0.2-1.6-0.6-2.2-1l1.2-2.2c0.5,0.4,1,0.6,1.7,0.8c0.6,0.2,1.3,0.3,1.9,0.3c0.7,0,1.3-0.1,1.7-0.4
			c0.4-0.3,0.6-0.7,0.6-1.2c0-0.5-0.2-0.9-0.7-1.2c-0.4-0.3-1.2-0.4-2.3-0.4h-3.2l0.6-7.1h7.7v2.3h-5.3l-0.2,2.4h1
			C550.3,3094.1,551.6,3094.5,552.4,3095.2z"/>
		<path class="st5" d="M555.4,3095.3c-0.6-0.6-0.9-1.5-0.9-2.5c0-1.1,0.3-1.9,0.9-2.5s1.3-0.9,2.3-0.9c0.9,0,1.7,0.3,2.3,0.9
			c0.6,0.6,0.9,1.5,0.9,2.5c0,1.1-0.3,1.9-0.9,2.5c-0.6,0.6-1.3,0.9-2.3,0.9C556.7,3096.2,555.9,3095.9,555.4,3095.3z M558.6,3094.2
			c0.2-0.3,0.4-0.8,0.4-1.5c0-0.7-0.1-1.2-0.4-1.5s-0.6-0.5-1-0.5c-0.4,0-0.7,0.2-1,0.5s-0.4,0.8-0.4,1.5c0,0.6,0.1,1.1,0.4,1.5
			s0.6,0.5,1,0.5C558,3094.7,558.4,3094.6,558.6,3094.2z M565.1,3089.4h2.1l-8.6,12.6h-2.1L565.1,3089.4z M564.6,3101.7
			c-0.5-0.3-0.8-0.7-1.1-1.2c-0.3-0.5-0.4-1.1-0.4-1.8c0-0.7,0.1-1.3,0.4-1.8c0.3-0.5,0.6-0.9,1.1-1.2c0.5-0.3,1-0.4,1.6-0.4
			c0.9,0,1.7,0.3,2.3,0.9c0.6,0.6,0.9,1.5,0.9,2.5c0,1.1-0.3,1.9-0.9,2.5s-1.3,0.9-2.3,0.9C565.6,3102.1,565,3102,564.6,3101.7z
			 M567.1,3100.2c0.2-0.3,0.4-0.8,0.4-1.5c0-0.6-0.1-1.1-0.4-1.5c-0.2-0.3-0.6-0.5-1-0.5c-0.4,0-0.7,0.2-1,0.5s-0.4,0.8-0.4,1.5
			s0.1,1.2,0.4,1.5s0.6,0.5,1,0.5C566.6,3100.7,566.9,3100.5,567.1,3100.2z"/>
	</g>
	<g class="st4">
		<path class="st5" d="M695,2959.2c0.8,0.7,1.3,1.7,1.3,2.8c0,0.8-0.2,1.5-0.6,2.1c-0.4,0.6-1,1.1-1.8,1.5c-0.8,0.4-1.8,0.6-2.9,0.6
			c-0.9,0-1.8-0.1-2.6-0.4c-0.9-0.2-1.6-0.6-2.2-1l1.2-2.2c0.5,0.4,1,0.6,1.7,0.8c0.6,0.2,1.3,0.3,1.9,0.3c0.7,0,1.3-0.1,1.7-0.4
			c0.4-0.3,0.6-0.7,0.6-1.2c0-0.5-0.2-0.9-0.7-1.2c-0.4-0.3-1.2-0.4-2.3-0.4h-3.2l0.6-7.1h7.7v2.3h-5.3l-0.2,2.4h1
			C692.8,2958.1,694.1,2958.5,695,2959.2z"/>
		<path class="st5" d="M700,2965.4c-0.8-0.5-1.5-1.3-1.9-2.2c-0.5-1-0.7-2.1-0.7-3.5s0.2-2.5,0.7-3.5c0.5-1,1.1-1.7,1.9-2.2
			s1.7-0.8,2.8-0.8c1,0,2,0.3,2.8,0.8s1.5,1.3,1.9,2.2c0.5,1,0.7,2.1,0.7,3.5s-0.2,2.5-0.7,3.5c-0.5,1-1.1,1.7-1.9,2.2
			c-0.8,0.5-1.7,0.8-2.8,0.8C701.8,2966.2,700.8,2966,700,2965.4z M704.6,2962.8c0.4-0.7,0.7-1.7,0.7-3.1s-0.2-2.4-0.7-3.1
			c-0.4-0.7-1-1-1.8-1c-0.8,0-1.4,0.3-1.8,1c-0.4,0.7-0.7,1.7-0.7,3.1s0.2,2.4,0.7,3.1c0.4,0.7,1,1,1.8,1
			C703.6,2963.8,704.2,2963.4,704.6,2962.8z"/>
		<path class="st5" d="M710.3,2959.3c-0.6-0.6-0.9-1.5-0.9-2.5c0-1.1,0.3-1.9,0.9-2.5s1.3-0.9,2.3-0.9c0.9,0,1.7,0.3,2.3,0.9
			c0.6,0.6,0.9,1.5,0.9,2.5c0,1.1-0.3,1.9-0.9,2.5c-0.6,0.6-1.3,0.9-2.3,0.9C711.6,2960.2,710.9,2959.9,710.3,2959.3z M713.5,2958.2
			c0.2-0.3,0.4-0.8,0.4-1.5c0-0.7-0.1-1.2-0.4-1.5s-0.6-0.5-1-0.5c-0.4,0-0.7,0.2-1,0.5s-0.4,0.8-0.4,1.5c0,0.6,0.1,1.1,0.4,1.5
			s0.6,0.5,1,0.5C713,2958.7,713.3,2958.6,713.5,2958.2z M720.1,2953.4h2.1l-8.6,12.6h-2.1L720.1,2953.4z M719.5,2965.7
			c-0.5-0.3-0.8-0.7-1.1-1.2c-0.3-0.5-0.4-1.1-0.4-1.8c0-0.7,0.1-1.3,0.4-1.8c0.3-0.5,0.6-0.9,1.1-1.2c0.5-0.3,1-0.4,1.6-0.4
			c0.9,0,1.7,0.3,2.3,0.9c0.6,0.6,0.9,1.5,0.9,2.5c0,1.1-0.3,1.9-0.9,2.5s-1.3,0.9-2.3,0.9C720.5,2966.1,720,2966,719.5,2965.7z
			 M722.1,2964.2c0.2-0.3,0.4-0.8,0.4-1.5c0-0.6-0.1-1.1-0.4-1.5c-0.2-0.3-0.6-0.5-1-0.5c-0.4,0-0.7,0.2-1,0.5s-0.4,0.8-0.4,1.5
			s0.1,1.2,0.4,1.5s0.6,0.5,1,0.5C721.5,2964.7,721.8,2964.5,722.1,2964.2z"/>
	</g>
	<g class="st4">
		<path class="st5" d="M698,3027.2c0.8,0.7,1.3,1.7,1.3,2.8c0,0.8-0.2,1.5-0.6,2.1c-0.4,0.6-1,1.1-1.8,1.5c-0.8,0.4-1.8,0.6-2.9,0.6
			c-0.9,0-1.8-0.1-2.6-0.4c-0.9-0.2-1.6-0.6-2.2-1l1.2-2.2c0.5,0.4,1,0.6,1.7,0.8c0.6,0.2,1.3,0.3,1.9,0.3c0.7,0,1.3-0.1,1.7-0.4
			c0.4-0.3,0.6-0.7,0.6-1.2c0-0.5-0.2-0.9-0.7-1.2c-0.4-0.3-1.2-0.4-2.3-0.4h-3.2l0.6-7.1h7.7v2.3h-5.3l-0.2,2.4h1
			C695.8,3026.1,697.1,3026.5,698,3027.2z"/>
		<path class="st5" d="M708.6,3027.2c0.8,0.7,1.3,1.7,1.3,2.8c0,0.8-0.2,1.5-0.6,2.1c-0.4,0.6-1,1.1-1.8,1.5
			c-0.8,0.4-1.8,0.6-2.9,0.6c-0.9,0-1.8-0.1-2.6-0.4c-0.9-0.2-1.6-0.6-2.2-1l1.2-2.2c0.5,0.4,1,0.6,1.7,0.8c0.6,0.2,1.3,0.3,1.9,0.3
			c0.7,0,1.3-0.1,1.7-0.4s0.6-0.7,0.6-1.2c0-0.5-0.2-0.9-0.7-1.2c-0.4-0.3-1.2-0.4-2.3-0.4h-3.2l0.6-7.1h7.7v2.3h-5.3l-0.2,2.4h1
			C706.4,3026.1,707.7,3026.5,708.6,3027.2z"/>
		<path class="st5" d="M711.5,3027.3c-0.6-0.6-0.9-1.5-0.9-2.5c0-1.1,0.3-1.9,0.9-2.5s1.3-0.9,2.3-0.9s1.7,0.3,2.3,0.9
			s0.9,1.5,0.9,2.5c0,1.1-0.3,1.9-0.9,2.5s-1.3,0.9-2.3,0.9S712.1,3027.9,711.5,3027.3z M714.7,3026.2c0.2-0.3,0.4-0.8,0.4-1.5
			c0-0.7-0.1-1.2-0.4-1.5c-0.2-0.3-0.6-0.5-1-0.5c-0.4,0-0.7,0.2-1,0.5c-0.2,0.3-0.4,0.8-0.4,1.5c0,0.6,0.1,1.1,0.4,1.5
			c0.2,0.3,0.6,0.5,1,0.5C714.2,3026.7,714.5,3026.6,714.7,3026.2z M721.3,3021.4h2.1l-8.6,12.6h-2.1L721.3,3021.4z M720.7,3033.7
			c-0.5-0.3-0.8-0.7-1.1-1.2c-0.3-0.5-0.4-1.1-0.4-1.8c0-0.7,0.1-1.3,0.4-1.8s0.6-0.9,1.1-1.2c0.5-0.3,1-0.4,1.6-0.4
			c0.9,0,1.7,0.3,2.3,0.9c0.6,0.6,0.9,1.5,0.9,2.5c0,1.1-0.3,1.9-0.9,2.5s-1.3,0.9-2.3,0.9C721.7,3034.1,721.2,3034,720.7,3033.7z
			 M723.3,3032.2c0.2-0.3,0.4-0.8,0.4-1.5c0-0.6-0.1-1.1-0.4-1.5c-0.2-0.3-0.6-0.5-1-0.5c-0.4,0-0.7,0.2-1,0.5s-0.4,0.8-0.4,1.5
			s0.1,1.2,0.4,1.5s0.6,0.5,1,0.5C722.7,3032.7,723,3032.5,723.3,3032.2z"/>
	</g>
	<g class="st4">
		<path class="st5" d="M698,3094.6c0.7,0.3,1.2,0.8,1.6,1.4c0.4,0.6,0.6,1.3,0.6,2.1c0,0.8-0.2,1.6-0.6,2.2c-0.4,0.6-1,1.1-1.7,1.5
			s-1.5,0.5-2.4,0.5c-1.8,0-3.1-0.5-4.1-1.6s-1.5-2.6-1.5-4.6c0-1.4,0.3-2.7,0.8-3.7c0.5-1,1.3-1.8,2.3-2.3c1-0.5,2.1-0.8,3.4-0.8
			c0.7,0,1.3,0.1,1.9,0.2c0.6,0.2,1.1,0.4,1.6,0.6l-1.1,2.1c-0.6-0.4-1.4-0.6-2.4-0.6c-1.1,0-1.9,0.3-2.5,0.9c-0.6,0.6-1,1.5-1,2.7
			c0.7-0.7,1.8-1.1,3.1-1.1C696.6,3094.1,697.3,3094.3,698,3094.6z M696.7,3099.5c0.4-0.3,0.6-0.8,0.6-1.4s-0.2-1-0.6-1.4
			c-0.4-0.3-0.9-0.5-1.6-0.5c-0.6,0-1.2,0.2-1.6,0.5c-0.4,0.4-0.6,0.8-0.6,1.4s0.2,1,0.6,1.3c0.4,0.3,0.9,0.5,1.6,0.5
			C695.8,3100,696.3,3099.9,696.7,3099.5z"/>
		<path class="st5" d="M709.4,3095.2c0.8,0.7,1.3,1.7,1.3,2.8c0,0.8-0.2,1.5-0.6,2.1c-0.4,0.6-1,1.1-1.8,1.5
			c-0.8,0.4-1.8,0.6-2.9,0.6c-0.9,0-1.8-0.1-2.6-0.4c-0.9-0.2-1.6-0.6-2.2-1l1.2-2.2c0.5,0.4,1,0.6,1.7,0.8c0.6,0.2,1.3,0.3,1.9,0.3
			c0.7,0,1.3-0.1,1.7-0.4s0.6-0.7,0.6-1.2c0-0.5-0.2-0.9-0.7-1.2c-0.4-0.3-1.2-0.4-2.3-0.4h-3.2l0.6-7.1h7.7v2.3h-5.3l-0.2,2.4h1
			C707.3,3094.1,708.6,3094.5,709.4,3095.2z"/>
		<path class="st5" d="M712.4,3095.3c-0.6-0.6-0.9-1.5-0.9-2.5c0-1.1,0.3-1.9,0.9-2.5s1.3-0.9,2.3-0.9s1.7,0.3,2.3,0.9
			s0.9,1.5,0.9,2.5c0,1.1-0.3,1.9-0.9,2.5s-1.3,0.9-2.3,0.9S712.9,3095.9,712.4,3095.3z M715.6,3094.2c0.2-0.3,0.4-0.8,0.4-1.5
			c0-0.7-0.1-1.2-0.4-1.5c-0.2-0.3-0.6-0.5-1-0.5c-0.4,0-0.7,0.2-1,0.5c-0.2,0.3-0.4,0.8-0.4,1.5c0,0.6,0.1,1.1,0.4,1.5
			c0.2,0.3,0.6,0.5,1,0.5C715,3094.7,715.3,3094.6,715.6,3094.2z M722.1,3089.4h2.1l-8.6,12.6h-2.1L722.1,3089.4z M721.6,3101.7
			c-0.5-0.3-0.8-0.7-1.1-1.2c-0.3-0.5-0.4-1.1-0.4-1.8c0-0.7,0.1-1.3,0.4-1.8s0.6-0.9,1.1-1.2c0.5-0.3,1-0.4,1.6-0.4
			c0.9,0,1.7,0.3,2.3,0.9c0.6,0.6,0.9,1.5,0.9,2.5c0,1.1-0.3,1.9-0.9,2.5s-1.3,0.9-2.3,0.9C722.6,3102.1,722,3102,721.6,3101.7z
			 M724.1,3100.2c0.2-0.3,0.4-0.8,0.4-1.5c0-0.6-0.1-1.1-0.4-1.5c-0.2-0.3-0.6-0.5-1-0.5c-0.4,0-0.7,0.2-1,0.5s-0.4,0.8-0.4,1.5
			s0.1,1.2,0.4,1.5s0.6,0.5,1,0.5C723.6,3100.7,723.9,3100.5,724.1,3100.2z"/>
	</g>
	<path id="Trazado_11340" class="st0" d="M372,3084.5v-185.1"/>
	<g class="st4">
		<path class="st6" d="M341.3,2958.2c0,1.4-0.4,2.4-1.3,3.2s-2.1,1.1-3.7,1.1h-1.2v4.6h-2.7v-12.8h4.1c1.6,0,2.7,0.3,3.6,1
			C340.9,2955.8,341.3,2956.8,341.3,2958.2z M335.1,2960.2h0.9c0.8,0,1.5-0.2,1.9-0.5s0.6-0.8,0.6-1.4c0-0.6-0.2-1.1-0.5-1.4
			s-0.9-0.5-1.6-0.5h-1.2V2960.2z"/>
		<path class="st6" d="M349.2,2957c0.4,0,0.7,0,0.9,0.1l-0.2,2.5c-0.2-0.1-0.5-0.1-0.8-0.1c-0.9,0-1.5,0.2-2,0.7s-0.7,1.1-0.7,1.8v5
			h-2.7v-9.8h2l0.4,1.7h0.1c0.3-0.6,0.7-1,1.2-1.3C348,2957.2,348.5,2957,349.2,2957z"/>
		<path class="st6" d="M351.9,2954.6c0-0.9,0.5-1.3,1.5-1.3s1.5,0.4,1.5,1.3c0,0.4-0.1,0.7-0.4,1s-0.6,0.3-1.1,0.3
			C352.4,2956,351.9,2955.5,351.9,2954.6z M354.7,2967H352v-9.8h2.7V2967z"/>
		<path class="st6" d="M366.5,2967h-2.7v-5.7c0-0.7-0.1-1.2-0.4-1.6s-0.6-0.5-1.1-0.5c-0.7,0-1.2,0.3-1.5,0.8s-0.5,1.3-0.5,2.5v4.6
			h-2.7v-9.8h2l0.4,1.3h0.1c0.3-0.5,0.6-0.8,1.1-1.1c0.5-0.3,1.1-0.4,1.7-0.4c1.5,0,2.5,0.5,3,1.4h0.2c0.3-0.5,0.7-0.8,1.2-1.1
			s1.1-0.4,1.7-0.4c1.1,0,2,0.3,2.5,0.9c0.6,0.6,0.9,1.5,0.9,2.7v6.4h-2.7v-5.7c0-0.7-0.1-1.2-0.4-1.6s-0.6-0.5-1.1-0.5
			c-0.7,0-1.1,0.2-1.5,0.7s-0.5,1.2-0.5,2.2V2967z"/>
		<path class="st6" d="M379.9,2967.2c-1.6,0-2.8-0.4-3.7-1.3s-1.3-2.1-1.3-3.7c0-1.6,0.4-2.9,1.2-3.8c0.8-0.9,2-1.3,3.4-1.3
			c1.4,0,2.5,0.4,3.2,1.2s1.2,1.9,1.2,3.3v1.3h-6.3c0,0.8,0.3,1.4,0.7,1.8s1,0.6,1.8,0.6c0.6,0,1.2-0.1,1.7-0.2s1.1-0.3,1.7-0.6v2.1
			c-0.5,0.2-1,0.4-1.5,0.5C381.4,2967.1,380.7,2967.2,379.9,2967.2z M379.6,2958.9c-0.6,0-1,0.2-1.3,0.5c-0.3,0.4-0.5,0.9-0.6,1.5
			h3.8c0-0.7-0.2-1.2-0.5-1.5C380.6,2959.1,380.1,2958.9,379.6,2958.9z"/>
		<path class="st6" d="M391.8,2957c0.4,0,0.7,0,0.9,0.1l-0.2,2.5c-0.2-0.1-0.5-0.1-0.8-0.1c-0.9,0-1.5,0.2-2,0.7s-0.7,1.1-0.7,1.8v5
			h-2.7v-9.8h2l0.4,1.7h0.1c0.3-0.6,0.7-1,1.2-1.3C390.6,2957.2,391.2,2957,391.8,2957z"/>
		<path class="st6" d="M400.9,2967l-0.5-1.3h-0.1c-0.5,0.6-0.9,1-1.4,1.2c-0.5,0.2-1.1,0.3-1.9,0.3c-0.9,0-1.7-0.3-2.2-0.8
			s-0.8-1.3-0.8-2.3c0-1,0.4-1.8,1.1-2.3s1.8-0.8,3.3-0.8l1.7-0.1v-0.4c0-1-0.5-1.5-1.5-1.5c-0.8,0-1.7,0.2-2.8,0.7l-0.9-1.8
			c1.1-0.6,2.4-0.9,3.8-0.9c1.3,0,2.3,0.3,3,0.9s1.1,1.4,1.1,2.6v6.5H400.9z M400.1,2962.4l-1,0c-0.8,0-1.4,0.2-1.7,0.4
			s-0.6,0.7-0.6,1.2c0,0.8,0.4,1.1,1.3,1.1c0.6,0,1.1-0.2,1.5-0.5s0.6-0.8,0.6-1.4V2962.4z"/>
	</g>
	<g class="st4">
		<path class="st6" d="M301.9,3031.4c0,1.2-0.4,2.1-1.3,2.7s-2,1-3.5,1c-1.4,0-2.6-0.3-3.6-0.8v-2.5c0.9,0.4,1.6,0.7,2.2,0.8
			s1.2,0.2,1.6,0.2c0.6,0,1.1-0.1,1.4-0.3s0.5-0.6,0.5-1c0-0.3-0.1-0.5-0.2-0.7c-0.1-0.2-0.3-0.4-0.6-0.6s-0.8-0.5-1.7-0.9
			c-0.8-0.4-1.4-0.7-1.8-1.1s-0.7-0.7-0.9-1.2s-0.4-1-0.4-1.6c0-1.1,0.4-2,1.2-2.7s1.8-1,3.2-1c0.7,0,1.3,0.1,1.9,0.2
			s1.2,0.4,1.9,0.7l-0.9,2.1c-0.7-0.3-1.3-0.5-1.7-0.6s-0.9-0.2-1.3-0.2c-0.5,0-0.9,0.1-1.2,0.4s-0.4,0.6-0.4,0.9
			c0,0.2,0.1,0.5,0.2,0.6c0.1,0.2,0.3,0.4,0.5,0.5c0.2,0.2,0.8,0.5,1.7,0.9c1.2,0.6,2,1.2,2.5,1.7
			C301.7,3029.9,301.9,3030.6,301.9,3031.4z"/>
		<path class="st6" d="M308.6,3035.2c-1.6,0-2.8-0.4-3.7-1.3s-1.3-2.1-1.3-3.7c0-1.6,0.4-2.9,1.2-3.8c0.8-0.9,2-1.3,3.4-1.3
			c1.4,0,2.5,0.4,3.2,1.2s1.2,1.9,1.2,3.3v1.3h-6.3c0,0.8,0.3,1.4,0.7,1.8s1,0.6,1.8,0.6c0.6,0,1.2-0.1,1.7-0.2s1.1-0.3,1.7-0.6v2.1
			c-0.5,0.2-1,0.4-1.5,0.5C310,3035.1,309.4,3035.2,308.6,3035.2z M308.3,3026.9c-0.6,0-1,0.2-1.3,0.5c-0.3,0.4-0.5,0.9-0.6,1.5h3.8
			c0-0.7-0.2-1.2-0.5-1.5C309.3,3027.1,308.8,3026.9,308.3,3026.9z"/>
		<path class="st6" d="M323.5,3025.2v1.4l-1.5,0.4c0.3,0.4,0.4,0.9,0.4,1.5c0,1.1-0.4,1.9-1.1,2.5c-0.7,0.6-1.8,0.9-3.1,0.9l-0.5,0
			l-0.4,0c-0.3,0.2-0.4,0.4-0.4,0.7c0,0.4,0.5,0.6,1.5,0.6h1.7c1.1,0,1.9,0.2,2.5,0.7s0.8,1.1,0.8,2c0,1.1-0.5,2-1.4,2.7
			s-2.3,0.9-4.1,0.9c-1.4,0-2.4-0.2-3.1-0.7s-1.1-1.1-1.1-2c0-0.6,0.2-1.1,0.6-1.5s0.9-0.7,1.6-0.9c-0.3-0.1-0.5-0.3-0.7-0.6
			c-0.2-0.3-0.3-0.5-0.3-0.8c0-0.4,0.1-0.7,0.3-0.9s0.5-0.5,0.9-0.7c-0.5-0.2-0.9-0.6-1.2-1.1s-0.5-1.1-0.5-1.7c0-1.1,0.3-1.9,1-2.5
			s1.7-0.9,3-0.9c0.3,0,0.6,0,1,0.1s0.6,0.1,0.7,0.1H323.5z M315.9,3036.4c0,0.4,0.2,0.7,0.5,0.9s0.9,0.3,1.5,0.3
			c1,0,1.7-0.1,2.3-0.4s0.8-0.6,0.8-1.1c0-0.4-0.2-0.6-0.5-0.8s-0.8-0.2-1.5-0.2h-1.4c-0.5,0-0.9,0.1-1.2,0.3
			C316.1,3035.7,315.9,3036,315.9,3036.4z M316.9,3028.4c0,0.5,0.1,1,0.4,1.3s0.6,0.5,1.1,0.5c0.5,0,0.9-0.2,1.1-0.5
			s0.4-0.7,0.4-1.3c0-1.2-0.5-1.8-1.5-1.8C317.4,3026.6,316.9,3027.2,316.9,3028.4z"/>
		<path class="st6" d="M332.3,3035l-0.4-1.3h-0.1c-0.3,0.5-0.7,0.8-1.2,1.1c-0.5,0.2-1.1,0.4-1.8,0.4c-1.2,0-2-0.3-2.6-0.9
			c-0.6-0.6-0.9-1.5-0.9-2.7v-6.4h2.7v5.7c0,0.7,0.1,1.2,0.4,1.6c0.3,0.4,0.7,0.5,1.2,0.5c0.8,0,1.3-0.3,1.6-0.8
			c0.3-0.5,0.5-1.3,0.5-2.5v-4.6h2.7v9.8H332.3z"/>
		<path class="st6" d="M346.4,3035h-2.7v-5.7c0-0.7-0.1-1.2-0.4-1.6s-0.7-0.5-1.2-0.5c-0.8,0-1.3,0.3-1.6,0.8
			c-0.3,0.5-0.5,1.3-0.5,2.5v4.6h-2.7v-9.8h2l0.4,1.3h0.1c0.3-0.5,0.7-0.8,1.2-1.1c0.5-0.2,1.1-0.4,1.8-0.4c1.1,0,2,0.3,2.6,0.9
			c0.6,0.6,0.9,1.5,0.9,2.7V3035z"/>
		<path class="st6" d="M352.4,3035.2c-1.2,0-2.1-0.4-2.7-1.3s-1-2.1-1-3.7c0-1.6,0.3-2.9,1-3.8c0.7-0.9,1.6-1.3,2.8-1.3
			c1.2,0,2.2,0.5,2.8,1.4h0.1c-0.1-0.7-0.2-1.4-0.2-2v-3.1h2.7v13.7h-2.1l-0.5-1.3h-0.1C354.6,3034.7,353.7,3035.2,352.4,3035.2z
			 M353.3,3033c0.7,0,1.2-0.2,1.5-0.6s0.5-1.1,0.5-2v-0.3c0-1.1-0.2-1.8-0.5-2.3s-0.9-0.7-1.6-0.7c-0.6,0-1.1,0.3-1.4,0.8
			s-0.5,1.2-0.5,2.2s0.2,1.7,0.5,2.2C352.2,3032.8,352.7,3033,353.3,3033z"/>
		<path class="st6" d="M367.1,3035l-0.5-1.3h-0.1c-0.5,0.6-0.9,1-1.4,1.2c-0.5,0.2-1.1,0.3-1.9,0.3c-0.9,0-1.7-0.3-2.2-0.8
			s-0.8-1.3-0.8-2.3c0-1,0.4-1.8,1.1-2.3s1.8-0.8,3.3-0.8l1.7-0.1v-0.4c0-1-0.5-1.5-1.5-1.5c-0.8,0-1.7,0.2-2.8,0.7l-0.9-1.8
			c1.1-0.6,2.4-0.9,3.8-0.9c1.3,0,2.3,0.3,3,0.9s1.1,1.4,1.1,2.6v6.5H367.1z M366.3,3030.4l-1,0c-0.8,0-1.4,0.2-1.7,0.4
			s-0.6,0.7-0.6,1.2c0,0.8,0.4,1.1,1.3,1.1c0.6,0,1.1-0.2,1.5-0.5s0.6-0.8,0.6-1.4V3030.4z"/>
		<path class="st6" d="M380.7,3035.2c-3.1,0-4.6-1.7-4.6-5c0-1.7,0.4-2.9,1.2-3.8s2-1.3,3.6-1.3c1.1,0,2.2,0.2,3.1,0.7l-0.8,2.1
			c-0.4-0.2-0.8-0.3-1.2-0.4s-0.7-0.2-1.1-0.2c-1.4,0-2.1,1-2.1,3c0,1.9,0.7,2.9,2.1,2.9c0.5,0,1-0.1,1.4-0.2s0.9-0.4,1.3-0.6v2.3
			c-0.4,0.3-0.9,0.5-1.3,0.6S381.4,3035.2,380.7,3035.2z"/>
		<path class="st6" d="M392.4,3035l-0.5-1.3h-0.1c-0.5,0.6-0.9,1-1.4,1.2c-0.5,0.2-1.1,0.3-1.9,0.3c-0.9,0-1.7-0.3-2.2-0.8
			s-0.8-1.3-0.8-2.3c0-1,0.4-1.8,1.1-2.3s1.8-0.8,3.3-0.8l1.7-0.1v-0.4c0-1-0.5-1.5-1.5-1.5c-0.8,0-1.7,0.2-2.8,0.7l-0.9-1.8
			c1.1-0.6,2.4-0.9,3.8-0.9c1.3,0,2.3,0.3,3,0.9s1.1,1.4,1.1,2.6v6.5H392.4z M391.6,3030.4l-1,0c-0.8,0-1.4,0.2-1.7,0.4
			s-0.6,0.7-0.6,1.2c0,0.8,0.4,1.1,1.3,1.1c0.6,0,1.1-0.2,1.5-0.5s0.6-0.8,0.6-1.4V3030.4z"/>
		<path class="st6" d="M399.8,3035h-2.7v-13.7h2.7V3035z"/>
		<path class="st6" d="M402.7,3022.6c0-0.9,0.5-1.3,1.5-1.3s1.5,0.4,1.5,1.3c0,0.4-0.1,0.7-0.4,1s-0.6,0.3-1.1,0.3
			C403.2,3024,402.7,3023.5,402.7,3022.6z M405.5,3035h-2.7v-9.8h2.7V3035z"/>
		<path class="st6" d="M411.6,3035.2c-1.2,0-2.1-0.4-2.7-1.3s-1-2.1-1-3.7c0-1.6,0.3-2.9,1-3.8c0.7-0.9,1.6-1.3,2.8-1.3
			c1.2,0,2.2,0.5,2.8,1.4h0.1c-0.1-0.7-0.2-1.4-0.2-2v-3.1h2.7v13.7H415l-0.5-1.3h-0.1C413.8,3034.7,412.8,3035.2,411.6,3035.2z
			 M412.5,3033c0.7,0,1.2-0.2,1.5-0.6s0.5-1.1,0.5-2v-0.3c0-1.1-0.2-1.8-0.5-2.3s-0.9-0.7-1.6-0.7c-0.6,0-1.1,0.3-1.4,0.8
			s-0.5,1.2-0.5,2.2s0.2,1.7,0.5,2.2C411.4,3032.8,411.9,3033,412.5,3033z"/>
		<path class="st6" d="M426.3,3035l-0.5-1.3h-0.1c-0.5,0.6-0.9,1-1.4,1.2c-0.5,0.2-1.1,0.3-1.9,0.3c-0.9,0-1.7-0.3-2.2-0.8
			s-0.8-1.3-0.8-2.3c0-1,0.4-1.8,1.1-2.3s1.8-0.8,3.3-0.8l1.7-0.1v-0.4c0-1-0.5-1.5-1.5-1.5c-0.8,0-1.7,0.2-2.8,0.7l-0.9-1.8
			c1.1-0.6,2.4-0.9,3.8-0.9c1.3,0,2.3,0.3,3,0.9s1.1,1.4,1.1,2.6v6.5H426.3z M425.5,3030.4l-1,0c-0.8,0-1.4,0.2-1.7,0.4
			s-0.6,0.7-0.6,1.2c0,0.8,0.4,1.1,1.3,1.1c0.6,0,1.1-0.2,1.5-0.5s0.6-0.8,0.6-1.4V3030.4z"/>
		<path class="st6" d="M434.2,3035.2c-1.2,0-2.1-0.4-2.7-1.3s-1-2.1-1-3.7c0-1.6,0.3-2.9,1-3.8c0.7-0.9,1.6-1.3,2.8-1.3
			c1.2,0,2.2,0.5,2.8,1.4h0.1c-0.1-0.7-0.2-1.4-0.2-2v-3.1h2.7v13.7h-2.1l-0.5-1.3H437C436.4,3034.7,435.4,3035.2,434.2,3035.2z
			 M435.1,3033c0.7,0,1.2-0.2,1.5-0.6s0.5-1.1,0.5-2v-0.3c0-1.1-0.2-1.8-0.5-2.3s-0.9-0.7-1.6-0.7c-0.6,0-1.1,0.3-1.4,0.8
			s-0.5,1.2-0.5,2.2s0.2,1.7,0.5,2.2C434,3032.8,434.5,3033,435.1,3033z"/>
	</g>
	<g class="st4">
		<path class="st6" d="M304,3104h-2.7v-10.6h-3.5v-2.3h9.7v2.3H304V3104z"/>
		<path class="st6" d="M313.9,3104.2c-1.6,0-2.8-0.4-3.7-1.3s-1.3-2.1-1.3-3.7c0-1.6,0.4-2.9,1.2-3.8c0.8-0.9,2-1.3,3.4-1.3
			c1.4,0,2.5,0.4,3.2,1.2s1.2,1.9,1.2,3.3v1.3h-6.3c0,0.8,0.3,1.4,0.7,1.8s1,0.6,1.8,0.6c0.6,0,1.2-0.1,1.7-0.2s1.1-0.3,1.7-0.6v2.1
			c-0.5,0.2-1,0.4-1.5,0.5C315.3,3104.1,314.6,3104.2,313.9,3104.2z M313.5,3095.9c-0.6,0-1,0.2-1.3,0.5c-0.3,0.4-0.5,0.9-0.6,1.5
			h3.8c0-0.7-0.2-1.2-0.5-1.5C314.5,3096.1,314.1,3095.9,313.5,3095.9z"/>
		<path class="st6" d="M325.7,3094c0.4,0,0.7,0,0.9,0.1l-0.2,2.5c-0.2-0.1-0.5-0.1-0.8-0.1c-0.9,0-1.5,0.2-2,0.7s-0.7,1.1-0.7,1.8v5
			h-2.7v-9.8h2l0.4,1.7h0.1c0.3-0.6,0.7-1,1.2-1.3C324.5,3094.2,325.1,3094,325.7,3094z"/>
		<path class="st6" d="M332.5,3104.2c-3.1,0-4.6-1.7-4.6-5c0-1.7,0.4-2.9,1.2-3.8s2-1.3,3.6-1.3c1.1,0,2.2,0.2,3.1,0.7l-0.8,2.1
			c-0.4-0.2-0.8-0.3-1.2-0.4s-0.7-0.2-1.1-0.2c-1.4,0-2.1,1-2.1,3c0,1.9,0.7,2.9,2.1,2.9c0.5,0,1-0.1,1.4-0.2s0.9-0.4,1.3-0.6v2.3
			c-0.4,0.3-0.9,0.5-1.3,0.6S333.2,3104.2,332.5,3104.2z"/>
		<path class="st6" d="M342.4,3104.2c-1.6,0-2.8-0.4-3.7-1.3s-1.3-2.1-1.3-3.7c0-1.6,0.4-2.9,1.2-3.8c0.8-0.9,2-1.3,3.4-1.3
			c1.4,0,2.5,0.4,3.2,1.2s1.2,1.9,1.2,3.3v1.3h-6.3c0,0.8,0.3,1.4,0.7,1.8s1,0.6,1.8,0.6c0.6,0,1.2-0.1,1.7-0.2s1.1-0.3,1.7-0.6v2.1
			c-0.5,0.2-1,0.4-1.5,0.5C343.8,3104.1,343.2,3104.2,342.4,3104.2z M342,3095.9c-0.6,0-1,0.2-1.3,0.5c-0.3,0.4-0.5,0.9-0.6,1.5h3.8
			c0-0.7-0.2-1.2-0.5-1.5C343.1,3096.1,342.6,3095.9,342,3095.9z"/>
		<path class="st6" d="M354.3,3094c0.4,0,0.7,0,0.9,0.1l-0.2,2.5c-0.2-0.1-0.5-0.1-0.8-0.1c-0.9,0-1.5,0.2-2,0.7s-0.7,1.1-0.7,1.8v5
			h-2.7v-9.8h2l0.4,1.7h0.1c0.3-0.6,0.7-1,1.2-1.3C353.1,3094.2,353.6,3094,354.3,3094z"/>
		<path class="st6" d="M363.3,3104l-0.5-1.3h-0.1c-0.5,0.6-0.9,1-1.4,1.2c-0.5,0.2-1.1,0.3-1.9,0.3c-0.9,0-1.7-0.3-2.2-0.8
			s-0.8-1.3-0.8-2.3c0-1,0.4-1.8,1.1-2.3s1.8-0.8,3.3-0.8l1.7-0.1v-0.4c0-1-0.5-1.5-1.5-1.5c-0.8,0-1.7,0.2-2.8,0.7l-0.9-1.8
			c1.1-0.6,2.4-0.9,3.8-0.9c1.3,0,2.3,0.3,3,0.9s1.1,1.4,1.1,2.6v6.5H363.3z M362.6,3099.4l-1,0c-0.8,0-1.4,0.2-1.7,0.4
			s-0.6,0.7-0.6,1.2c0,0.8,0.4,1.1,1.3,1.1c0.6,0,1.1-0.2,1.5-0.5s0.6-0.8,0.6-1.4V3099.4z"/>
		<path class="st6" d="M377,3104.2c-3.1,0-4.6-1.7-4.6-5c0-1.7,0.4-2.9,1.2-3.8s2-1.3,3.6-1.3c1.1,0,2.2,0.2,3.1,0.7l-0.8,2.1
			c-0.4-0.2-0.8-0.3-1.2-0.4s-0.7-0.2-1.1-0.2c-1.4,0-2.1,1-2.1,3c0,1.9,0.7,2.9,2.1,2.9c0.5,0,1-0.1,1.4-0.2s0.9-0.4,1.3-0.6v2.3
			c-0.4,0.3-0.9,0.5-1.3,0.6S377.6,3104.2,377,3104.2z"/>
		<path class="st6" d="M388.6,3104l-0.5-1.3H388c-0.5,0.6-0.9,1-1.4,1.2c-0.5,0.2-1.1,0.3-1.9,0.3c-0.9,0-1.7-0.3-2.2-0.8
			s-0.8-1.3-0.8-2.3c0-1,0.4-1.8,1.1-2.3s1.8-0.8,3.3-0.8l1.7-0.1v-0.4c0-1-0.5-1.5-1.5-1.5c-0.8,0-1.7,0.2-2.8,0.7l-0.9-1.8
			c1.1-0.6,2.4-0.9,3.8-0.9c1.3,0,2.3,0.3,3,0.9s1.1,1.4,1.1,2.6v6.5H388.6z M387.8,3099.4l-1,0c-0.8,0-1.4,0.2-1.7,0.4
			s-0.6,0.7-0.6,1.2c0,0.8,0.4,1.1,1.3,1.1c0.6,0,1.1-0.2,1.5-0.5s0.6-0.8,0.6-1.4V3099.4z"/>
		<path class="st6" d="M396.1,3104h-2.7v-13.7h2.7V3104z"/>
		<path class="st6" d="M399,3091.6c0-0.9,0.5-1.3,1.5-1.3s1.5,0.4,1.5,1.3c0,0.4-0.1,0.7-0.4,1s-0.6,0.3-1.1,0.3
			C399.5,3093,399,3092.5,399,3091.6z M401.8,3104h-2.7v-9.8h2.7V3104z"/>
		<path class="st6" d="M407.9,3104.2c-1.2,0-2.1-0.4-2.7-1.3s-1-2.1-1-3.7c0-1.6,0.3-2.9,1-3.8c0.7-0.9,1.6-1.3,2.8-1.3
			c1.2,0,2.2,0.5,2.8,1.4h0.1c-0.1-0.7-0.2-1.4-0.2-2v-3.1h2.7v13.7h-2.1l-0.5-1.3h-0.1C410,3103.7,409.1,3104.2,407.9,3104.2z
			 M408.8,3102c0.7,0,1.2-0.2,1.5-0.6s0.5-1.1,0.5-2v-0.3c0-1.1-0.2-1.8-0.5-2.3s-0.9-0.7-1.6-0.7c-0.6,0-1.1,0.3-1.4,0.8
			s-0.5,1.2-0.5,2.2s0.2,1.7,0.5,2.2C407.7,3101.8,408.2,3102,408.8,3102z"/>
		<path class="st6" d="M422.5,3104l-0.5-1.3h-0.1c-0.5,0.6-0.9,1-1.4,1.2c-0.5,0.2-1.1,0.3-1.9,0.3c-0.9,0-1.7-0.3-2.2-0.8
			s-0.8-1.3-0.8-2.3c0-1,0.4-1.8,1.1-2.3s1.8-0.8,3.3-0.8l1.7-0.1v-0.4c0-1-0.5-1.5-1.5-1.5c-0.8,0-1.7,0.2-2.8,0.7l-0.9-1.8
			c1.1-0.6,2.4-0.9,3.8-0.9c1.3,0,2.3,0.3,3,0.9s1.1,1.4,1.1,2.6v6.5H422.5z M421.7,3099.4l-1,0c-0.8,0-1.4,0.2-1.7,0.4
			s-0.6,0.7-0.6,1.2c0,0.8,0.4,1.1,1.3,1.1c0.6,0,1.1-0.2,1.5-0.5s0.6-0.8,0.6-1.4V3099.4z"/>
		<path class="st6" d="M430.4,3104.2c-1.2,0-2.1-0.4-2.7-1.3s-1-2.1-1-3.7c0-1.6,0.3-2.9,1-3.8c0.7-0.9,1.6-1.3,2.8-1.3
			c1.2,0,2.2,0.5,2.8,1.4h0.1c-0.1-0.7-0.2-1.4-0.2-2v-3.1h2.7v13.7h-2.1l-0.5-1.3h-0.1C432.6,3103.7,431.7,3104.2,430.4,3104.2z
			 M431.4,3102c0.7,0,1.2-0.2,1.5-0.6s0.5-1.1,0.5-2v-0.3c0-1.1-0.2-1.8-0.5-2.3s-0.9-0.7-1.6-0.7c-0.6,0-1.1,0.3-1.4,0.8
			s-0.5,1.2-0.5,2.2s0.2,1.7,0.5,2.2C430.3,3101.8,430.8,3102,431.4,3102z"/>
	</g>
	<g class="st4">
		<path class="st6" d="M525.2,2907h-2.7v-12.8h7.4v2.2h-4.7v3.3h4.4v2.2h-4.4V2907z"/>
		<path class="st6" d="M537.8,2897c0.4,0,0.7,0,0.9,0.1l-0.2,2.5c-0.2-0.1-0.5-0.1-0.8-0.1c-0.9,0-1.5,0.2-2,0.7s-0.7,1.1-0.7,1.8v5
			h-2.7v-9.8h2l0.4,1.7h0.1c0.3-0.6,0.7-1,1.2-1.3C536.6,2897.2,537.2,2897,537.8,2897z"/>
		<path class="st6" d="M547.6,2907l-0.4-1.3h-0.1c-0.3,0.5-0.7,0.8-1.2,1.1c-0.5,0.2-1.1,0.4-1.8,0.4c-1.2,0-2-0.3-2.6-0.9
			c-0.6-0.6-0.9-1.5-0.9-2.7v-6.4h2.7v5.7c0,0.7,0.1,1.2,0.4,1.6c0.3,0.4,0.7,0.5,1.2,0.5c0.8,0,1.3-0.3,1.6-0.8
			c0.3-0.5,0.5-1.3,0.5-2.5v-4.6h2.7v9.8H547.6z"/>
		<path class="st6" d="M556.8,2905c0.5,0,1-0.1,1.7-0.3v2c-0.7,0.3-1.5,0.4-2.5,0.4c-1.1,0-1.9-0.3-2.3-0.8s-0.7-1.4-0.7-2.4v-4.7
			h-1.3v-1.1l1.5-0.9l0.8-2.1h1.7v2.1h2.8v2h-2.8v4.7c0,0.4,0.1,0.7,0.3,0.8S556.4,2905,556.8,2905z"/>
		<path class="st6" d="M566.8,2907l-0.5-1.3h-0.1c-0.5,0.6-0.9,1-1.4,1.2c-0.5,0.2-1.1,0.3-1.9,0.3c-0.9,0-1.7-0.3-2.2-0.8
			s-0.8-1.3-0.8-2.3c0-1,0.4-1.8,1.1-2.3s1.8-0.8,3.3-0.8l1.7-0.1v-0.4c0-1-0.5-1.5-1.5-1.5c-0.8,0-1.7,0.2-2.8,0.7l-0.9-1.8
			c1.1-0.6,2.4-0.9,3.8-0.9c1.3,0,2.3,0.3,3,0.9s1.1,1.4,1.1,2.6v6.5H566.8z M566.1,2902.4l-1,0c-0.8,0-1.4,0.2-1.7,0.4
			s-0.6,0.7-0.6,1.2c0,0.8,0.4,1.1,1.3,1.1c0.6,0,1.1-0.2,1.5-0.5s0.6-0.8,0.6-1.4V2902.4z"/>
	</g>
	<g class="st4">
		<path class="st6" d="M680.9,2907l-0.9-3.1h-4.7l-0.9,3.1h-2.9l4.5-12.9h3.3l4.6,12.9H680.9z M679.3,2901.7
			c-0.9-2.8-1.3-4.3-1.5-4.7s-0.2-0.7-0.2-0.9c-0.2,0.8-0.7,2.6-1.7,5.6H679.3z"/>
		<path class="st6" d="M692.2,2907h-7.8v-1.6l4.6-6.2h-4.3v-2h7.3v1.7l-4.4,6h4.6V2907z"/>
		<path class="st6" d="M701.3,2907l-0.4-1.3h-0.1c-0.3,0.5-0.7,0.8-1.2,1.1c-0.5,0.2-1.1,0.4-1.8,0.4c-1.2,0-2-0.3-2.6-0.9
			c-0.6-0.6-0.9-1.5-0.9-2.7v-6.4h2.7v5.7c0,0.7,0.1,1.2,0.4,1.6c0.3,0.4,0.7,0.5,1.2,0.5c0.8,0,1.3-0.3,1.6-0.8
			c0.3-0.5,0.5-1.3,0.5-2.5v-4.6h2.7v9.8H701.3z M697.3,2896.1v-0.2c1-1.2,1.7-2.1,2.1-2.6h3v0.2c-0.3,0.3-0.8,0.8-1.6,1.4
			c-0.7,0.6-1.3,1-1.7,1.3H697.3z"/>
		<path class="st6" d="M710.3,2907.2c-3.1,0-4.6-1.7-4.6-5c0-1.7,0.4-2.9,1.2-3.8s2-1.3,3.6-1.3c1.1,0,2.2,0.2,3.1,0.7l-0.8,2.1
			c-0.4-0.2-0.8-0.3-1.2-0.4s-0.7-0.2-1.1-0.2c-1.4,0-2.1,1-2.1,3c0,1.9,0.7,2.9,2.1,2.9c0.5,0,1-0.1,1.4-0.2s0.9-0.4,1.3-0.6v2.3
			c-0.4,0.3-0.9,0.5-1.3,0.6S711,2907.2,710.3,2907.2z"/>
		<path class="st6" d="M722,2907l-0.5-1.3h-0.1c-0.5,0.6-0.9,1-1.4,1.2c-0.5,0.2-1.1,0.3-1.9,0.3c-0.9,0-1.7-0.3-2.2-0.8
			s-0.8-1.3-0.8-2.3c0-1,0.4-1.8,1.1-2.3s1.8-0.8,3.3-0.8l1.7-0.1v-0.4c0-1-0.5-1.5-1.5-1.5c-0.8,0-1.7,0.2-2.8,0.7l-0.9-1.8
			c1.1-0.6,2.4-0.9,3.8-0.9c1.3,0,2.3,0.3,3,0.9s1.1,1.4,1.1,2.6v6.5H722z M721.2,2902.4l-1,0c-0.8,0-1.4,0.2-1.7,0.4
			s-0.6,0.7-0.6,1.2c0,0.8,0.4,1.1,1.3,1.1c0.6,0,1.1-0.2,1.5-0.5s0.6-0.8,0.6-1.4V2902.4z"/>
		<path class="st6" d="M732.2,2897c0.4,0,0.7,0,0.9,0.1l-0.2,2.5c-0.2-0.1-0.5-0.1-0.8-0.1c-0.9,0-1.5,0.2-2,0.7s-0.7,1.1-0.7,1.8v5
			h-2.7v-9.8h2l0.4,1.7h0.1c0.3-0.6,0.7-1,1.2-1.3C731.1,2897.2,731.6,2897,732.2,2897z"/>
	</g>
</g>
</svg>
