<svg xmlns="http://www.w3.org/2000/svg" width="722.455" height="157" viewBox="0 0 722.455 157">
  <g id="Grupo_7355" data-name="Grupo 7355" transform="translate(-206 -3452)">
    <g id="Grupo_7354" data-name="Grupo 7354">
      <text id="_334_gramos_de_azúcar_por_litro_de_agua." data-name="334 gramos de azúcar por litro de agua." transform="translate(394.455 3507.952)" fill="#00223d" font-size="16" font-family="OpenSans, Open Sans"><tspan x="0" y="17">334 gramos de </tspan><tspan x="0" y="41">azúcar por litro de </tspan><tspan x="0" y="65">agua.</tspan></text>
      <g id="Grupo_4337" data-name="Grupo 4337" transform="translate(206 3452)">
        <ellipse id="Elipse_497" data-name="Elipse 497" cx="79.5" cy="78.5" rx="79.5" ry="78.5" transform="translate(0 0)" fill="#80cbc4"/>
        <path id="Trazado_1178" data-name="Trazado 1178" d="M70.606,0A70.606,70.606,0,1,1,0,70.606,70.606,70.606,0,0,1,70.606,0Z" transform="translate(9.63 7.993)" fill="#fff"/>
      </g>
      <text id="Almíbar_de_25_Brix:_" data-name="Almíbar de 25°Brix: " transform="translate(225 3508)" fill="#00223d" font-size="16" font-family="OpenSans-Bold, Open Sans" font-weight="700"><tspan x="15.848" y="17">Almíbar de </tspan><tspan x="28.586" y="39">25°Brix: </tspan></text>
    </g>
    <g id="Grupo_7353" data-name="Grupo 7353">
      <text id="_429_gramos_de_azúcar_por_litro_de_agua" data-name="429 gramos de azúcar por litro de agua" transform="translate(770.455 3507.952)" fill="#00223d" font-size="16" font-family="OpenSans, Open Sans"><tspan x="0" y="17">429 gramos de </tspan><tspan x="0" y="41">azúcar por litro de </tspan><tspan x="0" y="65">agua</tspan></text>
      <g id="Grupo_7195" data-name="Grupo 7195" transform="translate(582 3452)">
        <ellipse id="Elipse_497-2" data-name="Elipse 497" cx="79.5" cy="78.5" rx="79.5" ry="78.5" transform="translate(0 0)" fill="#80cbc4"/>
        <path id="Trazado_1178-2" data-name="Trazado 1178" d="M70.606,0A70.606,70.606,0,1,1,0,70.606,70.606,70.606,0,0,1,70.606,0Z" transform="translate(9.63 7.993)" fill="#fff"/>
      </g>
      <text id="Almíbar_de_30_Brix:_" data-name="Almíbar de 30°Brix: " transform="translate(601 3508)" fill="#00223d" font-size="16" font-family="OpenSans-Bold, Open Sans" font-weight="700"><tspan x="15.848" y="17">Almíbar de </tspan><tspan x="28.586" y="39">30°Brix: </tspan></text>
    </g>
  </g>
</svg>
