<svg xmlns="http://www.w3.org/2000/svg" width="63.024" height="78.628" viewBox="0 0 63.024 78.628">
  <g id="Grupo_11411" data-name="Grupo 11411" transform="translate(-418.731 -1370.645)">
    <path id="Trazado_16922" data-name="Trazado 16922" d="M480.823,1370.645H419.662a.933.933,0,0,0-.931.933v9.454a2.173,2.173,0,0,0,.678,1.573l3.967,3.735a10.589,10.589,0,0,0-.078,1.266v46.7a14.981,14.981,0,0,0,14.965,14.965h23.961a14.982,14.982,0,0,0,14.966-14.965v-46.7a10.876,10.876,0,0,0-.078-1.266l3.966-3.735a2.167,2.167,0,0,0,.678-1.573v-9.454A.933.933,0,0,0,480.823,1370.645Zm-46.9,63.663v-44.424H466.56v7.7H442.523v31.337H466.56v5.384a4.336,4.336,0,0,1-4.337,4.334H438.262A4.334,4.334,0,0,1,433.927,1434.308Z" transform="translate(0)" fill="#80b24b"/>
  </g>
</svg>
