<svg xmlns="http://www.w3.org/2000/svg" width="60.501" height="74.145" viewBox="0 0 60.501 74.145">
  <g id="Grupo_11399" data-name="Grupo 11399" transform="translate(-1127.989 -956.002)">
    <path id="Trazado_16901" data-name="Trazado 16901" d="M1181.669,980.078a1.715,1.715,0,0,0-1.715,1.714v2.924a3.227,3.227,0,1,1-6.455,0v-4.788a2.387,2.387,0,1,0-4.774,0v9.686c0,2.6-1.346,4.717-3.95,4.717s-3.949-2.113-3.949-4.717V978.183a2.436,2.436,0,0,0-4.871,0v2.346a3.826,3.826,0,1,1-7.652,0v-5.721a1.562,1.562,0,0,0-3.124,0v14.9a4.815,4.815,0,0,1-9.631,0V984.29a1.226,1.226,0,1,0-2.452,0v38.489a7.367,7.367,0,0,0,7.368,7.368h35.553a7.368,7.368,0,0,0,7.368-7.368V981.792A1.716,1.716,0,0,0,1181.669,980.078Zm-25.2,14.619h4.548l2.275,3.939-1.139,1.97-1.136,1.97h-4.548l-1.138-1.97-1.138-1.97Zm6.823,14.15-2.275,3.94h-4.548l-2.276-3.94,2.276-3.94h4.548Zm-15.667-9.045h4.55l1.138,1.97,1.137,1.969-2.275,3.941h-4.55l-2.274-3.941Zm4.55,18.089h-4.55l-2.274-3.939,2.274-3.939h4.55l2.275,3.939-1.137,1.969Zm8.842,5.106h-4.548l-2.276-3.94,1.138-1.971,1.138-1.97h4.548l1.136,1.97,1.139,1.971Zm8.842-5.106h-4.547l-1.139-1.97-1.139-1.969,2.278-3.939h4.547l2.275,3.939Zm0-10.209h-4.547l-2.278-3.941,1.139-1.969,1.139-1.97h4.547l2.275,3.939Z" fill="#80b24b"/>
    <path id="Trazado_16902" data-name="Trazado 16902" d="M1130.807,956l-2.817,7.429,2.151,4.678h56.2l2.151-4.678L1185.672,956Z" fill="#80b24b"/>
  </g>
</svg>
