<svg xmlns="http://www.w3.org/2000/svg" width="129" height="97.643" viewBox="0 0 129 97.643">
  <g id="Grupo_11403" data-name="Grupo 11403" transform="translate(-134 -2682)">
    <text id="Selecci칩n" transform="translate(134 2755.643)" fill="#00223d" font-size="18" font-family="Montserrat-SemiBold, Montserrat" font-weight="600"><tspan x="20.085" y="17">Selecci칩n</tspan></text>
    <g id="Grupo_7944" data-name="Grupo 7944" transform="translate(13 -625)">
      <g id="Grupo_7942" data-name="Grupo 7942" transform="translate(-242.403 2346.033)">
        <path id="Trazado_13804" data-name="Trazado 13804" d="M420.505,971.278c-.335-1.191-2.673-2.642-3.4-3.066a.234.234,0,0,0-.324.069,17.638,17.638,0,0,0-2.419,10.909,4.2,4.2,0,0,0-3.267,2.6,8.25,8.25,0,0,1,.877.678,7,7,0,0,1,2.822-.842c.163-.012.324-.02.486-.02a6.542,6.542,0,0,1,.852.057,7.12,7.12,0,0,1,2.47.811,8.049,8.049,0,0,1,1.141-.854,4.261,4.261,0,0,0-3.279-2.445,17.469,17.469,0,0,1,3.934-7.485A.447.447,0,0,0,420.505,971.278Z" transform="translate(-4.249 -1.834)" fill="#80b24b"/>
        <path id="Trazado_13805" data-name="Trazado 13805" d="M420.088,986.793c-.223,0-.451.007-.683.025a6.428,6.428,0,0,0-3.85,1.564,6.817,6.817,0,0,1,.962,1.059,8.5,8.5,0,0,1,1.263,2.531,12.068,12.068,0,0,1,.5,2.643,16.046,16.046,0,0,1-.018,2.61,17.612,17.612,0,0,1-.4,2.538,32.031,32.031,0,0,0-.921-4.907,9.772,9.772,0,0,0-2.094-4.034,5.289,5.289,0,0,0-.7-.614,4.629,4.629,0,0,0-.951-.55,4.37,4.37,0,0,0-1.892-.345,4.939,4.939,0,0,0-1.9.488,5.66,5.66,0,0,0-.941.551,6.6,6.6,0,0,0-.73.609,7.911,7.911,0,0,0-2.046,3.7,15.71,15.71,0,0,0-.423,4.619,33.157,33.157,0,0,0,.595,4.856c.3,1.633.706,3.263,1.1,4.925a27.5,27.5,0,0,1-2.364-4.55,23.455,23.455,0,0,1-1.442-5.013,17.214,17.214,0,0,1-.226-2.672,13.262,13.262,0,0,1,.258-2.743,10.712,10.712,0,0,1,.921-2.7,9.108,9.108,0,0,1,1.725-2.376,8.659,8.659,0,0,1,.718-.625,6.434,6.434,0,0,0-3.858-1.571c-.231-.017-.459-.025-.682-.025-3.806,0-6.4,2.265-7.2,6.348-1.551,7.933,1.608,16.586,5.71,22.672,1.171,1.737,2.282,2.968,4.448,2.968a6.944,6.944,0,0,0,.965-.072,4.079,4.079,0,0,0,2.245-1.149,3.288,3.288,0,0,0,2.755,1.553,3.341,3.341,0,0,0,2.855-1.68,4.147,4.147,0,0,0,2.38,1.276,6.906,6.906,0,0,0,.964.072c2.168,0,3.279-1.23,4.449-2.968,4.1-6.086,7.26-14.739,5.71-22.672C426.486,989.058,423.893,986.793,420.088,986.793Z" transform="translate(0 -6.573)" fill="#80b24b"/>
        <path id="Trazado_13806" data-name="Trazado 13806" d="M476.612,975.477a3.171,3.171,0,0,0-.8-2.937,3.242,3.242,0,0,0-.695-.54,5.755,5.755,0,0,0-10.856-3.694,5.47,5.47,0,0,0-3.127,10.446l.074,8.719-4.2,8.536a2.331,2.331,0,1,0,4.182,2.058h0l.006-.014,2.339-4.752.005-.01,2.038-4.145,4.21-4.239a5.358,5.358,0,0,0,.781,1.039,6.4,6.4,0,0,0,9.169-8.87A5.472,5.472,0,0,0,476.612,975.477Zm-12.131,3.482a3.16,3.16,0,0,0,.883,1.952,3.462,3.462,0,0,0,.274.25l-2.118,4.255-.054-6.3A5.6,5.6,0,0,0,464.481,978.96Zm.613,7.687,2.986-6a5.756,5.756,0,0,0,2.129-.587,11.277,11.277,0,0,0-.026,1.462Z" transform="translate(-15.873 -0.987)" fill="#80b24b"/>
        <path id="Trazado_13807" data-name="Trazado 13807" d="M452.291,967.366a5.9,5.9,0,0,0-5.784-5.985,5.246,5.246,0,0,0-2.919.992,13.5,13.5,0,0,1-6.507.6,3.134,3.134,0,0,0-2.471,4.919,4.03,4.03,0,0,0,3.654,7.088l4.067,3.66,2.548,6.524a1.716,1.716,0,0,0,3.2-1.249l-1.424-3.644,0-.006-1.238-3.168-.174-3.652a5.182,5.182,0,0,0,1.606.21A5.9,5.9,0,0,0,452.291,967.366ZM440.485,973.1a2.382,2.382,0,0,0,.351.019,2.138,2.138,0,0,0,.271-.025l1.258,3.266-2.585-2.327A4,4,0,0,0,440.485,973.1Zm3.887,3.926-2.55-6.615a6.023,6.023,0,0,0,.5-.748,15.1,15.1,0,0,0,1.779,1.593Z" transform="translate(-9.805)" fill="#80b24b"/>
      </g>
      <rect id="Rect치ngulo_3376" data-name="Rect치ngulo 3376" width="71" height="12" transform="translate(152 3356)" fill="#80b24b"/>
    </g>
  </g>
</svg>
