<svg xmlns="http://www.w3.org/2000/svg" width="129" height="115.642" viewBox="0 0 129 115.642">
  <g id="Grupo_11404" data-name="Grupo 11404" transform="translate(-134 -2924)">
    <text id="Clasificación" transform="translate(134 3012.642)" fill="#00223d" font-size="18" font-family="Montserrat-SemiBold, Montserrat" font-weight="600"><tspan x="5.478" y="17">Clasificación</tspan></text>
    <g id="Grupo_7943" data-name="Grupo 7943" transform="translate(-91.545 1978.989)">
      <path id="Trazado_13808" data-name="Trazado 13808" d="M324.377,946.733a1.133,1.133,0,0,0-1.511.529L320.1,953a3,3,0,0,0-3,1.084l-.288.368a6.846,6.846,0,0,0-6.3,1.1.385.385,0,0,0-.046.564l6.064,6.52a.282.282,0,0,1-.034.339.272.272,0,0,1-.323.093l-7.073-4.332a.456.456,0,0,0-.595.111l-4.212,5.446a.481.481,0,0,0,.029.618l3.141,3.376a.287.287,0,0,1-.034.34.277.277,0,0,1-.324.095l-3.972-1.361a.523.523,0,0,0-.6.207l-4.28,6.578h17.724l1.937-2.384a.452.452,0,0,0-.03-.6l-4.369-4.413a.272.272,0,0,1,.015-.336.279.279,0,0,1,.32-.115l6.431,3.835a.444.444,0,0,0,.587-.119l1.638-2.253a6.848,6.848,0,0,0,.774-8.245l.289-.366a3,3,0,0,0,.53-2.65l5.244-4.457a1.132,1.132,0,1,0-1.468-1.723l-3.588,3.05,5.157-6.522a1.132,1.132,0,1,0-1.776-1.4l-3.625,4.587.858-1.785A1.133,1.133,0,0,0,324.377,946.733Z" transform="translate(-4.45 0)" fill="#80b24b"/>
      <path id="Trazado_13809" data-name="Trazado 13809" d="M258.249,960.983a7.555,7.555,0,0,0,8.835,8.408,3.9,3.9,0,0,0,7.33,1.106,26.264,26.264,0,0,1,3.391,3.786H286.2c-2.477-3.684-2.763-5.783-2.817-10a4.506,4.506,0,0,0,3.235-8.077,6.3,6.3,0,0,0-10.363-7.1,6.85,6.85,0,0,0-12.213,5.491A7.559,7.559,0,0,0,258.249,960.983Zm15.612,5.21a3.9,3.9,0,0,0-.392-.394l-.81-.809a7.416,7.416,0,0,0,.357-1,2.965,2.965,0,0,0,2.15-1.006,46.091,46.091,0,0,0,1.8,6.315Zm3.813-2.886a2.661,2.661,0,0,0,1.645.867,2.769,2.769,0,0,0,.8-.016l.744,6.785A23.1,23.1,0,0,1,277.674,963.306Z" transform="translate(-0.175 -0.14)" fill="#80b24b"/>
      <path id="Trazado_13810" data-name="Trazado 13810" d="M326.86,981.651h-1.589v-2.219a.685.685,0,0,0-.684-.685h-4.9a.686.686,0,0,0-.685.685v2.219H265.088v-2.219a.685.685,0,0,0-.685-.685h-4.9a.685.685,0,0,0-.684.685v2.219h-1.588a.684.684,0,0,0-.686.684v17.686a.684.684,0,0,0,.686.684h1.588v4.9h-1.588a.686.686,0,0,0-.686.685v17.686a.685.685,0,0,0,.686.684H326.86a.684.684,0,0,0,.685-.684v-17.686a.685.685,0,0,0-.685-.685h-1.589v-4.9h1.589a.683.683,0,0,0,.685-.684V982.336A.683.683,0,0,0,326.86,981.651Zm-3.163,9.208a1.645,1.645,0,1,1-1.646-1.645A1.645,1.645,0,0,1,323.7,990.859Zm-60.014,0a1.645,1.645,0,1,1-1.644-1.645A1.645,1.645,0,0,1,263.683,990.859Zm-1.644,24.978a1.644,1.644,0,1,1,1.644-1.645A1.646,1.646,0,0,1,262.039,1015.836Zm58.368-1.645a1.645,1.645,0,1,1,1.644,1.645A1.644,1.644,0,0,1,320.407,1014.192ZM319,1005.609H265.088v-4.9H319Z" transform="translate(0 -3.599)" fill="#80b24b"/>
    </g>
  </g>
</svg>
