<?xml version="1.0" encoding="utf-8"?>
<!-- Generator: Adobe Illustrator 24.2.0, SVG Export Plug-In . SVG Version: 6.00 Build 0)  -->
<svg version="1.1" id="Capa_1" xmlns="http://www.w3.org/2000/svg" xmlns:xlink="http://www.w3.org/1999/xlink" x="0px" y="0px"
	 viewBox="0 0 858 287.4" style="enable-background:new 0 0 858 287.4;" xml:space="preserve">
<style type="text/css">
	.st0{enable-background:new    ;}
	.st1{fill:#00223D;}
	.st2{fill:#266165;}
	.st3{fill:#3A979D;}
	.st4{fill:#80CBC4;}
	.st5{fill:#B2ED75;}
	.st6{fill:#A2EA57;}
	.st7{fill:#7CB342;}
	.st8{fill:#FFFFFF;}
	.st9{fill:none;}
	.st10{fill-rule:evenodd;clip-rule:evenodd;fill:#266165;}
	.st11{fill-rule:evenodd;clip-rule:evenodd;fill:#3A979D;}
	.st12{fill-rule:evenodd;clip-rule:evenodd;fill:#80CBC4;}
	.st13{fill-rule:evenodd;clip-rule:evenodd;fill:#B2ED75;}
	.st14{fill-rule:evenodd;clip-rule:evenodd;fill:#A2EA57;}
	.st15{fill:#FFE37B;}
	.st16{fill:#E6FF7B;}
	.st17{fill:#D6FF7B;}
	.st18{fill:#A9ED63;}
	.st19{fill:#8ECE4A;}
	.st20{fill-rule:evenodd;clip-rule:evenodd;fill:#E6FF7B;}
	.st21{fill-rule:evenodd;clip-rule:evenodd;fill:#D6FF7B;}
	.st22{fill-rule:evenodd;clip-rule:evenodd;fill:#A9ED63;}
	.st23{fill-rule:evenodd;clip-rule:evenodd;fill:#8ECE4A;}
	.st24{fill-rule:evenodd;clip-rule:evenodd;fill:#7CB342;}
	.st25{opacity:0.32;fill:#A48B93;enable-background:new    ;}
	.st26{fill:#FCD890;}
	.st27{fill:#DC4B71;}
	.st28{fill:#E1AEB9;}
	.st29{fill:#E4A541;}
	.st30{fill:#D29A3F;}
	.st31{opacity:0.86;fill:#FFFFFF;enable-background:new    ;}
	.st32{fill:#E7DC1A;}
	.st33{fill:#F6EEBB;}
	.st34{fill:#E7E24F;}
</style>
<g id="Grupo_11412" transform="translate(-132.5 -2012)">
	<g class="st0">
		<path class="st1" d="M135.4,2112.3v4.8h-1.3v-11.4h3.1c1.4,0,2.4,0.3,3.1,0.8c0.7,0.5,1,1.3,1,2.4c0,1.5-0.8,2.5-2.3,3.1l3.1,5.1
			h-1.6l-2.8-4.8H135.4z M135.4,2111.1h1.8c0.9,0,1.6-0.2,2.1-0.6s0.7-0.9,0.7-1.7c0-0.8-0.2-1.3-0.7-1.6s-1.2-0.5-2.1-0.5h-1.7
			V2111.1z"/>
		<path class="st1" d="M147.4,2117.2c-1.3,0-2.3-0.4-3-1.2c-0.7-0.8-1.1-1.8-1.1-3.2c0-1.4,0.3-2.5,1-3.3s1.6-1.2,2.7-1.2
			c1.1,0,1.9,0.4,2.5,1.1s0.9,1.6,0.9,2.8v0.8h-5.9c0,1,0.3,1.8,0.8,2.3c0.5,0.5,1.2,0.8,2,0.8c0.9,0,1.8-0.2,2.7-0.6v1.2
			c-0.5,0.2-0.9,0.3-1.3,0.4C148.5,2117.1,148,2117.2,147.4,2117.2z M147,2109.4c-0.7,0-1.2,0.2-1.6,0.7c-0.4,0.4-0.6,1.1-0.7,1.9
			h4.5c0-0.8-0.2-1.4-0.5-1.9C148.2,2109.6,147.7,2109.4,147,2109.4z"/>
		<path class="st1" d="M156.2,2117.2c-1.2,0-2.2-0.4-2.9-1.1s-1-1.8-1-3.2c0-1.4,0.3-2.5,1-3.3c0.7-0.8,1.7-1.2,2.9-1.2
			c0.4,0,0.8,0,1.2,0.1c0.4,0.1,0.7,0.2,1,0.3l-0.4,1.1c-0.3-0.1-0.6-0.2-0.9-0.3c-0.3-0.1-0.6-0.1-0.9-0.1c-1.7,0-2.6,1.1-2.6,3.3
			c0,1.1,0.2,1.9,0.6,2.4c0.4,0.6,1.1,0.8,1.9,0.8c0.7,0,1.4-0.2,2.2-0.5v1.1C157.8,2117,157,2117.2,156.2,2117.2z"/>
		<path class="st1" d="M160.3,2106.1c0-0.3,0.1-0.5,0.2-0.7c0.1-0.1,0.3-0.2,0.5-0.2c0.2,0,0.4,0.1,0.5,0.2c0.2,0.1,0.2,0.4,0.2,0.6
			s-0.1,0.5-0.2,0.7c-0.2,0.1-0.3,0.2-0.5,0.2c-0.2,0-0.4-0.1-0.5-0.2C160.3,2106.6,160.3,2106.4,160.3,2106.1z M161.7,2117h-1.3
			v-8.6h1.3V2117z"/>
		<path class="st1" d="M168.4,2108.3c1.1,0,2,0.4,2.6,1.2c0.6,0.8,0.9,1.9,0.9,3.3s-0.3,2.5-0.9,3.3c-0.6,0.8-1.5,1.2-2.6,1.2
			c-0.6,0-1.1-0.1-1.5-0.3s-0.8-0.5-1.2-0.9h-0.1l-0.3,1.1h-0.9v-12.2h1.3v3c0,0.7,0,1.3-0.1,1.8h0.1
			C166.3,2108.7,167.2,2108.3,168.4,2108.3z M168.2,2109.4c-0.9,0-1.5,0.3-1.9,0.8s-0.6,1.4-0.6,2.6s0.2,2.1,0.6,2.6
			c0.4,0.5,1,0.8,1.9,0.8c0.8,0,1.4-0.3,1.8-0.9s0.6-1.4,0.6-2.5c0-1.1-0.2-1.9-0.6-2.5S169,2109.4,168.2,2109.4z"/>
		<path class="st1" d="M181.6,2112.7c0,1.4-0.4,2.5-1.1,3.3s-1.7,1.2-2.9,1.2c-0.8,0-1.4-0.2-2-0.5s-1.1-0.9-1.4-1.5
			c-0.3-0.7-0.5-1.5-0.5-2.4c0-1.4,0.3-2.5,1-3.3c0.7-0.8,1.7-1.2,2.9-1.2c1.2,0,2.1,0.4,2.9,1.2
			C181.2,2110.3,181.6,2111.4,181.6,2112.7z M175.1,2112.7c0,1.1,0.2,1.9,0.7,2.5s1.1,0.9,1.9,0.9c0.8,0,1.5-0.3,1.9-0.9
			c0.4-0.6,0.7-1.4,0.7-2.5c0-1.1-0.2-1.9-0.7-2.5c-0.4-0.6-1.1-0.8-1.9-0.8c-0.8,0-1.5,0.3-1.9,0.8
			C175.3,2110.8,175.1,2111.6,175.1,2112.7z"/>
		<path class="st1" d="M186.7,2108.4h1.4l1.9,4.9c0.4,1.1,0.7,1.9,0.8,2.4h0.1c0.1-0.3,0.2-0.7,0.4-1.4c0.2-0.6,0.9-2.6,2.1-5.9h1.4
			l-3.7,9.8c-0.4,1-0.8,1.6-1.3,2.1c-0.5,0.4-1.1,0.6-1.8,0.6c-0.4,0-0.8,0-1.2-0.1v-1c0.3,0.1,0.6,0.1,1,0.1c0.9,0,1.5-0.5,1.9-1.5
			l0.5-1.2L186.7,2108.4z"/>
		<path class="st1" d="M206.9,2114c0,1-0.4,1.8-1.1,2.4c-0.7,0.6-1.7,0.8-3,0.8c-1.4,0-2.4-0.2-3.1-0.5v-1.3c0.5,0.2,1,0.4,1.5,0.5
			c0.6,0.1,1.1,0.2,1.6,0.2c0.9,0,1.6-0.2,2-0.5c0.4-0.3,0.7-0.8,0.7-1.4c0-0.4-0.1-0.7-0.2-1c-0.2-0.3-0.4-0.5-0.8-0.7
			c-0.4-0.2-0.9-0.5-1.7-0.7c-1.1-0.4-1.8-0.8-2.3-1.4c-0.5-0.5-0.7-1.2-0.7-2c0-0.9,0.3-1.6,1-2.1c0.7-0.5,1.5-0.8,2.6-0.8
			c1.1,0,2.2,0.2,3.1,0.6l-0.4,1.2c-0.9-0.4-1.9-0.6-2.8-0.6c-0.7,0-1.3,0.2-1.6,0.5c-0.4,0.3-0.6,0.7-0.6,1.3c0,0.4,0.1,0.7,0.2,1
			c0.1,0.3,0.4,0.5,0.7,0.7c0.3,0.2,0.9,0.4,1.6,0.7c1.2,0.4,2,0.9,2.5,1.4C206.7,2112.5,206.9,2113.2,206.9,2114z"/>
		<path class="st1" d="M212.6,2117.2c-1.3,0-2.3-0.4-3-1.2c-0.7-0.8-1.1-1.8-1.1-3.2c0-1.4,0.3-2.5,1-3.3s1.6-1.2,2.7-1.2
			c1.1,0,1.9,0.4,2.5,1.1s0.9,1.6,0.9,2.8v0.8h-5.9c0,1,0.3,1.8,0.8,2.3c0.5,0.5,1.2,0.8,2,0.8c0.9,0,1.8-0.2,2.7-0.6v1.2
			c-0.5,0.2-0.9,0.3-1.3,0.4C213.7,2117.1,213.2,2117.2,212.6,2117.2z M212.3,2109.4c-0.7,0-1.2,0.2-1.6,0.7
			c-0.4,0.4-0.6,1.1-0.7,1.9h4.5c0-0.8-0.2-1.4-0.5-1.9C213.5,2109.6,213,2109.4,212.3,2109.4z"/>
		<path class="st1" d="M219.3,2117H218v-12.2h1.3V2117z"/>
		<path class="st1" d="M225.7,2117.2c-1.3,0-2.3-0.4-3-1.2c-0.7-0.8-1.1-1.8-1.1-3.2c0-1.4,0.3-2.5,1-3.3s1.6-1.2,2.7-1.2
			c1.1,0,1.9,0.4,2.5,1.1s0.9,1.6,0.9,2.8v0.8h-5.9c0,1,0.3,1.8,0.8,2.3c0.5,0.5,1.2,0.8,2,0.8c0.9,0,1.8-0.2,2.7-0.6v1.2
			c-0.5,0.2-0.9,0.3-1.3,0.4C226.7,2117.1,226.3,2117.2,225.7,2117.2z M225.3,2109.4c-0.7,0-1.2,0.2-1.6,0.7
			c-0.4,0.4-0.6,1.1-0.7,1.9h4.5c0-0.8-0.2-1.4-0.5-1.9C226.5,2109.6,226,2109.4,225.3,2109.4z"/>
		<path class="st1" d="M234.5,2117.2c-1.2,0-2.2-0.4-2.9-1.1s-1-1.8-1-3.2c0-1.4,0.3-2.5,1-3.3c0.7-0.8,1.7-1.2,2.9-1.2
			c0.4,0,0.8,0,1.2,0.1c0.4,0.1,0.7,0.2,1,0.3l-0.4,1.1c-0.3-0.1-0.6-0.2-0.9-0.3c-0.3-0.1-0.6-0.1-0.9-0.1c-1.7,0-2.6,1.1-2.6,3.3
			c0,1.1,0.2,1.9,0.6,2.4c0.4,0.6,1.1,0.8,1.9,0.8c0.7,0,1.4-0.2,2.2-0.5v1.1C236,2117,235.3,2117.2,234.5,2117.2z"/>
		<path class="st1" d="M242.1,2117.2c-1.2,0-2.2-0.4-2.9-1.1s-1-1.8-1-3.2c0-1.4,0.3-2.5,1-3.3c0.7-0.8,1.7-1.2,2.9-1.2
			c0.4,0,0.8,0,1.2,0.1c0.4,0.1,0.7,0.2,1,0.3l-0.4,1.1c-0.3-0.1-0.6-0.2-0.9-0.3c-0.3-0.1-0.6-0.1-0.9-0.1c-1.7,0-2.6,1.1-2.6,3.3
			c0,1.1,0.2,1.9,0.6,2.4c0.4,0.6,1.1,0.8,1.9,0.8c0.7,0,1.4-0.2,2.2-0.5v1.1C243.7,2117,242.9,2117.2,242.1,2117.2z"/>
		<path class="st1" d="M246.2,2106.1c0-0.3,0.1-0.5,0.2-0.7c0.1-0.1,0.3-0.2,0.5-0.2c0.2,0,0.4,0.1,0.5,0.2c0.2,0.1,0.2,0.4,0.2,0.6
			s-0.1,0.5-0.2,0.7c-0.2,0.1-0.3,0.2-0.5,0.2c-0.2,0-0.4-0.1-0.5-0.2C246.2,2106.6,246.2,2106.4,246.2,2106.1z M247.6,2117h-1.3
			v-8.6h1.3V2117z"/>
		<path class="st1" d="M257.7,2112.7c0,1.4-0.4,2.5-1.1,3.3s-1.7,1.2-2.9,1.2c-0.8,0-1.4-0.2-2-0.5s-1.1-0.9-1.4-1.5
			c-0.3-0.7-0.5-1.5-0.5-2.4c0-1.4,0.3-2.5,1-3.3c0.7-0.8,1.7-1.2,2.9-1.2c1.2,0,2.1,0.4,2.9,1.2
			C257.4,2110.3,257.7,2111.4,257.7,2112.7z M251.2,2112.7c0,1.1,0.2,1.9,0.7,2.5s1.1,0.9,1.9,0.9c0.8,0,1.5-0.3,1.9-0.9
			c0.4-0.6,0.7-1.4,0.7-2.5c0-1.1-0.2-1.9-0.7-2.5c-0.4-0.6-1.1-0.8-1.9-0.8c-0.8,0-1.5,0.3-1.9,0.8
			C251.4,2110.8,251.2,2111.6,251.2,2112.7z M252.7,2107.1c0.3-0.3,0.5-0.7,0.8-1.2s0.5-0.9,0.7-1.2h1.6v0.2c-0.2,0.3-0.6,0.8-1,1.3
			s-0.8,0.9-1.2,1.1h-0.9V2107.1z"/>
		<path class="st1" d="M265.8,2117v-5.5c0-0.7-0.2-1.2-0.5-1.6c-0.3-0.3-0.8-0.5-1.5-0.5c-0.9,0-1.6,0.2-2,0.7
			c-0.4,0.5-0.6,1.3-0.6,2.4v4.5H260v-8.6h1.1l0.2,1.2h0.1c0.3-0.4,0.6-0.7,1.1-1c0.5-0.2,1-0.3,1.6-0.3c1,0,1.8,0.2,2.3,0.7
			c0.5,0.5,0.8,1.3,0.8,2.4v5.6H265.8z"/>
	</g>
	<g class="st0">
		<path class="st1" d="M319.8,2117v-11.4h1.3v10.2h5v1.2H319.8z"/>
		<path class="st1" d="M333.2,2117l-0.3-1.2h-0.1c-0.4,0.5-0.9,0.9-1.3,1.1c-0.4,0.2-1,0.3-1.6,0.3c-0.8,0-1.5-0.2-2-0.7
			c-0.5-0.4-0.7-1.1-0.7-1.9c0-1.7,1.4-2.6,4.1-2.7l1.5,0v-0.5c0-0.7-0.1-1.2-0.4-1.5s-0.8-0.5-1.4-0.5c-0.7,0-1.5,0.2-2.4,0.7
			l-0.4-1c0.4-0.2,0.9-0.4,1.4-0.5c0.5-0.1,1-0.2,1.5-0.2c1,0,1.8,0.2,2.3,0.7s0.7,1.2,0.7,2.2v5.8H333.2z M330.2,2116.1
			c0.8,0,1.4-0.2,1.9-0.7s0.7-1.1,0.7-1.9v-0.8l-1.3,0.1c-1,0-1.8,0.2-2.2,0.5c-0.5,0.3-0.7,0.7-0.7,1.3c0,0.5,0.1,0.8,0.4,1.1
			C329.3,2116,329.7,2116.1,330.2,2116.1z"/>
		<path class="st1" d="M338.7,2117l-3.3-8.6h1.4l1.8,5.1c0.4,1.2,0.7,2,0.7,2.3h0.1c0.1-0.3,0.2-0.8,0.5-1.7s1-2.8,2.1-5.7h1.4
			l-3.3,8.6H338.7z"/>
		<path class="st1" d="M350.1,2117l-0.3-1.2h-0.1c-0.4,0.5-0.9,0.9-1.3,1.1c-0.4,0.2-1,0.3-1.6,0.3c-0.8,0-1.5-0.2-2-0.7
			c-0.5-0.4-0.7-1.1-0.7-1.9c0-1.7,1.4-2.6,4.1-2.7l1.5,0v-0.5c0-0.7-0.1-1.2-0.4-1.5s-0.8-0.5-1.4-0.5c-0.7,0-1.5,0.2-2.4,0.7
			l-0.4-1c0.4-0.2,0.9-0.4,1.4-0.5c0.5-0.1,1-0.2,1.5-0.2c1,0,1.8,0.2,2.3,0.7s0.7,1.2,0.7,2.2v5.8H350.1z M347.1,2116.1
			c0.8,0,1.4-0.2,1.9-0.7s0.7-1.1,0.7-1.9v-0.8l-1.3,0.1c-1,0-1.8,0.2-2.2,0.5c-0.5,0.3-0.7,0.7-0.7,1.3c0,0.5,0.1,0.8,0.4,1.1
			C346.2,2116,346.6,2116.1,347.1,2116.1z"/>
		<path class="st1" d="M359.5,2115.9L359.5,2115.9c-0.7,0.9-1.6,1.3-2.8,1.3c-1.1,0-2-0.4-2.6-1.1c-0.6-0.8-0.9-1.9-0.9-3.3
			s0.3-2.5,0.9-3.3s1.5-1.2,2.6-1.2c1.2,0,2.1,0.4,2.7,1.3h0.1l-0.1-0.6l0-0.6v-3.5h1.3v12.2h-1.1L359.5,2115.9z M356.9,2116.1
			c0.9,0,1.5-0.2,1.9-0.7s0.6-1.3,0.6-2.3v-0.3c0-1.2-0.2-2.1-0.6-2.6c-0.4-0.5-1-0.8-1.9-0.8c-0.8,0-1.3,0.3-1.7,0.9
			c-0.4,0.6-0.6,1.4-0.6,2.5c0,1.1,0.2,1.9,0.6,2.5C355.6,2115.8,356.2,2116.1,356.9,2116.1z"/>
		<path class="st1" d="M370.9,2112.7c0,1.4-0.4,2.5-1.1,3.3s-1.7,1.2-2.9,1.2c-0.8,0-1.4-0.2-2-0.5s-1.1-0.9-1.4-1.5
			c-0.3-0.7-0.5-1.5-0.5-2.4c0-1.4,0.3-2.5,1-3.3c0.7-0.8,1.7-1.2,2.9-1.2c1.2,0,2.1,0.4,2.9,1.2
			C370.5,2110.3,370.9,2111.4,370.9,2112.7z M364.4,2112.7c0,1.1,0.2,1.9,0.7,2.5s1.1,0.9,1.9,0.9c0.8,0,1.5-0.3,1.9-0.9
			c0.4-0.6,0.7-1.4,0.7-2.5c0-1.1-0.2-1.9-0.7-2.5c-0.4-0.6-1.1-0.8-1.9-0.8c-0.8,0-1.5,0.3-1.9,0.8
			C364.6,2110.8,364.4,2111.6,364.4,2112.7z"/>
	</g>
	<g class="st0">
		<path class="st1" d="M455.4,2117h-6.4v-11.4h6.4v1.2h-5v3.7h4.7v1.2h-4.7v4.2h5V2117z"/>
		<path class="st1" d="M463.3,2114.7c0,0.8-0.3,1.4-0.9,1.8s-1.4,0.6-2.5,0.6c-1.1,0-2-0.2-2.7-0.5v-1.2c0.4,0.2,0.9,0.4,1.3,0.5
			c0.5,0.1,0.9,0.2,1.4,0.2c0.7,0,1.2-0.1,1.6-0.3c0.4-0.2,0.5-0.5,0.5-1c0-0.3-0.1-0.6-0.4-0.9s-0.9-0.5-1.7-0.8
			c-0.8-0.3-1.4-0.6-1.7-0.8s-0.6-0.5-0.8-0.8s-0.2-0.6-0.2-1c0-0.7,0.3-1.2,0.9-1.7c0.6-0.4,1.3-0.6,2.3-0.6c0.9,0,1.8,0.2,2.7,0.6
			l-0.5,1.1c-0.9-0.4-1.6-0.5-2.3-0.5c-0.6,0-1.1,0.1-1.4,0.3s-0.5,0.5-0.5,0.8c0,0.2,0.1,0.4,0.2,0.6s0.3,0.3,0.6,0.5
			c0.3,0.1,0.8,0.4,1.5,0.6c1,0.4,1.7,0.7,2.1,1.1C463.1,2113.6,463.3,2114.1,463.3,2114.7z"/>
		<path class="st1" d="M468.8,2117.2c-1.2,0-2.2-0.4-2.9-1.1s-1-1.8-1-3.2c0-1.4,0.3-2.5,1-3.3c0.7-0.8,1.7-1.2,2.9-1.2
			c0.4,0,0.8,0,1.2,0.1c0.4,0.1,0.7,0.2,1,0.3l-0.4,1.1c-0.3-0.1-0.6-0.2-0.9-0.3c-0.3-0.1-0.6-0.1-0.9-0.1c-1.7,0-2.6,1.1-2.6,3.3
			c0,1.1,0.2,1.9,0.6,2.4c0.4,0.6,1.1,0.8,1.9,0.8c0.7,0,1.4-0.2,2.2-0.5v1.1C470.4,2117,469.7,2117.2,468.8,2117.2z"/>
		<path class="st1" d="M478.3,2117l-0.3-1.2H478c-0.4,0.5-0.9,0.9-1.3,1.1c-0.4,0.2-1,0.3-1.6,0.3c-0.8,0-1.5-0.2-2-0.7
			c-0.5-0.4-0.7-1.1-0.7-1.9c0-1.7,1.4-2.6,4.1-2.7l1.5,0v-0.5c0-0.7-0.1-1.2-0.4-1.5s-0.8-0.5-1.4-0.5c-0.7,0-1.5,0.2-2.4,0.7
			l-0.4-1c0.4-0.2,0.9-0.4,1.4-0.5c0.5-0.1,1-0.2,1.5-0.2c1,0,1.8,0.2,2.3,0.7s0.7,1.2,0.7,2.2v5.8H478.3z M475.4,2116.1
			c0.8,0,1.4-0.2,1.9-0.7s0.7-1.1,0.7-1.9v-0.8l-1.3,0.1c-1,0-1.8,0.2-2.2,0.5c-0.5,0.3-0.7,0.7-0.7,1.3c0,0.5,0.1,0.8,0.4,1.1
			C474.5,2116,474.8,2116.1,475.4,2116.1z"/>
		<path class="st1" d="M483.2,2117h-1.3v-12.2h1.3V2117z"/>
		<path class="st1" d="M491.8,2115.9L491.8,2115.9c-0.7,0.9-1.6,1.3-2.8,1.3c-1.1,0-2-0.4-2.6-1.1c-0.6-0.8-0.9-1.9-0.9-3.3
			s0.3-2.5,0.9-3.3s1.5-1.2,2.6-1.2c1.2,0,2.1,0.4,2.7,1.3h0.1l-0.1-0.6l0-0.6v-3.5h1.3v12.2H492L491.8,2115.9z M489.2,2116.1
			c0.9,0,1.5-0.2,1.9-0.7s0.6-1.3,0.6-2.3v-0.3c0-1.2-0.2-2.1-0.6-2.6c-0.4-0.5-1-0.8-1.9-0.8c-0.8,0-1.3,0.3-1.7,0.9
			c-0.4,0.6-0.6,1.4-0.6,2.5c0,1.1,0.2,1.9,0.6,2.5C487.8,2115.8,488.4,2116.1,489.2,2116.1z"/>
		<path class="st1" d="M501,2117l-0.3-1.2h-0.1c-0.4,0.5-0.9,0.9-1.3,1.1c-0.4,0.2-1,0.3-1.6,0.3c-0.8,0-1.5-0.2-2-0.7
			c-0.5-0.4-0.7-1.1-0.7-1.9c0-1.7,1.4-2.6,4.1-2.7l1.5,0v-0.5c0-0.7-0.1-1.2-0.4-1.5s-0.8-0.5-1.4-0.5c-0.7,0-1.5,0.2-2.4,0.7
			l-0.4-1c0.4-0.2,0.9-0.4,1.4-0.5c0.5-0.1,1-0.2,1.5-0.2c1,0,1.8,0.2,2.3,0.7s0.7,1.2,0.7,2.2v5.8H501z M498.1,2116.1
			c0.8,0,1.4-0.2,1.9-0.7s0.7-1.1,0.7-1.9v-0.8l-1.3,0.1c-1,0-1.8,0.2-2.2,0.5c-0.5,0.3-0.7,0.7-0.7,1.3c0,0.5,0.1,0.8,0.4,1.1
			C497.2,2116,497.6,2116.1,498.1,2116.1z"/>
		<path class="st1" d="M510.5,2115.9L510.5,2115.9c-0.7,0.9-1.6,1.3-2.8,1.3c-1.1,0-2-0.4-2.6-1.1c-0.6-0.8-0.9-1.9-0.9-3.3
			s0.3-2.5,0.9-3.3s1.5-1.2,2.6-1.2c1.2,0,2.1,0.4,2.7,1.3h0.1l-0.1-0.6l0-0.6v-3.5h1.3v12.2h-1.1L510.5,2115.9z M507.9,2116.1
			c0.9,0,1.5-0.2,1.9-0.7s0.6-1.3,0.6-2.3v-0.3c0-1.2-0.2-2.1-0.6-2.6c-0.4-0.5-1-0.8-1.9-0.8c-0.8,0-1.3,0.3-1.7,0.9
			c-0.4,0.6-0.6,1.4-0.6,2.5c0,1.1,0.2,1.9,0.6,2.5C506.5,2115.8,507.1,2116.1,507.9,2116.1z"/>
		<path class="st1" d="M521.9,2112.7c0,1.4-0.4,2.5-1.1,3.3s-1.7,1.2-2.9,1.2c-0.8,0-1.4-0.2-2-0.5s-1.1-0.9-1.4-1.5
			c-0.3-0.7-0.5-1.5-0.5-2.4c0-1.4,0.3-2.5,1-3.3c0.7-0.8,1.7-1.2,2.9-1.2c1.2,0,2.1,0.4,2.9,1.2
			C521.5,2110.3,521.9,2111.4,521.9,2112.7z M515.3,2112.7c0,1.1,0.2,1.9,0.7,2.5s1.1,0.9,1.9,0.9c0.8,0,1.5-0.3,1.9-0.9
			c0.4-0.6,0.7-1.4,0.7-2.5c0-1.1-0.2-1.9-0.7-2.5c-0.4-0.6-1.1-0.8-1.9-0.8c-0.8,0-1.5,0.3-1.9,0.8
			C515.6,2110.8,515.3,2111.6,515.3,2112.7z"/>
	</g>
	<g class="st0">
		<path class="st1" d="M593.1,2111.2c0,1.9-0.5,3.3-1.5,4.3s-2.5,1.5-4.4,1.5H584v-11.4h3.5c1.8,0,3.2,0.5,4.1,1.5
			S593.1,2109.4,593.1,2111.2z M591.7,2111.2c0-1.5-0.4-2.6-1.1-3.4c-0.7-0.8-1.9-1.1-3.3-1.1h-1.9v9.1h1.6c1.6,0,2.8-0.4,3.6-1.2
			S591.7,2112.8,591.7,2111.2z"/>
		<path class="st1" d="M599.1,2117.2c-1.3,0-2.3-0.4-3-1.2c-0.7-0.8-1.1-1.8-1.1-3.2c0-1.4,0.3-2.5,1-3.3s1.6-1.2,2.7-1.2
			c1.1,0,1.9,0.4,2.5,1.1s0.9,1.6,0.9,2.8v0.8h-5.9c0,1,0.3,1.8,0.8,2.3c0.5,0.5,1.2,0.8,2,0.8c0.9,0,1.8-0.2,2.7-0.6v1.2
			c-0.5,0.2-0.9,0.3-1.3,0.4C600.2,2117.1,599.7,2117.2,599.1,2117.2z M598.7,2109.4c-0.7,0-1.2,0.2-1.6,0.7
			c-0.4,0.4-0.7,1.1-0.7,1.9h4.5c0-0.8-0.2-1.4-0.5-1.9C599.9,2109.6,599.4,2109.4,598.7,2109.4z"/>
		<path class="st1" d="M610,2114.7c0,0.8-0.3,1.4-0.9,1.8s-1.4,0.6-2.5,0.6c-1.1,0-2-0.2-2.7-0.5v-1.2c0.4,0.2,0.9,0.4,1.3,0.5
			c0.5,0.1,0.9,0.2,1.4,0.2c0.7,0,1.2-0.1,1.6-0.3c0.4-0.2,0.5-0.5,0.5-1c0-0.3-0.1-0.6-0.4-0.9s-0.9-0.5-1.7-0.8
			c-0.8-0.3-1.4-0.6-1.7-0.8s-0.6-0.5-0.8-0.8s-0.2-0.6-0.2-1c0-0.7,0.3-1.2,0.9-1.7c0.6-0.4,1.3-0.6,2.3-0.6c0.9,0,1.8,0.2,2.7,0.6
			l-0.5,1.1c-0.9-0.4-1.6-0.5-2.3-0.5c-0.6,0-1.1,0.1-1.4,0.3s-0.5,0.5-0.5,0.8c0,0.2,0.1,0.4,0.2,0.6s0.3,0.3,0.6,0.5
			c0.3,0.1,0.8,0.4,1.5,0.6c1,0.4,1.7,0.7,2.1,1.1C609.8,2113.6,610,2114.1,610,2114.7z"/>
		<path class="st1" d="M616.1,2117.2c-0.6,0-1.1-0.1-1.5-0.3s-0.8-0.5-1.2-0.9h-0.1c0.1,0.5,0.1,1,0.1,1.4v3.5h-1.3v-12.4h1.1
			l0.2,1.2h0.1c0.3-0.5,0.7-0.8,1.2-1c0.4-0.2,1-0.3,1.5-0.3c1.1,0,2,0.4,2.6,1.2s0.9,1.9,0.9,3.3c0,1.4-0.3,2.5-0.9,3.3
			C618.1,2116.8,617.2,2117.2,616.1,2117.2z M615.9,2109.4c-0.9,0-1.5,0.2-1.9,0.7s-0.6,1.3-0.6,2.3v0.3c0,1.2,0.2,2.1,0.6,2.6
			c0.4,0.5,1,0.8,1.9,0.8c0.7,0,1.3-0.3,1.7-0.9c0.4-0.6,0.6-1.4,0.6-2.5c0-1.1-0.2-1.9-0.6-2.5
			C617.2,2109.7,616.6,2109.4,615.9,2109.4z"/>
		<path class="st1" d="M623.1,2108.4v5.6c0,0.7,0.2,1.2,0.5,1.6c0.3,0.3,0.8,0.5,1.5,0.5c0.9,0,1.6-0.2,2-0.7s0.6-1.3,0.6-2.4v-4.5
			h1.3v8.6h-1.1l-0.2-1.1h-0.1c-0.3,0.4-0.6,0.7-1.1,1c-0.5,0.2-1,0.3-1.6,0.3c-1,0-1.8-0.2-2.3-0.7c-0.5-0.5-0.8-1.3-0.8-2.4v-5.6
			H623.1z"/>
		<path class="st1" d="M633,2117h-1.3v-12.2h1.3V2117z"/>
		<path class="st1" d="M639.7,2117.2c-0.6,0-1.1-0.1-1.5-0.3s-0.8-0.5-1.2-0.9H637c0.1,0.5,0.1,1,0.1,1.4v3.5h-1.3v-12.4h1.1
			l0.2,1.2h0.1c0.3-0.5,0.7-0.8,1.2-1c0.4-0.2,1-0.3,1.5-0.3c1.1,0,2,0.4,2.6,1.2s0.9,1.9,0.9,3.3c0,1.4-0.3,2.5-0.9,3.3
			C641.7,2116.8,640.9,2117.2,639.7,2117.2z M639.6,2109.4c-0.9,0-1.5,0.2-1.9,0.7s-0.6,1.3-0.6,2.3v0.3c0,1.2,0.2,2.1,0.6,2.6
			c0.4,0.5,1,0.8,1.9,0.8c0.7,0,1.3-0.3,1.7-0.9c0.4-0.6,0.6-1.4,0.6-2.5c0-1.1-0.2-1.9-0.6-2.5
			C640.9,2109.7,640.3,2109.4,639.6,2109.4z"/>
		<path class="st1" d="M650.8,2117l-0.3-1.2h-0.1c-0.4,0.5-0.9,0.9-1.3,1.1c-0.4,0.2-1,0.3-1.6,0.3c-0.8,0-1.5-0.2-2-0.7
			c-0.5-0.4-0.7-1.1-0.7-1.9c0-1.7,1.4-2.6,4.1-2.7l1.5,0v-0.5c0-0.7-0.1-1.2-0.4-1.5s-0.8-0.5-1.4-0.5c-0.7,0-1.5,0.2-2.4,0.7
			l-0.4-1c0.4-0.2,0.9-0.4,1.4-0.5c0.5-0.1,1-0.2,1.5-0.2c1,0,1.8,0.2,2.3,0.7s0.7,1.2,0.7,2.2v5.8H650.8z M647.9,2116.1
			c0.8,0,1.4-0.2,1.9-0.7s0.7-1.1,0.7-1.9v-0.8l-1.3,0.1c-1,0-1.8,0.2-2.2,0.5c-0.5,0.3-0.7,0.7-0.7,1.3c0,0.5,0.1,0.8,0.4,1.1
			C647,2116,647.4,2116.1,647.9,2116.1z"/>
		<path class="st1" d="M660.3,2115.9L660.3,2115.9c-0.7,0.9-1.6,1.3-2.8,1.3c-1.1,0-2-0.4-2.6-1.1c-0.6-0.8-0.9-1.9-0.9-3.3
			s0.3-2.5,0.9-3.3s1.5-1.2,2.6-1.2c1.2,0,2.1,0.4,2.7,1.3h0.1l-0.1-0.6l0-0.6v-3.5h1.3v12.2h-1.1L660.3,2115.9z M657.7,2116.1
			c0.9,0,1.5-0.2,1.9-0.7s0.6-1.3,0.6-2.3v-0.3c0-1.2-0.2-2.1-0.6-2.6c-0.4-0.5-1-0.8-1.9-0.8c-0.8,0-1.3,0.3-1.7,0.9
			c-0.4,0.6-0.6,1.4-0.6,2.5c0,1.1,0.2,1.9,0.6,2.5C656.3,2115.8,656.9,2116.1,657.7,2116.1z"/>
		<path class="st1" d="M671.7,2112.7c0,1.4-0.4,2.5-1.1,3.3s-1.7,1.2-2.9,1.2c-0.8,0-1.4-0.2-2-0.5s-1.1-0.9-1.4-1.5
			c-0.3-0.7-0.5-1.5-0.5-2.4c0-1.4,0.3-2.5,1-3.3c0.7-0.8,1.7-1.2,2.9-1.2c1.2,0,2.1,0.4,2.9,1.2
			C671.3,2110.3,671.7,2111.4,671.7,2112.7z M665.1,2112.7c0,1.1,0.2,1.9,0.7,2.5s1.1,0.9,1.9,0.9c0.8,0,1.5-0.3,1.9-0.9
			c0.4-0.6,0.7-1.4,0.7-2.5c0-1.1-0.2-1.9-0.7-2.5c-0.4-0.6-1.1-0.8-1.9-0.8c-0.8,0-1.5,0.3-1.9,0.8
			C665.4,2110.8,665.1,2111.6,665.1,2112.7z"/>
	</g>
	<g class="st0">
		<path class="st1" d="M730.3,2117h-1.3v-11.4h6.4v1.2h-5v4.2h4.7v1.2h-4.7V2117z"/>
		<path class="st1" d="M744.4,2112.7c0,1.4-0.4,2.5-1.1,3.3s-1.7,1.2-2.9,1.2c-0.8,0-1.4-0.2-2-0.5s-1.1-0.9-1.4-1.5
			c-0.3-0.7-0.5-1.5-0.5-2.4c0-1.4,0.3-2.5,1-3.3c0.7-0.8,1.7-1.2,2.9-1.2c1.2,0,2.1,0.4,2.9,1.2
			C744,2110.3,744.4,2111.4,744.4,2112.7z M737.9,2112.7c0,1.1,0.2,1.9,0.7,2.5s1.1,0.9,1.9,0.9c0.8,0,1.5-0.3,1.9-0.9
			c0.4-0.6,0.7-1.4,0.7-2.5c0-1.1-0.2-1.9-0.7-2.5c-0.4-0.6-1.1-0.8-1.9-0.8c-0.8,0-1.5,0.3-1.9,0.8
			C738.1,2110.8,737.9,2111.6,737.9,2112.7z"/>
		<path class="st1" d="M750.6,2108.3c0.4,0,0.7,0,1,0.1l-0.2,1.2c-0.4-0.1-0.7-0.1-0.9-0.1c-0.7,0-1.3,0.3-1.8,0.8s-0.7,1.3-0.7,2.1
			v4.6h-1.3v-8.6h1.1l0.1,1.6h0.1c0.3-0.6,0.7-1,1.1-1.3C749.5,2108.4,750,2108.3,750.6,2108.3z"/>
		<path class="st1" d="M764.1,2117v-5.6c0-0.7-0.1-1.2-0.4-1.5c-0.3-0.3-0.7-0.5-1.4-0.5c-0.8,0-1.4,0.2-1.8,0.7
			c-0.4,0.5-0.6,1.2-0.6,2.1v4.8h-1.3v-5.6c0-0.7-0.1-1.2-0.4-1.5c-0.3-0.3-0.7-0.5-1.4-0.5c-0.8,0-1.4,0.2-1.8,0.7
			c-0.4,0.5-0.6,1.3-0.6,2.4v4.5h-1.3v-8.6h1.1l0.2,1.2h0.1c0.2-0.4,0.6-0.7,1-1s0.9-0.4,1.5-0.4c1.3,0,2.2,0.5,2.6,1.5h0.1
			c0.3-0.4,0.6-0.8,1.1-1.1s1-0.4,1.7-0.4c1,0,1.7,0.2,2.2,0.7c0.5,0.5,0.7,1.3,0.7,2.4v5.6H764.1z"/>
		<path class="st1" d="M769.3,2108.4v5.6c0,0.7,0.2,1.2,0.5,1.6c0.3,0.3,0.8,0.5,1.5,0.5c0.9,0,1.6-0.2,2-0.7s0.6-1.3,0.6-2.4v-4.5
			h1.3v8.6h-1.1l-0.2-1.1h-0.1c-0.3,0.4-0.6,0.7-1.1,1c-0.5,0.2-1,0.3-1.6,0.3c-1,0-1.8-0.2-2.3-0.7c-0.5-0.5-0.8-1.3-0.8-2.4v-5.6
			H769.3z"/>
		<path class="st1" d="M779.2,2117h-1.3v-12.2h1.3V2117z"/>
		<path class="st1" d="M787.2,2117l-0.3-1.2h-0.1c-0.4,0.5-0.9,0.9-1.3,1.1c-0.4,0.2-1,0.3-1.6,0.3c-0.8,0-1.5-0.2-2-0.7
			c-0.5-0.4-0.7-1.1-0.7-1.9c0-1.7,1.4-2.6,4.1-2.7l1.5,0v-0.5c0-0.7-0.1-1.2-0.4-1.5s-0.8-0.5-1.4-0.5c-0.7,0-1.5,0.2-2.4,0.7
			l-0.4-1c0.4-0.2,0.9-0.4,1.4-0.5c0.5-0.1,1-0.2,1.5-0.2c1,0,1.8,0.2,2.3,0.7s0.7,1.2,0.7,2.2v5.8H787.2z M784.3,2116.1
			c0.8,0,1.4-0.2,1.9-0.7s0.7-1.1,0.7-1.9v-0.8l-1.3,0.1c-1,0-1.8,0.2-2.2,0.5c-0.5,0.3-0.7,0.7-0.7,1.3c0,0.5,0.1,0.8,0.4,1.1
			C783.4,2116,783.8,2116.1,784.3,2116.1z"/>
		<path class="st1" d="M794.3,2117.2c-1.2,0-2.2-0.4-2.9-1.1s-1-1.8-1-3.2c0-1.4,0.3-2.5,1-3.3c0.7-0.8,1.7-1.2,2.9-1.2
			c0.4,0,0.8,0,1.2,0.1c0.4,0.1,0.7,0.2,1,0.3l-0.4,1.1c-0.3-0.1-0.6-0.2-0.9-0.3c-0.3-0.1-0.6-0.1-0.9-0.1c-1.7,0-2.6,1.1-2.6,3.3
			c0,1.1,0.2,1.9,0.6,2.4c0.4,0.6,1.1,0.8,1.9,0.8c0.7,0,1.4-0.2,2.2-0.5v1.1C795.9,2117,795.1,2117.2,794.3,2117.2z"/>
		<path class="st1" d="M798.4,2106.1c0-0.3,0.1-0.5,0.2-0.7c0.1-0.1,0.3-0.2,0.5-0.2c0.2,0,0.4,0.1,0.5,0.2c0.2,0.1,0.2,0.4,0.2,0.6
			s-0.1,0.5-0.2,0.7c-0.2,0.1-0.3,0.2-0.5,0.2c-0.2,0-0.4-0.1-0.5-0.2C798.4,2106.6,798.4,2106.4,798.4,2106.1z M799.8,2117h-1.3
			v-8.6h1.3V2117z"/>
		<path class="st1" d="M809.9,2112.7c0,1.4-0.4,2.5-1.1,3.3s-1.7,1.2-2.9,1.2c-0.8,0-1.4-0.2-2-0.5s-1.1-0.9-1.4-1.5
			c-0.3-0.7-0.5-1.5-0.5-2.4c0-1.4,0.3-2.5,1-3.3c0.7-0.8,1.7-1.2,2.9-1.2c1.2,0,2.1,0.4,2.9,1.2
			C809.6,2110.3,809.9,2111.4,809.9,2112.7z M803.4,2112.7c0,1.1,0.2,1.9,0.7,2.5s1.1,0.9,1.9,0.9c0.8,0,1.5-0.3,1.9-0.9
			c0.4-0.6,0.7-1.4,0.7-2.5c0-1.1-0.2-1.9-0.7-2.5c-0.4-0.6-1.1-0.8-1.9-0.8c-0.8,0-1.5,0.3-1.9,0.8
			C803.6,2110.8,803.4,2111.6,803.4,2112.7z M804.9,2107.1c0.3-0.3,0.5-0.7,0.8-1.2s0.5-0.9,0.7-1.2h1.6v0.2c-0.2,0.3-0.6,0.8-1,1.3
			s-0.8,0.9-1.2,1.1h-0.9V2107.1z"/>
		<path class="st1" d="M818,2117v-5.5c0-0.7-0.2-1.2-0.5-1.6c-0.3-0.3-0.8-0.5-1.5-0.5c-0.9,0-1.6,0.2-2,0.7
			c-0.4,0.5-0.6,1.3-0.6,2.4v4.5h-1.3v-8.6h1.1l0.2,1.2h0.1c0.3-0.4,0.6-0.7,1.1-1c0.5-0.2,1-0.3,1.6-0.3c1,0,1.8,0.2,2.3,0.7
			c0.5,0.5,0.8,1.3,0.8,2.4v5.6H818z"/>
	</g>
	<g class="st0">
		<path class="st1" d="M880.9,2106.6c-1.3,0-2.2,0.4-3,1.3s-1.1,2-1.1,3.4c0,1.5,0.4,2.6,1.1,3.5s1.7,1.2,3,1.2
			c0.8,0,1.7-0.1,2.7-0.4v1.2c-0.8,0.3-1.8,0.4-2.9,0.4c-1.7,0-3-0.5-3.9-1.5s-1.4-2.5-1.4-4.4c0-1.2,0.2-2.2,0.7-3.1s1.1-1.6,1.9-2
			s1.8-0.7,2.9-0.7c1.2,0,2.2,0.2,3.1,0.7l-0.6,1.1C882.6,2106.8,881.7,2106.6,880.9,2106.6z"/>
		<path class="st1" d="M893.3,2112.7c0,1.4-0.4,2.5-1.1,3.3s-1.7,1.2-2.9,1.2c-0.8,0-1.4-0.2-2-0.5s-1.1-0.9-1.4-1.5
			s-0.5-1.5-0.5-2.4c0-1.4,0.3-2.5,1-3.3s1.7-1.2,2.9-1.2c1.2,0,2.1,0.4,2.9,1.2S893.3,2111.4,893.3,2112.7z M886.7,2112.7
			c0,1.1,0.2,1.9,0.7,2.5s1.1,0.9,1.9,0.9s1.5-0.3,1.9-0.9s0.7-1.4,0.7-2.5c0-1.1-0.2-1.9-0.7-2.5s-1.1-0.8-1.9-0.8
			c-0.8,0-1.5,0.3-1.9,0.8S886.7,2111.6,886.7,2112.7z"/>
		<path class="st1" d="M901.4,2117v-5.5c0-0.7-0.2-1.2-0.5-1.6s-0.8-0.5-1.5-0.5c-0.9,0-1.6,0.2-2,0.7s-0.6,1.3-0.6,2.4v4.5h-1.3
			v-8.6h1.1l0.2,1.2h0.1c0.3-0.4,0.6-0.7,1.1-1s1-0.3,1.6-0.3c1,0,1.8,0.2,2.3,0.7s0.8,1.3,0.8,2.4v5.6H901.4z"/>
		<path class="st1" d="M908.8,2117.2c-1.2,0-2.2-0.4-2.9-1.1s-1-1.8-1-3.2c0-1.4,0.3-2.5,1-3.3s1.7-1.2,2.9-1.2c0.4,0,0.8,0,1.2,0.1
			s0.7,0.2,1,0.3l-0.4,1.1c-0.3-0.1-0.6-0.2-0.9-0.3s-0.6-0.1-0.9-0.1c-1.7,0-2.6,1.1-2.6,3.3c0,1.1,0.2,1.9,0.6,2.4
			s1.1,0.8,1.9,0.8c0.7,0,1.4-0.2,2.2-0.5v1.1C910.4,2117,909.6,2117.2,908.8,2117.2z"/>
		<path class="st1" d="M916.6,2117.2c-1.3,0-2.3-0.4-3-1.2s-1.1-1.8-1.1-3.2c0-1.4,0.3-2.5,1-3.3s1.6-1.2,2.7-1.2
			c1.1,0,1.9,0.4,2.5,1.1s0.9,1.6,0.9,2.8v0.8h-5.9c0,1,0.3,1.8,0.8,2.3s1.2,0.8,2,0.8c0.9,0,1.8-0.2,2.7-0.6v1.2
			c-0.5,0.2-0.9,0.3-1.3,0.4S917.2,2117.2,916.6,2117.2z M916.2,2109.4c-0.7,0-1.2,0.2-1.6,0.7s-0.6,1.1-0.7,1.9h4.5
			c0-0.8-0.2-1.4-0.5-1.9S916.9,2109.4,916.2,2109.4z"/>
		<path class="st1" d="M927.8,2117v-5.5c0-0.7-0.2-1.2-0.5-1.6s-0.8-0.5-1.5-0.5c-0.9,0-1.6,0.2-2,0.7s-0.6,1.3-0.6,2.4v4.5h-1.3
			v-8.6h1.1l0.2,1.2h0.1c0.3-0.4,0.6-0.7,1.1-1s1-0.3,1.6-0.3c1,0,1.8,0.2,2.3,0.7s0.8,1.3,0.8,2.4v5.6H927.8z"/>
		<path class="st1" d="M934.5,2116.1c0.2,0,0.5,0,0.7-0.1s0.4-0.1,0.5-0.1v1c-0.1,0.1-0.3,0.1-0.6,0.2s-0.5,0.1-0.7,0.1
			c-1.7,0-2.5-0.9-2.5-2.6v-5.1h-1.2v-0.6l1.2-0.5l0.5-1.8h0.8v2h2.5v1h-2.5v5c0,0.5,0.1,0.9,0.4,1.2S934.1,2116.1,934.5,2116.1z"/>
		<path class="st1" d="M941.3,2108.3c0.4,0,0.7,0,1,0.1l-0.2,1.2c-0.4-0.1-0.7-0.1-0.9-0.1c-0.7,0-1.3,0.3-1.8,0.8s-0.7,1.3-0.7,2.1
			v4.6h-1.3v-8.6h1.1l0.1,1.6h0.1c0.3-0.6,0.7-1,1.1-1.3S940.8,2108.3,941.3,2108.3z"/>
		<path class="st1" d="M949.2,2117l-0.3-1.2h-0.1c-0.4,0.5-0.9,0.9-1.3,1.1s-1,0.3-1.6,0.3c-0.8,0-1.5-0.2-2-0.7s-0.7-1.1-0.7-1.9
			c0-1.7,1.4-2.6,4.1-2.7l1.5,0v-0.5c0-0.7-0.1-1.2-0.4-1.5s-0.8-0.5-1.4-0.5c-0.7,0-1.5,0.2-2.4,0.7l-0.4-1
			c0.4-0.2,0.9-0.4,1.4-0.5s1-0.2,1.5-0.2c1,0,1.8,0.2,2.3,0.7s0.7,1.2,0.7,2.2v5.8H949.2z M946.3,2116.1c0.8,0,1.4-0.2,1.9-0.7
			s0.7-1.1,0.7-1.9v-0.8l-1.3,0.1c-1,0-1.8,0.2-2.2,0.5s-0.7,0.7-0.7,1.3c0,0.5,0.1,0.8,0.4,1.1S945.8,2116.1,946.3,2116.1z"/>
		<path class="st1" d="M956.3,2117.2c-1.2,0-2.2-0.4-2.9-1.1s-1-1.8-1-3.2c0-1.4,0.3-2.5,1-3.3s1.7-1.2,2.9-1.2c0.4,0,0.8,0,1.2,0.1
			s0.7,0.2,1,0.3l-0.4,1.1c-0.3-0.1-0.6-0.2-0.9-0.3s-0.6-0.1-0.9-0.1c-1.7,0-2.6,1.1-2.6,3.3c0,1.1,0.2,1.9,0.6,2.4
			s1.1,0.8,1.9,0.8c0.7,0,1.4-0.2,2.2-0.5v1.1C957.8,2117,957.1,2117.2,956.3,2117.2z"/>
		<path class="st1" d="M960.3,2106.1c0-0.3,0.1-0.5,0.2-0.7s0.3-0.2,0.5-0.2c0.2,0,0.4,0.1,0.5,0.2s0.2,0.4,0.2,0.6
			s-0.1,0.5-0.2,0.7s-0.3,0.2-0.5,0.2c-0.2,0-0.4-0.1-0.5-0.2S960.3,2106.4,960.3,2106.1z M961.8,2117h-1.3v-8.6h1.3V2117z"/>
		<path class="st1" d="M971.9,2112.7c0,1.4-0.4,2.5-1.1,3.3s-1.7,1.2-2.9,1.2c-0.8,0-1.4-0.2-2-0.5s-1.1-0.9-1.4-1.5
			s-0.5-1.5-0.5-2.4c0-1.4,0.3-2.5,1-3.3s1.7-1.2,2.9-1.2c1.2,0,2.1,0.4,2.9,1.2S971.9,2111.4,971.9,2112.7z M965.4,2112.7
			c0,1.1,0.2,1.9,0.7,2.5s1.1,0.9,1.9,0.9s1.5-0.3,1.9-0.9s0.7-1.4,0.7-2.5c0-1.1-0.2-1.9-0.7-2.5s-1.1-0.8-1.9-0.8
			c-0.8,0-1.5,0.3-1.9,0.8S965.4,2111.6,965.4,2112.7z M966.9,2107.1c0.3-0.3,0.5-0.7,0.8-1.2s0.5-0.9,0.7-1.2h1.6v0.2
			c-0.2,0.3-0.6,0.8-1,1.3s-0.8,0.9-1.2,1.1h-0.9V2107.1z"/>
		<path class="st1" d="M980,2117v-5.5c0-0.7-0.2-1.2-0.5-1.6s-0.8-0.5-1.5-0.5c-0.9,0-1.6,0.2-2,0.7s-0.6,1.3-0.6,2.4v4.5h-1.3v-8.6
			h1.1l0.2,1.2h0.1c0.3-0.4,0.6-0.7,1.1-1s1-0.3,1.6-0.3c1,0,1.8,0.2,2.3,0.7s0.8,1.3,0.8,2.4v5.6H980z"/>
	</g>
	<g id="Grupo_4338" transform="translate(167.5 2012)">
		<circle id="Elipse_497" class="st2" cx="37.5" cy="37.5" r="37.5"/>
		<path id="Trazado_1178" class="st2" d="M37.4,4.6c18.3,0,33.1,14.8,33.1,33.1S55.7,70.9,37.4,70.9S4.3,56.1,4.3,37.8
			S19.1,4.6,37.4,4.6C37.4,4.6,37.4,4.6,37.4,4.6z"/>
	</g>
	<g id="Grupo_4339" transform="translate(308.084 2012)">
		<ellipse id="Elipse_497-2" class="st3" cx="37.4" cy="37.5" rx="37" ry="37.5"/>
		<path id="Trazado_1178-2" class="st3" d="M37.8,4.6c18.3,0,33.1,14.8,33.1,33.1S56.1,70.9,37.8,70.9S4.6,56.1,4.6,37.8
			S19.5,4.6,37.8,4.6C37.8,4.6,37.8,4.6,37.8,4.6z"/>
	</g>
	<g id="Grupo_4340" transform="translate(448.342 2012)">
		<ellipse id="Elipse_497-3" class="st4" cx="37.2" cy="37.5" rx="37" ry="37.5"/>
		<path id="Trazado_1178-3" class="st4" d="M37.3,4.6c18.3,0,33.1,14.8,33.1,33.1S55.6,70.9,37.3,70.9S4.2,56.1,4.2,37.8
			S19,4.6,37.3,4.6C37.3,4.6,37.3,4.6,37.3,4.6z"/>
	</g>
	<g id="Grupo_4341" transform="translate(588.701 2012)">
		<circle id="Elipse_497-4" class="st5" cx="37.3" cy="37.5" r="37.5"/>
		<path id="Trazado_1178-4" class="st5" d="M37.8,4.6c18.3,0,33.1,14.8,33.1,33.1S56.1,70.9,37.8,70.9S4.6,56.1,4.6,37.8
			S19.5,4.6,37.8,4.6C37.8,4.6,37.8,4.6,37.8,4.6z"/>
	</g>
	<g id="Grupo_4342" transform="translate(736.701 2012)">
		<circle id="Elipse_497-5" class="st6" cx="37.3" cy="37.5" r="37.5"/>
		<path id="Trazado_1178-5" class="st6" d="M37.8,4.6c18.3,0,33.1,14.8,33.1,33.1S56.1,70.9,37.8,70.9S4.6,56.1,4.6,37.8
			S19.5,4.6,37.8,4.6C37.8,4.6,37.8,4.6,37.8,4.6z"/>
	</g>
	<g id="Grupo_4343" transform="translate(890.701 2012)">
		<circle id="Elipse_497-6" class="st7" cx="37.3" cy="37.5" r="37.5"/>
		<path id="Trazado_1178-6" class="st7" d="M37.8,4.6c18.3,0,33.1,14.8,33.1,33.1S56.1,70.9,37.8,70.9S4.6,56.1,4.6,37.8
			S19.5,4.6,37.8,4.6C37.8,4.6,37.8,4.6,37.8,4.6z"/>
	</g>
	<g class="st0">
		<path class="st8" d="M207.9,2036v28h-6.5v-22.8h-5.6v-5.2H207.9z"/>
	</g>
	<g class="st0">
		<path class="st8" d="M356,2058.7v5.3h-21.2v-4.2l10.8-10.2c1.1-1.1,1.9-2,2.3-2.8s0.6-1.6,0.6-2.3c0-1.1-0.4-2-1.1-2.6
			c-0.8-0.6-1.9-0.9-3.3-0.9c-1.2,0-2.3,0.2-3.3,0.7c-1,0.5-1.8,1.2-2.5,2.1l-4.7-3c1.1-1.6,2.6-2.9,4.5-3.8s4.1-1.4,6.6-1.4
			c2.1,0,3.9,0.3,5.5,1s2.8,1.6,3.6,2.9s1.3,2.7,1.3,4.4c0,1.5-0.3,2.9-1,4.3c-0.6,1.3-1.9,2.9-3.7,4.6l-6.4,6.1H356z"/>
	</g>
	<g class="st0">
		<path class="st8" d="M494.8,2050.1c1.3,1.4,2,3.2,2,5.3c0,1.6-0.4,3.1-1.3,4.5c-0.9,1.4-2.2,2.5-3.9,3.3c-1.7,0.8-3.9,1.2-6.4,1.2
			c-2,0-3.9-0.3-5.8-0.8c-1.9-0.5-3.5-1.3-4.9-2.2l2.5-5c1.1,0.8,2.3,1.4,3.7,1.9c1.4,0.4,2.8,0.7,4.3,0.7c1.6,0,2.9-0.3,3.8-0.9
			c0.9-0.6,1.4-1.5,1.4-2.7c0-2.3-1.7-3.4-5.2-3.4h-3v-4.3l5.8-6.5h-11.9v-5.2h19.6v4.2l-6.3,7.2
			C491.6,2047.8,493.5,2048.7,494.8,2050.1z"/>
	</g>
	<g class="st0">
		<path class="st8" d="M639.7,2058.1h-4.6v5.9h-6.3v-5.9h-15.1v-4.4l13.2-17.8h6.8l-12.2,16.8h7.5v-5.2h6.1v5.2h4.6V2058.1z"/>
	</g>
	<g class="st0">
		<path class="st8" d="M780.4,2048.9c1.9,1.6,2.8,3.7,2.8,6.3c0,1.7-0.4,3.3-1.3,4.7c-0.9,1.4-2.2,2.5-3.9,3.4
			c-1.7,0.8-3.9,1.3-6.5,1.3c-2,0-3.9-0.3-5.8-0.8c-1.9-0.5-3.5-1.3-4.9-2.2l2.6-5c1.1,0.8,2.3,1.4,3.7,1.9c1.4,0.4,2.8,0.7,4.3,0.7
			c1.6,0,2.9-0.3,3.8-1s1.4-1.5,1.4-2.7c0-1.2-0.5-2.1-1.5-2.7c-1-0.6-2.7-0.9-5.1-0.9H763l1.4-15.8h17.1v5.2h-11.7l-0.4,5.3h2.3
			C775.6,2046.5,778.5,2047.3,780.4,2048.9z"/>
	</g>
	<g class="st0">
		<path class="st8" d="M934.4,2047.5c1.5,0.7,2.6,1.7,3.5,3.1c0.9,1.3,1.3,2.8,1.3,4.6c0,1.9-0.5,3.5-1.4,4.9
			c-0.9,1.4-2.2,2.5-3.8,3.3c-1.6,0.8-3.4,1.1-5.4,1.1c-3.9,0-7-1.2-9.2-3.6c-2.2-2.4-3.3-5.8-3.3-10.3c0-3.2,0.6-5.9,1.8-8.2
			c1.2-2.3,2.9-4,5-5.2c2.1-1.2,4.6-1.8,7.5-1.8c1.5,0,2.9,0.2,4.3,0.5c1.4,0.3,2.5,0.8,3.5,1.4l-2.4,4.8c-1.4-0.9-3.1-1.4-5.2-1.4
			c-2.4,0-4.3,0.7-5.6,2.1c-1.4,1.4-2.1,3.4-2.2,6c1.7-1.7,4-2.5,6.9-2.5C931.3,2046.4,933,2046.8,934.4,2047.5z M931.6,2058.5
			c0.9-0.7,1.3-1.8,1.3-3c0-1.3-0.4-2.3-1.3-3.1s-2-1.1-3.5-1.1c-1.4,0-2.6,0.4-3.5,1.2c-0.9,0.8-1.4,1.8-1.4,3s0.4,2.2,1.3,3
			s2.1,1.2,3.6,1.2C929.6,2059.6,930.7,2059.3,931.6,2058.5z"/>
	</g>
	<g id="Grupo_4344" transform="translate(249.5 2018)">
		<rect id="rectangle" class="st9" width="59" height="59"/>
		<path id="path" class="st10" d="M29.4,9.8L26,13.2l13.7,13.7H9.8v4.9h29.9L26,45.6l3.4,3.4L49,29.4L29.4,9.8z"/>
	</g>
	<g id="Grupo_4345" transform="translate(383.206 2018)">
		<rect id="rectangle-2" x="0.3" class="st9" width="59" height="59"/>
		<path id="path-2" class="st11" d="M29.4,9.8L26,13.2l13.7,13.7H9.8v4.9h29.9L26,45.6l3.4,3.4L49,29.4L29.4,9.8z"/>
	</g>
	<g id="Grupo_4346" transform="translate(524.49 2018)">
		<rect id="rectangle-3" x="0" class="st9" width="59" height="59"/>
		<path id="path-3" class="st12" d="M29.4,9.8L26,13.2l13.7,13.7H9.8v4.9h29.9L26,45.6l3.4,3.4L49,29.4L29.4,9.8z"/>
	</g>
	<g id="Grupo_4347" transform="translate(666.49 2020)">
		<rect id="rectangle-4" x="0" class="st9" width="59" height="59"/>
		<path id="path-4" class="st13" d="M29.4,9.8L26,13.2l13.7,13.7H9.8v4.9h29.9L26,45.6l3.4,3.4L49,29.4L29.4,9.8z"/>
	</g>
	<g id="Grupo_4348" transform="translate(819.49 2020)">
		<rect id="rectangle-5" x="0" class="st9" width="59" height="59"/>
		<path id="path-5" class="st14" d="M29.4,9.8L26,13.2l13.7,13.7H9.8v4.9h29.9L26,45.6l3.4,3.4L49,29.4L29.4,9.8z"/>
	</g>
	<g class="st0">
		<path class="st1" d="M291.6,2289l-1.4-3.6h-4.6l-1.4,3.6h-1.3l4.5-11.5h1.1l4.5,11.5H291.6z M289.8,2284.2l-1.3-3.5
			c-0.2-0.4-0.3-1-0.5-1.6c-0.1,0.5-0.3,1-0.5,1.6l-1.3,3.5H289.8z"/>
		<path class="st1" d="M295.6,2289h-1.3v-12.2h1.3V2289z"/>
		<path class="st1" d="M309.3,2289v-5.6c0-0.7-0.1-1.2-0.4-1.5c-0.3-0.3-0.7-0.5-1.4-0.5c-0.8,0-1.4,0.2-1.8,0.7
			c-0.4,0.5-0.6,1.2-0.6,2.1v4.8h-1.3v-5.6c0-0.7-0.1-1.2-0.4-1.5c-0.3-0.3-0.7-0.5-1.4-0.5c-0.8,0-1.4,0.2-1.8,0.7
			c-0.4,0.5-0.6,1.3-0.6,2.4v4.5h-1.3v-8.6h1.1l0.2,1.2h0.1c0.2-0.4,0.6-0.7,1-1s0.9-0.4,1.5-0.4c1.3,0,2.2,0.5,2.6,1.5h0.1
			c0.3-0.4,0.6-0.8,1.1-1.1s1-0.4,1.7-0.4c1,0,1.7,0.2,2.2,0.7c0.5,0.5,0.7,1.3,0.7,2.4v5.6H309.3z"/>
		<path class="st1" d="M318.5,2289l-0.3-1.2h-0.1c-0.4,0.5-0.9,0.9-1.3,1.1c-0.4,0.2-1,0.3-1.6,0.3c-0.8,0-1.5-0.2-2-0.7
			c-0.5-0.4-0.7-1.1-0.7-1.9c0-1.7,1.4-2.6,4.1-2.7l1.5,0v-0.5c0-0.7-0.1-1.2-0.4-1.5s-0.8-0.5-1.4-0.5c-0.7,0-1.5,0.2-2.4,0.7
			l-0.4-1c0.4-0.2,0.9-0.4,1.4-0.5c0.5-0.1,1-0.2,1.5-0.2c1,0,1.8,0.2,2.3,0.7s0.7,1.2,0.7,2.2v5.8H318.5z M315.6,2288.1
			c0.8,0,1.4-0.2,1.9-0.7s0.7-1.1,0.7-1.9v-0.8l-1.3,0.1c-1,0-1.8,0.2-2.2,0.5c-0.5,0.3-0.7,0.7-0.7,1.3c0,0.5,0.1,0.8,0.4,1.1
			C314.7,2288,315.1,2288.1,315.6,2288.1z"/>
		<path class="st1" d="M325.6,2289.2c-1.2,0-2.2-0.4-2.9-1.1s-1-1.8-1-3.2c0-1.4,0.3-2.5,1-3.3c0.7-0.8,1.7-1.2,2.9-1.2
			c0.4,0,0.8,0,1.2,0.1c0.4,0.1,0.7,0.2,1,0.3l-0.4,1.1c-0.3-0.1-0.6-0.2-0.9-0.3c-0.3-0.1-0.6-0.1-0.9-0.1c-1.7,0-2.6,1.1-2.6,3.3
			c0,1.1,0.2,1.9,0.6,2.4c0.4,0.6,1.1,0.8,1.9,0.8c0.7,0,1.4-0.2,2.2-0.5v1.1C327.2,2289,326.5,2289.2,325.6,2289.2z"/>
		<path class="st1" d="M333.4,2289.2c-1.3,0-2.3-0.4-3-1.2c-0.7-0.8-1.1-1.8-1.1-3.2c0-1.4,0.3-2.5,1-3.3s1.6-1.2,2.7-1.2
			c1.1,0,1.9,0.4,2.5,1.1s0.9,1.6,0.9,2.8v0.8h-5.9c0,1,0.3,1.8,0.8,2.3c0.5,0.5,1.2,0.8,2,0.8c0.9,0,1.8-0.2,2.7-0.6v1.2
			c-0.5,0.2-0.9,0.3-1.3,0.4C334.5,2289.1,334,2289.2,333.4,2289.2z M333.1,2281.4c-0.7,0-1.2,0.2-1.6,0.7c-0.4,0.4-0.6,1.1-0.7,1.9
			h4.5c0-0.8-0.2-1.4-0.5-1.9C334.3,2281.6,333.7,2281.4,333.1,2281.4z"/>
		<path class="st1" d="M344.6,2289v-5.5c0-0.7-0.2-1.2-0.5-1.6c-0.3-0.3-0.8-0.5-1.5-0.5c-0.9,0-1.6,0.2-2,0.7
			c-0.4,0.5-0.6,1.3-0.6,2.4v4.5h-1.3v-8.6h1.1l0.2,1.2h0.1c0.3-0.4,0.6-0.7,1.1-1c0.5-0.2,1-0.3,1.6-0.3c1,0,1.8,0.2,2.3,0.7
			c0.5,0.5,0.8,1.3,0.8,2.4v5.6H344.6z"/>
		<path class="st1" d="M353.9,2289l-0.3-1.2h-0.1c-0.4,0.5-0.9,0.9-1.3,1.1c-0.4,0.2-1,0.3-1.6,0.3c-0.8,0-1.5-0.2-2-0.7
			c-0.5-0.4-0.7-1.1-0.7-1.9c0-1.7,1.4-2.6,4.1-2.7l1.5,0v-0.5c0-0.7-0.1-1.2-0.4-1.5s-0.8-0.5-1.4-0.5c-0.7,0-1.5,0.2-2.4,0.7
			l-0.4-1c0.4-0.2,0.9-0.4,1.4-0.5c0.5-0.1,1-0.2,1.5-0.2c1,0,1.8,0.2,2.3,0.7s0.7,1.2,0.7,2.2v5.8H353.9z M350.9,2288.1
			c0.8,0,1.4-0.2,1.9-0.7s0.7-1.1,0.7-1.9v-0.8l-1.3,0.1c-1,0-1.8,0.2-2.2,0.5c-0.5,0.3-0.7,0.7-0.7,1.3c0,0.5,0.1,0.8,0.4,1.1
			C350,2288,350.4,2288.1,350.9,2288.1z"/>
		<path class="st1" d="M368.4,2289v-5.6c0-0.7-0.1-1.2-0.4-1.5c-0.3-0.3-0.7-0.5-1.4-0.5c-0.8,0-1.4,0.2-1.8,0.7
			c-0.4,0.5-0.6,1.2-0.6,2.1v4.8h-1.3v-5.6c0-0.7-0.1-1.2-0.4-1.5c-0.3-0.3-0.7-0.5-1.4-0.5c-0.8,0-1.4,0.2-1.8,0.7
			c-0.4,0.5-0.6,1.3-0.6,2.4v4.5h-1.3v-8.6h1.1l0.2,1.2h0.1c0.2-0.4,0.6-0.7,1-1s0.9-0.4,1.5-0.4c1.3,0,2.2,0.5,2.6,1.5h0.1
			c0.3-0.4,0.6-0.8,1.1-1.1s1-0.4,1.7-0.4c1,0,1.7,0.2,2.2,0.7c0.5,0.5,0.7,1.3,0.7,2.4v5.6H368.4z"/>
		<path class="st1" d="M372.3,2278.1c0-0.3,0.1-0.5,0.2-0.7c0.1-0.1,0.3-0.2,0.5-0.2c0.2,0,0.4,0.1,0.5,0.2c0.2,0.1,0.2,0.4,0.2,0.6
			s-0.1,0.5-0.2,0.7c-0.2,0.1-0.3,0.2-0.5,0.2c-0.2,0-0.4-0.1-0.5-0.2C372.3,2278.6,372.3,2278.4,372.3,2278.1z M373.7,2289h-1.3
			v-8.6h1.3V2289z"/>
		<path class="st1" d="M380,2289.2c-1.3,0-2.3-0.4-3-1.2c-0.7-0.8-1.1-1.8-1.1-3.2c0-1.4,0.3-2.5,1-3.3s1.6-1.2,2.7-1.2
			c1.1,0,1.9,0.4,2.5,1.1s0.9,1.6,0.9,2.8v0.8h-5.9c0,1,0.3,1.8,0.8,2.3c0.5,0.5,1.2,0.8,2,0.8c0.9,0,1.8-0.2,2.7-0.6v1.2
			c-0.5,0.2-0.9,0.3-1.3,0.4C381.1,2289.1,380.6,2289.2,380,2289.2z M379.7,2281.4c-0.7,0-1.2,0.2-1.6,0.7c-0.4,0.4-0.6,1.1-0.7,1.9
			h4.5c0-0.8-0.2-1.4-0.5-1.9C380.9,2281.6,380.4,2281.4,379.7,2281.4z"/>
		<path class="st1" d="M391.3,2289v-5.5c0-0.7-0.2-1.2-0.5-1.6c-0.3-0.3-0.8-0.5-1.5-0.5c-0.9,0-1.6,0.2-2,0.7
			c-0.4,0.5-0.6,1.3-0.6,2.4v4.5h-1.3v-8.6h1.1l0.2,1.2h0.1c0.3-0.4,0.6-0.7,1.1-1c0.5-0.2,1-0.3,1.6-0.3c1,0,1.8,0.2,2.3,0.7
			c0.5,0.5,0.8,1.3,0.8,2.4v5.6H391.3z"/>
		<path class="st1" d="M398,2288.1c0.2,0,0.5,0,0.7-0.1c0.2,0,0.4-0.1,0.5-0.1v1c-0.1,0.1-0.3,0.1-0.6,0.2s-0.5,0.1-0.7,0.1
			c-1.7,0-2.5-0.9-2.5-2.6v-5.1h-1.2v-0.6l1.2-0.5l0.5-1.8h0.8v2h2.5v1h-2.5v5c0,0.5,0.1,0.9,0.4,1.2
			C397.2,2287.9,397.6,2288.1,398,2288.1z"/>
		<path class="st1" d="M408.3,2284.7c0,1.4-0.4,2.5-1.1,3.3s-1.7,1.2-2.9,1.2c-0.8,0-1.4-0.2-2-0.5s-1.1-0.9-1.4-1.5
			c-0.3-0.7-0.5-1.5-0.5-2.4c0-1.4,0.3-2.5,1-3.3c0.7-0.8,1.7-1.2,2.9-1.2c1.2,0,2.1,0.4,2.9,1.2
			C407.9,2282.3,408.3,2283.4,408.3,2284.7z M401.7,2284.7c0,1.1,0.2,1.9,0.7,2.5s1.1,0.9,1.9,0.9c0.8,0,1.5-0.3,1.9-0.9
			c0.4-0.6,0.7-1.4,0.7-2.5c0-1.1-0.2-1.9-0.7-2.5c-0.4-0.6-1.1-0.8-1.9-0.8c-0.8,0-1.5,0.3-1.9,0.8
			C401.9,2282.8,401.7,2283.6,401.7,2284.7z"/>
	</g>
	<g class="st0">
		<path class="st1" d="M454.4,2289h-6.4v-11.4h6.4v1.2h-5v3.7h4.7v1.2h-4.7v4.2h5V2289z"/>
		<path class="st1" d="M459.5,2288.1c0.2,0,0.5,0,0.7-0.1c0.2,0,0.4-0.1,0.5-0.1v1c-0.1,0.1-0.3,0.1-0.6,0.2s-0.5,0.1-0.7,0.1
			c-1.7,0-2.5-0.9-2.5-2.6v-5.1h-1.2v-0.6l1.2-0.5l0.5-1.8h0.8v2h2.5v1h-2.5v5c0,0.5,0.1,0.9,0.4,1.2
			C458.8,2287.9,459.1,2288.1,459.5,2288.1z"/>
		<path class="st1" d="M462.3,2278.1c0-0.3,0.1-0.5,0.2-0.7c0.1-0.1,0.3-0.2,0.5-0.2c0.2,0,0.4,0.1,0.5,0.2c0.2,0.1,0.2,0.4,0.2,0.6
			s-0.1,0.5-0.2,0.7c-0.2,0.1-0.3,0.2-0.5,0.2c-0.2,0-0.4-0.1-0.5-0.2C462.4,2278.6,462.3,2278.4,462.3,2278.1z M463.7,2289h-1.3
			v-8.6h1.3V2289z"/>
		<path class="st1" d="M469.5,2289.2c-1.1,0-2-0.4-2.6-1.2c-0.6-0.8-0.9-1.9-0.9-3.3c0-1.4,0.3-2.5,0.9-3.3s1.5-1.2,2.6-1.2
			c1.2,0,2.1,0.4,2.7,1.3h0.1l0.2-1.2h1v12.4h-1.3v-3.7c0-0.5,0-1,0.1-1.3h-0.1C471.6,2288.7,470.7,2289.2,469.5,2289.2z
			 M469.7,2288.1c0.9,0,1.5-0.2,1.9-0.7c0.4-0.5,0.6-1.2,0.6-2.3v-0.3c0-1.2-0.2-2.1-0.6-2.6s-1-0.8-1.9-0.8c-0.8,0-1.3,0.3-1.7,0.9
			c-0.4,0.6-0.6,1.4-0.6,2.5s0.2,1.9,0.6,2.5S468.9,2288.1,469.7,2288.1z"/>
		<path class="st1" d="M477.5,2280.4v5.6c0,0.7,0.2,1.2,0.5,1.6c0.3,0.3,0.8,0.5,1.5,0.5c0.9,0,1.6-0.2,2-0.7s0.6-1.3,0.6-2.4v-4.5
			h1.3v8.6h-1.1l-0.2-1.1H482c-0.3,0.4-0.6,0.7-1.1,1c-0.5,0.2-1,0.3-1.6,0.3c-1,0-1.8-0.2-2.3-0.7c-0.5-0.5-0.8-1.3-0.8-2.4v-5.6
			H477.5z"/>
		<path class="st1" d="M489.7,2289.2c-1.3,0-2.3-0.4-3-1.2c-0.7-0.8-1.1-1.8-1.1-3.2c0-1.4,0.3-2.5,1-3.3s1.6-1.2,2.7-1.2
			c1.1,0,1.9,0.4,2.5,1.1s0.9,1.6,0.9,2.8v0.8H487c0,1,0.3,1.8,0.8,2.3c0.5,0.5,1.2,0.8,2,0.8c0.9,0,1.8-0.2,2.7-0.6v1.2
			c-0.5,0.2-0.9,0.3-1.3,0.4C490.8,2289.1,490.3,2289.2,489.7,2289.2z M489.4,2281.4c-0.7,0-1.2,0.2-1.6,0.7
			c-0.4,0.4-0.6,1.1-0.7,1.9h4.5c0-0.8-0.2-1.4-0.5-1.9C490.6,2281.6,490,2281.4,489.4,2281.4z"/>
		<path class="st1" d="M497.8,2288.1c0.2,0,0.5,0,0.7-0.1c0.2,0,0.4-0.1,0.5-0.1v1c-0.1,0.1-0.3,0.1-0.6,0.2s-0.5,0.1-0.7,0.1
			c-1.7,0-2.5-0.9-2.5-2.6v-5.1h-1.2v-0.6l1.2-0.5l0.5-1.8h0.8v2h2.5v1h-2.5v5c0,0.5,0.1,0.9,0.4,1.2
			C497.1,2287.9,497.4,2288.1,497.8,2288.1z"/>
		<path class="st1" d="M506,2289l-0.3-1.2h-0.1c-0.4,0.5-0.9,0.9-1.3,1.1c-0.4,0.2-1,0.3-1.6,0.3c-0.8,0-1.5-0.2-2-0.7
			c-0.5-0.4-0.7-1.1-0.7-1.9c0-1.7,1.4-2.6,4.1-2.7l1.5,0v-0.5c0-0.7-0.1-1.2-0.4-1.5s-0.8-0.5-1.4-0.5c-0.7,0-1.5,0.2-2.4,0.7
			l-0.4-1c0.4-0.2,0.9-0.4,1.4-0.5c0.5-0.1,1-0.2,1.5-0.2c1,0,1.8,0.2,2.3,0.7s0.7,1.2,0.7,2.2v5.8H506z M503.1,2288.1
			c0.8,0,1.4-0.2,1.9-0.7s0.7-1.1,0.7-1.9v-0.8l-1.3,0.1c-1,0-1.8,0.2-2.2,0.5c-0.5,0.3-0.7,0.7-0.7,1.3c0,0.5,0.1,0.8,0.4,1.1
			C502.1,2288,502.5,2288.1,503.1,2288.1z"/>
		<path class="st1" d="M515.4,2287.9L515.4,2287.9c-0.7,0.9-1.6,1.3-2.8,1.3c-1.1,0-2-0.4-2.6-1.1c-0.6-0.8-0.9-1.9-0.9-3.3
			s0.3-2.5,0.9-3.3s1.5-1.2,2.6-1.2c1.2,0,2.1,0.4,2.7,1.3h0.1l-0.1-0.6l0-0.6v-3.5h1.3v12.2h-1.1L515.4,2287.9z M512.9,2288.1
			c0.9,0,1.5-0.2,1.9-0.7s0.6-1.3,0.6-2.3v-0.3c0-1.2-0.2-2.1-0.6-2.6c-0.4-0.5-1-0.8-1.9-0.8c-0.8,0-1.3,0.3-1.7,0.9
			c-0.4,0.6-0.6,1.4-0.6,2.5c0,1.1,0.2,1.9,0.6,2.5C511.5,2287.8,512.1,2288.1,512.9,2288.1z"/>
		<path class="st1" d="M526.8,2284.7c0,1.4-0.4,2.5-1.1,3.3s-1.7,1.2-2.9,1.2c-0.8,0-1.4-0.2-2-0.5s-1.1-0.9-1.4-1.5
			c-0.3-0.7-0.5-1.5-0.5-2.4c0-1.4,0.3-2.5,1-3.3c0.7-0.8,1.7-1.2,2.9-1.2c1.2,0,2.1,0.4,2.9,1.2
			C526.5,2282.3,526.8,2283.4,526.8,2284.7z M520.3,2284.7c0,1.1,0.2,1.9,0.7,2.5s1.1,0.9,1.9,0.9c0.8,0,1.5-0.3,1.9-0.9
			c0.4-0.6,0.7-1.4,0.7-2.5c0-1.1-0.2-1.9-0.7-2.5c-0.4-0.6-1.1-0.8-1.9-0.8c-0.8,0-1.5,0.3-1.9,0.8
			C520.5,2282.8,520.3,2283.6,520.3,2284.7z"/>
	</g>
	<g class="st0">
		<path class="st1" d="M591.1,2289h-6.4v-11.4h6.4v1.2h-5v3.7h4.7v1.2h-4.7v4.2h5V2289z"/>
		<path class="st1" d="M599.3,2289v-5.5c0-0.7-0.2-1.2-0.5-1.6s-0.8-0.5-1.5-0.5c-0.9,0-1.6,0.2-2,0.7s-0.6,1.3-0.6,2.4v4.5h-1.3
			v-8.6h1.1l0.2,1.2h0.1c0.3-0.4,0.6-0.7,1.1-1s1-0.3,1.6-0.3c1,0,1.8,0.2,2.3,0.7s0.8,1.3,0.8,2.4v5.6H599.3z"/>
		<path class="st1" d="M607.1,2281.4h-2.2v7.6h-1.3v-7.6h-1.5v-0.6l1.5-0.5v-0.5c0-2.1,0.9-3.2,2.8-3.2c0.5,0,1,0.1,1.6,0.3l-0.3,1
			c-0.5-0.2-0.9-0.2-1.3-0.2c-0.5,0-0.9,0.2-1.1,0.5s-0.4,0.8-0.4,1.6v0.6h2.2V2281.4z"/>
		<path class="st1" d="M612.6,2280.3c0.4,0,0.7,0,1,0.1l-0.2,1.2c-0.4-0.1-0.7-0.1-0.9-0.1c-0.7,0-1.3,0.3-1.8,0.8s-0.7,1.3-0.7,2.1
			v4.6h-1.3v-8.6h1.1l0.1,1.6h0.1c0.3-0.6,0.7-1,1.1-1.3S612.1,2280.3,612.6,2280.3z"/>
		<path class="st1" d="M615.1,2278.1c0-0.3,0.1-0.5,0.2-0.7s0.3-0.2,0.5-0.2c0.2,0,0.4,0.1,0.5,0.2s0.2,0.4,0.2,0.6
			s-0.1,0.5-0.2,0.7s-0.3,0.2-0.5,0.2c-0.2,0-0.4-0.1-0.5-0.2S615.1,2278.4,615.1,2278.1z M616.5,2289h-1.3v-8.6h1.3V2289z"/>
		<path class="st1" d="M624.5,2289l-0.3-1.2h-0.1c-0.4,0.5-0.9,0.9-1.3,1.1s-1,0.3-1.6,0.3c-0.8,0-1.5-0.2-2-0.7s-0.7-1.1-0.7-1.9
			c0-1.7,1.4-2.6,4.1-2.7l1.5,0v-0.5c0-0.7-0.1-1.2-0.4-1.5s-0.8-0.5-1.4-0.5c-0.7,0-1.5,0.2-2.4,0.7l-0.4-1
			c0.4-0.2,0.9-0.4,1.4-0.5s1-0.2,1.5-0.2c1,0,1.8,0.2,2.3,0.7s0.7,1.2,0.7,2.2v5.8H624.5z M621.6,2288.1c0.8,0,1.4-0.2,1.9-0.7
			s0.7-1.1,0.7-1.9v-0.8l-1.3,0.1c-1,0-1.8,0.2-2.2,0.5s-0.7,0.7-0.7,1.3c0,0.5,0.1,0.8,0.4,1.1S621.1,2288.1,621.6,2288.1z"/>
		<path class="st1" d="M639.1,2289v-5.6c0-0.7-0.1-1.2-0.4-1.5s-0.7-0.5-1.4-0.5c-0.8,0-1.4,0.2-1.8,0.7s-0.6,1.2-0.6,2.1v4.8h-1.3
			v-5.6c0-0.7-0.1-1.2-0.4-1.5s-0.7-0.5-1.4-0.5c-0.8,0-1.4,0.2-1.8,0.7s-0.6,1.3-0.6,2.4v4.5h-1.3v-8.6h1.1l0.2,1.2h0.1
			c0.2-0.4,0.6-0.7,1-1s0.9-0.4,1.5-0.4c1.3,0,2.2,0.5,2.6,1.5h0.1c0.3-0.4,0.6-0.8,1.1-1.1s1-0.4,1.7-0.4c1,0,1.7,0.2,2.2,0.7
			s0.7,1.3,0.7,2.4v5.6H639.1z"/>
		<path class="st1" d="M642.9,2278.1c0-0.3,0.1-0.5,0.2-0.7s0.3-0.2,0.5-0.2c0.2,0,0.4,0.1,0.5,0.2s0.2,0.4,0.2,0.6
			s-0.1,0.5-0.2,0.7s-0.3,0.2-0.5,0.2c-0.2,0-0.4-0.1-0.5-0.2S642.9,2278.4,642.9,2278.1z M644.3,2289H643v-8.6h1.3V2289z"/>
		<path class="st1" d="M650.7,2289.2c-1.3,0-2.3-0.4-3-1.2s-1.1-1.8-1.1-3.2c0-1.4,0.3-2.5,1-3.3s1.6-1.2,2.7-1.2
			c1.1,0,1.9,0.4,2.5,1.1s0.9,1.6,0.9,2.8v0.8H648c0,1,0.3,1.8,0.8,2.3s1.2,0.8,2,0.8c0.9,0,1.8-0.2,2.7-0.6v1.2
			c-0.5,0.2-0.9,0.3-1.3,0.4S651.3,2289.2,650.7,2289.2z M650.4,2281.4c-0.7,0-1.2,0.2-1.6,0.7s-0.6,1.1-0.7,1.9h4.5
			c0-0.8-0.2-1.4-0.5-1.9S651,2281.4,650.4,2281.4z"/>
		<path class="st1" d="M661.9,2289v-5.5c0-0.7-0.2-1.2-0.5-1.6s-0.8-0.5-1.5-0.5c-0.9,0-1.6,0.2-2,0.7s-0.6,1.3-0.6,2.4v4.5h-1.3
			v-8.6h1.1l0.2,1.2h0.1c0.3-0.4,0.6-0.7,1.1-1s1-0.3,1.6-0.3c1,0,1.8,0.2,2.3,0.7s0.8,1.3,0.8,2.4v5.6H661.9z"/>
		<path class="st1" d="M668.7,2288.1c0.2,0,0.5,0,0.7-0.1s0.4-0.1,0.5-0.1v1c-0.1,0.1-0.3,0.1-0.6,0.2s-0.5,0.1-0.7,0.1
			c-1.7,0-2.5-0.9-2.5-2.6v-5.1h-1.2v-0.6l1.2-0.5l0.5-1.8h0.8v2h2.5v1h-2.5v5c0,0.5,0.1,0.9,0.4,1.2S668.2,2288.1,668.7,2288.1z"/>
		<path class="st1" d="M678.9,2284.7c0,1.4-0.4,2.5-1.1,3.3s-1.7,1.2-2.9,1.2c-0.8,0-1.4-0.2-2-0.5s-1.1-0.9-1.4-1.5
			s-0.5-1.5-0.5-2.4c0-1.4,0.3-2.5,1-3.3s1.7-1.2,2.9-1.2c1.2,0,2.1,0.4,2.9,1.2S678.9,2283.4,678.9,2284.7z M672.4,2284.7
			c0,1.1,0.2,1.9,0.7,2.5s1.1,0.9,1.9,0.9s1.5-0.3,1.9-0.9s0.7-1.4,0.7-2.5c0-1.1-0.2-1.9-0.7-2.5s-1.1-0.8-1.9-0.8
			c-0.8,0-1.5,0.3-1.9,0.8S672.4,2283.6,672.4,2284.7z"/>
	</g>
	<g class="st0">
		<path class="st1" d="M737.8,2289h-6.4v-11.4h6.4v1.2h-5v3.7h4.7v1.2h-4.7v4.2h5V2289z"/>
		<path class="st1" d="M745.6,2286.7c0,0.8-0.3,1.4-0.9,1.8s-1.4,0.6-2.5,0.6c-1.1,0-2-0.2-2.7-0.5v-1.2c0.4,0.2,0.9,0.4,1.3,0.5
			c0.5,0.1,0.9,0.2,1.4,0.2c0.7,0,1.2-0.1,1.6-0.3c0.4-0.2,0.5-0.5,0.5-1c0-0.3-0.1-0.6-0.4-0.9s-0.9-0.5-1.7-0.8
			c-0.8-0.3-1.4-0.6-1.7-0.8s-0.6-0.5-0.8-0.8s-0.2-0.6-0.2-1c0-0.7,0.3-1.2,0.9-1.7c0.6-0.4,1.3-0.6,2.3-0.6c0.9,0,1.8,0.2,2.7,0.6
			l-0.5,1.1c-0.9-0.4-1.6-0.5-2.3-0.5c-0.6,0-1.1,0.1-1.4,0.3s-0.5,0.5-0.5,0.8c0,0.2,0.1,0.4,0.2,0.6s0.3,0.3,0.6,0.5
			c0.3,0.1,0.8,0.4,1.5,0.6c1,0.4,1.7,0.7,2.1,1.1C745.4,2285.6,745.6,2286.1,745.6,2286.7z"/>
		<path class="st1" d="M750.5,2288.1c0.2,0,0.5,0,0.7-0.1c0.2,0,0.4-0.1,0.5-0.1v1c-0.1,0.1-0.3,0.1-0.6,0.2s-0.5,0.1-0.7,0.1
			c-1.7,0-2.5-0.9-2.5-2.6v-5.1h-1.2v-0.6l1.2-0.5l0.5-1.8h0.8v2h2.5v1h-2.5v5c0,0.5,0.1,0.9,0.4,1.2
			C749.7,2287.9,750.1,2288.1,750.5,2288.1z"/>
		<path class="st1" d="M757,2289.2c-1.3,0-2.3-0.4-3-1.2c-0.7-0.8-1.1-1.8-1.1-3.2c0-1.4,0.3-2.5,1-3.3s1.6-1.2,2.7-1.2
			c1.1,0,1.9,0.4,2.5,1.1s0.9,1.6,0.9,2.8v0.8h-5.9c0,1,0.3,1.8,0.8,2.3c0.5,0.5,1.2,0.8,2,0.8c0.9,0,1.8-0.2,2.7-0.6v1.2
			c-0.5,0.2-0.9,0.3-1.3,0.4C758.1,2289.1,757.6,2289.2,757,2289.2z M756.6,2281.4c-0.7,0-1.2,0.2-1.6,0.7c-0.4,0.4-0.7,1.1-0.7,1.9
			h4.5c0-0.8-0.2-1.4-0.5-1.9C757.8,2281.6,757.3,2281.4,756.6,2281.4z"/>
		<path class="st1" d="M766.3,2280.3c0.4,0,0.7,0,1,0.1l-0.2,1.2c-0.4-0.1-0.7-0.1-0.9-0.1c-0.7,0-1.3,0.3-1.8,0.8s-0.7,1.3-0.7,2.1
			v4.6h-1.3v-8.6h1.1l0.1,1.6h0.1c0.3-0.6,0.7-1,1.1-1.3C765.2,2280.4,765.7,2280.3,766.3,2280.3z"/>
		<path class="st1" d="M768.8,2278.1c0-0.3,0.1-0.5,0.2-0.7c0.1-0.1,0.3-0.2,0.5-0.2c0.2,0,0.4,0.1,0.5,0.2c0.2,0.1,0.2,0.4,0.2,0.6
			s-0.1,0.5-0.2,0.7c-0.2,0.1-0.3,0.2-0.5,0.2c-0.2,0-0.4-0.1-0.5-0.2C768.8,2278.6,768.8,2278.4,768.8,2278.1z M770.2,2289h-1.3
			v-8.6h1.3V2289z"/>
		<path class="st1" d="M774.2,2289h-1.3v-12.2h1.3V2289z"/>
		<path class="st1" d="M776.9,2278.1c0-0.3,0.1-0.5,0.2-0.7c0.1-0.1,0.3-0.2,0.5-0.2c0.2,0,0.4,0.1,0.5,0.2c0.2,0.1,0.2,0.4,0.2,0.6
			s-0.1,0.5-0.2,0.7c-0.2,0.1-0.3,0.2-0.5,0.2c-0.2,0-0.4-0.1-0.5-0.2C776.9,2278.6,776.9,2278.4,776.9,2278.1z M778.3,2289H777
			v-8.6h1.3V2289z"/>
		<path class="st1" d="M786.5,2289h-6.2v-0.9l4.7-6.7h-4.4v-1h5.8v1l-4.6,6.5h4.7V2289z"/>
		<path class="st1" d="M793.8,2289l-0.3-1.2h-0.1c-0.4,0.5-0.9,0.9-1.3,1.1c-0.4,0.2-1,0.3-1.6,0.3c-0.8,0-1.5-0.2-2-0.7
			c-0.5-0.4-0.7-1.1-0.7-1.9c0-1.7,1.4-2.6,4.1-2.7l1.5,0v-0.5c0-0.7-0.1-1.2-0.4-1.5s-0.8-0.5-1.4-0.5c-0.7,0-1.5,0.2-2.4,0.7
			l-0.4-1c0.4-0.2,0.9-0.4,1.4-0.5c0.5-0.1,1-0.2,1.5-0.2c1,0,1.8,0.2,2.3,0.7s0.7,1.2,0.7,2.2v5.8H793.8z M790.8,2288.1
			c0.8,0,1.4-0.2,1.9-0.7s0.7-1.1,0.7-1.9v-0.8l-1.3,0.1c-1,0-1.8,0.2-2.2,0.5c-0.5,0.3-0.7,0.7-0.7,1.3c0,0.5,0.1,0.8,0.4,1.1
			C789.9,2288,790.3,2288.1,790.8,2288.1z"/>
		<path class="st1" d="M800.8,2289.2c-1.2,0-2.2-0.4-2.9-1.1s-1-1.8-1-3.2c0-1.4,0.3-2.5,1-3.3c0.7-0.8,1.7-1.2,2.9-1.2
			c0.4,0,0.8,0,1.2,0.1c0.4,0.1,0.7,0.2,1,0.3l-0.4,1.1c-0.3-0.1-0.6-0.2-0.9-0.3c-0.3-0.1-0.6-0.1-0.9-0.1c-1.7,0-2.6,1.1-2.6,3.3
			c0,1.1,0.2,1.9,0.6,2.4c0.4,0.6,1.1,0.8,1.9,0.8c0.7,0,1.4-0.2,2.2-0.5v1.1C802.4,2289,801.7,2289.2,800.8,2289.2z"/>
		<path class="st1" d="M804.9,2278.1c0-0.3,0.1-0.5,0.2-0.7c0.1-0.1,0.3-0.2,0.5-0.2c0.2,0,0.4,0.1,0.5,0.2c0.2,0.1,0.2,0.4,0.2,0.6
			s-0.1,0.5-0.2,0.7c-0.2,0.1-0.3,0.2-0.5,0.2c-0.2,0-0.4-0.1-0.5-0.2C805,2278.6,804.9,2278.4,804.9,2278.1z M806.3,2289H805v-8.6
			h1.3V2289z"/>
		<path class="st1" d="M816.5,2284.7c0,1.4-0.4,2.5-1.1,3.3s-1.7,1.2-2.9,1.2c-0.8,0-1.4-0.2-2-0.5s-1.1-0.9-1.4-1.5
			c-0.3-0.7-0.5-1.5-0.5-2.4c0-1.4,0.3-2.5,1-3.3c0.7-0.8,1.7-1.2,2.9-1.2c1.2,0,2.1,0.4,2.9,1.2
			C816.1,2282.3,816.5,2283.4,816.5,2284.7z M809.9,2284.7c0,1.1,0.2,1.9,0.7,2.5s1.1,0.9,1.9,0.9c0.8,0,1.5-0.3,1.9-0.9
			c0.4-0.6,0.7-1.4,0.7-2.5c0-1.1-0.2-1.9-0.7-2.5c-0.4-0.6-1.1-0.8-1.9-0.8c-0.8,0-1.5,0.3-1.9,0.8
			C810.2,2282.8,809.9,2283.6,809.9,2284.7z M811.4,2279.1c0.3-0.3,0.5-0.7,0.8-1.2s0.5-0.9,0.7-1.2h1.6v0.2c-0.2,0.3-0.6,0.8-1,1.3
			s-0.8,0.9-1.2,1.1h-0.9V2279.1z"/>
		<path class="st1" d="M824.6,2289v-5.5c0-0.7-0.2-1.2-0.5-1.6c-0.3-0.3-0.8-0.5-1.5-0.5c-0.9,0-1.6,0.2-2,0.7
			c-0.4,0.5-0.6,1.3-0.6,2.4v4.5h-1.3v-8.6h1.1l0.2,1.2h0.1c0.3-0.4,0.6-0.7,1.1-1c0.5-0.2,1-0.3,1.6-0.3c1,0,1.8,0.2,2.3,0.7
			c0.5,0.5,0.8,1.3,0.8,2.4v5.6H824.6z"/>
	</g>
	<g class="st0">
		<path class="st1" d="M902.1,2289h-6.4v-11.4h6.4v1.2h-5v3.7h4.7v1.2h-4.7v4.2h5V2289z"/>
		<path class="st1" d="M910.3,2289v-5.5c0-0.7-0.2-1.2-0.5-1.6s-0.8-0.5-1.5-0.5c-0.9,0-1.6,0.2-2,0.7s-0.6,1.3-0.6,2.4v4.5h-1.3
			v-8.6h1.1l0.2,1.2h0.1c0.3-0.4,0.6-0.7,1.1-1s1-0.3,1.6-0.3c1,0,1.8,0.2,2.3,0.7s0.8,1.3,0.8,2.4v5.6H910.3z"/>
		<path class="st1" d="M916.2,2289l-3.3-8.6h1.4l1.8,5.1c0.4,1.2,0.7,2,0.7,2.3h0.1c0.1-0.3,0.2-0.8,0.5-1.7s1-2.8,2.1-5.7h1.4
			l-3.3,8.6H916.2z"/>
		<path class="st1" d="M927.6,2289l-0.3-1.2h-0.1c-0.4,0.5-0.9,0.9-1.3,1.1s-1,0.3-1.6,0.3c-0.8,0-1.5-0.2-2-0.7s-0.7-1.1-0.7-1.9
			c0-1.7,1.4-2.6,4.1-2.7l1.5,0v-0.5c0-0.7-0.1-1.2-0.4-1.5s-0.8-0.5-1.4-0.5c-0.7,0-1.5,0.2-2.4,0.7l-0.4-1
			c0.4-0.2,0.9-0.4,1.4-0.5s1-0.2,1.5-0.2c1,0,1.8,0.2,2.3,0.7s0.7,1.2,0.7,2.2v5.8H927.6z M924.6,2288.1c0.8,0,1.4-0.2,1.9-0.7
			s0.7-1.1,0.7-1.9v-0.8l-1.3,0.1c-1,0-1.8,0.2-2.2,0.5s-0.7,0.7-0.7,1.3c0,0.5,0.1,0.8,0.4,1.1S924.1,2288.1,924.6,2288.1z"/>
		<path class="st1" d="M936.7,2286.7c0,0.8-0.3,1.4-0.9,1.8s-1.4,0.6-2.5,0.6c-1.1,0-2-0.2-2.7-0.5v-1.2c0.4,0.2,0.9,0.4,1.3,0.5
			s0.9,0.2,1.4,0.2c0.7,0,1.2-0.1,1.6-0.3s0.5-0.5,0.5-1c0-0.3-0.1-0.6-0.4-0.9s-0.9-0.5-1.7-0.8c-0.8-0.3-1.4-0.6-1.7-0.8
			s-0.6-0.5-0.8-0.8s-0.2-0.6-0.2-1c0-0.7,0.3-1.2,0.9-1.7s1.3-0.6,2.3-0.6c0.9,0,1.8,0.2,2.7,0.6l-0.5,1.1
			c-0.9-0.4-1.6-0.5-2.3-0.5c-0.6,0-1.1,0.1-1.4,0.3s-0.5,0.5-0.5,0.8c0,0.2,0.1,0.4,0.2,0.6s0.3,0.3,0.6,0.5s0.8,0.4,1.5,0.6
			c1,0.4,1.7,0.7,2.1,1.1S936.7,2286.1,936.7,2286.7z"/>
		<path class="st1" d="M944.1,2289l-0.3-1.2h-0.1c-0.4,0.5-0.9,0.9-1.3,1.1s-1,0.3-1.6,0.3c-0.8,0-1.5-0.2-2-0.7s-0.7-1.1-0.7-1.9
			c0-1.7,1.4-2.6,4.1-2.7l1.5,0v-0.5c0-0.7-0.1-1.2-0.4-1.5s-0.8-0.5-1.4-0.5c-0.7,0-1.5,0.2-2.4,0.7l-0.4-1
			c0.4-0.2,0.9-0.4,1.4-0.5s1-0.2,1.5-0.2c1,0,1.8,0.2,2.3,0.7s0.7,1.2,0.7,2.2v5.8H944.1z M941.2,2288.1c0.8,0,1.4-0.2,1.9-0.7
			s0.7-1.1,0.7-1.9v-0.8l-1.3,0.1c-1,0-1.8,0.2-2.2,0.5s-0.7,0.7-0.7,1.3c0,0.5,0.1,0.8,0.4,1.1S940.6,2288.1,941.2,2288.1z"/>
		<path class="st1" d="M953.6,2287.9L953.6,2287.9c-0.7,0.9-1.6,1.3-2.8,1.3c-1.1,0-2-0.4-2.6-1.1s-0.9-1.9-0.9-3.3s0.3-2.5,0.9-3.3
			s1.5-1.2,2.6-1.2c1.2,0,2.1,0.4,2.7,1.3h0.1l-0.1-0.6l0-0.6v-3.5h1.3v12.2h-1.1L953.6,2287.9z M951,2288.1c0.9,0,1.5-0.2,1.9-0.7
			s0.6-1.3,0.6-2.3v-0.3c0-1.2-0.2-2.1-0.6-2.6s-1-0.8-1.9-0.8c-0.8,0-1.3,0.3-1.7,0.9s-0.6,1.4-0.6,2.5c0,1.1,0.2,1.9,0.6,2.5
			S950.2,2288.1,951,2288.1z"/>
		<path class="st1" d="M964.9,2284.7c0,1.4-0.4,2.5-1.1,3.3s-1.7,1.2-2.9,1.2c-0.8,0-1.4-0.2-2-0.5s-1.1-0.9-1.4-1.5
			s-0.5-1.5-0.5-2.4c0-1.4,0.3-2.5,1-3.3s1.7-1.2,2.9-1.2c1.2,0,2.1,0.4,2.9,1.2S964.9,2283.4,964.9,2284.7z M958.4,2284.7
			c0,1.1,0.2,1.9,0.7,2.5s1.1,0.9,1.9,0.9s1.5-0.3,1.9-0.9s0.7-1.4,0.7-2.5c0-1.1-0.2-1.9-0.7-2.5s-1.1-0.8-1.9-0.8
			c-0.8,0-1.5,0.3-1.9,0.8S958.4,2283.6,958.4,2284.7z"/>
	</g>
	<g id="Grupo_4339-2" transform="translate(308.084 2184)">
		<ellipse id="Elipse_497-7" class="st15" cx="37.4" cy="37.5" rx="37" ry="37.5"/>
		<path id="Trazado_1178-7" class="st15" d="M37.8,4.6c18.3,0,33.1,14.8,33.1,33.1S56.1,70.9,37.8,70.9S4.6,56.1,4.6,37.8
			S19.5,4.6,37.8,4.6C37.8,4.6,37.8,4.6,37.8,4.6z"/>
	</g>
	<g id="Grupo_4340-2" transform="translate(448.342 2184)">
		<ellipse id="Elipse_497-8" class="st16" cx="37.2" cy="37.5" rx="37" ry="37.5"/>
		<path id="Trazado_1178-8" class="st16" d="M37.3,4.6c18.3,0,33.1,14.8,33.1,33.1S55.6,70.9,37.3,70.9S4.2,56.1,4.2,37.8
			S19,4.6,37.3,4.6C37.3,4.6,37.3,4.6,37.3,4.6z"/>
	</g>
	<g id="Grupo_4341-2" transform="translate(588.701 2184)">
		<circle id="Elipse_497-9" class="st17" cx="37.3" cy="37.5" r="37.5"/>
		<path id="Trazado_1178-9" class="st17" d="M37.8,4.6c18.3,0,33.1,14.8,33.1,33.1S56.1,70.9,37.8,70.9S4.6,56.1,4.6,37.8
			S19.5,4.6,37.8,4.6C37.8,4.6,37.8,4.6,37.8,4.6z"/>
	</g>
	<g id="Grupo_4342-2" transform="translate(736.701 2184)">
		<circle id="Elipse_497-10" class="st18" cx="37.3" cy="37.5" r="37.5"/>
		<path id="Trazado_1178-10" class="st18" d="M37.8,4.6c18.3,0,33.1,14.8,33.1,33.1S56.1,70.9,37.8,70.9S4.6,56.1,4.6,37.8
			S19.5,4.6,37.8,4.6C37.8,4.6,37.8,4.6,37.8,4.6z"/>
	</g>
	<g id="Grupo_4343-2" transform="translate(890.701 2184)">
		<circle id="Elipse_497-11" class="st19" cx="37.3" cy="37.5" r="37.5"/>
		<path id="Trazado_1178-11" class="st19" d="M37.8,4.6c18.3,0,33.1,14.8,33.1,33.1S56.1,70.9,37.8,70.9S4.6,56.1,4.6,37.8
			S19.5,4.6,37.8,4.6C37.8,4.6,37.8,4.6,37.8,4.6z"/>
	</g>
	<g class="st0">
		<path class="st2" d="M340.9,2208v28h-6.5v-22.8h-5.6v-5.2H340.9z"/>
		<path class="st2" d="M356.5,2208v28h-6.5v-22.8h-5.6v-5.2H356.5z"/>
	</g>
	<g class="st0">
		<path class="st2" d="M478.9,2208v28h-6.5v-22.8h-5.6v-5.2H478.9z"/>
		<path class="st2" d="M489.5,2234.8c-1.8-1.1-3.2-2.8-4.3-5c-1-2.2-1.5-4.8-1.5-7.8c0-3,0.5-5.6,1.5-7.8c1-2.2,2.4-3.8,4.3-5
			s3.9-1.7,6.2-1.7s4.4,0.6,6.2,1.7s3.2,2.8,4.3,5c1,2.2,1.5,4.8,1.5,7.8c0,3-0.5,5.6-1.5,7.8c-1,2.2-2.4,3.8-4.3,5
			c-1.8,1.1-3.9,1.7-6.2,1.7S491.4,2235.9,489.5,2234.8z M499.8,2228.8c1-1.5,1.5-3.7,1.5-6.8s-0.5-5.3-1.5-6.8
			c-1-1.5-2.3-2.2-4-2.2c-1.7,0-3,0.7-4,2.2c-1,1.5-1.5,3.7-1.5,6.8s0.5,5.3,1.5,6.8c1,1.5,2.3,2.2,4,2.2
			C497.4,2231,498.8,2230.3,499.8,2228.8z"/>
	</g>
	<g class="st0">
		<path class="st2" d="M633.1,2211.1c2.2,2.4,3.3,5.8,3.3,10.3c0,3.2-0.6,5.9-1.8,8.2c-1.2,2.3-2.9,4-5,5.2
			c-2.2,1.2-4.7,1.8-7.5,1.8c-1.5,0-2.9-0.2-4.3-0.5c-1.4-0.3-2.5-0.8-3.5-1.4l2.4-4.8c1.4,0.9,3.1,1.4,5.2,1.4
			c2.4,0,4.3-0.7,5.6-2.1c1.4-1.4,2.1-3.4,2.2-6.1c-1.7,1.7-4,2.5-7,2.5c-1.8,0-3.4-0.4-4.9-1.1c-1.5-0.7-2.6-1.7-3.5-3.1
			s-1.3-2.8-1.3-4.6c0-1.9,0.5-3.5,1.4-4.9c0.9-1.4,2.2-2.5,3.8-3.3s3.4-1.1,5.4-1.1C627.8,2207.5,630.9,2208.7,633.1,2211.1z
			 M627.8,2219.5c0.9-0.8,1.3-1.8,1.3-3c0-1.2-0.4-2.2-1.3-3c-0.9-0.8-2.1-1.2-3.6-1.2c-1.4,0-2.5,0.4-3.4,1.1
			c-0.9,0.7-1.3,1.8-1.3,3c0,1.3,0.4,2.3,1.3,3.1c0.9,0.8,2,1.1,3.5,1.1C625.8,2220.7,626.9,2220.3,627.8,2219.5z"/>
	</g>
	<g class="st0">
		<path class="st2" d="M784.4,2224c0.7,1.1,1.1,2.4,1.1,3.9c0,1.7-0.5,3.2-1.5,4.5c-1,1.3-2.4,2.3-4.2,3c-1.8,0.7-3.9,1.1-6.2,1.1
			c-2.3,0-4.4-0.4-6.2-1.1c-1.8-0.7-3.1-1.7-4.1-3c-1-1.3-1.5-2.8-1.5-4.5c0-1.5,0.4-2.8,1.1-3.9c0.7-1.1,1.8-2,3.1-2.7
			c-1-0.6-1.8-1.4-2.4-2.4c-0.6-1-0.8-2.1-0.8-3.3c0-1.6,0.5-3,1.4-4.2s2.2-2.1,3.8-2.8c1.6-0.7,3.5-1,5.6-1c2.1,0,4,0.3,5.7,1
			c1.6,0.7,2.9,1.6,3.8,2.8c0.9,1.2,1.4,2.6,1.4,4.2c0,1.3-0.3,2.4-0.8,3.3s-1.4,1.8-2.4,2.4C782.6,2222,783.7,2222.9,784.4,2224z
			 M777.5,2230.6c0.9-0.7,1.4-1.7,1.4-2.9c0-1.2-0.5-2.2-1.4-2.9c-0.9-0.7-2.2-1.1-3.9-1.1c-1.6,0-2.9,0.4-3.8,1.1
			c-0.9,0.7-1.4,1.7-1.4,2.9c0,1.3,0.5,2.2,1.4,3c0.9,0.7,2.2,1.1,3.8,1.1C775.3,2231.7,776.6,2231.4,777.5,2230.6z M770.5,2213.2
			c-0.8,0.6-1.2,1.5-1.2,2.6c0,1.1,0.4,1.9,1.2,2.5s1.8,0.9,3.2,0.9c1.3,0,2.4-0.3,3.2-0.9c0.8-0.6,1.2-1.5,1.2-2.5
			c0-1.1-0.4-2-1.2-2.6c-0.8-0.6-1.9-0.9-3.2-0.9C772.4,2212.3,771.3,2212.6,770.5,2213.2z"/>
	</g>
	<g class="st0">
		<path class="st8" d="M938,2208v4.2l-10.4,23.8h-7l10-22.7h-9.3v4.6h-5.8v-9.8H938z"/>
	</g>
	<g id="Grupo_4345-2" transform="translate(442.794 2249) rotate(180)">
		<rect id="rectangle-6" x="0.3" class="st9" width="59" height="59"/>
		<path id="path-6" class="st20" d="M29.4,9.8L26,13.2l13.7,13.7H9.8v4.9h29.9L26,45.6l3.4,3.4L49,29.4L29.4,9.8z"/>
	</g>
	<g id="Grupo_4346-2" transform="translate(583.51 2249) rotate(180)">
		<rect id="rectangle-7" x="0" class="st9" width="59" height="59"/>
		<path id="path-7" class="st21" d="M29.4,9.8L26,13.2l13.7,13.7H9.8v4.9h29.9L26,45.6l3.4,3.4L49,29.4L29.4,9.8z"/>
	</g>
	<g id="Grupo_4347-2" transform="translate(725.51 2251) rotate(180)">
		<rect id="rectangle-8" x="0" class="st9" width="59" height="59"/>
		<path id="path-8" class="st22" d="M29.4,9.8L26,13.2l13.7,13.7H9.8v4.9h29.9L26,45.6l3.4,3.4L49,29.4L29.4,9.8z"/>
	</g>
	<g id="Grupo_4348-2" transform="translate(878.51 2251) rotate(180)">
		<rect id="rectangle-9" x="0" class="st9" width="59" height="59"/>
		<path id="path-9" class="st23" d="M29.4,9.8L26,13.2l13.7,13.7H9.8v4.9h29.9L26,45.6l3.4,3.4L49,29.4L29.4,9.8z"/>
	</g>
	<rect id="rectangle-10" x="819.5" y="2020" class="st9" width="59" height="59"/>
	<path id="path-10" class="st24" d="M956,2145.4l-3.4-3.4l-13.7,13.7v-29.9H934v29.9l-13.7-13.7l-3.4,3.4l19.6,19.6L956,2145.4z"/>
	<g id="Grupo_7339" transform="translate(0 332)">
		<ellipse id="Elipse_665" class="st25" cx="205.6" cy="1949.9" rx="54.6" ry="17.5"/>
		<g id="Grupo_6474" transform="translate(155.668 1809.891)">
			<path id="Trazado_12670" class="st26" d="M96.2,50c0-17.1-15.4-23.3-15.4-23.3H55.8v-0.2H16.3c0,0-15.4,6.2-15.4,23.3L0,126.5
				c0,0,2.8,22.1,37.5,24h6.2v0.1l5.3-0.1h4.3v-0.1l6.3-0.2c34.7-2,37.5-23.5,37.5-23.5L96.2,50z"/>
			<g id="Grupo_6470" transform="translate(8.87)">
				<path id="Trazado_12671" class="st27" d="M0.9,7.5"/>
				<path id="Trazado_12672" class="st28" d="M1.2,14.7"/>
				<path id="Trazado_12673" class="st29" d="M79.2,23.2C79.1,23.3,79.1,23.3,79.2,23.2l-0.1-2.9c1.2-1.5,0.4-3.7,0-4.5l0-3.4h0.1
					c0.8-1.5,0.8-3.3,0-4.8c0,0,0,0.1,0,0.1C78.5,7.8,28.5,20.3,1.1,7.7C1,7.6,1,7.5,1,7.3c-0.8,1.4-0.8,3.1,0,4.4h0.1l0.1,3.1
					c-0.2,0.4-1.5,3.3,0.1,5l0.1,2.9l0,0c0,0-3.2,3.8,0.2,6.8c0,0,30,18,77.5,0.5v0C82.3,27,79.2,23.2,79.2,23.2z"/>
				<ellipse id="Elipse_666" class="st30" cx="40.1" cy="7.3" rx="39.1" ry="7.3"/>
			</g>
			<g id="Grupo_6473" transform="translate(12.345 45.522)">
				<g id="Grupo_6471">
					<path id="Trazado_12674" class="st31" d="M75.6,33.4c-2.3-1.9-4.6-9.3-4.6-9.3c2.3-7.8-0.1-12.1-0.1-12.1
						c-1.2-1.9-4.8-1.2-4.8-1.2L65.9,8C62.6-1.3,51,4.2,51,4.2C42.4,7.1,35.4,0,35.4,0s-0.1,0.2-0.3,0.4c-1.3,1.6-6.5,7.1-17,3.9
						c0,0-8.8-3-11.3,4c-0.5,1.2-0.9,2.4-1.2,3.7c0,0-4.5-0.2-4.6,4c0,0.1,0,0.3,0,0.4c0.1,3.9,0.5,7.9,1,11.8c0,0,0.4,4.6-1.9,5.9
						c0,0,2.3,3,2.7,5.7c0,0-0.2,7.8-0.4,10c-0.3,4,1.9,7.8,5.5,9.7c0,0,1.4,9.3,7.5,10.3c4.8,1.4,9.9,1.5,14.6,0.1
						c0,0,1.1-0.4,3.2,1.1c0,0,4.5,4.1,4.7,4.5c9.3-7.4,11.8-5.9,11.8-5.9c4.4,0.8,9-0.1,12.8-2.6c3.8-2.6,4-9.5,4-9.5
						c2-0.6,3.7-3.8,3.7-3.8c1.9-1.9,0.7-7.8,0.7-7.8C68.6,35.2,75.6,33.4,75.6,33.4z"/>
				</g>
				<g id="Grupo_6472" transform="translate(15.354 8.921)">
					<circle id="Elipse_667" class="st32" cx="22" cy="22" r="16.8"/>
					<ellipse id="Elipse_668" class="st33" cx="22.3" cy="22" rx="15.6" ry="15.7"/>
					<path id="Trazado_12675" class="st34" d="M22.3,8.1C22.2,8.1,17,8,14,10.8c-0.5,0.3-0.6,1-0.3,1.5c0,0,0.1,0.1,0.1,0.1l8.2,8.5
						l0.9-0.2l0.4-11.6C23.2,9.1,23.2,8.1,22.3,8.1z"/>
					<path id="Trazado_12676" class="st34" d="M21.8,21.6L13,13.2c-0.5-0.5-1.3-0.5-1.8-0.1c0,0,0,0,0,0c-1.8,2-2.7,4.7-2.5,7.3
						c0,0,0.1,1.7,1.4,1.6L21.7,22L21.8,21.6z"/>
					<path id="Trazado_12677" class="st34" d="M21.3,22.8c-0.1,0.1-7.3,8.5-7.3,8.5c-0.9,0.5-2,0.3-2.7-0.4c0,0-2.8-5.2-2.9-6.3
						c0,0-0.1-1.3,1-1.3l12-0.9l0.4-0.1l0,0L21.3,22.8z"/>
					<path id="Trazado_12678" class="st34" d="M21.5,23.2l-6.3,8.2c0,0-1,1.9,0.5,2.9c0,0,4.5,1.9,7,1.4c0,0,1.6,0,1.4-2.2
						c0-0.1,0-0.1,0-0.2c-0.2-2.3-1.4-10.9-1.4-10.9L22.2,22L21.5,23.2L21.5,23.2z"/>
					<path id="Trazado_12679" class="st34" d="M23.2,22.5L25.3,34c0.3,0.8,1.1,1.1,1.9,0.9c0.1,0,0.2-0.1,0.2-0.1c0,0,4.9-2.5,5.6-4
						c0,0,0.9-1.2-0.6-2l-9.1-6.6C23.4,22.1,22.9,21.8,23.2,22.5z"/>
					<path id="Trazado_12680" class="st34" d="M24,21.7c0.1,0,9.4,6.7,9.6,6.7s1.6,0.3,2.1-2c0,0,1.8-5.6-0.2-8.6
						c-0.5-1-1.8-1.3-2.7-0.8c0,0,0,0-0.1,0l-8.8,4.2L24,21.7z"/>
					<path id="Trazado_12681" class="st34" d="M23.4,20.5c0.1-0.1,0.9-11,0.9-11s0.3-1.3,1.5-1c0,0,6.1,2.9,7.7,5.7
						c0.5,0.6,0.4,1.5-0.3,1.9c0,0-0.1,0-0.1,0.1l-9.7,5L23.4,20.5z"/>
					<ellipse id="Elipse_669" class="st33" cx="22.6" cy="21.5" rx="1.4" ry="1.3"/>
				</g>
			</g>
		</g>
	</g>
</g>
</svg>
