<?xml version="1.0" encoding="utf-8"?>
<!-- Generator: Adobe Illustrator 24.2.0, SVG Export Plug-In . SVG Version: 6.00 Build 0)  -->
<svg version="1.1" id="Capa_1" xmlns="http://www.w3.org/2000/svg" xmlns:xlink="http://www.w3.org/1999/xlink" x="0px" y="0px"
	 viewBox="0 0 786.6 212" style="enable-background:new 0 0 786.6 212;" xml:space="preserve">
<style type="text/css">
	.st0{fill:#ACE5D1;}
	.st1{enable-background:new    ;}
	.st2{fill:#00223D;}
	.st3{fill:#95DCD6;}
	.st4{fill:none;stroke:#707070;stroke-width:2;}
	.st5{fill-rule:evenodd;clip-rule:evenodd;fill:#95DCD6;}
	.st6{fill:#FFEEB1;}
	.st7{fill-rule:evenodd;clip-rule:evenodd;fill:#FFEEB1;}
</style>
<g id="Grupo_11401" transform="translate(-173 -3913)">
	<g id="Grupo_11392" transform="translate(31 76)">
		<g transform="matrix(1, 0, 0, 1, 142, 3837)">
			<path id="Rectángulo_902-4" class="st0" d="M569,6h196.6c6.6,0,12,5.4,12,12v169.2c0,6.6-5.4,12-12,12H569c-6.6,0-12-5.4-12-12
				V18C557,11.4,562.4,6,569,6z"/>
		</g>
		<g class="st1">
			<path class="st2" d="M743.4,3924.9c0,1.2-0.4,2-1.2,2.7s-1.9,0.9-3.4,0.9h-1.3v4.5h-1.3v-11.4h3
				C742,3921.6,743.4,3922.7,743.4,3924.9z M737.5,3927.4h1.2c1.2,0,2-0.2,2.6-0.6s0.8-1,0.8-1.8c0-0.8-0.2-1.3-0.7-1.7
				s-1.3-0.6-2.3-0.6h-1.5V3927.4z"/>
			<path class="st2" d="M746.9,3933h-1.3v-12.2h1.3V3933z"/>
			<path class="st2" d="M755,3933l-0.3-1.2h-0.1c-0.4,0.5-0.9,0.9-1.3,1.1s-1,0.3-1.6,0.3c-0.8,0-1.5-0.2-2-0.7s-0.7-1.1-0.7-1.9
				c0-1.7,1.4-2.6,4.1-2.7l1.5,0v-0.5c0-0.7-0.1-1.2-0.4-1.5s-0.8-0.5-1.4-0.5c-0.7,0-1.5,0.2-2.4,0.7l-0.4-1
				c0.4-0.2,0.9-0.4,1.4-0.5s1-0.2,1.5-0.2c1,0,1.8,0.2,2.3,0.7s0.7,1.2,0.7,2.2v5.8H755z M752,3932.1c0.8,0,1.4-0.2,1.9-0.7
				s0.7-1.1,0.7-1.9v-0.8l-1.3,0.1c-1,0-1.8,0.2-2.2,0.5s-0.7,0.7-0.7,1.3c0,0.5,0.1,0.8,0.4,1.1S751.5,3932.1,752,3932.1z"/>
			<path class="st2" d="M764.4,3933v-5.5c0-0.7-0.2-1.2-0.5-1.6s-0.8-0.5-1.5-0.5c-0.9,0-1.6,0.2-2,0.7s-0.6,1.3-0.6,2.4v4.5h-1.3
				v-8.6h1.1l0.2,1.2h0.1c0.3-0.4,0.6-0.7,1.1-1s1-0.3,1.6-0.3c1,0,1.8,0.2,2.3,0.7s0.8,1.3,0.8,2.4v5.6H764.4z"/>
			<path class="st2" d="M768.3,3922.1c0-0.3,0.1-0.5,0.2-0.7s0.3-0.2,0.5-0.2c0.2,0,0.4,0.1,0.5,0.2s0.2,0.4,0.2,0.6
				s-0.1,0.5-0.2,0.7s-0.3,0.2-0.5,0.2c-0.2,0-0.4-0.1-0.5-0.2S768.3,3922.4,768.3,3922.1z M769.7,3933h-1.3v-8.6h1.3V3933z"/>
			<path class="st2" d="M776.3,3925.4h-2.2v7.6h-1.3v-7.6h-1.5v-0.6l1.5-0.5v-0.5c0-2.1,0.9-3.2,2.8-3.2c0.5,0,1,0.1,1.6,0.3l-0.3,1
				c-0.5-0.2-0.9-0.2-1.3-0.2c-0.5,0-0.9,0.2-1.1,0.5s-0.4,0.8-0.4,1.6v0.6h2.2V3925.4z M777.8,3922.1c0-0.3,0.1-0.5,0.2-0.7
				s0.3-0.2,0.5-0.2c0.2,0,0.4,0.1,0.5,0.2s0.2,0.4,0.2,0.6s-0.1,0.5-0.2,0.7s-0.3,0.2-0.5,0.2c-0.2,0-0.4-0.1-0.5-0.2
				S777.8,3922.4,777.8,3922.1z M779.2,3933h-1.3v-8.6h1.3V3933z"/>
			<path class="st2" d="M785.3,3933.2c-1.2,0-2.2-0.4-2.9-1.1s-1-1.8-1-3.2c0-1.4,0.3-2.5,1-3.3s1.7-1.2,2.9-1.2
				c0.4,0,0.8,0,1.2,0.1s0.7,0.2,1,0.3l-0.4,1.1c-0.3-0.1-0.6-0.2-0.9-0.3s-0.6-0.1-0.9-0.1c-1.7,0-2.6,1.1-2.6,3.3
				c0,1.1,0.2,1.9,0.6,2.4s1.1,0.8,1.9,0.8c0.7,0,1.4-0.2,2.2-0.5v1.1C786.9,3933,786.2,3933.2,785.3,3933.2z"/>
			<path class="st2" d="M794.8,3933l-0.3-1.2h-0.1c-0.4,0.5-0.9,0.9-1.3,1.1s-1,0.3-1.6,0.3c-0.8,0-1.5-0.2-2-0.7s-0.7-1.1-0.7-1.9
				c0-1.7,1.4-2.6,4.1-2.7l1.5,0v-0.5c0-0.7-0.1-1.2-0.4-1.5s-0.8-0.5-1.4-0.5c-0.7,0-1.5,0.2-2.4,0.7l-0.4-1
				c0.4-0.2,0.9-0.4,1.4-0.5s1-0.2,1.5-0.2c1,0,1.8,0.2,2.3,0.7s0.7,1.2,0.7,2.2v5.8H794.8z M791.9,3932.1c0.8,0,1.4-0.2,1.9-0.7
				s0.7-1.1,0.7-1.9v-0.8l-1.3,0.1c-1,0-1.8,0.2-2.2,0.5s-0.7,0.7-0.7,1.3c0,0.5,0.1,0.8,0.4,1.1S791.4,3932.1,791.9,3932.1z"/>
			<path class="st2" d="M802.3,3924.3c0.4,0,0.7,0,1,0.1l-0.2,1.2c-0.4-0.1-0.7-0.1-0.9-0.1c-0.7,0-1.3,0.3-1.8,0.8
				s-0.7,1.3-0.7,2.1v4.6h-1.3v-8.6h1.1l0.1,1.6h0.1c0.3-0.6,0.7-1,1.1-1.3S801.8,3924.3,802.3,3924.3z"/>
			<path class="st2" d="M812.7,3933.2c-1.3,0-2.3-0.4-3-1.2s-1.1-1.8-1.1-3.2c0-1.4,0.3-2.5,1-3.3s1.6-1.2,2.7-1.2
				c1.1,0,1.9,0.4,2.5,1.1s0.9,1.6,0.9,2.8v0.8H810c0,1,0.3,1.8,0.8,2.3s1.2,0.8,2,0.8c0.9,0,1.8-0.2,2.7-0.6v1.2
				c-0.5,0.2-0.9,0.3-1.3,0.4S813.3,3933.2,812.7,3933.2z M812.4,3925.4c-0.7,0-1.2,0.2-1.6,0.7s-0.6,1.1-0.7,1.9h4.5
				c0-0.8-0.2-1.4-0.5-1.9S813.1,3925.4,812.4,3925.4z"/>
			<path class="st2" d="M819.4,3933h-1.3v-12.2h1.3V3933z"/>
			<path class="st2" d="M830.3,3933.2c-0.6,0-1.1-0.1-1.5-0.3s-0.8-0.5-1.2-0.9h-0.1c0.1,0.5,0.1,1,0.1,1.4v3.5h-1.3v-12.4h1.1
				l0.2,1.2h0.1c0.3-0.5,0.7-0.8,1.2-1s1-0.3,1.5-0.3c1.1,0,2,0.4,2.6,1.2s0.9,1.9,0.9,3.3c0,1.4-0.3,2.5-0.9,3.3
				S831.4,3933.2,830.3,3933.2z M830.1,3925.4c-0.9,0-1.5,0.2-1.9,0.7s-0.6,1.3-0.6,2.3v0.3c0,1.2,0.2,2.1,0.6,2.6s1,0.8,1.9,0.8
				c0.7,0,1.3-0.3,1.7-0.9s0.6-1.4,0.6-2.5c0-1.1-0.2-1.9-0.6-2.5S830.9,3925.4,830.1,3925.4z"/>
			<path class="st2" d="M840,3924.3c0.4,0,0.7,0,1,0.1l-0.2,1.2c-0.4-0.1-0.7-0.1-0.9-0.1c-0.7,0-1.3,0.3-1.8,0.8s-0.7,1.3-0.7,2.1
				v4.6h-1.3v-8.6h1.1l0.1,1.6h0.1c0.3-0.6,0.7-1,1.1-1.3S839.5,3924.3,840,3924.3z"/>
			<path class="st2" d="M850,3928.7c0,1.4-0.4,2.5-1.1,3.3s-1.7,1.2-2.9,1.2c-0.8,0-1.4-0.2-2-0.5s-1.1-0.9-1.4-1.5
				s-0.5-1.5-0.5-2.4c0-1.4,0.3-2.5,1-3.3s1.7-1.2,2.9-1.2c1.2,0,2.1,0.4,2.9,1.2S850,3927.4,850,3928.7z M843.5,3928.7
				c0,1.1,0.2,1.9,0.7,2.5s1.1,0.9,1.9,0.9s1.5-0.3,1.9-0.9s0.7-1.4,0.7-2.5c0-1.1-0.2-1.9-0.7-2.5s-1.1-0.8-1.9-0.8
				c-0.8,0-1.5,0.3-1.9,0.8S843.5,3927.6,843.5,3928.7z"/>
			<path class="st2" d="M855.7,3933.2c-1.2,0-2.2-0.4-2.9-1.1s-1-1.8-1-3.2c0-1.4,0.3-2.5,1-3.3s1.7-1.2,2.9-1.2
				c0.4,0,0.8,0,1.2,0.1s0.7,0.2,1,0.3l-0.4,1.1c-0.3-0.1-0.6-0.2-0.9-0.3s-0.6-0.1-0.9-0.1c-1.7,0-2.6,1.1-2.6,3.3
				c0,1.1,0.2,1.9,0.6,2.4s1.1,0.8,1.9,0.8c0.7,0,1.4-0.2,2.2-0.5v1.1C857.3,3933,856.6,3933.2,855.7,3933.2z"/>
			<path class="st2" d="M863.5,3933.2c-1.3,0-2.3-0.4-3-1.2s-1.1-1.8-1.1-3.2c0-1.4,0.3-2.5,1-3.3s1.6-1.2,2.7-1.2
				c1.1,0,1.9,0.4,2.5,1.1s0.9,1.6,0.9,2.8v0.8h-5.9c0,1,0.3,1.8,0.8,2.3s1.2,0.8,2,0.8c0.9,0,1.8-0.2,2.7-0.6v1.2
				c-0.5,0.2-0.9,0.3-1.3,0.4S864.1,3933.2,863.5,3933.2z M863.2,3925.4c-0.7,0-1.2,0.2-1.6,0.7s-0.6,1.1-0.7,1.9h4.5
				c0-0.8-0.2-1.4-0.5-1.9S863.9,3925.4,863.2,3925.4z"/>
			<path class="st2" d="M874.4,3930.7c0,0.8-0.3,1.4-0.9,1.8s-1.4,0.6-2.5,0.6c-1.1,0-2-0.2-2.7-0.5v-1.2c0.4,0.2,0.9,0.4,1.3,0.5
				s0.9,0.2,1.4,0.2c0.7,0,1.2-0.1,1.6-0.3s0.5-0.5,0.5-1c0-0.3-0.1-0.6-0.4-0.9s-0.9-0.5-1.7-0.8c-0.8-0.3-1.4-0.6-1.7-0.8
				s-0.6-0.5-0.8-0.8s-0.2-0.6-0.2-1c0-0.7,0.3-1.2,0.9-1.7s1.3-0.6,2.3-0.6c0.9,0,1.8,0.2,2.7,0.6l-0.5,1.1
				c-0.9-0.4-1.6-0.5-2.3-0.5c-0.6,0-1.1,0.1-1.4,0.3s-0.5,0.5-0.5,0.8c0,0.2,0.1,0.4,0.2,0.6s0.3,0.3,0.6,0.5s0.8,0.4,1.5,0.6
				c1,0.4,1.7,0.7,2.1,1.1S874.4,3930.1,874.4,3930.7z"/>
			<path class="st2" d="M883.9,3928.7c0,1.4-0.4,2.5-1.1,3.3s-1.7,1.2-2.9,1.2c-0.8,0-1.4-0.2-2-0.5s-1.1-0.9-1.4-1.5
				s-0.5-1.5-0.5-2.4c0-1.4,0.3-2.5,1-3.3s1.7-1.2,2.9-1.2c1.2,0,2.1,0.4,2.9,1.2S883.9,3927.4,883.9,3928.7z M877.4,3928.7
				c0,1.1,0.2,1.9,0.7,2.5s1.1,0.9,1.9,0.9s1.5-0.3,1.9-0.9s0.7-1.4,0.7-2.5c0-1.1-0.2-1.9-0.7-2.5s-1.1-0.8-1.9-0.8
				c-0.8,0-1.5,0.3-1.9,0.8S877.4,3927.6,877.4,3928.7z"/>
		</g>
		<g class="st1">
			<path class="st2" d="M761.1,3953.9L761.1,3953.9c-0.7,0.9-1.6,1.3-2.8,1.3c-1.1,0-2-0.4-2.6-1.1s-0.9-1.9-0.9-3.3
				s0.3-2.5,0.9-3.3s1.5-1.2,2.6-1.2c1.2,0,2.1,0.4,2.7,1.3h0.1l-0.1-0.6l0-0.6v-3.5h1.3v12.2h-1.1L761.1,3953.9z M758.5,3954.1
				c0.9,0,1.5-0.2,1.9-0.7s0.6-1.3,0.6-2.3v-0.3c0-1.2-0.2-2.1-0.6-2.6s-1-0.8-1.9-0.8c-0.8,0-1.3,0.3-1.7,0.9s-0.6,1.4-0.6,2.5
				c0,1.1,0.2,1.9,0.6,2.5S757.8,3954.1,758.5,3954.1z"/>
			<path class="st2" d="M768.7,3955.2c-1.3,0-2.3-0.4-3-1.2s-1.1-1.8-1.1-3.2c0-1.4,0.3-2.5,1-3.3s1.6-1.2,2.7-1.2
				c1.1,0,1.9,0.4,2.5,1.1s0.9,1.6,0.9,2.8v0.8H766c0,1,0.3,1.8,0.8,2.3s1.2,0.8,2,0.8c0.9,0,1.8-0.2,2.7-0.6v1.2
				c-0.5,0.2-0.9,0.3-1.3,0.4S769.3,3955.2,768.7,3955.2z M768.4,3947.4c-0.7,0-1.2,0.2-1.6,0.7s-0.6,1.1-0.7,1.9h4.5
				c0-0.8-0.2-1.4-0.5-1.9S769.1,3947.4,768.4,3947.4z"/>
			<path class="st2" d="M782.2,3955.2c-0.6,0-1.1-0.1-1.5-0.3s-0.8-0.5-1.2-0.9h-0.1c0.1,0.5,0.1,1,0.1,1.4v3.5h-1.3v-12.4h1.1
				l0.2,1.2h0.1c0.3-0.5,0.7-0.8,1.2-1s1-0.3,1.5-0.3c1.1,0,2,0.4,2.6,1.2s0.9,1.9,0.9,3.3c0,1.4-0.3,2.5-0.9,3.3
				S783.3,3955.2,782.2,3955.2z M782,3947.4c-0.9,0-1.5,0.2-1.9,0.7s-0.6,1.3-0.6,2.3v0.3c0,1.2,0.2,2.1,0.6,2.6s1,0.8,1.9,0.8
				c0.7,0,1.3-0.3,1.7-0.9s0.6-1.4,0.6-2.5c0-1.1-0.2-1.9-0.6-2.5S782.8,3947.4,782,3947.4z"/>
			<path class="st2" d="M792,3946.3c0.4,0,0.7,0,1,0.1l-0.2,1.2c-0.4-0.1-0.7-0.1-0.9-0.1c-0.7,0-1.3,0.3-1.8,0.8s-0.7,1.3-0.7,2.1
				v4.6h-1.3v-8.6h1.1l0.1,1.6h0.1c0.3-0.6,0.7-1,1.1-1.3S791.4,3946.3,792,3946.3z"/>
			<path class="st2" d="M802,3950.7c0,1.4-0.4,2.5-1.1,3.3s-1.7,1.2-2.9,1.2c-0.8,0-1.4-0.2-2-0.5s-1.1-0.9-1.4-1.5
				s-0.5-1.5-0.5-2.4c0-1.4,0.3-2.5,1-3.3s1.7-1.2,2.9-1.2c1.2,0,2.1,0.4,2.9,1.2S802,3949.4,802,3950.7z M795.4,3950.7
				c0,1.1,0.2,1.9,0.7,2.5s1.1,0.9,1.9,0.9s1.5-0.3,1.9-0.9s0.7-1.4,0.7-2.5c0-1.1-0.2-1.9-0.7-2.5s-1.1-0.8-1.9-0.8
				c-0.8,0-1.5,0.3-1.9,0.8S795.4,3949.6,795.4,3950.7z"/>
			<path class="st2" d="M810.1,3953.9L810.1,3953.9c-0.7,0.9-1.6,1.3-2.8,1.3c-1.1,0-2-0.4-2.6-1.1s-0.9-1.9-0.9-3.3
				s0.3-2.5,0.9-3.3s1.5-1.2,2.6-1.2c1.2,0,2.1,0.4,2.7,1.3h0.1l-0.1-0.6l0-0.6v-3.5h1.3v12.2h-1.1L810.1,3953.9z M807.5,3954.1
				c0.9,0,1.5-0.2,1.9-0.7s0.6-1.3,0.6-2.3v-0.3c0-1.2-0.2-2.1-0.6-2.6s-1-0.8-1.9-0.8c-0.8,0-1.3,0.3-1.7,0.9s-0.6,1.4-0.6,2.5
				c0,1.1,0.2,1.9,0.6,2.5S806.7,3954.1,807.5,3954.1z"/>
			<path class="st2" d="M815.3,3946.4v5.6c0,0.7,0.2,1.2,0.5,1.6s0.8,0.5,1.5,0.5c0.9,0,1.6-0.2,2-0.7s0.6-1.3,0.6-2.4v-4.5h1.3v8.6
				h-1.1l-0.2-1.1h-0.1c-0.3,0.4-0.6,0.7-1.1,1s-1,0.3-1.6,0.3c-1,0-1.8-0.2-2.3-0.7s-0.8-1.3-0.8-2.4v-5.6H815.3z"/>
			<path class="st2" d="M827.3,3955.2c-1.2,0-2.2-0.4-2.9-1.1s-1-1.8-1-3.2c0-1.4,0.3-2.5,1-3.3s1.7-1.2,2.9-1.2
				c0.4,0,0.8,0,1.2,0.1s0.7,0.2,1,0.3l-0.4,1.1c-0.3-0.1-0.6-0.2-0.9-0.3s-0.6-0.1-0.9-0.1c-1.7,0-2.6,1.1-2.6,3.3
				c0,1.1,0.2,1.9,0.6,2.4s1.1,0.8,1.9,0.8c0.7,0,1.4-0.2,2.2-0.5v1.1C828.9,3955,828.2,3955.2,827.3,3955.2z"/>
			<path class="st2" d="M834.9,3955.2c-1.2,0-2.2-0.4-2.9-1.1s-1-1.8-1-3.2c0-1.4,0.3-2.5,1-3.3s1.7-1.2,2.9-1.2
				c0.4,0,0.8,0,1.2,0.1s0.7,0.2,1,0.3l-0.4,1.1c-0.3-0.1-0.6-0.2-0.9-0.3s-0.6-0.1-0.9-0.1c-1.7,0-2.6,1.1-2.6,3.3
				c0,1.1,0.2,1.9,0.6,2.4s1.1,0.8,1.9,0.8c0.7,0,1.4-0.2,2.2-0.5v1.1C836.5,3955,835.8,3955.2,834.9,3955.2z"/>
			<path class="st2" d="M839,3944.1c0-0.3,0.1-0.5,0.2-0.7s0.3-0.2,0.5-0.2c0.2,0,0.4,0.1,0.5,0.2s0.2,0.4,0.2,0.6s-0.1,0.5-0.2,0.7
				s-0.3,0.2-0.5,0.2c-0.2,0-0.4-0.1-0.5-0.2S839,3944.4,839,3944.1z M840.4,3955h-1.3v-8.6h1.3V3955z"/>
			<path class="st2" d="M850.5,3950.7c0,1.4-0.4,2.5-1.1,3.3s-1.7,1.2-2.9,1.2c-0.8,0-1.4-0.2-2-0.5s-1.1-0.9-1.4-1.5
				s-0.5-1.5-0.5-2.4c0-1.4,0.3-2.5,1-3.3s1.7-1.2,2.9-1.2c1.2,0,2.1,0.4,2.9,1.2S850.5,3949.4,850.5,3950.7z M844,3950.7
				c0,1.1,0.2,1.9,0.7,2.5s1.1,0.9,1.9,0.9s1.5-0.3,1.9-0.9s0.7-1.4,0.7-2.5c0-1.1-0.2-1.9-0.7-2.5s-1.1-0.8-1.9-0.8
				c-0.8,0-1.5,0.3-1.9,0.8S844,3949.6,844,3950.7z M845.5,3945.1c0.3-0.3,0.5-0.7,0.8-1.2s0.5-0.9,0.7-1.2h1.6v0.2
				c-0.2,0.3-0.6,0.8-1,1.3s-0.8,0.9-1.2,1.1h-0.9V3945.1z"/>
			<path class="st2" d="M858.7,3955v-5.5c0-0.7-0.2-1.2-0.5-1.6s-0.8-0.5-1.5-0.5c-0.9,0-1.6,0.2-2,0.7s-0.6,1.3-0.6,2.4v4.5h-1.3
				v-8.6h1.1l0.2,1.2h0.1c0.3-0.4,0.6-0.7,1.1-1s1-0.3,1.6-0.3c1,0,1.8,0.2,2.3,0.7s0.8,1.3,0.8,2.4v5.6H858.7z"/>
			<path class="st2" d="M862.4,3954.2c0-0.3,0.1-0.6,0.2-0.8s0.4-0.3,0.7-0.3c0.3,0,0.5,0.1,0.7,0.3s0.3,0.4,0.3,0.8
				c0,0.3-0.1,0.6-0.3,0.8s-0.4,0.3-0.7,0.3c-0.3,0-0.5-0.1-0.7-0.2S862.4,3954.5,862.4,3954.2z"/>
		</g>
	</g>
	<g id="Grupo_11390" transform="translate(31 76)">
		<g id="Grupo_11389" transform="translate(0 1.188)">
			<g transform="matrix(1, 0, 0, 1, 142, 3835.81)">
				<path id="Rectángulo_902-5" class="st3" d="M21,6h196.6c6.6,0,12,5.4,12,12v170c0,6.6-5.4,12-12,12H21c-6.6,0-12-5.4-12-12V18
					C9,11.4,14.4,6,21,6z"/>
			</g>
			<g class="st1">
				<path class="st2" d="M193,3914.2c0,1.2-0.4,2-1.2,2.7s-1.9,0.9-3.4,0.9H187v4.5h-1.3v-11.4h3C191.5,3910.9,193,3912,193,3914.2z
					 M187,3916.6h1.2c1.2,0,2-0.2,2.6-0.6c0.5-0.4,0.8-1,0.8-1.8c0-0.8-0.2-1.3-0.7-1.7c-0.5-0.4-1.3-0.6-2.3-0.6H187V3916.6z"/>
				<path class="st2" d="M198.8,3922.4c-1.3,0-2.3-0.4-3-1.2c-0.7-0.8-1.1-1.8-1.1-3.2c0-1.4,0.3-2.5,1-3.3s1.6-1.2,2.7-1.2
					c1.1,0,1.9,0.4,2.5,1.1s0.9,1.6,0.9,2.8v0.8H196c0,1,0.3,1.8,0.8,2.3c0.5,0.5,1.2,0.8,2,0.8c0.9,0,1.8-0.2,2.7-0.6v1.2
					c-0.5,0.2-0.9,0.3-1.3,0.4C199.8,3922.4,199.3,3922.4,198.8,3922.4z M198.4,3914.6c-0.7,0-1.2,0.2-1.6,0.7
					c-0.4,0.4-0.6,1.1-0.7,1.9h4.5c0-0.8-0.2-1.4-0.5-1.9C199.6,3914.9,199.1,3914.6,198.4,3914.6z"/>
				<path class="st2" d="M208,3913.6c0.4,0,0.7,0,1,0.1l-0.2,1.2c-0.4-0.1-0.7-0.1-0.9-0.1c-0.7,0-1.3,0.3-1.8,0.8s-0.7,1.3-0.7,2.1
					v4.6h-1.3v-8.6h1.1l0.1,1.6h0.1c0.3-0.6,0.7-1,1.1-1.3C207,3913.7,207.5,3913.6,208,3913.6z"/>
				<path class="st2" d="M221.6,3922.3v-5.6c0-0.7-0.1-1.2-0.4-1.5c-0.3-0.3-0.7-0.5-1.4-0.5c-0.8,0-1.4,0.2-1.8,0.7
					c-0.4,0.5-0.6,1.2-0.6,2.1v4.8h-1.3v-5.6c0-0.7-0.1-1.2-0.4-1.5c-0.3-0.3-0.7-0.5-1.4-0.5c-0.8,0-1.4,0.2-1.8,0.7
					c-0.4,0.5-0.6,1.3-0.6,2.4v4.5h-1.3v-8.6h1.1l0.2,1.2h0.1c0.2-0.4,0.6-0.7,1-1s0.9-0.4,1.5-0.4c1.3,0,2.2,0.5,2.6,1.5h0.1
					c0.3-0.4,0.6-0.8,1.1-1.1s1-0.4,1.7-0.4c1,0,1.7,0.2,2.2,0.7c0.5,0.5,0.7,1.3,0.7,2.4v5.6H221.6z"/>
				<path class="st2" d="M225.4,3911.4c0-0.3,0.1-0.5,0.2-0.7c0.1-0.1,0.3-0.2,0.5-0.2c0.2,0,0.4,0.1,0.5,0.2
					c0.2,0.1,0.2,0.4,0.2,0.6s-0.1,0.5-0.2,0.7c-0.2,0.1-0.3,0.2-0.5,0.2c-0.2,0-0.4-0.1-0.5-0.2
					C225.5,3911.9,225.4,3911.7,225.4,3911.4z M226.8,3922.3h-1.3v-8.6h1.3V3922.3z"/>
				<path class="st2" d="M232.4,3921.4c0.2,0,0.5,0,0.7-0.1c0.2,0,0.4-0.1,0.5-0.1v1c-0.1,0.1-0.3,0.1-0.6,0.2s-0.5,0.1-0.7,0.1
					c-1.7,0-2.5-0.9-2.5-2.6v-5.1h-1.2v-0.6l1.2-0.5l0.5-1.8h0.8v2h2.5v1H231v5c0,0.5,0.1,0.9,0.4,1.2
					C231.6,3921.2,231.9,3921.4,232.4,3921.4z"/>
				<path class="st2" d="M238.9,3922.4c-1.3,0-2.3-0.4-3-1.2c-0.7-0.8-1.1-1.8-1.1-3.2c0-1.4,0.3-2.5,1-3.3s1.6-1.2,2.7-1.2
					c1.1,0,1.9,0.4,2.5,1.1s0.9,1.6,0.9,2.8v0.8h-5.9c0,1,0.3,1.8,0.8,2.3c0.5,0.5,1.2,0.8,2,0.8c0.9,0,1.8-0.2,2.7-0.6v1.2
					c-0.5,0.2-0.9,0.3-1.3,0.4C239.9,3922.4,239.4,3922.4,238.9,3922.4z M238.5,3914.6c-0.7,0-1.2,0.2-1.6,0.7
					c-0.4,0.4-0.6,1.1-0.7,1.9h4.5c0-0.8-0.2-1.4-0.5-1.9C239.7,3914.9,239.2,3914.6,238.5,3914.6z"/>
				<path class="st2" d="M252.4,3922.4c-0.6,0-1.1-0.1-1.5-0.3s-0.8-0.5-1.2-0.9h-0.1c0.1,0.5,0.1,1,0.1,1.4v3.5h-1.3v-12.4h1.1
					l0.2,1.2h0.1c0.3-0.5,0.7-0.8,1.2-1c0.4-0.2,1-0.3,1.5-0.3c1.1,0,2,0.4,2.6,1.2s0.9,1.9,0.9,3.3c0,1.4-0.3,2.5-0.9,3.3
					C254.3,3922,253.5,3922.4,252.4,3922.4z M252.2,3914.7c-0.9,0-1.5,0.2-1.9,0.7s-0.6,1.3-0.6,2.3v0.3c0,1.2,0.2,2.1,0.6,2.6
					c0.4,0.5,1,0.8,1.9,0.8c0.7,0,1.3-0.3,1.7-0.9c0.4-0.6,0.6-1.4,0.6-2.5c0-1.1-0.2-1.9-0.6-2.5
					C253.5,3914.9,252.9,3914.7,252.2,3914.7z"/>
				<path class="st2" d="M262.1,3913.6c0.4,0,0.7,0,1,0.1l-0.2,1.2c-0.4-0.1-0.7-0.1-0.9-0.1c-0.7,0-1.3,0.3-1.8,0.8
					s-0.7,1.3-0.7,2.1v4.6h-1.3v-8.6h1.1l0.1,1.6h0.1c0.3-0.6,0.7-1,1.1-1.3C261,3913.7,261.5,3913.6,262.1,3913.6z"/>
				<path class="st2" d="M268.3,3922.4c-1.3,0-2.3-0.4-3-1.2c-0.7-0.8-1.1-1.8-1.1-3.2c0-1.4,0.3-2.5,1-3.3s1.6-1.2,2.7-1.2
					c1.1,0,1.9,0.4,2.5,1.1s0.9,1.6,0.9,2.8v0.8h-5.9c0,1,0.3,1.8,0.8,2.3c0.5,0.5,1.2,0.8,2,0.8c0.9,0,1.8-0.2,2.7-0.6v1.2
					c-0.5,0.2-0.9,0.3-1.3,0.4C269.4,3922.4,268.9,3922.4,268.3,3922.4z M268,3914.6c-0.7,0-1.2,0.2-1.6,0.7
					c-0.4,0.4-0.6,1.1-0.7,1.9h4.5c0-0.8-0.2-1.4-0.5-1.9C269.2,3914.9,268.6,3914.6,268,3914.6z"/>
				<path class="st2" d="M277.7,3922.4c-0.6,0-1.1-0.1-1.5-0.3s-0.8-0.5-1.2-0.9h-0.1c0.1,0.5,0.1,1,0.1,1.4v3.5h-1.3v-12.4h1.1
					l0.2,1.2h0.1c0.3-0.5,0.7-0.8,1.2-1c0.4-0.2,1-0.3,1.5-0.3c1.1,0,2,0.4,2.6,1.2s0.9,1.9,0.9,3.3c0,1.4-0.3,2.5-0.9,3.3
					C279.6,3922,278.8,3922.4,277.7,3922.4z M277.5,3914.7c-0.9,0-1.5,0.2-1.9,0.7s-0.6,1.3-0.6,2.3v0.3c0,1.2,0.2,2.1,0.6,2.6
					c0.4,0.5,1,0.8,1.9,0.8c0.7,0,1.3-0.3,1.7-0.9c0.4-0.6,0.6-1.4,0.6-2.5c0-1.1-0.2-1.9-0.6-2.5
					C278.8,3914.9,278.2,3914.7,277.5,3914.7z"/>
				<path class="st2" d="M288.7,3922.3l-0.3-1.2h-0.1c-0.4,0.5-0.9,0.9-1.3,1.1c-0.4,0.2-1,0.3-1.6,0.3c-0.8,0-1.5-0.2-2-0.7
					c-0.5-0.4-0.7-1.1-0.7-1.9c0-1.7,1.4-2.6,4.1-2.7l1.5,0v-0.5c0-0.7-0.1-1.2-0.4-1.5s-0.8-0.5-1.4-0.5c-0.7,0-1.5,0.2-2.4,0.7
					l-0.4-1c0.4-0.2,0.9-0.4,1.4-0.5c0.5-0.1,1-0.2,1.5-0.2c1,0,1.8,0.2,2.3,0.7s0.7,1.2,0.7,2.2v5.8H288.7z M285.8,3921.4
					c0.8,0,1.4-0.2,1.9-0.7s0.7-1.1,0.7-1.9v-0.8l-1.3,0.1c-1,0-1.8,0.2-2.2,0.5c-0.5,0.3-0.7,0.7-0.7,1.3c0,0.5,0.1,0.8,0.4,1.1
					C284.9,3921.2,285.3,3921.4,285.8,3921.4z"/>
				<path class="st2" d="M296.3,3913.6c0.4,0,0.7,0,1,0.1l-0.2,1.2c-0.4-0.1-0.7-0.1-0.9-0.1c-0.7,0-1.3,0.3-1.8,0.8
					s-0.7,1.3-0.7,2.1v4.6h-1.3v-8.6h1.1l0.1,1.6h0.1c0.3-0.6,0.7-1,1.1-1.3C295.3,3913.7,295.8,3913.6,296.3,3913.6z"/>
				<path class="st2" d="M304.2,3922.3l-0.3-1.2h-0.1c-0.4,0.5-0.9,0.9-1.3,1.1c-0.4,0.2-1,0.3-1.6,0.3c-0.8,0-1.5-0.2-2-0.7
					c-0.5-0.4-0.7-1.1-0.7-1.9c0-1.7,1.4-2.6,4.1-2.7l1.5,0v-0.5c0-0.7-0.1-1.2-0.4-1.5s-0.8-0.5-1.4-0.5c-0.7,0-1.5,0.2-2.4,0.7
					l-0.4-1c0.4-0.2,0.9-0.4,1.4-0.5c0.5-0.1,1-0.2,1.5-0.2c1,0,1.8,0.2,2.3,0.7s0.7,1.2,0.7,2.2v5.8H304.2z M301.2,3921.4
					c0.8,0,1.4-0.2,1.9-0.7s0.7-1.1,0.7-1.9v-0.8l-1.3,0.1c-1,0-1.8,0.2-2.2,0.5c-0.5,0.3-0.7,0.7-0.7,1.3c0,0.5,0.1,0.8,0.4,1.1
					C300.3,3921.2,300.7,3921.4,301.2,3921.4z"/>
				<path class="st2" d="M311.7,3913.6c0.4,0,0.7,0,1,0.1l-0.2,1.2c-0.4-0.1-0.7-0.1-0.9-0.1c-0.7,0-1.3,0.3-1.8,0.8
					s-0.7,1.3-0.7,2.1v4.6h-1.3v-8.6h1.1l0.1,1.6h0.1c0.3-0.6,0.7-1,1.1-1.3C310.7,3913.7,311.2,3913.6,311.7,3913.6z"/>
				<path class="st2" d="M319.8,3922.3h-1.3v-12.2h1.3V3922.3z"/>
				<path class="st2" d="M329.9,3918c0,1.4-0.4,2.5-1.1,3.3s-1.7,1.2-2.9,1.2c-0.8,0-1.4-0.2-2-0.5s-1.1-0.9-1.4-1.5
					c-0.3-0.7-0.5-1.5-0.5-2.4c0-1.4,0.3-2.5,1-3.3c0.7-0.8,1.7-1.2,2.9-1.2c1.2,0,2.1,0.4,2.9,1.2
					C329.6,3915.5,329.9,3916.6,329.9,3918z M323.4,3918c0,1.1,0.2,1.9,0.7,2.5s1.1,0.9,1.9,0.9c0.8,0,1.5-0.3,1.9-0.9
					c0.4-0.6,0.7-1.4,0.7-2.5c0-1.1-0.2-1.9-0.7-2.5c-0.4-0.6-1.1-0.8-1.9-0.8c-0.8,0-1.5,0.3-1.9,0.8
					C323.6,3916.1,323.4,3916.9,323.4,3918z"/>
				<path class="st2" d="M337.7,3919.9c0,0.8-0.3,1.4-0.9,1.8s-1.4,0.6-2.5,0.6c-1.1,0-2-0.2-2.7-0.5v-1.2c0.4,0.2,0.9,0.4,1.3,0.5
					c0.5,0.1,0.9,0.2,1.4,0.2c0.7,0,1.2-0.1,1.6-0.3c0.4-0.2,0.5-0.5,0.5-1c0-0.3-0.1-0.6-0.4-0.9s-0.9-0.5-1.7-0.8
					c-0.8-0.3-1.4-0.6-1.7-0.8s-0.6-0.5-0.8-0.8s-0.2-0.6-0.2-1c0-0.7,0.3-1.2,0.9-1.7c0.6-0.4,1.3-0.6,2.3-0.6
					c0.9,0,1.8,0.2,2.7,0.6l-0.5,1.1c-0.9-0.4-1.6-0.5-2.3-0.5c-0.6,0-1.1,0.1-1.4,0.3s-0.5,0.5-0.5,0.8c0,0.2,0.1,0.4,0.2,0.6
					s0.3,0.3,0.6,0.5c0.3,0.1,0.8,0.4,1.5,0.6c1,0.4,1.7,0.7,2.1,1.1C337.6,3918.9,337.7,3919.4,337.7,3919.9z"/>
			</g>
			<g class="st1">
				<path class="st2" d="M175.2,3944.4c-1.3,0-2.3-0.4-3-1.2c-0.7-0.8-1.1-1.8-1.1-3.2c0-1.4,0.3-2.5,1-3.3s1.6-1.2,2.7-1.2
					c1.1,0,1.9,0.4,2.5,1.1s0.9,1.6,0.9,2.8v0.8h-5.9c0,1,0.3,1.8,0.8,2.3c0.5,0.5,1.2,0.8,2,0.8c0.9,0,1.8-0.2,2.7-0.6v1.2
					c-0.5,0.2-0.9,0.3-1.3,0.4C176.3,3944.4,175.8,3944.4,175.2,3944.4z M174.8,3936.6c-0.7,0-1.2,0.2-1.6,0.7
					c-0.4,0.4-0.6,1.1-0.7,1.9h4.5c0-0.8-0.2-1.4-0.5-1.9C176,3936.9,175.5,3936.6,174.8,3936.6z"/>
				<path class="st2" d="M186.4,3944.3v-5.5c0-0.7-0.2-1.2-0.5-1.6c-0.3-0.3-0.8-0.5-1.5-0.5c-0.9,0-1.6,0.2-2,0.7
					c-0.4,0.5-0.6,1.3-0.6,2.4v4.5h-1.3v-8.6h1.1l0.2,1.2h0.1c0.3-0.4,0.6-0.7,1.1-1c0.5-0.2,1-0.3,1.6-0.3c1,0,1.8,0.2,2.3,0.7
					c0.5,0.5,0.8,1.3,0.8,2.4v5.6H186.4z"/>
				<path class="st2" d="M192.3,3944.3l-3.3-8.6h1.4l1.8,5.1c0.4,1.2,0.7,2,0.7,2.3h0.1c0.1-0.3,0.2-0.8,0.5-1.7s1-2.8,2.1-5.7h1.4
					l-3.3,8.6H192.3z"/>
				<path class="st2" d="M203.7,3944.3l-0.3-1.2h-0.1c-0.4,0.5-0.9,0.9-1.3,1.1c-0.4,0.2-1,0.3-1.6,0.3c-0.8,0-1.5-0.2-2-0.7
					c-0.5-0.4-0.7-1.1-0.7-1.9c0-1.7,1.4-2.6,4.1-2.7l1.5,0v-0.5c0-0.7-0.1-1.2-0.4-1.5s-0.8-0.5-1.4-0.5c-0.7,0-1.5,0.2-2.4,0.7
					l-0.4-1c0.4-0.2,0.9-0.4,1.4-0.5c0.5-0.1,1-0.2,1.5-0.2c1,0,1.8,0.2,2.3,0.7s0.7,1.2,0.7,2.2v5.8H203.7z M200.7,3943.4
					c0.8,0,1.4-0.2,1.9-0.7s0.7-1.1,0.7-1.9v-0.8l-1.3,0.1c-1,0-1.8,0.2-2.2,0.5c-0.5,0.3-0.7,0.7-0.7,1.3c0,0.5,0.1,0.8,0.4,1.1
					C199.8,3943.2,200.2,3943.4,200.7,3943.4z"/>
				<path class="st2" d="M212.8,3941.9c0,0.8-0.3,1.4-0.9,1.8s-1.4,0.6-2.5,0.6c-1.1,0-2-0.2-2.7-0.5v-1.2c0.4,0.2,0.9,0.4,1.3,0.5
					c0.5,0.1,0.9,0.2,1.4,0.2c0.7,0,1.2-0.1,1.6-0.3c0.4-0.2,0.5-0.5,0.5-1c0-0.3-0.1-0.6-0.4-0.9s-0.9-0.5-1.7-0.8
					c-0.8-0.3-1.4-0.6-1.7-0.8s-0.6-0.5-0.8-0.8s-0.2-0.6-0.2-1c0-0.7,0.3-1.2,0.9-1.7c0.6-0.4,1.3-0.6,2.3-0.6
					c0.9,0,1.8,0.2,2.7,0.6l-0.5,1.1c-0.9-0.4-1.6-0.5-2.3-0.5c-0.6,0-1.1,0.1-1.4,0.3s-0.5,0.5-0.5,0.8c0,0.2,0.1,0.4,0.2,0.6
					s0.3,0.3,0.6,0.5c0.3,0.1,0.8,0.4,1.5,0.6c1,0.4,1.7,0.7,2.1,1.1C212.6,3940.9,212.8,3941.4,212.8,3941.9z"/>
				<path class="st2" d="M218.5,3944.4c-1.3,0-2.3-0.4-3-1.2c-0.7-0.8-1.1-1.8-1.1-3.2c0-1.4,0.3-2.5,1-3.3s1.6-1.2,2.7-1.2
					c1.1,0,1.9,0.4,2.5,1.1s0.9,1.6,0.9,2.8v0.8h-5.9c0,1,0.3,1.8,0.8,2.3c0.5,0.5,1.2,0.8,2,0.8c0.9,0,1.8-0.2,2.7-0.6v1.2
					c-0.5,0.2-0.9,0.3-1.3,0.4C219.6,3944.4,219.1,3944.4,218.5,3944.4z M218.2,3936.6c-0.7,0-1.2,0.2-1.6,0.7
					c-0.4,0.4-0.6,1.1-0.7,1.9h4.5c0-0.8-0.2-1.4-0.5-1.9C219.4,3936.9,218.9,3936.6,218.2,3936.6z"/>
				<path class="st2" d="M229.4,3941.9c0,0.8-0.3,1.4-0.9,1.8s-1.4,0.6-2.5,0.6c-1.1,0-2-0.2-2.7-0.5v-1.2c0.4,0.2,0.9,0.4,1.3,0.5
					c0.5,0.1,0.9,0.2,1.4,0.2c0.7,0,1.2-0.1,1.6-0.3c0.4-0.2,0.5-0.5,0.5-1c0-0.3-0.1-0.6-0.4-0.9s-0.9-0.5-1.7-0.8
					c-0.8-0.3-1.4-0.6-1.7-0.8s-0.6-0.5-0.8-0.8s-0.2-0.6-0.2-1c0-0.7,0.3-1.2,0.9-1.7c0.6-0.4,1.3-0.6,2.3-0.6
					c0.9,0,1.8,0.2,2.7,0.6l-0.5,1.1c-0.9-0.4-1.6-0.5-2.3-0.5c-0.6,0-1.1,0.1-1.4,0.3s-0.5,0.5-0.5,0.8c0,0.2,0.1,0.4,0.2,0.6
					s0.3,0.3,0.6,0.5c0.3,0.1,0.8,0.4,1.5,0.6c1,0.4,1.7,0.7,2.1,1.1C229.2,3940.9,229.4,3941.4,229.4,3941.9z"/>
				<path class="st2" d="M241.5,3944.3v-5.5c0-0.7-0.2-1.2-0.5-1.6c-0.3-0.3-0.8-0.5-1.5-0.5c-0.9,0-1.6,0.2-2,0.7
					c-0.4,0.5-0.6,1.3-0.6,2.4v4.5h-1.3v-8.6h1.1l0.2,1.2h0.1c0.3-0.4,0.6-0.7,1.1-1c0.5-0.2,1-0.3,1.6-0.3c1,0,1.8,0.2,2.3,0.7
					c0.5,0.5,0.8,1.3,0.8,2.4v5.6H241.5z"/>
				<path class="st2" d="M249.1,3944.4c-1.3,0-2.3-0.4-3-1.2c-0.7-0.8-1.1-1.8-1.1-3.2c0-1.4,0.3-2.5,1-3.3s1.6-1.2,2.7-1.2
					c1.1,0,1.9,0.4,2.5,1.1s0.9,1.6,0.9,2.8v0.8h-5.9c0,1,0.3,1.8,0.8,2.3c0.5,0.5,1.2,0.8,2,0.8c0.9,0,1.8-0.2,2.7-0.6v1.2
					c-0.5,0.2-0.9,0.3-1.3,0.4C250.2,3944.4,249.7,3944.4,249.1,3944.4z M248.8,3936.6c-0.7,0-1.2,0.2-1.6,0.7
					c-0.4,0.4-0.6,1.1-0.7,1.9h4.5c0-0.8-0.2-1.4-0.5-1.9C250,3936.9,249.5,3936.6,248.8,3936.6z"/>
				<path class="st2" d="M257.9,3944.4c-1.2,0-2.2-0.4-2.9-1.1s-1-1.8-1-3.2c0-1.4,0.3-2.5,1-3.3c0.7-0.8,1.7-1.2,2.9-1.2
					c0.4,0,0.8,0,1.2,0.1c0.4,0.1,0.7,0.2,1,0.3l-0.4,1.1c-0.3-0.1-0.6-0.2-0.9-0.3c-0.3-0.1-0.6-0.1-0.9-0.1
					c-1.7,0-2.6,1.1-2.6,3.3c0,1.1,0.2,1.9,0.6,2.4c0.4,0.6,1.1,0.8,1.9,0.8c0.7,0,1.4-0.2,2.2-0.5v1.1
					C259.5,3944.3,258.8,3944.4,257.9,3944.4z"/>
				<path class="st2" d="M265.7,3944.4c-1.3,0-2.3-0.4-3-1.2c-0.7-0.8-1.1-1.8-1.1-3.2c0-1.4,0.3-2.5,1-3.3s1.6-1.2,2.7-1.2
					c1.1,0,1.9,0.4,2.5,1.1s0.9,1.6,0.9,2.8v0.8H263c0,1,0.3,1.8,0.8,2.3c0.5,0.5,1.2,0.8,2,0.8c0.9,0,1.8-0.2,2.7-0.6v1.2
					c-0.5,0.2-0.9,0.3-1.3,0.4C266.8,3944.4,266.3,3944.4,265.7,3944.4z M265.4,3936.6c-0.7,0-1.2,0.2-1.6,0.7
					c-0.4,0.4-0.6,1.1-0.7,1.9h4.5c0-0.8-0.2-1.4-0.5-1.9C266.6,3936.9,266,3936.6,265.4,3936.6z"/>
				<path class="st2" d="M276.6,3941.9c0,0.8-0.3,1.4-0.9,1.8s-1.4,0.6-2.5,0.6c-1.1,0-2-0.2-2.7-0.5v-1.2c0.4,0.2,0.9,0.4,1.3,0.5
					c0.5,0.1,0.9,0.2,1.4,0.2c0.7,0,1.2-0.1,1.6-0.3c0.4-0.2,0.5-0.5,0.5-1c0-0.3-0.1-0.6-0.4-0.9s-0.9-0.5-1.7-0.8
					c-0.8-0.3-1.4-0.6-1.7-0.8s-0.6-0.5-0.8-0.8s-0.2-0.6-0.2-1c0-0.7,0.3-1.2,0.9-1.7c0.6-0.4,1.3-0.6,2.3-0.6
					c0.9,0,1.8,0.2,2.7,0.6l-0.5,1.1c-0.9-0.4-1.6-0.5-2.3-0.5c-0.6,0-1.1,0.1-1.4,0.3s-0.5,0.5-0.5,0.8c0,0.2,0.1,0.4,0.2,0.6
					s0.3,0.3,0.6,0.5c0.3,0.1,0.8,0.4,1.5,0.6c1,0.4,1.7,0.7,2.1,1.1C276.4,3940.9,276.6,3941.4,276.6,3941.9z"/>
				<path class="st2" d="M284,3944.3l-0.3-1.2h-0.1c-0.4,0.5-0.9,0.9-1.3,1.1c-0.4,0.2-1,0.3-1.6,0.3c-0.8,0-1.5-0.2-2-0.7
					c-0.5-0.4-0.7-1.1-0.7-1.9c0-1.7,1.4-2.6,4.1-2.7l1.5,0v-0.5c0-0.7-0.1-1.2-0.4-1.5s-0.8-0.5-1.4-0.5c-0.7,0-1.5,0.2-2.4,0.7
					l-0.4-1c0.4-0.2,0.9-0.4,1.4-0.5c0.5-0.1,1-0.2,1.5-0.2c1,0,1.8,0.2,2.3,0.7s0.7,1.2,0.7,2.2v5.8H284z M281,3943.4
					c0.8,0,1.4-0.2,1.9-0.7s0.7-1.1,0.7-1.9v-0.8l-1.3,0.1c-1,0-1.8,0.2-2.2,0.5c-0.5,0.3-0.7,0.7-0.7,1.3c0,0.5,0.1,0.8,0.4,1.1
					C280.1,3943.2,280.5,3943.4,281,3943.4z"/>
				<path class="st2" d="M291.5,3935.6c0.4,0,0.7,0,1,0.1l-0.2,1.2c-0.4-0.1-0.7-0.1-0.9-0.1c-0.7,0-1.3,0.3-1.8,0.8
					s-0.7,1.3-0.7,2.1v4.6h-1.3v-8.6h1.1l0.1,1.6h0.1c0.3-0.6,0.7-1,1.1-1.3C290.5,3935.7,291,3935.6,291.5,3935.6z"/>
				<path class="st2" d="M294,3933.4c0-0.3,0.1-0.5,0.2-0.7c0.1-0.1,0.3-0.2,0.5-0.2c0.2,0,0.4,0.1,0.5,0.2c0.2,0.1,0.2,0.4,0.2,0.6
					s-0.1,0.5-0.2,0.7c-0.2,0.1-0.3,0.2-0.5,0.2c-0.2,0-0.4-0.1-0.5-0.2C294.1,3933.9,294,3933.7,294,3933.4z M295.4,3944.3h-1.3
					v-8.6h1.3V3944.3z"/>
				<path class="st2" d="M305.6,3940c0,1.4-0.4,2.5-1.1,3.3s-1.7,1.2-2.9,1.2c-0.8,0-1.4-0.2-2-0.5s-1.1-0.9-1.4-1.5
					c-0.3-0.7-0.5-1.5-0.5-2.4c0-1.4,0.3-2.5,1-3.3c0.7-0.8,1.7-1.2,2.9-1.2c1.2,0,2.1,0.4,2.9,1.2
					C305.2,3937.5,305.6,3938.6,305.6,3940z M299.1,3940c0,1.1,0.2,1.9,0.7,2.5s1.1,0.9,1.9,0.9c0.8,0,1.5-0.3,1.9-0.9
					c0.4-0.6,0.7-1.4,0.7-2.5c0-1.1-0.2-1.9-0.7-2.5c-0.4-0.6-1.1-0.8-1.9-0.8c-0.8,0-1.5,0.3-1.9,0.8
					C299.3,3938.1,299.1,3938.9,299.1,3940z"/>
				<path class="st2" d="M313.4,3941.9c0,0.8-0.3,1.4-0.9,1.8s-1.4,0.6-2.5,0.6c-1.1,0-2-0.2-2.7-0.5v-1.2c0.4,0.2,0.9,0.4,1.3,0.5
					c0.5,0.1,0.9,0.2,1.4,0.2c0.7,0,1.2-0.1,1.6-0.3c0.4-0.2,0.5-0.5,0.5-1c0-0.3-0.1-0.6-0.4-0.9s-0.9-0.5-1.7-0.8
					c-0.8-0.3-1.4-0.6-1.7-0.8s-0.6-0.5-0.8-0.8s-0.2-0.6-0.2-1c0-0.7,0.3-1.2,0.9-1.7c0.6-0.4,1.3-0.6,2.3-0.6
					c0.9,0,1.8,0.2,2.7,0.6l-0.5,1.1c-0.9-0.4-1.6-0.5-2.3-0.5c-0.6,0-1.1,0.1-1.4,0.3s-0.5,0.5-0.5,0.8c0,0.2,0.1,0.4,0.2,0.6
					s0.3,0.3,0.6,0.5c0.3,0.1,0.8,0.4,1.5,0.6c1,0.4,1.7,0.7,2.1,1.1C313.2,3940.9,313.4,3941.4,313.4,3941.9z"/>
				<path class="st2" d="M323.6,3944.4c-0.6,0-1.1-0.1-1.5-0.3s-0.8-0.5-1.2-0.9h-0.1c0.1,0.5,0.1,1,0.1,1.4v3.5h-1.3v-12.4h1.1
					l0.2,1.2h0.1c0.3-0.5,0.7-0.8,1.2-1c0.4-0.2,1-0.3,1.5-0.3c1.1,0,2,0.4,2.6,1.2s0.9,1.9,0.9,3.3c0,1.4-0.3,2.5-0.9,3.3
					C325.6,3944,324.7,3944.4,323.6,3944.4z M323.4,3936.7c-0.9,0-1.5,0.2-1.9,0.7s-0.6,1.3-0.6,2.3v0.3c0,1.2,0.2,2.1,0.6,2.6
					c0.4,0.5,1,0.8,1.9,0.8c0.7,0,1.3-0.3,1.7-0.9c0.4-0.6,0.6-1.4,0.6-2.5c0-1.1-0.2-1.9-0.6-2.5
					C324.8,3936.9,324.2,3936.7,323.4,3936.7z"/>
				<path class="st2" d="M334.7,3944.3l-0.3-1.2h-0.1c-0.4,0.5-0.9,0.9-1.3,1.1c-0.4,0.2-1,0.3-1.6,0.3c-0.8,0-1.5-0.2-2-0.7
					c-0.5-0.4-0.7-1.1-0.7-1.9c0-1.7,1.4-2.6,4.1-2.7l1.5,0v-0.5c0-0.7-0.1-1.2-0.4-1.5s-0.8-0.5-1.4-0.5c-0.7,0-1.5,0.2-2.4,0.7
					l-0.4-1c0.4-0.2,0.9-0.4,1.4-0.5c0.5-0.1,1-0.2,1.5-0.2c1,0,1.8,0.2,2.3,0.7s0.7,1.2,0.7,2.2v5.8H334.7z M331.8,3943.4
					c0.8,0,1.4-0.2,1.9-0.7s0.7-1.1,0.7-1.9v-0.8l-1.3,0.1c-1,0-1.8,0.2-2.2,0.5c-0.5,0.3-0.7,0.7-0.7,1.3c0,0.5,0.1,0.8,0.4,1.1
					C330.9,3943.2,331.3,3943.4,331.8,3943.4z"/>
				<path class="st2" d="M342.3,3935.6c0.4,0,0.7,0,1,0.1l-0.2,1.2c-0.4-0.1-0.7-0.1-0.9-0.1c-0.7,0-1.3,0.3-1.8,0.8
					s-0.7,1.3-0.7,2.1v4.6h-1.3v-8.6h1.1l0.1,1.6h0.1c0.3-0.6,0.7-1,1.1-1.3C341.2,3935.7,341.7,3935.6,342.3,3935.6z"/>
				<path class="st2" d="M350.1,3944.3l-0.3-1.2h-0.1c-0.4,0.5-0.9,0.9-1.3,1.1c-0.4,0.2-1,0.3-1.6,0.3c-0.8,0-1.5-0.2-2-0.7
					c-0.5-0.4-0.7-1.1-0.7-1.9c0-1.7,1.4-2.6,4.1-2.7l1.5,0v-0.5c0-0.7-0.1-1.2-0.4-1.5s-0.8-0.5-1.4-0.5c-0.7,0-1.5,0.2-2.4,0.7
					l-0.4-1c0.4-0.2,0.9-0.4,1.4-0.5c0.5-0.1,1-0.2,1.5-0.2c1,0,1.8,0.2,2.3,0.7s0.7,1.2,0.7,2.2v5.8H350.1z M347.2,3943.4
					c0.8,0,1.4-0.2,1.9-0.7s0.7-1.1,0.7-1.9v-0.8l-1.3,0.1c-1,0-1.8,0.2-2.2,0.5c-0.5,0.3-0.7,0.7-0.7,1.3c0,0.5,0.1,0.8,0.4,1.1
					C346.3,3943.2,346.7,3943.4,347.2,3943.4z"/>
			</g>
			<g class="st1">
				<path class="st2" d="M192.7,3965.4c0.2,0,0.5,0,0.7-0.1c0.2,0,0.4-0.1,0.5-0.1v1c-0.1,0.1-0.3,0.1-0.6,0.2s-0.5,0.1-0.7,0.1
					c-1.7,0-2.5-0.9-2.5-2.6v-5.1h-1.2v-0.6l1.2-0.5l0.5-1.8h0.8v2h2.5v1h-2.5v5c0,0.5,0.1,0.9,0.4,1.2
					C192,3965.2,192.3,3965.4,192.7,3965.4z"/>
				<path class="st2" d="M203,3962c0,1.4-0.4,2.5-1.1,3.3s-1.7,1.2-2.9,1.2c-0.8,0-1.4-0.2-2-0.5s-1.1-0.9-1.4-1.5
					c-0.3-0.7-0.5-1.5-0.5-2.4c0-1.4,0.3-2.5,1-3.3c0.7-0.8,1.7-1.2,2.9-1.2c1.2,0,2.1,0.4,2.9,1.2
					C202.6,3959.5,203,3960.6,203,3962z M196.5,3962c0,1.1,0.2,1.9,0.7,2.5s1.1,0.9,1.9,0.9c0.8,0,1.5-0.3,1.9-0.9
					c0.4-0.6,0.7-1.4,0.7-2.5c0-1.1-0.2-1.9-0.7-2.5c-0.4-0.6-1.1-0.8-1.9-0.8c-0.8,0-1.5,0.3-1.9,0.8
					C196.7,3960.1,196.5,3960.9,196.5,3962z"/>
				<path class="st2" d="M211.1,3965.1L211.1,3965.1c-0.7,0.9-1.6,1.3-2.8,1.3c-1.1,0-2-0.4-2.6-1.1c-0.6-0.8-0.9-1.9-0.9-3.3
					s0.3-2.5,0.9-3.3s1.5-1.2,2.6-1.2c1.2,0,2.1,0.4,2.7,1.3h0.1l-0.1-0.6l0-0.6v-3.5h1.3v12.2h-1.1L211.1,3965.1z M208.5,3965.3
					c0.9,0,1.5-0.2,1.9-0.7s0.6-1.3,0.6-2.3v-0.3c0-1.2-0.2-2.1-0.6-2.6c-0.4-0.5-1-0.8-1.9-0.8c-0.8,0-1.3,0.3-1.7,0.9
					c-0.4,0.6-0.6,1.4-0.6,2.5c0,1.1,0.2,1.9,0.6,2.5C207.1,3965.1,207.7,3965.3,208.5,3965.3z"/>
				<path class="st2" d="M220.3,3966.3l-0.3-1.2H220c-0.4,0.5-0.9,0.9-1.3,1.1c-0.4,0.2-1,0.3-1.6,0.3c-0.8,0-1.5-0.2-2-0.7
					c-0.5-0.4-0.7-1.1-0.7-1.9c0-1.7,1.4-2.6,4.1-2.7l1.5,0v-0.5c0-0.7-0.1-1.2-0.4-1.5s-0.8-0.5-1.4-0.5c-0.7,0-1.5,0.2-2.4,0.7
					l-0.4-1c0.4-0.2,0.9-0.4,1.4-0.5c0.5-0.1,1-0.2,1.5-0.2c1,0,1.8,0.2,2.3,0.7s0.7,1.2,0.7,2.2v5.8H220.3z M217.4,3965.4
					c0.8,0,1.4-0.2,1.9-0.7s0.7-1.1,0.7-1.9v-0.8l-1.3,0.1c-1,0-1.8,0.2-2.2,0.5c-0.5,0.3-0.7,0.7-0.7,1.3c0,0.5,0.1,0.8,0.4,1.1
					C216.5,3965.2,216.9,3965.4,217.4,3965.4z"/>
				<path class="st2" d="M229.4,3966.3h-1.3v-12.2h1.3V3966.3z"/>
				<path class="st2" d="M237.4,3966.3l-0.3-1.2h-0.1c-0.4,0.5-0.9,0.9-1.3,1.1c-0.4,0.2-1,0.3-1.6,0.3c-0.8,0-1.5-0.2-2-0.7
					c-0.5-0.4-0.7-1.1-0.7-1.9c0-1.7,1.4-2.6,4.1-2.7l1.5,0v-0.5c0-0.7-0.1-1.2-0.4-1.5s-0.8-0.5-1.4-0.5c-0.7,0-1.5,0.2-2.4,0.7
					l-0.4-1c0.4-0.2,0.9-0.4,1.4-0.5c0.5-0.1,1-0.2,1.5-0.2c1,0,1.8,0.2,2.3,0.7s0.7,1.2,0.7,2.2v5.8H237.4z M234.5,3965.4
					c0.8,0,1.4-0.2,1.9-0.7s0.7-1.1,0.7-1.9v-0.8l-1.3,0.1c-1,0-1.8,0.2-2.2,0.5c-0.5,0.3-0.7,0.7-0.7,1.3c0,0.5,0.1,0.8,0.4,1.1
					C233.6,3965.2,234,3965.4,234.5,3965.4z"/>
				<path class="st2" d="M256.2,3966.3v-5.6c0-0.7-0.1-1.2-0.4-1.5c-0.3-0.3-0.7-0.5-1.4-0.5c-0.8,0-1.4,0.2-1.8,0.7
					c-0.4,0.5-0.6,1.2-0.6,2.1v4.8h-1.3v-5.6c0-0.7-0.1-1.2-0.4-1.5c-0.3-0.3-0.7-0.5-1.4-0.5c-0.8,0-1.4,0.2-1.8,0.7
					c-0.4,0.5-0.6,1.3-0.6,2.4v4.5h-1.3v-8.6h1.1l0.2,1.2h0.1c0.2-0.4,0.6-0.7,1-1s0.9-0.4,1.5-0.4c1.3,0,2.2,0.5,2.6,1.5h0.1
					c0.3-0.4,0.6-0.8,1.1-1.1s1-0.4,1.7-0.4c1,0,1.7,0.2,2.2,0.7c0.5,0.5,0.7,1.3,0.7,2.4v5.6H256.2z"/>
				<path class="st2" d="M263.7,3966.4c-1.3,0-2.3-0.4-3-1.2c-0.7-0.8-1.1-1.8-1.1-3.2c0-1.4,0.3-2.5,1-3.3s1.6-1.2,2.7-1.2
					c1.1,0,1.9,0.4,2.5,1.1s0.9,1.6,0.9,2.8v0.8H261c0,1,0.3,1.8,0.8,2.3c0.5,0.5,1.2,0.8,2,0.8c0.9,0,1.8-0.2,2.7-0.6v1.2
					c-0.5,0.2-0.9,0.3-1.3,0.4C264.8,3966.4,264.3,3966.4,263.7,3966.4z M263.4,3958.6c-0.7,0-1.2,0.2-1.6,0.7
					c-0.4,0.4-0.6,1.1-0.7,1.9h4.5c0-0.8-0.2-1.4-0.5-1.9C264.6,3958.9,264.1,3958.6,263.4,3958.6z"/>
				<path class="st2" d="M273,3957.6c0.4,0,0.7,0,1,0.1l-0.2,1.2c-0.4-0.1-0.7-0.1-0.9-0.1c-0.7,0-1.3,0.3-1.8,0.8s-0.7,1.3-0.7,2.1
					v4.6h-1.3v-8.6h1.1l0.1,1.6h0.1c0.3-0.6,0.7-1,1.1-1.3C272,3957.7,272.5,3957.6,273,3957.6z"/>
				<path class="st2" d="M286.5,3966.3v-5.6c0-0.7-0.1-1.2-0.4-1.5c-0.3-0.3-0.7-0.5-1.4-0.5c-0.8,0-1.4,0.2-1.8,0.7
					c-0.4,0.5-0.6,1.2-0.6,2.1v4.8h-1.3v-5.6c0-0.7-0.1-1.2-0.4-1.5c-0.3-0.3-0.7-0.5-1.4-0.5c-0.8,0-1.4,0.2-1.8,0.7
					c-0.4,0.5-0.6,1.3-0.6,2.4v4.5h-1.3v-8.6h1.1l0.2,1.2h0.1c0.2-0.4,0.6-0.7,1-1s0.9-0.4,1.5-0.4c1.3,0,2.2,0.5,2.6,1.5h0.1
					c0.3-0.4,0.6-0.8,1.1-1.1s1-0.4,1.7-0.4c1,0,1.7,0.2,2.2,0.7c0.5,0.5,0.7,1.3,0.7,2.4v5.6H286.5z"/>
				<path class="st2" d="M294.1,3966.4c-1.3,0-2.3-0.4-3-1.2c-0.7-0.8-1.1-1.8-1.1-3.2c0-1.4,0.3-2.5,1-3.3s1.6-1.2,2.7-1.2
					c1.1,0,1.9,0.4,2.5,1.1s0.9,1.6,0.9,2.8v0.8h-5.9c0,1,0.3,1.8,0.8,2.3c0.5,0.5,1.2,0.8,2,0.8c0.9,0,1.8-0.2,2.7-0.6v1.2
					c-0.5,0.2-0.9,0.3-1.3,0.4C295.2,3966.4,294.7,3966.4,294.1,3966.4z M293.8,3958.6c-0.7,0-1.2,0.2-1.6,0.7
					c-0.4,0.4-0.6,1.1-0.7,1.9h4.5c0-0.8-0.2-1.4-0.5-1.9C295,3958.9,294.5,3958.6,293.8,3958.6z"/>
				<path class="st2" d="M300.8,3966.3h-1.3v-12.2h1.3V3966.3z"/>
				<path class="st2" d="M308.8,3966.3l-0.3-1.2h-0.1c-0.4,0.5-0.9,0.9-1.3,1.1c-0.4,0.2-1,0.3-1.6,0.3c-0.8,0-1.5-0.2-2-0.7
					c-0.5-0.4-0.7-1.1-0.7-1.9c0-1.7,1.4-2.6,4.1-2.7l1.5,0v-0.5c0-0.7-0.1-1.2-0.4-1.5s-0.8-0.5-1.4-0.5c-0.7,0-1.5,0.2-2.4,0.7
					l-0.4-1c0.4-0.2,0.9-0.4,1.4-0.5c0.5-0.1,1-0.2,1.5-0.2c1,0,1.8,0.2,2.3,0.7s0.7,1.2,0.7,2.2v5.8H308.8z M305.9,3965.4
					c0.8,0,1.4-0.2,1.9-0.7s0.7-1.1,0.7-1.9v-0.8l-1.3,0.1c-1,0-1.8,0.2-2.2,0.5c-0.5,0.3-0.7,0.7-0.7,1.3c0,0.5,0.1,0.8,0.4,1.1
					C305,3965.2,305.4,3965.4,305.9,3965.4z"/>
				<path class="st2" d="M318.3,3965.1L318.3,3965.1c-0.7,0.9-1.6,1.3-2.8,1.3c-1.1,0-2-0.4-2.6-1.1c-0.6-0.8-0.9-1.9-0.9-3.3
					s0.3-2.5,0.9-3.3s1.5-1.2,2.6-1.2c1.2,0,2.1,0.4,2.7,1.3h0.1l-0.1-0.6l0-0.6v-3.5h1.3v12.2h-1.1L318.3,3965.1z M315.7,3965.3
					c0.9,0,1.5-0.2,1.9-0.7s0.6-1.3,0.6-2.3v-0.3c0-1.2-0.2-2.1-0.6-2.6c-0.4-0.5-1-0.8-1.9-0.8c-0.8,0-1.3,0.3-1.7,0.9
					c-0.4,0.6-0.6,1.4-0.6,2.5c0,1.1,0.2,1.9,0.6,2.5C314.3,3965.1,314.9,3965.3,315.7,3965.3z"/>
				<path class="st2" d="M327.5,3966.3l-0.3-1.2h-0.1c-0.4,0.5-0.9,0.9-1.3,1.1c-0.4,0.2-1,0.3-1.6,0.3c-0.8,0-1.5-0.2-2-0.7
					c-0.5-0.4-0.7-1.1-0.7-1.9c0-1.7,1.4-2.6,4.1-2.7l1.5,0v-0.5c0-0.7-0.1-1.2-0.4-1.5s-0.8-0.5-1.4-0.5c-0.7,0-1.5,0.2-2.4,0.7
					l-0.4-1c0.4-0.2,0.9-0.4,1.4-0.5c0.5-0.1,1-0.2,1.5-0.2c1,0,1.8,0.2,2.3,0.7s0.7,1.2,0.7,2.2v5.8H327.5z M324.6,3965.4
					c0.8,0,1.4-0.2,1.9-0.7s0.7-1.1,0.7-1.9v-0.8l-1.3,0.1c-1,0-1.8,0.2-2.2,0.5c-0.5,0.3-0.7,0.7-0.7,1.3c0,0.5,0.1,0.8,0.4,1.1
					C323.7,3965.2,324.1,3965.4,324.6,3965.4z"/>
				<path class="st2" d="M330.9,3965.4c0-0.3,0.1-0.6,0.2-0.8c0.2-0.2,0.4-0.3,0.7-0.3c0.3,0,0.5,0.1,0.7,0.3
					c0.2,0.2,0.3,0.4,0.3,0.8c0,0.3-0.1,0.6-0.3,0.8s-0.4,0.3-0.7,0.3c-0.3,0-0.5-0.1-0.7-0.2C331,3966.1,330.9,3965.8,330.9,3965.4
					z"/>
			</g>
			<path id="Trazado_12481" class="st4" d="M178.6,3923"/>
			<path id="path" class="st5" d="M370.4,3922.4l19.5,19.5l-19.5,19.5V3922.4z"/>
		</g>
	</g>
	<g id="Grupo_11391" transform="translate(34 76)">
		<g transform="matrix(1, 0, 0, 1, 139, 3837)">
			<path id="Rectángulo_902-6" class="st6" d="M294,6h197.8c6.6,0,12,5.4,12,12v169.2c0,6.6-5.4,12-12,12H294c-6.6,0-12-5.4-12-12
				V18C282,11.4,287.4,6,294,6z"/>
		</g>
		<g class="st1">
			<path class="st2" d="M454.3,3900.6c-1.3,0-2.2,0.4-3,1.3s-1.1,2-1.1,3.4c0,1.5,0.4,2.6,1.1,3.5c0.7,0.8,1.7,1.2,3,1.2
				c0.8,0,1.7-0.1,2.7-0.4v1.2c-0.8,0.3-1.8,0.4-2.9,0.4c-1.7,0-3-0.5-3.9-1.5s-1.4-2.5-1.4-4.4c0-1.2,0.2-2.2,0.7-3.1
				c0.4-0.9,1.1-1.6,1.9-2c0.8-0.5,1.8-0.7,2.9-0.7c1.2,0,2.2,0.2,3.1,0.7l-0.6,1.1C456.1,3900.8,455.2,3900.6,454.3,3900.6z"/>
			<path class="st2" d="M464.6,3911l-0.3-1.2h-0.1c-0.4,0.5-0.9,0.9-1.3,1.1c-0.4,0.2-1,0.3-1.6,0.3c-0.8,0-1.5-0.2-2-0.7
				c-0.5-0.4-0.7-1.1-0.7-1.9c0-1.7,1.4-2.6,4.1-2.7l1.5,0v-0.5c0-0.7-0.1-1.2-0.4-1.5s-0.8-0.5-1.4-0.5c-0.7,0-1.5,0.2-2.4,0.7
				l-0.4-1c0.4-0.2,0.9-0.4,1.4-0.5c0.5-0.1,1-0.2,1.5-0.2c1,0,1.8,0.2,2.3,0.7s0.7,1.2,0.7,2.2v5.8H464.6z M461.7,3910.1
				c0.8,0,1.4-0.2,1.9-0.7s0.7-1.1,0.7-1.9v-0.8l-1.3,0.1c-1,0-1.8,0.2-2.2,0.5c-0.5,0.3-0.7,0.7-0.7,1.3c0,0.5,0.1,0.8,0.4,1.1
				C460.8,3910,461.2,3910.1,461.7,3910.1z"/>
			<path class="st2" d="M469.5,3911h-1.3v-12.2h1.3V3911z"/>
			<path class="st2" d="M475.7,3911.2c-1.2,0-2.2-0.4-2.9-1.1s-1-1.8-1-3.2c0-1.4,0.3-2.5,1-3.3c0.7-0.8,1.7-1.2,2.9-1.2
				c0.4,0,0.8,0,1.2,0.1c0.4,0.1,0.7,0.2,1,0.3l-0.4,1.1c-0.3-0.1-0.6-0.2-0.9-0.3c-0.3-0.1-0.6-0.1-0.9-0.1c-1.7,0-2.6,1.1-2.6,3.3
				c0,1.1,0.2,1.9,0.6,2.4c0.4,0.6,1.1,0.8,1.9,0.8c0.7,0,1.4-0.2,2.2-0.5v1.1C477.3,3911,476.6,3911.2,475.7,3911.2z"/>
			<path class="st2" d="M481.1,3902.4v5.6c0,0.7,0.2,1.2,0.5,1.6c0.3,0.3,0.8,0.5,1.5,0.5c0.9,0,1.6-0.2,2-0.7s0.6-1.3,0.6-2.4v-4.5
				h1.3v8.6h-1.1l-0.2-1.1h-0.1c-0.3,0.4-0.6,0.7-1.1,1c-0.5,0.2-1,0.3-1.6,0.3c-1,0-1.8-0.2-2.3-0.7c-0.5-0.5-0.8-1.3-0.8-2.4v-5.6
				H481.1z"/>
			<path class="st2" d="M491,3911h-1.3v-12.2h1.3V3911z"/>
			<path class="st2" d="M499,3911l-0.3-1.2h-0.1c-0.4,0.5-0.9,0.9-1.3,1.1c-0.4,0.2-1,0.3-1.6,0.3c-0.8,0-1.5-0.2-2-0.7
				c-0.5-0.4-0.7-1.1-0.7-1.9c0-1.7,1.4-2.6,4.1-2.7l1.5,0v-0.5c0-0.7-0.1-1.2-0.4-1.5s-0.8-0.5-1.4-0.5c-0.7,0-1.5,0.2-2.4,0.7
				l-0.4-1c0.4-0.2,0.9-0.4,1.4-0.5c0.5-0.1,1-0.2,1.5-0.2c1,0,1.8,0.2,2.3,0.7s0.7,1.2,0.7,2.2v5.8H499z M496.1,3910.1
				c0.8,0,1.4-0.2,1.9-0.7s0.7-1.1,0.7-1.9v-0.8l-1.3,0.1c-1,0-1.8,0.2-2.2,0.5c-0.5,0.3-0.7,0.7-0.7,1.3c0,0.5,0.1,0.8,0.4,1.1
				C495.2,3910,495.6,3910.1,496.1,3910.1z"/>
			<path class="st2" d="M506.6,3902.3c0.4,0,0.7,0,1,0.1l-0.2,1.2c-0.4-0.1-0.7-0.1-0.9-0.1c-0.7,0-1.3,0.3-1.8,0.8
				s-0.7,1.3-0.7,2.1v4.6h-1.3v-8.6h1.1l0.1,1.6h0.1c0.3-0.6,0.7-1,1.1-1.3C505.6,3902.4,506,3902.3,506.6,3902.3z"/>
			<path class="st2" d="M514.7,3911h-1.3v-12.2h1.3V3911z"/>
			<path class="st2" d="M522.7,3911l-0.3-1.2h-0.1c-0.4,0.5-0.9,0.9-1.3,1.1c-0.4,0.2-1,0.3-1.6,0.3c-0.8,0-1.5-0.2-2-0.7
				c-0.5-0.4-0.7-1.1-0.7-1.9c0-1.7,1.4-2.6,4.1-2.7l1.5,0v-0.5c0-0.7-0.1-1.2-0.4-1.5s-0.8-0.5-1.4-0.5c-0.7,0-1.5,0.2-2.4,0.7
				l-0.4-1c0.4-0.2,0.9-0.4,1.4-0.5c0.5-0.1,1-0.2,1.5-0.2c1,0,1.8,0.2,2.3,0.7s0.7,1.2,0.7,2.2v5.8H522.7z M519.8,3910.1
				c0.8,0,1.4-0.2,1.9-0.7s0.7-1.1,0.7-1.9v-0.8l-1.3,0.1c-1,0-1.8,0.2-2.2,0.5c-0.5,0.3-0.7,0.7-0.7,1.3c0,0.5,0.1,0.8,0.4,1.1
				C518.8,3910,519.2,3910.1,519.8,3910.1z"/>
			<path class="st2" d="M533.9,3911.2c-1.2,0-2.2-0.4-2.9-1.1s-1-1.8-1-3.2c0-1.4,0.3-2.5,1-3.3c0.7-0.8,1.7-1.2,2.9-1.2
				c0.4,0,0.8,0,1.2,0.1s0.7,0.2,1,0.3l-0.4,1.1c-0.3-0.1-0.6-0.2-0.9-0.3s-0.6-0.1-0.9-0.1c-1.7,0-2.6,1.1-2.6,3.3
				c0,1.1,0.2,1.9,0.6,2.4c0.4,0.6,1.1,0.8,1.9,0.8c0.7,0,1.4-0.2,2.2-0.5v1.1C535.5,3911,534.8,3911.2,533.9,3911.2z"/>
			<path class="st2" d="M543.4,3911l-0.3-1.2H543c-0.4,0.5-0.9,0.9-1.3,1.1s-1,0.3-1.6,0.3c-0.8,0-1.5-0.2-2-0.7s-0.7-1.1-0.7-1.9
				c0-1.7,1.4-2.6,4.1-2.7l1.5,0v-0.5c0-0.7-0.1-1.2-0.4-1.5s-0.8-0.5-1.4-0.5c-0.7,0-1.5,0.2-2.4,0.7l-0.4-1
				c0.4-0.2,0.9-0.4,1.4-0.5s1-0.2,1.5-0.2c1,0,1.8,0.2,2.3,0.7s0.7,1.2,0.7,2.2v5.8H543.4z M540.4,3910.1c0.8,0,1.4-0.2,1.9-0.7
				s0.7-1.1,0.7-1.9v-0.8l-1.3,0.1c-1,0-1.8,0.2-2.2,0.5s-0.7,0.7-0.7,1.3c0,0.5,0.1,0.8,0.4,1.1S539.9,3910.1,540.4,3910.1z"/>
			<path class="st2" d="M552.8,3911v-5.5c0-0.7-0.2-1.2-0.5-1.6s-0.8-0.5-1.5-0.5c-0.9,0-1.6,0.2-2,0.7s-0.6,1.3-0.6,2.4v4.5H547
				v-8.6h1.1l0.2,1.2h0.1c0.3-0.4,0.6-0.7,1.1-1s1-0.3,1.6-0.3c1,0,1.8,0.2,2.3,0.7s0.8,1.3,0.8,2.4v5.6H552.8z"/>
			<path class="st2" d="M559.6,3910.1c0.2,0,0.5,0,0.7-0.1s0.4-0.1,0.5-0.1v1c-0.1,0.1-0.3,0.1-0.6,0.2s-0.5,0.1-0.7,0.1
				c-1.7,0-2.5-0.9-2.5-2.6v-5.1h-1.2v-0.6l1.2-0.5l0.5-1.8h0.8v2h2.5v1h-2.5v5c0,0.5,0.1,0.9,0.4,1.2S559.1,3910.1,559.6,3910.1z"
				/>
			<path class="st2" d="M562.3,3900.1c0-0.3,0.1-0.5,0.2-0.7s0.3-0.2,0.5-0.2c0.2,0,0.4,0.1,0.5,0.2s0.2,0.4,0.2,0.6
				s-0.1,0.5-0.2,0.7s-0.3,0.2-0.5,0.2c-0.2,0-0.4-0.1-0.5-0.2S562.3,3900.4,562.3,3900.1z M563.8,3911h-1.3v-8.6h1.3V3911z"/>
			<path class="st2" d="M572.3,3909.9L572.3,3909.9c-0.7,0.9-1.6,1.3-2.8,1.3c-1.1,0-2-0.4-2.6-1.1s-0.9-1.9-0.9-3.3
				s0.3-2.5,0.9-3.3s1.5-1.2,2.6-1.2c1.2,0,2.1,0.4,2.7,1.3h0.1l-0.1-0.6l0-0.6v-3.5h1.3v12.2h-1.1L572.3,3909.9z M569.7,3910.1
				c0.9,0,1.5-0.2,1.9-0.7s0.6-1.3,0.6-2.3v-0.3c0-1.2-0.2-2.1-0.6-2.6s-1-0.8-1.9-0.8c-0.8,0-1.3,0.3-1.7,0.9s-0.6,1.4-0.6,2.5
				c0,1.1,0.2,1.9,0.6,2.5S569,3910.1,569.7,3910.1z"/>
			<path class="st2" d="M581.6,3911l-0.3-1.2h-0.1c-0.4,0.5-0.9,0.9-1.3,1.1s-1,0.3-1.6,0.3c-0.8,0-1.5-0.2-2-0.7s-0.7-1.1-0.7-1.9
				c0-1.7,1.4-2.6,4.1-2.7l1.5,0v-0.5c0-0.7-0.1-1.2-0.4-1.5s-0.8-0.5-1.4-0.5c-0.7,0-1.5,0.2-2.4,0.7l-0.4-1
				c0.4-0.2,0.9-0.4,1.4-0.5s1-0.2,1.5-0.2c1,0,1.8,0.2,2.3,0.7s0.7,1.2,0.7,2.2v5.8H581.6z M578.6,3910.1c0.8,0,1.4-0.2,1.9-0.7
				s0.7-1.1,0.7-1.9v-0.8l-1.3,0.1c-1,0-1.8,0.2-2.2,0.5s-0.7,0.7-0.7,1.3c0,0.5,0.1,0.8,0.4,1.1S578.1,3910.1,578.6,3910.1z"/>
			<path class="st2" d="M591,3909.9L591,3909.9c-0.7,0.9-1.6,1.3-2.8,1.3c-1.1,0-2-0.4-2.6-1.1s-0.9-1.9-0.9-3.3s0.3-2.5,0.9-3.3
				s1.5-1.2,2.6-1.2c1.2,0,2.1,0.4,2.7,1.3h0.1l-0.1-0.6l0-0.6v-3.5h1.3v12.2h-1.1L591,3909.9z M588.4,3910.1c0.9,0,1.5-0.2,1.9-0.7
				s0.6-1.3,0.6-2.3v-0.3c0-1.2-0.2-2.1-0.6-2.6s-1-0.8-1.9-0.8c-0.8,0-1.3,0.3-1.7,0.9s-0.6,1.4-0.6,2.5c0,1.1,0.2,1.9,0.6,2.5
				S587.7,3910.1,588.4,3910.1z"/>
			<path class="st2" d="M605,3909.9L605,3909.9c-0.7,0.9-1.6,1.3-2.8,1.3c-1.1,0-2-0.4-2.6-1.1s-0.9-1.9-0.9-3.3s0.3-2.5,0.9-3.3
				s1.5-1.2,2.6-1.2c1.2,0,2.1,0.4,2.7,1.3h0.1l-0.1-0.6l0-0.6v-3.5h1.3v12.2h-1.1L605,3909.9z M602.4,3910.1c0.9,0,1.5-0.2,1.9-0.7
				s0.6-1.3,0.6-2.3v-0.3c0-1.2-0.2-2.1-0.6-2.6s-1-0.8-1.9-0.8c-0.8,0-1.3,0.3-1.7,0.9s-0.6,1.4-0.6,2.5c0,1.1,0.2,1.9,0.6,2.5
				S601.6,3910.1,602.4,3910.1z"/>
			<path class="st2" d="M612.6,3911.2c-1.3,0-2.3-0.4-3-1.2s-1.1-1.8-1.1-3.2c0-1.4,0.3-2.5,1-3.3s1.6-1.2,2.7-1.2
				c1.1,0,1.9,0.4,2.5,1.1s0.9,1.6,0.9,2.8v0.8h-5.9c0,1,0.3,1.8,0.8,2.3s1.2,0.8,2,0.8c0.9,0,1.8-0.2,2.7-0.6v1.2
				c-0.5,0.2-0.9,0.3-1.3,0.4S613.2,3911.2,612.6,3911.2z M612.2,3903.4c-0.7,0-1.2,0.2-1.6,0.7s-0.6,1.1-0.7,1.9h4.5
				c0-0.8-0.2-1.4-0.5-1.9S612.9,3903.4,612.2,3903.4z"/>
		</g>
		<g class="st1">
			<path class="st2" d="M493.8,3933.2c-0.6,0-1.1-0.1-1.5-0.3s-0.8-0.5-1.2-0.9H491c0.1,0.5,0.1,1,0.1,1.4v3.5h-1.3v-12.4h1.1
				l0.2,1.2h0.1c0.3-0.5,0.7-0.8,1.2-1c0.4-0.2,1-0.3,1.5-0.3c1.1,0,2,0.4,2.6,1.2s0.9,1.9,0.9,3.3c0,1.4-0.3,2.5-0.9,3.3
				C495.8,3932.8,494.9,3933.2,493.8,3933.2z M493.6,3925.4c-0.9,0-1.5,0.2-1.9,0.7s-0.6,1.3-0.6,2.3v0.3c0,1.2,0.2,2.1,0.6,2.6
				c0.4,0.5,1,0.8,1.9,0.8c0.7,0,1.3-0.3,1.7-0.9c0.4-0.6,0.6-1.4,0.6-2.5c0-1.1-0.2-1.9-0.6-2.5
				C495,3925.7,494.4,3925.4,493.6,3925.4z"/>
			<path class="st2" d="M503.2,3933.2c-1.3,0-2.3-0.4-3-1.2c-0.7-0.8-1.1-1.8-1.1-3.2c0-1.4,0.3-2.5,1-3.3s1.6-1.2,2.7-1.2
				c1.1,0,1.9,0.4,2.5,1.1s0.9,1.6,0.9,2.8v0.8h-5.9c0,1,0.3,1.8,0.8,2.3c0.5,0.5,1.2,0.8,2,0.8c0.9,0,1.8-0.2,2.7-0.6v1.2
				c-0.5,0.2-0.9,0.3-1.3,0.4C504.3,3933.1,503.8,3933.2,503.2,3933.2z M502.9,3925.4c-0.7,0-1.2,0.2-1.6,0.7
				c-0.4,0.4-0.6,1.1-0.7,1.9h4.5c0-0.8-0.2-1.4-0.5-1.9C504.1,3925.6,503.6,3925.4,502.9,3925.4z"/>
			<path class="st2" d="M512,3933.2c-1.2,0-2.2-0.4-2.9-1.1s-1-1.8-1-3.2c0-1.4,0.3-2.5,1-3.3c0.7-0.8,1.7-1.2,2.9-1.2
				c0.4,0,0.8,0,1.2,0.1c0.4,0.1,0.7,0.2,1,0.3l-0.4,1.1c-0.3-0.1-0.6-0.2-0.9-0.3c-0.3-0.1-0.6-0.1-0.9-0.1c-1.7,0-2.6,1.1-2.6,3.3
				c0,1.1,0.2,1.9,0.6,2.4c0.4,0.6,1.1,0.8,1.9,0.8c0.7,0,1.4-0.2,2.2-0.5v1.1C513.6,3933,512.9,3933.2,512,3933.2z"/>
			<path class="st2" d="M519,3932.1c0.2,0,0.5,0,0.7-0.1c0.2,0,0.4-0.1,0.5-0.1v1c-0.1,0.1-0.3,0.1-0.6,0.2s-0.5,0.1-0.7,0.1
				c-1.7,0-2.5-0.9-2.5-2.6v-5.1h-1.2v-0.6l1.2-0.5l0.5-1.8h0.8v2h2.5v1h-2.5v5c0,0.5,0.1,0.9,0.4,1.2
				C518.2,3931.9,518.6,3932.1,519,3932.1z"/>
			<path class="st2" d="M521.8,3922.1c0-0.3,0.1-0.5,0.2-0.7c0.1-0.1,0.3-0.2,0.5-0.2c0.2,0,0.4,0.1,0.5,0.2
				c0.2,0.1,0.2,0.4,0.2,0.6s-0.1,0.5-0.2,0.7c-0.2,0.1-0.3,0.2-0.5,0.2c-0.2,0-0.4-0.1-0.5-0.2
				C521.8,3922.6,521.8,3922.4,521.8,3922.1z M523.2,3933h-1.3v-8.6h1.3V3933z"/>
			<path class="st2" d="M531.8,3933v-5.5c0-0.7-0.2-1.2-0.5-1.6c-0.3-0.3-0.8-0.5-1.5-0.5c-0.9,0-1.6,0.2-2,0.7
				c-0.4,0.5-0.6,1.3-0.6,2.4v4.5h-1.3v-8.6h1.1l0.2,1.2h0.1c0.3-0.4,0.6-0.7,1.1-1c0.5-0.2,1-0.3,1.6-0.3c1,0,1.8,0.2,2.3,0.7
				c0.5,0.5,0.8,1.3,0.8,2.4v5.6H531.8z"/>
			<path class="st2" d="M541,3933l-0.3-1.2h-0.1c-0.4,0.5-0.9,0.9-1.3,1.1c-0.4,0.2-1,0.3-1.6,0.3c-0.8,0-1.5-0.2-2-0.7
				c-0.5-0.4-0.7-1.1-0.7-1.9c0-1.7,1.4-2.6,4.1-2.7l1.5,0v-0.5c0-0.7-0.1-1.2-0.4-1.5s-0.8-0.5-1.4-0.5c-0.7,0-1.5,0.2-2.4,0.7
				l-0.4-1c0.4-0.2,0.9-0.4,1.4-0.5c0.5-0.1,1-0.2,1.5-0.2c1,0,1.8,0.2,2.3,0.7s0.7,1.2,0.7,2.2v5.8H541z M538.1,3932.1
				c0.8,0,1.4-0.2,1.9-0.7s0.7-1.1,0.7-1.9v-0.8l-1.3,0.1c-1,0-1.8,0.2-2.2,0.5c-0.5,0.3-0.7,0.7-0.7,1.3c0,0.5,0.1,0.8,0.4,1.1
				C537.2,3932,537.6,3932.1,538.1,3932.1z"/>
			<path class="st2" d="M551.8,3933.2c-1.1,0-2-0.4-2.6-1.2c-0.6-0.8-0.9-1.9-0.9-3.3c0-1.4,0.3-2.5,0.9-3.3s1.5-1.2,2.6-1.2
				c1.2,0,2.1,0.4,2.7,1.3h0.1l0.2-1.2h1v12.4h-1.3v-3.7c0-0.5,0-1,0.1-1.3h-0.1C553.9,3932.7,553,3933.2,551.8,3933.2z M552,3932.1
				c0.9,0,1.5-0.2,1.9-0.7c0.4-0.5,0.6-1.2,0.6-2.3v-0.3c0-1.2-0.2-2.1-0.6-2.6s-1-0.8-1.9-0.8c-0.8,0-1.3,0.3-1.7,0.9
				c-0.4,0.6-0.6,1.4-0.6,2.5s0.2,1.9,0.6,2.5S551.2,3932.1,552,3932.1z"/>
			<path class="st2" d="M559.8,3924.4v5.6c0,0.7,0.2,1.2,0.5,1.6c0.3,0.3,0.8,0.5,1.5,0.5c0.9,0,1.6-0.2,2-0.7s0.6-1.3,0.6-2.4v-4.5
				h1.3v8.6h-1.1l-0.2-1.1h-0.1c-0.3,0.4-0.6,0.7-1.1,1c-0.5,0.2-1,0.3-1.6,0.3c-1,0-1.8-0.2-2.3-0.7c-0.5-0.5-0.8-1.3-0.8-2.4v-5.6
				H559.8z"/>
			<path class="st2" d="M572,3933.2c-1.3,0-2.3-0.4-3-1.2c-0.7-0.8-1.1-1.8-1.1-3.2c0-1.4,0.3-2.5,1-3.3s1.6-1.2,2.7-1.2
				c1.1,0,1.9,0.4,2.5,1.1s0.9,1.6,0.9,2.8v0.8h-5.9c0,1,0.3,1.8,0.8,2.3c0.5,0.5,1.2,0.8,2,0.8c0.9,0,1.8-0.2,2.7-0.6v1.2
				c-0.5,0.2-0.9,0.3-1.3,0.4C573.1,3933.1,572.6,3933.2,572,3933.2z M571.7,3925.4c-0.7,0-1.2,0.2-1.6,0.7
				c-0.4,0.4-0.7,1.1-0.7,1.9h4.5c0-0.8-0.2-1.4-0.5-1.9C572.9,3925.6,572.4,3925.4,571.7,3925.4z"/>
		</g>
		<g class="st1">
			<path class="st2" d="M465.5,3955.2c-1.3,0-2.3-0.4-3-1.2c-0.7-0.8-1.1-1.8-1.1-3.2c0-1.4,0.3-2.5,1-3.3s1.6-1.2,2.7-1.2
				c1.1,0,1.9,0.4,2.5,1.1s0.9,1.6,0.9,2.8v0.8h-5.9c0,1,0.3,1.8,0.8,2.3c0.5,0.5,1.2,0.8,2,0.8c0.9,0,1.8-0.2,2.7-0.6v1.2
				c-0.5,0.2-0.9,0.3-1.3,0.4C466.6,3955.1,466.1,3955.2,465.5,3955.2z M465.1,3947.4c-0.7,0-1.2,0.2-1.6,0.7
				c-0.4,0.4-0.6,1.1-0.7,1.9h4.5c0-0.8-0.2-1.4-0.5-1.9C466.3,3947.6,465.8,3947.4,465.1,3947.4z"/>
			<path class="st2" d="M472.7,3955l-3.3-8.6h1.4l1.8,5.1c0.4,1.2,0.7,2,0.7,2.3h0.1c0.1-0.3,0.2-0.8,0.5-1.7s1-2.8,2.1-5.7h1.4
				l-3.3,8.6H472.7z"/>
			<path class="st2" d="M482.5,3955.2c-1.3,0-2.3-0.4-3-1.2c-0.7-0.8-1.1-1.8-1.1-3.2c0-1.4,0.3-2.5,1-3.3s1.6-1.2,2.7-1.2
				c1.1,0,1.9,0.4,2.5,1.1s0.9,1.6,0.9,2.8v0.8h-5.9c0,1,0.3,1.8,0.8,2.3c0.5,0.5,1.2,0.8,2,0.8c0.9,0,1.8-0.2,2.7-0.6v1.2
				c-0.5,0.2-0.9,0.3-1.3,0.4C483.6,3955.1,483.1,3955.2,482.5,3955.2z M482.1,3947.4c-0.7,0-1.2,0.2-1.6,0.7
				c-0.4,0.4-0.6,1.1-0.7,1.9h4.5c0-0.8-0.2-1.4-0.5-1.9C483.3,3947.6,482.8,3947.4,482.1,3947.4z"/>
			<path class="st2" d="M493.7,3955v-5.5c0-0.7-0.2-1.2-0.5-1.6c-0.3-0.3-0.8-0.5-1.5-0.5c-0.9,0-1.6,0.2-2,0.7
				c-0.4,0.5-0.6,1.3-0.6,2.4v4.5h-1.3v-8.6h1.1l0.2,1.2h0.1c0.3-0.4,0.6-0.7,1.1-1c0.5-0.2,1-0.3,1.6-0.3c1,0,1.8,0.2,2.3,0.7
				c0.5,0.5,0.8,1.3,0.8,2.4v5.6H493.7z"/>
			<path class="st2" d="M500.4,3954.1c0.2,0,0.5,0,0.7-0.1c0.2,0,0.4-0.1,0.5-0.1v1c-0.1,0.1-0.3,0.1-0.6,0.2s-0.5,0.1-0.7,0.1
				c-1.7,0-2.5-0.9-2.5-2.6v-5.1h-1.2v-0.6l1.2-0.5l0.5-1.8h0.8v2h2.5v1h-2.5v5c0,0.5,0.1,0.9,0.4,1.2
				C499.7,3953.9,500,3954.1,500.4,3954.1z"/>
			<path class="st2" d="M504.5,3946.4v5.6c0,0.7,0.2,1.2,0.5,1.6c0.3,0.3,0.8,0.5,1.5,0.5c0.9,0,1.6-0.2,2-0.7s0.6-1.3,0.6-2.4v-4.5
				h1.3v8.6h-1.1l-0.2-1.1h-0.1c-0.3,0.4-0.6,0.7-1.1,1c-0.5,0.2-1,0.3-1.6,0.3c-1,0-1.8-0.2-2.3-0.7c-0.5-0.5-0.8-1.3-0.8-2.4v-5.6
				H504.5z"/>
			<path class="st2" d="M518.4,3955l-0.3-1.2h-0.1c-0.4,0.5-0.9,0.9-1.3,1.1c-0.4,0.2-1,0.3-1.6,0.3c-0.8,0-1.5-0.2-2-0.7
				c-0.5-0.4-0.7-1.1-0.7-1.9c0-1.7,1.4-2.6,4.1-2.7l1.5,0v-0.5c0-0.7-0.1-1.2-0.4-1.5s-0.8-0.5-1.4-0.5c-0.7,0-1.5,0.2-2.4,0.7
				l-0.4-1c0.4-0.2,0.9-0.4,1.4-0.5c0.5-0.1,1-0.2,1.5-0.2c1,0,1.8,0.2,2.3,0.7s0.7,1.2,0.7,2.2v5.8H518.4z M515.5,3954.1
				c0.8,0,1.4-0.2,1.9-0.7s0.7-1.1,0.7-1.9v-0.8l-1.3,0.1c-1,0-1.8,0.2-2.2,0.5c-0.5,0.3-0.7,0.7-0.7,1.3c0,0.5,0.1,0.8,0.4,1.1
				C514.6,3954,515,3954.1,515.5,3954.1z"/>
			<path class="st2" d="M523.3,3955H522v-12.2h1.3V3955z"/>
			<path class="st2" d="M537,3955v-5.6c0-0.7-0.1-1.2-0.4-1.5s-0.7-0.5-1.4-0.5c-0.8,0-1.4,0.2-1.8,0.7s-0.6,1.2-0.6,2.1v4.8h-1.3
				v-5.6c0-0.7-0.1-1.2-0.4-1.5c-0.3-0.3-0.7-0.5-1.4-0.5c-0.8,0-1.4,0.2-1.8,0.7c-0.4,0.5-0.6,1.3-0.6,2.4v4.5h-1.3v-8.6h1.1
				l0.2,1.2h0.1c0.2-0.4,0.6-0.7,1-1s0.9-0.4,1.5-0.4c1.3,0,2.2,0.5,2.6,1.5h0.1c0.3-0.4,0.6-0.8,1.1-1.1s1-0.4,1.7-0.4
				c1,0,1.7,0.2,2.2,0.7s0.7,1.3,0.7,2.4v5.6H537z"/>
			<path class="st2" d="M544.6,3955.2c-1.3,0-2.3-0.4-3-1.2s-1.1-1.8-1.1-3.2c0-1.4,0.3-2.5,1-3.3s1.6-1.2,2.7-1.2
				c1.1,0,1.9,0.4,2.5,1.1s0.9,1.6,0.9,2.8v0.8h-5.9c0,1,0.3,1.8,0.8,2.3s1.2,0.8,2,0.8c0.9,0,1.8-0.2,2.7-0.6v1.2
				c-0.5,0.2-0.9,0.3-1.3,0.4S545.2,3955.2,544.6,3955.2z M544.2,3947.4c-0.7,0-1.2,0.2-1.6,0.7s-0.6,1.1-0.7,1.9h4.5
				c0-0.8-0.2-1.4-0.5-1.9S544.9,3947.4,544.2,3947.4z"/>
			<path class="st2" d="M555.8,3955v-5.5c0-0.7-0.2-1.2-0.5-1.6s-0.8-0.5-1.5-0.5c-0.9,0-1.6,0.2-2,0.7s-0.6,1.3-0.6,2.4v4.5h-1.3
				v-8.6h1.1l0.2,1.2h0.1c0.3-0.4,0.6-0.7,1.1-1s1-0.3,1.6-0.3c1,0,1.8,0.2,2.3,0.7s0.8,1.3,0.8,2.4v5.6H555.8z"/>
			<path class="st2" d="M562.5,3954.1c0.2,0,0.5,0,0.7-0.1s0.4-0.1,0.5-0.1v1c-0.1,0.1-0.3,0.1-0.6,0.2s-0.5,0.1-0.7,0.1
				c-1.7,0-2.5-0.9-2.5-2.6v-5.1h-1.2v-0.6l1.2-0.5l0.5-1.8h0.8v2h2.5v1h-2.5v5c0,0.5,0.1,0.9,0.4,1.2S562.1,3954.1,562.5,3954.1z"
				/>
			<path class="st2" d="M569,3955.2c-1.3,0-2.3-0.4-3-1.2s-1.1-1.8-1.1-3.2c0-1.4,0.3-2.5,1-3.3s1.6-1.2,2.7-1.2
				c1.1,0,1.9,0.4,2.5,1.1s0.9,1.6,0.9,2.8v0.8h-5.9c0,1,0.3,1.8,0.8,2.3s1.2,0.8,2,0.8c0.9,0,1.8-0.2,2.7-0.6v1.2
				c-0.5,0.2-0.9,0.3-1.3,0.4S569.6,3955.2,569,3955.2z M568.7,3947.4c-0.7,0-1.2,0.2-1.6,0.7s-0.6,1.1-0.7,1.9h4.5
				c0-0.8-0.2-1.4-0.5-1.9S569.4,3947.4,568.7,3947.4z"/>
			<path class="st2" d="M584.4,3955v-5.5c0-0.7-0.2-1.2-0.5-1.6s-0.8-0.5-1.5-0.5c-0.9,0-1.6,0.2-2,0.7s-0.6,1.3-0.6,2.4v4.5h-1.3
				v-12.2h1.3v3.7c0,0.4,0,0.8-0.1,1.1h0.1c0.3-0.4,0.6-0.7,1.1-1s1-0.4,1.6-0.4c1,0,1.8,0.2,2.4,0.7s0.8,1.3,0.8,2.4v5.6H584.4z"/>
			<path class="st2" d="M593.6,3955l-0.3-1.2h-0.1c-0.4,0.5-0.9,0.9-1.3,1.1s-1,0.3-1.6,0.3c-0.8,0-1.5-0.2-2-0.7s-0.7-1.1-0.7-1.9
				c0-1.7,1.4-2.6,4.1-2.7l1.5,0v-0.5c0-0.7-0.1-1.2-0.4-1.5s-0.8-0.5-1.4-0.5c-0.7,0-1.5,0.2-2.4,0.7l-0.4-1
				c0.4-0.2,0.9-0.4,1.4-0.5s1-0.2,1.5-0.2c1,0,1.8,0.2,2.3,0.7s0.7,1.2,0.7,2.2v5.8H593.6z M590.7,3954.1c0.8,0,1.4-0.2,1.9-0.7
				s0.7-1.1,0.7-1.9v-0.8l-1.3,0.1c-1,0-1.8,0.2-2.2,0.5s-0.7,0.7-0.7,1.3c0,0.5,0.1,0.8,0.4,1.1S590.2,3954.1,590.7,3954.1z"/>
			<path class="st2" d="M595.9,3946.4h1.4l1.9,4.9c0.4,1.1,0.7,1.9,0.8,2.4h0.1c0.1-0.3,0.2-0.7,0.4-1.4s0.9-2.6,2.1-5.9h1.4
				l-3.7,9.8c-0.4,1-0.8,1.6-1.3,2.1s-1.1,0.6-1.8,0.6c-0.4,0-0.8,0-1.2-0.1v-1c0.3,0.1,0.6,0.1,1,0.1c0.9,0,1.5-0.5,1.9-1.5
				l0.5-1.2L595.9,3946.4z"/>
		</g>
		<g class="st1">
			<path class="st2" d="M489.4,3977.2c-1.1,0-2-0.4-2.6-1.2c-0.6-0.8-0.9-1.9-0.9-3.3c0-1.4,0.3-2.5,0.9-3.3s1.5-1.2,2.6-1.2
				c1.2,0,2.1,0.4,2.7,1.3h0.1l0.2-1.2h1v12.4h-1.3v-3.7c0-0.5,0-1,0.1-1.3h-0.1C491.6,3976.7,490.7,3977.2,489.4,3977.2z
				 M489.6,3976.1c0.9,0,1.5-0.2,1.9-0.7c0.4-0.5,0.6-1.2,0.6-2.3v-0.3c0-1.2-0.2-2.1-0.6-2.6s-1-0.8-1.9-0.8
				c-0.8,0-1.3,0.3-1.7,0.9c-0.4,0.6-0.6,1.4-0.6,2.5s0.2,1.9,0.6,2.5S488.9,3976.1,489.6,3976.1z"/>
			<path class="st2" d="M497.4,3968.4v5.6c0,0.7,0.2,1.2,0.5,1.6c0.3,0.3,0.8,0.5,1.5,0.5c0.9,0,1.6-0.2,2-0.7s0.6-1.3,0.6-2.4v-4.5
				h1.3v8.6h-1.1l-0.2-1.1H502c-0.3,0.4-0.6,0.7-1.1,1c-0.5,0.2-1,0.3-1.6,0.3c-1,0-1.8-0.2-2.3-0.7c-0.5-0.5-0.8-1.3-0.8-2.4v-5.6
				H497.4z"/>
			<path class="st2" d="M509.7,3977.2c-1.3,0-2.3-0.4-3-1.2c-0.7-0.8-1.1-1.8-1.1-3.2c0-1.4,0.3-2.5,1-3.3s1.6-1.2,2.7-1.2
				c1.1,0,1.9,0.4,2.5,1.1s0.9,1.6,0.9,2.8v0.8h-5.9c0,1,0.3,1.8,0.8,2.3c0.5,0.5,1.2,0.8,2,0.8c0.9,0,1.8-0.2,2.7-0.6v1.2
				c-0.5,0.2-0.9,0.3-1.3,0.4C510.7,3977.1,510.2,3977.2,509.7,3977.2z M509.3,3969.4c-0.7,0-1.2,0.2-1.6,0.7
				c-0.4,0.4-0.6,1.1-0.7,1.9h4.5c0-0.8-0.2-1.4-0.5-1.9C510.5,3969.6,510,3969.4,509.3,3969.4z"/>
			<path class="st2" d="M524.4,3977l-0.3-1.2h-0.1c-0.4,0.5-0.9,0.9-1.3,1.1c-0.4,0.2-1,0.3-1.6,0.3c-0.8,0-1.5-0.2-2-0.7
				c-0.5-0.4-0.7-1.1-0.7-1.9c0-1.7,1.4-2.6,4.1-2.7l1.5,0v-0.5c0-0.7-0.1-1.2-0.4-1.5s-0.8-0.5-1.4-0.5c-0.7,0-1.5,0.2-2.4,0.7
				l-0.4-1c0.4-0.2,0.9-0.4,1.4-0.5c0.5-0.1,1-0.2,1.5-0.2c1,0,1.8,0.2,2.3,0.7s0.7,1.2,0.7,2.2v5.8H524.4z M521.5,3976.1
				c0.8,0,1.4-0.2,1.9-0.7s0.7-1.1,0.7-1.9v-0.8l-1.3,0.1c-1,0-1.8,0.2-2.2,0.5c-0.5,0.3-0.7,0.7-0.7,1.3c0,0.5,0.1,0.8,0.4,1.1
				C520.6,3976,521,3976.1,521.5,3976.1z"/>
			<path class="st2" d="M535.1,3968.4v0.8l-1.6,0.2c0.1,0.2,0.3,0.4,0.4,0.7c0.1,0.3,0.2,0.6,0.2,1c0,0.8-0.3,1.5-0.9,2
				c-0.6,0.5-1.4,0.8-2.4,0.8c-0.3,0-0.5,0-0.7-0.1c-0.6,0.3-0.8,0.7-0.8,1.1c0,0.2,0.1,0.4,0.3,0.5c0.2,0.1,0.5,0.2,1,0.2h1.5
				c0.9,0,1.6,0.2,2.1,0.6c0.5,0.4,0.7,1,0.7,1.7c0,0.9-0.4,1.7-1.1,2.2c-0.8,0.5-1.9,0.7-3.3,0.7c-1.1,0-2-0.2-2.6-0.6
				c-0.6-0.4-0.9-1-0.9-1.8c0-0.5,0.2-1,0.5-1.4c0.3-0.4,0.8-0.6,1.4-0.8c-0.2-0.1-0.4-0.3-0.6-0.5s-0.2-0.5-0.2-0.7
				c0-0.3,0.1-0.6,0.3-0.8c0.2-0.2,0.4-0.5,0.8-0.7c-0.4-0.2-0.8-0.5-1.1-0.9c-0.3-0.4-0.4-0.9-0.4-1.5c0-0.9,0.3-1.7,0.8-2.2
				s1.4-0.8,2.4-0.8c0.4,0,0.9,0.1,1.2,0.2H535.1z M528.2,3978.4c0,0.5,0.2,0.8,0.6,1.1s1,0.4,1.7,0.4c1.1,0,1.9-0.2,2.4-0.5
				s0.8-0.8,0.8-1.3c0-0.5-0.1-0.8-0.4-1c-0.3-0.2-0.8-0.3-1.6-0.3h-1.6c-0.6,0-1,0.1-1.4,0.4S528.2,3977.9,528.2,3978.4z
				 M528.9,3971.2c0,0.6,0.2,1.1,0.5,1.4c0.3,0.3,0.8,0.5,1.4,0.5c1.3,0,1.9-0.6,1.9-1.8c0-1.3-0.6-1.9-1.9-1.9
				c-0.6,0-1.1,0.2-1.4,0.5S528.9,3970.5,528.9,3971.2z"/>
			<path class="st2" d="M540.7,3968.3c0.4,0,0.7,0,1,0.1l-0.2,1.2c-0.4-0.1-0.7-0.1-0.9-0.1c-0.7,0-1.3,0.3-1.8,0.8
				s-0.7,1.3-0.7,2.1v4.6h-1.3v-8.6h1.1l0.1,1.6h0.1c0.3-0.6,0.7-1,1.1-1.3C539.7,3968.4,540.2,3968.3,540.7,3968.3z"/>
			<path class="st2" d="M547,3977.2c-1.3,0-2.3-0.4-3-1.2c-0.7-0.8-1.1-1.8-1.1-3.2c0-1.4,0.3-2.5,1-3.3s1.6-1.2,2.7-1.2
				c1.1,0,1.9,0.4,2.5,1.1s0.9,1.6,0.9,2.8v0.8h-5.9c0,1,0.3,1.8,0.8,2.3c0.5,0.5,1.2,0.8,2,0.8c0.9,0,1.8-0.2,2.7-0.6v1.2
				c-0.5,0.2-0.9,0.3-1.3,0.4C548.1,3977.1,547.6,3977.2,547,3977.2z M546.6,3969.4c-0.7,0-1.2,0.2-1.6,0.7
				c-0.4,0.4-0.7,1.1-0.7,1.9h4.5c0-0.8-0.2-1.4-0.5-1.9C547.8,3969.6,547.3,3969.4,546.6,3969.4z"/>
			<path class="st2" d="M559.3,3968.4v0.8l-1.6,0.2c0.1,0.2,0.3,0.4,0.4,0.7c0.1,0.3,0.2,0.6,0.2,1c0,0.8-0.3,1.5-0.9,2
				c-0.6,0.5-1.4,0.8-2.4,0.8c-0.3,0-0.5,0-0.7-0.1c-0.6,0.3-0.8,0.7-0.8,1.1c0,0.2,0.1,0.4,0.3,0.5c0.2,0.1,0.5,0.2,1,0.2h1.5
				c0.9,0,1.6,0.2,2.1,0.6c0.5,0.4,0.7,1,0.7,1.7c0,0.9-0.4,1.7-1.1,2.2c-0.8,0.5-1.9,0.7-3.3,0.7c-1.1,0-2-0.2-2.6-0.6
				c-0.6-0.4-0.9-1-0.9-1.8c0-0.5,0.2-1,0.5-1.4c0.3-0.4,0.8-0.6,1.4-0.8c-0.2-0.1-0.4-0.3-0.6-0.5s-0.2-0.5-0.2-0.7
				c0-0.3,0.1-0.6,0.3-0.8c0.2-0.2,0.4-0.5,0.8-0.7c-0.4-0.2-0.8-0.5-1.1-0.9c-0.3-0.4-0.4-0.9-0.4-1.5c0-0.9,0.3-1.7,0.8-2.2
				s1.4-0.8,2.4-0.8c0.4,0,0.9,0.1,1.2,0.2H559.3z M552.5,3978.4c0,0.5,0.2,0.8,0.6,1.1s1,0.4,1.7,0.4c1.1,0,1.9-0.2,2.4-0.5
				s0.8-0.8,0.8-1.3c0-0.5-0.1-0.8-0.4-1c-0.3-0.2-0.8-0.3-1.6-0.3h-1.6c-0.6,0-1,0.1-1.4,0.4S552.5,3977.9,552.5,3978.4z
				 M553.2,3971.2c0,0.6,0.2,1.1,0.5,1.4c0.3,0.3,0.8,0.5,1.4,0.5c1.3,0,1.9-0.6,1.9-1.8c0-1.3-0.6-1.9-1.9-1.9
				c-0.6,0-1.1,0.2-1.4,0.5S553.2,3970.5,553.2,3971.2z"/>
			<path class="st2" d="M566.4,3977l-0.3-1.2h-0.1c-0.4,0.5-0.9,0.9-1.3,1.1c-0.4,0.2-1,0.3-1.6,0.3c-0.8,0-1.5-0.2-2-0.7
				c-0.5-0.4-0.7-1.1-0.7-1.9c0-1.7,1.4-2.6,4.1-2.7l1.5,0v-0.5c0-0.7-0.1-1.2-0.4-1.5s-0.8-0.5-1.4-0.5c-0.7,0-1.5,0.2-2.4,0.7
				l-0.4-1c0.4-0.2,0.9-0.4,1.4-0.5c0.5-0.1,1-0.2,1.5-0.2c1,0,1.8,0.2,2.3,0.7s0.7,1.2,0.7,2.2v5.8H566.4z M563.4,3976.1
				c0.8,0,1.4-0.2,1.9-0.7s0.7-1.1,0.7-1.9v-0.8l-1.3,0.1c-1,0-1.8,0.2-2.2,0.5c-0.5,0.3-0.7,0.7-0.7,1.3c0,0.5,0.1,0.8,0.4,1.1
				C562.5,3976,562.9,3976.1,563.4,3976.1z"/>
			<path class="st2" d="M573.9,3968.3c0.4,0,0.7,0,1,0.1l-0.2,1.2c-0.4-0.1-0.7-0.1-0.9-0.1c-0.7,0-1.3,0.3-1.8,0.8
				s-0.7,1.3-0.7,2.1v4.6H570v-8.6h1.1l0.1,1.6h0.1c0.3-0.6,0.7-1,1.1-1.3C572.9,3968.4,573.4,3968.3,573.9,3968.3z"/>
			<path class="st2" d="M576.3,3976.2c0-0.3,0.1-0.6,0.2-0.8c0.2-0.2,0.4-0.3,0.7-0.3c0.3,0,0.5,0.1,0.7,0.3
				c0.2,0.2,0.3,0.4,0.3,0.8c0,0.3-0.1,0.6-0.3,0.8s-0.4,0.3-0.7,0.3c-0.3,0-0.5-0.1-0.7-0.2
				C576.4,3976.8,576.3,3976.5,576.3,3976.2z"/>
		</g>
		<path id="path-2" class="st7" d="M642.4,3920l19.5,19.5l-19.5,19.5V3920z"/>
	</g>
</g>
</svg>
