<?xml version="1.0" encoding="utf-8"?>
<!-- Generator: Adobe Illustrator 24.2.0, SVG Export Plug-In . SVG Version: 6.00 Build 0)  -->
<svg version="1.1" id="Capa_1" xmlns="http://www.w3.org/2000/svg" xmlns:xlink="http://www.w3.org/1999/xlink" x="0px" y="0px"
	 viewBox="0 0 435 415" style="enable-background:new 0 0 435 415;" xml:space="preserve">
<style type="text/css">
	.st0{fill:none;stroke:#7CB342;stroke-width:3;}
	.st1{fill:#7CB342;}
	.st2{fill:#80CBC4;}
	.st3{enable-background:new    ;}
	.st4{fill:#002B45;}
	.st5{fill:#00223D;}
</style>
<g id="Grupo_11418" transform="translate(-349 -3163)">
	<path id="Trazado_11340" class="st0" d="M452,3566v-353.5"/>
	<path id="Trazado_13236" class="st0" d="M684,3535.5v-323"/>
	<g transform="matrix(1, 0, 0, 1, 349, 3163)">
		<path id="Rectángulo_3163-2" class="st1" d="M21,6h164c6.6,0,12,5.4,12,12v20c0,6.6-5.4,12-12,12H21c-6.6,0-12-5.4-12-12V18
			C9,11.4,14.4,6,21,6z"/>
	</g>
	<g transform="matrix(1, 0, 0, 1, 349, 3163)">
		<path id="Rectángulo_3355-2" class="st1" d="M250,6h164c6.6,0,12,5.4,12,12v20c0,6.6-5.4,12-12,12H250c-6.6,0-12-5.4-12-12V18
			C238,11.4,243.4,6,250,6z"/>
	</g>
	<g transform="matrix(1, 0, 0, 1, 349, 3163)">
		<path id="Rectángulo_3164-2" class="st2" d="M35,66h130c6.6,0,12,5.4,12,12v32c0,6.6-5.4,12-12,12H35c-6.6,0-12-5.4-12-12V78
			C23,71.4,28.4,66,35,66z"/>
	</g>
	<g transform="matrix(1, 0, 0, 1, 349, 3163)">
		<path id="Rectángulo_3356-2" class="st2" d="M267,66h130c6.6,0,12,5.4,12,12v32c0,6.6-5.4,12-12,12H267c-6.6,0-12-5.4-12-12V78
			C255,71.4,260.4,66,267,66z"/>
	</g>
	<g transform="matrix(1, 0, 0, 1, 349, 3163)">
		<path id="Rectángulo_3351-2" class="st2" d="M35,135h130c6.6,0,12,5.4,12,12v32c0,6.6-5.4,12-12,12H35c-6.6,0-12-5.4-12-12v-32
			C23,140.4,28.4,135,35,135z"/>
	</g>
	<g transform="matrix(1, 0, 0, 1, 349, 3163)">
		<path id="Rectángulo_3357-2" class="st2" d="M267,135h130c6.6,0,12,5.4,12,12v32c0,6.6-5.4,12-12,12H267c-6.6,0-12-5.4-12-12v-32
			C255,140.4,260.4,135,267,135z"/>
	</g>
	<g transform="matrix(1, 0, 0, 1, 349, 3163)">
		<path id="Rectángulo_3352-2" class="st2" d="M35,204h130c6.6,0,12,5.4,12,12v32c0,6.6-5.4,12-12,12H35c-6.6,0-12-5.4-12-12v-32
			C23,209.4,28.4,204,35,204z"/>
	</g>
	<g transform="matrix(1, 0, 0, 1, 349, 3163)">
		<path id="Rectángulo_3358-2" class="st2" d="M267,204h130c6.6,0,12,5.4,12,12v32c0,6.6-5.4,12-12,12H267c-6.6,0-12-5.4-12-12v-32
			C255,209.4,260.4,204,267,204z"/>
	</g>
	<g transform="matrix(1, 0, 0, 1, 349, 3163)">
		<path id="Rectángulo_3353-2" class="st2" d="M35,273h130c6.6,0,12,5.4,12,12v32c0,6.6-5.4,12-12,12H35c-6.6,0-12-5.4-12-12v-32
			C23,278.4,28.4,273,35,273z"/>
	</g>
	<g transform="matrix(1, 0, 0, 1, 349, 3163)">
		<path id="Rectángulo_3359-2" class="st2" d="M267,273h130c6.6,0,12,5.4,12,12v32c0,6.6-5.4,12-12,12H267c-6.6,0-12-5.4-12-12v-32
			C255,278.4,260.4,273,267,273z"/>
	</g>
	<g transform="matrix(1, 0, 0, 1, 349, 3163)">
		<path id="Rectángulo_3354-2" class="st2" d="M35,347h130c6.6,0,12,5.4,12,12v32c0,6.6-5.4,12-12,12H35c-6.6,0-12-5.4-12-12v-32
			C23,352.4,28.4,347,35,347z"/>
	</g>
	<g transform="matrix(1, 0, 0, 1, 349, 3163)">
		<path id="Rectángulo_3360-2" class="st2" d="M267,347h130c6.6,0,12,5.4,12,12v32c0,6.6-5.4,12-12,12H267c-6.6,0-12-5.4-12-12v-32
			C255,352.4,260.4,347,267,347z"/>
	</g>
	<g class="st3">
		<path class="st4" d="M414.8,3258.3h-5.9l-1.1,2.7h-3l5.6-12.6h2.9l5.6,12.6h-3.1L414.8,3258.3z M413.9,3256.1l-2-4.8l-2,4.8H413.9
			z"/>
		<path class="st4" d="M424.1,3251.5c0.6-0.2,1.2-0.4,2-0.4v2.6c-0.3,0-0.5,0-0.6,0c-0.8,0-1.4,0.2-1.9,0.7c-0.5,0.4-0.7,1.1-0.7,2
			v4.6h-2.8v-9.7h2.7v1.3C423.1,3252.1,423.6,3251.8,424.1,3251.5z"/>
		<path class="st4" d="M435.1,3252.2c0.8,0.7,1.2,1.8,1.2,3.2v5.5h-2.6v-1.2c-0.5,0.9-1.5,1.3-3,1.3c-0.7,0-1.4-0.1-1.9-0.4
			c-0.5-0.3-1-0.6-1.3-1c-0.3-0.4-0.4-0.9-0.4-1.5c0-0.9,0.3-1.6,1-2.1c0.7-0.5,1.7-0.8,3.1-0.8h2.2c0-0.6-0.2-1.1-0.6-1.4
			c-0.4-0.3-0.9-0.5-1.7-0.5c-0.5,0-1,0.1-1.5,0.2c-0.5,0.2-0.9,0.4-1.3,0.7l-1-2c0.5-0.4,1.2-0.7,1.9-0.9c0.7-0.2,1.5-0.3,2.3-0.3
			C433.1,3251.2,434.3,3251.5,435.1,3252.2z M432.7,3258.9c0.4-0.2,0.6-0.5,0.8-1v-1h-1.9c-1.2,0-1.7,0.4-1.7,1.1
			c0,0.4,0.1,0.6,0.4,0.9c0.3,0.2,0.7,0.3,1.2,0.3C431.9,3259.3,432.3,3259.1,432.7,3258.9z M432.7,3247.5h3l-3.3,2.6h-2.2
			L432.7,3247.5z"/>
		<path class="st4" d="M447.6,3252.3c0.7,0.7,1.1,1.8,1.1,3.2v5.5h-2.8v-5.1c0-0.8-0.2-1.3-0.5-1.7s-0.8-0.6-1.5-0.6
			c-0.7,0-1.3,0.2-1.7,0.7c-0.4,0.4-0.6,1.1-0.6,2v4.8h-2.8v-9.7h2.7v1.1c0.4-0.4,0.8-0.7,1.4-0.9c0.6-0.2,1.2-0.3,1.8-0.3
			C445.9,3251.2,446.9,3251.5,447.6,3252.3z"/>
		<path class="st4" d="M461.2,3247.6v13.4h-2.7v-1.1c-0.7,0.8-1.7,1.3-3,1.3c-0.9,0-1.7-0.2-2.5-0.6s-1.3-1-1.7-1.7
			c-0.4-0.8-0.6-1.6-0.6-2.6s0.2-1.9,0.6-2.6c0.4-0.8,1-1.3,1.7-1.7s1.6-0.6,2.5-0.6c1.2,0,2.2,0.4,2.9,1.2v-4.7H461.2z
			 M457.8,3258.1c0.5-0.5,0.7-1.1,0.7-2s-0.2-1.5-0.7-2c-0.5-0.5-1.1-0.7-1.8-0.7c-0.7,0-1.3,0.2-1.8,0.7c-0.5,0.5-0.7,1.1-0.7,2
			s0.2,1.5,0.7,2c0.5,0.5,1.1,0.7,1.8,0.7C456.7,3258.8,457.3,3258.6,457.8,3258.1z"/>
		<path class="st4" d="M471.2,3252.2c0.8,0.7,1.2,1.8,1.2,3.2v5.5h-2.6v-1.2c-0.5,0.9-1.5,1.3-3,1.3c-0.7,0-1.4-0.1-1.9-0.4
			c-0.5-0.3-1-0.6-1.3-1c-0.3-0.4-0.4-0.9-0.4-1.5c0-0.9,0.3-1.6,1-2.1c0.7-0.5,1.7-0.8,3.1-0.8h2.2c0-0.6-0.2-1.1-0.6-1.4
			c-0.4-0.3-0.9-0.5-1.7-0.5c-0.5,0-1,0.1-1.5,0.2c-0.5,0.2-0.9,0.4-1.3,0.7l-1-2c0.5-0.4,1.2-0.7,1.9-0.9c0.7-0.2,1.5-0.3,2.3-0.3
			C469.2,3251.2,470.4,3251.5,471.2,3252.2z M468.8,3258.9c0.4-0.2,0.6-0.5,0.8-1v-1h-1.9c-1.2,0-1.7,0.4-1.7,1.1
			c0,0.4,0.1,0.6,0.4,0.9c0.3,0.2,0.7,0.3,1.2,0.3C468,3259.3,468.4,3259.1,468.8,3258.9z"/>
		<path class="st4" d="M483.7,3252.3c0.7,0.7,1.1,1.8,1.1,3.2v5.5H482v-5.1c0-0.8-0.2-1.3-0.5-1.7s-0.8-0.6-1.5-0.6
			c-0.7,0-1.3,0.2-1.7,0.7c-0.4,0.4-0.6,1.1-0.6,2v4.8h-2.8v-9.7h2.7v1.1c0.4-0.4,0.8-0.7,1.4-0.9c0.6-0.2,1.2-0.3,1.8-0.3
			C482,3251.2,483,3251.5,483.7,3252.3z"/>
		<path class="st4" d="M489.3,3260.5c-0.8-0.4-1.4-1-1.9-1.8c-0.5-0.8-0.7-1.6-0.7-2.6s0.2-1.8,0.7-2.6s1.1-1.3,1.9-1.8
			c0.8-0.4,1.7-0.6,2.7-0.6s1.9,0.2,2.7,0.6c0.8,0.4,1.4,1,1.9,1.8s0.7,1.6,0.7,2.6s-0.2,1.8-0.7,2.6c-0.5,0.8-1.1,1.3-1.9,1.8
			c-0.8,0.4-1.7,0.6-2.7,0.6S490.1,3260.9,489.3,3260.5z M493.9,3258.1c0.5-0.5,0.7-1.1,0.7-2s-0.2-1.5-0.7-2s-1.1-0.7-1.8-0.7
			c-0.7,0-1.3,0.2-1.8,0.7c-0.5,0.5-0.7,1.1-0.7,2s0.2,1.5,0.7,2c0.5,0.5,1.1,0.7,1.8,0.7C492.8,3258.8,493.4,3258.6,493.9,3258.1z"
			/>
	</g>
	<g class="st3">
		<path class="st4" d="M651,3260.4c-1-0.6-1.9-1.3-2.4-2.3c-0.6-1-0.9-2.1-0.9-3.4s0.3-2.4,0.9-3.4c0.6-1,1.4-1.8,2.4-2.3
			c1-0.6,2.2-0.8,3.5-0.8c1.1,0,2.1,0.2,3,0.6c0.9,0.4,1.6,0.9,2.2,1.7l-1.9,1.7c-0.9-1-1.9-1.5-3.2-1.5c-0.8,0-1.5,0.2-2.1,0.5
			c-0.6,0.3-1.1,0.8-1.4,1.4c-0.3,0.6-0.5,1.3-0.5,2.1s0.2,1.5,0.5,2.1s0.8,1.1,1.4,1.4c0.6,0.3,1.3,0.5,2.1,0.5
			c1.3,0,2.3-0.5,3.2-1.5l1.9,1.7c-0.6,0.7-1.3,1.3-2.2,1.7c-0.9,0.4-1.9,0.6-3,0.6C653.2,3261.2,652.1,3260.9,651,3260.4z"/>
		<path class="st4" d="M670.6,3257h-7.3c0.1,0.6,0.4,1.1,0.9,1.4s1.1,0.5,1.8,0.5c0.5,0,1-0.1,1.3-0.2c0.4-0.1,0.8-0.4,1.1-0.7
			l1.5,1.6c-0.9,1-2.2,1.6-4,1.6c-1.1,0-2.1-0.2-2.9-0.6c-0.8-0.4-1.5-1-1.9-1.8c-0.5-0.8-0.7-1.6-0.7-2.6c0-0.9,0.2-1.8,0.7-2.6
			c0.5-0.8,1.1-1.4,1.9-1.8c0.8-0.4,1.7-0.6,2.6-0.6c0.9,0,1.8,0.2,2.6,0.6c0.8,0.4,1.4,1,1.8,1.8s0.7,1.6,0.7,2.7
			C670.6,3256.2,670.6,3256.5,670.6,3257z M664,3253.8c-0.4,0.4-0.7,0.9-0.8,1.5h4.8c-0.1-0.6-0.4-1.1-0.8-1.5
			c-0.4-0.4-1-0.5-1.6-0.5C665,3253.3,664.4,3253.5,664,3253.8z"/>
		<path class="st4" d="M676.5,3251.5c0.6-0.2,1.2-0.4,2-0.4v2.6c-0.3,0-0.5,0-0.6,0c-0.8,0-1.4,0.2-1.9,0.7c-0.5,0.4-0.7,1.1-0.7,2
			v4.6h-2.8v-9.7h2.7v1.3C675.5,3252.1,676,3251.8,676.5,3251.5z"/>
		<path class="st4" d="M689.5,3257h-7.3c0.1,0.6,0.4,1.1,0.9,1.4s1.1,0.5,1.8,0.5c0.5,0,1-0.1,1.3-0.2c0.4-0.1,0.8-0.4,1.1-0.7
			l1.5,1.6c-0.9,1-2.2,1.6-4,1.6c-1.1,0-2.1-0.2-2.9-0.6s-1.5-1-1.9-1.8c-0.5-0.8-0.7-1.6-0.7-2.6c0-0.9,0.2-1.8,0.7-2.6
			c0.5-0.8,1.1-1.4,1.9-1.8c0.8-0.4,1.7-0.6,2.6-0.6c0.9,0,1.8,0.2,2.6,0.6s1.4,1,1.8,1.8c0.4,0.8,0.7,1.6,0.7,2.7
			C689.6,3256.2,689.6,3256.5,689.5,3257z M683,3253.8c-0.4,0.4-0.7,0.9-0.8,1.5h4.8c-0.1-0.6-0.4-1.1-0.8-1.5
			c-0.4-0.4-1-0.5-1.6-0.5C683.9,3253.3,683.4,3253.5,683,3253.8z"/>
		<path class="st4" d="M699.3,3258.8v2.2h-8.6v-1.7l4.9-5.8h-4.8v-2.2h8.4v1.7l-4.9,5.8H699.3z"/>
		<path class="st4" d="M708.5,3252.2c0.8,0.7,1.2,1.8,1.2,3.2v5.5h-2.6v-1.2c-0.5,0.9-1.5,1.3-3,1.3c-0.7,0-1.4-0.1-1.9-0.4
			c-0.5-0.3-1-0.6-1.3-1c-0.3-0.4-0.4-0.9-0.4-1.5c0-0.9,0.3-1.6,1-2.1c0.7-0.5,1.7-0.8,3.1-0.8h2.2c0-0.6-0.2-1.1-0.6-1.4
			c-0.4-0.3-0.9-0.5-1.7-0.5c-0.5,0-1,0.1-1.5,0.2c-0.5,0.2-0.9,0.4-1.3,0.7l-1-2c0.5-0.4,1.2-0.7,1.9-0.9c0.7-0.2,1.5-0.3,2.3-0.3
			C706.6,3251.2,707.7,3251.5,708.5,3252.2z M706.1,3258.9c0.4-0.2,0.6-0.5,0.8-1v-1H705c-1.2,0-1.7,0.4-1.7,1.1
			c0,0.4,0.1,0.6,0.4,0.9c0.3,0.2,0.7,0.3,1.2,0.3C705.3,3259.3,705.7,3259.1,706.1,3258.9z"/>
	</g>
	<g class="st3">
		<path class="st4" d="M404.4,3319.7v3.3h5.8v2.3h-5.8v4.6h-2.9v-12.6h9.5v2.3H404.4z"/>
		<path class="st4" d="M416.7,3320.5c0.6-0.2,1.2-0.4,2-0.4v2.6c-0.3,0-0.5,0-0.6,0c-0.8,0-1.4,0.2-1.9,0.7c-0.5,0.4-0.7,1.1-0.7,2
			v4.6h-2.8v-9.7h2.7v1.3C415.6,3321.1,416.1,3320.8,416.7,3320.5z"/>
		<path class="st4" d="M427.6,3321.2c0.8,0.7,1.2,1.8,1.2,3.2v5.5h-2.6v-1.2c-0.5,0.9-1.5,1.3-3,1.3c-0.7,0-1.4-0.1-1.9-0.4
			c-0.5-0.3-1-0.6-1.3-1c-0.3-0.4-0.4-0.9-0.4-1.5c0-0.9,0.3-1.6,1-2.1c0.7-0.5,1.7-0.8,3.1-0.8h2.2c0-0.6-0.2-1.1-0.6-1.4
			c-0.4-0.3-0.9-0.5-1.7-0.5c-0.5,0-1,0.1-1.5,0.2c-0.5,0.2-0.9,0.4-1.3,0.7l-1-2c0.5-0.4,1.2-0.7,1.9-0.9c0.7-0.2,1.5-0.3,2.3-0.3
			C425.7,3320.2,426.8,3320.5,427.6,3321.2z M425.2,3327.9c0.4-0.2,0.6-0.5,0.8-1v-1h-1.9c-1.2,0-1.7,0.4-1.7,1.1
			c0,0.4,0.1,0.6,0.4,0.9c0.3,0.2,0.7,0.3,1.2,0.3C424.4,3328.3,424.8,3328.1,425.2,3327.9z"/>
		<path class="st4" d="M446.6,3321.2c0.7,0.7,1.1,1.8,1.1,3.2v5.5h-2.8v-5.1c0-0.8-0.2-1.3-0.5-1.7c-0.3-0.4-0.8-0.6-1.4-0.6
			c-0.7,0-1.2,0.2-1.6,0.6c-0.4,0.4-0.6,1.1-0.6,1.9v4.9h-2.8v-5.1c0-1.5-0.6-2.3-1.8-2.3c-0.6,0-1.2,0.2-1.5,0.6
			c-0.4,0.4-0.6,1.1-0.6,1.9v4.9h-2.8v-9.7h2.7v1.1c0.4-0.4,0.8-0.7,1.3-0.9c0.5-0.2,1.1-0.3,1.7-0.3c0.7,0,1.3,0.1,1.9,0.4
			c0.6,0.3,1,0.7,1.3,1.2c0.4-0.5,0.9-0.9,1.5-1.2c0.6-0.3,1.3-0.4,2-0.4C445,3320.2,445.9,3320.5,446.6,3321.2z"/>
		<path class="st4" d="M458.4,3320.8c0.7,0.4,1.3,1,1.7,1.7s0.6,1.6,0.6,2.6s-0.2,1.9-0.6,2.6s-1,1.3-1.7,1.7
			c-0.7,0.4-1.6,0.6-2.5,0.6c-1.3,0-2.3-0.4-3-1.3v1.1h-2.7v-13.4h2.8v4.7c0.7-0.8,1.7-1.2,2.9-1.2
			C456.9,3320.2,457.7,3320.4,458.4,3320.8z M457.2,3327.1c0.5-0.5,0.7-1.1,0.7-2s-0.2-1.5-0.7-2c-0.5-0.5-1.1-0.7-1.8-0.7
			c-0.7,0-1.3,0.2-1.8,0.7c-0.5,0.5-0.7,1.1-0.7,2s0.2,1.5,0.7,2c0.5,0.5,1.1,0.7,1.8,0.7C456.2,3327.8,456.8,3327.6,457.2,3327.1z"
			/>
		<path class="st4" d="M472.4,3320.3v9.7h-2.7v-1.2c-0.4,0.4-0.8,0.7-1.3,1c-0.5,0.2-1.1,0.3-1.7,0.3c-1.3,0-2.3-0.4-3-1.1
			c-0.7-0.7-1.1-1.8-1.1-3.3v-5.5h2.8v5.1c0,1.6,0.7,2.3,2,2.3c0.7,0,1.2-0.2,1.6-0.7c0.4-0.4,0.6-1.1,0.6-2v-4.8H472.4z"/>
		<path class="st4" d="M484.5,3326h-7.3c0.1,0.6,0.4,1.1,0.9,1.4s1.1,0.5,1.8,0.5c0.5,0,1-0.1,1.3-0.2c0.4-0.1,0.8-0.4,1.1-0.7
			l1.5,1.6c-0.9,1-2.2,1.6-4,1.6c-1.1,0-2.1-0.2-2.9-0.6c-0.8-0.4-1.5-1-1.9-1.8c-0.5-0.8-0.7-1.6-0.7-2.6c0-0.9,0.2-1.8,0.7-2.6
			c0.5-0.8,1.1-1.4,1.9-1.8c0.8-0.4,1.7-0.6,2.6-0.6c0.9,0,1.8,0.2,2.6,0.6s1.4,1,1.8,1.8s0.7,1.6,0.7,2.7
			C484.5,3325.2,484.5,3325.5,484.5,3326z M477.9,3322.8c-0.4,0.4-0.7,0.9-0.8,1.5h4.8c-0.1-0.6-0.4-1.1-0.8-1.5
			c-0.4-0.4-1-0.5-1.6-0.5C478.9,3322.3,478.3,3322.5,477.9,3322.8z"/>
		<path class="st4" d="M487.3,3329.8c-0.8-0.2-1.4-0.4-1.8-0.7l0.9-2c0.4,0.3,1,0.5,1.6,0.7c0.6,0.2,1.2,0.3,1.8,0.3
			c1.2,0,1.8-0.3,1.8-0.9c0-0.3-0.2-0.5-0.5-0.6s-0.8-0.2-1.5-0.3c-0.8-0.1-1.4-0.3-2-0.4c-0.5-0.2-1-0.4-1.3-0.8
			c-0.4-0.4-0.6-1-0.6-1.7c0-0.6,0.2-1.2,0.5-1.6c0.4-0.5,0.9-0.8,1.5-1.1c0.7-0.3,1.5-0.4,2.4-0.4c0.7,0,1.4,0.1,2,0.2
			c0.7,0.1,1.2,0.4,1.7,0.6l-0.9,2c-0.9-0.5-1.8-0.7-2.8-0.7c-0.6,0-1.1,0.1-1.4,0.3c-0.3,0.2-0.5,0.4-0.5,0.6
			c0,0.3,0.2,0.5,0.5,0.6c0.3,0.1,0.8,0.2,1.5,0.3c0.8,0.1,1.4,0.3,1.9,0.4c0.5,0.2,0.9,0.4,1.3,0.8c0.4,0.4,0.6,0.9,0.6,1.7
			c0,0.6-0.2,1.1-0.5,1.6s-0.9,0.8-1.6,1.1c-0.7,0.3-1.5,0.4-2.5,0.4C488.8,3330.1,488,3330,487.3,3329.8z"/>
		<path class="st4" d="M503.3,3321.2c0.8,0.7,1.2,1.8,1.2,3.2v5.5h-2.6v-1.2c-0.5,0.9-1.5,1.3-3,1.3c-0.7,0-1.4-0.1-1.9-0.4
			c-0.5-0.3-1-0.6-1.3-1c-0.3-0.4-0.4-0.9-0.4-1.5c0-0.9,0.3-1.6,1-2.1c0.7-0.5,1.7-0.8,3.1-0.8h2.2c0-0.6-0.2-1.1-0.6-1.4
			c-0.4-0.3-0.9-0.5-1.7-0.5c-0.5,0-1,0.1-1.5,0.2c-0.5,0.2-0.9,0.4-1.3,0.7l-1-2c0.5-0.4,1.2-0.7,1.9-0.9c0.7-0.2,1.5-0.3,2.3-0.3
			C501.3,3320.2,502.5,3320.5,503.3,3321.2z M500.9,3327.9c0.4-0.2,0.6-0.5,0.8-1v-1h-1.9c-1.2,0-1.7,0.4-1.7,1.1
			c0,0.4,0.1,0.6,0.4,0.9c0.3,0.2,0.7,0.3,1.2,0.3C500.1,3328.3,500.5,3328.1,500.9,3327.9z"/>
	</g>
	<g class="st3">
		<path class="st4" d="M652,3329.4c-1-0.6-1.9-1.3-2.4-2.3c-0.6-1-0.9-2.1-0.9-3.4s0.3-2.4,0.9-3.4c0.6-1,1.4-1.8,2.4-2.3
			c1-0.6,2.2-0.8,3.5-0.8c1.1,0,2.1,0.2,3,0.6c0.9,0.4,1.6,0.9,2.2,1.7l-1.9,1.7c-0.9-1-1.9-1.5-3.2-1.5c-0.8,0-1.5,0.2-2.1,0.5
			c-0.6,0.3-1.1,0.8-1.4,1.4c-0.3,0.6-0.5,1.3-0.5,2.1s0.2,1.5,0.5,2.1s0.8,1.1,1.4,1.4c0.6,0.3,1.3,0.5,2.1,0.5
			c1.3,0,2.3-0.5,3.2-1.5l1.9,1.7c-0.6,0.7-1.3,1.3-2.2,1.7c-0.9,0.4-1.9,0.6-3,0.6C654.2,3330.2,653.1,3329.9,652,3329.4z"/>
		<path class="st4" d="M662.6,3318.5c-0.3-0.3-0.5-0.7-0.5-1.1c0-0.4,0.2-0.8,0.5-1.1c0.3-0.3,0.7-0.5,1.3-0.5
			c0.5,0,0.9,0.1,1.3,0.4s0.5,0.6,0.5,1.1c0,0.5-0.2,0.9-0.5,1.2c-0.3,0.3-0.7,0.5-1.3,0.5C663.4,3319,663,3318.8,662.6,3318.5z
			 M662.5,3320.3h2.8v9.7h-2.8V3320.3z"/>
		<path class="st4" d="M671.9,3320.5c0.6-0.2,1.2-0.4,2-0.4v2.6c-0.3,0-0.5,0-0.6,0c-0.8,0-1.4,0.2-1.9,0.7c-0.5,0.4-0.7,1.1-0.7,2
			v4.6h-2.8v-9.7h2.7v1.3C670.9,3321.1,671.4,3320.8,671.9,3320.5z"/>
		<path class="st4" d="M685.4,3320.3v9.7h-2.7v-1.2c-0.4,0.4-0.8,0.7-1.3,1c-0.5,0.2-1.1,0.3-1.7,0.3c-1.3,0-2.3-0.4-3-1.1
			c-0.7-0.7-1.1-1.8-1.1-3.3v-5.5h2.8v5.1c0,1.6,0.7,2.3,2,2.3c0.7,0,1.2-0.2,1.6-0.7c0.4-0.4,0.6-1.1,0.6-2v-4.8H685.4z"/>
		<path class="st4" d="M697.5,3326h-7.3c0.1,0.6,0.4,1.1,0.9,1.4s1.1,0.5,1.8,0.5c0.5,0,1-0.1,1.3-0.2c0.4-0.1,0.8-0.4,1.1-0.7
			l1.5,1.6c-0.9,1-2.2,1.6-4,1.6c-1.1,0-2.1-0.2-2.9-0.6s-1.5-1-1.9-1.8c-0.5-0.8-0.7-1.6-0.7-2.6c0-0.9,0.2-1.8,0.7-2.6
			c0.5-0.8,1.1-1.4,1.9-1.8c0.8-0.4,1.7-0.6,2.6-0.6c0.9,0,1.8,0.2,2.6,0.6c0.8,0.4,1.4,1,1.8,1.8s0.7,1.6,0.7,2.7
			C697.5,3325.2,697.5,3325.5,697.5,3326z M690.9,3322.8c-0.4,0.4-0.7,0.9-0.8,1.5h4.8c-0.1-0.6-0.4-1.1-0.8-1.5
			c-0.4-0.4-1-0.5-1.6-0.5C691.9,3322.3,691.3,3322.5,690.9,3322.8z"/>
		<path class="st4" d="M699.4,3316.6h2.8v13.4h-2.8V3316.6z"/>
		<path class="st4" d="M712.2,3321.2c0.8,0.7,1.2,1.8,1.2,3.2v5.5h-2.6v-1.2c-0.5,0.9-1.5,1.3-3,1.3c-0.7,0-1.4-0.1-1.9-0.4
			s-1-0.6-1.3-1c-0.3-0.4-0.4-0.9-0.4-1.5c0-0.9,0.3-1.6,1-2.1c0.7-0.5,1.7-0.8,3.1-0.8h2.2c0-0.6-0.2-1.1-0.6-1.4
			c-0.4-0.3-0.9-0.5-1.7-0.5c-0.5,0-1,0.1-1.5,0.2c-0.5,0.2-0.9,0.4-1.3,0.7l-1-2c0.5-0.4,1.2-0.7,1.9-0.9c0.7-0.2,1.5-0.3,2.3-0.3
			C710.2,3320.2,711.4,3320.5,712.2,3321.2z M709.8,3327.9c0.4-0.2,0.6-0.5,0.8-1v-1h-1.9c-1.2,0-1.7,0.4-1.7,1.1
			c0,0.4,0.1,0.6,0.4,0.9c0.3,0.2,0.7,0.3,1.2,0.3C709,3328.3,709.4,3328.1,709.8,3327.9z"/>
	</g>
	<g class="st3">
		<path class="st4" d="M433.1,3394l-1.7,1.8v3.2h-2.9v-12.6h2.9v5.9l5.6-5.9h3.2l-5.2,5.6l5.5,7h-3.4L433.1,3394z"/>
		<path class="st4" d="M441.6,3387.5c-0.3-0.3-0.5-0.7-0.5-1.1c0-0.4,0.2-0.8,0.5-1.1c0.3-0.3,0.7-0.5,1.3-0.5
			c0.5,0,0.9,0.1,1.3,0.4c0.3,0.3,0.5,0.6,0.5,1.1c0,0.5-0.2,0.9-0.5,1.2c-0.3,0.3-0.7,0.5-1.3,0.5
			C442.3,3388,441.9,3387.8,441.6,3387.5z M441.4,3389.3h2.8v9.7h-2.8V3389.3z"/>
		<path class="st4" d="M462.4,3389.3l-3.5,9.7h-2.7l-2.2-6l-2.3,6h-2.7l-3.5-9.7h2.6l2.3,6.6l2.4-6.6h2.4l2.3,6.6l2.4-6.6H462.4z"/>
		<path class="st4" d="M463.9,3387.5c-0.3-0.3-0.5-0.7-0.5-1.1c0-0.4,0.2-0.8,0.5-1.1c0.3-0.3,0.7-0.5,1.3-0.5
			c0.5,0,0.9,0.1,1.3,0.4c0.3,0.3,0.5,0.6,0.5,1.1c0,0.5-0.2,0.9-0.5,1.2c-0.3,0.3-0.7,0.5-1.3,0.5
			C464.6,3388,464.2,3387.8,463.9,3387.5z M463.7,3389.3h2.8v9.7h-2.8V3389.3z"/>
	</g>
	<g class="st3">
		<path class="st4" d="M641.5,3386.4h5.7c1.4,0,2.6,0.3,3.6,0.8c1,0.5,1.9,1.3,2.4,2.2c0.6,0.9,0.9,2.1,0.9,3.3s-0.3,2.4-0.9,3.3
			c-0.6,0.9-1.4,1.7-2.4,2.2c-1.1,0.5-2.3,0.8-3.6,0.8h-5.7V3386.4z M647.1,3396.6c1.3,0,2.3-0.4,3-1.1s1.1-1.7,1.1-2.9
			s-0.4-2.2-1.1-2.9s-1.8-1.1-3-1.1h-2.7v7.8H647.1z"/>
		<path class="st4" d="M665.9,3389.3v9.7h-2.7v-1.2c-0.4,0.4-0.8,0.7-1.3,1c-0.5,0.2-1.1,0.3-1.7,0.3c-1.3,0-2.3-0.4-3-1.1
			c-0.7-0.7-1.1-1.8-1.1-3.3v-5.5h2.8v5.1c0,1.6,0.7,2.3,2,2.3c0.7,0,1.2-0.2,1.6-0.7c0.4-0.4,0.6-1.1,0.6-2v-4.8H665.9z"/>
		<path class="st4" d="M672.6,3389.5c0.6-0.2,1.2-0.4,2-0.4v2.6c-0.3,0-0.5,0-0.6,0c-0.8,0-1.4,0.2-1.9,0.7c-0.5,0.4-0.7,1.1-0.7,2
			v4.6h-2.8v-9.7h2.7v1.3C671.5,3390.1,672,3389.8,672.6,3389.5z"/>
		<path class="st4" d="M683.5,3390.2c0.8,0.7,1.2,1.8,1.2,3.2v5.5h-2.6v-1.2c-0.5,0.9-1.5,1.3-3,1.3c-0.7,0-1.4-0.1-1.9-0.4
			c-0.5-0.3-1-0.6-1.3-1c-0.3-0.4-0.4-0.9-0.4-1.5c0-0.9,0.3-1.6,1-2.1c0.7-0.5,1.7-0.8,3.1-0.8h2.2c0-0.6-0.2-1.1-0.6-1.4
			c-0.4-0.3-0.9-0.5-1.7-0.5c-0.5,0-1,0.1-1.5,0.2c-0.5,0.2-0.9,0.4-1.3,0.7l-1-2c0.5-0.4,1.2-0.7,1.9-0.9c0.7-0.2,1.5-0.3,2.3-0.3
			C681.6,3389.2,682.7,3389.5,683.5,3390.2z M681.1,3396.9c0.4-0.2,0.6-0.5,0.8-1v-1H680c-1.2,0-1.7,0.4-1.7,1.1
			c0,0.4,0.1,0.6,0.4,0.9c0.3,0.2,0.7,0.3,1.2,0.3C680.3,3397.3,680.8,3397.1,681.1,3396.9z"/>
		<path class="st4" d="M695.2,3396.8v2.2h-8.6v-1.7l4.9-5.8h-4.8v-2.2h8.4v1.7l-4.9,5.8H695.2z"/>
		<path class="st4" d="M705.8,3390.3c0.7,0.7,1.1,1.8,1.1,3.2v5.5h-2.8v-5.1c0-0.8-0.2-1.3-0.5-1.7s-0.8-0.6-1.5-0.6
			c-0.7,0-1.3,0.2-1.7,0.7c-0.4,0.4-0.6,1.1-0.6,2v4.8H697v-9.7h2.7v1.1c0.4-0.4,0.8-0.7,1.4-0.9c0.6-0.2,1.2-0.3,1.8-0.3
			C704.1,3389.2,705.1,3389.5,705.8,3390.3z"/>
		<path class="st4" d="M711.5,3398.5c-0.8-0.4-1.4-1-1.9-1.8c-0.5-0.8-0.7-1.6-0.7-2.6s0.2-1.8,0.7-2.6c0.5-0.8,1.1-1.3,1.9-1.8
			c0.8-0.4,1.7-0.6,2.7-0.6s1.9,0.2,2.7,0.6c0.8,0.4,1.4,1,1.9,1.8s0.7,1.6,0.7,2.6s-0.2,1.8-0.7,2.6c-0.5,0.8-1.1,1.3-1.9,1.8
			c-0.8,0.4-1.7,0.6-2.7,0.6S712.3,3398.9,711.5,3398.5z M716,3396.1c0.5-0.5,0.7-1.1,0.7-2s-0.2-1.5-0.7-2
			c-0.5-0.5-1.1-0.7-1.8-0.7c-0.7,0-1.3,0.2-1.8,0.7c-0.5,0.5-0.7,1.1-0.7,2s0.2,1.5,0.7,2c0.5,0.5,1.1,0.7,1.8,0.7
			C714.9,3396.8,715.5,3396.6,716,3396.1z"/>
	</g>
	<g class="st3">
		<path class="st4" d="M392,3458l0-6.7l-3.3,5.5h-1.2l-3.3-5.4v6.6h-2.4v-11.2h2.1l4.2,7l4.1-7h2.1l0,11.2H392z"/>
		<path class="st4" d="M398.6,3457.6c-0.7-0.4-1.3-0.9-1.7-1.6c-0.4-0.7-0.6-1.4-0.6-2.3s0.2-1.6,0.6-2.3c0.4-0.7,1-1.2,1.7-1.6
			c0.7-0.4,1.5-0.6,2.4-0.6c0.9,0,1.7,0.2,2.4,0.6c0.7,0.4,1.3,0.9,1.7,1.6s0.6,1.4,0.6,2.3s-0.2,1.6-0.6,2.3
			c-0.4,0.7-1,1.2-1.7,1.6c-0.7,0.4-1.5,0.6-2.4,0.6C400.1,3458.1,399.3,3457.9,398.6,3457.6z M402.6,3455.4c0.4-0.4,0.6-1,0.6-1.7
			s-0.2-1.3-0.6-1.7c-0.4-0.4-0.9-0.6-1.6-0.6s-1.2,0.2-1.6,0.6s-0.6,1-0.6,1.7s0.2,1.3,0.6,1.7c0.4,0.4,0.9,0.6,1.6,0.6
			S402.2,3455.9,402.6,3455.4z"/>
		<path class="st4" d="M411,3449.6c0.5-0.2,1.1-0.3,1.8-0.3v2.3c-0.3,0-0.5,0-0.6,0c-0.7,0-1.3,0.2-1.7,0.6c-0.4,0.4-0.6,1-0.6,1.8
			v4.1h-2.5v-8.6h2.4v1.1C410.1,3450.1,410.5,3449.8,411,3449.6z"/>
		<path class="st4" d="M420.7,3450.2c0.7,0.6,1.1,1.6,1.1,2.9v4.9h-2.3v-1.1c-0.5,0.8-1.3,1.2-2.6,1.2c-0.7,0-1.2-0.1-1.7-0.3
			s-0.9-0.5-1.1-0.9s-0.4-0.8-0.4-1.3c0-0.8,0.3-1.4,0.9-1.9c0.6-0.5,1.5-0.7,2.8-0.7h2c0-0.5-0.2-1-0.5-1.3
			c-0.3-0.3-0.8-0.4-1.5-0.4c-0.5,0-0.9,0.1-1.4,0.2c-0.4,0.1-0.8,0.3-1.1,0.6l-0.9-1.7c0.5-0.3,1-0.6,1.7-0.8
			c0.7-0.2,1.3-0.3,2-0.3C419,3449.3,420,3449.6,420.7,3450.2z M418.6,3456.2c0.3-0.2,0.6-0.5,0.7-0.9v-0.9h-1.7c-1,0-1.5,0.3-1.5,1
			c0,0.3,0.1,0.6,0.4,0.8s0.6,0.3,1,0.3C417.9,3456.4,418.3,3456.3,418.6,3456.2z"/>
		<path class="st4" d="M437.3,3446.1v11.9H435v-1c-0.6,0.7-1.5,1.1-2.7,1.1c-0.8,0-1.5-0.2-2.2-0.5c-0.7-0.4-1.2-0.9-1.5-1.6
			c-0.4-0.7-0.6-1.5-0.6-2.3c0-0.9,0.2-1.7,0.6-2.3c0.4-0.7,0.9-1.2,1.5-1.6c0.7-0.4,1.4-0.5,2.2-0.5c1.1,0,2,0.3,2.6,1v-4.2H437.3z
			 M434.3,3455.4c0.4-0.4,0.6-1,0.6-1.7s-0.2-1.3-0.6-1.7s-0.9-0.6-1.6-0.6c-0.6,0-1.2,0.2-1.6,0.6s-0.6,1-0.6,1.7s0.2,1.3,0.6,1.7
			c0.4,0.4,0.9,0.6,1.6,0.6C433.3,3456.1,433.9,3455.9,434.3,3455.4z"/>
		<path class="st4" d="M448,3454.4h-6.5c0.1,0.5,0.4,1,0.8,1.3s1,0.5,1.6,0.5c0.4,0,0.8-0.1,1.2-0.2c0.3-0.1,0.7-0.3,1-0.6l1.3,1.4
			c-0.8,0.9-2,1.4-3.6,1.4c-1,0-1.8-0.2-2.6-0.6c-0.7-0.4-1.3-0.9-1.7-1.6c-0.4-0.7-0.6-1.4-0.6-2.3c0-0.8,0.2-1.6,0.6-2.3
			c0.4-0.7,0.9-1.2,1.6-1.6s1.5-0.6,2.3-0.6c0.8,0,1.6,0.2,2.3,0.5c0.7,0.4,1.2,0.9,1.6,1.6c0.4,0.7,0.6,1.5,0.6,2.4
			C448.1,3453.8,448.1,3454,448,3454.4z M442.2,3451.6c-0.4,0.3-0.6,0.8-0.7,1.3h4.2c-0.1-0.5-0.3-1-0.7-1.3
			c-0.4-0.3-0.9-0.5-1.4-0.5C443.1,3451.2,442.6,3451.3,442.2,3451.6z"/>
		<path class="st4" d="M460.8,3450.2c0.7,0.6,1.1,1.6,1.1,2.9v4.9h-2.3v-1.1c-0.5,0.8-1.3,1.2-2.6,1.2c-0.7,0-1.2-0.1-1.7-0.3
			s-0.9-0.5-1.1-0.9s-0.4-0.8-0.4-1.3c0-0.8,0.3-1.4,0.9-1.9c0.6-0.5,1.5-0.7,2.8-0.7h2c0-0.5-0.2-1-0.5-1.3
			c-0.3-0.3-0.8-0.4-1.5-0.4c-0.5,0-0.9,0.1-1.4,0.2c-0.4,0.1-0.8,0.3-1.1,0.6l-0.9-1.7c0.5-0.3,1-0.6,1.7-0.8
			c0.7-0.2,1.3-0.3,2-0.3C459.1,3449.3,460.1,3449.6,460.8,3450.2z M458.7,3456.2c0.3-0.2,0.6-0.5,0.7-0.9v-0.9h-1.7
			c-1,0-1.5,0.3-1.5,1c0,0.3,0.1,0.6,0.4,0.8s0.6,0.3,1,0.3C458,3456.4,458.4,3456.3,458.7,3456.2z"/>
		<path class="st4" d="M467.7,3449.6c0.5-0.2,1.1-0.3,1.8-0.3v2.3c-0.3,0-0.5,0-0.6,0c-0.7,0-1.3,0.2-1.7,0.6
			c-0.4,0.4-0.6,1-0.6,1.8v4.1h-2.5v-8.6h2.4v1.1C466.8,3450.1,467.2,3449.8,467.7,3449.6z"/>
		<path class="st4" d="M478.2,3449.8c0.7,0.4,1.2,0.9,1.5,1.6c0.4,0.7,0.6,1.4,0.6,2.3c0,0.9-0.2,1.7-0.6,2.3
			c-0.4,0.7-0.9,1.2-1.5,1.6c-0.7,0.4-1.4,0.6-2.2,0.6c-1.2,0-2.1-0.4-2.7-1.1v1H471v-11.9h2.5v4.2c0.6-0.7,1.5-1,2.6-1
			C476.9,3449.3,477.6,3449.4,478.2,3449.8z M477.2,3455.4c0.4-0.4,0.6-1,0.6-1.7s-0.2-1.3-0.6-1.7s-0.9-0.6-1.6-0.6
			s-1.2,0.2-1.6,0.6s-0.6,1-0.6,1.7s0.2,1.3,0.6,1.7c0.4,0.4,0.9,0.6,1.6,0.6S476.8,3455.9,477.2,3455.4z"/>
		<path class="st4" d="M490.7,3449.4v8.6h-2.4v-1c-0.3,0.4-0.7,0.7-1.2,0.9s-1,0.3-1.5,0.3c-1.1,0-2-0.3-2.7-1c-0.7-0.7-1-1.6-1-2.9
			v-4.9h2.5v4.5c0,1.4,0.6,2.1,1.7,2.1c0.6,0,1.1-0.2,1.4-0.6c0.4-0.4,0.5-1,0.5-1.7v-4.3H490.7z"/>
		<path class="st4" d="M493.8,3457.9c-0.7-0.2-1.2-0.4-1.6-0.7l0.8-1.8c0.4,0.2,0.8,0.4,1.4,0.6c0.5,0.2,1.1,0.2,1.6,0.2
			c1.1,0,1.6-0.3,1.6-0.8c0-0.2-0.1-0.4-0.4-0.5c-0.3-0.1-0.7-0.2-1.3-0.3c-0.7-0.1-1.3-0.2-1.7-0.4c-0.5-0.1-0.9-0.4-1.2-0.7
			c-0.3-0.4-0.5-0.9-0.5-1.5c0-0.5,0.2-1,0.5-1.4c0.3-0.4,0.8-0.7,1.4-1s1.3-0.4,2.1-0.4c0.6,0,1.2,0.1,1.8,0.2
			c0.6,0.1,1.1,0.3,1.5,0.6l-0.8,1.8c-0.8-0.4-1.6-0.6-2.5-0.6c-0.5,0-0.9,0.1-1.2,0.2s-0.4,0.3-0.4,0.6c0,0.3,0.1,0.5,0.4,0.6
			c0.3,0.1,0.7,0.2,1.4,0.3c0.7,0.1,1.3,0.2,1.7,0.4c0.4,0.1,0.8,0.4,1.2,0.7c0.3,0.4,0.5,0.8,0.5,1.5c0,0.5-0.2,1-0.5,1.4
			c-0.3,0.4-0.8,0.7-1.4,1s-1.3,0.3-2.2,0.3C495.2,3458.1,494.5,3458,493.8,3457.9z"/>
		<path class="st4" d="M507.1,3457.6c-0.2,0.2-0.5,0.3-0.9,0.4c-0.4,0.1-0.7,0.1-1.1,0.1c-1,0-1.8-0.3-2.4-0.8
			c-0.6-0.5-0.8-1.3-0.8-2.3v-3.5h-1.3v-1.9h1.3v-2.1h2.5v2.1h2.1v1.9h-2.1v3.5c0,0.4,0.1,0.6,0.3,0.8c0.2,0.2,0.5,0.3,0.8,0.3
			c0.4,0,0.7-0.1,1-0.3L507.1,3457.6z"/>
		<path class="st4" d="M509.8,3457.6c-0.7-0.4-1.3-0.9-1.7-1.6c-0.4-0.7-0.6-1.4-0.6-2.3s0.2-1.6,0.6-2.3c0.4-0.7,1-1.2,1.7-1.6
			c0.7-0.4,1.5-0.6,2.4-0.6c0.9,0,1.7,0.2,2.4,0.6c0.7,0.4,1.3,0.9,1.7,1.6s0.6,1.4,0.6,2.3s-0.2,1.6-0.6,2.3
			c-0.4,0.7-1,1.2-1.7,1.6c-0.7,0.4-1.5,0.6-2.4,0.6C511.4,3458.1,510.6,3457.9,509.8,3457.6z M513.9,3455.4c0.4-0.4,0.6-1,0.6-1.7
			s-0.2-1.3-0.6-1.7c-0.4-0.4-0.9-0.6-1.6-0.6s-1.2,0.2-1.6,0.6s-0.6,1-0.6,1.7s0.2,1.3,0.6,1.7c0.4,0.4,0.9,0.6,1.6,0.6
			S513.5,3455.9,513.9,3455.4z"/>
	</g>
	<g class="st3">
		<path class="st4" d="M399.7,3476.7c-0.3-1.3-0.5-2.7-0.5-4.1c0-1.5,0.2-2.8,0.5-4.1s0.8-2.4,1.5-3.4h2.4c-0.7,1.2-1.2,2.4-1.5,3.6
			c-0.3,1.2-0.5,2.5-0.5,3.9s0.2,2.7,0.5,3.9c0.3,1.2,0.8,2.4,1.5,3.6h-2.4C400.6,3479.1,400.1,3478,399.7,3476.7z"/>
		<path class="st4" d="M412.2,3468.8c0.7,0.4,1.2,0.9,1.5,1.6c0.4,0.7,0.6,1.4,0.6,2.3c0,0.9-0.2,1.7-0.6,2.3
			c-0.4,0.7-0.9,1.2-1.5,1.6c-0.7,0.4-1.4,0.6-2.2,0.6c-1.2,0-2.1-0.4-2.7-1.1v1h-2.4v-11.9h2.5v4.2c0.6-0.7,1.5-1,2.6-1
			C410.8,3468.3,411.5,3468.4,412.2,3468.8z M411.2,3474.4c0.4-0.4,0.6-1,0.6-1.7s-0.2-1.3-0.6-1.7s-0.9-0.6-1.6-0.6
			s-1.2,0.2-1.6,0.6s-0.6,1-0.6,1.7s0.2,1.3,0.6,1.7c0.4,0.4,0.9,0.6,1.6,0.6S410.7,3474.9,411.2,3474.4z"/>
		<path class="st4" d="M416,3465.1h2.5v11.9H416V3465.1z"/>
		<path class="st4" d="M427.3,3469.2c0.7,0.6,1.1,1.6,1.1,2.9v4.9h-2.3v-1.1c-0.5,0.8-1.3,1.2-2.6,1.2c-0.7,0-1.2-0.1-1.7-0.3
			s-0.9-0.5-1.1-0.9s-0.4-0.8-0.4-1.3c0-0.8,0.3-1.4,0.9-1.9c0.6-0.5,1.5-0.7,2.8-0.7h2c0-0.5-0.2-1-0.5-1.3
			c-0.3-0.3-0.8-0.4-1.5-0.4c-0.5,0-0.9,0.1-1.4,0.2c-0.4,0.1-0.8,0.3-1.1,0.6l-0.9-1.7c0.5-0.3,1-0.6,1.7-0.8
			c0.7-0.2,1.3-0.3,2-0.3C425.6,3468.3,426.6,3468.6,427.3,3469.2z M425.2,3475.2c0.3-0.2,0.6-0.5,0.7-0.9v-0.9h-1.7
			c-1,0-1.5,0.3-1.5,1c0,0.3,0.1,0.6,0.4,0.8s0.6,0.3,1,0.3C424.5,3475.4,424.9,3475.3,425.2,3475.2z"/>
		<path class="st4" d="M432.4,3476.6c-0.7-0.4-1.3-0.9-1.7-1.6c-0.4-0.7-0.6-1.4-0.6-2.3s0.2-1.6,0.6-2.3s1-1.2,1.7-1.6
			s1.6-0.6,2.5-0.6c0.9,0,1.7,0.2,2.4,0.6s1.2,0.9,1.5,1.6l-1.9,1c-0.4-0.8-1.1-1.2-1.9-1.2c-0.7,0-1.2,0.2-1.6,0.6
			c-0.4,0.4-0.6,1-0.6,1.7c0,0.7,0.2,1.3,0.6,1.7c0.4,0.4,1,0.6,1.6,0.6c0.9,0,1.5-0.4,1.9-1.2l1.9,1.1c-0.3,0.7-0.8,1.2-1.5,1.6
			s-1.5,0.6-2.4,0.6C434,3477.1,433.2,3476.9,432.4,3476.6z"/>
		<path class="st4" d="M443.8,3473.6l-1.2,1.2v2.2h-2.5v-11.9h2.5v6.7l3.6-3.5h3l-3.6,3.6l3.9,5h-3L443.8,3473.6z"/>
		<path class="st4" d="M458,3468.8c0.7,0.4,1.2,0.9,1.5,1.6c0.4,0.7,0.6,1.4,0.6,2.3c0,0.9-0.2,1.7-0.6,2.3
			c-0.4,0.7-0.9,1.2-1.5,1.6c-0.7,0.4-1.4,0.6-2.2,0.6c-1.2,0-2.1-0.4-2.7-1.1v1h-2.4v-11.9h2.5v4.2c0.6-0.7,1.5-1,2.6-1
			C456.6,3468.3,457.3,3468.4,458,3468.8z M456.9,3474.4c0.4-0.4,0.6-1,0.6-1.7s-0.2-1.3-0.6-1.7s-0.9-0.6-1.6-0.6s-1.2,0.2-1.6,0.6
			s-0.6,1-0.6,1.7s0.2,1.3,0.6,1.7c0.4,0.4,0.9,0.6,1.6,0.6S456.5,3474.9,456.9,3474.4z"/>
		<path class="st4" d="M470.1,3473.4h-6.5c0.1,0.5,0.4,1,0.8,1.3s1,0.5,1.6,0.5c0.4,0,0.8-0.1,1.2-0.2c0.3-0.1,0.7-0.3,1-0.6
			l1.3,1.4c-0.8,0.9-2,1.4-3.6,1.4c-1,0-1.8-0.2-2.6-0.6c-0.7-0.4-1.3-0.9-1.7-1.6c-0.4-0.7-0.6-1.4-0.6-2.3c0-0.8,0.2-1.6,0.6-2.3
			c0.4-0.7,0.9-1.2,1.6-1.6s1.5-0.6,2.3-0.6c0.8,0,1.6,0.2,2.3,0.5c0.7,0.4,1.2,0.9,1.6,1.6c0.4,0.7,0.6,1.5,0.6,2.4
			C470.2,3472.8,470.2,3473,470.1,3473.4z M464.3,3470.6c-0.4,0.3-0.6,0.8-0.7,1.3h4.2c-0.1-0.5-0.3-1-0.7-1.3
			c-0.4-0.3-0.9-0.5-1.4-0.5C465.1,3470.2,464.7,3470.3,464.3,3470.6z"/>
		<path class="st4" d="M475.4,3468.6c0.5-0.2,1.1-0.3,1.8-0.3v2.3c-0.3,0-0.5,0-0.6,0c-0.7,0-1.3,0.2-1.7,0.6
			c-0.4,0.4-0.6,1-0.6,1.8v4.1h-2.5v-8.6h2.4v1.1C474.5,3469.1,474.9,3468.8,475.4,3468.6z"/>
		<path class="st4" d="M482.3,3468.6c0.5-0.2,1.1-0.3,1.8-0.3v2.3c-0.3,0-0.5,0-0.6,0c-0.7,0-1.3,0.2-1.7,0.6
			c-0.4,0.4-0.6,1-0.6,1.8v4.1h-2.5v-8.6h2.4v1.1C481.3,3469.1,481.7,3468.8,482.3,3468.6z"/>
		<path class="st4" d="M494.3,3468.4l-3.9,9.1c-0.4,1-0.9,1.7-1.5,2.1c-0.6,0.4-1.3,0.6-2.1,0.6c-0.4,0-0.9-0.1-1.3-0.2
			c-0.4-0.1-0.8-0.3-1.1-0.6l0.9-1.8c0.2,0.2,0.4,0.3,0.7,0.4c0.3,0.1,0.5,0.1,0.7,0.1c0.3,0,0.6-0.1,0.8-0.2
			c0.2-0.2,0.4-0.4,0.6-0.8l0-0.1l-3.7-8.7h2.6l2.4,5.8l2.4-5.8H494.3z"/>
		<path class="st4" d="M494.4,3480.1c0.7-1.2,1.2-2.4,1.5-3.6c0.3-1.2,0.5-2.5,0.5-3.9s-0.2-2.7-0.5-3.9c-0.3-1.2-0.8-2.4-1.5-3.6
			h2.4c0.7,0.9,1.1,2.1,1.5,3.4c0.3,1.3,0.5,2.7,0.5,4.1c0,1.5-0.2,2.8-0.5,4.1s-0.8,2.4-1.5,3.4H494.4z"/>
	</g>
	<g class="st3">
		<path class="st4" d="M654.7,3468l0-6.7l-3.3,5.5h-1.2l-3.3-5.4v6.6h-2.4v-11.2h2.1l4.2,7l4.1-7h2.1l0,11.2H654.7z"/>
		<path class="st4" d="M666.1,3460.2c0.7,0.6,1.1,1.6,1.1,2.9v4.9h-2.3v-1.1c-0.5,0.8-1.3,1.2-2.6,1.2c-0.7,0-1.2-0.1-1.7-0.3
			s-0.9-0.5-1.1-0.9s-0.4-0.8-0.4-1.3c0-0.8,0.3-1.4,0.9-1.9c0.6-0.5,1.5-0.7,2.8-0.7h2c0-0.5-0.2-1-0.5-1.3
			c-0.3-0.3-0.8-0.4-1.5-0.4c-0.5,0-0.9,0.1-1.4,0.2c-0.4,0.1-0.8,0.3-1.1,0.6l-0.9-1.7c0.5-0.3,1-0.6,1.7-0.8
			c0.7-0.2,1.3-0.3,2-0.3C664.4,3459.3,665.4,3459.6,666.1,3460.2z M664,3466.2c0.3-0.2,0.6-0.5,0.7-0.9v-0.9H663
			c-1,0-1.5,0.3-1.5,1c0,0.3,0.1,0.6,0.4,0.8c0.3,0.2,0.6,0.3,1,0.3C663.3,3466.4,663.7,3466.3,664,3466.2z"/>
		<path class="st4" d="M677.3,3460.2c0.7,0.6,1,1.6,1,2.8v4.9h-2.5v-4.5c0-0.7-0.1-1.2-0.4-1.5s-0.7-0.5-1.3-0.5
			c-0.6,0-1.1,0.2-1.5,0.6c-0.4,0.4-0.6,1-0.6,1.7v4.3h-2.5v-8.6h2.4v1c0.3-0.4,0.7-0.6,1.2-0.8c0.5-0.2,1-0.3,1.6-0.3
			C675.8,3459.3,676.6,3459.6,677.3,3460.2z"/>
		<path class="st4" d="M687.6,3466.1v1.9h-7.7v-1.5l4.4-5.2H680v-1.9h7.4v1.5l-4.4,5.2H687.6z"/>
		<path class="st4" d="M695.7,3460.2c0.7,0.6,1.1,1.6,1.1,2.9v4.9h-2.3v-1.1c-0.5,0.8-1.3,1.2-2.6,1.2c-0.7,0-1.2-0.1-1.7-0.3
			s-0.9-0.5-1.1-0.9s-0.4-0.8-0.4-1.3c0-0.8,0.3-1.4,0.9-1.9c0.6-0.5,1.5-0.7,2.8-0.7h2c0-0.5-0.2-1-0.5-1.3
			c-0.3-0.3-0.8-0.4-1.5-0.4c-0.5,0-0.9,0.1-1.4,0.2c-0.4,0.1-0.8,0.3-1.1,0.6l-0.9-1.7c0.5-0.3,1-0.6,1.7-0.8s1.3-0.3,2-0.3
			C694,3459.3,695,3459.6,695.7,3460.2z M693.6,3466.2c0.3-0.2,0.6-0.5,0.7-0.9v-0.9h-1.7c-1,0-1.5,0.3-1.5,1c0,0.3,0.1,0.6,0.4,0.8
			c0.3,0.2,0.6,0.3,1,0.3C692.9,3466.4,693.3,3466.3,693.6,3466.2z"/>
		<path class="st4" d="M706.9,3460.2c0.7,0.6,1,1.6,1,2.8v4.9h-2.5v-4.5c0-0.7-0.1-1.2-0.4-1.5s-0.7-0.5-1.3-0.5
			c-0.6,0-1.1,0.2-1.5,0.6c-0.4,0.4-0.6,1-0.6,1.7v4.3h-2.5v-8.6h2.4v1c0.3-0.4,0.7-0.6,1.2-0.8c0.5-0.2,1-0.3,1.6-0.3
			C705.4,3459.3,706.2,3459.6,706.9,3460.2z"/>
		<path class="st4" d="M716.7,3460.2c0.7,0.6,1.1,1.6,1.1,2.9v4.9h-2.3v-1.1c-0.5,0.8-1.3,1.2-2.6,1.2c-0.7,0-1.2-0.1-1.7-0.3
			s-0.9-0.5-1.1-0.9s-0.4-0.8-0.4-1.3c0-0.8,0.3-1.4,0.9-1.9c0.6-0.5,1.5-0.7,2.8-0.7h2c0-0.5-0.2-1-0.5-1.3
			c-0.3-0.3-0.8-0.4-1.5-0.4c-0.5,0-0.9,0.1-1.4,0.2c-0.4,0.1-0.8,0.3-1.1,0.6l-0.9-1.7c0.5-0.3,1-0.6,1.7-0.8s1.3-0.3,2-0.3
			C714.9,3459.3,716,3459.6,716.7,3460.2z M714.5,3466.2c0.3-0.2,0.6-0.5,0.7-0.9v-0.9h-1.7c-1,0-1.5,0.3-1.5,1
			c0,0.3,0.1,0.6,0.4,0.8c0.3,0.2,0.6,0.3,1,0.3C713.8,3466.4,714.2,3466.3,714.5,3466.2z"/>
	</g>
	<g class="st3">
		<path class="st4" d="M410,3539.6v2.4h-11v-1.9l6.9-8.3h-6.8v-2.4h10.6v1.9l-6.9,8.3H410z"/>
		<path class="st4" d="M419.1,3533.2c0.8,0.7,1.2,1.8,1.2,3.2v5.5h-2.6v-1.2c-0.5,0.9-1.5,1.3-3,1.3c-0.7,0-1.4-0.1-1.9-0.4
			c-0.5-0.3-1-0.6-1.3-1c-0.3-0.4-0.4-0.9-0.4-1.5c0-0.9,0.3-1.6,1-2.1c0.7-0.5,1.7-0.8,3.1-0.8h2.2c0-0.6-0.2-1.1-0.6-1.4
			s-0.9-0.5-1.7-0.5c-0.5,0-1,0.1-1.5,0.2c-0.5,0.2-0.9,0.4-1.3,0.7l-1-2c0.5-0.4,1.2-0.7,1.9-0.9c0.7-0.2,1.5-0.3,2.3-0.3
			C417.1,3532.2,418.3,3532.5,419.1,3533.2z M416.7,3539.9c0.4-0.2,0.6-0.5,0.8-1v-1h-1.9c-1.2,0-1.7,0.4-1.7,1.1
			c0,0.4,0.1,0.6,0.4,0.9s0.7,0.3,1.2,0.3C415.9,3540.3,416.3,3540.1,416.7,3539.9z"/>
		<path class="st4" d="M426.9,3532.5c0.6-0.2,1.2-0.4,2-0.4v2.6c-0.3,0-0.5,0-0.6,0c-0.8,0-1.4,0.2-1.9,0.7c-0.5,0.4-0.7,1.1-0.7,2
			v4.6h-2.8v-9.7h2.7v1.3C425.9,3533.1,426.3,3532.8,426.9,3532.5z"/>
		<path class="st4" d="M438.6,3539.8v2.2h-8.6v-1.7l4.9-5.8h-4.8v-2.2h8.4v1.7l-4.9,5.8H438.6z"/>
		<path class="st4" d="M447.7,3533.2c0.8,0.7,1.2,1.8,1.2,3.2v5.5h-2.6v-1.2c-0.5,0.9-1.5,1.3-3,1.3c-0.7,0-1.4-0.1-1.9-0.4
			c-0.5-0.3-1-0.6-1.3-1c-0.3-0.4-0.4-0.9-0.4-1.5c0-0.9,0.3-1.6,1-2.1c0.7-0.5,1.7-0.8,3.1-0.8h2.2c0-0.6-0.2-1.1-0.6-1.4
			s-0.9-0.5-1.7-0.5c-0.5,0-1,0.1-1.5,0.2c-0.5,0.2-0.9,0.4-1.3,0.7l-1-2c0.5-0.4,1.2-0.7,1.9-0.9c0.7-0.2,1.5-0.3,2.3-0.3
			C445.8,3532.2,446.9,3532.5,447.7,3533.2z M445.3,3539.9c0.4-0.2,0.6-0.5,0.8-1v-1h-1.9c-1.2,0-1.7,0.4-1.7,1.1
			c0,0.4,0.1,0.6,0.4,0.9s0.7,0.3,1.2,0.3C444.5,3540.3,445,3540.1,445.3,3539.9z"/>
		<path class="st4" d="M466.8,3533.2c0.7,0.7,1.1,1.8,1.1,3.2v5.5H465v-5.1c0-0.8-0.2-1.3-0.5-1.7s-0.8-0.6-1.4-0.6
			c-0.7,0-1.2,0.2-1.6,0.6s-0.6,1.1-0.6,1.9v4.9h-2.8v-5.1c0-1.5-0.6-2.3-1.8-2.3c-0.6,0-1.2,0.2-1.5,0.6c-0.4,0.4-0.6,1.1-0.6,1.9
			v4.9h-2.8v-9.7h2.7v1.1c0.4-0.4,0.8-0.7,1.3-0.9c0.5-0.2,1.1-0.3,1.7-0.3c0.7,0,1.3,0.1,1.9,0.4c0.6,0.3,1,0.7,1.3,1.2
			c0.4-0.5,0.9-0.9,1.5-1.2c0.6-0.3,1.3-0.4,2-0.4C465.1,3532.2,466.1,3532.5,466.8,3533.2z"/>
		<path class="st4" d="M472.3,3541.5c-0.8-0.4-1.4-1-1.9-1.8c-0.5-0.8-0.7-1.6-0.7-2.6s0.2-1.8,0.7-2.6s1.1-1.3,1.9-1.8
			c0.8-0.4,1.7-0.6,2.7-0.6c1,0,1.9,0.2,2.7,0.6c0.8,0.4,1.4,1,1.9,1.8s0.7,1.6,0.7,2.6s-0.2,1.8-0.7,2.6c-0.5,0.8-1.1,1.3-1.9,1.8
			c-0.8,0.4-1.7,0.6-2.7,0.6C474.1,3542.1,473.1,3541.9,472.3,3541.5z M476.8,3539.1c0.5-0.5,0.7-1.1,0.7-2s-0.2-1.5-0.7-2
			s-1.1-0.7-1.8-0.7s-1.3,0.2-1.8,0.7s-0.7,1.1-0.7,2s0.2,1.5,0.7,2c0.5,0.5,1.1,0.7,1.8,0.7S476.4,3539.6,476.8,3539.1z"/>
		<path class="st4" d="M486.3,3532.5c0.6-0.2,1.2-0.4,2-0.4v2.6c-0.3,0-0.5,0-0.6,0c-0.8,0-1.4,0.2-1.9,0.7c-0.5,0.4-0.7,1.1-0.7,2
			v4.6h-2.8v-9.7h2.7v1.3C485.3,3533.1,485.7,3532.8,486.3,3532.5z"/>
		<path class="st4" d="M497.2,3533.2c0.8,0.7,1.2,1.8,1.2,3.2v5.5h-2.6v-1.2c-0.5,0.9-1.5,1.3-3,1.3c-0.7,0-1.4-0.1-1.9-0.4
			c-0.5-0.3-1-0.6-1.3-1c-0.3-0.4-0.4-0.9-0.4-1.5c0-0.9,0.3-1.6,1-2.1c0.7-0.5,1.7-0.8,3.1-0.8h2.2c0-0.6-0.2-1.1-0.6-1.4
			s-0.9-0.5-1.7-0.5c-0.5,0-1,0.1-1.5,0.2c-0.5,0.2-0.9,0.4-1.3,0.7l-1-2c0.5-0.4,1.2-0.7,1.9-0.9c0.7-0.2,1.5-0.3,2.3-0.3
			C495.3,3532.2,496.4,3532.5,497.2,3533.2z M494.9,3539.9c0.4-0.2,0.6-0.5,0.8-1v-1h-1.9c-1.2,0-1.7,0.4-1.7,1.1
			c0,0.4,0.1,0.6,0.4,0.9s0.7,0.3,1.2,0.3C494.1,3540.3,494.5,3540.1,494.9,3539.9z"/>
	</g>
	<g class="st3">
		<path class="st4" d="M669.3,3530c0.8,0.4,1.5,0.9,1.9,1.6c0.4,0.7,0.7,1.5,0.7,2.4c0,0.9-0.2,1.7-0.7,2.4
			c-0.4,0.7-1.1,1.2-1.9,1.6c-0.8,0.4-1.8,0.5-2.9,0.5h-2.5v3.5H661v-12.6h5.5C667.5,3529.4,668.5,3529.6,669.3,3530z M668.2,3535.6
			c0.5-0.4,0.7-0.9,0.7-1.6c0-0.7-0.2-1.3-0.7-1.6s-1.1-0.6-2-0.6h-2.4v4.4h2.4C667.1,3536.2,667.8,3536,668.2,3535.6z"/>
		<path class="st4" d="M683.2,3538h-7.3c0.1,0.6,0.4,1.1,0.9,1.4s1.1,0.5,1.8,0.5c0.5,0,1-0.1,1.3-0.2c0.4-0.1,0.8-0.4,1.1-0.7
			l1.5,1.6c-0.9,1-2.2,1.6-4,1.6c-1.1,0-2.1-0.2-2.9-0.6c-0.8-0.4-1.5-1-1.9-1.8c-0.5-0.8-0.7-1.6-0.7-2.6c0-0.9,0.2-1.8,0.7-2.6
			c0.5-0.8,1.1-1.4,1.9-1.8c0.8-0.4,1.7-0.6,2.6-0.6c0.9,0,1.8,0.2,2.6,0.6c0.8,0.4,1.4,1,1.8,1.8c0.4,0.8,0.7,1.6,0.7,2.7
			C683.2,3537.2,683.2,3537.5,683.2,3538z M676.6,3534.8c-0.4,0.4-0.7,0.9-0.8,1.5h4.8c-0.1-0.6-0.4-1.1-0.8-1.5
			c-0.4-0.4-1-0.5-1.6-0.5C677.6,3534.3,677,3534.5,676.6,3534.8z"/>
		<path class="st4" d="M689.1,3532.5c0.6-0.2,1.2-0.4,2-0.4v2.6c-0.3,0-0.5,0-0.6,0c-0.8,0-1.4,0.2-1.9,0.7c-0.5,0.4-0.7,1.1-0.7,2
			v4.6h-2.8v-9.7h2.7v1.3C688.1,3533.1,688.6,3532.8,689.1,3532.5z"/>
		<path class="st4" d="M700.1,3533.2c0.8,0.7,1.2,1.8,1.2,3.2v5.5h-2.6v-1.2c-0.5,0.9-1.5,1.3-3,1.3c-0.7,0-1.4-0.1-1.9-0.4
			s-1-0.6-1.3-1c-0.3-0.4-0.4-0.9-0.4-1.5c0-0.9,0.3-1.6,1-2.1c0.7-0.5,1.7-0.8,3.1-0.8h2.2c0-0.6-0.2-1.1-0.6-1.4
			c-0.4-0.3-0.9-0.5-1.7-0.5c-0.5,0-1,0.1-1.5,0.2c-0.5,0.2-0.9,0.4-1.3,0.7l-1-2c0.5-0.4,1.2-0.7,1.9-0.9c0.7-0.2,1.5-0.3,2.3-0.3
			C698.1,3532.2,699.3,3532.5,700.1,3533.2z M697.7,3539.9c0.4-0.2,0.6-0.5,0.8-1v-1h-1.9c-1.2,0-1.7,0.4-1.7,1.1
			c0,0.4,0.1,0.6,0.4,0.9c0.3,0.2,0.7,0.3,1.2,0.3C696.9,3540.3,697.3,3540.1,697.7,3539.9z"/>
	</g>
	<g class="st3">
		<path class="st5" d="M391.8,3197h-2.7v-12.8h7.4v2.2h-4.7v3.3h4.4v2.2h-4.4V3197z"/>
		<path class="st5" d="M404.3,3187c0.4,0,0.7,0,0.9,0.1l-0.2,2.5c-0.2-0.1-0.5-0.1-0.8-0.1c-0.9,0-1.5,0.2-2,0.7s-0.7,1.1-0.7,1.8v5
			h-2.7v-9.8h2l0.4,1.7h0.1c0.3-0.6,0.7-1,1.2-1.3C403.1,3187.2,403.7,3187,404.3,3187z"/>
		<path class="st5" d="M413.9,3197l-0.4-1.3h-0.1c-0.3,0.5-0.7,0.8-1.2,1.1c-0.5,0.2-1.1,0.4-1.8,0.4c-1.2,0-2-0.3-2.6-0.9
			c-0.6-0.6-0.9-1.5-0.9-2.7v-6.4h2.7v5.7c0,0.7,0.1,1.2,0.4,1.6c0.3,0.4,0.7,0.5,1.2,0.5c0.8,0,1.3-0.3,1.6-0.8
			c0.3-0.5,0.5-1.3,0.5-2.5v-4.6h2.7v9.8H413.9z"/>
		<path class="st5" d="M422.9,3195c0.5,0,1-0.1,1.7-0.3v2c-0.7,0.3-1.5,0.4-2.5,0.4c-1.1,0-1.9-0.3-2.3-0.8s-0.7-1.4-0.7-2.4v-4.7
			h-1.3v-1.1l1.5-0.9l0.8-2.1h1.7v2.1h2.8v2h-2.8v4.7c0,0.4,0.1,0.7,0.3,0.8S422.6,3195,422.9,3195z"/>
		<path class="st5" d="M432.8,3197l-0.5-1.3h-0.1c-0.5,0.6-0.9,1-1.4,1.2c-0.5,0.2-1.1,0.3-1.9,0.3c-0.9,0-1.7-0.3-2.2-0.8
			s-0.8-1.3-0.8-2.3c0-1,0.4-1.8,1.1-2.3s1.8-0.8,3.3-0.8l1.7-0.1v-0.4c0-1-0.5-1.5-1.5-1.5c-0.8,0-1.7,0.2-2.8,0.7l-0.9-1.8
			c1.1-0.6,2.4-0.9,3.8-0.9c1.3,0,2.3,0.3,3,0.9s1.1,1.4,1.1,2.6v6.5H432.8z M432.1,3192.4l-1,0c-0.8,0-1.4,0.2-1.7,0.4
			s-0.6,0.7-0.6,1.2c0,0.8,0.4,1.1,1.3,1.1c0.6,0,1.1-0.2,1.5-0.5s0.6-0.8,0.6-1.4V3192.4z"/>
		<path class="st5" d="M444.3,3194.1c0,1-0.4,1.8-1.1,2.3s-1.7,0.8-3.1,0.8c-0.7,0-1.3,0-1.8-0.1c-0.5-0.1-1-0.2-1.4-0.4v-2.2
			c0.5,0.2,1.1,0.4,1.7,0.6s1.2,0.2,1.6,0.2c1,0,1.5-0.3,1.5-0.8c0-0.2-0.1-0.4-0.2-0.5c-0.1-0.1-0.4-0.3-0.7-0.4
			c-0.3-0.2-0.7-0.4-1.3-0.6c-0.8-0.3-1.3-0.6-1.7-0.9s-0.6-0.6-0.8-0.9s-0.2-0.8-0.2-1.3c0-0.9,0.3-1.5,1-2
			c0.7-0.5,1.6-0.7,2.9-0.7c1.2,0,2.3,0.3,3.5,0.8l-0.8,1.9c-0.5-0.2-1-0.4-1.4-0.5s-0.9-0.2-1.3-0.2c-0.8,0-1.2,0.2-1.2,0.6
			c0,0.2,0.1,0.4,0.4,0.6s0.8,0.4,1.7,0.8c0.8,0.3,1.3,0.6,1.7,0.9s0.6,0.6,0.8,0.9S444.3,3193.6,444.3,3194.1z"/>
		<path class="st5" d="M456.6,3187c1.2,0,2.1,0.5,2.7,1.4c0.7,0.9,1,2.1,1,3.7c0,1.6-0.3,2.9-1,3.8s-1.6,1.3-2.8,1.3
			c-1.2,0-2.1-0.4-2.7-1.3h-0.2l-0.4,1.1h-2v-13.7h2.7v3.2c0,0.4,0,1.1-0.1,1.9h0.1C454.4,3187.5,455.3,3187,456.6,3187z
			 M455.7,3189.1c-0.7,0-1.1,0.2-1.5,0.6c-0.3,0.4-0.5,1.1-0.5,2v0.3c0,1.1,0.2,1.8,0.5,2.3s0.8,0.7,1.5,0.7c0.6,0,1-0.3,1.3-0.8
			c0.3-0.5,0.5-1.2,0.5-2.2s-0.2-1.7-0.5-2.2C456.7,3189.4,456.3,3189.1,455.7,3189.1z"/>
		<path class="st5" d="M465.2,3197h-2.7v-13.7h2.7V3197z"/>
		<path class="st5" d="M474.2,3197l-0.5-1.3h-0.1c-0.5,0.6-0.9,1-1.4,1.2c-0.5,0.2-1.1,0.3-1.9,0.3c-0.9,0-1.7-0.3-2.2-0.8
			s-0.8-1.3-0.8-2.3c0-1,0.4-1.8,1.1-2.3s1.8-0.8,3.3-0.8l1.7-0.1v-0.4c0-1-0.5-1.5-1.5-1.5c-0.8,0-1.7,0.2-2.8,0.7l-0.9-1.8
			c1.1-0.6,2.4-0.9,3.8-0.9c1.3,0,2.3,0.3,3,0.9s1.1,1.4,1.1,2.6v6.5H474.2z M473.4,3192.4l-1,0c-0.8,0-1.4,0.2-1.7,0.4
			s-0.6,0.7-0.6,1.2c0,0.8,0.4,1.1,1.3,1.1c0.6,0,1.1-0.2,1.5-0.5s0.6-0.8,0.6-1.4V3192.4z"/>
		<path class="st5" d="M487.9,3197h-2.7v-5.7c0-0.7-0.1-1.2-0.4-1.6s-0.7-0.5-1.2-0.5c-0.8,0-1.3,0.3-1.6,0.8
			c-0.3,0.5-0.5,1.3-0.5,2.5v4.6h-2.7v-9.8h2l0.4,1.3h0.1c0.3-0.5,0.7-0.8,1.2-1.1c0.5-0.2,1.1-0.4,1.8-0.4c1.1,0,2,0.3,2.6,0.9
			c0.6,0.6,0.9,1.5,0.9,2.7V3197z"/>
		<path class="st5" d="M493.8,3197.2c-1.2,0-2.1-0.4-2.7-1.3s-1-2.1-1-3.7c0-1.6,0.3-2.9,1-3.8c0.7-0.9,1.6-1.3,2.8-1.3
			c1.2,0,2.2,0.5,2.8,1.4h0.1c-0.1-0.7-0.2-1.4-0.2-2v-3.1h2.7v13.7h-2.1l-0.5-1.3h-0.1C496,3196.7,495,3197.2,493.8,3197.2z
			 M494.7,3195c0.7,0,1.2-0.2,1.5-0.6s0.5-1.1,0.5-2v-0.3c0-1.1-0.2-1.8-0.5-2.3s-0.9-0.7-1.6-0.7c-0.6,0-1.1,0.3-1.4,0.8
			s-0.5,1.2-0.5,2.2s0.2,1.7,0.5,2.2C493.6,3194.8,494.1,3195,494.7,3195z"/>
		<path class="st5" d="M508.3,3197l-0.5-1.3h-0.1c-0.5,0.6-0.9,1-1.4,1.2c-0.5,0.2-1.1,0.3-1.9,0.3c-0.9,0-1.7-0.3-2.2-0.8
			s-0.8-1.3-0.8-2.3c0-1,0.4-1.8,1.1-2.3s1.8-0.8,3.3-0.8l1.7-0.1v-0.4c0-1-0.5-1.5-1.5-1.5c-0.8,0-1.7,0.2-2.8,0.7l-0.9-1.8
			c1.1-0.6,2.4-0.9,3.8-0.9c1.3,0,2.3,0.3,3,0.9s1.1,1.4,1.1,2.6v6.5H508.3z M507.5,3192.4l-1,0c-0.8,0-1.4,0.2-1.7,0.4
			s-0.6,0.7-0.6,1.2c0,0.8,0.4,1.1,1.3,1.1c0.6,0,1.1-0.2,1.5-0.5s0.6-0.8,0.6-1.4V3192.4z"/>
		<path class="st5" d="M519.8,3194.1c0,1-0.4,1.8-1.1,2.3s-1.7,0.8-3.1,0.8c-0.7,0-1.3,0-1.8-0.1c-0.5-0.1-1-0.2-1.4-0.4v-2.2
			c0.5,0.2,1.1,0.4,1.7,0.6s1.2,0.2,1.6,0.2c1,0,1.5-0.3,1.5-0.8c0-0.2-0.1-0.4-0.2-0.5c-0.1-0.1-0.4-0.3-0.7-0.4
			c-0.3-0.2-0.7-0.4-1.3-0.6c-0.8-0.3-1.3-0.6-1.7-0.9s-0.6-0.6-0.8-0.9s-0.2-0.8-0.2-1.3c0-0.9,0.3-1.5,1-2
			c0.7-0.5,1.6-0.7,2.9-0.7c1.2,0,2.3,0.3,3.5,0.8l-0.8,1.9c-0.5-0.2-1-0.4-1.4-0.5s-0.9-0.2-1.3-0.2c-0.8,0-1.2,0.2-1.2,0.6
			c0,0.2,0.1,0.4,0.4,0.6s0.8,0.4,1.7,0.8c0.8,0.3,1.3,0.6,1.7,0.9s0.6,0.6,0.8,0.9S519.8,3193.6,519.8,3194.1z"/>
	</g>
	<g class="st3">
		<path class="st5" d="M630.6,3197h-2.7v-12.8h7.4v2.2h-4.7v3.3h4.4v2.2h-4.4V3197z"/>
		<path class="st5" d="M643.1,3187c0.4,0,0.7,0,0.9,0.1l-0.2,2.5c-0.2-0.1-0.5-0.1-0.8-0.1c-0.9,0-1.5,0.2-2,0.7s-0.7,1.1-0.7,1.8v5
			h-2.7v-9.8h2l0.4,1.7h0.1c0.3-0.6,0.7-1,1.2-1.3C641.9,3187.2,642.5,3187,643.1,3187z"/>
		<path class="st5" d="M652.7,3197l-0.4-1.3h-0.1c-0.3,0.5-0.7,0.8-1.2,1.1c-0.5,0.2-1.1,0.4-1.8,0.4c-1.2,0-2-0.3-2.6-0.9
			c-0.6-0.6-0.9-1.5-0.9-2.7v-6.4h2.7v5.7c0,0.7,0.1,1.2,0.4,1.6c0.3,0.4,0.7,0.5,1.2,0.5c0.8,0,1.3-0.3,1.6-0.8
			c0.3-0.5,0.5-1.3,0.5-2.5v-4.6h2.7v9.8H652.7z"/>
		<path class="st5" d="M661.7,3195c0.5,0,1-0.1,1.7-0.3v2c-0.7,0.3-1.5,0.4-2.5,0.4c-1.1,0-1.9-0.3-2.3-0.8s-0.7-1.4-0.7-2.4v-4.7
			h-1.3v-1.1l1.5-0.9l0.8-2.1h1.7v2.1h2.8v2h-2.8v4.7c0,0.4,0.1,0.7,0.3,0.8S661.4,3195,661.7,3195z"/>
		<path class="st5" d="M671.6,3197l-0.5-1.3h-0.1c-0.5,0.6-0.9,1-1.4,1.2c-0.5,0.2-1.1,0.3-1.9,0.3c-0.9,0-1.7-0.3-2.2-0.8
			s-0.8-1.3-0.8-2.3c0-1,0.4-1.8,1.1-2.3s1.8-0.8,3.3-0.8l1.7-0.1v-0.4c0-1-0.5-1.5-1.5-1.5c-0.8,0-1.7,0.2-2.8,0.7l-0.9-1.8
			c1.1-0.6,2.4-0.9,3.8-0.9c1.3,0,2.3,0.3,3,0.9s1.1,1.4,1.1,2.6v6.5H671.6z M670.8,3192.4l-1,0c-0.8,0-1.4,0.2-1.7,0.4
			s-0.6,0.7-0.6,1.2c0,0.8,0.4,1.1,1.3,1.1c0.6,0,1.1-0.2,1.5-0.5s0.6-0.8,0.6-1.4V3192.4z"/>
		<path class="st5" d="M683.1,3194.1c0,1-0.3,1.8-1,2.3s-1.7,0.8-3.1,0.8c-0.7,0-1.3,0-1.8-0.1c-0.5-0.1-1-0.2-1.4-0.4v-2.2
			c0.5,0.2,1.1,0.4,1.7,0.6s1.2,0.2,1.6,0.2c1,0,1.5-0.3,1.5-0.8c0-0.2-0.1-0.4-0.2-0.5c-0.1-0.1-0.4-0.3-0.7-0.4
			c-0.3-0.2-0.7-0.4-1.3-0.6c-0.8-0.3-1.3-0.6-1.7-0.9s-0.6-0.6-0.8-0.9s-0.2-0.8-0.2-1.3c0-0.9,0.3-1.5,1-2
			c0.7-0.5,1.6-0.7,2.9-0.7c1.2,0,2.3,0.3,3.5,0.8l-0.8,1.9c-0.5-0.2-1-0.4-1.4-0.5s-0.9-0.2-1.3-0.2c-0.8,0-1.2,0.2-1.2,0.6
			c0,0.2,0.1,0.4,0.4,0.6s0.8,0.4,1.7,0.8c0.8,0.3,1.3,0.6,1.7,0.9s0.6,0.6,0.8,0.9S683.1,3193.6,683.1,3194.1z"/>
		<path class="st5" d="M693,3197.2c-1.2,0-2.1-0.4-2.7-1.3s-1-2.1-1-3.7c0-1.6,0.3-2.9,1-3.8c0.7-0.9,1.6-1.3,2.8-1.3
			c1.2,0,2.2,0.5,2.8,1.4h0.1c-0.1-0.7-0.2-1.4-0.2-2v-3.1h2.7v13.7h-2.1l-0.5-1.3h-0.1C695.2,3196.7,694.3,3197.2,693,3197.2z
			 M693.9,3195c0.7,0,1.2-0.2,1.5-0.6s0.5-1.1,0.5-2v-0.3c0-1.1-0.2-1.8-0.5-2.3s-0.9-0.7-1.6-0.7c-0.6,0-1.1,0.3-1.4,0.8
			s-0.5,1.2-0.5,2.2s0.2,1.7,0.5,2.2C692.8,3194.8,693.3,3195,693.9,3195z"/>
		<path class="st5" d="M708.2,3197l-0.4-1.3h-0.1c-0.3,0.5-0.7,0.8-1.2,1.1c-0.5,0.2-1.1,0.4-1.8,0.4c-1.2,0-2-0.3-2.6-0.9
			c-0.6-0.6-0.9-1.5-0.9-2.7v-6.4h2.7v5.7c0,0.7,0.1,1.2,0.4,1.6c0.3,0.4,0.7,0.5,1.2,0.5c0.8,0,1.3-0.3,1.6-0.8
			c0.3-0.5,0.5-1.3,0.5-2.5v-4.6h2.7v9.8H708.2z"/>
		<path class="st5" d="M718.6,3187c0.4,0,0.7,0,0.9,0.1l-0.2,2.5c-0.2-0.1-0.5-0.1-0.8-0.1c-0.9,0-1.5,0.2-2,0.7s-0.7,1.1-0.7,1.8v5
			h-2.7v-9.8h2l0.4,1.7h0.1c0.3-0.6,0.7-1,1.2-1.3C717.4,3187.2,718,3187,718.6,3187z"/>
		<path class="st5" d="M727.5,3197l-0.5-1.3h-0.1c-0.5,0.6-0.9,1-1.4,1.2c-0.5,0.2-1.1,0.3-1.9,0.3c-0.9,0-1.7-0.3-2.2-0.8
			s-0.8-1.3-0.8-2.3c0-1,0.4-1.8,1.1-2.3s1.8-0.8,3.3-0.8l1.7-0.1v-0.4c0-1-0.5-1.5-1.5-1.5c-0.8,0-1.7,0.2-2.8,0.7l-0.9-1.8
			c1.1-0.6,2.4-0.9,3.8-0.9c1.3,0,2.3,0.3,3,0.9s1.1,1.4,1.1,2.6v6.5H727.5z M726.7,3192.4l-1,0c-0.8,0-1.4,0.2-1.7,0.4
			s-0.6,0.7-0.6,1.2c0,0.8,0.4,1.1,1.3,1.1c0.6,0,1.1-0.2,1.5-0.5s0.6-0.8,0.6-1.4V3192.4z"/>
		<path class="st5" d="M739,3194.1c0,1-0.3,1.8-1,2.3s-1.7,0.8-3.1,0.8c-0.7,0-1.3,0-1.8-0.1c-0.5-0.1-1-0.2-1.4-0.4v-2.2
			c0.5,0.2,1.1,0.4,1.7,0.6s1.2,0.2,1.6,0.2c1,0,1.5-0.3,1.5-0.8c0-0.2-0.1-0.4-0.2-0.5c-0.1-0.1-0.4-0.3-0.7-0.4
			c-0.3-0.2-0.7-0.4-1.3-0.6c-0.8-0.3-1.3-0.6-1.7-0.9s-0.6-0.6-0.8-0.9s-0.2-0.8-0.2-1.3c0-0.9,0.3-1.5,1-2
			c0.7-0.5,1.6-0.7,2.9-0.7c1.2,0,2.3,0.3,3.5,0.8l-0.8,1.9c-0.5-0.2-1-0.4-1.4-0.5s-0.9-0.2-1.3-0.2c-0.8,0-1.2,0.2-1.2,0.6
			c0,0.2,0.1,0.4,0.4,0.6s0.8,0.4,1.7,0.8c0.8,0.3,1.3,0.6,1.7,0.9s0.6,0.6,0.8,0.9S739,3193.6,739,3194.1z"/>
	</g>
</g>
</svg>
