<svg xmlns="http://www.w3.org/2000/svg" width="69.5" height="78.628" viewBox="0 0 69.5 78.628">
  <g id="Grupo_11396" data-name="Grupo 11396" transform="translate(-270.093 -1369.504)">
    <path id="Trazado_16900" data-name="Trazado 16900" d="M329.346,1387.432v-3.588c0-.337-.017-.669-.048-1h6.127v-9.874c0-1.916-1.978-3.469-4.418-3.469H278.679c-2.44,0-4.418,1.554-4.418,3.469v9.874h6.127q-.048.491-.048,1v3.588a84.554,84.554,0,0,0-7.488,16.357c-3.826,11.678-3.671,21.547.463,29.33a25.771,25.771,0,0,0,12.347,11.412c5.254,2.423,11.528,3.6,19.183,3.6s13.927-1.18,19.181-3.6a25.8,25.8,0,0,0,12.347-11.412c4.133-7.784,4.289-17.651.462-29.33A84.4,84.4,0,0,0,329.346,1387.432Zm-24.5,50.274c-15.214,0-21.735-5.579-23.661-12.968H310.5a5.032,5.032,0,0,0,5.031-5.031v-19.359a5.032,5.032,0,0,0-5.031-5.031H287.859c1.1-2.043,2.133-3.724,2.907-4.869v-6.6H318.92v6.6C324.744,1399.063,344.888,1437.706,304.844,1437.706Z" fill="#80b24b"/>
  </g>
</svg>
