<?xml version="1.0" encoding="utf-8"?>
<!-- Generator: Adobe Illustrator 24.2.0, SVG Export Plug-In . SVG Version: 6.00 Build 0)  -->
<svg version="1.1" id="Capa_1" xmlns="http://www.w3.org/2000/svg" xmlns:xlink="http://www.w3.org/1999/xlink" x="0px" y="0px"
	 viewBox="0 0 208.4 192" style="enable-background:new 0 0 208.4 192;" xml:space="preserve">
<style type="text/css">
	.st0{opacity:0.3;fill:#CCBFA3;}
	.st1{fill:#B8D8E6;}
	.st2{fill:#CCEFFF;}
	.st3{fill:url(#Trazado_16790_1_);}
	.st4{fill:#FCBC90;}
	.st5{opacity:0.2;fill:#B3B3B3;}
	.st6{opacity:0.2;fill:#666666;}
	.st7{fill:#FFC14F;}
	.st8{fill:#CCBFA3;}
	.st9{fill:#FFF4D9;}
	.st10{fill:#AFB324;}
	.st11{fill:url(#Trazado_16818_1_);}
	.st12{fill:#C1C533;}
	.st13{fill:#FFFBF2;}
	.st14{opacity:0.15;fill:#808080;}
	.st15{fill:#C8CC35;}
	.st16{fill:#E1E63C;}
	.st17{fill:#6EB32B;}
	.st18{fill:#F2FF99;}
	.st19{fill:#4D7326;}
	.st20{fill:url(#Trazado_16859_1_);}
	.st21{fill:#B3B3B3;}
	.st22{fill:#DB4534;}
	.st23{fill:#CC1500;}
	.st24{fill:#FFDB85;}
</style>
<g id="Grupo_11384" transform="translate(338.607 188.971)">
	<g id="Grupo_11378">
		<path id="Trazado_16787" class="st0" d="M-192-20.4c3.4-2.9,6.4-6.2,9.1-9.7c2.2-2.9,3.5-5.9,5.4-8.9c0.1-0.2,0.3-0.4,0.4-0.6
			c1.5-2.3,2.6-4.8,3.4-7.4c0.1-0.5,0.2-0.9,0.3-1.4c0.1-0.4,0-0.8,0.5-1.1c0.3-0.2,0.5-0.3,0.8-0.5l14.7-8.5c2-0.5,4-1.2,5.9-2.2
			l0.2-0.1l1-0.6l5.6-3.2l0.6-0.3c7.1-4.5,8.1-12.4,1.1-21.8c-12-16.2-42.9-30.8-69.1-32.7c-10.2-0.7-18.1,0.6-23.3,3.4l-1.2,0.7
			l-5,2.9l-1,0.6l-0.2,0.1c-2.2,1.3-3.9,3.3-5,5.6c0,0.1,0,0.1-0.1,0.2l-10.8,6.2c-14.2,0.6-28.3,2.9-41.9,6.9
			c-7.8,2.2-15.3,5.2-22.5,8.9c-1.4,0.8-3.8,1.6-4.7,3.1c-0.8,1.3-0.4,3.1-0.3,4.5c0.1,5.2-0.5,10.4,0.8,15.5c1,3.2,2.4,6.2,4.3,9
			c6,9.5,13.4,18.1,22,25.5c2.7,2.1,5.2,4.5,7.6,7c1.7,2,3.1,4.2,4.6,6.3c3,4,6.6,7.5,10.7,10.4c2.1,1.5,4.4,2.8,6.9,3.8
			c2.2,0.9,4.8,0.7,7.1,0.9c4.3,0.4,8.6,0.3,12.9,0c6-0.6,11.9-2.2,17.6-3.3c5.9-1.2,11.8-2.9,17.4-5
			C-207.3-9.7-199.1-14.4-192-20.4z"/>
		<path id="Trazado_16788" class="st1" d="M-318.1-26.9v1.4c0.2,2.9,1.1,5.7,2.6,8.2c0.8,1.4,1.8,2.7,2.9,3.8
			c8.2,8.3,19.3,12.2,30.9,13.9c1.9,0.3,3.8,0.5,5.7,0.6c7.6,0.6,15.3,0.2,22.7-1.2c2.4-0.5,4.8-1,7.1-1.7
			c8.5-1.9,16.3-6.3,22.2-12.6c1.1-1.2,2.1-2.6,3-4c1.5-2.5,2.4-5.4,2.5-8.4v-1.4c-0.4-8.4-7.4-16.5-20.3-21.7
			c-22.2-9-53.4-5.9-69.7,6.9C-314.7-38.2-317.9-32.5-318.1-26.9z"/>
		<g id="Grupo_11366" transform="translate(0 41.716)">
			<path id="Trazado_16789" class="st2" d="M-199.3-97.2c-1.1,5.2-2.8,10.3-5.1,15.2c-2.1,4.5-3.9,9.6-6.8,13.6
				c-2.1,2.9-4.6,5.4-7.4,7.5c-16.3,12.6-44.6,17.2-69.1,12.5c-5.4-1-10.7-2.6-15.8-4.6c-8.6-3.5-17.4-9-21.9-17.5
				c-4.7-6.7-8.3-14.1-10.6-22c-11.3-39.7,18.8-73.8,18.8-73.8v-22.3c0,1.7,0.3,3.3,0.9,4.9c2.2,6.7,8.8,13,19.3,17.4
				c2.3,1,4.8,1.8,7.2,2.4c15.6,4.4,33.9,3.7,48.4-1.5c5.1-1.7,9.9-4.2,14.2-7.4c4.7-3.6,7.6-7.6,9-11.7c0.5-1.4,0.8-3,0.8-4.5v22.4
				c0,0.3,0,0.6,0,1c0,0.6,0.4,0.9,0.8,1.4c0.4,0.5,0.9,1.1,1.3,1.6c2.1,3,4,6.1,5.5,9.4c0.1,0.3,0.2,0.6,0.3,0.9
				c1.9,4,4.1,7.9,5.8,12.1c2,4.9,3.5,9.9,4.5,15.1C-197.4-115.9-197.4-106.4-199.3-97.2z"/>
			
				<linearGradient id="Trazado_16790_1_" gradientUnits="userSpaceOnUse" x1="-911.7633" y1="247.8992" x2="-911.7543" y2="247.0622" gradientTransform="matrix(132.9457 0 0 -127.3422 120946.2734 31410.5527)">
				<stop  offset="0" style="stop-color:#800100"/>
				<stop  offset="1" style="stop-color:#FA4443"/>
			</linearGradient>
			<path id="Trazado_16790" class="st3" d="M-268.3-50.5c-6.3,0-12.5-0.6-18.7-1.8c-5.2-1-10.2-2.5-15.1-4.4
				c-9.8-4-16.6-9.3-20-15.7l-0.1-0.2l-0.1-0.2c-4.5-6.3-7.9-13.4-10-20.8c-10.6-37.3,17.7-69.9,17.9-70.2l1-1.1l-1.8-10.3
				c3.7,3.7,10.6,9.9,16.6,12.4c2.5,1,5.1,1.9,7.7,2.6c16.7,4.5,34.4,4,50.7-1.6c5.5-1.8,10.6-4.5,15.3-8c1.3-1,3-7,4.1-8.1
				l-0.5,11.3l0,0.2c0,0.3,0,0.7,0,1c0.1,1.3,0.6,2.5,1.5,3.5l0.1,0.1c0.4,0.5,0.8,1,1.1,1.5c2,2.7,3.7,5.7,5.1,8.7l0.1,0.2
				c0,0.1,0.1,0.2,0.1,0.3l0.1,0.2l0.1,0.2c0.7,1.5,1.5,3,2.2,4.5c1.3,2.5,2.5,4.9,3.5,7.4c1.9,4.6,3.3,9.5,4.3,14.4
				c2.9,13.7,1.2,28-4.7,40.7c-0.6,1.2-1.1,2.4-1.6,3.7c-1.3,3.3-2.9,6.4-4.8,9.3c-1.9,2.6-4.1,4.8-6.7,6.7
				C-232-55.5-249.7-50.5-268.3-50.5z"/>
			<g id="Grupo_11365" transform="translate(15.16 34.097)">
				<g id="Grupo_11364">
					<path id="Trazado_16791" class="st4" d="M-307.8-139.4c0.4-0.2,0.8-0.5,0.9-1c0.1-0.3,0.1-0.5-0.1-0.8
						c-0.2-0.2-0.5-0.4-0.9-0.3c-0.6,0.1-1,0.6-1.1,1.2c0,0.2-0.2,1.3-0.3,1.3C-308.8-139.1-308.3-139.2-307.8-139.4z"/>
					<path id="Trazado_16792" class="st4" d="M-271.6-104.7c0.3-0.3,0.5-0.8,0.5-1.3c0-0.3-0.2-0.5-0.4-0.7
						c-0.3-0.1-0.6-0.1-0.9,0.1c-0.5,0.3-0.7,0.9-0.5,1.5c0,0.2,0.4,1.2,0.2,1.3C-272.4-104-272-104.3-271.6-104.7z"/>
					<path id="Trazado_16793" class="st4" d="M-290.1-184.8c0.4,0.3,0.8,0.4,1.3,0.3c0.3-0.1,0.5-0.2,0.6-0.5c0.1-0.3,0-0.6-0.2-0.9
						c-0.4-0.4-1-0.6-1.6-0.3c-0.2,0-1.2,0.5-1.3,0.4C-290.9-185.4-290.5-185.1-290.1-184.8z"/>
					<path id="Trazado_16794" class="st4" d="M-247.3-104.3c0.1,0.4,0.5,0.8,0.9,1c0.2,0.1,0.5,0.1,0.8,0c0.3-0.2,0.4-0.5,0.4-0.8
						c-0.1-0.6-0.5-1-1-1.2c-0.2-0.1-1.3-0.3-1.3-0.5C-247.6-105.3-247.5-104.8-247.3-104.3z"/>
					<path id="Trazado_16795" class="st4" d="M-298.8-114.3c0.4,0.1,0.9,0,1.3-0.2c0.2-0.1,0.4-0.4,0.4-0.7c0-0.3-0.2-0.6-0.5-0.8
						c-0.5-0.2-1.1-0.1-1.6,0.2c-0.1,0.1-0.9,0.9-1.1,0.8C-299.7-114.6-299.3-114.4-298.8-114.3z"/>
					<path id="Trazado_16796" class="st4" d="M-227.2-143.9c0.5-0.1,0.8-0.4,1.1-0.8c0.1-0.2,0.2-0.5,0-0.8
						c-0.2-0.3-0.5-0.4-0.8-0.4c-0.6,0-1.1,0.4-1.3,0.9c-0.1,0.1-0.4,1.2-0.6,1.2C-228.2-143.7-227.7-143.8-227.2-143.9z"/>
					<path id="Trazado_16797" class="st4" d="M-324-167.5c0.4,0.2,0.9,0.3,1.3,0.1c0.3-0.1,0.5-0.3,0.5-0.6c0.1-0.3-0.1-0.6-0.3-0.8
						c-0.5-0.4-1.1-0.4-1.6-0.1c-0.2,0.1-1.1,0.7-1.2,0.6C-324.9-168-324.4-167.7-324-167.5z"/>
					<path id="Trazado_16798" class="st4" d="M-337.3-147.5c0.3-0.3,0.6-0.7,0.6-1.2c0-0.3-0.1-0.5-0.3-0.7c-0.3-0.2-0.6-0.2-0.9,0
						c-0.5,0.3-0.8,0.9-0.7,1.4c0,0.2,0.2,1.3,0.1,1.4C-338.1-146.9-337.6-147.2-337.3-147.5z"/>
					<path id="Trazado_16799" class="st4" d="M-282-136.7c-0.2-0.4-0.6-0.7-1.1-0.8c-0.3-0.1-0.5,0-0.8,0.2
						c-0.2,0.2-0.3,0.6-0.2,0.9c0.2,0.5,0.7,0.9,1.3,0.9c0.2,0,1.3,0,1.3,0.1C-281.5-135.8-281.7-136.3-282-136.7z"/>
					<path id="Trazado_16800" class="st4" d="M-275.6-167.2c0.5-0.1,0.9-0.3,1.1-0.7c0.2-0.2,0.2-0.5,0.1-0.8
						c-0.1-0.3-0.4-0.5-0.8-0.5c-0.6,0-1.1,0.3-1.3,0.8c-0.1,0.1-0.5,1.2-0.6,1.2C-276.6-167.1-276.1-167.1-275.6-167.2z"/>
					<path id="Trazado_16801" class="st4" d="M-317.9-101.6c-0.2,0.4-0.3,0.9-0.2,1.3c0.1,0.3,0.3,0.5,0.5,0.6
						c0.3,0.1,0.6,0,0.9-0.3c0.4-0.4,0.5-1.1,0.2-1.6c-0.1-0.2-0.6-1.1-0.5-1.3C-317.3-102.4-317.6-102-317.9-101.6z"/>
					<path id="Trazado_16802" class="st4" d="M-263.6-142.6c-0.4-0.1-0.9-0.1-1.3,0.2c-0.2,0.1-0.4,0.4-0.4,0.7
						c0,0.3,0.2,0.6,0.5,0.8c0.5,0.3,1.1,0.2,1.6-0.2c0.1-0.1,0.9-0.9,1.1-0.8C-262.6-142.2-263.1-142.4-263.6-142.6z"/>
					<path id="Trazado_16803" class="st4" d="M-245.7-155.9c-0.1,0.4-0.1,0.9,0.2,1.3c0.1,0.2,0.4,0.4,0.7,0.4
						c0.3,0,0.6-0.2,0.8-0.5c0.2-0.5,0.2-1.1-0.2-1.6c-0.1-0.1-0.9-0.9-0.8-1.1C-245.4-156.8-245.6-156.4-245.7-155.9z"/>
					<path id="Trazado_16804" class="st4" d="M-328.8-122.6c-0.4,0.2-0.7,0.6-0.8,1.1c-0.1,0.3,0,0.5,0.2,0.8
						c0.2,0.2,0.6,0.3,0.9,0.2c0.5-0.2,0.9-0.7,1-1.3c0-0.2,0-1.3,0.2-1.3C-327.8-123-328.3-122.8-328.8-122.6z"/>
					<path id="Trazado_16805" class="st4" d="M-293.2-95c-0.3-0.4-0.7-0.6-1.2-0.7c-0.3,0-0.5,0.1-0.7,0.3c-0.2,0.3-0.2,0.6-0.1,0.9
						c0.3,0.5,0.8,0.8,1.4,0.8c0.2,0,1.3-0.1,1.4,0C-292.6-94.1-292.9-94.6-293.2-95z"/>
					<path id="Trazado_16806" class="st4" d="M-237-182.4c-0.3,0.3-0.5,0.8-0.5,1.2c0,0.3,0.1,0.5,0.4,0.7c0.3,0.2,0.6,0.1,0.9,0
						c0.5-0.3,0.7-0.9,0.6-1.5c0-0.2-0.3-1.3-0.1-1.3C-236.3-183-236.7-182.7-237-182.4z"/>
					<path id="Trazado_16807" class="st4" d="M-324.6-188.5c-0.3-0.3-0.8-0.5-1.3-0.4c-0.3,0-0.5,0.2-0.7,0.4
						c-0.1,0.3-0.1,0.6,0.1,0.9c0.3,0.5,0.9,0.7,1.5,0.5c0.2,0,1.2-0.4,1.3-0.2C-323.9-187.8-324.2-188.2-324.6-188.5z"/>
					<path id="Trazado_16808" class="st4" d="M-254.2-178.3c-0.3-0.4-0.7-0.6-1.1-0.7c-0.3,0-0.5,0.1-0.7,0.2
						c-0.2,0.3-0.2,0.6-0.1,0.9c0.2,0.5,0.8,0.9,1.3,0.9c0.2,0,1.3-0.1,1.4,0.1C-253.7-177.4-253.9-177.9-254.2-178.3z"/>
					<path id="Trazado_16809" class="st4" d="M-244.6-124.3c0.4,0.3,0.8,0.4,1.3,0.3c0.3-0.1,0.5-0.2,0.6-0.5c0.1-0.3,0-0.6-0.2-0.9
						c-0.4-0.4-1-0.6-1.5-0.4c-0.2,0-1.2,0.5-1.3,0.4C-245.3-124.9-245-124.6-244.6-124.3z"/>
					<path id="Trazado_16810" class="st4" d="M-299.5-165.6c0.3-0.3,0.5-0.8,0.5-1.2c0-0.3-0.1-0.5-0.4-0.7c-0.3-0.2-0.6-0.1-0.9,0
						c-0.5,0.3-0.7,0.9-0.6,1.5c0,0.2,0.3,1.3,0.1,1.3C-300.3-165-299.9-165.3-299.5-165.6z"/>
				</g>
			</g>
			<path id="Trazado_16811" class="st5" d="M-199.3-97.2c-1.1,5.2-2.8,10.3-5.1,15.2c-2.1,4.5-3.9,9.6-6.8,13.6
				c-2.1,2.9-4.6,5.4-7.4,7.5c-16.3,12.6-44.6,17.2-69.1,12.5c0.7-0.6,1.4-1.3,2.1-1.9c16.7-16.2,31.2-35.1,39.4-56.9
				c6.9-18.1,9.2-38.2,5-57c7.4-2.2,14-6.4,19.2-12c1.2-1.3,2.2-2.7,3.1-4.2c0.6-1,1.1-2,1.5-3.1v17c0,0.3,0,0.6,0,1
				c0,0.6,0.4,0.9,0.8,1.4c0.4,0.5,0.9,1.1,1.3,1.6c2.1,3,4,6.1,5.5,9.4c0.1,0.3,0.2,0.6,0.3,0.9c1.9,4,4.1,7.9,5.8,12.1
				c2,4.9,3.5,9.9,4.5,15.1C-197.4-115.9-197.4-106.4-199.3-97.2z"/>
			<path id="Trazado_16812" class="st6" d="M-290.4-162.3c-0.9,3.2-1.8,6.4-2.7,9.6c-1.5,5.7-3.5,11.4-5.7,16.9
				c-7.7,17.7-22.1,31.4-37.3,43.3c-11.3-39.7,18.8-73.8,18.8-73.8V-179c0.8,1.3,1.8,2.6,2.8,3.8
				C-307.9-168.5-299.4-164.6-290.4-162.3z"/>
			<path id="Trazado_16813" class="st7" d="M-220.6-179.9v0.9c-0.1,2.3-0.8,4.6-2.1,6.6c-0.7,1.3-1.6,2.4-2.6,3.5
				c-5.3,5.8-12.4,9.8-21,11.9c-2.5,0.7-4.8,1.3-7.2,1.7c-5.3,1-10.6,1.5-16,1.5c-2.2,0-4.4-0.1-6.6-0.3c-1.8-0.1-3.7-0.4-5.6-0.6
				c-13.1-1.9-22.8-6.2-29.8-13.2c-0.9-1-1.7-2.1-2.4-3.2c-1.2-2-1.9-4.2-2.1-6.5v-1.3c0-0.9,0.2-1.8,0.4-2.7
				c2.8,5.9,9.1,11.3,18.4,15.1c2.3,1,4.8,1.8,7.2,2.4c15.6,4.4,33.9,3.7,48.4-1.5c5.1-1.7,9.9-4.2,14.2-7.4
				C-224.7-174.8-222.4-177.2-220.6-179.9z"/>
		</g>
		<g id="Grupo_11377" transform="translate(9.443)">
			<path id="Trazado_16814" class="st8" d="M-217.9-108.3v0.3c-2-1.1-4.1-1-6-2.1c-2.2-1.3-3.6,0.2-4.8,2.2
				c-2.4,4.1-5.4,8.1-9.4,10.5c0,0,0,0,0,0c-4,2.4-8.9,3.2-13.1,0.8c-2.2-1.3-4.4-2.9-6.9-3.3c-1.2-0.1-2.4,0-3.5,0.3
				c-1,0.2-1.9,0.6-2.8,1.1c-1.6,1.1-2.6,2.9-3.6,4.5c-2.3,3.5-5.3,6.7-9.1,8.4s-8.6,1.5-11.9-1.2c-2.9-2.3-4.2-6.2-7-8.7
				c-2.7-2.4-6.4-3.3-10-2.4c-3.5,0.9-7.6,2-11.1,0.1c-2.6-1.4-4-4.2-6.1-6.3c-2.1-2.1-4.8-3.5-7.8-3.9c-1.8-0.3-7.5-0.7-7.7,1.9
				c0-0.2,0-0.4,0-0.5c3.2-6.5,7.2-12.7,11.8-18.3v-22.3c0,1.7,0.3,3.3,0.9,4.9c2.2,6.7,8.8,13,19.3,17.4c2.3,1,4.8,1.8,7.2,2.4
				c15.6,4.4,33.9,3.7,48.4-1.5c5.1-1.7,9.9-4.2,14.2-7.4c3.5-2.5,6.3-5.8,8.2-9.7c0.6,0.7,1.1,1.4,1.6,2.2v13.7c0,0.3,0,0.6,0,1
				c0,0.6,0.4,0.9,0.8,1.4c0.4,0.5,0.9,1.1,1.3,1.6c2.1,3,4,6.1,5.5,9.4c0.1,0.3,0.2,0.6,0.3,0.9
				C-218.7-109.8-218.3-109-217.9-108.3z"/>
			<path id="Trazado_16815" class="st9" d="M-217.9-110.1c-2-1.1-4.1-1-6-2.1c-2.2-1.3-3.6,0.2-4.8,2.2c-2.4,4.1-5.4,8-9.4,10.5l0,0
				c-4,2.4-8.9,3.2-13.1,0.8c-2.2-1.3-4.4-2.9-6.9-3.3c-1.2-0.1-2.4,0-3.5,0.3c-1,0.2-1.9,0.6-2.8,1.1c-1.6,1.1-2.6,2.9-3.6,4.5
				c-2.3,3.5-5.3,6.7-9.1,8.4s-8.6,1.5-11.9-1.2c-2.9-2.3-4.2-6.2-7-8.7c-2.7-2.4-6.4-3.3-10-2.4c-3.5,0.9-7.6,2-11.1,0.1
				c-2.6-1.4-4-4.2-6.1-6.3c-2.1-2.1-4.8-3.5-7.8-3.9c-1.8-0.3-7.5-0.7-7.7,1.9c0.3-4.9,1.9-9.7,3.4-14.4c1-3.3,2.3-6.4,3.9-9.4
				c0.5-0.8,1.1-1.6,1.6-2.5c0.3-0.5,0.6-1,0.8-1.5c0.7-1.6,0.5-3.1,0.8-4.7c0.3-1.6,0.2-3.2,0.5-4.8c0.3-2,0.6-4,1.1-6
				c0.2-0.8,0.4-1.6,0.6-2.3c0,1,0.3,2,0.8,2.8c0.4,0.7,0.7,1.4,0.9,1.8c0.7,1.6,1.5,3.2,2.4,4.8c1.7,3.3,3.9,6.3,6.4,9
				c2.1,2.1,6.1,2.2,9,2.8c4.1,0.9,8.2,1.6,12.3,1.9c16.3,1.2,32.3-4,48.5-6.6c3.7-0.6,8.1,0.2,11.4-1.9c2.5-1.6,2.5-4.5,2.7-7
				c4,3,6.3,7.7,8.5,12.2c1.7,3.4,3.1,7,4.1,10.7l0.1,0.4C-218.2-118.5-217.8-114.3-217.9-110.1z"/>
			<path id="Trazado_16816" class="st10" d="M-227.2-139.5c-0.4,1.2-0.9,2.3-1.6,3.4c-0.9,1.5-1.9,2.9-3.1,4.2
				c-6.2,6.6-14.3,11.2-23.2,13.2c-2.4,0.7-4.9,1.3-7.4,1.8c-7.8,1.5-15.8,1.9-23.7,1.3c-2-0.2-4-0.4-5.9-0.7
				c-12.1-1.8-23.6-5.8-32.2-14.5c-1.1-1.2-2.1-2.6-3-4c-0.4-0.7-0.8-1.5-1.1-2.2c0-1,0-2,0.1-3c0.3,0.7,0.7,1.4,1.1,2
				c0.9,1.4,1.9,2.8,3,4c8.6,8.6,20.1,12.7,32.2,14.5c2,0.3,3.9,0.5,5.9,0.7c7.9,0.6,15.9,0.2,23.7-1.3c2.5-0.5,5-1.1,7.4-1.8
				c8.9-1.9,17-6.5,23.2-13.2c1.2-1.3,2.2-2.7,3.1-4.2c0.6-1,1-2,1.4-3C-227.3-141.4-227.2-140.4-227.2-139.5z"/>
			<path id="Trazado_16817" class="st0" d="M-217.9-110.1c-2-1.1-4.1-1-6-2.1c-2.2-1.3-3.6,0.2-4.8,2.2c-2.4,4.1-5.4,8-9.4,10.5l0,0
				c0.1-7.1-1.3-14.1-4.2-20.6c-9.9,5-21.2,6.7-32.3,7.3c-10.4,0.6-21.1,0.3-31-2.9c-3.5-1.1-6.8-2.6-9.9-4.4
				c-5.5-3.2-10.1-7.6-13.5-13c-0.2-0.4-0.4-0.8-0.6-1.2c0.3-0.5,0.5-1,0.8-1.5c0.7-1.6,0.5-3.1,0.8-4.7c0.3-1.6,0.2-3.2,0.5-4.8
				c0.3-2,0.6-4,1.1-6c0.5,0.2,0.9,0.3,1.4,0.5c0.4,0.7,0.7,1.4,0.9,1.8c0.7,1.6,1.5,3.2,2.4,4.8c1.7,3.3,3.9,6.3,6.4,9
				c2.1,2.1,6.1,2.2,9,2.8c4.1,0.9,8.2,1.6,12.3,1.9c16.3,1.2,32.3-4,48.5-6.6c3.7-0.6,8.1,0.2,11.4-1.9c2.5-1.6,2.5-4.5,2.7-7
				c4,3,6.3,7.7,8.5,12.2c1.7,3.4,3.1,7,4.1,10.7l0.1,0.4C-218.2-118.5-217.8-114.3-217.9-110.1z"/>
			
				<linearGradient id="Trazado_16818_1_" gradientUnits="userSpaceOnUse" x1="-920.485" y1="287.0471" x2="-919.485" y2="287.0471" gradientTransform="matrix(103.863 0 0 -64.0351 95274.7344 18231.3242)">
				<stop  offset="0" style="stop-color:#FFE9B3"/>
				<stop  offset="1" style="stop-color:#FFDA80"/>
			</linearGradient>
			<path id="Trazado_16818" class="st11" d="M-328.9-156.8c1.3-4.3,4.4-8.6,9.3-12.5c17-13.3,49.5-16.5,72.6-7.2
				c11.3,4.6,18.3,11.3,20.4,18.5l0.7-2.4v13.2c-0.1,3.1-1,6.1-2.6,8.7c-0.9,1.5-1.9,2.9-3.1,4.2c-6.2,6.6-14.3,11.2-23.2,13.2
				c-2.4,0.7-4.9,1.3-7.4,1.8c-7.8,1.5-15.8,1.9-23.7,1.3c-2-0.2-4-0.4-5.9-0.6c-12.1-1.8-23.6-5.8-32.2-14.5c-1.1-1.2-2.1-2.6-3-4
				c-1.6-2.6-2.5-5.5-2.7-8.5v-12.4L-328.9-156.8z"/>
			<path id="Trazado_16819" class="st9" d="M-329.6-159.5v1.4c0.2,3,1.1,5.9,2.7,8.5c0.9,1.4,1.9,2.8,3,4
				c8.6,8.6,20.1,12.7,32.2,14.5c2,0.3,3.9,0.5,5.9,0.7c7.9,0.6,15.9,0.2,23.7-1.3c2.5-0.5,5-1.1,7.4-1.8c8.9-1.9,17-6.5,23.2-13.2
				c1.2-1.3,2.2-2.7,3.1-4.2c1.6-2.6,2.5-5.6,2.6-8.7v-1.4c-0.4-8.7-7.7-17.2-21.2-22.6c-23.1-9.3-55.6-6.1-72.6,7.2
				C-326.1-171.3-329.4-165.3-329.6-159.5z"/>
			<g id="Grupo_11376" transform="translate(8.979 0.005)">
				<g id="Grupo_11368" transform="translate(20.216 7.947)">
					<g id="Grupo_11367">
						<path id="Trazado_16820" class="st12" d="M-324-180.5c-3.8,1.9-8.3,1.9-12.1,0c-3.4-1.9-3.4-5.1,0-7c3.8-1.9,8.3-1.9,12.1,0
							C-320.6-185.6-320.6-182.4-324-180.5z"/>
						<path id="Trazado_16821" class="st12" d="M-303.9-169.1c-3.8,1.9-8.3,1.9-12.1,0c-3.4-1.9-3.4-5.1,0-7c3.8-1.9,8.3-1.9,12.1,0
							C-300.6-174.1-300.6-171-303.9-169.1z"/>
						<path id="Trazado_16822" class="st12" d="M-283.9-157.6c-3.8,1.9-8.3,1.9-12.1,0c-3.4-1.9-3.4-5.1,0-7c3.8-1.9,8.3-1.9,12.1,0
							C-280.6-162.7-280.6-159.5-283.9-157.6z"/>
						<path id="Trazado_16823" class="st12" d="M-262.9-152.4c-3.1,2.9-6.7,5.4-10.6,7.2c-0.9-0.2-1.8-0.6-2.6-1
							c-3.4-1.9-3.4-5.1,0-7c3.8-1.9,8.3-1.9,12.1,0C-263.6-153-263.2-152.7-262.9-152.4z"/>
					</g>
				</g>
				<g id="Grupo_11370" transform="translate(0 23.605)">
					<g id="Grupo_11369">
						<path id="Trazado_16824" class="st12" d="M-333.1-180.6c-1.6,0.9-3.4,1.4-5.2,1.4c-0.2-0.8-0.3-1.6-0.3-2.5v-1.4
							c0.1-2,0.5-4,1.3-5.9c1.5,0.2,2.9,0.6,4.2,1.3C-329.8-185.7-329.7-182.6-333.1-180.6z"/>
						<path id="Trazado_16825" class="st12" d="M-313.1-169.2c-3.8,1.9-8.3,1.9-12.1,0c-3.4-1.9-3.4-5.1,0-7c3.8-1.9,8.3-1.9,12.1,0
							C-309.7-174.2-309.7-171.1-313.1-169.2z"/>
						<path id="Trazado_16826" class="st12" d="M-293.1-157.7c-3.8,1.9-8.3,1.9-12.1,0c-3.4-1.9-3.4-5.1,0-7c3.8-1.9,8.3-1.9,12.1,0
							C-289.7-162.8-289.7-159.7-293.1-157.7z"/>
					</g>
				</g>
				<g id="Grupo_11372" transform="translate(45.127)">
					<g id="Grupo_11371">
						<path id="Trazado_16827" class="st12" d="M-322.4-188.6c-0.5,0.8-1.2,1.4-2,1.9c-3.8,1.9-8.3,1.9-12.1,0
							c-0.8-0.4-1.5-1.1-2-1.9C-333.2-189.1-327.8-189.1-322.4-188.6z"/>
						<path id="Trazado_16828" class="st12" d="M-305.2-175.3c-3.8,1.9-8.3,1.9-12.1,0c-3.4-1.9-3.4-5.1,0-7c3.8-1.9,8.3-1.9,12.1,0
							C-301.9-180.3-301.9-177.2-305.2-175.3z"/>
						<path id="Trazado_16829" class="st12" d="M-285.2-163.8c-3.8,1.9-8.3,1.9-12.1,0c-3.4-1.9-3.4-5.1,0-7c3.8-1.9,8.3-1.9,12.1,0
							C-281.9-168.9-281.9-165.7-285.2-163.8z"/>
					</g>
				</g>
				<g id="Grupo_11374" transform="translate(27.606 0.926)">
					<g id="Grupo_11373">
						<path id="Trazado_16830" class="st12" d="M-328-185.5c-3.1,1.5-6.7,1.5-9.7,0c-0.3-0.2-0.7-0.4-0.9-0.7
							c4.1-1.3,8.3-2.2,12.5-2.8C-325.7-187.7-326.3-186.4-328-185.5z"/>
						<path id="Trazado_16831" class="st12" d="M-310.9-176.1c-3.1,1.5-6.7,1.5-9.7,0c-2.7-1.6-2.7-4.1,0-5.6c3.1-1.5,6.7-1.5,9.7,0
							C-308.2-180.1-308.2-177.6-310.9-176.1z"/>
						<path id="Trazado_16832" class="st12" d="M-292-164.6c-3.1,1.5-6.7,1.5-9.7,0c-2.7-1.6-2.7-4.1,0-5.6c3.1-1.5,6.7-1.5,9.7,0
							C-289.3-168.6-289.3-166.1-292-164.6z"/>
						<path id="Trazado_16833" class="st12" d="M-272.1-152.7c-3.1,1.5-6.7,1.5-9.7,0c-2.7-1.6-2.7-4.1,0-5.6c3.1-1.5,6.7-1.5,9.7,0
							C-269.4-156.7-269.4-154.2-272.1-152.7z"/>
					</g>
				</g>
				<g id="Grupo_11375" transform="translate(4.452 11.685)">
					<path id="Trazado_16834" class="st12" d="M-332.2-183.6c-2,1-4.2,1.4-6.4,1c1.6-2.1,3.5-4,5.7-5.6c0.4-0.3,0.7-0.6,1.1-0.8
						C-329.6-187.4-329.7-185.1-332.2-183.6z"/>
					<path id="Trazado_16835" class="st12" d="M-313.4-172.1c-3.1,1.5-6.7,1.5-9.7,0c-2.7-1.6-2.7-4.1,0-5.6c3.1-1.5,6.7-1.5,9.7,0
						C-310.8-176.2-310.8-173.6-313.4-172.1z"/>
					<path id="Trazado_16836" class="st12" d="M-293.6-160.3c-3.1,1.5-6.7,1.5-9.7,0c-2.7-1.6-2.7-4.1,0-5.6c3.1-1.5,6.7-1.5,9.7,0
						C-291-164.3-291-161.8-293.6-160.3z"/>
					<path id="Trazado_16837" class="st12" d="M-272.7-148.1c-3.1,1.5-6.7,1.5-9.7,0c-2.7-1.6-2.7-4.1,0-5.6c3.1-1.5,6.7-1.5,9.7,0
						C-270-152.1-270-149.6-272.7-148.1z"/>
				</g>
			</g>
			<path id="Trazado_16838" class="st13" d="M-228.4-153.1c-0.9,1.5-1.9,2.9-3.1,4.2c-6.2,6.6-14.3,11.2-23.2,13.2
				c-2.4,0.7-4.9,1.3-7.4,1.8c-7.8,1.5-15.8,1.9-23.7,1.3c-2-0.2-4-0.4-5.9-0.7c-12.1-1.8-23.6-5.8-32.2-14.5c-1.1-1.2-2.1-2.6-3-4
				c-1.5-2.5-2.4-5.3-2.7-8.2c0,0.2,0,0.3,0,0.5v1.4c0.2,3,1.1,5.9,2.7,8.5c0.9,1.4,1.9,2.8,3,4c8.6,8.6,20.1,12.7,32.2,14.5
				c2,0.3,3.9,0.5,5.9,0.7c7.9,0.6,15.9,0.2,23.7-1.3c2.5-0.5,5-1.1,7.4-1.8c8.9-1.9,17-6.5,23.2-13.2c1.2-1.3,2.2-2.7,3.1-4.2
				c1.6-2.6,2.5-5.6,2.6-8.7v-1.4c0-0.1,0-0.2,0-0.3C-226-158.5-226.9-155.7-228.4-153.1z"/>
			<path id="Trazado_16839" class="st14" d="M-225.8-161.1v1.4c-0.1,3.1-1.1,6.1-2.7,8.7c-0.9,1.5-1.9,2.9-3.1,4.2
				c-6.2,6.6-14.3,11.2-23.2,13.2c-2.4,0.7-4.9,1.3-7.4,1.8c-7.8,1.5-15.8,1.9-23.7,1.3c-2-0.2-4-0.4-5.9-0.7
				c-11.6-1.7-22.7-5.5-31.1-13.5l87.5-32.6C-229.3-172.5-226.1-166.8-225.8-161.1z"/>
		</g>
	</g>
	<g id="Grupo_11383" transform="translate(26.777 58.767)">
		<g id="Grupo_11379">
			<path id="Trazado_16840" class="st10" d="M-330-172.9c-1.7-0.4-3.4-1.1-4.8-2.1c-1.7-1.2-3-3-3.5-5c-0.6-2.1-0.1-4.4,1.3-6.1
				c1.3-1.5,3.3-2.4,6.2-2.7c1.2-0.1,2.3-0.1,3.5,0c1.5,0.2,2.9,0.7,4.2,1.4c3.3,1.5,6.3,3.7,8.6,6.5c0.5,0.6,0.9,1.2,1.3,1.8
				c0.1,0.2,0.2,0.3,0.3,0.5c0.3-0.2,0.6-0.5,0.8-0.7c0.6-0.5,1.3-1.1,1.9-1.5c1.8-1.2,3.8-2,5.9-2.6c1.1-0.3,2.2-0.5,3.3-0.7
				c2.2-0.3,4.4-0.3,6.6,0c1.2,0.1,2.4,0.4,3.6,0.8c2.1,0.9,3.7,2.7,4.4,4.9c0.7,2.2,0.4,4.5-0.7,6.5c-0.6,1.1-1.5,2-2.6,2.7
				c-1.2,0.7-2.6,1.1-4,1.2c-5,0.5-10.4-1-16-4.7c-1.2-0.7-2.2-1.6-3.2-2.5c-0.2-0.2-0.4-0.4-0.5-0.6c-0.1,0-0.1,0.1-0.2,0.1
				c-1,0.5-2.1,0.9-3.1,1.3c-2.1,0.8-4.2,1.4-6.4,1.7C-325.4-172.4-327.8-172.5-330-172.9z M-327-186.7c-0.2-0.1-0.5-0.1-0.7-0.1
				c-1-0.1-2-0.1-3,0c-2.3,0.2-3.9,0.9-4.9,2c-1,1.2-1.3,2.8-0.9,4.3c0.5,1.6,1.4,2.9,2.8,3.8c2.5,1.8,6.1,2.5,10.2,2
				c2-0.3,4-0.8,6-1.6c0.9-0.3,1.8-0.7,2.8-1.2c-0.1-0.1-0.2-0.3-0.3-0.5c-0.4-0.6-0.7-1.1-1.2-1.7c-2.2-2.6-4.9-4.6-7.9-6
				C-325-186.1-326-186.4-327-186.7z M-311.7-177c0.1,0.1,0.1,0.1,0.2,0.2c0.9,0.8,1.9,1.6,3,2.3c5.2,3.4,10.1,4.9,14.6,4.4
				c1.1-0.1,2.2-0.4,3.1-0.9c0.8-0.5,1.4-1.2,1.8-1.9c0.8-1.5,1-3.2,0.5-4.8c-0.5-1.6-1.7-2.9-3.2-3.6c-0.9-0.4-1.9-0.6-3-0.7
				c-2-0.2-4.1-0.2-6.1,0l0,0c-1,0.1-2.1,0.3-3.1,0.6c-1.9,0.5-3.7,1.3-5.3,2.3c-0.6,0.4-1.2,0.9-1.7,1.4
				C-311.1-177.5-311.4-177.3-311.7-177z"/>
		</g>
		<g id="Grupo_11380">
			<path id="Trazado_16841" class="st15" d="M-322.5-174.5c2-0.3,4-0.8,6-1.6c0.9-0.3,1.8-0.7,2.8-1.2l-0.3-0.5
				c-0.4-0.6-0.7-1.1-1.2-1.7c-2.2-2.6-4.9-4.6-7.9-6c-0.7-0.4-1.5-0.7-2.3-0.9c0.4,0.2,0.9,0.4,1.4,0.6c3,1.4,5.7,3.4,7.9,6
				c0.4,0.5,0.8,1.1,1.2,1.7c0.1,0.2,0.2,0.3,0.3,0.5c-0.9,0.4-1.9,0.8-2.8,1.2c-1.9,0.7-3.9,1.3-6,1.6c-2.3,0.4-4.6,0.2-6.9-0.4
				C-327.8-174.3-325.1-174-322.5-174.5z"/>
			<path id="Trazado_16842" class="st15" d="M-312.3-178.8c0.1,0.2,0.2,0.3,0.3,0.5c0.3-0.2,0.6-0.5,0.8-0.7c0.6-0.5,1.3-1.1,2-1.5
				c1.8-1.2,3.8-2,5.9-2.6c1.1-0.3,2.2-0.5,3.3-0.6c2.2-0.3,4.4-0.3,6.6,0c0.8,0.1,1.7,0.2,2.5,0.4c-1.1-0.4-2.2-0.7-3.4-0.8
				c-2.2-0.2-4.4-0.2-6.6,0c-1.1,0.1-2.2,0.4-3.3,0.7c-2.1,0.6-4.1,1.4-5.9,2.6c-0.7,0.5-1.3,1-1.9,1.5c-0.1,0.1-0.2,0.2-0.4,0.3
				C-312.4-179-312.3-178.9-312.3-178.8z"/>
			<path id="Trazado_16843" class="st15" d="M-293-169.8c1.1-0.1,2.2-0.4,3.1-0.9c0.8-0.5,1.4-1.2,1.8-1.9c0.8-1.5,1-3.2,0.5-4.8
				c-0.5-1.6-1.7-2.9-3.2-3.6c-0.3-0.1-0.6-0.2-0.9-0.3c1.5,0.7,2.7,2,3.2,3.6c0.5,1.6,0.3,3.4-0.5,4.8c-0.4,0.8-1.1,1.5-1.8,1.9
				c-1,0.5-2,0.9-3.1,0.9c-2.4,0.2-4.7,0-7-0.7C-298.4-169.9-295.6-169.6-293-169.8z"/>
			<path id="Trazado_16844" class="st15" d="M-308.7-172.5c-1.2-0.7-2.2-1.6-3.2-2.5c-0.2-0.2-0.4-0.4-0.5-0.6
				c-0.1,0-0.1,0.1-0.2,0.1s-0.1,0.1-0.2,0.1l0,0c1,0.9,2.1,1.8,3.2,2.5c2.2,1.5,4.6,2.7,7.1,3.6
				C-304.7-170.1-306.7-171.2-308.7-172.5z"/>
			<path id="Trazado_16845" class="st15" d="M-333.9-174.8c-1.7-1.2-2.9-3-3.5-5c-0.6-2.1-0.1-4.4,1.3-6.1c1.3-1.5,3.3-2.4,6.2-2.7
				c1.2-0.1,2.3-0.1,3.5,0c0.6,0.1,1.1,0.2,1.7,0.4c-0.8-0.3-1.7-0.6-2.6-0.7c-1.2-0.2-2.3-0.2-3.5,0c-2.9,0.3-4.9,1.2-6.2,2.7
				c-1.4,1.7-1.9,4-1.3,6.1c0.6,2,1.8,3.8,3.5,5c1.2,0.8,2.5,1.5,3.8,1.9C-332-173.6-333-174.1-333.9-174.8z"/>
		</g>
		<g id="Grupo_11381" transform="translate(8.29 10.339)">
			<path id="Trazado_16846" class="st10" d="M-338.6-139.8c0.5-0.8,1-1.6,1.5-2.4c0.3-0.4,0.5-0.8,0.8-1.2c0.2-0.4,0.4-0.7,0.6-1
				c0.2-0.1,0.4-0.3,0.5-0.4c0.9-0.6,1.7-1.3,2.5-2.1c1-1,2-2.1,2.8-3.2c1.7-2.3,3.1-4.8,4.1-7.5c0.8-2.2,1.3-4.5,1.6-6.8
				c0.2-2.7,0.2-5.4,0-8c0-1.2-0.1-2.3-0.1-3.5c-0.1-3.4,0.1-7.9,1.9-11.8c0.2-0.5,0.6-1,1.1-1.2l0.7,1.9c0,0,0.1,0,0.1-0.1
				c0,0.1-0.1,0.1-0.1,0.2c-1.6,3.6-1.8,7.7-1.7,10.9c0,1.1,0.1,2.3,0.1,3.4c0.2,2.8,0.2,5.6,0,8.3c-0.9,8.5-5.3,16.2-12.2,21.3
				L-338.6-139.8z"/>
		</g>
		<g id="Grupo_11382" transform="translate(24.59 12.851)">
			<path id="Trazado_16847" class="st10" d="M-334.9-156.2c-0.1,0.5-0.2,1-0.3,1.6c0,0.1-0.2,0.7-0.1,0.9c-0.4-0.7-0.8-1.4-1.2-2.1
				c-0.1-0.3-0.4-0.7-0.4-1c0.1-0.3,0.2-0.6,0.3-0.9c1.5-4.5,3-9.3,2.3-14.2c-0.4-2.3-1.1-4.6-2-6.7c-1.2-3.3-2.5-6.7-2.2-10.3
				l2.1,0.2c-0.3,3.2,0.9,6.2,2.1,9.5c1,2.3,1.7,4.7,2.1,7.1c0.2,1.5,0.3,2.9,0.1,4.4c-0.2,2.5-0.7,4.9-1.4,7.3
				c-0.3,1.1-0.7,2.2-1.1,3.3C-334.8-156.8-334.9-156.5-334.9-156.2z"/>
		</g>
		<path id="Trazado_16848" class="st15" d="M-310.8-177.6c-0.1,0.2-0.2,0.3-0.3,0.5c-0.2,0.4-0.3,0.8-0.4,1.2
			c-0.3,0.8-0.3,1.7,0,2.5c-0.5,0-1,0.1-1.5,0.1c-0.3,0-0.6,0-0.9,0c-0.4,0-0.8-0.1-1.2-0.2c-0.2-0.1-0.5-0.1-0.6-0.3
			c-0.1-0.2-0.2-0.5-0.1-0.7c-0.2-1.6,0.1-3.2,1-4.5c0-0.1,0.1-0.2,0.2-0.2c0.1,0,0.2-0.1,0.3-0.1c0,0,0,0,0,0
			c0.6-0.1,1.2-0.2,1.9-0.1c0.1,0,0.1,0,0.2,0c0.6,0.2,1.2,0.6,1.6,1.1C-310.5-178.1-310.7-177.9-310.8-177.6z"/>
		<path id="Trazado_16849" class="st16" d="M-313.8-176.4c-0.2,1-0.2,2-0.1,3.1c-0.4,0-0.8-0.1-1.2-0.2c-0.2-0.1-0.5-0.1-0.6-0.3
			c-0.1-0.2-0.2-0.5-0.1-0.7c-0.2-1.6,0.1-3.2,1-4.5c0-0.1,0.1-0.2,0.2-0.2c0.1,0,0.2-0.1,0.3-0.1c0,0,0,0,0,0
			c0.6-0.1,1.2-0.2,1.9-0.1C-313.2-178.6-313.6-177.5-313.8-176.4z"/>
	</g>
</g>
<g id="Grupo_11386" transform="translate(464.569 311.688)">
	<path id="Trazado_16850" class="st0" d="M-256.1-139.9c-3.6,0.5-7.2,0.5-10.8,0.1h0c0,0,0.1,0,0.1,0c0.1,0,0.2,0,0.4-0.1
		c0.2,0,0.5-0.1,0.7-0.1l0.1,0c0.2-0.1,0.5-0.1,0.7-0.2c0.2,0,0.4-0.1,0.5-0.1l0.1,0c0.2-0.1,0.5-0.2,0.7-0.2
		c0.2-0.1,0.4-0.1,0.6-0.2c0.2-0.1,0.5-0.2,0.7-0.3c0.2-0.1,0.3-0.1,0.5-0.2l0,0c0.2-0.1,0.5-0.2,0.7-0.4c0.2-0.1,0.3-0.2,0.5-0.3
		c0.2-0.1,0.5-0.3,0.7-0.4c0.1-0.1,0.3-0.2,0.4-0.2l0,0c0.3-0.2,0.5-0.4,0.7-0.6c0.1-0.1,0.2-0.1,0.2-0.2l0,0l0,0
		c0.1-0.1,0.3-0.3,0.4-0.4s0.2-0.3,0.4-0.4c-0.2,0.2-0.4,0.3-0.7,0.5c-1.4,0.8-2.9,1.4-4.4,1.7c-1.8,0.3-3.6,0.4-5.4,0.2l-0.4,0l0,0
		c0.2,0,0.4-0.1,0.6-0.1c0.3-0.1,0.6-0.2,0.9-0.2l0,0c0.3-0.1,0.6-0.2,0.9-0.3c0.1-0.1,0.3-0.1,0.4-0.2l0.2-0.1
		c0.4-0.2,0.7-0.3,1-0.5c0.1,0,0.1-0.1,0.2-0.1c0.1,0,0.1-0.1,0.2-0.1c0.4-0.2,0.8-0.5,1.1-0.7c1.9-1.4,3.6-2.9,5.2-4.6
		c-0.1,0-0.1,0-0.2,0c-1.8-0.5-3.7-0.6-5.5-0.5c-0.6,0-1.3,0.1-1.9,0.2c-0.6,0.1-1.3,0.3-1.9,0.5c-0.3,0.1-0.5,0.2-0.8,0.3
		c-0.2,0.1-0.4,0.2-0.5,0.3c0,0,0,0,0,0.1c-0.2-0.8-0.2-1.6,0.1-2.4c0.3-0.6,0.7-1.2,1.2-1.6c0.4-0.4,0.9-0.8,1.4-1.2
		c0.3-0.2,0.6-0.3,0.9-0.5c0.2-0.1,0.4-0.1,0.5-0.2l0,0c-0.8,0-1.5,0.1-2.2,0.5c-0.7,0.3-1.4,0.7-2,1.2c-1.1,0.9-1.9,2-2.3,3.4
		c0-0.1,0-0.1,0-0.2c-0.2-1.3-0.1-2.7,0.5-3.9c0.8-1.5,2.1-2.8,3.7-3.5l0.1,0c-1.7-0.2-3.4,0.1-4.9,1c-1.3,0.7-2.3,1.7-3.2,2.8
		c-0.5,0.6-0.9,1.3-1.2,2c-2.4-1.7-5.1-2.9-8-3.5c-4.9-1-9.9-0.9-14.8,0.2c-4.8,1-9.4,2.8-13.6,5.4c-3.9,2.4-7.3,5.3-10.8,7.9
		c-4.7,3.4-9,7.3-13,11.6c-1.1,1.2-1.9,2.9-1,4.1l0.1,0.1c0.9,0.8,2.1,1.4,3.3,1.7c0.7,0.2,1.4,0.4,1.9,0.5c2.3,0.5,4.7,0.9,7.1,1.1
		c3.3,0.4,6.7,0.8,10,1.1c6.8,0.6,13.6,0.8,20.4,0.5c6-0.3,13.2-1,18.3-4c2-1.1,3.7-2.7,5.1-4.5c1-1.3,1.6-2.9,2.1-4.4
		c0.4-1.4,0.5-2.9,0.5-4.4c1.5,0.9,3.3,1.2,5.1,1.1c2.3-0.1,4.4-0.9,6.2-2.3C-256.7-138.7-256.3-139.3-256.1-139.9z"/>
	<g id="Grupo_11385">
		<path id="Trazado_16851" class="st17" d="M-280.9-172.1c-0.3,3.8-3.6,6.5-7.4,6.2c-0.7-0.1-1.3-0.2-2-0.5
			c-0.6-0.2-1.2-0.5-1.8-0.7c-0.1,0-0.2-0.1-0.3-0.1c-0.4-0.2-0.8-0.3-1.2-0.5c-0.7-0.3-1.3-0.5-2-0.8c-0.9-0.4-1.7-0.8-2.6-1.3
			c-0.9-0.5-1.7-1-2.5-1.6c-1.6-1.4-3.1-3-4.3-4.7c-0.6-0.6-1.1-1.2-1.4-1.9c-0.4-1-0.7-2.1-0.9-3.3c-0.3-1.5-0.2-3.1,0.3-4.6
			c0.5-1.5,1.7-2.7,3.2-3.1l0,0.1c-0.7,1.8-0.8,3.7-0.2,5.5c0.6,1.7,1.5,3.3,2.8,4.7c0.1,0.1,0.1,0.1,0.2,0.2
			c-0.7-1.5-1-3.2-0.8-4.8c0.1-0.8,0.3-1.5,0.6-2.2c0.3-0.5,0.9-1.4,1.5-1.5h0c-0.1,0.2-0.2,0.3-0.3,0.4c-0.1,0.3-0.2,0.6-0.3,0.9
			c-0.1,0.6-0.2,1.3-0.2,1.9c0,0.8,0.1,1.6,0.3,2.4c0.4,1,1.1,2,1.9,2.8c0,0,0,0,0-0.1c0-0.2,0.1-0.4,0.2-0.6
			c0.1-0.2,0.3-0.5,0.4-0.7c0.3-0.5,0.7-1,1.2-1.4c0.4-0.4,0.9-0.7,1.4-1c1.5-0.9,3.2-1.5,5-1.7c0.1,0,0.1,0,0.2,0
			c0.1,2.5-0.1,5-0.5,7.5c-0.3,2-1.2,3.8-2.7,5.3l0.3-0.1c1.6-0.5,3-1.4,4.3-2.5c1.1-1,1.9-2.3,2.3-3.8c0.1-0.3,0.1-0.5,0.1-0.8
			c0.1,3.4-1.4,6.7-4.1,8.9c0,0,0,0,0,0c3.1-1.2,6.3-2.4,8.8-4.6C-280.9-173.6-280.8-172.8-280.9-172.1z"/>
		<path id="Trazado_16852" class="st18" d="M-290.8-171.3c0.5-0.3,0.9-0.6,1.4-1c0.3-0.3,0.7-0.6,1-1c0.1-0.1,0.2-0.3,0.4-0.4
			c0.2-0.2,0.3-0.4,0.4-0.6c0-0.1,0.1-0.1,0.1-0.2c-0.2,0.2-0.4,0.4-0.5,0.5c-0.2,0.2-0.3,0.3-0.5,0.5c-0.4,0.3-0.8,0.6-1.2,0.9
			c-0.2,0.1-0.4,0.3-0.6,0.4c-0.3,0.1-0.5,0.3-0.8,0.4l-0.8,0.3c-0.2,0.1-0.3,0.1-0.5,0.2c-0.1,0.1-0.2,0.2-0.2,0.3
			c0,0.1,0.1,0.2,0.1,0.2c0.1,0,0.2,0.1,0.3,0.1C-291.8-170.8-291.3-171-290.8-171.3z"/>
		<path id="Trazado_16853" class="st18" d="M-283.2-172c0.3-0.3,0.5-0.5,0.7-0.9c0-0.1,0.1-0.2,0.2-0.3c-0.2,0.1-0.3,0.2-0.5,0.3
			c-0.1,0.1-0.2,0.2-0.3,0.2c-0.3,0.2-0.6,0.4-0.8,0.5c-0.5,0.3-0.9,0.5-1.4,0.7c-0.6,0.3-1.2,0.5-1.8,0.8c-0.3,0.1-1.5,0.4-1.5,0.8
			c0,0.2,0.3,0.3,0.5,0.2c0.9-0.1,1.9-0.4,2.7-0.8c0.4-0.2,0.8-0.5,1.2-0.8C-283.9-171.4-283.5-171.7-283.2-172z"/>
		<path id="Trazado_16854" class="st19" d="M-296.1-171.9c-0.8-1-1.5-2.1-2.1-3.3c-0.5-1.3-1-2.6-1.5-4c-0.6-1.5-1-3.1-1.1-4.7
			c0-0.7,0.1-1.4,0.4-2.1c0.2-0.4,0.4-0.7,0.7-1h0c-0.1,0.2-0.2,0.3-0.3,0.4c-0.1,0.3-0.2,0.6-0.3,0.9c-0.1,0.6-0.2,1.3-0.2,1.9
			c0,0.8,0.1,1.6,0.3,2.4c0.4,1,1.1,2,1.9,2.8c0,0,0,0,0-0.1c0.1,0.5,0.2,1,0.4,1.4c0.2,0.9,0.5,1.8,0.8,2.7
			c0.1,0.4,0.3,0.9,0.5,1.3c0.1,0.2,0.2,0.5,0.2,0.7C-296.3-172.3-296.2-172.1-296.1-171.9z"/>
		<path id="Trazado_16855" class="st19" d="M-297.6-173.2c-1-0.4-2-0.9-2.9-1.5c-0.5-0.2-0.9-0.6-1.2-1c-0.3-0.6-0.7-1.1-1-1.7
			c-0.6-1.1-1.2-2.3-1.6-3.5c-0.7-1.9-1.2-4-0.6-5.9c0.2-0.6,0.5-1.2,0.9-1.7c0.1-0.2,0.2-0.4,0.4-0.5c-0.7,1.8-0.8,3.7-0.2,5.5
			c0.6,1.7,1.5,3.3,2.8,4.7C-300.1-176.7-298.9-174.9-297.6-173.2z"/>
		<path id="Trazado_16856" class="st19" d="M-290.4-176.6c-0.1,0.6-0.3,1.2-0.4,1.7c-0.2,0.6-0.4,1.1-0.7,1.6c-0.3,0.5-0.6,1-1,1.4
			c-0.1,0.1-0.3,0.3-0.4,0.4c-0.2,0.2-0.3,0.3-0.4,0.5c-0.1,0.1-0.2,0.2-0.3,0.3c-0.1,0.1-0.2,0.2-0.3,0.3c-0.5,0.6-1,1.2-1.5,1.7
			c-0.4,0.4-0.9,0.8-1.4,1c-0.1,0-0.1,0-0.2,0.1c-0.1,0-0.2,0-0.2-0.1c-0.7-0.4-1.4-0.8-2.1-1.1c0.5-0.4,0.9-0.7,1.4-1.2
			c2.1-2,3.9-4.3,5.3-6.9c0.4-0.6,0.7-1.3,1.1-1.9c0.8-1.7,1.3-3.6,1.6-5.4c0.1,0,0.1,0,0.2,0C-289.8-181.6-289.9-179.1-290.4-176.6
			z"/>
		<path id="Trazado_16857" class="st19" d="M-290.1-169.6c0,0-0.1,0.1-0.1,0.2c-0.3,0.4-0.7,0.8-1,1.2c-0.1,0.1-0.2,0.2-0.2,0.3
			c-0.1,0.1-0.2,0.2-0.3,0.3c-0.2,0.2-0.4,0.4-0.6,0.6c-0.2,0.2-0.4,0.3-0.6,0.4c-0.3,0.1-0.8,0.3-1.1,0c-0.1-0.1-0.1-0.2-0.1-0.3
			c0,0,0,0,0-0.1c0,0,0,0,0-0.1c0-0.1,0-0.2,0.1-0.2c0.1-0.1,0.3-0.2,0.4-0.3c0.1-0.1,0.2-0.2,0.3-0.3l0.8-0.6
			c0.5-0.4,1-0.9,1.5-1.3c0.7-0.6,1.3-1.3,1.9-2c0.4-0.5,0.7-0.9,1.1-1.4c0.6-0.9,1.1-1.9,1.5-2.9c0.2-0.5,0.3-1,0.4-1.5
			c0.1-0.3,0.1-0.5,0.1-0.8c0,0.2,0,0.4,0,0.6s0,0.4,0,0.6c0,0.4-0.1,0.9-0.2,1.3c-0.2,0.8-0.4,1.7-0.8,2.5
			c-0.4,0.8-0.8,1.5-1.4,2.2c-0.3,0.3-0.6,0.7-0.9,1c-0.2,0.1-0.3,0.3-0.5,0.4C-289.8-169.8-289.9-169.8-290.1-169.6
			C-290-169.7-290-169.6-290.1-169.6z"/>
		<path id="Trazado_16858" class="st19" d="M-280.9-172.1c-0.3,3.8-3.6,6.5-7.4,6.2c-0.7-0.1-1.3-0.2-2-0.5
			c-0.6-0.2-1.2-0.5-1.8-0.7c0.2,0,0.3,0,0.5,0c0.9-0.1,1.8-0.2,2.8-0.4c1.6-0.3,3.1-0.8,4.4-1.7c0.1-0.1,0.2-0.2,0.3-0.3
			c0.6-0.5,1.2-1.1,1.7-1.8c0.5-0.6,0.9-1.4,1.1-2.2c0-0.3,0-0.5,0-0.8l0,0C-280.9-173.6-280.8-172.8-280.9-172.1z"/>
		
			<linearGradient id="Trazado_16859_1_" gradientUnits="userSpaceOnUse" x1="-1031.8535" y1="164.0466" x2="-1031.1836" y2="163.1996" gradientTransform="matrix(54.7396 0 0 -56.7897 56153.207 9148.7734)">
			<stop  offset="0" style="stop-color:#FF7666"/>
			<stop  offset="1" style="stop-color:#BC1B09"/>
		</linearGradient>
		<path id="Trazado_16859" class="st20" d="M-284.6-147.5c-1.8,5.5-7.2,9.3-11.9,12.1c-5.5,3.2-11.2,5.8-17.2,7.9
			c-3,1.1-6.1,2-9.2,2.9c-2.2,0.7-4.5,1.3-6.8,1.7c-0.6,0.1-1.3,0.1-2,0.2c-1.4,0.2-2.8,0-4.1-0.5l-0.2-0.1
			c-1.7-1.1-2.5-3.3-2.5-5.2c-0.3-6.3,0.2-12.6,1.2-18.8c0.8-4.5,1.2-9.2,2.5-13.6c1.2-4.5,3.6-8.6,6.8-11.9
			c3.3-3.3,7.5-5.5,12.1-6.3c8.3-1.3,15.7,2.9,21.9,7.8c1.7,1.4,3.3,3.1,4.5,5c1.3,1.8,2.4,3.6,3.4,5.6c0.9,1.9,1.6,3.9,1.9,6
			C-283.7-152.3-283.8-149.8-284.6-147.5z"/>
		<path id="Trazado_16860" class="st6" d="M-287.6-162.7c-0.4,1.2-0.9,2.3-1.6,3.4c-1.2,1.6-2.7,3-4.4,4c-5.1,3.3-11,4.9-16.9,5.8
			c-3.8,0.5-7.8,0.8-11.4,2.1c-4.7,1.8-9.4,5-14.3,1.6c-0.2-0.1-0.4-0.3-0.5-0.4c0.1-0.5,0.1-0.9,0.2-1.4c0.7-4.4,1.2-9,2.4-13.3
			c1.2-4.4,3.5-8.4,6.7-11.6c3.2-3.2,7.3-5.4,11.8-6.2c8.1-1.3,15.3,2.8,21.4,7.6c1.7,1.4,3.2,3.1,4.4,4.9
			C-289.1-165.1-288.4-163.9-287.6-162.7z"/>
		<path id="Trazado_16861" class="st21" d="M-284.6-147.5c-1.8,5.5-7.2,9.3-11.9,12.1c-5.5,3.2-11.2,5.8-17.2,7.9
			c-3,1.1-6.1,2-9.2,2.9c-2.2,0.7-4.5,1.3-6.8,1.7c-0.6,0.1-1.3,0.1-2,0.2c-1.4,0.2-2.8,0-4.1-0.5l-0.2-0.1c9-2.6,17.7-6.2,26-10.7
			c6.8-3.8,13.6-8.8,18-15.2c2.3-3.6,4.3-7.5,6-11.5c0.9,1.9,1.6,3.9,1.9,6C-283.7-152.3-283.8-149.8-284.6-147.5z"/>
		<path id="Trazado_16862" class="st18" d="M-296.6-180.9c-0.4,0.5-0.7,1-0.9,1.5c-0.2,0.3-0.2,0.6-0.2,0.9c0.1,0.4,0.6,0.6,0.9,0.4
			c0.4-0.2,0.6-0.8,0.8-1.1c0.3-0.5,0.6-0.9,1-1.4c0.4-0.5,0.9-1,1.4-1.5c0.5-0.4,1-0.8,1.6-1.1c0,0-0.2,0-0.2,0s-0.1,0-0.2,0
			c-0.2,0-0.3,0.1-0.5,0.1c-0.3,0.1-0.6,0.2-0.9,0.3c-0.6,0.2-1.2,0.5-1.7,0.9C-295.9-181.5-296.3-181.2-296.6-180.9z"/>
		<path id="Trazado_16863" class="st18" d="M-306.8-185.1c-0.2,0.6-0.3,1.2-0.3,1.9c0,0.6,0.2,1.3,0.6,1.8c0.1,0.1,0.2,0.2,0.3,0.2
			c0.1,0.1,0.2,0,0.3,0c0.1-0.1,0.1-0.2,0.1-0.3c0.1-0.8,0.1-1.7,0-2.5c0-1.4,0.3-2.8,1-4C-305.8-187.3-306.5-186.3-306.8-185.1z"/>
		<path id="Trazado_16864" class="st18" d="M-301.7-182.4c0,0.4,0.1,0.9,0.2,1.3c0,0.3,0.2,0.6,0.4,0.8c0,0,0.1,0,0.2,0
			c0.1,0,0.1-0.2,0.1-0.3c-0.1-0.9-0.2-1.8-0.4-2.7c0-0.6,0.1-1.2,0.3-1.8c0.1-0.3,0.2-0.6,0.3-0.8c0.1-0.2,0.2-0.4,0.3-0.6
			c-0.3,0.3-0.5,0.6-0.7,1c-0.3,0.6-0.5,1.3-0.6,1.9C-301.7-183.2-301.7-182.8-301.7-182.4z"/>
		<path id="Trazado_16865" class="st22" d="M-320.1-176.7c-1,0.5-1.7,1.3-2,2.4c0,0.1,0,0.3,0.1,0.4c0.1,0.1,0.2,0.1,0.3,0.1
			c1.7,0.1,3.3-0.6,4.4-1.9C-315.9-177.7-319.1-177.2-320.1-176.7z"/>
		<path id="Trazado_16866" class="st9" d="M-319.9-176.3c-0.6,0.3-1.1,0.8-1.2,1.5c0,0.1,0,0.2,0,0.2c0.1,0,0.1,0.1,0.2,0
			c1,0,2-0.4,2.7-1.1C-317.3-176.9-319.3-176.6-319.9-176.3z"/>
		<path id="Trazado_16867" class="st22" d="M-308.4-175.3c-1,0.5-1.7,1.3-2,2.4c-0.1,0.2,0,0.3,0.1,0.4c0.1,0,0.1,0,0.2,0
			c1.7,0.1,3.3-0.6,4.4-1.9C-304.2-176.3-307.4-175.8-308.4-175.3z"/>
		<path id="Trazado_16868" class="st22" d="M-297.7-167.3c-1,0.5-1.7,1.3-2,2.4c0,0.1,0,0.3,0.1,0.4c0.1,0.1,0.2,0.1,0.3,0.1
			c1.7,0.1,3.3-0.6,4.4-1.9C-293.5-168.3-296.7-167.8-297.7-167.3z"/>
		<path id="Trazado_16869" class="st22" d="M-323.2-167c-0.8,0.7-1.2,1.8-1.2,2.9c0,0.1,0.1,0.3,0.2,0.3c0.1,0,0.2,0,0.3,0
			c1.6-0.4,2.9-1.6,3.6-3.1C-319.5-169.2-322.4-167.8-323.2-167z"/>
		<path id="Trazado_16870" class="st9" d="M-322.9-166.7c-0.5,0.5-0.8,1.2-0.8,1.9c0,0.1,0,0.2,0.1,0.2c0.1,0,0.1,0,0.2,0
			c1.1-0.3,1.9-1,2.4-2C-320.5-168.1-322.4-167.2-322.9-166.7z"/>
		<path id="Trazado_16871" class="st22" d="M-311.5-165.7c-0.8,0.7-1.2,1.8-1.2,2.9c0,0.1,0.1,0.3,0.2,0.3c0.1,0,0.2,0,0.3,0
			c1.6-0.4,2.9-1.6,3.6-3.1C-307.8-167.9-310.7-166.5-311.5-165.7z"/>
		<path id="Trazado_16872" class="st22" d="M-305.5-157.9c-1,0.4-1.8,1.2-2.1,2.3c0,0.1,0,0.3,0,0.4c0.1,0.1,0.2,0.1,0.3,0.1
			c1.7,0.2,3.3-0.4,4.5-1.6C-301.3-158.6-304.5-158.3-305.5-157.9z"/>
		<path id="Trazado_16873" class="st22" d="M-332.4-162.9c-0.5,1-0.6,2.1-0.2,3.1c0.1,0.1,0.1,0.2,0.3,0.3c0.1,0,0.2,0,0.3-0.1
			c1.4-0.9,2.3-2.4,2.5-4.1C-329.5-166.1-331.8-163.9-332.4-162.9z"/>
		<path id="Trazado_16874" class="st9" d="M-331.9-162.6c-0.3,0.6-0.4,1.2-0.1,1.8c0,0.1,0.1,0.1,0.2,0.2c0.1,0,0.1,0,0.2-0.1
			c0.8-0.5,1.3-1.4,1.4-2.4C-330.2-164.5-331.6-163.2-331.9-162.6z"/>
		<path id="Trazado_16875" class="st22" d="M-330.4-153.4c-0.4,1-0.3,2.2,0.3,3.1c0.1,0.1,0.2,0.2,0.3,0.2c0.1,0,0.2-0.1,0.3-0.1
			c1.2-1.1,1.9-2.8,1.8-4.4C-328.1-157-330-154.5-330.4-153.4z"/>
		<path id="Trazado_16876" class="st22" d="M-319.6-153.3c-0.7,0.8-1,1.9-0.9,3c0,0.1,0.1,0.2,0.2,0.3c0.1,0,0.2,0,0.3,0
			c1.6-0.6,2.8-1.9,3.3-3.5C-316.2-155.8-318.9-154.1-319.6-153.3z"/>
		<path id="Trazado_16877" class="st22" d="M-336.2-145.4c-0.2,1.1,0.1,2.2,0.8,3c0.1,0.1,0.2,0.2,0.3,0.2c0.1,0,0.2-0.1,0.2-0.2
			c1-1.3,1.4-3,1-4.7C-334.6-149.3-336.1-146.5-336.2-145.4z"/>
		<path id="Trazado_16878" class="st9" d="M-335.7-145.3c-0.1,0.6,0.1,1.3,0.5,1.8c0,0.1,0.1,0.1,0.2,0.1c0.1,0,0.1-0.1,0.1-0.1
			c0.6-0.8,0.8-1.8,0.6-2.8C-334.7-147.7-335.6-145.9-335.7-145.3z"/>
		<path id="Trazado_16879" class="st23" d="M-323.2-143.1c-0.6,0.9-0.8,2-0.5,3.1c0,0.1,0.1,0.3,0.2,0.3c0.1,0,0.2,0,0.3-0.1
			c1.5-0.8,2.5-2.2,2.9-3.8C-320.1-146-322.6-144.1-323.2-143.1z"/>
		<path id="Trazado_16880" class="st23" d="M-309.6-148.1c-0.9,0.7-1.4,1.7-1.4,2.8c0,0.1,0,0.3,0.2,0.3c0.1,0,0.2,0,0.3,0
			c1.6-0.3,3-1.4,3.8-2.8C-305.8-150-308.7-148.8-309.6-148.1z"/>
		<path id="Trazado_16881" class="st23" d="M-323.5-134.2c-0.9,0.7-1.4,1.7-1.4,2.8c0,0.1,0,0.3,0.1,0.3c0.1,0,0.2,0,0.3,0
			c1.6-0.3,3-1.4,3.8-2.8C-319.6-136.1-322.6-134.9-323.5-134.2z"/>
		<path id="Trazado_16882" class="st23" d="M-311.6-137.1c-0.9,0.7-1.4,1.7-1.4,2.8c0,0.1,0,0.3,0.2,0.3c0.1,0,0.2,0,0.3,0
			c1.6-0.3,3-1.4,3.8-2.9C-307.8-139.1-310.8-137.9-311.6-137.1z"/>
		<path id="Trazado_16883" class="st23" d="M-295.2-152.1c-0.9,0.7-1.4,1.7-1.4,2.8c0,0.1,0,0.3,0.2,0.3c0.1,0,0.2,0,0.3,0
			c1.6-0.3,3-1.4,3.8-2.9C-291.4-154-294.4-152.8-295.2-152.1z"/>
		<path id="Trazado_16884" class="st23" d="M-332.2-136.8c-0.2,1.1,0.1,2.2,0.8,3c0.1,0.1,0.2,0.2,0.3,0.2c0.1,0,0.2-0.1,0.2-0.2
			c1-1.3,1.4-3,1-4.7C-330.6-140.7-332.1-137.9-332.2-136.8z"/>
		<path id="Trazado_16885" class="st23" d="M-337.1-129.9c-0.2,1.1,0.1,2.2,0.8,3c0.1,0.1,0.2,0.2,0.3,0.2c0.1,0,0.2-0.1,0.2-0.2
			c1-1.3,1.4-3.1,1-4.7C-335.5-133.8-337-131-337.1-129.9z"/>
		<path id="Trazado_16886" class="st9" d="M-329.8-153.2c-0.2,0.6-0.1,1.2,0.2,1.8c0,0.1,0.1,0.1,0.2,0.1c0,0,0.1,0,0.1-0.1
			c0.7-0.7,1.1-1.6,1-2.5C-328.6-155.3-329.6-153.8-329.8-153.2z"/>
		<path id="Trazado_16887" class="st9" d="M-308.2-174.8c-0.6,0.3-1,0.8-1.2,1.4c0,0.1,0,0.2,0,0.2c0.1,0,0.1,0.1,0.2,0
			c1,0,2-0.4,2.6-1.1C-305.7-175.4-307.6-175.2-308.2-174.8z"/>
		<path id="Trazado_16888" class="st9" d="M-311.1-165.3c-0.5,0.4-0.7,1-0.7,1.6c0,0.1,0,0.1,0.1,0.2c0.1,0,0.1,0,0.2,0
			c0.9-0.3,1.7-0.9,2.1-1.7C-309-166.5-310.6-165.7-311.1-165.3z"/>
		<path id="Trazado_16889" class="st9" d="M-297.4-166.8c-0.6,0.3-1,0.8-1.1,1.4c0,0.1,0,0.2,0.1,0.2c0,0,0.1,0,0.1,0
			c0.9,0,1.8-0.4,2.5-1C-295.1-167.3-296.9-167.1-297.4-166.8z"/>
		<path id="Trazado_16890" class="st9" d="M-305.4-157.5c-0.7,0.3-1.2,0.8-1.4,1.5c-0.1,0.1,0,0.2,0.1,0.3c0,0,0.1,0,0.1,0
			c1.1,0.1,2.2-0.3,3-1.1C-302.5-158-304.7-157.8-305.4-157.5z"/>
		<path id="Trazado_16891" class="st9" d="M-319.2-152.9c-0.4,0.5-0.6,1.1-0.5,1.7c0,0.1,0.1,0.2,0.2,0.2c0,0,0.1,0,0.1,0
			c0.9-0.4,1.6-1.1,1.9-2C-317.2-154.4-318.8-153.4-319.2-152.9z"/>
		<path id="Trazado_16892" class="st24" d="M-322.8-142.8c-0.4,0.5-0.5,1.1-0.3,1.7c0,0.1,0.1,0.1,0.1,0.2c0.1,0,0.1,0,0.2,0
			c0.8-0.4,1.4-1.2,1.6-2.2C-321-144.4-322.4-143.3-322.8-142.8z"/>
		<path id="Trazado_16893" class="st24" d="M-331.7-136.7c-0.1,0.6,0.1,1.3,0.5,1.7c0,0.1,0.1,0.1,0.2,0.1c0.1,0,0.1-0.1,0.1-0.1
			c0.6-0.8,0.8-1.8,0.6-2.7C-330.7-139-331.6-137.3-331.7-136.7z"/>
		<path id="Trazado_16894" class="st24" d="M-323.1-133.7c-0.5,0.4-0.7,0.9-0.7,1.5c0,0.1,0,0.2,0.1,0.2c0,0,0.1,0,0.1,0
			c0.9-0.2,1.7-0.8,2.1-1.5C-321-134.8-322.6-134.1-323.1-133.7z"/>
		<path id="Trazado_16895" class="st24" d="M-336.8-129.8c-0.1,0.8,0.1,1.6,0.6,2.2c0.1,0.1,0.2,0.1,0.3,0.1c0.1,0,0.1-0.1,0.2-0.1
			c0.7-1,1-2.3,0.7-3.5C-335.6-132.8-336.7-130.6-336.8-129.8z"/>
		<path id="Trazado_16896" class="st24" d="M-311.2-136.6c-0.4,0.3-0.7,0.9-0.7,1.4c0,0.1,0,0.1,0.1,0.2c0,0,0.1,0,0.2,0
			c0.8-0.2,1.5-0.7,1.9-1.4C-309.3-137.6-310.8-137-311.2-136.6z"/>
		<path id="Trazado_16897" class="st24" d="M-309.2-147.7c-0.5,0.4-0.8,1-0.8,1.7c0,0.1,0,0.2,0.1,0.2c0.1,0,0.1,0,0.2,0
			c1-0.2,1.8-0.8,2.3-1.7C-307-148.8-308.7-148.1-309.2-147.7z"/>
		<path id="Trazado_16898" class="st24" d="M-294.8-151.6c-0.5,0.4-0.7,0.9-0.7,1.5c0,0.1,0,0.1,0.1,0.2c0.1,0,0.1,0,0.2,0
			c0.9-0.2,1.7-0.8,2.1-1.6C-292.7-152.7-294.4-152-294.8-151.6z"/>
	</g>
</g>
</svg>
