<?xml version="1.0" encoding="utf-8"?>
<!-- Generator: Adobe Illustrator 24.2.0, SVG Export Plug-In . SVG Version: 6.00 Build 0)  -->
<svg version="1.1" id="Capa_1" xmlns="http://www.w3.org/2000/svg" xmlns:xlink="http://www.w3.org/1999/xlink" x="0px" y="0px"
	 viewBox="0 0 872 110" style="enable-background:new 0 0 872 110;" xml:space="preserve">
<style type="text/css">
	.st0{opacity:0.49;fill:#80CBC4;enable-background:new    ;}
	.st1{enable-background:new    ;}
	.st2{fill:#00223D;}
	.st3{fill:#FFE37B;}
	.st4{fill:none;}
	.st5{fill-rule:evenodd;clip-rule:evenodd;fill:#266165;}
</style>
<g id="Grupo_11414" transform="translate(-134 -4180)">
	<g id="Grupo_6761" transform="translate(143 4187)">
		<g transform="matrix(1, 0, 0, 1, -9, -7)">
			<path id="Rectángulo_902-3" class="st0" d="M21,7h367c6.6,0,12,5.4,12,12v67c0,6.6-5.4,12-12,12H21c-6.6,0-12-5.4-12-12V19
				C9,12.4,14.4,7,21,7z"/>
		</g>
	</g>
	<g id="Grupo_6762" transform="translate(586 4187)">
		<g transform="matrix(1, 0, 0, 1, -452, -7)">
			<path id="Rectángulo_902-4" class="st0" d="M464,7h387c6.6,0,12,5.4,12,12v67c0,6.6-5.4,12-12,12H464c-6.6,0-12-5.4-12-12V19
				C452,12.4,457.4,7,464,7z"/>
		</g>
	</g>
	<g class="st1">
		<path class="st2" d="M164.4,4203c-1.1,0-1.9,0.4-2.5,1.1c-0.6,0.8-0.9,1.8-0.9,3.1c0,1.4,0.3,2.5,0.9,3.2c0.6,0.7,1.4,1.1,2.6,1.1
			c0.5,0,1,0,1.4-0.1s0.9-0.2,1.4-0.4v1.6c-0.9,0.3-1.9,0.5-3,0.5c-1.7,0-3-0.5-3.9-1.5c-0.9-1-1.3-2.5-1.3-4.3
			c0-1.2,0.2-2.2,0.7-3.1c0.4-0.9,1.1-1.6,1.9-2c0.8-0.5,1.8-0.7,2.9-0.7c1.2,0,2.2,0.2,3.2,0.7l-0.7,1.6c-0.4-0.2-0.8-0.3-1.2-0.5
			S164.8,4203,164.4,4203z"/>
		<path class="st2" d="M177.1,4208.7c0,1.4-0.4,2.5-1.1,3.3c-0.7,0.8-1.7,1.2-3,1.2c-0.8,0-1.5-0.2-2.1-0.5
			c-0.6-0.4-1.1-0.9-1.4-1.6c-0.3-0.7-0.5-1.5-0.5-2.4c0-1.4,0.4-2.5,1.1-3.3s1.7-1.2,3-1.2c1.3,0,2.2,0.4,3,1.2
			C176.8,4206.2,177.1,4207.3,177.1,4208.7z M170.8,4208.7c0,2,0.7,3,2.2,3c1.5,0,2.2-1,2.2-3c0-2-0.7-3-2.2-3
			c-0.8,0-1.3,0.3-1.7,0.8C171,4207,170.8,4207.7,170.8,4208.7z"/>
		<path class="st2" d="M186.8,4213H185v-5.3c0-0.7-0.1-1.2-0.4-1.5c-0.3-0.3-0.7-0.5-1.3-0.5c-0.8,0-1.3,0.2-1.7,0.7
			s-0.5,1.2-0.5,2.3v4.3h-1.8v-8.6h1.4l0.3,1.1h0.1c0.3-0.4,0.6-0.7,1.1-1c0.5-0.2,1-0.3,1.6-0.3c2.1,0,3.1,1.1,3.1,3.2V4213z"/>
		<path class="st2" d="M195.2,4210.5c0,0.8-0.3,1.5-0.9,1.9c-0.6,0.5-1.5,0.7-2.6,0.7c-1.2,0-2.1-0.2-2.8-0.5v-1.6
			c1,0.5,2,0.7,2.8,0.7c1.1,0,1.7-0.3,1.7-1c0-0.2-0.1-0.4-0.2-0.5s-0.3-0.3-0.6-0.5c-0.3-0.2-0.7-0.3-1.2-0.5c-1-0.4-1.7-0.8-2-1.2
			s-0.5-0.9-0.5-1.5c0-0.7,0.3-1.3,0.9-1.7c0.6-0.4,1.4-0.6,2.4-0.6c1,0,2,0.2,2.9,0.6l-0.6,1.4c-0.9-0.4-1.7-0.6-2.4-0.6
			c-1,0-1.5,0.3-1.5,0.8c0,0.3,0.1,0.5,0.4,0.7c0.3,0.2,0.8,0.4,1.7,0.8c0.7,0.3,1.2,0.5,1.6,0.8c0.3,0.2,0.6,0.5,0.7,0.8
			S195.2,4210.1,195.2,4210.5z"/>
		<path class="st2" d="M200.9,4213.2c-1.3,0-2.4-0.4-3.2-1.2s-1.1-1.9-1.1-3.2c0-1.4,0.4-2.5,1.1-3.3s1.7-1.2,2.9-1.2
			c1.1,0,2,0.3,2.7,1c0.7,0.7,1,1.6,1,2.9v1h-5.8c0,0.8,0.3,1.5,0.7,1.9c0.4,0.5,1,0.7,1.8,0.7c0.5,0,1,0,1.4-0.1
			c0.4-0.1,0.9-0.3,1.4-0.5v1.5c-0.4,0.2-0.9,0.4-1.4,0.5C202.1,4213.1,201.5,4213.2,200.9,4213.2z M200.6,4205.6
			c-0.6,0-1.1,0.2-1.4,0.6s-0.6,0.9-0.6,1.6h3.9c0-0.7-0.2-1.3-0.5-1.6C201.7,4205.8,201.2,4205.6,200.6,4205.6z"/>
		<path class="st2" d="M210.8,4204.2c0.4,0,0.7,0,0.9,0.1l-0.2,1.7c-0.3-0.1-0.5-0.1-0.8-0.1c-0.7,0-1.3,0.2-1.8,0.7
			c-0.5,0.5-0.7,1.1-0.7,1.9v4.5h-1.8v-8.6h1.4l0.2,1.5h0.1c0.3-0.5,0.7-0.9,1.1-1.2S210.2,4204.2,210.8,4204.2z"/>
		<path class="st2" d="M215.3,4213l-3.3-8.6h1.9l1.8,5c0.3,0.8,0.5,1.5,0.5,2h0.1c0-0.4,0.2-1.1,0.5-2l1.8-5h2l-3.3,8.6H215.3z"/>
		<path class="st2" d="M227.3,4213l-0.4-1.2h-0.1c-0.4,0.5-0.8,0.9-1.3,1.1s-1,0.3-1.6,0.3c-0.8,0-1.5-0.2-2-0.7s-0.7-1.1-0.7-1.9
			c0-0.9,0.3-1.6,1-2c0.7-0.5,1.7-0.7,3-0.7l1.5,0v-0.5c0-0.6-0.1-1-0.4-1.2s-0.7-0.4-1.2-0.4c-0.4,0-0.9,0.1-1.3,0.2
			s-0.8,0.3-1.2,0.5l-0.6-1.3c0.5-0.2,1-0.4,1.5-0.6c0.6-0.1,1.1-0.2,1.6-0.2c1.1,0,1.9,0.2,2.5,0.7c0.6,0.5,0.8,1.2,0.8,2.3v5.8
			H227.3z M224.5,4211.8c0.7,0,1.2-0.2,1.6-0.6c0.4-0.4,0.6-0.9,0.6-1.6v-0.8l-1.1,0c-0.9,0-1.5,0.2-1.9,0.4
			c-0.4,0.3-0.6,0.7-0.6,1.2c0,0.4,0.1,0.7,0.3,0.9C223.7,4211.6,224.1,4211.8,224.5,4211.8z"/>
		<path class="st2" d="M236.9,4210.5c0,0.8-0.3,1.5-0.9,1.9c-0.6,0.5-1.5,0.7-2.6,0.7c-1.2,0-2.1-0.2-2.8-0.5v-1.6
			c1,0.5,2,0.7,2.8,0.7c1.1,0,1.7-0.3,1.7-1c0-0.2-0.1-0.4-0.2-0.5s-0.3-0.3-0.6-0.5c-0.3-0.2-0.7-0.3-1.2-0.5c-1-0.4-1.7-0.8-2-1.2
			s-0.5-0.9-0.5-1.5c0-0.7,0.3-1.3,0.9-1.7c0.6-0.4,1.4-0.6,2.4-0.6c1,0,2,0.2,2.9,0.6l-0.6,1.4c-0.9-0.4-1.7-0.6-2.4-0.6
			c-1,0-1.5,0.3-1.5,0.8c0,0.3,0.1,0.5,0.4,0.7c0.3,0.2,0.8,0.4,1.7,0.8c0.7,0.3,1.2,0.5,1.6,0.8c0.3,0.2,0.6,0.5,0.7,0.8
			S236.9,4210.1,236.9,4210.5z"/>
		<path class="st2" d="M248.5,4213l-0.4-1.2h-0.1c-0.4,0.5-0.8,0.9-1.3,1.1s-1,0.3-1.6,0.3c-0.8,0-1.5-0.2-2-0.7s-0.7-1.1-0.7-1.9
			c0-0.9,0.3-1.6,1-2c0.7-0.5,1.7-0.7,3-0.7l1.5,0v-0.5c0-0.6-0.1-1-0.4-1.2s-0.7-0.4-1.2-0.4c-0.4,0-0.9,0.1-1.3,0.2
			s-0.8,0.3-1.2,0.5l-0.6-1.3c0.5-0.2,1-0.4,1.5-0.6c0.6-0.1,1.1-0.2,1.6-0.2c1.1,0,1.9,0.2,2.5,0.7c0.6,0.5,0.8,1.2,0.8,2.3v5.8
			H248.5z M245.8,4211.8c0.7,0,1.2-0.2,1.6-0.6c0.4-0.4,0.6-0.9,0.6-1.6v-0.8l-1.1,0c-0.9,0-1.5,0.2-1.9,0.4
			c-0.4,0.3-0.6,0.7-0.6,1.2c0,0.4,0.1,0.7,0.3,0.9C244.9,4211.6,245.3,4211.8,245.8,4211.8z M245.2,4203.3v-0.2
			c0.3-0.4,0.6-0.8,0.9-1.2c0.3-0.4,0.6-0.8,0.7-1.1h2.1v0.2c-0.3,0.3-0.7,0.7-1.2,1.2s-1,0.9-1.4,1.2H245.2z"/>
		<path class="st2" d="M255.8,4213.2c-1.3,0-2.3-0.4-3-1.1s-1-1.9-1-3.3c0-1.5,0.4-2.6,1.1-3.4s1.7-1.2,3.1-1.2
			c0.9,0,1.7,0.2,2.5,0.5l-0.6,1.5c-0.8-0.3-1.4-0.5-1.9-0.5c-1.5,0-2.2,1-2.2,3c0,1,0.2,1.7,0.6,2.2c0.4,0.5,0.9,0.7,1.6,0.7
			c0.8,0,1.6-0.2,2.3-0.6v1.6c-0.3,0.2-0.7,0.3-1.1,0.4C256.8,4213.1,256.4,4213.2,255.8,4213.2z"/>
		<path class="st2" d="M260.2,4202.1c0-0.3,0.1-0.6,0.3-0.8s0.4-0.3,0.8-0.3c0.3,0,0.6,0.1,0.8,0.3s0.3,0.4,0.3,0.8
			c0,0.3-0.1,0.6-0.3,0.7s-0.4,0.3-0.8,0.3c-0.3,0-0.6-0.1-0.8-0.3S260.2,4202.4,260.2,4202.1z M262.1,4213h-1.8v-8.6h1.8V4213z"/>
		<path class="st2" d="M267.7,4213.2c-1.1,0-1.9-0.4-2.5-1.2c-0.6-0.8-0.9-1.9-0.9-3.3c0-1.4,0.3-2.5,0.9-3.3
			c0.6-0.8,1.5-1.2,2.5-1.2c1.1,0,2,0.4,2.6,1.3h0.1c-0.1-0.6-0.1-1.1-0.1-1.5v-3.1h1.8v12.2h-1.4l-0.3-1.1h-0.1
			C269.7,4212.7,268.8,4213.2,267.7,4213.2z M268.1,4211.7c0.8,0,1.3-0.2,1.6-0.6s0.5-1.1,0.5-2.1v-0.3c0-1.1-0.2-1.9-0.5-2.3
			c-0.4-0.5-0.9-0.7-1.7-0.7c-0.6,0-1.1,0.3-1.5,0.8c-0.3,0.5-0.5,1.3-0.5,2.2c0,1,0.2,1.7,0.5,2.2
			C267,4211.4,267.5,4211.7,268.1,4211.7z"/>
		<path class="st2" d="M280.1,4213l-0.4-1.2h-0.1c-0.4,0.5-0.8,0.9-1.3,1.1s-1,0.3-1.6,0.3c-0.8,0-1.5-0.2-2-0.7s-0.7-1.1-0.7-1.9
			c0-0.9,0.3-1.6,1-2c0.7-0.5,1.7-0.7,3-0.7l1.5,0v-0.5c0-0.6-0.1-1-0.4-1.2s-0.7-0.4-1.2-0.4c-0.4,0-0.9,0.1-1.3,0.2
			s-0.8,0.3-1.2,0.5l-0.6-1.3c0.5-0.2,1-0.4,1.5-0.6c0.6-0.1,1.1-0.2,1.6-0.2c1.1,0,1.9,0.2,2.5,0.7c0.6,0.5,0.8,1.2,0.8,2.3v5.8
			H280.1z M277.4,4211.8c0.7,0,1.2-0.2,1.6-0.6c0.4-0.4,0.6-0.9,0.6-1.6v-0.8l-1.1,0c-0.9,0-1.5,0.2-1.9,0.4
			c-0.4,0.3-0.6,0.7-0.6,1.2c0,0.4,0.1,0.7,0.3,0.9C276.6,4211.6,276.9,4211.8,277.4,4211.8z"/>
		<path class="st2" d="M289.8,4210.5c0,0.8-0.3,1.5-0.9,1.9c-0.6,0.5-1.5,0.7-2.6,0.7c-1.2,0-2.1-0.2-2.8-0.5v-1.6
			c1,0.5,2,0.7,2.8,0.7c1.1,0,1.7-0.3,1.7-1c0-0.2-0.1-0.4-0.2-0.5s-0.3-0.3-0.6-0.5c-0.3-0.2-0.7-0.3-1.2-0.5c-1-0.4-1.7-0.8-2-1.2
			s-0.5-0.9-0.5-1.5c0-0.7,0.3-1.3,0.9-1.7c0.6-0.4,1.4-0.6,2.4-0.6c1,0,2,0.2,2.9,0.6l-0.6,1.4c-0.9-0.4-1.7-0.6-2.4-0.6
			c-1,0-1.5,0.3-1.5,0.8c0,0.3,0.1,0.5,0.4,0.7c0.3,0.2,0.8,0.4,1.7,0.8c0.7,0.3,1.2,0.5,1.6,0.8c0.3,0.2,0.6,0.5,0.7,0.8
			S289.8,4210.1,289.8,4210.5z"/>
		<path class="st2" d="M291.5,4205.4c0-0.8,0.4-1.2,1.2-1.2c0.4,0,0.7,0.1,0.9,0.3c0.2,0.2,0.3,0.5,0.3,0.9s-0.1,0.7-0.3,0.9
			c-0.2,0.2-0.5,0.3-0.9,0.3s-0.7-0.1-0.9-0.3C291.6,4206,291.5,4205.7,291.5,4205.4z M291.5,4212c0-0.4,0.1-0.7,0.3-0.9
			c0.2-0.2,0.5-0.3,0.9-0.3c0.4,0,0.7,0.1,0.9,0.3c0.2,0.2,0.3,0.5,0.3,0.9c0,0.4-0.1,0.7-0.3,0.9c-0.2,0.2-0.5,0.3-0.9,0.3
			s-0.7-0.1-0.9-0.3C291.6,4212.7,291.5,4212.4,291.5,4212z"/>
	</g>
	<g class="st1">
		<path class="st2" d="M163.4,4231.2c0-0.6,0.1-1.1,0.4-1.4c0.3-0.3,0.7-0.5,1.3-0.5c0.5,0,1,0.2,1.3,0.5c0.3,0.3,0.5,0.8,0.5,1.4
			c0,0.6-0.1,1.1-0.4,1.4c-0.3,0.3-0.7,0.5-1.3,0.5c-0.6,0-1-0.2-1.3-0.5S163.4,4231.8,163.4,4231.2z"/>
		<path class="st2" d="M180.3,4234c0,1-0.4,1.8-1.1,2.4c-0.7,0.6-1.7,0.8-3,0.8c-1.4,0-2.4-0.2-3.1-0.5v-1.3c0.5,0.2,1,0.4,1.5,0.5
			c0.6,0.1,1.1,0.2,1.6,0.2c0.9,0,1.6-0.2,2-0.5c0.4-0.3,0.7-0.8,0.7-1.4c0-0.4-0.1-0.7-0.2-1c-0.2-0.3-0.4-0.5-0.8-0.7
			c-0.4-0.2-0.9-0.5-1.7-0.7c-1.1-0.4-1.8-0.8-2.3-1.4c-0.5-0.5-0.7-1.2-0.7-2c0-0.9,0.3-1.6,1-2.1c0.7-0.5,1.5-0.8,2.6-0.8
			c1.1,0,2.2,0.2,3.1,0.6l-0.4,1.2c-0.9-0.4-1.9-0.6-2.8-0.6c-0.7,0-1.3,0.2-1.6,0.5c-0.4,0.3-0.6,0.7-0.6,1.3c0,0.4,0.1,0.7,0.2,1
			c0.1,0.3,0.4,0.5,0.7,0.7c0.3,0.2,0.9,0.4,1.6,0.7c1.2,0.4,2,0.9,2.5,1.4C180.1,4232.5,180.3,4233.2,180.3,4234z"/>
		<path class="st2" d="M183.7,4228.4v5.6c0,0.7,0.2,1.2,0.5,1.6c0.3,0.3,0.8,0.5,1.5,0.5c0.9,0,1.6-0.2,2-0.7s0.6-1.3,0.6-2.4v-4.5
			h1.3v8.6h-1.1l-0.2-1.1h-0.1c-0.3,0.4-0.6,0.7-1.1,1c-0.5,0.2-1,0.3-1.6,0.3c-1,0-1.8-0.2-2.3-0.7c-0.5-0.5-0.8-1.3-0.8-2.4v-5.6
			H183.7z"/>
		<path class="st2" d="M200.4,4237.2c-0.6,0-1.1-0.1-1.5-0.3s-0.8-0.5-1.2-0.9h-0.1c0.1,0.5,0.1,1,0.1,1.4v3.5h-1.3v-12.4h1.1
			l0.2,1.2h0.1c0.3-0.5,0.7-0.8,1.2-1c0.4-0.2,1-0.3,1.5-0.3c1.1,0,2,0.4,2.6,1.2s0.9,1.9,0.9,3.3c0,1.4-0.3,2.5-0.9,3.3
			C202.4,4236.8,201.6,4237.2,200.4,4237.2z M200.3,4229.4c-0.9,0-1.5,0.2-1.9,0.7s-0.6,1.3-0.6,2.3v0.3c0,1.2,0.2,2.1,0.6,2.6
			c0.4,0.5,1,0.8,1.9,0.8c0.7,0,1.3-0.3,1.7-0.9c0.4-0.6,0.6-1.4,0.6-2.5c0-1.1-0.2-1.9-0.6-2.5
			C201.6,4229.7,201,4229.4,200.3,4229.4z"/>
		<path class="st2" d="M215.1,4237h-1.3v-5.4h-6v5.4h-1.3v-11.4h1.3v4.9h6v-4.9h1.3V4237z"/>
		<path class="st2" d="M225.8,4237.2c-1.3,0-2.3-0.4-3-1.2c-0.7-0.8-1.1-1.8-1.1-3.2c0-1.4,0.3-2.5,1-3.3s1.6-1.2,2.7-1.2
			c1.1,0,1.9,0.4,2.5,1.1s0.9,1.6,0.9,2.8v0.8h-5.9c0,1,0.3,1.8,0.8,2.3c0.5,0.5,1.2,0.8,2,0.8c0.9,0,1.8-0.2,2.7-0.6v1.2
			c-0.5,0.2-0.9,0.3-1.3,0.4C226.9,4237.1,226.4,4237.2,225.8,4237.2z M225.5,4229.4c-0.7,0-1.2,0.2-1.6,0.7
			c-0.4,0.4-0.6,1.1-0.7,1.9h4.5c0-0.8-0.2-1.4-0.5-1.9C226.7,4229.6,226.2,4229.4,225.5,4229.4z"/>
		<path class="st2" d="M236.7,4234.7c0,0.8-0.3,1.4-0.9,1.8s-1.4,0.6-2.5,0.6c-1.1,0-2-0.2-2.7-0.5v-1.2c0.4,0.2,0.9,0.4,1.3,0.5
			c0.5,0.1,0.9,0.2,1.4,0.2c0.7,0,1.2-0.1,1.6-0.3c0.4-0.2,0.5-0.5,0.5-1c0-0.3-0.1-0.6-0.4-0.9s-0.9-0.5-1.7-0.8
			c-0.8-0.3-1.4-0.6-1.7-0.8s-0.6-0.5-0.8-0.8s-0.2-0.6-0.2-1c0-0.7,0.3-1.2,0.9-1.7c0.6-0.4,1.3-0.6,2.3-0.6c0.9,0,1.8,0.2,2.7,0.6
			l-0.5,1.1c-0.9-0.4-1.6-0.5-2.3-0.5c-0.6,0-1.1,0.1-1.4,0.3s-0.5,0.5-0.5,0.8c0,0.2,0.1,0.4,0.2,0.6s0.3,0.3,0.6,0.5
			c0.3,0.1,0.8,0.4,1.5,0.6c1,0.4,1.7,0.7,2.1,1.1C236.5,4233.6,236.7,4234.1,236.7,4234.7z"/>
		<path class="st2" d="M253.9,4237v-5.6c0-0.7-0.1-1.2-0.4-1.5c-0.3-0.3-0.7-0.5-1.4-0.5c-0.8,0-1.4,0.2-1.8,0.7
			c-0.4,0.5-0.6,1.2-0.6,2.1v4.8h-1.3v-5.6c0-0.7-0.1-1.2-0.4-1.5c-0.3-0.3-0.7-0.5-1.4-0.5c-0.8,0-1.4,0.2-1.8,0.7
			c-0.4,0.5-0.6,1.3-0.6,2.4v4.5H243v-8.6h1.1l0.2,1.2h0.1c0.2-0.4,0.6-0.7,1-1s0.9-0.4,1.5-0.4c1.3,0,2.2,0.5,2.6,1.5h0.1
			c0.3-0.4,0.6-0.8,1.1-1.1s1-0.4,1.7-0.4c1,0,1.7,0.2,2.2,0.7c0.5,0.5,0.7,1.3,0.7,2.4v5.6H253.9z"/>
		<path class="st2" d="M261.5,4237.2c-1.3,0-2.3-0.4-3-1.2c-0.7-0.8-1.1-1.8-1.1-3.2c0-1.4,0.3-2.5,1-3.3s1.6-1.2,2.7-1.2
			c1.1,0,1.9,0.4,2.5,1.1s0.9,1.6,0.9,2.8v0.8h-5.9c0,1,0.3,1.8,0.8,2.3c0.5,0.5,1.2,0.8,2,0.8c0.9,0,1.8-0.2,2.7-0.6v1.2
			c-0.5,0.2-0.9,0.3-1.3,0.4C262.6,4237.1,262.1,4237.2,261.5,4237.2z M261.1,4229.4c-0.7,0-1.2,0.2-1.6,0.7
			c-0.4,0.4-0.6,1.1-0.7,1.9h4.5c0-0.8-0.2-1.4-0.5-1.9C262.3,4229.6,261.8,4229.4,261.1,4229.4z"/>
		<path class="st2" d="M272.7,4237v-5.5c0-0.7-0.2-1.2-0.5-1.6c-0.3-0.3-0.8-0.5-1.5-0.5c-0.9,0-1.6,0.2-2,0.7
			c-0.4,0.5-0.6,1.3-0.6,2.4v4.5h-1.3v-8.6h1.1l0.2,1.2h0.1c0.3-0.4,0.6-0.7,1.1-1c0.5-0.2,1-0.3,1.6-0.3c1,0,1.8,0.2,2.3,0.7
			c0.5,0.5,0.8,1.3,0.8,2.4v5.6H272.7z"/>
		<path class="st2" d="M284.1,4232.7c0,1.4-0.4,2.5-1.1,3.3s-1.7,1.2-2.9,1.2c-0.8,0-1.4-0.2-2-0.5s-1.1-0.9-1.4-1.5
			c-0.3-0.7-0.5-1.5-0.5-2.4c0-1.4,0.3-2.5,1-3.3c0.7-0.8,1.7-1.2,2.9-1.2c1.2,0,2.1,0.4,2.9,1.2
			C283.7,4230.3,284.1,4231.4,284.1,4232.7z M277.5,4232.7c0,1.1,0.2,1.9,0.7,2.5s1.1,0.9,1.9,0.9c0.8,0,1.5-0.3,1.9-0.9
			c0.4-0.6,0.7-1.4,0.7-2.5c0-1.1-0.2-1.9-0.7-2.5c-0.4-0.6-1.1-0.8-1.9-0.8c-0.8,0-1.5,0.3-1.9,0.8
			C277.8,4230.8,277.5,4231.6,277.5,4232.7z"/>
		<path class="st2" d="M290.2,4228.3c0.4,0,0.7,0,1,0.1l-0.2,1.2c-0.4-0.1-0.7-0.1-0.9-0.1c-0.7,0-1.3,0.3-1.8,0.8s-0.7,1.3-0.7,2.1
			v4.6h-1.3v-8.6h1.1l0.1,1.6h0.1c0.3-0.6,0.7-1,1.1-1.3C289.2,4228.4,289.7,4228.3,290.2,4228.3z"/>
		<path class="st2" d="M300.1,4237.2c-1.1,0-2-0.4-2.6-1.2c-0.6-0.8-0.9-1.9-0.9-3.3c0-1.4,0.3-2.5,0.9-3.3s1.5-1.2,2.6-1.2
			c1.2,0,2.1,0.4,2.7,1.3h0.1l0.2-1.2h1v12.4h-1.3v-3.7c0-0.5,0-1,0.1-1.3h-0.1C302.2,4236.7,301.3,4237.2,300.1,4237.2z
			 M300.3,4236.1c0.9,0,1.5-0.2,1.9-0.7c0.4-0.5,0.6-1.2,0.6-2.3v-0.3c0-1.2-0.2-2.1-0.6-2.6s-1-0.8-1.9-0.8c-0.8,0-1.3,0.3-1.7,0.9
			c-0.4,0.6-0.6,1.4-0.6,2.5s0.2,1.9,0.6,2.5S299.5,4236.1,300.3,4236.1z"/>
		<path class="st2" d="M308,4228.4v5.6c0,0.7,0.2,1.2,0.5,1.6c0.3,0.3,0.8,0.5,1.5,0.5c0.9,0,1.6-0.2,2-0.7s0.6-1.3,0.6-2.4v-4.5
			h1.3v8.6h-1.1l-0.2-1.1h-0.1c-0.3,0.4-0.6,0.7-1.1,1c-0.5,0.2-1,0.3-1.6,0.3c-1,0-1.8-0.2-2.3-0.7c-0.5-0.5-0.8-1.3-0.8-2.4v-5.6
			H308z"/>
		<path class="st2" d="M320.3,4237.2c-1.3,0-2.3-0.4-3-1.2c-0.7-0.8-1.1-1.8-1.1-3.2c0-1.4,0.3-2.5,1-3.3s1.6-1.2,2.7-1.2
			c1.1,0,1.9,0.4,2.5,1.1s0.9,1.6,0.9,2.8v0.8h-5.9c0,1,0.3,1.8,0.8,2.3c0.5,0.5,1.2,0.8,2,0.8c0.9,0,1.8-0.2,2.7-0.6v1.2
			c-0.5,0.2-0.9,0.3-1.3,0.4C321.3,4237.1,320.8,4237.2,320.3,4237.2z M319.9,4229.4c-0.7,0-1.2,0.2-1.6,0.7
			c-0.4,0.4-0.6,1.1-0.7,1.9h4.5c0-0.8-0.2-1.4-0.5-1.9C321.1,4229.6,320.6,4229.4,319.9,4229.4z"/>
		<path class="st2" d="M337.2,4234.4h-1.7v2.6h-1.2v-2.6h-5.6v-1.1l5.4-7.7h1.4v7.7h1.7V4234.4z M334.3,4233.2v-3.8
			c0-0.7,0-1.6,0.1-2.5h-0.1c-0.3,0.5-0.5,0.9-0.7,1.2l-3.6,5.1H334.3z"/>
		<path class="st2" d="M340.3,4235.1l0.1,0.2c-0.1,0.5-0.3,1.1-0.6,1.8c-0.3,0.7-0.5,1.3-0.8,1.9h-1c0.1-0.5,0.3-1.2,0.5-2
			c0.2-0.8,0.3-1.4,0.4-1.9H340.3z"/>
		<path class="st2" d="M345.8,4230c1.2,0,2.1,0.3,2.8,0.9c0.7,0.6,1,1.4,1,2.4c0,1.2-0.4,2.1-1.1,2.8c-0.8,0.7-1.8,1-3.1,1
			c-1.3,0-2.3-0.2-2.9-0.6v-1.3c0.4,0.2,0.8,0.4,1.4,0.6c0.5,0.1,1.1,0.2,1.6,0.2c0.9,0,1.6-0.2,2.1-0.6s0.8-1.1,0.8-1.9
			c0-1.6-1-2.4-2.9-2.4c-0.5,0-1.2,0.1-2,0.2l-0.7-0.4l0.4-5.3h5.7v1.2h-4.6l-0.3,3.4C344.6,4230.1,345.2,4230,345.8,4230z"/>
		<path class="st2" d="M351.8,4236.2c0-0.3,0.1-0.6,0.2-0.8c0.2-0.2,0.4-0.3,0.7-0.3c0.3,0,0.5,0.1,0.7,0.3c0.2,0.2,0.3,0.4,0.3,0.8
			c0,0.3-0.1,0.6-0.3,0.8s-0.4,0.3-0.7,0.3c-0.3,0-0.5-0.1-0.7-0.2C351.9,4236.8,351.8,4236.5,351.8,4236.2z"/>
	</g>
	<g class="st1">
		<path class="st2" d="M163.4,4255.2c0-0.6,0.1-1.1,0.4-1.4c0.3-0.3,0.7-0.5,1.3-0.5c0.5,0,1,0.2,1.3,0.5c0.3,0.3,0.5,0.8,0.5,1.4
			c0,0.6-0.1,1.1-0.4,1.4c-0.3,0.3-0.7,0.5-1.3,0.5c-0.6,0-1-0.2-1.3-0.5S163.4,4255.8,163.4,4255.2z"/>
		<path class="st2" d="M178.8,4250.6c-1.3,0-2.2,0.4-3,1.3s-1.1,2-1.1,3.4c0,1.5,0.4,2.6,1.1,3.5c0.7,0.8,1.7,1.2,3,1.2
			c0.8,0,1.7-0.1,2.7-0.4v1.2c-0.8,0.3-1.8,0.4-2.9,0.4c-1.7,0-3-0.5-3.9-1.5s-1.4-2.5-1.4-4.4c0-1.2,0.2-2.2,0.7-3.1
			c0.4-0.9,1.1-1.6,1.9-2c0.8-0.5,1.8-0.7,2.9-0.7c1.2,0,2.2,0.2,3.1,0.7l-0.6,1.1C180.5,4250.8,179.7,4250.6,178.8,4250.6z"/>
		<path class="st2" d="M187.7,4252.3c0.4,0,0.7,0,1,0.1l-0.2,1.2c-0.4-0.1-0.7-0.1-0.9-0.1c-0.7,0-1.3,0.3-1.8,0.8s-0.7,1.3-0.7,2.1
			v4.6h-1.3v-8.6h1.1l0.1,1.6h0.1c0.3-0.6,0.7-1,1.1-1.3C186.7,4252.4,187.2,4252.3,187.7,4252.3z"/>
		<path class="st2" d="M193.9,4261.2c-1.3,0-2.3-0.4-3-1.2c-0.7-0.8-1.1-1.8-1.1-3.2c0-1.4,0.3-2.5,1-3.3s1.6-1.2,2.7-1.2
			c1.1,0,1.9,0.4,2.5,1.1s0.9,1.6,0.9,2.8v0.8h-5.9c0,1,0.3,1.8,0.8,2.3c0.5,0.5,1.2,0.8,2,0.8c0.9,0,1.8-0.2,2.7-0.6v1.2
			c-0.5,0.2-0.9,0.3-1.3,0.4C195,4261.1,194.5,4261.2,193.9,4261.2z M193.6,4253.4c-0.7,0-1.2,0.2-1.6,0.7c-0.4,0.4-0.6,1.1-0.7,1.9
			h4.5c0-0.8-0.2-1.4-0.5-1.9C194.8,4253.6,194.3,4253.4,193.6,4253.4z"/>
		<path class="st2" d="M202.7,4261.2c-1.2,0-2.2-0.4-2.9-1.1s-1-1.8-1-3.2c0-1.4,0.3-2.5,1-3.3c0.7-0.8,1.7-1.2,2.9-1.2
			c0.4,0,0.8,0,1.2,0.1c0.4,0.1,0.7,0.2,1,0.3l-0.4,1.1c-0.3-0.1-0.6-0.2-0.9-0.3c-0.3-0.1-0.6-0.1-0.9-0.1c-1.7,0-2.6,1.1-2.6,3.3
			c0,1.1,0.2,1.9,0.6,2.4c0.4,0.6,1.1,0.8,1.9,0.8c0.7,0,1.4-0.2,2.2-0.5v1.1C204.3,4261,203.6,4261.2,202.7,4261.2z"/>
		<path class="st2" d="M210.5,4261.2c-1.3,0-2.3-0.4-3-1.2c-0.7-0.8-1.1-1.8-1.1-3.2c0-1.4,0.3-2.5,1-3.3s1.6-1.2,2.7-1.2
			c1.1,0,1.9,0.4,2.5,1.1s0.9,1.6,0.9,2.8v0.8h-5.9c0,1,0.3,1.8,0.8,2.3c0.5,0.5,1.2,0.8,2,0.8c0.9,0,1.8-0.2,2.7-0.6v1.2
			c-0.5,0.2-0.9,0.3-1.3,0.4C211.6,4261.1,211.1,4261.2,210.5,4261.2z M210.2,4253.4c-0.7,0-1.2,0.2-1.6,0.7
			c-0.4,0.4-0.6,1.1-0.7,1.9h4.5c0-0.8-0.2-1.4-0.5-1.9C211.4,4253.6,210.9,4253.4,210.2,4253.4z"/>
		<path class="st2" d="M221.8,4261v-5.5c0-0.7-0.2-1.2-0.5-1.6c-0.3-0.3-0.8-0.5-1.5-0.5c-0.9,0-1.6,0.2-2,0.7
			c-0.4,0.5-0.6,1.3-0.6,2.4v4.5h-1.3v-8.6h1.1l0.2,1.2h0.1c0.3-0.4,0.6-0.7,1.1-1c0.5-0.2,1-0.3,1.6-0.3c1,0,1.8,0.2,2.3,0.7
			c0.5,0.5,0.8,1.3,0.8,2.4v5.6H221.8z"/>
		<path class="st2" d="M235.7,4261v-5.5c0-0.7-0.2-1.2-0.5-1.6c-0.3-0.3-0.8-0.5-1.5-0.5c-0.9,0-1.6,0.2-2,0.7s-0.6,1.3-0.6,2.4v4.5
			h-1.3v-12.2h1.3v3.7c0,0.4,0,0.8-0.1,1.1h0.1c0.3-0.4,0.6-0.7,1.1-1c0.5-0.2,1-0.4,1.6-0.4c1,0,1.8,0.2,2.4,0.7s0.8,1.3,0.8,2.4
			v5.6H235.7z"/>
		<path class="st2" d="M247.1,4256.7c0,1.4-0.4,2.5-1.1,3.3s-1.7,1.2-2.9,1.2c-0.8,0-1.4-0.2-2-0.5s-1.1-0.9-1.4-1.5
			c-0.3-0.7-0.5-1.5-0.5-2.4c0-1.4,0.3-2.5,1-3.3c0.7-0.8,1.7-1.2,2.9-1.2c1.2,0,2.1,0.4,2.9,1.2
			C246.7,4254.3,247.1,4255.4,247.1,4256.7z M240.6,4256.7c0,1.1,0.2,1.9,0.7,2.5s1.1,0.9,1.9,0.9c0.8,0,1.5-0.3,1.9-0.9
			c0.4-0.6,0.7-1.4,0.7-2.5c0-1.1-0.2-1.9-0.7-2.5c-0.4-0.6-1.1-0.8-1.9-0.8c-0.8,0-1.5,0.3-1.9,0.8
			C240.8,4254.8,240.6,4255.6,240.6,4256.7z"/>
		<path class="st2" d="M255.2,4261v-5.5c0-0.7-0.2-1.2-0.5-1.6c-0.3-0.3-0.8-0.5-1.5-0.5c-0.9,0-1.6,0.2-2,0.7
			c-0.4,0.5-0.6,1.3-0.6,2.4v4.5h-1.3v-8.6h1.1l0.2,1.2h0.1c0.3-0.4,0.6-0.7,1.1-1c0.5-0.2,1-0.3,1.6-0.3c1,0,1.8,0.2,2.3,0.7
			c0.5,0.5,0.8,1.3,0.8,2.4v5.6H255.2z"/>
		<path class="st2" d="M266.2,4252.4v0.8l-1.6,0.2c0.1,0.2,0.3,0.4,0.4,0.7c0.1,0.3,0.2,0.6,0.2,1c0,0.8-0.3,1.5-0.9,2
			c-0.6,0.5-1.4,0.8-2.4,0.8c-0.3,0-0.5,0-0.7-0.1c-0.6,0.3-0.8,0.7-0.8,1.1c0,0.2,0.1,0.4,0.3,0.5c0.2,0.1,0.5,0.2,1,0.2h1.5
			c0.9,0,1.6,0.2,2.1,0.6c0.5,0.4,0.7,1,0.7,1.7c0,0.9-0.4,1.7-1.1,2.2c-0.8,0.5-1.9,0.7-3.3,0.7c-1.1,0-2-0.2-2.6-0.6
			c-0.6-0.4-0.9-1-0.9-1.8c0-0.5,0.2-1,0.5-1.4c0.3-0.4,0.8-0.6,1.4-0.8c-0.2-0.1-0.4-0.3-0.6-0.5s-0.2-0.5-0.2-0.7
			c0-0.3,0.1-0.6,0.3-0.8c0.2-0.2,0.4-0.5,0.8-0.7c-0.4-0.2-0.8-0.5-1.1-0.9c-0.3-0.4-0.4-0.9-0.4-1.5c0-0.9,0.3-1.7,0.8-2.2
			s1.4-0.8,2.4-0.8c0.4,0,0.9,0.1,1.2,0.2H266.2z M259.4,4262.4c0,0.5,0.2,0.8,0.6,1.1s1,0.4,1.7,0.4c1.1,0,1.9-0.2,2.4-0.5
			s0.8-0.8,0.8-1.3c0-0.5-0.1-0.8-0.4-1c-0.3-0.2-0.8-0.3-1.6-0.3h-1.6c-0.6,0-1,0.1-1.4,0.4S259.4,4261.9,259.4,4262.4z
			 M260.1,4255.2c0,0.6,0.2,1.1,0.5,1.4c0.3,0.3,0.8,0.5,1.4,0.5c1.3,0,1.9-0.6,1.9-1.8c0-1.3-0.6-1.9-1.9-1.9
			c-0.6,0-1.1,0.2-1.4,0.5S260.1,4254.5,260.1,4255.2z"/>
		<path class="st2" d="M275.3,4256.7c0,1.4-0.4,2.5-1.1,3.3s-1.7,1.2-2.9,1.2c-0.8,0-1.4-0.2-2-0.5s-1.1-0.9-1.4-1.5
			c-0.3-0.7-0.5-1.5-0.5-2.4c0-1.4,0.3-2.5,1-3.3c0.7-0.8,1.7-1.2,2.9-1.2c1.2,0,2.1,0.4,2.9,1.2
			C275,4254.3,275.3,4255.4,275.3,4256.7z M268.8,4256.7c0,1.1,0.2,1.9,0.7,2.5s1.1,0.9,1.9,0.9c0.8,0,1.5-0.3,1.9-0.9
			c0.4-0.6,0.7-1.4,0.7-2.5c0-1.1-0.2-1.9-0.7-2.5c-0.4-0.6-1.1-0.8-1.9-0.8c-0.8,0-1.5,0.3-1.9,0.8
			C269,4254.8,268.8,4255.6,268.8,4256.7z"/>
		<path class="st2" d="M283.1,4258.7c0,0.8-0.3,1.4-0.9,1.8s-1.4,0.6-2.5,0.6c-1.1,0-2-0.2-2.7-0.5v-1.2c0.4,0.2,0.9,0.4,1.3,0.5
			c0.5,0.1,0.9,0.2,1.4,0.2c0.7,0,1.2-0.1,1.6-0.3c0.4-0.2,0.5-0.5,0.5-1c0-0.3-0.1-0.6-0.4-0.9s-0.9-0.5-1.7-0.8
			c-0.8-0.3-1.4-0.6-1.7-0.8s-0.6-0.5-0.8-0.8s-0.2-0.6-0.2-1c0-0.7,0.3-1.2,0.9-1.7c0.6-0.4,1.3-0.6,2.3-0.6c0.9,0,1.8,0.2,2.7,0.6
			l-0.5,1.1c-0.9-0.4-1.6-0.5-2.3-0.5c-0.6,0-1.1,0.1-1.4,0.3s-0.5,0.5-0.5,0.8c0,0.2,0.1,0.4,0.2,0.6s0.3,0.3,0.6,0.5
			c0.3,0.1,0.8,0.4,1.5,0.6c1,0.4,1.7,0.7,2.1,1.1C283,4257.6,283.1,4258.1,283.1,4258.7z"/>
		<path class="st2" d="M288,4252.4h1.4l1.9,4.9c0.4,1.1,0.7,1.9,0.8,2.4h0.1c0.1-0.3,0.2-0.7,0.4-1.4c0.2-0.6,0.9-2.6,2.1-5.9h1.4
			l-3.7,9.8c-0.4,1-0.8,1.6-1.3,2.1c-0.5,0.4-1.1,0.6-1.8,0.6c-0.4,0-0.8,0-1.2-0.1v-1c0.3,0.1,0.6,0.1,1,0.1c0.9,0,1.5-0.5,1.9-1.5
			l0.5-1.2L288,4252.4z"/>
		<path class="st2" d="M302.9,4261h-1.3v-12.2h1.3V4261z"/>
		<path class="st2" d="M309.3,4261.2c-1.3,0-2.3-0.4-3-1.2c-0.7-0.8-1.1-1.8-1.1-3.2c0-1.4,0.3-2.5,1-3.3s1.6-1.2,2.7-1.2
			c1.1,0,1.9,0.4,2.5,1.1s0.9,1.6,0.9,2.8v0.8h-5.9c0,1,0.3,1.8,0.8,2.3c0.5,0.5,1.2,0.8,2,0.8c0.9,0,1.8-0.2,2.7-0.6v1.2
			c-0.5,0.2-0.9,0.3-1.3,0.4C310.4,4261.1,309.9,4261.2,309.3,4261.2z M308.9,4253.4c-0.7,0-1.2,0.2-1.6,0.7
			c-0.4,0.4-0.6,1.1-0.7,1.9h4.5c0-0.8-0.2-1.4-0.5-1.9C310.1,4253.6,309.6,4253.4,308.9,4253.4z"/>
		<path class="st2" d="M316.5,4261l-3.3-8.6h1.4l1.8,5.1c0.4,1.2,0.7,2,0.7,2.3h0.1c0.1-0.3,0.2-0.8,0.5-1.7s1-2.8,2.1-5.7h1.4
			l-3.3,8.6H316.5z"/>
		<path class="st2" d="M327.9,4261l-0.3-1.2h-0.1c-0.4,0.5-0.9,0.9-1.3,1.1c-0.4,0.2-1,0.3-1.6,0.3c-0.8,0-1.5-0.2-2-0.7
			c-0.5-0.4-0.7-1.1-0.7-1.9c0-1.7,1.4-2.6,4.1-2.7l1.5,0v-0.5c0-0.7-0.1-1.2-0.4-1.5s-0.8-0.5-1.4-0.5c-0.7,0-1.5,0.2-2.4,0.7
			l-0.4-1c0.4-0.2,0.9-0.4,1.4-0.5c0.5-0.1,1-0.2,1.5-0.2c1,0,1.8,0.2,2.3,0.7s0.7,1.2,0.7,2.2v5.8H327.9z M325,4260.1
			c0.8,0,1.4-0.2,1.9-0.7s0.7-1.1,0.7-1.9v-0.8l-1.3,0.1c-1,0-1.8,0.2-2.2,0.5c-0.5,0.3-0.7,0.7-0.7,1.3c0,0.5,0.1,0.8,0.4,1.1
			C324.1,4260,324.5,4260.1,325,4260.1z"/>
		<path class="st2" d="M337.4,4259.9L337.4,4259.9c-0.7,0.9-1.6,1.3-2.8,1.3c-1.1,0-2-0.4-2.6-1.1c-0.6-0.8-0.9-1.9-0.9-3.3
			s0.3-2.5,0.9-3.3s1.5-1.2,2.6-1.2c1.2,0,2.1,0.4,2.7,1.3h0.1l-0.1-0.6l0-0.6v-3.5h1.3v12.2h-1.1L337.4,4259.9z M334.8,4260.1
			c0.9,0,1.5-0.2,1.9-0.7s0.6-1.3,0.6-2.3v-0.3c0-1.2-0.2-2.1-0.6-2.6c-0.4-0.5-1-0.8-1.9-0.8c-0.8,0-1.3,0.3-1.7,0.9
			c-0.4,0.6-0.6,1.4-0.6,2.5c0,1.1,0.2,1.9,0.6,2.5C333.4,4259.8,334,4260.1,334.8,4260.1z"/>
		<path class="st2" d="M342.6,4252.4v5.6c0,0.7,0.2,1.2,0.5,1.6c0.3,0.3,0.8,0.5,1.5,0.5c0.9,0,1.6-0.2,2-0.7s0.6-1.3,0.6-2.4v-4.5
			h1.3v8.6h-1.1l-0.2-1.1h-0.1c-0.3,0.4-0.6,0.7-1.1,1c-0.5,0.2-1,0.3-1.6,0.3c-1,0-1.8-0.2-2.3-0.7c-0.5-0.5-0.8-1.3-0.8-2.4v-5.6
			H342.6z"/>
		<path class="st2" d="M355.1,4252.3c0.4,0,0.7,0,1,0.1l-0.2,1.2c-0.4-0.1-0.7-0.1-0.9-0.1c-0.7,0-1.3,0.3-1.8,0.8s-0.7,1.3-0.7,2.1
			v4.6h-1.3v-8.6h1.1l0.1,1.6h0.1c0.3-0.6,0.7-1,1.1-1.3C354.1,4252.4,354.5,4252.3,355.1,4252.3z"/>
		<path class="st2" d="M363,4261l-0.3-1.2h-0.1c-0.4,0.5-0.9,0.9-1.3,1.1c-0.4,0.2-1,0.3-1.6,0.3c-0.8,0-1.5-0.2-2-0.7
			c-0.5-0.4-0.7-1.1-0.7-1.9c0-1.7,1.4-2.6,4.1-2.7l1.5,0v-0.5c0-0.7-0.1-1.2-0.4-1.5s-0.8-0.5-1.4-0.5c-0.7,0-1.5,0.2-2.4,0.7
			l-0.4-1c0.4-0.2,0.9-0.4,1.4-0.5c0.5-0.1,1-0.2,1.5-0.2c1,0,1.8,0.2,2.3,0.7s0.7,1.2,0.7,2.2v5.8H363z M360,4260.1
			c0.8,0,1.4-0.2,1.9-0.7s0.7-1.1,0.7-1.9v-0.8l-1.3,0.1c-1,0-1.8,0.2-2.2,0.5c-0.5,0.3-0.7,0.7-0.7,1.3c0,0.5,0.1,0.8,0.4,1.1
			C359.1,4260,359.5,4260.1,360,4260.1z"/>
		<path class="st2" d="M372.1,4258.7c0,0.8-0.3,1.4-0.9,1.8s-1.4,0.6-2.5,0.6c-1.1,0-2-0.2-2.7-0.5v-1.2c0.4,0.2,0.9,0.4,1.3,0.5
			c0.5,0.1,0.9,0.2,1.4,0.2c0.7,0,1.2-0.1,1.6-0.3c0.4-0.2,0.5-0.5,0.5-1c0-0.3-0.1-0.6-0.4-0.9s-0.9-0.5-1.7-0.8
			c-0.8-0.3-1.4-0.6-1.7-0.8s-0.6-0.5-0.8-0.8s-0.2-0.6-0.2-1c0-0.7,0.3-1.2,0.9-1.7c0.6-0.4,1.3-0.6,2.3-0.6c0.9,0,1.8,0.2,2.7,0.6
			l-0.5,1.1c-0.9-0.4-1.6-0.5-2.3-0.5c-0.6,0-1.1,0.1-1.4,0.3s-0.5,0.5-0.5,0.8c0,0.2,0.1,0.4,0.2,0.6s0.3,0.3,0.6,0.5
			c0.3,0.1,0.8,0.4,1.5,0.6c1,0.4,1.7,0.7,2.1,1.1C372,4257.6,372.1,4258.1,372.1,4258.7z"/>
		<path class="st2" d="M374.1,4260.2c0-0.3,0.1-0.6,0.2-0.8c0.2-0.2,0.4-0.3,0.7-0.3c0.3,0,0.5,0.1,0.7,0.3c0.2,0.2,0.3,0.4,0.3,0.8
			c0,0.3-0.1,0.6-0.3,0.8s-0.4,0.3-0.7,0.3c-0.3,0-0.5-0.1-0.7-0.2C374.1,4260.8,374.1,4260.5,374.1,4260.2z"/>
	</g>
	<g class="st1">
		<path class="st2" d="M614.4,4203c-1.1,0-1.9,0.4-2.5,1.1c-0.6,0.8-0.9,1.8-0.9,3.1c0,1.4,0.3,2.5,0.9,3.2c0.6,0.7,1.4,1.1,2.6,1.1
			c0.5,0,1,0,1.4-0.1s0.9-0.2,1.4-0.4v1.6c-0.9,0.3-1.9,0.5-3,0.5c-1.7,0-3-0.5-3.9-1.5c-0.9-1-1.3-2.5-1.3-4.3
			c0-1.2,0.2-2.2,0.7-3.1c0.4-0.9,1.1-1.6,1.9-2c0.8-0.5,1.8-0.7,2.9-0.7c1.2,0,2.2,0.2,3.2,0.7l-0.7,1.6c-0.4-0.2-0.8-0.3-1.2-0.5
			S614.8,4203,614.4,4203z"/>
		<path class="st2" d="M627.1,4208.7c0,1.4-0.4,2.5-1.1,3.3c-0.7,0.8-1.7,1.2-3,1.2c-0.8,0-1.5-0.2-2.1-0.5
			c-0.6-0.4-1.1-0.9-1.4-1.6c-0.3-0.7-0.5-1.5-0.5-2.4c0-1.4,0.4-2.5,1.1-3.3s1.7-1.2,3-1.2c1.3,0,2.2,0.4,3,1.2
			C626.8,4206.2,627.1,4207.3,627.1,4208.7z M620.8,4208.7c0,2,0.7,3,2.2,3c1.5,0,2.2-1,2.2-3c0-2-0.7-3-2.2-3
			c-0.8,0-1.3,0.3-1.7,0.8C621,4207,620.8,4207.7,620.8,4208.7z"/>
		<path class="st2" d="M636.8,4213H635v-5.3c0-0.7-0.1-1.2-0.4-1.5c-0.3-0.3-0.7-0.5-1.3-0.5c-0.8,0-1.3,0.2-1.7,0.7
			s-0.5,1.2-0.5,2.3v4.3h-1.8v-8.6h1.4l0.3,1.1h0.1c0.3-0.4,0.6-0.7,1.1-1c0.5-0.2,1-0.3,1.6-0.3c2.1,0,3.1,1.1,3.1,3.2V4213z"/>
		<path class="st2" d="M645.2,4210.5c0,0.8-0.3,1.5-0.9,1.9c-0.6,0.5-1.5,0.7-2.6,0.7c-1.2,0-2.1-0.2-2.8-0.5v-1.6
			c1,0.5,2,0.7,2.8,0.7c1.1,0,1.7-0.3,1.7-1c0-0.2-0.1-0.4-0.2-0.5s-0.3-0.3-0.6-0.5c-0.3-0.2-0.7-0.3-1.2-0.5c-1-0.4-1.7-0.8-2-1.2
			s-0.5-0.9-0.5-1.5c0-0.7,0.3-1.3,0.9-1.7c0.6-0.4,1.4-0.6,2.4-0.6c1,0,2,0.2,2.9,0.6l-0.6,1.4c-0.9-0.4-1.7-0.6-2.4-0.6
			c-1,0-1.5,0.3-1.5,0.8c0,0.3,0.1,0.5,0.4,0.7c0.3,0.2,0.8,0.4,1.7,0.8c0.7,0.3,1.2,0.5,1.6,0.8c0.3,0.2,0.6,0.5,0.7,0.8
			S645.2,4210.1,645.2,4210.5z"/>
		<path class="st2" d="M650.9,4213.2c-1.3,0-2.4-0.4-3.2-1.2s-1.1-1.9-1.1-3.2c0-1.4,0.4-2.5,1.1-3.3s1.7-1.2,2.9-1.2
			c1.1,0,2,0.3,2.7,1c0.7,0.7,1,1.6,1,2.9v1h-5.8c0,0.8,0.3,1.5,0.7,1.9c0.4,0.5,1,0.7,1.8,0.7c0.5,0,1,0,1.4-0.1
			c0.4-0.1,0.9-0.3,1.4-0.5v1.5c-0.4,0.2-0.9,0.4-1.4,0.5C652.1,4213.1,651.5,4213.2,650.9,4213.2z M650.6,4205.6
			c-0.6,0-1.1,0.2-1.4,0.6s-0.6,0.9-0.6,1.6h3.9c0-0.7-0.2-1.3-0.5-1.6C651.7,4205.8,651.2,4205.6,650.6,4205.6z"/>
		<path class="st2" d="M660.8,4204.2c0.4,0,0.7,0,0.9,0.1l-0.2,1.7c-0.3-0.1-0.5-0.1-0.8-0.1c-0.7,0-1.3,0.2-1.8,0.7
			c-0.5,0.5-0.7,1.1-0.7,1.9v4.5h-1.8v-8.6h1.4l0.2,1.5h0.1c0.3-0.5,0.7-0.9,1.1-1.2S660.2,4204.2,660.8,4204.2z"/>
		<path class="st2" d="M665.3,4213l-3.3-8.6h1.9l1.8,5c0.3,0.8,0.5,1.5,0.5,2h0.1c0-0.4,0.2-1.1,0.5-2l1.8-5h2l-3.3,8.6H665.3z"/>
		<path class="st2" d="M677.3,4213l-0.4-1.2h-0.1c-0.4,0.5-0.8,0.9-1.3,1.1s-1,0.3-1.6,0.3c-0.8,0-1.5-0.2-2-0.7s-0.7-1.1-0.7-1.9
			c0-0.9,0.3-1.6,1-2c0.7-0.5,1.7-0.7,3-0.7l1.5,0v-0.5c0-0.6-0.1-1-0.4-1.2s-0.7-0.4-1.2-0.4c-0.4,0-0.9,0.1-1.3,0.2
			s-0.8,0.3-1.2,0.5l-0.6-1.3c0.5-0.2,1-0.4,1.5-0.6c0.6-0.1,1.1-0.2,1.6-0.2c1.1,0,1.9,0.2,2.5,0.7c0.6,0.5,0.8,1.2,0.8,2.3v5.8
			H677.3z M674.5,4211.8c0.7,0,1.2-0.2,1.6-0.6c0.4-0.4,0.6-0.9,0.6-1.6v-0.8l-1.1,0c-0.9,0-1.5,0.2-1.9,0.4
			c-0.4,0.3-0.6,0.7-0.6,1.2c0,0.4,0.1,0.7,0.3,0.9C673.7,4211.6,674.1,4211.8,674.5,4211.8z"/>
		<path class="st2" d="M686.9,4210.5c0,0.8-0.3,1.5-0.9,1.9c-0.6,0.5-1.5,0.7-2.6,0.7c-1.2,0-2.1-0.2-2.8-0.5v-1.6
			c1,0.5,2,0.7,2.8,0.7c1.1,0,1.7-0.3,1.7-1c0-0.2-0.1-0.4-0.2-0.5s-0.3-0.3-0.6-0.5c-0.3-0.2-0.7-0.3-1.2-0.5c-1-0.4-1.7-0.8-2-1.2
			s-0.5-0.9-0.5-1.5c0-0.7,0.3-1.3,0.9-1.7c0.6-0.4,1.4-0.6,2.4-0.6c1,0,2,0.2,2.9,0.6l-0.6,1.4c-0.9-0.4-1.7-0.6-2.4-0.6
			c-1,0-1.5,0.3-1.5,0.8c0,0.3,0.1,0.5,0.4,0.7c0.3,0.2,0.8,0.4,1.7,0.8c0.7,0.3,1.2,0.5,1.6,0.8c0.3,0.2,0.6,0.5,0.7,0.8
			S686.9,4210.1,686.9,4210.5z"/>
		<path class="st2" d="M700.7,4213h-1.8v-5.3c0-0.7-0.1-1.2-0.4-1.5c-0.3-0.3-0.7-0.5-1.3-0.5c-0.8,0-1.3,0.2-1.7,0.7
			s-0.5,1.2-0.5,2.3v4.3h-1.8v-8.6h1.4l0.3,1.1h0.1c0.3-0.4,0.6-0.7,1.1-1c0.5-0.2,1-0.3,1.6-0.3c2.1,0,3.1,1.1,3.1,3.2V4213z"/>
		<path class="st2" d="M710.9,4208.7c0,1.4-0.4,2.5-1.1,3.3c-0.7,0.8-1.7,1.2-3,1.2c-0.8,0-1.5-0.2-2.1-0.5
			c-0.6-0.4-1.1-0.9-1.4-1.6c-0.3-0.7-0.5-1.5-0.5-2.4c0-1.4,0.4-2.5,1.1-3.3s1.7-1.2,3-1.2c1.3,0,2.2,0.4,3,1.2
			C710.5,4206.2,710.9,4207.3,710.9,4208.7z M704.6,4208.7c0,2,0.7,3,2.2,3c1.5,0,2.2-1,2.2-3c0-2-0.7-3-2.2-3
			c-0.8,0-1.3,0.3-1.7,0.8C704.8,4207,704.6,4207.7,704.6,4208.7z"/>
		<path class="st2" d="M722.6,4213l-0.4-1.2h-0.1c-0.4,0.5-0.8,0.9-1.3,1.1s-1,0.3-1.6,0.3c-0.8,0-1.5-0.2-2-0.7s-0.7-1.1-0.7-1.9
			c0-0.9,0.3-1.6,1-2c0.7-0.5,1.7-0.7,3-0.7l1.5,0v-0.5c0-0.6-0.1-1-0.4-1.2s-0.7-0.4-1.2-0.4c-0.4,0-0.9,0.1-1.3,0.2
			s-0.8,0.3-1.2,0.5l-0.6-1.3c0.5-0.2,1-0.4,1.5-0.6c0.6-0.1,1.1-0.2,1.6-0.2c1.1,0,1.9,0.2,2.5,0.7c0.6,0.5,0.8,1.2,0.8,2.3v5.8
			H722.6z M719.8,4211.8c0.7,0,1.2-0.2,1.6-0.6c0.4-0.4,0.6-0.9,0.6-1.6v-0.8l-1.1,0c-0.9,0-1.5,0.2-1.9,0.4
			c-0.4,0.3-0.6,0.7-0.6,1.2c0,0.4,0.1,0.7,0.3,0.9C719,4211.6,719.4,4211.8,719.8,4211.8z M719.3,4203.3v-0.2
			c0.3-0.4,0.6-0.8,0.9-1.2c0.3-0.4,0.6-0.8,0.7-1.1h2.1v0.2c-0.3,0.3-0.7,0.7-1.2,1.2s-1,0.9-1.4,1.2H719.3z"/>
		<path class="st2" d="M729.9,4213.2c-1.3,0-2.3-0.4-3-1.1s-1-1.9-1-3.3c0-1.5,0.4-2.6,1.1-3.4s1.7-1.2,3.1-1.2
			c0.9,0,1.7,0.2,2.5,0.5l-0.6,1.5c-0.8-0.3-1.4-0.5-1.9-0.5c-1.5,0-2.2,1-2.2,3c0,1,0.2,1.7,0.6,2.2c0.4,0.5,0.9,0.7,1.6,0.7
			c0.8,0,1.6-0.2,2.3-0.6v1.6c-0.3,0.2-0.7,0.3-1.1,0.4C730.9,4213.1,730.5,4213.2,729.9,4213.2z"/>
		<path class="st2" d="M734.3,4202.1c0-0.3,0.1-0.6,0.3-0.8s0.4-0.3,0.8-0.3c0.3,0,0.6,0.1,0.8,0.3s0.3,0.4,0.3,0.8
			c0,0.3-0.1,0.6-0.3,0.7s-0.4,0.3-0.8,0.3c-0.3,0-0.6-0.1-0.8-0.3S734.3,4202.4,734.3,4202.1z M736.2,4213h-1.8v-8.6h1.8V4213z"/>
		<path class="st2" d="M741.7,4213.2c-1.1,0-1.9-0.4-2.5-1.2c-0.6-0.8-0.9-1.9-0.9-3.3c0-1.4,0.3-2.5,0.9-3.3
			c0.6-0.8,1.5-1.2,2.5-1.2c1.1,0,2,0.4,2.6,1.3h0.1c-0.1-0.6-0.1-1.1-0.1-1.5v-3.1h1.8v12.2h-1.4l-0.3-1.1h-0.1
			C743.7,4212.7,742.9,4213.2,741.7,4213.2z M742.2,4211.7c0.8,0,1.3-0.2,1.6-0.6s0.5-1.1,0.5-2.1v-0.3c0-1.1-0.2-1.9-0.5-2.3
			c-0.4-0.5-0.9-0.7-1.7-0.7c-0.6,0-1.1,0.3-1.5,0.8c-0.3,0.5-0.5,1.3-0.5,2.2c0,1,0.2,1.7,0.5,2.2
			C741,4211.4,741.6,4211.7,742.2,4211.7z"/>
		<path class="st2" d="M754.2,4213l-0.4-1.2h-0.1c-0.4,0.5-0.8,0.9-1.3,1.1s-1,0.3-1.6,0.3c-0.8,0-1.5-0.2-2-0.7s-0.7-1.1-0.7-1.9
			c0-0.9,0.3-1.6,1-2c0.7-0.5,1.7-0.7,3-0.7l1.5,0v-0.5c0-0.6-0.1-1-0.4-1.2s-0.7-0.4-1.2-0.4c-0.4,0-0.9,0.1-1.3,0.2
			s-0.8,0.3-1.2,0.5l-0.6-1.3c0.5-0.2,1-0.4,1.5-0.6c0.6-0.1,1.1-0.2,1.6-0.2c1.1,0,1.9,0.2,2.5,0.7c0.6,0.5,0.8,1.2,0.8,2.3v5.8
			H754.2z M751.5,4211.8c0.7,0,1.2-0.2,1.6-0.6c0.4-0.4,0.6-0.9,0.6-1.6v-0.8l-1.1,0c-0.9,0-1.5,0.2-1.9,0.4
			c-0.4,0.3-0.6,0.7-0.6,1.2c0,0.4,0.1,0.7,0.3,0.9C750.7,4211.6,751,4211.8,751.5,4211.8z"/>
		<path class="st2" d="M763.9,4210.5c0,0.8-0.3,1.5-0.9,1.9c-0.6,0.5-1.5,0.7-2.6,0.7c-1.2,0-2.1-0.2-2.8-0.5v-1.6
			c1,0.5,2,0.7,2.8,0.7c1.1,0,1.7-0.3,1.7-1c0-0.2-0.1-0.4-0.2-0.5s-0.3-0.3-0.6-0.5c-0.3-0.2-0.7-0.3-1.2-0.5c-1-0.4-1.7-0.8-2-1.2
			s-0.5-0.9-0.5-1.5c0-0.7,0.3-1.3,0.9-1.7c0.6-0.4,1.4-0.6,2.4-0.6c1,0,2,0.2,2.9,0.6l-0.6,1.4c-0.9-0.4-1.7-0.6-2.4-0.6
			c-1,0-1.5,0.3-1.5,0.8c0,0.3,0.1,0.5,0.4,0.7c0.3,0.2,0.8,0.4,1.7,0.8c0.7,0.3,1.2,0.5,1.6,0.8c0.3,0.2,0.6,0.5,0.7,0.8
			S763.9,4210.1,763.9,4210.5z"/>
		<path class="st2" d="M765.6,4205.4c0-0.8,0.4-1.2,1.2-1.2c0.4,0,0.7,0.1,0.9,0.3c0.2,0.2,0.3,0.5,0.3,0.9s-0.1,0.7-0.3,0.9
			c-0.2,0.2-0.5,0.3-0.9,0.3s-0.7-0.1-0.9-0.3C765.7,4206,765.6,4205.7,765.6,4205.4z M765.6,4212c0-0.4,0.1-0.7,0.3-0.9
			c0.2-0.2,0.5-0.3,0.9-0.3c0.4,0,0.7,0.1,0.9,0.3c0.2,0.2,0.3,0.5,0.3,0.9c0,0.4-0.1,0.7-0.3,0.9c-0.2,0.2-0.5,0.3-0.9,0.3
			s-0.7-0.1-0.9-0.3C765.7,4212.7,765.6,4212.4,765.6,4212z"/>
	</g>
	<g class="st1">
		<path class="st2" d="M613.4,4231.2c0-0.6,0.1-1.1,0.4-1.4c0.3-0.3,0.7-0.5,1.3-0.5c0.5,0,1,0.2,1.3,0.5c0.3,0.3,0.5,0.8,0.5,1.4
			c0,0.6-0.2,1.1-0.4,1.4c-0.3,0.3-0.7,0.5-1.3,0.5c-0.6,0-1-0.2-1.3-0.5S613.4,4231.8,613.4,4231.2z"/>
		<path class="st2" d="M630.3,4234c0,1-0.4,1.8-1.1,2.4c-0.7,0.6-1.7,0.8-3,0.8c-1.4,0-2.4-0.2-3.1-0.5v-1.3c0.5,0.2,1,0.4,1.5,0.5
			c0.6,0.1,1.1,0.2,1.6,0.2c0.9,0,1.6-0.2,2-0.5c0.4-0.3,0.7-0.8,0.7-1.4c0-0.4-0.1-0.7-0.2-1c-0.2-0.3-0.4-0.5-0.8-0.7
			c-0.4-0.2-0.9-0.5-1.7-0.7c-1.1-0.4-1.8-0.8-2.3-1.4c-0.5-0.5-0.7-1.2-0.7-2c0-0.9,0.3-1.6,1-2.1c0.7-0.5,1.5-0.8,2.6-0.8
			c1.1,0,2.2,0.2,3.1,0.6l-0.4,1.2c-0.9-0.4-1.9-0.6-2.8-0.6c-0.7,0-1.3,0.2-1.6,0.5c-0.4,0.3-0.6,0.7-0.6,1.3c0,0.4,0.1,0.7,0.2,1
			c0.1,0.3,0.4,0.5,0.7,0.7c0.3,0.2,0.9,0.4,1.6,0.7c1.2,0.4,2,0.9,2.5,1.4C630.1,4232.5,630.3,4233.2,630.3,4234z"/>
		<path class="st2" d="M633.7,4228.4v5.6c0,0.7,0.2,1.2,0.5,1.6c0.3,0.3,0.8,0.5,1.5,0.5c0.9,0,1.6-0.2,2-0.7s0.6-1.3,0.6-2.4v-4.5
			h1.3v8.6h-1.1l-0.2-1.1h-0.1c-0.3,0.4-0.6,0.7-1.1,1c-0.5,0.2-1,0.3-1.6,0.3c-1,0-1.8-0.2-2.3-0.7c-0.5-0.5-0.8-1.3-0.8-2.4v-5.6
			H633.7z"/>
		<path class="st2" d="M650.4,4237.2c-0.6,0-1.1-0.1-1.5-0.3s-0.8-0.5-1.2-0.9h-0.1c0.1,0.5,0.1,1,0.1,1.4v3.5h-1.3v-12.4h1.1
			l0.2,1.2h0.1c0.3-0.5,0.7-0.8,1.2-1c0.4-0.2,1-0.3,1.5-0.3c1.1,0,2,0.4,2.6,1.2s0.9,1.9,0.9,3.3c0,1.4-0.3,2.5-0.9,3.3
			C652.4,4236.8,651.6,4237.2,650.4,4237.2z M650.3,4229.4c-0.9,0-1.5,0.2-1.9,0.7s-0.6,1.3-0.6,2.3v0.3c0,1.2,0.2,2.1,0.6,2.6
			c0.4,0.5,1,0.8,1.9,0.8c0.7,0,1.3-0.3,1.7-0.9c0.4-0.6,0.6-1.4,0.6-2.5c0-1.1-0.2-1.9-0.6-2.5
			C651.6,4229.7,651,4229.4,650.3,4229.4z"/>
		<path class="st2" d="M665.1,4237h-1.3v-5.4h-6v5.4h-1.3v-11.4h1.3v4.9h6v-4.9h1.3V4237z"/>
		<path class="st2" d="M675.8,4237.2c-1.3,0-2.3-0.4-3-1.2c-0.7-0.8-1.1-1.8-1.1-3.2c0-1.4,0.3-2.5,1-3.3s1.6-1.2,2.7-1.2
			c1.1,0,1.9,0.4,2.5,1.1s0.9,1.6,0.9,2.8v0.8h-5.9c0,1,0.3,1.8,0.8,2.3c0.5,0.5,1.2,0.8,2,0.8c0.9,0,1.8-0.2,2.7-0.6v1.2
			c-0.5,0.2-0.9,0.3-1.3,0.4C676.9,4237.1,676.4,4237.2,675.8,4237.2z M675.5,4229.4c-0.7,0-1.2,0.2-1.6,0.7
			c-0.4,0.4-0.7,1.1-0.7,1.9h4.5c0-0.8-0.2-1.4-0.5-1.9C676.7,4229.6,676.2,4229.4,675.5,4229.4z"/>
		<path class="st2" d="M686.7,4234.7c0,0.8-0.3,1.4-0.9,1.8s-1.4,0.6-2.5,0.6c-1.1,0-2-0.2-2.7-0.5v-1.2c0.4,0.2,0.9,0.4,1.3,0.5
			c0.5,0.1,0.9,0.2,1.4,0.2c0.7,0,1.2-0.1,1.6-0.3c0.4-0.2,0.5-0.5,0.5-1c0-0.3-0.1-0.6-0.4-0.9s-0.9-0.5-1.7-0.8
			c-0.8-0.3-1.4-0.6-1.7-0.8s-0.6-0.5-0.8-0.8s-0.2-0.6-0.2-1c0-0.7,0.3-1.2,0.9-1.7c0.6-0.4,1.3-0.6,2.3-0.6c0.9,0,1.8,0.2,2.7,0.6
			l-0.5,1.1c-0.9-0.4-1.6-0.5-2.3-0.5c-0.6,0-1.1,0.1-1.4,0.3s-0.5,0.5-0.5,0.8c0,0.2,0.1,0.4,0.2,0.6s0.3,0.3,0.6,0.5
			c0.3,0.1,0.8,0.4,1.5,0.6c1,0.4,1.7,0.7,2.1,1.1C686.5,4233.6,686.7,4234.1,686.7,4234.7z"/>
		<path class="st2" d="M692.9,4226.1c0-0.3,0.1-0.5,0.2-0.7c0.1-0.1,0.3-0.2,0.5-0.2c0.2,0,0.4,0.1,0.5,0.2c0.2,0.1,0.2,0.4,0.2,0.6
			s-0.1,0.5-0.2,0.7c-0.2,0.1-0.3,0.2-0.5,0.2c-0.2,0-0.4-0.1-0.5-0.2C693,4226.6,692.9,4226.4,692.9,4226.1z M694.3,4237H693v-8.6
			h1.3V4237z"/>
		<path class="st2" d="M704,4228.4v0.8l-1.6,0.2c0.1,0.2,0.3,0.4,0.4,0.7c0.1,0.3,0.2,0.6,0.2,1c0,0.8-0.3,1.5-0.9,2
			c-0.6,0.5-1.4,0.8-2.4,0.8c-0.3,0-0.5,0-0.7-0.1c-0.6,0.3-0.8,0.7-0.8,1.1c0,0.2,0.1,0.4,0.3,0.5c0.2,0.1,0.5,0.2,1,0.2h1.5
			c0.9,0,1.6,0.2,2.1,0.6c0.5,0.4,0.7,1,0.7,1.7c0,0.9-0.4,1.7-1.1,2.2c-0.8,0.5-1.9,0.7-3.3,0.7c-1.1,0-2-0.2-2.6-0.6
			c-0.6-0.4-0.9-1-0.9-1.8c0-0.5,0.2-1,0.5-1.4c0.3-0.4,0.8-0.6,1.4-0.8c-0.2-0.1-0.4-0.3-0.6-0.5s-0.2-0.5-0.2-0.7
			c0-0.3,0.1-0.6,0.3-0.8c0.2-0.2,0.4-0.5,0.8-0.7c-0.4-0.2-0.8-0.5-1.1-0.9c-0.3-0.4-0.4-0.9-0.4-1.5c0-0.9,0.3-1.7,0.8-2.2
			s1.4-0.8,2.4-0.8c0.4,0,0.9,0.1,1.2,0.2H704z M697.2,4238.4c0,0.5,0.2,0.8,0.6,1.1s1,0.4,1.7,0.4c1.1,0,1.9-0.2,2.4-0.5
			s0.8-0.8,0.8-1.3c0-0.5-0.1-0.8-0.4-1c-0.3-0.2-0.8-0.3-1.6-0.3h-1.6c-0.6,0-1,0.1-1.4,0.4S697.2,4237.9,697.2,4238.4z
			 M697.9,4231.2c0,0.6,0.2,1.1,0.5,1.4c0.3,0.3,0.8,0.5,1.4,0.5c1.3,0,1.9-0.6,1.9-1.8c0-1.3-0.6-1.9-1.9-1.9
			c-0.6,0-1.1,0.2-1.4,0.5S697.9,4230.5,697.9,4231.2z"/>
		<path class="st2" d="M707,4228.4v5.6c0,0.7,0.2,1.2,0.5,1.6c0.3,0.3,0.8,0.5,1.5,0.5c0.9,0,1.6-0.2,2-0.7s0.6-1.3,0.6-2.4v-4.5
			h1.3v8.6h-1.1l-0.2-1.1h-0.1c-0.3,0.4-0.6,0.7-1.1,1c-0.5,0.2-1,0.3-1.6,0.3c-1,0-1.8-0.2-2.3-0.7c-0.5-0.5-0.8-1.3-0.8-2.4v-5.6
			H707z"/>
		<path class="st2" d="M720.9,4237l-0.3-1.2h-0.1c-0.4,0.5-0.9,0.9-1.3,1.1c-0.4,0.2-1,0.3-1.6,0.3c-0.8,0-1.5-0.2-2-0.7
			c-0.5-0.4-0.7-1.1-0.7-1.9c0-1.7,1.4-2.6,4.1-2.7l1.5,0v-0.5c0-0.7-0.1-1.2-0.4-1.5s-0.8-0.5-1.4-0.5c-0.7,0-1.5,0.2-2.4,0.7
			l-0.4-1c0.4-0.2,0.9-0.4,1.4-0.5c0.5-0.1,1-0.2,1.5-0.2c1,0,1.8,0.2,2.3,0.7s0.7,1.2,0.7,2.2v5.8H720.9z M718,4236.1
			c0.8,0,1.4-0.2,1.9-0.7s0.7-1.1,0.7-1.9v-0.8l-1.3,0.1c-1,0-1.8,0.2-2.2,0.5c-0.5,0.3-0.7,0.7-0.7,1.3c0,0.5,0.1,0.8,0.4,1.1
			C717.1,4236,717.5,4236.1,718,4236.1z"/>
		<path class="st2" d="M725.8,4237h-1.3v-12.2h1.3V4237z"/>
		<path class="st2" d="M740.1,4232.7c0,1.4-0.4,2.5-1.1,3.3s-1.7,1.2-2.9,1.2c-0.8,0-1.4-0.2-2-0.5s-1.1-0.9-1.4-1.5
			c-0.3-0.7-0.5-1.5-0.5-2.4c0-1.4,0.3-2.5,1-3.3c0.7-0.8,1.7-1.2,2.9-1.2c1.2,0,2.1,0.4,2.9,1.2
			C739.8,4230.3,740.1,4231.4,740.1,4232.7z M733.6,4232.7c0,1.1,0.2,1.9,0.7,2.5s1.1,0.9,1.9,0.9c0.8,0,1.5-0.3,1.9-0.9
			c0.4-0.6,0.7-1.4,0.7-2.5c0-1.1-0.2-1.9-0.7-2.5c-0.4-0.6-1.1-0.8-1.9-0.8c-0.8,0-1.5,0.3-1.9,0.8
			C733.8,4230.8,733.6,4231.6,733.6,4232.7z"/>
		<path class="st2" d="M757.5,4237v-5.6c0-0.7-0.1-1.2-0.4-1.5c-0.3-0.3-0.7-0.5-1.4-0.5c-0.8,0-1.4,0.2-1.8,0.7
			c-0.4,0.5-0.6,1.2-0.6,2.1v4.8H752v-5.6c0-0.7-0.1-1.2-0.4-1.5c-0.3-0.3-0.7-0.5-1.4-0.5c-0.8,0-1.4,0.2-1.8,0.7
			c-0.4,0.5-0.6,1.3-0.6,2.4v4.5h-1.3v-8.6h1.1l0.2,1.2h0.1c0.2-0.4,0.6-0.7,1-1s0.9-0.4,1.5-0.4c1.3,0,2.2,0.5,2.6,1.5h0.1
			c0.3-0.4,0.6-0.8,1.1-1.1s1-0.4,1.7-0.4c1,0,1.7,0.2,2.2,0.7c0.5,0.5,0.7,1.3,0.7,2.4v5.6H757.5z"/>
		<path class="st2" d="M766.7,4237l-0.3-1.2h-0.1c-0.4,0.5-0.9,0.9-1.3,1.1c-0.4,0.2-1,0.3-1.6,0.3c-0.8,0-1.5-0.2-2-0.7
			c-0.5-0.4-0.7-1.1-0.7-1.9c0-1.7,1.4-2.6,4.1-2.7l1.5,0v-0.5c0-0.7-0.1-1.2-0.4-1.5s-0.8-0.5-1.4-0.5c-0.7,0-1.5,0.2-2.4,0.7
			l-0.4-1c0.4-0.2,0.9-0.4,1.4-0.5c0.5-0.1,1-0.2,1.5-0.2c1,0,1.8,0.2,2.3,0.7s0.7,1.2,0.7,2.2v5.8H766.7z M763.8,4236.1
			c0.8,0,1.4-0.2,1.9-0.7s0.7-1.1,0.7-1.9v-0.8l-1.3,0.1c-1,0-1.8,0.2-2.2,0.5c-0.5,0.3-0.7,0.7-0.7,1.3c0,0.5,0.1,0.8,0.4,1.1
			C762.9,4236,763.3,4236.1,763.8,4236.1z"/>
		<path class="st2" d="M769,4228.4h1.4l1.9,4.9c0.4,1.1,0.7,1.9,0.8,2.4h0.1c0.1-0.3,0.2-0.7,0.4-1.4c0.2-0.6,0.9-2.6,2.1-5.9h1.4
			l-3.7,9.8c-0.4,1-0.8,1.6-1.3,2.1c-0.5,0.4-1.1,0.6-1.8,0.6c-0.4,0-0.8,0-1.2-0.1v-1c0.3,0.1,0.6,0.1,1,0.1c0.9,0,1.5-0.5,1.9-1.5
			l0.5-1.2L769,4228.4z"/>
		<path class="st2" d="M785.8,4232.7c0,1.4-0.4,2.5-1.1,3.3s-1.7,1.2-2.9,1.2c-0.8,0-1.4-0.2-2-0.5s-1.1-0.9-1.4-1.5
			c-0.3-0.7-0.5-1.5-0.5-2.4c0-1.4,0.3-2.5,1-3.3c0.7-0.8,1.7-1.2,2.9-1.2c1.2,0,2.1,0.4,2.9,1.2
			C785.4,4230.3,785.8,4231.4,785.8,4232.7z M779.3,4232.7c0,1.1,0.2,1.9,0.7,2.5s1.1,0.9,1.9,0.9c0.8,0,1.5-0.3,1.9-0.9
			c0.4-0.6,0.7-1.4,0.7-2.5c0-1.1-0.2-1.9-0.7-2.5c-0.4-0.6-1.1-0.8-1.9-0.8c-0.8,0-1.5,0.3-1.9,0.8
			C779.5,4230.8,779.3,4231.6,779.3,4232.7z"/>
		<path class="st2" d="M792,4228.3c0.4,0,0.7,0,1,0.1l-0.2,1.2c-0.4-0.1-0.7-0.1-0.9-0.1c-0.7,0-1.3,0.3-1.8,0.8s-0.7,1.3-0.7,2.1
			v4.6h-1.3v-8.6h1.1l0.1,1.6h0.1c0.3-0.6,0.7-1,1.1-1.3C790.9,4228.4,791.4,4228.3,792,4228.3z"/>
		<path class="st2" d="M804,4237l-0.3-1.2h-0.1c-0.4,0.5-0.9,0.9-1.3,1.1c-0.4,0.2-1,0.3-1.6,0.3c-0.8,0-1.5-0.2-2-0.7
			c-0.5-0.4-0.7-1.1-0.7-1.9c0-1.7,1.4-2.6,4.1-2.7l1.5,0v-0.5c0-0.7-0.1-1.2-0.4-1.5s-0.8-0.5-1.4-0.5c-0.7,0-1.5,0.2-2.4,0.7
			l-0.4-1c0.4-0.2,0.9-0.4,1.4-0.5c0.5-0.1,1-0.2,1.5-0.2c1,0,1.8,0.2,2.3,0.7s0.7,1.2,0.7,2.2v5.8H804z M801.1,4236.1
			c0.8,0,1.4-0.2,1.9-0.7s0.7-1.1,0.7-1.9v-0.8l-1.3,0.1c-1,0-1.8,0.2-2.2,0.5c-0.5,0.3-0.7,0.7-0.7,1.3c0,0.5,0.1,0.8,0.4,1.1
			C800.2,4236,800.6,4236.1,801.1,4236.1z"/>
		<path class="st2" d="M819.3,4234.4h-1.7v2.6h-1.2v-2.6h-5.6v-1.1l5.4-7.7h1.4v7.7h1.7V4234.4z M816.3,4233.2v-3.8
			c0-0.7,0-1.6,0.1-2.5h-0.1c-0.3,0.5-0.5,0.9-0.7,1.2l-3.6,5.1H816.3z"/>
		<path class="st2" d="M822.3,4235.1l0.1,0.2c-0.1,0.5-0.3,1.1-0.6,1.8c-0.3,0.7-0.5,1.3-0.8,1.9h-1c0.1-0.5,0.3-1.2,0.5-2
			c0.2-0.8,0.3-1.4,0.4-1.9H822.3z"/>
		<path class="st2" d="M827.8,4230c1.2,0,2.1,0.3,2.8,0.9c0.7,0.6,1,1.4,1,2.4c0,1.2-0.4,2.1-1.1,2.8c-0.8,0.7-1.8,1-3.1,1
			c-1.3,0-2.3-0.2-2.9-0.6v-1.3c0.4,0.2,0.8,0.4,1.4,0.6c0.5,0.1,1.1,0.2,1.6,0.2c0.9,0,1.6-0.2,2.1-0.6s0.8-1.1,0.8-1.9
			c0-1.6-1-2.4-2.9-2.4c-0.5,0-1.2,0.1-2,0.2l-0.7-0.4l0.4-5.3h5.7v1.2h-4.6l-0.3,3.4C826.7,4230.1,827.3,4230,827.8,4230z"/>
		<path class="st2" d="M833.8,4236.2c0-0.3,0.1-0.6,0.2-0.8c0.2-0.2,0.4-0.3,0.7-0.3c0.3,0,0.5,0.1,0.7,0.3c0.2,0.2,0.3,0.4,0.3,0.8
			c0,0.3-0.1,0.6-0.3,0.8s-0.4,0.3-0.7,0.3c-0.3,0-0.5-0.1-0.7-0.2C833.9,4236.8,833.8,4236.5,833.8,4236.2z"/>
	</g>
	<g class="st1">
		<path class="st2" d="M613.4,4255.2c0-0.6,0.1-1.1,0.4-1.4c0.3-0.3,0.7-0.5,1.3-0.5c0.5,0,1,0.2,1.3,0.5c0.3,0.3,0.5,0.8,0.5,1.4
			c0,0.6-0.2,1.1-0.4,1.4c-0.3,0.3-0.7,0.5-1.3,0.5c-0.6,0-1-0.2-1.3-0.5S613.4,4255.8,613.4,4255.2z"/>
		<path class="st2" d="M628.8,4250.6c-1.3,0-2.2,0.4-3,1.3s-1.1,2-1.1,3.4c0,1.5,0.3,2.6,1.1,3.5c0.7,0.8,1.7,1.2,3,1.2
			c0.8,0,1.7-0.1,2.7-0.4v1.2c-0.8,0.3-1.8,0.4-2.9,0.4c-1.7,0-3-0.5-3.9-1.5s-1.4-2.5-1.4-4.4c0-1.2,0.2-2.2,0.7-3.1
			c0.4-0.9,1.1-1.6,1.9-2c0.8-0.5,1.8-0.7,2.9-0.7c1.2,0,2.2,0.2,3.1,0.7l-0.6,1.1C630.5,4250.8,629.7,4250.6,628.8,4250.6z"/>
		<path class="st2" d="M637.7,4252.3c0.4,0,0.7,0,1,0.1l-0.2,1.2c-0.4-0.1-0.7-0.1-0.9-0.1c-0.7,0-1.3,0.3-1.8,0.8s-0.7,1.3-0.7,2.1
			v4.6h-1.3v-8.6h1.1l0.1,1.6h0.1c0.3-0.6,0.7-1,1.1-1.3C636.7,4252.4,637.2,4252.3,637.7,4252.3z"/>
		<path class="st2" d="M643.9,4261.2c-1.3,0-2.3-0.4-3-1.2c-0.7-0.8-1.1-1.8-1.1-3.2c0-1.4,0.3-2.5,1-3.3s1.6-1.2,2.7-1.2
			c1.1,0,1.9,0.4,2.5,1.1s0.9,1.6,0.9,2.8v0.8h-5.9c0,1,0.3,1.8,0.8,2.3c0.5,0.5,1.2,0.8,2,0.8c0.9,0,1.8-0.2,2.7-0.6v1.2
			c-0.5,0.2-0.9,0.3-1.3,0.4C645,4261.1,644.5,4261.2,643.9,4261.2z M643.6,4253.4c-0.7,0-1.2,0.2-1.6,0.7c-0.4,0.4-0.7,1.1-0.7,1.9
			h4.5c0-0.8-0.2-1.4-0.5-1.9C644.8,4253.6,644.3,4253.4,643.6,4253.4z"/>
		<path class="st2" d="M652.7,4261.2c-1.2,0-2.2-0.4-2.9-1.1s-1-1.8-1-3.2c0-1.4,0.3-2.5,1-3.3c0.7-0.8,1.7-1.2,2.9-1.2
			c0.4,0,0.8,0,1.2,0.1c0.4,0.1,0.7,0.2,1,0.3l-0.4,1.1c-0.3-0.1-0.6-0.2-0.9-0.3c-0.3-0.1-0.6-0.1-0.9-0.1c-1.7,0-2.6,1.1-2.6,3.3
			c0,1.1,0.2,1.9,0.6,2.4c0.4,0.6,1.1,0.8,1.9,0.8c0.7,0,1.4-0.2,2.2-0.5v1.1C654.3,4261,653.6,4261.2,652.7,4261.2z"/>
		<path class="st2" d="M660.5,4261.2c-1.3,0-2.3-0.4-3-1.2c-0.7-0.8-1.1-1.8-1.1-3.2c0-1.4,0.3-2.5,1-3.3s1.6-1.2,2.7-1.2
			c1.1,0,1.9,0.4,2.5,1.1s0.9,1.6,0.9,2.8v0.8h-5.9c0,1,0.3,1.8,0.8,2.3c0.5,0.5,1.2,0.8,2,0.8c0.9,0,1.8-0.2,2.7-0.6v1.2
			c-0.5,0.2-0.9,0.3-1.3,0.4C661.6,4261.1,661.1,4261.2,660.5,4261.2z M660.2,4253.4c-0.7,0-1.2,0.2-1.6,0.7
			c-0.4,0.4-0.7,1.1-0.7,1.9h4.5c0-0.8-0.2-1.4-0.5-1.9C661.4,4253.6,660.9,4253.4,660.2,4253.4z"/>
		<path class="st2" d="M671.8,4261v-5.5c0-0.7-0.2-1.2-0.5-1.6c-0.3-0.3-0.8-0.5-1.5-0.5c-0.9,0-1.6,0.2-2,0.7
			c-0.4,0.5-0.6,1.3-0.6,2.4v4.5h-1.3v-8.6h1.1l0.2,1.2h0.1c0.3-0.4,0.6-0.7,1.1-1c0.5-0.2,1-0.3,1.6-0.3c1,0,1.8,0.2,2.3,0.7
			c0.5,0.5,0.8,1.3,0.8,2.4v5.6H671.8z"/>
		<path class="st2" d="M683.9,4252.3c1.1,0,2,0.4,2.6,1.2c0.6,0.8,0.9,1.9,0.9,3.3s-0.3,2.5-0.9,3.3c-0.6,0.8-1.5,1.2-2.6,1.2
			c-0.6,0-1.1-0.1-1.5-0.3s-0.8-0.5-1.2-0.9h-0.1l-0.3,1.1h-0.9v-12.2h1.3v3c0,0.7,0,1.3-0.1,1.8h0.1
			C681.8,4252.7,682.7,4252.3,683.9,4252.3z M683.7,4253.4c-0.9,0-1.5,0.3-1.9,0.8s-0.6,1.4-0.6,2.6s0.2,2.1,0.6,2.6
			c0.4,0.5,1,0.8,1.9,0.8c0.8,0,1.4-0.3,1.8-0.9s0.6-1.4,0.6-2.5c0-1.1-0.2-1.9-0.6-2.5S684.5,4253.4,683.7,4253.4z"/>
		<path class="st2" d="M694.9,4261l-0.3-1.2h-0.1c-0.4,0.5-0.9,0.9-1.3,1.1c-0.4,0.2-1,0.3-1.6,0.3c-0.8,0-1.5-0.2-2-0.7
			c-0.5-0.4-0.7-1.1-0.7-1.9c0-1.7,1.4-2.6,4.1-2.7l1.5,0v-0.5c0-0.7-0.1-1.2-0.4-1.5s-0.8-0.5-1.4-0.5c-0.7,0-1.5,0.2-2.4,0.7
			l-0.4-1c0.4-0.2,0.9-0.4,1.4-0.5c0.5-0.1,1-0.2,1.5-0.2c1,0,1.8,0.2,2.3,0.7s0.7,1.2,0.7,2.2v5.8H694.9z M692,4260.1
			c0.8,0,1.4-0.2,1.9-0.7s0.7-1.1,0.7-1.9v-0.8l-1.3,0.1c-1,0-1.8,0.2-2.2,0.5c-0.5,0.3-0.7,0.7-0.7,1.3c0,0.5,0.1,0.8,0.4,1.1
			C691.1,4260,691.5,4260.1,692,4260.1z"/>
		<path class="st2" d="M702,4261.2c-1.2,0-2.2-0.4-2.9-1.1s-1-1.8-1-3.2c0-1.4,0.3-2.5,1-3.3c0.7-0.8,1.7-1.2,2.9-1.2
			c0.4,0,0.8,0,1.2,0.1c0.4,0.1,0.7,0.2,1,0.3l-0.4,1.1c-0.3-0.1-0.6-0.2-0.9-0.3c-0.3-0.1-0.6-0.1-0.9-0.1c-1.7,0-2.6,1.1-2.6,3.3
			c0,1.1,0.2,1.9,0.6,2.4c0.4,0.6,1.1,0.8,1.9,0.8c0.7,0,1.4-0.2,2.2-0.5v1.1C703.6,4261,702.9,4261.2,702,4261.2z"/>
		<path class="st2" d="M709,4260.1c0.2,0,0.5,0,0.7-0.1c0.2,0,0.4-0.1,0.5-0.1v1c-0.1,0.1-0.3,0.1-0.6,0.2s-0.5,0.1-0.7,0.1
			c-1.7,0-2.5-0.9-2.5-2.6v-5.1h-1.2v-0.6l1.2-0.5l0.5-1.8h0.8v2h2.5v1h-2.5v5c0,0.5,0.1,0.9,0.4,1.2
			C708.2,4259.9,708.5,4260.1,709,4260.1z"/>
		<path class="st2" d="M715.5,4261.2c-1.3,0-2.3-0.4-3-1.2c-0.7-0.8-1.1-1.8-1.1-3.2c0-1.4,0.3-2.5,1-3.3s1.6-1.2,2.7-1.2
			c1.1,0,1.9,0.4,2.5,1.1s0.9,1.6,0.9,2.8v0.8h-5.9c0,1,0.3,1.8,0.8,2.3c0.5,0.5,1.2,0.8,2,0.8c0.9,0,1.8-0.2,2.7-0.6v1.2
			c-0.5,0.2-0.9,0.3-1.3,0.4C716.5,4261.1,716,4261.2,715.5,4261.2z M715.1,4253.4c-0.7,0-1.2,0.2-1.6,0.7c-0.4,0.4-0.7,1.1-0.7,1.9
			h4.5c0-0.8-0.2-1.4-0.5-1.9C716.3,4253.6,715.8,4253.4,715.1,4253.4z"/>
		<path class="st2" d="M724.7,4252.3c0.4,0,0.7,0,1,0.1l-0.2,1.2c-0.4-0.1-0.7-0.1-0.9-0.1c-0.7,0-1.3,0.3-1.8,0.8s-0.7,1.3-0.7,2.1
			v4.6h-1.3v-8.6h1.1l0.1,1.6h0.1c0.3-0.6,0.7-1,1.1-1.3C723.7,4252.4,724.2,4252.3,724.7,4252.3z"/>
		<path class="st2" d="M727.2,4250.1c0-0.3,0.1-0.5,0.2-0.7c0.1-0.1,0.3-0.2,0.5-0.2c0.2,0,0.4,0.1,0.5,0.2c0.2,0.1,0.2,0.4,0.2,0.6
			s-0.1,0.5-0.2,0.7c-0.2,0.1-0.3,0.2-0.5,0.2c-0.2,0-0.4-0.1-0.5-0.2C727.3,4250.6,727.2,4250.4,727.2,4250.1z M728.6,4261h-1.3
			v-8.6h1.3V4261z"/>
		<path class="st2" d="M736.7,4261l-0.3-1.2h-0.1c-0.4,0.5-0.9,0.9-1.3,1.1c-0.4,0.2-1,0.3-1.6,0.3c-0.8,0-1.5-0.2-2-0.7
			c-0.5-0.4-0.7-1.1-0.7-1.9c0-1.7,1.4-2.6,4.1-2.7l1.5,0v-0.5c0-0.7-0.1-1.2-0.4-1.5s-0.8-0.5-1.4-0.5c-0.7,0-1.5,0.2-2.4,0.7
			l-0.4-1c0.4-0.2,0.9-0.4,1.4-0.5c0.5-0.1,1-0.2,1.5-0.2c1,0,1.8,0.2,2.3,0.7s0.7,1.2,0.7,2.2v5.8H736.7z M733.7,4260.1
			c0.8,0,1.4-0.2,1.9-0.7s0.7-1.1,0.7-1.9v-0.8l-1.3,0.1c-1,0-1.8,0.2-2.2,0.5c-0.5,0.3-0.7,0.7-0.7,1.3c0,0.5,0.1,0.8,0.4,1.1
			C732.8,4260,733.2,4260.1,733.7,4260.1z"/>
		<path class="st2" d="M745.8,4258.7c0,0.8-0.3,1.4-0.9,1.8s-1.4,0.6-2.5,0.6c-1.1,0-2-0.2-2.7-0.5v-1.2c0.4,0.2,0.9,0.4,1.3,0.5
			c0.5,0.1,0.9,0.2,1.4,0.2c0.7,0,1.2-0.1,1.6-0.3c0.4-0.2,0.5-0.5,0.5-1c0-0.3-0.1-0.6-0.4-0.9s-0.9-0.5-1.7-0.8
			c-0.8-0.3-1.4-0.6-1.7-0.8s-0.6-0.5-0.8-0.8s-0.2-0.6-0.2-1c0-0.7,0.3-1.2,0.9-1.7c0.6-0.4,1.3-0.6,2.3-0.6c0.9,0,1.8,0.2,2.7,0.6
			l-0.5,1.1c-0.9-0.4-1.6-0.5-2.3-0.5c-0.6,0-1.1,0.1-1.4,0.3s-0.5,0.5-0.5,0.8c0,0.2,0.1,0.4,0.2,0.6s0.3,0.3,0.6,0.5
			c0.3,0.1,0.8,0.4,1.5,0.6c1,0.4,1.7,0.7,2.1,1.1C745.6,4257.6,745.8,4258.1,745.8,4258.7z"/>
		<path class="st2" d="M747.7,4260.2c0-0.3,0.1-0.6,0.2-0.8c0.2-0.2,0.4-0.3,0.7-0.3c0.3,0,0.5,0.1,0.7,0.3c0.2,0.2,0.3,0.4,0.3,0.8
			c0,0.3-0.1,0.6-0.3,0.8s-0.4,0.3-0.7,0.3c-0.3,0-0.5-0.1-0.7-0.2C747.8,4260.8,747.7,4260.5,747.7,4260.2z"/>
	</g>
	<g id="Grupo_6230" transform="translate(295 3455.242)">
		<ellipse id="Elipse_643" class="st3" cx="178" cy="777.8" rx="51" ry="53"/>
		<g id="Grupo_3916" transform="translate(127 732.326)">
			<rect id="rectangle" y="0.4" class="st4" width="95" height="94"/>
			<path id="path" class="st5" d="M35.9,64.7L19.2,47.9l-5.6,5.6l22.3,22.3L83.8,28l-5.6-5.6L35.9,64.7z"/>
		</g>
	</g>
	<g id="Grupo_6763" transform="translate(755 3455.242)">
		<ellipse id="Elipse_643-2" class="st3" cx="178" cy="777.8" rx="51" ry="53"/>
		<g id="Grupo_3916-2" transform="translate(127 732.326)">
			<rect id="rectangle-2" y="0.4" class="st4" width="95" height="94"/>
			<path id="path-2" class="st5" d="M35.9,64.7L19.2,47.9l-5.6,5.6l22.3,22.3L83.8,28l-5.6-5.6L35.9,64.7z"/>
		</g>
	</g>
</g>
</svg>
