<?xml version="1.0" encoding="utf-8"?>
<!-- Generator: Adobe Illustrator 24.2.0, SVG Export Plug-In . SVG Version: 6.00 Build 0)  -->
<svg version="1.1" id="Capa_1" xmlns="http://www.w3.org/2000/svg" xmlns:xlink="http://www.w3.org/1999/xlink" x="0px" y="0px"
	 viewBox="0 0 848 96" style="enable-background:new 0 0 848 96;" xml:space="preserve">
<style type="text/css">
	.st0{fill:#AEE5E0;}
	.st1{enable-background:new    ;}
	.st2{fill:#232323;}
	.st3{fill:#4DC2C7;}
	.st4{fill:#FFFFFF;}
</style>
<g id="Grupo_11356" transform="translate(-129 -837)">
	<path id="Rect치ngulo_3309" class="st0" d="M141,859h162c6.6,0,12,5.4,12,12v50c0,6.6-5.4,12-12,12H141c-6.6,0-12-5.4-12-12v-50
		C129,864.4,134.4,859,141,859z"/>
	<path id="Rect치ngulo_3380" class="st0" d="M373,859h162c6.6,0,12,5.4,12,12v50c0,6.6-5.4,12-12,12H373c-6.6,0-12-5.4-12-12v-50
		C361,864.4,366.4,859,373,859z"/>
	<path id="Rect치ngulo_3381" class="st0" d="M585,859h162c6.6,0,12,5.4,12,12v50c0,6.6-5.4,12-12,12H585c-6.6,0-12-5.4-12-12v-50
		C573,864.4,578.4,859,585,859z"/>
	<path id="Rect치ngulo_3382" class="st0" d="M803,859h162c6.6,0,12,5.4,12,12v50c0,6.6-5.4,12-12,12H803c-6.6,0-12-5.4-12-12v-50
		C791,864.4,796.4,859,803,859z"/>
	<g class="st1">
		<path class="st2" d="M167.9,913v-11.4h1.9v9.8h4.8v1.6H167.9z"/>
		<path class="st2" d="M181.7,913l-0.4-1.2h-0.1c-0.4,0.5-0.8,0.9-1.3,1.1s-1,0.3-1.6,0.3c-0.8,0-1.5-0.2-2-0.7s-0.7-1.1-0.7-1.9
			c0-0.9,0.3-1.6,1-2c0.7-0.5,1.7-0.7,3-0.7l1.5,0v-0.5c0-0.6-0.1-1-0.4-1.2s-0.7-0.4-1.2-0.4c-0.4,0-0.9,0.1-1.3,0.2
			s-0.8,0.3-1.2,0.5l-0.6-1.3c0.5-0.2,1-0.4,1.5-0.6c0.6-0.1,1.1-0.2,1.6-0.2c1.1,0,1.9,0.2,2.5,0.7c0.6,0.5,0.8,1.2,0.8,2.3v5.8
			H181.7z M179,911.8c0.7,0,1.2-0.2,1.6-0.6c0.4-0.4,0.6-0.9,0.6-1.6v-0.8l-1.1,0c-0.9,0-1.5,0.2-1.9,0.4c-0.4,0.3-0.6,0.7-0.6,1.2
			c0,0.4,0.1,0.7,0.3,0.9C178.2,911.6,178.6,911.8,179,911.8z"/>
		<path class="st2" d="M193.3,913.2c-1.3,0-2.3-0.4-3-1.1s-1-1.9-1-3.3c0-1.5,0.4-2.6,1.1-3.4s1.7-1.2,3.1-1.2
			c0.9,0,1.7,0.2,2.5,0.5l-0.6,1.5c-0.8-0.3-1.4-0.5-1.9-0.5c-1.5,0-2.2,1-2.2,3c0,1,0.2,1.7,0.6,2.2c0.4,0.5,0.9,0.7,1.6,0.7
			c0.8,0,1.6-0.2,2.3-0.6v1.6c-0.3,0.2-0.7,0.3-1.1,0.4C194.2,913.1,193.8,913.2,193.3,913.2z"/>
		<path class="st2" d="M205.4,908.7c0,1.4-0.4,2.5-1.1,3.3c-0.7,0.8-1.7,1.2-3,1.2c-0.8,0-1.5-0.2-2.1-0.5c-0.6-0.4-1.1-0.9-1.4-1.6
			c-0.3-0.7-0.5-1.5-0.5-2.4c0-1.4,0.4-2.5,1.1-3.3s1.7-1.2,3-1.2c1.3,0,2.2,0.4,3,1.2C205,906.2,205.4,907.3,205.4,908.7z
			 M199.1,908.7c0,2,0.7,3,2.2,3c1.5,0,2.2-1,2.2-3c0-2-0.7-3-2.2-3c-0.8,0-1.3,0.3-1.7,0.8C199.2,907,199.1,907.7,199.1,908.7z"/>
		<path class="st2" d="M215.1,913h-1.8v-5.3c0-0.7-0.1-1.2-0.4-1.5c-0.3-0.3-0.7-0.5-1.3-0.5c-0.8,0-1.3,0.2-1.7,0.7
			s-0.5,1.2-0.5,2.3v4.3h-1.8v-8.6h1.4l0.3,1.1h0.1c0.3-0.4,0.6-0.7,1.1-1c0.5-0.2,1-0.3,1.6-0.3c2.1,0,3.1,1.1,3.1,3.2V913z"/>
		<path class="st2" d="M223.4,910.5c0,0.8-0.3,1.5-0.9,1.9c-0.6,0.5-1.5,0.7-2.6,0.7c-1.2,0-2.1-0.2-2.8-0.5V911
			c1,0.5,2,0.7,2.8,0.7c1.1,0,1.7-0.3,1.7-1c0-0.2-0.1-0.4-0.2-0.5s-0.3-0.3-0.6-0.5c-0.3-0.2-0.7-0.3-1.2-0.5c-1-0.4-1.7-0.8-2-1.2
			s-0.5-0.9-0.5-1.5c0-0.7,0.3-1.3,0.9-1.7c0.6-0.4,1.4-0.6,2.4-0.6c1,0,2,0.2,2.9,0.6l-0.6,1.4c-0.9-0.4-1.7-0.6-2.4-0.6
			c-1,0-1.5,0.3-1.5,0.8c0,0.3,0.1,0.5,0.4,0.7c0.3,0.2,0.8,0.4,1.7,0.8c0.7,0.3,1.2,0.5,1.6,0.8c0.3,0.2,0.6,0.5,0.7,0.8
			S223.4,910.1,223.4,910.5z"/>
		<path class="st2" d="M229.2,913.2c-1.3,0-2.4-0.4-3.2-1.2s-1.1-1.9-1.1-3.2c0-1.4,0.4-2.5,1.1-3.3s1.7-1.2,2.9-1.2
			c1.1,0,2,0.3,2.7,1c0.7,0.7,1,1.6,1,2.9v1h-5.8c0,0.8,0.3,1.5,0.7,1.9c0.4,0.5,1,0.7,1.8,0.7c0.5,0,1,0,1.4-0.1
			c0.4-0.1,0.9-0.3,1.4-0.5v1.5c-0.4,0.2-0.9,0.4-1.4,0.5C230.3,913.1,229.8,913.2,229.2,913.2z M228.9,905.6
			c-0.6,0-1.1,0.2-1.4,0.6s-0.6,0.9-0.6,1.6h3.9c0-0.7-0.2-1.3-0.5-1.6C229.9,905.8,229.4,905.6,228.9,905.6z"/>
		<path class="st2" d="M239,904.2c0.4,0,0.7,0,0.9,0.1l-0.2,1.7c-0.3-0.1-0.5-0.1-0.8-0.1c-0.7,0-1.3,0.2-1.8,0.7
			c-0.5,0.5-0.7,1.1-0.7,1.9v4.5h-1.8v-8.6h1.4l0.2,1.5h0.1c0.3-0.5,0.7-0.9,1.1-1.2S238.5,904.2,239,904.2z"/>
		<path class="st2" d="M243.5,913l-3.3-8.6h1.9l1.8,5c0.3,0.8,0.5,1.5,0.5,2h0.1c0-0.4,0.2-1.1,0.5-2l1.8-5h2l-3.3,8.6H243.5z"/>
		<path class="st2" d="M253.9,913.2c-1.3,0-2.4-0.4-3.2-1.2s-1.1-1.9-1.1-3.2c0-1.4,0.4-2.5,1.1-3.3s1.7-1.2,2.9-1.2
			c1.1,0,2,0.3,2.7,1c0.7,0.7,1,1.6,1,2.9v1h-5.8c0,0.8,0.3,1.5,0.7,1.9c0.4,0.5,1,0.7,1.8,0.7c0.5,0,1,0,1.4-0.1
			c0.4-0.1,0.9-0.3,1.4-0.5v1.5c-0.4,0.2-0.9,0.4-1.4,0.5C255,913.1,254.5,913.2,253.9,913.2z M253.5,905.6c-0.6,0-1.1,0.2-1.4,0.6
			s-0.6,0.9-0.6,1.6h3.9c0-0.7-0.2-1.3-0.5-1.6C254.6,905.8,254.1,905.6,253.5,905.6z"/>
		<path class="st2" d="M263.7,904.2c0.4,0,0.7,0,0.9,0.1l-0.2,1.7c-0.3-0.1-0.5-0.1-0.8-0.1c-0.7,0-1.3,0.2-1.8,0.7
			c-0.5,0.5-0.7,1.1-0.7,1.9v4.5h-1.8v-8.6h1.4l0.2,1.5h0.1c0.3-0.5,0.7-0.9,1.1-1.2S263.2,904.2,263.7,904.2z"/>
		<path class="st2" d="M266.1,903.3v-0.2c0.3-0.4,0.6-0.8,0.9-1.2c0.3-0.4,0.6-0.8,0.7-1.1h2.1v0.2c-0.3,0.3-0.7,0.7-1.2,1.2
			s-1,0.9-1.4,1.2H266.1z M268.1,913h-1.8v-8.6h1.8V913z"/>
		<path class="st2" d="M276.1,913l-0.4-1.2h-0.1c-0.4,0.5-0.8,0.9-1.3,1.1s-1,0.3-1.6,0.3c-0.8,0-1.5-0.2-2-0.7s-0.7-1.1-0.7-1.9
			c0-0.9,0.3-1.6,1-2c0.7-0.5,1.7-0.7,3-0.7l1.5,0v-0.5c0-0.6-0.1-1-0.4-1.2s-0.7-0.4-1.2-0.4c-0.4,0-0.9,0.1-1.3,0.2
			s-0.8,0.3-1.2,0.5l-0.6-1.3c0.5-0.2,1-0.4,1.5-0.6c0.6-0.1,1.1-0.2,1.6-0.2c1.1,0,1.9,0.2,2.5,0.7c0.6,0.5,0.8,1.2,0.8,2.3v5.8
			H276.1z M273.3,911.8c0.7,0,1.2-0.2,1.6-0.6c0.4-0.4,0.6-0.9,0.6-1.6v-0.8l-1.1,0c-0.9,0-1.5,0.2-1.9,0.4
			c-0.4,0.3-0.6,0.7-0.6,1.2c0,0.4,0.1,0.7,0.3,0.9C272.5,911.6,272.9,911.8,273.3,911.8z"/>
	</g>
	<g class="st1">
		<path class="st2" d="M387.7,909v-11.4h1.9v9.8h4.8v1.6H387.7z"/>
		<path class="st2" d="M403.9,904.7c0,1.4-0.4,2.5-1.1,3.3c-0.7,0.8-1.7,1.2-3,1.2c-0.8,0-1.5-0.2-2.1-0.5c-0.6-0.4-1.1-0.9-1.4-1.6
			c-0.3-0.7-0.5-1.5-0.5-2.4c0-1.4,0.4-2.5,1.1-3.3s1.7-1.2,3-1.2c1.3,0,2.2,0.4,3,1.2C403.5,902.2,403.9,903.3,403.9,904.7z
			 M397.6,904.7c0,2,0.7,3,2.2,3c1.5,0,2.2-1,2.2-3c0-2-0.7-3-2.2-3c-0.8,0-1.3,0.3-1.7,0.8C397.8,903,397.6,903.7,397.6,904.7z"/>
		<path class="st2" d="M411.8,906.5c0,0.8-0.3,1.5-0.9,1.9c-0.6,0.5-1.5,0.7-2.6,0.7c-1.2,0-2.1-0.2-2.8-0.5V907
			c1,0.5,2,0.7,2.8,0.7c1.1,0,1.7-0.3,1.7-1c0-0.2-0.1-0.4-0.2-0.5s-0.3-0.3-0.6-0.5c-0.3-0.2-0.7-0.3-1.2-0.5c-1-0.4-1.7-0.8-2-1.2
			s-0.5-0.9-0.5-1.5c0-0.7,0.3-1.3,0.9-1.7c0.6-0.4,1.4-0.6,2.4-0.6c1,0,2,0.2,2.9,0.6l-0.6,1.4c-0.9-0.4-1.7-0.6-2.4-0.6
			c-1,0-1.5,0.3-1.5,0.8c0,0.3,0.1,0.5,0.4,0.7c0.3,0.2,0.8,0.4,1.7,0.8c0.7,0.3,1.2,0.5,1.6,0.8c0.3,0.2,0.6,0.5,0.7,0.8
			S411.8,906.1,411.8,906.5z"/>
		<path class="st2" d="M421.4,909.2c-1.3,0-2.3-0.4-3-1.1s-1-1.9-1-3.3c0-1.5,0.4-2.6,1.1-3.4s1.7-1.2,3.1-1.2
			c0.9,0,1.7,0.2,2.5,0.5l-0.6,1.5c-0.8-0.3-1.4-0.5-1.9-0.5c-1.5,0-2.2,1-2.2,3c0,1,0.2,1.7,0.6,2.2c0.4,0.5,0.9,0.7,1.6,0.7
			c0.8,0,1.6-0.2,2.3-0.6v1.6c-0.3,0.2-0.7,0.3-1.1,0.4C422.4,909.1,421.9,909.2,421.4,909.2z"/>
		<path class="st2" d="M433.5,904.7c0,1.4-0.4,2.5-1.1,3.3c-0.7,0.8-1.7,1.2-3,1.2c-0.8,0-1.5-0.2-2.1-0.5c-0.6-0.4-1.1-0.9-1.4-1.6
			c-0.3-0.7-0.5-1.5-0.5-2.4c0-1.4,0.4-2.5,1.1-3.3s1.7-1.2,3-1.2c1.3,0,2.2,0.4,3,1.2C433.2,902.2,433.5,903.3,433.5,904.7z
			 M427.2,904.7c0,2,0.7,3,2.2,3c1.5,0,2.2-1,2.2-3c0-2-0.7-3-2.2-3c-0.8,0-1.3,0.3-1.7,0.8C427.4,903,427.2,903.7,427.2,904.7z"/>
		<path class="st2" d="M443.2,909h-1.8v-5.3c0-0.7-0.1-1.2-0.4-1.5c-0.3-0.3-0.7-0.5-1.3-0.5c-0.8,0-1.3,0.2-1.7,0.7
			s-0.5,1.2-0.5,2.3v4.3h-1.8v-8.6h1.4l0.3,1.1h0.1c0.3-0.4,0.6-0.7,1.1-1c0.5-0.2,1-0.3,1.6-0.3c2.1,0,3.1,1.1,3.1,3.2V909z"/>
		<path class="st2" d="M449.3,909.2c-1.3,0-2.3-0.4-3-1.1s-1-1.9-1-3.3c0-1.5,0.4-2.6,1.1-3.4s1.7-1.2,3.1-1.2
			c0.9,0,1.7,0.2,2.5,0.5l-0.6,1.5c-0.8-0.3-1.4-0.5-1.9-0.5c-1.5,0-2.2,1-2.2,3c0,1,0.2,1.7,0.6,2.2c0.4,0.5,0.9,0.7,1.6,0.7
			c0.8,0,1.6-0.2,2.3-0.6v1.6c-0.3,0.2-0.7,0.3-1.1,0.4C450.3,909.1,449.8,909.2,449.3,909.2z"/>
		<path class="st2" d="M457.5,909.2c-1.3,0-2.4-0.4-3.2-1.2s-1.1-1.9-1.1-3.2c0-1.4,0.4-2.5,1.1-3.3s1.7-1.2,2.9-1.2
			c1.1,0,2,0.3,2.7,1c0.7,0.7,1,1.6,1,2.9v1h-5.8c0,0.8,0.3,1.5,0.7,1.9c0.4,0.5,1,0.7,1.8,0.7c0.5,0,1,0,1.4-0.1
			c0.4-0.1,0.9-0.3,1.4-0.5v1.5c-0.4,0.2-0.9,0.4-1.4,0.5C458.6,909.1,458.1,909.2,457.5,909.2z M457.1,901.6
			c-0.6,0-1.1,0.2-1.4,0.6s-0.6,0.9-0.6,1.6h3.9c0-0.7-0.2-1.3-0.5-1.6C458.2,901.8,457.7,901.6,457.1,901.6z"/>
		<path class="st2" d="M470.5,909h-1.8v-5.3c0-0.7-0.1-1.2-0.4-1.5c-0.3-0.3-0.7-0.5-1.3-0.5c-0.8,0-1.3,0.2-1.7,0.7
			s-0.5,1.2-0.5,2.3v4.3h-1.8v-8.6h1.4l0.3,1.1h0.1c0.3-0.4,0.6-0.7,1.1-1c0.5-0.2,1-0.3,1.6-0.3c2.1,0,3.1,1.1,3.1,3.2V909z"/>
		<path class="st2" d="M476.3,907.7c0.4,0,0.9-0.1,1.3-0.2v1.4c-0.2,0.1-0.5,0.2-0.8,0.2s-0.7,0.1-1,0.1c-1.7,0-2.6-0.9-2.6-2.8
			v-4.7h-1.2v-0.8l1.3-0.7l0.6-1.8h1.1v1.9h2.5v1.4h-2.5v4.6c0,0.4,0.1,0.8,0.3,1C475.7,907.6,475.9,907.7,476.3,907.7z"/>
		<path class="st2" d="M483.8,900.2c0.4,0,0.7,0,0.9,0.1l-0.2,1.7c-0.3-0.1-0.5-0.1-0.8-0.1c-0.7,0-1.3,0.2-1.8,0.7
			c-0.5,0.5-0.7,1.1-0.7,1.9v4.5h-1.8v-8.6h1.4l0.2,1.5h0.1c0.3-0.5,0.7-0.9,1.1-1.2S483.2,900.2,483.8,900.2z"/>
		<path class="st2" d="M491.7,909l-0.4-1.2h-0.1c-0.4,0.5-0.8,0.9-1.3,1.1s-1,0.3-1.6,0.3c-0.8,0-1.5-0.2-2-0.7s-0.7-1.1-0.7-1.9
			c0-0.9,0.3-1.6,1-2c0.7-0.5,1.7-0.7,3-0.7l1.5,0v-0.5c0-0.6-0.1-1-0.4-1.2s-0.7-0.4-1.2-0.4c-0.4,0-0.9,0.1-1.3,0.2
			s-0.8,0.3-1.2,0.5l-0.6-1.3c0.5-0.2,1-0.4,1.5-0.6c0.6-0.1,1.1-0.2,1.6-0.2c1.1,0,1.9,0.2,2.5,0.7c0.6,0.5,0.8,1.2,0.8,2.3v5.8
			H491.7z M488.9,907.8c0.7,0,1.2-0.2,1.6-0.6c0.4-0.4,0.6-0.9,0.6-1.6v-0.8l-1.1,0c-0.9,0-1.5,0.2-1.9,0.4
			c-0.4,0.3-0.6,0.7-0.6,1.2c0,0.4,0.1,0.7,0.3,0.9C488.1,907.6,488.5,907.8,488.9,907.8z"/>
		<path class="st2" d="M498.5,909.2c-1.1,0-1.9-0.4-2.5-1.2c-0.6-0.8-0.9-1.9-0.9-3.3c0-1.4,0.3-2.5,0.9-3.3
			c0.6-0.8,1.5-1.2,2.5-1.2c1.1,0,2,0.4,2.6,1.3h0.1c-0.1-0.6-0.1-1.1-0.1-1.5v-3.1h1.8V909h-1.4l-0.3-1.1h-0.1
			C500.5,908.7,499.6,909.2,498.5,909.2z M499,907.7c0.8,0,1.3-0.2,1.6-0.6s0.5-1.1,0.5-2.1v-0.3c0-1.1-0.2-1.9-0.5-2.3
			c-0.4-0.5-0.9-0.7-1.7-0.7c-0.6,0-1.1,0.3-1.5,0.8c-0.3,0.5-0.5,1.3-0.5,2.2c0,1,0.2,1.7,0.5,2.2
			C497.8,907.4,498.3,907.7,499,907.7z"/>
		<path class="st2" d="M513.2,904.7c0,1.4-0.4,2.5-1.1,3.3c-0.7,0.8-1.7,1.2-3,1.2c-0.8,0-1.5-0.2-2.1-0.5c-0.6-0.4-1.1-0.9-1.4-1.6
			c-0.3-0.7-0.5-1.5-0.5-2.4c0-1.4,0.4-2.5,1.1-3.3s1.7-1.2,3-1.2c1.3,0,2.2,0.4,3,1.2C512.8,902.2,513.2,903.3,513.2,904.7z
			 M506.9,904.7c0,2,0.7,3,2.2,3c1.5,0,2.2-1,2.2-3c0-2-0.7-3-2.2-3c-0.8,0-1.3,0.3-1.7,0.8C507.1,903,506.9,903.7,506.9,904.7z"/>
		<path class="st2" d="M521.1,906.5c0,0.8-0.3,1.5-0.9,1.9c-0.6,0.5-1.5,0.7-2.6,0.7c-1.2,0-2.1-0.2-2.8-0.5V907
			c1,0.5,2,0.7,2.8,0.7c1.1,0,1.7-0.3,1.7-1c0-0.2-0.1-0.4-0.2-0.5s-0.3-0.3-0.6-0.5c-0.3-0.2-0.7-0.3-1.2-0.5c-1-0.4-1.7-0.8-2-1.2
			s-0.5-0.9-0.5-1.5c0-0.7,0.3-1.3,0.9-1.7c0.6-0.4,1.4-0.6,2.4-0.6c1,0,2,0.2,2.9,0.6l-0.6,1.4c-0.9-0.4-1.7-0.6-2.4-0.6
			c-1,0-1.5,0.3-1.5,0.8c0,0.3,0.1,0.5,0.4,0.7c0.3,0.2,0.8,0.4,1.7,0.8c0.7,0.3,1.2,0.5,1.6,0.8c0.3,0.2,0.6,0.5,0.7,0.8
			S521.1,906.1,521.1,906.5z"/>
	</g>
	<g class="st1">
		<path class="st2" d="M602.5,909v-11.4h1.9v9.8h4.8v1.6H602.5z"/>
		<path class="st2" d="M618.6,904.7c0,1.4-0.4,2.5-1.1,3.3c-0.7,0.8-1.7,1.2-3,1.2c-0.8,0-1.5-0.2-2.1-0.5c-0.6-0.4-1.1-0.9-1.4-1.6
			c-0.3-0.7-0.5-1.5-0.5-2.4c0-1.4,0.4-2.5,1.1-3.3s1.7-1.2,3-1.2c1.3,0,2.2,0.4,3,1.2C618.2,902.2,618.6,903.3,618.6,904.7z
			 M612.3,904.7c0,2,0.7,3,2.2,3c1.5,0,2.2-1,2.2-3c0-2-0.7-3-2.2-3c-0.8,0-1.3,0.3-1.7,0.8C612.5,903,612.3,903.7,612.3,904.7z"/>
		<path class="st2" d="M626.5,906.5c0,0.8-0.3,1.5-0.9,1.9c-0.6,0.5-1.5,0.7-2.6,0.7c-1.2,0-2.1-0.2-2.8-0.5V907
			c1,0.5,2,0.7,2.8,0.7c1.1,0,1.7-0.3,1.7-1c0-0.2-0.1-0.4-0.2-0.5s-0.3-0.3-0.6-0.5c-0.3-0.2-0.7-0.3-1.2-0.5c-1-0.4-1.7-0.8-2-1.2
			s-0.5-0.9-0.5-1.5c0-0.7,0.3-1.3,0.9-1.7c0.6-0.4,1.4-0.6,2.4-0.6c1,0,2,0.2,2.9,0.6l-0.6,1.4c-0.9-0.4-1.7-0.6-2.4-0.6
			c-1,0-1.5,0.3-1.5,0.8c0,0.3,0.1,0.5,0.4,0.7c0.3,0.2,0.8,0.4,1.7,0.8c0.7,0.3,1.2,0.5,1.6,0.8c0.3,0.2,0.6,0.5,0.7,0.8
			S626.5,906.1,626.5,906.5z"/>
		<path class="st2" d="M637,901.8h-2.1v7.3H633v-7.3h-1.4v-0.9l1.4-0.6v-0.6c0-1,0.2-1.8,0.7-2.3c0.5-0.5,1.2-0.7,2.2-0.7
			c0.6,0,1.3,0.1,1.9,0.3l-0.5,1.4c-0.5-0.1-0.9-0.2-1.3-0.2c-0.4,0-0.7,0.1-0.9,0.4c-0.2,0.3-0.3,0.6-0.3,1.2v0.6h2.1V901.8z"/>
		<path class="st2" d="M642.2,909.2c-1.3,0-2.4-0.4-3.2-1.2s-1.1-1.9-1.1-3.2c0-1.4,0.4-2.5,1.1-3.3s1.7-1.2,2.9-1.2
			c1.1,0,2,0.3,2.7,1c0.7,0.7,1,1.6,1,2.9v1h-5.8c0,0.8,0.3,1.5,0.7,1.9c0.4,0.5,1,0.7,1.8,0.7c0.5,0,1,0,1.4-0.1
			c0.4-0.1,0.9-0.3,1.4-0.5v1.5c-0.4,0.2-0.9,0.4-1.4,0.5C643.3,909.1,642.8,909.2,642.2,909.2z M641.9,901.6
			c-0.6,0-1.1,0.2-1.4,0.6s-0.6,0.9-0.6,1.6h3.9c0-0.7-0.2-1.3-0.5-1.6C642.9,901.8,642.5,901.6,641.9,901.6z"/>
		<path class="st2" d="M652.1,900.2c0.4,0,0.7,0,0.9,0.1l-0.2,1.7c-0.3-0.1-0.5-0.1-0.8-0.1c-0.7,0-1.3,0.2-1.8,0.7
			c-0.5,0.5-0.7,1.1-0.7,1.9v4.5h-1.8v-8.6h1.4l0.2,1.5h0.1c0.3-0.5,0.7-0.9,1.1-1.2S651.5,900.2,652.1,900.2z"/>
		<path class="st2" d="M661.9,909H660v-5.3c0-0.7-0.1-1.2-0.4-1.5s-0.6-0.5-1.2-0.5c-0.7,0-1.2,0.2-1.6,0.7
			c-0.3,0.5-0.5,1.2-0.5,2.3v4.3h-1.8v-8.6h1.4l0.3,1.1h0.1c0.2-0.4,0.6-0.7,1-1c0.5-0.2,1-0.3,1.5-0.3c1.3,0,2.2,0.5,2.6,1.4h0.1
			c0.3-0.4,0.6-0.8,1.1-1c0.5-0.2,1-0.4,1.6-0.4c1,0,1.8,0.3,2.3,0.8c0.5,0.5,0.7,1.3,0.7,2.4v5.6h-1.8v-5.3c0-0.7-0.1-1.2-0.4-1.5
			c-0.3-0.3-0.6-0.5-1.2-0.5c-0.7,0-1.2,0.2-1.6,0.7c-0.3,0.4-0.5,1.1-0.5,2.1V909z"/>
		<path class="st2" d="M673.7,909.2c-1.3,0-2.4-0.4-3.2-1.2s-1.1-1.9-1.1-3.2c0-1.4,0.4-2.5,1.1-3.3s1.7-1.2,2.9-1.2
			c1.1,0,2,0.3,2.7,1c0.7,0.7,1,1.6,1,2.9v1h-5.8c0,0.8,0.3,1.5,0.7,1.9c0.4,0.5,1,0.7,1.8,0.7c0.5,0,1,0,1.4-0.1
			c0.4-0.1,0.9-0.3,1.4-0.5v1.5c-0.4,0.2-0.9,0.4-1.4,0.5C674.8,909.1,674.2,909.2,673.7,909.2z M673.3,901.6
			c-0.6,0-1.1,0.2-1.4,0.6s-0.6,0.9-0.6,1.6h3.9c0-0.7-0.2-1.3-0.5-1.6C674.4,901.8,673.9,901.6,673.3,901.6z"/>
		<path class="st2" d="M686.7,909h-1.8v-5.3c0-0.7-0.1-1.2-0.4-1.5c-0.3-0.3-0.7-0.5-1.3-0.5c-0.8,0-1.3,0.2-1.7,0.7
			s-0.5,1.2-0.5,2.3v4.3h-1.8v-8.6h1.4l0.3,1.1h0.1c0.3-0.4,0.6-0.7,1.1-1c0.5-0.2,1-0.3,1.6-0.3c2.1,0,3.1,1.1,3.1,3.2V909z"/>
		<path class="st2" d="M692.5,907.7c0.4,0,0.9-0.1,1.3-0.2v1.4c-0.2,0.1-0.5,0.2-0.8,0.2s-0.7,0.1-1,0.1c-1.7,0-2.6-0.9-2.6-2.8
			v-4.7h-1.2v-0.8l1.3-0.7l0.6-1.8h1.1v1.9h2.5v1.4h-2.5v4.6c0,0.4,0.1,0.8,0.3,1C691.8,907.6,692.1,907.7,692.5,907.7z"/>
		<path class="st2" d="M700.9,909l-0.4-1.2h-0.1c-0.4,0.5-0.8,0.9-1.3,1.1s-1,0.3-1.6,0.3c-0.8,0-1.5-0.2-2-0.7s-0.7-1.1-0.7-1.9
			c0-0.9,0.3-1.6,1-2c0.7-0.5,1.7-0.7,3-0.7l1.5,0v-0.5c0-0.6-0.1-1-0.4-1.2s-0.7-0.4-1.2-0.4c-0.4,0-0.9,0.1-1.3,0.2
			s-0.8,0.3-1.2,0.5l-0.6-1.3c0.5-0.2,1-0.4,1.5-0.6c0.6-0.1,1.1-0.2,1.6-0.2c1.1,0,1.9,0.2,2.5,0.7c0.6,0.5,0.8,1.2,0.8,2.3v5.8
			H700.9z M698.2,907.8c0.7,0,1.2-0.2,1.6-0.6c0.4-0.4,0.6-0.9,0.6-1.6v-0.8l-1.1,0c-0.9,0-1.5,0.2-1.9,0.4
			c-0.4,0.3-0.6,0.7-0.6,1.2c0,0.4,0.1,0.7,0.3,0.9C697.4,907.6,697.8,907.8,698.2,907.8z"/>
		<path class="st2" d="M707.7,909.2c-1.1,0-1.9-0.4-2.5-1.2c-0.6-0.8-0.9-1.9-0.9-3.3c0-1.4,0.3-2.5,0.9-3.3
			c0.6-0.8,1.5-1.2,2.5-1.2c1.1,0,2,0.4,2.6,1.3h0.1c-0.1-0.6-0.1-1.1-0.1-1.5v-3.1h1.8V909h-1.4l-0.3-1.1h-0.1
			C709.7,908.7,708.9,909.2,707.7,909.2z M708.2,907.7c0.8,0,1.3-0.2,1.6-0.6s0.5-1.1,0.5-2.1v-0.3c0-1.1-0.2-1.9-0.5-2.3
			c-0.4-0.5-0.9-0.7-1.7-0.7c-0.6,0-1.1,0.3-1.5,0.8c-0.3,0.5-0.5,1.3-0.5,2.2c0,1,0.2,1.7,0.5,2.2
			C707,907.4,707.6,907.7,708.2,907.7z"/>
		<path class="st2" d="M722.5,904.7c0,1.4-0.4,2.5-1.1,3.3c-0.7,0.8-1.7,1.2-3,1.2c-0.8,0-1.5-0.2-2.1-0.5c-0.6-0.4-1.1-0.9-1.4-1.6
			c-0.3-0.7-0.5-1.5-0.5-2.4c0-1.4,0.4-2.5,1.1-3.3s1.7-1.2,3-1.2c1.3,0,2.2,0.4,3,1.2C722.1,902.2,722.5,903.3,722.5,904.7z
			 M716.2,904.7c0,2,0.7,3,2.2,3c1.5,0,2.2-1,2.2-3c0-2-0.7-3-2.2-3c-0.8,0-1.3,0.3-1.7,0.8C716.3,903,716.2,903.7,716.2,904.7z"/>
		<path class="st2" d="M730.4,906.5c0,0.8-0.3,1.5-0.9,1.9c-0.6,0.5-1.5,0.7-2.6,0.7c-1.2,0-2.1-0.2-2.8-0.5V907
			c1,0.5,2,0.7,2.8,0.7c1.1,0,1.7-0.3,1.7-1c0-0.2-0.1-0.4-0.2-0.5s-0.3-0.3-0.6-0.5c-0.3-0.2-0.7-0.3-1.2-0.5c-1-0.4-1.7-0.8-2-1.2
			s-0.5-0.9-0.5-1.5c0-0.7,0.3-1.3,0.9-1.7c0.6-0.4,1.4-0.6,2.4-0.6c1,0,2,0.2,2.9,0.6l-0.6,1.4c-0.9-0.4-1.7-0.6-2.4-0.6
			c-1,0-1.5,0.3-1.5,0.8c0,0.3,0.1,0.5,0.4,0.7c0.3,0.2,0.8,0.4,1.7,0.8c0.7,0.3,1.2,0.5,1.6,0.8c0.3,0.2,0.6,0.5,0.7,0.8
			S730.4,906.1,730.4,906.5z"/>
	</g>
	<g class="st1">
		<path class="st2" d="M814.9,910v-11.4h1.9v9.8h4.8v1.6H814.9z"/>
		<path class="st2" d="M831,905.7c0,1.4-0.4,2.5-1.1,3.3s-1.7,1.2-3,1.2c-0.8,0-1.5-0.2-2.1-0.5s-1.1-0.9-1.4-1.6s-0.5-1.5-0.5-2.4
			c0-1.4,0.4-2.5,1.1-3.3s1.7-1.2,3-1.2c1.3,0,2.2,0.4,3,1.2S831,904.3,831,905.7z M824.7,905.7c0,2,0.7,3,2.2,3c1.5,0,2.2-1,2.2-3
			c0-2-0.7-3-2.2-3c-0.8,0-1.3,0.3-1.7,0.8S824.7,904.7,824.7,905.7z"/>
		<path class="st2" d="M838.9,907.5c0,0.8-0.3,1.5-0.9,1.9s-1.5,0.7-2.6,0.7c-1.2,0-2.1-0.2-2.8-0.5V908c1,0.5,2,0.7,2.8,0.7
			c1.1,0,1.7-0.3,1.7-1c0-0.2-0.1-0.4-0.2-0.5s-0.3-0.3-0.6-0.5s-0.7-0.3-1.2-0.5c-1-0.4-1.7-0.8-2-1.2s-0.5-0.9-0.5-1.5
			c0-0.7,0.3-1.3,0.9-1.7s1.4-0.6,2.4-0.6c1,0,2,0.2,2.9,0.6l-0.6,1.4c-0.9-0.4-1.7-0.6-2.4-0.6c-1,0-1.5,0.3-1.5,0.8
			c0,0.3,0.1,0.5,0.4,0.7s0.8,0.4,1.7,0.8c0.7,0.3,1.2,0.5,1.6,0.8s0.6,0.5,0.7,0.8S838.9,907.1,838.9,907.5z"/>
		<path class="st2" d="M848,910.2c-1.1,0-1.9-0.4-2.5-1.2s-0.9-1.9-0.9-3.3c0-1.4,0.3-2.5,0.9-3.3s1.5-1.2,2.5-1.2
			c1.1,0,2,0.4,2.6,1.3h0.1c-0.1-0.6-0.1-1.1-0.1-1.5v-3.1h1.8V910H851l-0.3-1.1h-0.1C850,909.7,849.1,910.2,848,910.2z
			 M848.5,908.7c0.8,0,1.3-0.2,1.6-0.6s0.5-1.1,0.5-2.1v-0.3c0-1.1-0.2-1.9-0.5-2.3s-0.9-0.7-1.7-0.7c-0.6,0-1.1,0.3-1.5,0.8
			s-0.5,1.3-0.5,2.2c0,1,0.2,1.7,0.5,2.2S847.8,908.7,848.5,908.7z"/>
		<path class="st2" d="M858.8,910.2c-1.3,0-2.4-0.4-3.2-1.2s-1.1-1.9-1.1-3.2c0-1.4,0.4-2.5,1.1-3.3s1.7-1.2,2.9-1.2
			c1.1,0,2,0.3,2.7,1s1,1.6,1,2.9v1h-5.8c0,0.8,0.3,1.5,0.7,1.9s1,0.7,1.8,0.7c0.5,0,1,0,1.4-0.1s0.9-0.3,1.4-0.5v1.5
			c-0.4,0.2-0.9,0.4-1.4,0.5S859.4,910.2,858.8,910.2z M858.5,902.6c-0.6,0-1.1,0.2-1.4,0.6s-0.6,0.9-0.6,1.6h3.9
			c0-0.7-0.2-1.3-0.5-1.6S859.1,902.6,858.5,902.6z"/>
		<path class="st2" d="M870.1,907.5c0,0.8-0.3,1.5-0.9,1.9s-1.5,0.7-2.6,0.7c-1.2,0-2.1-0.2-2.8-0.5V908c1,0.5,2,0.7,2.8,0.7
			c1.1,0,1.7-0.3,1.7-1c0-0.2-0.1-0.4-0.2-0.5s-0.3-0.3-0.6-0.5s-0.7-0.3-1.2-0.5c-1-0.4-1.7-0.8-2-1.2s-0.5-0.9-0.5-1.5
			c0-0.7,0.3-1.3,0.9-1.7s1.4-0.6,2.4-0.6c1,0,2,0.2,2.9,0.6l-0.6,1.4c-0.9-0.4-1.7-0.6-2.4-0.6c-1,0-1.5,0.3-1.5,0.8
			c0,0.3,0.1,0.5,0.4,0.7s0.8,0.4,1.7,0.8c0.7,0.3,1.2,0.5,1.6,0.8s0.6,0.5,0.7,0.8S870.1,907.1,870.1,907.5z"/>
		<path class="st2" d="M879.7,910h-1.8v-5.3c0-0.7-0.1-1.2-0.4-1.5s-0.7-0.5-1.3-0.5c-0.8,0-1.3,0.2-1.7,0.7s-0.5,1.2-0.5,2.3v4.3
			h-1.8v-12.2h1.8v3.1c0,0.5,0,1-0.1,1.6h0.1c0.3-0.4,0.6-0.7,1-1s1-0.3,1.6-0.3c2.1,0,3.1,1.1,3.1,3.2V910z"/>
		<path class="st2" d="M882.1,899.1c0-0.3,0.1-0.6,0.3-0.8s0.4-0.3,0.8-0.3c0.3,0,0.6,0.1,0.8,0.3s0.3,0.4,0.3,0.8
			c0,0.3-0.1,0.6-0.3,0.7s-0.4,0.3-0.8,0.3c-0.3,0-0.6-0.1-0.8-0.3S882.1,899.4,882.1,899.1z M884.1,910h-1.8v-8.6h1.8V910z"/>
		<path class="st2" d="M889.6,910.2c-1.1,0-1.9-0.4-2.5-1.2s-0.9-1.9-0.9-3.3c0-1.4,0.3-2.5,0.9-3.3s1.5-1.2,2.5-1.2
			c1.1,0,2,0.4,2.6,1.3h0.1c-0.1-0.6-0.1-1.1-0.1-1.5v-3.1h1.8V910h-1.4l-0.3-1.1h-0.1C891.6,909.7,890.7,910.2,889.6,910.2z
			 M890.1,908.7c0.8,0,1.3-0.2,1.6-0.6s0.5-1.1,0.5-2.1v-0.3c0-1.1-0.2-1.9-0.5-2.3s-0.9-0.7-1.7-0.7c-0.6,0-1.1,0.3-1.5,0.8
			s-0.5,1.3-0.5,2.2c0,1,0.2,1.7,0.5,2.2S889.4,908.7,890.1,908.7z"/>
		<path class="st2" d="M901,901.2c0.4,0,0.7,0,0.9,0.1l-0.2,1.7c-0.3-0.1-0.5-0.1-0.8-0.1c-0.7,0-1.3,0.2-1.8,0.7s-0.7,1.1-0.7,1.9
			v4.5h-1.8v-8.6h1.4l0.2,1.5h0.1c0.3-0.5,0.7-0.9,1.1-1.2S900.5,901.2,901,901.2z"/>
		<path class="st2" d="M909,910l-0.4-1.2h-0.1c-0.4,0.5-0.8,0.9-1.3,1.1s-1,0.3-1.6,0.3c-0.8,0-1.5-0.2-2-0.7s-0.7-1.1-0.7-1.9
			c0-0.9,0.3-1.6,1-2s1.7-0.7,3-0.7l1.5,0v-0.5c0-0.6-0.1-1-0.4-1.2s-0.7-0.4-1.2-0.4c-0.4,0-0.9,0.1-1.3,0.2s-0.8,0.3-1.2,0.5
			l-0.6-1.3c0.5-0.2,1-0.4,1.5-0.6s1.1-0.2,1.6-0.2c1.1,0,1.9,0.2,2.5,0.7s0.8,1.2,0.8,2.3v5.8H909z M906.2,908.8
			c0.7,0,1.2-0.2,1.6-0.6s0.6-0.9,0.6-1.6v-0.8l-1.1,0c-0.9,0-1.5,0.2-1.9,0.4s-0.6,0.7-0.6,1.2c0,0.4,0.1,0.7,0.3,0.9
			S905.8,908.8,906.2,908.8z"/>
		<path class="st2" d="M916,908.7c0.4,0,0.9-0.1,1.3-0.2v1.4c-0.2,0.1-0.5,0.2-0.8,0.2s-0.7,0.1-1,0.1c-1.7,0-2.6-0.9-2.6-2.8v-4.7
			h-1.2v-0.8l1.3-0.7l0.6-1.8h1.1v1.9h2.5v1.4h-2.5v4.6c0,0.4,0.1,0.8,0.3,1S915.7,908.7,916,908.7z"/>
		<path class="st2" d="M924.5,910l-0.4-1.2h-0.1c-0.4,0.5-0.8,0.9-1.3,1.1s-1,0.3-1.6,0.3c-0.8,0-1.5-0.2-2-0.7s-0.7-1.1-0.7-1.9
			c0-0.9,0.3-1.6,1-2s1.7-0.7,3-0.7l1.5,0v-0.5c0-0.6-0.1-1-0.4-1.2s-0.7-0.4-1.2-0.4c-0.4,0-0.9,0.1-1.3,0.2s-0.8,0.3-1.2,0.5
			l-0.6-1.3c0.5-0.2,1-0.4,1.5-0.6s1.1-0.2,1.6-0.2c1.1,0,1.9,0.2,2.5,0.7s0.8,1.2,0.8,2.3v5.8H924.5z M921.8,908.8
			c0.7,0,1.2-0.2,1.6-0.6s0.6-0.9,0.6-1.6v-0.8l-1.1,0c-0.9,0-1.5,0.2-1.9,0.4s-0.6,0.7-0.6,1.2c0,0.4,0.1,0.7,0.3,0.9
			S921.3,908.8,921.8,908.8z"/>
		<path class="st2" d="M931.3,910.2c-1.1,0-1.9-0.4-2.5-1.2s-0.9-1.9-0.9-3.3c0-1.4,0.3-2.5,0.9-3.3s1.5-1.2,2.5-1.2
			c1.1,0,2,0.4,2.6,1.3h0.1c-0.1-0.6-0.1-1.1-0.1-1.5v-3.1h1.8V910h-1.4l-0.3-1.1h-0.1C933.3,909.7,932.4,910.2,931.3,910.2z
			 M931.8,908.7c0.8,0,1.3-0.2,1.6-0.6s0.5-1.1,0.5-2.1v-0.3c0-1.1-0.2-1.9-0.5-2.3s-0.9-0.7-1.7-0.7c-0.6,0-1.1,0.3-1.5,0.8
			s-0.5,1.3-0.5,2.2c0,1,0.2,1.7,0.5,2.2S931.1,908.7,931.8,908.7z"/>
		<path class="st2" d="M946,905.7c0,1.4-0.4,2.5-1.1,3.3s-1.7,1.2-3,1.2c-0.8,0-1.5-0.2-2.1-0.5s-1.1-0.9-1.4-1.6s-0.5-1.5-0.5-2.4
			c0-1.4,0.4-2.5,1.1-3.3s1.7-1.2,3-1.2c1.3,0,2.2,0.4,3,1.2S946,904.3,946,905.7z M939.7,905.7c0,2,0.7,3,2.2,3c1.5,0,2.2-1,2.2-3
			c0-2-0.7-3-2.2-3c-0.8,0-1.3,0.3-1.7,0.8S939.7,904.7,939.7,905.7z"/>
		<path class="st2" d="M953.9,907.5c0,0.8-0.3,1.5-0.9,1.9s-1.5,0.7-2.6,0.7c-1.2,0-2.1-0.2-2.8-0.5V908c1,0.5,2,0.7,2.8,0.7
			c1.1,0,1.7-0.3,1.7-1c0-0.2-0.1-0.4-0.2-0.5s-0.3-0.3-0.6-0.5s-0.7-0.3-1.2-0.5c-1-0.4-1.7-0.8-2-1.2s-0.5-0.9-0.5-1.5
			c0-0.7,0.3-1.3,0.9-1.7s1.4-0.6,2.4-0.6c1,0,2,0.2,2.9,0.6l-0.6,1.4c-0.9-0.4-1.7-0.6-2.4-0.6c-1,0-1.5,0.3-1.5,0.8
			c0,0.3,0.1,0.5,0.4,0.7s0.8,0.4,1.7,0.8c0.7,0.3,1.2,0.5,1.6,0.8s0.6,0.5,0.7,0.8S953.9,907.1,953.9,907.5z"/>
	</g>
	<g id="Grupo_8023" transform="translate(-740 -3518)">
		<circle id="Elipse_678" class="st3" cx="964.5" cy="4377.5" r="22.5"/>
		<g class="st1">
			<path class="st4" d="M967.2,4387h-3.8v-10.3l0-1.7l0.1-1.9c-0.6,0.6-1.1,1-1.3,1.2l-2.1,1.6l-1.8-2.3l5.8-4.6h3.1V4387z"/>
		</g>
	</g>
	<g id="Grupo_8024" transform="translate(-510 -3518)">
		<circle id="Elipse_678-2" class="st3" cx="964.5" cy="4377.5" r="22.5"/>
		<g class="st1">
			<path class="st4" d="M970.3,4387h-12.5v-2.6l4.5-4.5c1.3-1.4,2.2-2.3,2.6-2.8c0.4-0.5,0.7-1,0.9-1.5c0.2-0.4,0.3-0.9,0.3-1.4
				c0-0.7-0.2-1.2-0.6-1.6c-0.4-0.3-0.9-0.5-1.6-0.5c-0.7,0-1.4,0.2-2,0.5s-1.3,0.8-2,1.4l-2.1-2.4c0.9-0.7,1.6-1.3,2.2-1.6
				s1.2-0.5,1.9-0.7s1.4-0.3,2.3-0.3c1.1,0,2.1,0.2,3,0.6c0.9,0.4,1.5,1,2,1.7s0.7,1.6,0.7,2.5c0,0.8-0.1,1.6-0.4,2.3
				c-0.3,0.7-0.7,1.5-1.3,2.2c-0.6,0.8-1.7,1.8-3.2,3.2l-2.3,2.2v0.2h7.8V4387z"/>
		</g>
	</g>
	<g id="Grupo_8025" transform="translate(-298 -3518)">
		<circle id="Elipse_678-3" class="st3" cx="964.5" cy="4377.5" r="22.5"/>
		<g class="st1">
			<path class="st4" d="M969.6,4373.1c0,1.1-0.3,2.1-1,2.8c-0.7,0.8-1.6,1.3-2.8,1.6v0.1c1.4,0.2,2.5,0.6,3.3,1.3
				c0.7,0.7,1.1,1.6,1.1,2.8c0,1.7-0.6,3.1-1.9,4c-1.2,1-3,1.4-5.3,1.4c-1.9,0-3.7-0.3-5.2-1v-3.2c0.7,0.3,1.5,0.6,2.3,0.9
				s1.7,0.3,2.5,0.3c1.2,0,2.2-0.2,2.8-0.6c0.6-0.4,0.9-1.1,0.9-2c0-0.8-0.3-1.4-1-1.8s-1.8-0.5-3.3-0.5h-1.4v-2.9h1.4
				c1.4,0,2.4-0.2,3-0.5s1-1,1-1.9c0-1.4-0.8-2-2.5-2c-0.6,0-1.2,0.1-1.8,0.3s-1.3,0.5-2,1l-1.7-2.6c1.6-1.2,3.6-1.8,5.8-1.8
				c1.8,0,3.3,0.4,4.4,1.1C969.1,4370.8,969.6,4371.8,969.6,4373.1z"/>
		</g>
	</g>
	<g id="Grupo_8026" transform="translate(-80 -3518)">
		<circle id="Elipse_678-4" class="st3" cx="964.5" cy="4377.5" r="22.5"/>
		<g class="st1">
			<path class="st4" d="M970.7,4383.3h-2.1v3.7h-3.7v-3.7h-7.6v-2.6l7.8-11.5h3.5v11.2h2.1V4383.3z M964.9,4380.4v-3
				c0-0.5,0-1.2,0.1-2.2c0-1,0.1-1.5,0.1-1.7H965c-0.3,0.7-0.7,1.3-1.1,2l-3.3,4.9H964.9z"/>
		</g>
	</g>
</g>
</svg>
