<?xml version="1.0" encoding="utf-8"?>
<!-- Generator: Adobe Illustrator 24.2.0, SVG Export Plug-In . SVG Version: 6.00 Build 0)  -->
<svg version="1.1" id="Capa_1" xmlns="http://www.w3.org/2000/svg" xmlns:xlink="http://www.w3.org/1999/xlink" x="0px" y="0px"
	 viewBox="0 0 548 229" style="enable-background:new 0 0 548 229;" xml:space="preserve">
<style type="text/css">
	.st0{fill:#C0E5E1;}
	.st1{fill:#FFEEB1;}
	.st2{clip-path:url(#SVGID_2_);}
	.st3{fill:#D3D3D3;}
	.st4{clip-path:url(#SVGID_4_);}
	.st5{clip-path:url(#SVGID_6_);}
	.st6{enable-background:new    ;}
	.st7{clip-path:url(#SVGID_8_);}
	.st8{clip-path:url(#SVGID_10_);}
	.st9{clip-path:url(#SVGID_12_);}
	.st10{clip-path:url(#SVGID_14_);}
	.st11{clip-path:url(#SVGID_16_);}
	.st12{clip-path:url(#SVGID_18_);}
	.st13{clip-path:url(#SVGID_20_);}
	.st14{clip-path:url(#SVGID_22_);}
	.st15{clip-path:url(#SVGID_24_);}
	.st16{clip-path:url(#SVGID_26_);}
	.st17{clip-path:url(#SVGID_28_);}
	.st18{clip-path:url(#SVGID_30_);}
	.st19{clip-path:url(#SVGID_32_);}
	.st20{clip-path:url(#SVGID_34_);}
	.st21{clip-path:url(#SVGID_36_);}
	.st22{clip-path:url(#SVGID_38_);}
	.st23{clip-path:url(#SVGID_40_);}
	.st24{clip-path:url(#SVGID_42_);}
	.st25{clip-path:url(#SVGID_44_);}
	.st26{clip-path:url(#SVGID_46_);}
	.st27{clip-path:url(#SVGID_48_);}
	.st28{clip-path:url(#SVGID_50_);}
	.st29{clip-path:url(#SVGID_52_);}
	.st30{clip-path:url(#SVGID_54_);}
	.st31{clip-path:url(#SVGID_56_);}
	.st32{clip-path:url(#SVGID_58_);}
	.st33{clip-path:url(#SVGID_60_);}
	.st34{clip-path:url(#SVGID_62_);}
	.st35{clip-path:url(#SVGID_64_);}
	.st36{clip-path:url(#SVGID_66_);}
	.st37{clip-path:url(#SVGID_68_);}
	.st38{clip-path:url(#SVGID_70_);}
	.st39{clip-path:url(#SVGID_72_);}
	.st40{clip-path:url(#SVGID_74_);}
	.st41{clip-path:url(#SVGID_76_);}
	.st42{clip-path:url(#SVGID_78_);}
	.st43{clip-path:url(#SVGID_80_);}
	.st44{clip-path:url(#SVGID_82_);}
	.st45{clip-path:url(#SVGID_84_);}
	.st46{clip-path:url(#SVGID_86_);}
	.st47{clip-path:url(#SVGID_88_);}
	.st48{fill:#0AA0B4;}
	.st49{clip-path:url(#SVGID_90_);}
	.st50{clip-path:url(#SVGID_92_);}
	.st51{clip-path:url(#SVGID_94_);}
	.st52{clip-path:url(#SVGID_96_);}
	.st53{clip-path:url(#SVGID_98_);}
	.st54{clip-path:url(#SVGID_100_);}
	.st55{clip-path:url(#SVGID_102_);}
	.st56{clip-path:url(#SVGID_104_);}
	.st57{clip-path:url(#SVGID_106_);}
	.st58{clip-path:url(#SVGID_108_);}
	.st59{clip-path:url(#SVGID_110_);}
	.st60{clip-path:url(#SVGID_112_);}
	.st61{clip-path:url(#SVGID_114_);}
	.st62{clip-path:url(#SVGID_116_);}
	.st63{clip-path:url(#SVGID_118_);}
	.st64{clip-path:url(#SVGID_120_);}
	.st65{clip-path:url(#SVGID_122_);}
	.st66{clip-path:url(#SVGID_124_);}
	.st67{clip-path:url(#SVGID_126_);}
	.st68{clip-path:url(#SVGID_128_);}
	.st69{clip-path:url(#SVGID_130_);}
	.st70{clip-path:url(#SVGID_132_);}
	.st71{clip-path:url(#SVGID_134_);}
	.st72{clip-path:url(#SVGID_136_);}
	.st73{clip-path:url(#SVGID_138_);}
	.st74{clip-path:url(#SVGID_140_);}
	.st75{clip-path:url(#SVGID_142_);}
	.st76{clip-path:url(#SVGID_144_);}
</style>
<g id="Grupo_11420" transform="translate(-296 -4550)">
	<g id="Grupo_7306" transform="translate(-576 3512.461)">
		<rect id="Rectángulo_3361" x="874" y="1103.5" class="st0" width="544" height="161"/>
	</g>
	<g id="Grupo_7307" transform="translate(-576 3446.461)">
		<rect id="Rectángulo_3361-2" x="874" y="1103.5" class="st1" width="544" height="66"/>
	</g>
	<g id="Grupo_7305" transform="translate(296 4779)">
		<g>
			<defs>
				<rect id="SVGID_1_" y="-229" width="548" height="229"/>
			</defs>
			<clipPath id="SVGID_2_">
				<use xlink:href="#SVGID_1_"  style="overflow:visible;"/>
			</clipPath>
			<g id="Grupo_7196" class="st2">
				<path id="Trazado_13237" class="st3" d="M0-229h548v1H0V-229z"/>
			</g>
		</g>
		<g>
			<defs>
				<rect id="SVGID_3_" y="-229" width="548" height="229"/>
			</defs>
			<clipPath id="SVGID_4_">
				<use xlink:href="#SVGID_3_"  style="overflow:visible;"/>
			</clipPath>
			<g id="Grupo_7197" class="st4">
				<path id="Trazado_13239" class="st3" d="M0-229h1V0H0V-229z"/>
			</g>
		</g>
		<g>
			<defs>
				<rect id="SVGID_5_" x="1" y="-228" width="547" height="66"/>
			</defs>
			<clipPath id="SVGID_6_">
				<use xlink:href="#SVGID_5_"  style="overflow:visible;"/>
			</clipPath>
			<g id="Grupo_7199" class="st5">
				<g id="Grupo_7198" transform="translate(18 -190)">
					<g id="Grupo">
						<g class="st6">
							<path d="M5.5,0L3.1-7.8H3c0.1,1.6,0.1,2.7,0.1,3.2V0H1.3v-10h2.9l2.4,7.6h0L9.1-10h2.9V0h-2v-4.7c0-0.2,0-0.5,0-0.8
								s0-1.1,0.1-2.3H10L7.4,0H5.5z"/>
							<path d="M17.6,0.1c-1.2,0-2.2-0.3-2.9-1s-1-1.6-1-2.9c0-1.3,0.3-2.3,1-3c0.6-0.7,1.5-1,2.7-1c1.1,0,1.9,0.3,2.5,0.9
								s0.9,1.5,0.9,2.5v1h-4.9c0,0.6,0.2,1.1,0.5,1.4s0.8,0.5,1.4,0.5c0.5,0,0.9,0,1.3-0.1s0.8-0.2,1.3-0.5v1.6
								c-0.4,0.2-0.8,0.3-1.2,0.4C18.7,0.1,18.2,0.1,17.6,0.1z M17.3-6.3c-0.4,0-0.8,0.1-1,0.4c-0.3,0.3-0.4,0.7-0.4,1.2h2.9
								c0-0.5-0.1-0.9-0.4-1.2C18.1-6.2,17.7-6.3,17.3-6.3z"/>
							<path d="M27.5,0h-6v-1.2L25-6h-3.3v-1.6h5.7v1.4l-3.4,4.7h3.6V0z"/>
						</g>
						<g class="st6">
							<path d="M32.2,0.1c-2.4,0-3.6-1.3-3.6-3.9c0-1.3,0.3-2.3,1-3c0.6-0.7,1.6-1,2.8-1c0.9,0,1.7,0.2,2.4,0.5l-0.6,1.6
								c-0.3-0.1-0.6-0.2-0.9-0.3c-0.3-0.1-0.6-0.1-0.8-0.1c-1.1,0-1.6,0.8-1.6,2.3c0,1.5,0.5,2.2,1.6,2.2c0.4,0,0.8-0.1,1.1-0.2
								c0.3-0.1,0.7-0.3,1-0.5v1.8c-0.3,0.2-0.7,0.4-1,0.4S32.7,0.1,32.2,0.1z"/>
							<path d="M38.2,0h-2.1v-10.6h2.1V0z"/>
							<path d="M45,0l-0.4-1h-0.1c-0.4,0.4-0.7,0.7-1.1,0.9c-0.4,0.2-0.9,0.3-1.5,0.3c-0.7,0-1.3-0.2-1.7-0.6s-0.6-1-0.6-1.8
								c0-0.8,0.3-1.4,0.9-1.8c0.6-0.4,1.4-0.6,2.6-0.6l1.3,0v-0.3c0-0.8-0.4-1.2-1.2-1.2c-0.6,0-1.3,0.2-2.2,0.6l-0.7-1.4
								c0.9-0.5,1.9-0.7,2.9-0.7c1,0,1.8,0.2,2.4,0.7s0.8,1.1,0.8,2V0H45z M44.4-3.5l-0.8,0c-0.6,0-1.1,0.1-1.4,0.3
								s-0.4,0.5-0.4,0.9c0,0.6,0.3,0.9,1,0.9c0.5,0,0.9-0.1,1.2-0.4s0.4-0.6,0.4-1.1V-3.5z"/>
						</g>
					</g>
				</g>
			</g>
		</g>
		<g>
			<defs>
				<rect id="SVGID_7_" x="84" y="-228" width="174" height="66"/>
			</defs>
			<clipPath id="SVGID_8_">
				<use xlink:href="#SVGID_7_"  style="overflow:visible;"/>
			</clipPath>
			<g id="Grupo_7201" class="st7">
				<g id="Grupo_7200" transform="translate(108 -211)">
					<g id="Grupo-2">
						<g class="st6">
							<path d="M7-10h2.1L5.7,0H3.4L0-10h2.1L4-4c0.1,0.4,0.2,0.8,0.3,1.2c0.1,0.5,0.2,0.8,0.2,1C4.6-2.3,4.8-3,5.1-4L7-10z"/>
							<path d="M10-9.6c0-0.7,0.4-1,1.1-1s1.1,0.3,1.1,1c0,0.3-0.1,0.6-0.3,0.8c-0.2,0.2-0.5,0.3-0.9,0.3C10.4-8.6,10-8.9,10-9.6z
								 M12.2,0h-2.1v-7.6h2.1V0z"/>
							<path d="M21.3,0h-2.1v-4.5c0-0.6-0.1-1-0.3-1.2C18.7-6,18.4-6.1,18-6.1c-0.6,0-1,0.2-1.3,0.6c-0.3,0.4-0.4,1-0.4,1.9V0h-2.1
								v-7.6h1.6l0.3,1h0.1c0.2-0.4,0.6-0.6,1-0.8c0.4-0.2,0.9-0.3,1.4-0.3c0.9,0,1.6,0.2,2,0.7c0.5,0.5,0.7,1.2,0.7,2.1V0z"/>
							<path d="M28.2,0l-0.4-1h-0.1c-0.4,0.4-0.7,0.7-1.1,0.9c-0.4,0.2-0.9,0.3-1.5,0.3c-0.7,0-1.3-0.2-1.7-0.6s-0.6-1-0.6-1.8
								c0-0.8,0.3-1.4,0.9-1.8c0.6-0.4,1.4-0.6,2.6-0.6l1.3,0v-0.3c0-0.8-0.4-1.2-1.2-1.2c-0.6,0-1.3,0.2-2.2,0.6l-0.7-1.4
								c0.9-0.5,1.9-0.7,2.9-0.7c1,0,1.8,0.2,2.4,0.7s0.8,1.1,0.8,2V0H28.2z M27.6-3.5l-0.8,0c-0.6,0-1.1,0.1-1.4,0.3S25-2.7,25-2.3
								c0,0.6,0.3,0.9,1,0.9c0.5,0,0.9-0.1,1.2-0.4s0.4-0.6,0.4-1.1V-3.5z"/>
						</g>
						<g class="st6">
							<path d="M37.7-7.6v1.1l-1.2,0.3c0.2,0.3,0.3,0.7,0.3,1.1c0,0.8-0.3,1.5-0.9,1.9c-0.6,0.5-1.4,0.7-2.4,0.7l-0.4,0l-0.3,0
								c-0.2,0.2-0.3,0.3-0.3,0.5c0,0.3,0.4,0.5,1.1,0.5h1.3c0.8,0,1.5,0.2,1.9,0.5s0.7,0.9,0.7,1.6c0,0.9-0.4,1.6-1.1,2.1
								s-1.8,0.7-3.2,0.7c-1.1,0-1.9-0.2-2.4-0.6C30.3,2.4,30,1.9,30,1.2c0-0.5,0.1-0.8,0.4-1.2s0.7-0.5,1.3-0.7
								c-0.2-0.1-0.4-0.2-0.6-0.4c-0.2-0.2-0.2-0.4-0.2-0.7c0-0.3,0.1-0.5,0.3-0.7c0.2-0.2,0.4-0.4,0.7-0.6c-0.4-0.2-0.7-0.5-1-0.8
								s-0.4-0.8-0.4-1.4c0-0.8,0.3-1.5,0.8-1.9s1.3-0.7,2.3-0.7c0.2,0,0.5,0,0.8,0.1c0.3,0,0.5,0.1,0.6,0.1H37.7z M31.8,1.1
								c0,0.3,0.1,0.5,0.4,0.7S32.9,2,33.4,2c0.7,0,1.3-0.1,1.8-0.3s0.6-0.5,0.6-0.8c0-0.3-0.1-0.5-0.4-0.6s-0.6-0.2-1.2-0.2h-1.1
								c-0.4,0-0.7,0.1-1,0.3C32,0.5,31.8,0.8,31.8,1.1z M32.6-5.1c0,0.4,0.1,0.7,0.3,1s0.5,0.4,0.9,0.4c0.4,0,0.7-0.1,0.9-0.4
								s0.3-0.6,0.3-1c0-0.9-0.4-1.4-1.1-1.4C33-6.5,32.6-6.1,32.6-5.1z"/>
							<path d="M43.2-7.8c0.3,0,0.5,0,0.7,0.1l-0.2,2c-0.2,0-0.4-0.1-0.6-0.1c-0.7,0-1.2,0.2-1.6,0.5S41-4.5,41-3.9V0h-2.1v-7.6h1.6
								l0.3,1.3h0.1c0.2-0.4,0.6-0.8,1-1C42.3-7.7,42.7-7.8,43.2-7.8z"/>
						</g>
						<g class="st6">
							<path d="M48.6,0.1c-1.2,0-2.2-0.3-2.9-1s-1-1.6-1-2.9c0-1.3,0.3-2.3,1-3c0.6-0.7,1.5-1,2.7-1c1.1,0,1.9,0.3,2.5,0.9
								s0.9,1.5,0.9,2.5v1h-4.9c0,0.6,0.2,1.1,0.5,1.4s0.8,0.5,1.4,0.5c0.5,0,0.9,0,1.3-0.1s0.8-0.2,1.3-0.5v1.6
								c-0.4,0.2-0.8,0.3-1.2,0.4C49.7,0.1,49.2,0.1,48.6,0.1z M48.3-6.3c-0.4,0-0.8,0.1-1,0.4c-0.3,0.3-0.4,0.7-0.4,1.2h2.9
								c0-0.5-0.1-0.9-0.4-1.2C49.1-6.2,48.7-6.3,48.3-6.3z"/>
						</g>
						<g class="st6">
							<path d="M56.6-3.8c0-1.2,0.2-2.3,0.5-3.4s0.9-2,1.5-2.8h1.7c-0.6,0.9-1.1,1.8-1.5,2.9S58.4-5,58.4-3.8c0,1.1,0.2,2.2,0.5,3.2
								c0.3,1,0.8,2,1.4,2.8h-1.7c-0.7-0.8-1.2-1.7-1.5-2.7S56.6-2.6,56.6-3.8z"/>
						</g>
						<g class="st6">
							<path d="M66.3,0.1c-0.9,0-1.6-0.3-2.1-1h-0.1c0.1,0.6,0.1,1,0.1,1.1v3.1h-2.1v-11h1.7l0.3,1h0.1c0.5-0.8,1.2-1.1,2.2-1.1
								c0.9,0,1.6,0.3,2.1,1s0.8,1.7,0.8,2.9c0,0.8-0.1,1.5-0.4,2.1s-0.6,1.1-1,1.4S66.9,0.1,66.3,0.1z M65.7-6.1
								c-0.5,0-0.9,0.2-1.1,0.5c-0.2,0.3-0.4,0.8-0.4,1.6v0.2c0,0.8,0.1,1.4,0.4,1.8s0.6,0.5,1.2,0.5c0.9,0,1.4-0.8,1.4-2.3
								c0-0.8-0.1-1.3-0.3-1.7C66.5-5.9,66.2-6.1,65.7-6.1z"/>
						</g>
						<g class="st6">
							<path d="M75.9,0l-0.4-1h-0.1c-0.4,0.4-0.7,0.7-1.1,0.9C74,0.1,73.6,0.1,73,0.1c-0.7,0-1.3-0.2-1.7-0.6s-0.6-1-0.6-1.8
								c0-0.8,0.3-1.4,0.9-1.8C72-4.5,72.9-4.7,74-4.7l1.3,0v-0.3c0-0.8-0.4-1.2-1.2-1.2c-0.6,0-1.3,0.2-2.2,0.6l-0.7-1.4
								c0.9-0.5,1.9-0.7,2.9-0.7c1,0,1.8,0.2,2.4,0.7s0.8,1.1,0.8,2V0H75.9z M75.3-3.5l-0.8,0c-0.6,0-1.1,0.1-1.4,0.3
								s-0.4,0.5-0.4,0.9c0,0.6,0.3,0.9,1,0.9c0.5,0,0.9-0.1,1.2-0.4s0.4-0.6,0.4-1.1V-3.5z"/>
						</g>
						<g class="st6">
							<path d="M83.4-7.8c0.3,0,0.5,0,0.7,0.1l-0.2,2c-0.2,0-0.4-0.1-0.6-0.1c-0.7,0-1.2,0.2-1.6,0.5s-0.6,0.8-0.6,1.4V0h-2.1v-7.6
								h1.6L81-6.4h0.1c0.2-0.4,0.6-0.8,1-1C82.4-7.7,82.9-7.8,83.4-7.8z"/>
						</g>
						<g class="st6">
							<path d="M88.3-1.5c0.4,0,0.8-0.1,1.3-0.2v1.6c-0.5,0.2-1.2,0.3-1.9,0.3c-0.8,0-1.4-0.2-1.8-0.6c-0.4-0.4-0.6-1.1-0.6-1.9
								v-3.7h-1V-7l1.1-0.7l0.6-1.6h1.3v1.6h2.1v1.6h-2.1v3.7c0,0.3,0.1,0.5,0.2,0.7S88-1.5,88.3-1.5z"/>
							<path d="M94.5,0.1c-1.2,0-2.2-0.3-2.9-1s-1-1.6-1-2.9c0-1.3,0.3-2.3,1-3c0.6-0.7,1.5-1,2.7-1c1.1,0,1.9,0.3,2.5,0.9
								s0.9,1.5,0.9,2.5v1h-4.9c0,0.6,0.2,1.1,0.5,1.4s0.8,0.5,1.4,0.5c0.5,0,0.9,0,1.3-0.1s0.8-0.2,1.3-0.5v1.6
								C96.9-0.2,96.5-0.1,96,0C95.6,0.1,95.1,0.1,94.5,0.1z M94.2-6.3c-0.4,0-0.8,0.1-1,0.4c-0.3,0.3-0.4,0.7-0.4,1.2h2.9
								c0-0.5-0.1-0.9-0.4-1.2C95-6.2,94.7-6.3,94.2-6.3z"/>
							<path d="M104.6-2.3c0,0.8-0.3,1.4-0.8,1.8s-1.4,0.6-2.4,0.6c-0.6,0-1,0-1.4-0.1c-0.4-0.1-0.8-0.2-1.1-0.3V-2
								c0.4,0.2,0.8,0.3,1.3,0.5s0.9,0.2,1.3,0.2c0.8,0,1.1-0.2,1.1-0.7c0-0.2-0.1-0.3-0.2-0.4c-0.1-0.1-0.3-0.2-0.5-0.3
								c-0.2-0.1-0.6-0.3-1-0.5c-0.6-0.2-1-0.5-1.3-0.7S99.1-4.4,99-4.7c-0.1-0.3-0.2-0.6-0.2-1c0-0.7,0.3-1.2,0.8-1.6
								c0.5-0.4,1.3-0.6,2.2-0.6c0.9,0,1.8,0.2,2.7,0.6l-0.6,1.5c-0.4-0.2-0.7-0.3-1.1-0.4s-0.7-0.2-1-0.2c-0.6,0-0.9,0.2-0.9,0.5
								c0,0.2,0.1,0.3,0.3,0.5s0.6,0.3,1.3,0.6c0.6,0.2,1,0.5,1.3,0.7s0.5,0.5,0.6,0.7S104.6-2.6,104.6-2.3z"/>
						</g>
						<g class="st6">
							<path d="M113.5,0.1c-1.2,0-2.2-0.3-2.9-1s-1-1.6-1-2.9c0-1.3,0.3-2.3,1-3c0.6-0.7,1.5-1,2.7-1c1.1,0,1.9,0.3,2.5,0.9
								s0.9,1.5,0.9,2.5v1h-4.9c0,0.6,0.2,1.1,0.5,1.4s0.8,0.5,1.4,0.5c0.5,0,0.9,0,1.3-0.1s0.8-0.2,1.3-0.5v1.6
								c-0.4,0.2-0.8,0.3-1.2,0.4C114.7,0.1,114.1,0.1,113.5,0.1z M113.3-6.3c-0.4,0-0.8,0.1-1,0.4c-0.3,0.3-0.4,0.7-0.4,1.2h2.9
								c0-0.5-0.1-0.9-0.4-1.2C114-6.2,113.7-6.3,113.3-6.3z"/>
							<path d="M125.3,0h-2.1v-4.5c0-0.6-0.1-1-0.3-1.2c-0.2-0.3-0.5-0.4-0.9-0.4c-0.6,0-1,0.2-1.3,0.6c-0.3,0.4-0.4,1-0.4,1.9V0
								h-2.1v-7.6h1.6l0.3,1h0.1c0.2-0.4,0.6-0.6,1-0.8c0.4-0.2,0.9-0.3,1.4-0.3c0.9,0,1.6,0.2,2,0.7c0.5,0.5,0.7,1.2,0.7,2.1V0z"/>
						</g>
					</g>
				</g>
			</g>
		</g>
		<g>
			<defs>
				<rect id="SVGID_9_" x="84" y="-228" width="174" height="66"/>
			</defs>
			<clipPath id="SVGID_10_">
				<use xlink:href="#SVGID_9_"  style="overflow:visible;"/>
			</clipPath>
			<g id="Grupo_7203" class="st8">
				<g id="Grupo_7202" transform="translate(94 -190)">
					<g id="Grupo-3">
						<g class="st6">
							<path d="M2.9,0L0-7.6h2.2l1.5,4.4C3.8-2.7,3.9-2.2,4-1.7h0c0-0.4,0.1-1,0.3-1.6l1.5-4.4H8L5.1,0H2.9z"/>
							<path d="M16-3.8c0,1.2-0.3,2.2-1,2.9s-1.6,1.1-2.7,1.1c-0.7,0-1.4-0.2-1.9-0.5c-0.6-0.3-1-0.8-1.3-1.4S8.6-3,8.6-3.8
								c0-1.2,0.3-2.2,1-2.9s1.6-1,2.7-1c0.7,0,1.4,0.2,1.9,0.5s1,0.8,1.3,1.4S16-4.6,16-3.8z M10.7-3.8c0,0.8,0.1,1.3,0.4,1.7
								s0.7,0.6,1.2,0.6c0.6,0,1-0.2,1.2-0.6c0.2-0.4,0.4-1,0.4-1.7c0-0.8-0.1-1.3-0.4-1.7s-0.6-0.6-1.2-0.6c-0.6,0-1,0.2-1.2,0.6
								C10.9-5.2,10.7-4.6,10.7-3.8z"/>
						</g>
						<g class="st6">
							<path d="M20.2,0h-2.1v-10.6h2.1V0z"/>
						</g>
						<g class="st6">
							<path d="M27.5,0l-0.3-1h-0.1c-0.2,0.4-0.5,0.6-1,0.8c-0.4,0.2-0.9,0.3-1.4,0.3c-0.9,0-1.6-0.2-2-0.7
								c-0.5-0.5-0.7-1.2-0.7-2.1v-5h2.1v4.5c0,0.6,0.1,1,0.3,1.2c0.2,0.3,0.5,0.4,0.9,0.4c0.6,0,1-0.2,1.3-0.6
								C26.9-2.5,27-3.1,27-4v-3.6h2.1V0H27.5z"/>
						</g>
						<g class="st6">
							<path d="M37.9,0h-2.1v-4.5c0-0.6-0.1-1-0.3-1.2c-0.2-0.3-0.5-0.4-0.9-0.4c-0.5,0-0.9,0.2-1.2,0.6s-0.4,1-0.4,1.9V0h-2.1v-7.6
								h1.6l0.3,1h0.1C33.3-7,33.6-7.3,34-7.5c0.4-0.2,0.8-0.3,1.3-0.3c1.1,0,1.9,0.4,2.3,1.1h0.2C38-7,38.3-7.3,38.7-7.5
								s0.8-0.3,1.4-0.3c0.9,0,1.5,0.2,2,0.7C42.5-6.7,42.7-6,42.7-5v5h-2.1v-4.5c0-0.6-0.1-1-0.3-1.2c-0.2-0.3-0.5-0.4-0.9-0.4
								c-0.5,0-0.9,0.2-1.1,0.5s-0.4,0.9-0.4,1.7V0z"/>
						</g>
						<g class="st6">
							<path d="M48.6,0.1c-1.2,0-2.2-0.3-2.9-1s-1-1.6-1-2.9c0-1.3,0.3-2.3,1-3c0.6-0.7,1.5-1,2.7-1c1.1,0,1.9,0.3,2.5,0.9
								s0.9,1.5,0.9,2.5v1h-4.9c0,0.6,0.2,1.1,0.5,1.4s0.8,0.5,1.4,0.5c0.5,0,0.9,0,1.3-0.1s0.8-0.2,1.3-0.5v1.6
								c-0.4,0.2-0.8,0.3-1.2,0.4C49.7,0.1,49.2,0.1,48.6,0.1z M48.3-6.3c-0.4,0-0.8,0.1-1,0.4c-0.3,0.3-0.4,0.7-0.4,1.2h2.9
								c0-0.5-0.1-0.9-0.4-1.2C49.1-6.2,48.7-6.3,48.3-6.3z"/>
						</g>
						<g class="st6">
							<path d="M60.2,0h-2.1v-4.5c0-0.6-0.1-1-0.3-1.2c-0.2-0.3-0.5-0.4-0.9-0.4c-0.6,0-1,0.2-1.3,0.6c-0.3,0.4-0.4,1-0.4,1.9V0
								h-2.1v-7.6h1.6l0.3,1h0.1c0.2-0.4,0.6-0.6,1-0.8c0.4-0.2,0.9-0.3,1.4-0.3c0.9,0,1.6,0.2,2,0.7c0.5,0.5,0.7,1.2,0.7,2.1V0z"/>
						</g>
						<g class="st6">
							<path d="M61.8-6.6c0-0.4,0.1-0.7,0.3-0.9s0.5-0.3,0.9-0.3c0.4,0,0.7,0.1,0.9,0.3s0.3,0.5,0.3,0.9c0,0.4-0.1,0.7-0.3,0.9
								c-0.2,0.2-0.5,0.3-0.9,0.3c-0.4,0-0.7-0.1-0.9-0.3S61.8-6.3,61.8-6.6z M61.8-1c0-0.4,0.1-0.7,0.3-0.9s0.5-0.3,0.9-0.3
								c0.4,0,0.7,0.1,0.9,0.3s0.3,0.5,0.3,0.9c0,0.4-0.1,0.6-0.3,0.9c-0.2,0.2-0.5,0.3-0.9,0.3c-0.4,0-0.7-0.1-0.9-0.3
								C61.9-0.3,61.8-0.6,61.8-1z"/>
						</g>
						<g class="st6">
							<path d="M72.2,0h-2.1v-10.6h2.1V0z"/>
						</g>
						<g class="st6">
							<path d="M74-9.6c0-0.7,0.4-1,1.1-1s1.1,0.3,1.1,1c0,0.3-0.1,0.6-0.3,0.8c-0.2,0.2-0.5,0.3-0.9,0.3C74.4-8.6,74-8.9,74-9.6z
								 M76.2,0h-2.1v-7.6h2.1V0z"/>
						</g>
						<g class="st6">
							<path d="M81.3-1.5c0.4,0,0.8-0.1,1.3-0.2v1.6c-0.5,0.2-1.2,0.3-1.9,0.3c-0.8,0-1.4-0.2-1.8-0.6c-0.4-0.4-0.6-1.1-0.6-1.9
								v-3.7h-1V-7l1.1-0.7L79-9.3h1.3v1.6h2.1v1.6h-2.1v3.7c0,0.3,0.1,0.5,0.2,0.7S81-1.5,81.3-1.5z"/>
							<path d="M88.4-7.8c0.3,0,0.5,0,0.7,0.1l-0.2,2c-0.2,0-0.4-0.1-0.6-0.1c-0.7,0-1.2,0.2-1.6,0.5s-0.6,0.8-0.6,1.4V0h-2.1v-7.6
								h1.6l0.3,1.3h0.1c0.2-0.4,0.6-0.8,1-1C87.5-7.7,88-7.8,88.4-7.8z"/>
						</g>
						<g class="st6">
							<path d="M97-3.8c0,1.2-0.3,2.2-1,2.9s-1.6,1.1-2.7,1.1c-0.7,0-1.4-0.2-1.9-0.5c-0.6-0.3-1-0.8-1.3-1.4S89.6-3,89.6-3.8
								c0-1.2,0.3-2.2,1-2.9s1.6-1,2.7-1c0.7,0,1.4,0.2,1.9,0.5s1,0.8,1.3,1.4S97-4.6,97-3.8z M91.7-3.8c0,0.8,0.1,1.3,0.4,1.7
								s0.7,0.6,1.2,0.6c0.6,0,1-0.2,1.2-0.6c0.2-0.4,0.4-1,0.4-1.7c0-0.8-0.1-1.3-0.4-1.7s-0.6-0.6-1.2-0.6c-0.6,0-1,0.2-1.2,0.6
								C91.9-5.2,91.7-4.6,91.7-3.8z"/>
						</g>
						<g class="st6">
							<path d="M104.4-2.3c0,0.8-0.3,1.4-0.8,1.8s-1.4,0.6-2.4,0.6c-0.6,0-1,0-1.4-0.1c-0.4-0.1-0.8-0.2-1.1-0.3V-2
								c0.4,0.2,0.8,0.3,1.3,0.5s0.9,0.2,1.3,0.2c0.8,0,1.1-0.2,1.1-0.7c0-0.2-0.1-0.3-0.2-0.4c-0.1-0.1-0.3-0.2-0.5-0.3
								c-0.2-0.1-0.6-0.3-1-0.5c-0.6-0.2-1-0.5-1.3-0.7s-0.5-0.5-0.6-0.7c-0.1-0.3-0.2-0.6-0.2-1c0-0.7,0.3-1.2,0.8-1.6
								c0.5-0.4,1.3-0.6,2.2-0.6c0.9,0,1.8,0.2,2.7,0.6l-0.6,1.5c-0.4-0.2-0.7-0.3-1.1-0.4s-0.7-0.2-1-0.2c-0.6,0-0.9,0.2-0.9,0.5
								c0,0.2,0.1,0.3,0.3,0.5s0.6,0.3,1.3,0.6c0.6,0.2,1,0.5,1.3,0.7s0.5,0.5,0.6,0.7S104.4-2.6,104.4-2.3z"/>
							<path d="M108.1-1.5c-0.2,0.9-0.6,2-1.2,3.3h-1.5c0.3-1.2,0.5-2.4,0.7-3.4h1.9L108.1-1.5z"/>
						</g>
						<g class="st6">
							<path d="M117.3-1.5c0.4,0,0.8-0.1,1.3-0.2v1.6c-0.5,0.2-1.2,0.3-1.9,0.3c-0.8,0-1.4-0.2-1.8-0.6c-0.4-0.4-0.6-1.1-0.6-1.9
								v-3.7h-1V-7l1.1-0.7l0.6-1.6h1.3v1.6h2.1v1.6h-2.1v3.7c0,0.3,0.1,0.5,0.2,0.7S117-1.5,117.3-1.5z"/>
							<path d="M125,0l-0.4-1h-0.1c-0.4,0.4-0.7,0.7-1.1,0.9c-0.4,0.2-0.9,0.3-1.5,0.3c-0.7,0-1.3-0.2-1.7-0.6s-0.6-1-0.6-1.8
								c0-0.8,0.3-1.4,0.9-1.8c0.6-0.4,1.4-0.6,2.6-0.6l1.3,0v-0.3c0-0.8-0.4-1.2-1.2-1.2c-0.6,0-1.3,0.2-2.2,0.6l-0.7-1.4
								c0.9-0.5,1.9-0.7,2.9-0.7c1,0,1.8,0.2,2.4,0.7s0.8,1.1,0.8,2V0H125z M124.4-3.5l-0.8,0c-0.6,0-1.1,0.1-1.4,0.3
								s-0.4,0.5-0.4,0.9c0,0.6,0.3,0.9,1,0.9c0.5,0,0.9-0.1,1.2-0.4s0.4-0.6,0.4-1.1V-3.5z"/>
						</g>
						<g class="st6">
							<path d="M133.4,0h-6v-1.2l3.5-4.8h-3.3v-1.6h5.7v1.4l-3.4,4.7h3.6V0z"/>
							<path d="M139.8,0l-0.4-1h-0.1c-0.4,0.4-0.7,0.7-1.1,0.9c-0.4,0.2-0.9,0.3-1.5,0.3c-0.7,0-1.3-0.2-1.7-0.6s-0.6-1-0.6-1.8
								c0-0.8,0.3-1.4,0.9-1.8c0.6-0.4,1.4-0.6,2.6-0.6l1.3,0v-0.3c0-0.8-0.4-1.2-1.2-1.2c-0.6,0-1.3,0.2-2.2,0.6l-0.7-1.4
								c0.9-0.5,1.9-0.7,2.9-0.7c1,0,1.8,0.2,2.4,0.7s0.8,1.1,0.8,2V0H139.8z M139.2-3.5l-0.8,0c-0.6,0-1.1,0.1-1.4,0.3
								s-0.4,0.5-0.4,0.9c0,0.6,0.3,0.9,1,0.9c0.5,0,0.9-0.1,1.2-0.4s0.4-0.6,0.4-1.1V-3.5z"/>
						</g>
						<g class="st6">
							<path d="M148.4-2.3c0,0.8-0.3,1.4-0.8,1.8s-1.4,0.6-2.4,0.6c-0.6,0-1,0-1.4-0.1c-0.4-0.1-0.8-0.2-1.1-0.3V-2
								c0.4,0.2,0.8,0.3,1.3,0.5s0.9,0.2,1.3,0.2c0.8,0,1.1-0.2,1.1-0.7c0-0.2-0.1-0.3-0.2-0.4c-0.1-0.1-0.3-0.2-0.5-0.3
								c-0.2-0.1-0.6-0.3-1-0.5c-0.6-0.2-1-0.5-1.3-0.7s-0.5-0.5-0.6-0.7c-0.1-0.3-0.2-0.6-0.2-1c0-0.7,0.3-1.2,0.8-1.6
								c0.5-0.4,1.3-0.6,2.2-0.6c0.9,0,1.8,0.2,2.7,0.6l-0.6,1.5c-0.4-0.2-0.7-0.3-1.1-0.4s-0.7-0.2-1-0.2c-0.6,0-0.9,0.2-0.9,0.5
								c0,0.2,0.1,0.3,0.3,0.5s0.6,0.3,1.3,0.6c0.6,0.2,1,0.5,1.3,0.7s0.5,0.5,0.6,0.7S148.4-2.6,148.4-2.3z"/>
							<path d="M152.1-1.5c-0.2,0.9-0.6,2-1.2,3.3h-1.5c0.3-1.2,0.5-2.4,0.7-3.4h1.9L152.1-1.5z"/>
						</g>
					</g>
				</g>
			</g>
		</g>
		<g>
			<defs>
				<rect id="SVGID_11_" x="84" y="-228" width="174" height="66"/>
			</defs>
			<clipPath id="SVGID_12_">
				<use xlink:href="#SVGID_11_"  style="overflow:visible;"/>
			</clipPath>
			<g id="Grupo_7205" class="st9">
				<g id="Grupo_7204" transform="translate(156 -169)">
					<g id="Grupo-4">
						<g class="st6">
							<path d="M4.6,0.1c-1.2,0-2.2-0.3-2.9-1s-1-1.6-1-2.9c0-1.3,0.3-2.3,1-3c0.6-0.7,1.5-1,2.7-1c1.1,0,1.9,0.3,2.5,0.9
								s0.9,1.5,0.9,2.5v1H2.7c0,0.6,0.2,1.1,0.5,1.4s0.8,0.5,1.4,0.5c0.5,0,0.9,0,1.3-0.1S6.8-1.8,7.2-2v1.6C6.9-0.2,6.5-0.1,6.1,0
								C5.7,0.1,5.1,0.1,4.6,0.1z M4.3-6.3c-0.4,0-0.8,0.1-1,0.4C3-5.6,2.8-5.2,2.8-4.7h2.9c0-0.5-0.1-0.9-0.4-1.2
								C5.1-6.2,4.7-6.3,4.3-6.3z"/>
							<path d="M12.3-1.5c0.4,0,0.8-0.1,1.3-0.2v1.6c-0.5,0.2-1.2,0.3-1.9,0.3c-0.8,0-1.4-0.2-1.8-0.6C9.5-0.9,9.3-1.5,9.3-2.4v-3.7
								h-1V-7l1.1-0.7l0.6-1.6h1.3v1.6h2.1v1.6h-2.1v3.7c0,0.3,0.1,0.5,0.2,0.7S12-1.5,12.3-1.5z"/>
							<path d="M18,0.1c-2.4,0-3.6-1.3-3.6-3.9c0-1.3,0.3-2.3,1-3c0.6-0.7,1.6-1,2.8-1c0.9,0,1.7,0.2,2.4,0.5l-0.6,1.6
								C19.6-5.8,19.3-5.9,19-6c-0.3-0.1-0.6-0.1-0.8-0.1c-1.1,0-1.6,0.8-1.6,2.3c0,1.5,0.5,2.2,1.6,2.2c0.4,0,0.8-0.1,1.1-0.2
								c0.3-0.1,0.7-0.3,1-0.5v1.8c-0.3,0.2-0.7,0.4-1,0.4S18.5,0.1,18,0.1z"/>
							<path d="M21.5-1c0-0.4,0.1-0.7,0.3-0.9s0.5-0.3,0.9-0.3c0.4,0,0.7,0.1,0.9,0.3s0.3,0.5,0.3,0.9c0,0.4-0.1,0.6-0.3,0.9
								c-0.2,0.2-0.5,0.3-0.9,0.3c-0.4,0-0.7-0.1-0.9-0.3C21.6-0.3,21.5-0.6,21.5-1z"/>
						</g>
						<g class="st6">
							<path d="M29.2-3.8c0,1.2-0.2,2.3-0.5,3.3s-0.9,1.9-1.5,2.7h-1.7c0.6-0.8,1.1-1.8,1.4-2.8c0.3-1,0.5-2.1,0.5-3.2
								c0-1.1-0.2-2.2-0.5-3.2s-0.8-2-1.5-2.9h1.7c0.7,0.8,1.2,1.7,1.5,2.8C29-6.2,29.2-5,29.2-3.8z"/>
						</g>
					</g>
				</g>
			</g>
		</g>
		<g>
			<defs>
				<rect id="SVGID_13_" x="259" y="-228" width="132" height="66"/>
			</defs>
			<clipPath id="SVGID_14_">
				<use xlink:href="#SVGID_13_"  style="overflow:visible;"/>
			</clipPath>
			<g id="Grupo_7207" class="st10">
				<g id="Grupo_7206" transform="translate(270 -211)">
					<g id="Grupo-5">
						<g class="st6">
							<path d="M7.4,0L6.7-2.4H3L2.3,0H0l3.5-10h2.6L9.7,0H7.4z M6.1-4.2C5.5-6.3,5.1-7.5,5-7.8C4.9-8.1,4.9-8.3,4.8-8.5
								c-0.2,0.6-0.6,2-1.3,4.3H6.1z"/>
							<path d="M17.7-7.6v1.1l-1.2,0.3c0.2,0.3,0.3,0.7,0.3,1.1c0,0.8-0.3,1.5-0.9,1.9c-0.6,0.5-1.4,0.7-2.4,0.7l-0.4,0l-0.3,0
								c-0.2,0.2-0.3,0.3-0.3,0.5c0,0.3,0.4,0.5,1.1,0.5h1.3c0.8,0,1.5,0.2,1.9,0.5c0.4,0.4,0.7,0.9,0.7,1.6c0,0.9-0.4,1.6-1.1,2.1
								c-0.7,0.5-1.8,0.7-3.2,0.7c-1.1,0-1.9-0.2-2.4-0.6C10.3,2.4,10,1.9,10,1.2c0-0.5,0.1-0.8,0.4-1.2s0.7-0.5,1.3-0.7
								c-0.2-0.1-0.4-0.2-0.6-0.4c-0.2-0.2-0.2-0.4-0.2-0.7c0-0.3,0.1-0.5,0.3-0.7c0.2-0.2,0.4-0.4,0.7-0.6c-0.4-0.2-0.7-0.5-1-0.8
								c-0.2-0.4-0.4-0.8-0.4-1.4c0-0.8,0.3-1.5,0.8-1.9s1.3-0.7,2.3-0.7c0.2,0,0.5,0,0.8,0.1c0.3,0,0.5,0.1,0.6,0.1H17.7z
								 M11.8,1.1c0,0.3,0.1,0.5,0.4,0.7C12.5,1.9,12.9,2,13.4,2c0.7,0,1.3-0.1,1.8-0.3s0.6-0.5,0.6-0.8c0-0.3-0.1-0.5-0.4-0.6
								s-0.6-0.2-1.2-0.2h-1.1c-0.4,0-0.7,0.1-1,0.3C12,0.5,11.8,0.8,11.8,1.1z M12.6-5.1c0,0.4,0.1,0.7,0.3,1
								c0.2,0.2,0.5,0.4,0.9,0.4c0.4,0,0.7-0.1,0.9-0.4s0.3-0.6,0.3-1c0-0.9-0.4-1.4-1.1-1.4C13-6.5,12.6-6.1,12.6-5.1z"/>
						</g>
						<g class="st6">
							<path d="M24.5,0l-0.3-1h-0.1c-0.2,0.4-0.5,0.6-1,0.8c-0.4,0.2-0.9,0.3-1.4,0.3c-0.9,0-1.6-0.2-2-0.7
								c-0.5-0.5-0.7-1.2-0.7-2.1v-5h2.1v4.5c0,0.6,0.1,1,0.3,1.2c0.2,0.3,0.5,0.4,0.9,0.4c0.6,0,1-0.2,1.3-0.6
								C23.9-2.5,24-3.1,24-4v-3.6h2.1V0H24.5z"/>
						</g>
						<g class="st6">
							<path d="M33,0l-0.4-1h-0.1c-0.4,0.4-0.7,0.7-1.1,0.9C31,0.1,30.6,0.1,30,0.1c-0.7,0-1.3-0.2-1.7-0.6c-0.4-0.4-0.6-1-0.6-1.8
								c0-0.8,0.3-1.4,0.9-1.8C29-4.5,29.9-4.7,31-4.7l1.3,0v-0.3c0-0.8-0.4-1.2-1.2-1.2c-0.6,0-1.3,0.2-2.2,0.6l-0.7-1.4
								c0.9-0.5,1.9-0.7,2.9-0.7c1,0,1.8,0.2,2.4,0.7s0.8,1.1,0.8,2V0H33z M32.3-3.5l-0.8,0c-0.6,0-1.1,0.1-1.4,0.3
								c-0.3,0.2-0.4,0.5-0.4,0.9c0,0.6,0.3,0.9,1,0.9c0.5,0,0.9-0.1,1.2-0.4c0.3-0.3,0.4-0.6,0.4-1.1V-3.5z"/>
						</g>
						<g class="st6">
							<path d="M39.5-3.8c0-1.2,0.2-2.3,0.5-3.4c0.4-1.1,0.9-2,1.5-2.8h1.7c-0.6,0.9-1.1,1.8-1.5,2.9S41.4-5,41.4-3.8
								c0,1.1,0.2,2.2,0.5,3.2c0.3,1,0.8,2,1.4,2.8h-1.7c-0.7-0.8-1.2-1.7-1.5-2.7C39.7-1.5,39.5-2.6,39.5-3.8z"/>
							<path d="M49.3,0.1c-0.9,0-1.6-0.3-2.1-1h-0.1c0.1,0.6,0.1,1,0.1,1.1v3.1h-2.1v-11h1.7l0.3,1h0.1c0.5-0.8,1.2-1.1,2.2-1.1
								c0.9,0,1.6,0.3,2.1,1C52-6,52.3-5.1,52.3-3.8c0,0.8-0.1,1.5-0.4,2.1s-0.6,1.1-1,1.4C50.5,0,49.9,0.1,49.3,0.1z M48.7-6.1
								c-0.5,0-0.9,0.2-1.1,0.5c-0.2,0.3-0.4,0.8-0.4,1.6v0.2c0,0.8,0.1,1.4,0.4,1.8c0.2,0.4,0.6,0.5,1.2,0.5c0.9,0,1.4-0.8,1.4-2.3
								c0-0.8-0.1-1.3-0.3-1.7C49.6-5.9,49.2-6.1,48.7-6.1z"/>
							<path d="M59.2,0l-0.4-1h-0.1c-0.4,0.4-0.7,0.7-1.1,0.9c-0.4,0.2-0.9,0.3-1.5,0.3c-0.7,0-1.3-0.2-1.7-0.6
								c-0.4-0.4-0.6-1-0.6-1.8c0-0.8,0.3-1.4,0.9-1.8c0.6-0.4,1.4-0.6,2.6-0.6l1.3,0v-0.3c0-0.8-0.4-1.2-1.2-1.2
								c-0.6,0-1.3,0.2-2.2,0.6l-0.7-1.4c0.9-0.5,1.9-0.7,2.9-0.7c1,0,1.8,0.2,2.4,0.7s0.8,1.1,0.8,2V0H59.2z M58.6-3.5l-0.8,0
								c-0.6,0-1.1,0.1-1.4,0.3C56.1-3,56-2.7,56-2.3c0,0.6,0.3,0.9,1,0.9c0.5,0,0.9-0.1,1.2-0.4c0.3-0.3,0.4-0.6,0.4-1.1V-3.5z"/>
						</g>
						<g class="st6">
							<path d="M66.4-7.8c0.3,0,0.5,0,0.7,0.1l-0.2,2c-0.2,0-0.4-0.1-0.6-0.1c-0.7,0-1.2,0.2-1.6,0.5c-0.4,0.3-0.6,0.8-0.6,1.4V0
								h-2.1v-7.6h1.6L64-6.4h0.1c0.2-0.4,0.6-0.8,1-1C65.5-7.7,65.9-7.8,66.4-7.8z"/>
						</g>
						<g class="st6">
							<path d="M71.3-1.5c0.4,0,0.8-0.1,1.3-0.2v1.6c-0.5,0.2-1.2,0.3-1.9,0.3c-0.8,0-1.4-0.2-1.8-0.6c-0.4-0.4-0.6-1.1-0.6-1.9
								v-3.7h-1V-7l1.1-0.7l0.6-1.6h1.3v1.6h2.1v1.6h-2.1v3.7c0,0.3,0.1,0.5,0.3,0.7C70.8-1.6,71-1.5,71.3-1.5z"/>
						</g>
						<g class="st6">
							<path d="M77.5,0.1c-1.2,0-2.2-0.3-2.9-1c-0.7-0.7-1-1.6-1-2.9c0-1.3,0.3-2.3,1-3c0.6-0.7,1.5-1,2.7-1c1.1,0,1.9,0.3,2.5,0.9
								s0.9,1.5,0.9,2.5v1h-4.9c0,0.6,0.2,1.1,0.5,1.4s0.8,0.5,1.4,0.5c0.5,0,0.9,0,1.3-0.1s0.8-0.2,1.3-0.5v1.6
								c-0.4,0.2-0.8,0.3-1.2,0.4C78.7,0.1,78.1,0.1,77.5,0.1z M77.3-6.3c-0.4,0-0.8,0.1-1,0.4c-0.3,0.3-0.4,0.7-0.4,1.2h2.9
								c0-0.5-0.1-0.9-0.4-1.2C78-6.2,77.7-6.3,77.3-6.3z"/>
						</g>
						<g class="st6">
							<path d="M87.4-2.3c0,0.8-0.3,1.4-0.8,1.8c-0.5,0.4-1.4,0.6-2.4,0.6c-0.6,0-1,0-1.4-0.1c-0.4-0.1-0.8-0.2-1.1-0.3V-2
								c0.4,0.2,0.8,0.3,1.3,0.5s0.9,0.2,1.3,0.2c0.8,0,1.1-0.2,1.1-0.7c0-0.2-0.1-0.3-0.2-0.4c-0.1-0.1-0.3-0.2-0.5-0.3
								c-0.2-0.1-0.6-0.3-1-0.5c-0.6-0.2-1-0.5-1.3-0.7c-0.3-0.2-0.5-0.5-0.6-0.7c-0.1-0.3-0.2-0.6-0.2-1c0-0.7,0.3-1.2,0.8-1.6
								c0.5-0.4,1.3-0.6,2.2-0.6c0.9,0,1.8,0.2,2.7,0.6l-0.6,1.5C86.3-5.8,86-6,85.6-6.1c-0.3-0.1-0.7-0.2-1-0.2
								c-0.6,0-0.9,0.2-0.9,0.5c0,0.2,0.1,0.3,0.3,0.5s0.6,0.3,1.3,0.6c0.6,0.2,1,0.5,1.3,0.7c0.3,0.2,0.5,0.5,0.6,0.7
								C87.4-3,87.4-2.6,87.4-2.3z"/>
						</g>
						<g class="st6">
							<path d="M96.5,0.1c-1.2,0-2.2-0.3-2.9-1c-0.7-0.7-1-1.6-1-2.9c0-1.3,0.3-2.3,1-3c0.6-0.7,1.5-1,2.7-1c1.1,0,1.9,0.3,2.5,0.9
								s0.9,1.5,0.9,2.5v1h-4.9c0,0.6,0.2,1.1,0.5,1.4s0.8,0.5,1.4,0.5c0.5,0,0.9,0,1.3-0.1s0.8-0.2,1.3-0.5v1.6
								C98.8-0.2,98.5-0.1,98,0C97.6,0.1,97.1,0.1,96.5,0.1z M96.2-6.3c-0.4,0-0.8,0.1-1,0.4c-0.3,0.3-0.4,0.7-0.4,1.2h2.9
								c0-0.5-0.1-0.9-0.4-1.2C97-6.2,96.7-6.3,96.2-6.3z"/>
						</g>
						<g class="st6">
							<path d="M108.1,0h-2.1v-4.5c0-0.6-0.1-1-0.3-1.2c-0.2-0.3-0.5-0.4-0.9-0.4c-0.6,0-1,0.2-1.3,0.6c-0.3,0.4-0.4,1-0.4,1.9V0
								h-2.1v-7.6h1.6l0.3,1h0.1c0.2-0.4,0.6-0.6,1-0.8c0.4-0.2,0.9-0.3,1.4-0.3c0.9,0,1.6,0.2,2,0.7c0.5,0.5,0.7,1.2,0.7,2.1V0z"/>
						</g>
					</g>
				</g>
			</g>
		</g>
		<g>
			<defs>
				<rect id="SVGID_15_" x="259" y="-228" width="132" height="66"/>
			</defs>
			<clipPath id="SVGID_16_">
				<use xlink:href="#SVGID_15_"  style="overflow:visible;"/>
			</clipPath>
			<g id="Grupo_7209" class="st11">
				<g id="Grupo_7208" transform="translate(270 -190)">
					<g id="Grupo-6">
						<g class="st6">
							<path d="M2.9,0L0-7.6h2.2l1.5,4.4C3.8-2.7,3.9-2.2,4-1.7h0c0-0.4,0.1-1,0.3-1.6l1.5-4.4H8L5.1,0H2.9z"/>
							<path d="M16-3.8c0,1.2-0.3,2.2-1,2.9s-1.6,1.1-2.7,1.1c-0.7,0-1.4-0.2-1.9-0.5c-0.6-0.3-1-0.8-1.3-1.4S8.6-3,8.6-3.8
								c0-1.2,0.3-2.2,1-2.9c0.7-0.7,1.6-1,2.7-1c0.7,0,1.4,0.2,1.9,0.5s1,0.8,1.3,1.4S16-4.6,16-3.8z M10.7-3.8
								c0,0.8,0.1,1.3,0.4,1.7s0.7,0.6,1.2,0.6c0.6,0,1-0.2,1.2-0.6c0.2-0.4,0.4-1,0.4-1.7c0-0.8-0.1-1.3-0.4-1.7s-0.7-0.6-1.2-0.6
								c-0.6,0-1,0.2-1.2,0.6C10.9-5.2,10.7-4.6,10.7-3.8z"/>
						</g>
						<g class="st6">
							<path d="M20.2,0h-2.1v-10.6h2.1V0z"/>
						</g>
						<g class="st6">
							<path d="M27.5,0l-0.3-1h-0.1c-0.2,0.4-0.5,0.6-1,0.8c-0.4,0.2-0.9,0.3-1.4,0.3c-0.9,0-1.6-0.2-2-0.7
								c-0.5-0.5-0.7-1.2-0.7-2.1v-5h2.1v4.5c0,0.6,0.1,1,0.3,1.2c0.2,0.3,0.5,0.4,0.9,0.4c0.6,0,1-0.2,1.3-0.6
								C26.9-2.5,27-3.1,27-4v-3.6h2.1V0H27.5z"/>
						</g>
						<g class="st6">
							<path d="M37.9,0h-2.1v-4.5c0-0.6-0.1-1-0.3-1.2c-0.2-0.3-0.5-0.4-0.9-0.4c-0.5,0-0.9,0.2-1.2,0.6c-0.2,0.4-0.4,1-0.4,1.9V0
								h-2.1v-7.6h1.6l0.3,1h0.1C33.3-7,33.6-7.3,34-7.5c0.4-0.2,0.8-0.3,1.3-0.3c1.1,0,1.9,0.4,2.3,1.1h0.2C38-7,38.3-7.3,38.7-7.5
								c0.4-0.2,0.8-0.3,1.4-0.3c0.9,0,1.5,0.2,2,0.7C42.5-6.7,42.7-6,42.7-5v5h-2.1v-4.5c0-0.6-0.1-1-0.3-1.2
								c-0.2-0.3-0.5-0.4-0.9-0.4c-0.5,0-0.9,0.2-1.1,0.5s-0.4,0.9-0.4,1.7V0z"/>
						</g>
						<g class="st6">
							<path d="M48.6,0.1c-1.2,0-2.2-0.3-2.9-1c-0.7-0.7-1-1.6-1-2.9c0-1.3,0.3-2.3,1-3c0.6-0.7,1.5-1,2.7-1c1.1,0,1.9,0.3,2.5,0.9
								s0.9,1.5,0.9,2.5v1h-4.9c0,0.6,0.2,1.1,0.5,1.4s0.8,0.5,1.4,0.5c0.5,0,0.9,0,1.3-0.1s0.8-0.2,1.3-0.5v1.6
								c-0.4,0.2-0.8,0.3-1.2,0.4C49.7,0.1,49.2,0.1,48.6,0.1z M48.3-6.3c-0.4,0-0.8,0.1-1,0.4c-0.3,0.3-0.4,0.7-0.4,1.2h2.9
								c0-0.5-0.1-0.9-0.4-1.2C49.1-6.2,48.7-6.3,48.3-6.3z"/>
						</g>
						<g class="st6">
							<path d="M60.2,0h-2.1v-4.5c0-0.6-0.1-1-0.3-1.2c-0.2-0.3-0.5-0.4-0.9-0.4c-0.6,0-1,0.2-1.3,0.6c-0.3,0.4-0.4,1-0.4,1.9V0
								h-2.1v-7.6h1.6l0.3,1h0.1c0.2-0.4,0.6-0.6,1-0.8c0.4-0.2,0.9-0.3,1.4-0.3c0.9,0,1.6,0.2,2,0.7c0.5,0.5,0.7,1.2,0.7,2.1V0z"/>
						</g>
						<g class="st6">
							<path d="M61.8-6.6c0-0.4,0.1-0.7,0.3-0.9s0.5-0.3,0.9-0.3c0.4,0,0.7,0.1,0.9,0.3c0.2,0.2,0.3,0.5,0.3,0.9
								c0,0.4-0.1,0.7-0.3,0.9c-0.2,0.2-0.5,0.3-0.9,0.3c-0.4,0-0.7-0.1-0.9-0.3C61.9-6,61.8-6.3,61.8-6.6z M61.8-1
								c0-0.4,0.1-0.7,0.3-0.9s0.5-0.3,0.9-0.3c0.4,0,0.7,0.1,0.9,0.3c0.2,0.2,0.3,0.5,0.3,0.9c0,0.4-0.1,0.6-0.3,0.9
								c-0.2,0.2-0.5,0.3-0.9,0.3c-0.4,0-0.7-0.1-0.9-0.3C61.9-0.3,61.8-0.6,61.8-1z"/>
						</g>
						<g class="st6">
							<path d="M72.2,0h-2.1v-10.6h2.1V0z"/>
						</g>
						<g class="st6">
							<path d="M74-9.6c0-0.7,0.4-1,1.1-1c0.8,0,1.1,0.3,1.1,1c0,0.3-0.1,0.6-0.3,0.8c-0.2,0.2-0.5,0.3-0.9,0.3
								C74.4-8.6,74-8.9,74-9.6z M76.2,0h-2.1v-7.6h2.1V0z"/>
						</g>
						<g class="st6">
							<path d="M81.3-1.5c0.4,0,0.8-0.1,1.3-0.2v1.6c-0.5,0.2-1.2,0.3-1.9,0.3c-0.8,0-1.4-0.2-1.8-0.6c-0.4-0.4-0.6-1.1-0.6-1.9
								v-3.7h-1V-7l1.1-0.7L79-9.3h1.3v1.6h2.1v1.6h-2.1v3.7c0,0.3,0.1,0.5,0.2,0.7S81-1.5,81.3-1.5z"/>
							<path d="M88.4-7.8c0.3,0,0.5,0,0.7,0.1l-0.2,2c-0.2,0-0.4-0.1-0.6-0.1c-0.7,0-1.2,0.2-1.6,0.5c-0.4,0.3-0.6,0.8-0.6,1.4V0
								h-2.1v-7.6h1.6l0.3,1.3h0.1c0.2-0.4,0.6-0.8,1-1C87.5-7.7,88-7.8,88.4-7.8z"/>
						</g>
						<g class="st6">
							<path d="M97-3.8c0,1.2-0.3,2.2-1,2.9s-1.6,1.1-2.7,1.1c-0.7,0-1.4-0.2-1.9-0.5c-0.6-0.3-1-0.8-1.3-1.4S89.6-3,89.6-3.8
								c0-1.2,0.3-2.2,1-2.9c0.7-0.7,1.6-1,2.7-1c0.7,0,1.4,0.2,1.9,0.5s1,0.8,1.3,1.4S97-4.6,97-3.8z M91.7-3.8
								c0,0.8,0.1,1.3,0.4,1.7c0.2,0.4,0.7,0.6,1.2,0.6c0.6,0,1-0.2,1.2-0.6c0.2-0.4,0.4-1,0.4-1.7c0-0.8-0.1-1.3-0.4-1.7
								s-0.6-0.6-1.2-0.6c-0.6,0-1,0.2-1.2,0.6C91.9-5.2,91.7-4.6,91.7-3.8z"/>
						</g>
						<g class="st6">
							<path d="M104.4-2.3c0,0.8-0.3,1.4-0.8,1.8s-1.4,0.6-2.4,0.6c-0.6,0-1,0-1.4-0.1c-0.4-0.1-0.8-0.2-1.1-0.3V-2
								c0.4,0.2,0.8,0.3,1.3,0.5s0.9,0.2,1.3,0.2c0.8,0,1.1-0.2,1.1-0.7c0-0.2,0-0.3-0.2-0.4c-0.1-0.1-0.3-0.2-0.5-0.3
								c-0.2-0.1-0.6-0.3-1-0.5c-0.6-0.2-1-0.5-1.3-0.7s-0.5-0.5-0.6-0.7c-0.1-0.3-0.2-0.6-0.2-1c0-0.7,0.3-1.2,0.8-1.6
								c0.5-0.4,1.3-0.6,2.2-0.6c0.9,0,1.8,0.2,2.7,0.6l-0.6,1.5c-0.4-0.2-0.7-0.3-1.1-0.4c-0.3-0.1-0.7-0.2-1-0.2
								c-0.6,0-0.9,0.2-0.9,0.5c0,0.2,0.1,0.3,0.3,0.5s0.6,0.3,1.3,0.6c0.6,0.2,1,0.5,1.3,0.7c0.3,0.2,0.5,0.5,0.6,0.7
								C104.3-3,104.4-2.6,104.4-2.3z"/>
							<path d="M108.1-1.5c-0.2,0.9-0.6,2-1.2,3.3h-1.5c0.3-1.2,0.5-2.4,0.7-3.4h1.9L108.1-1.5z"/>
						</g>
					</g>
				</g>
			</g>
		</g>
		<g>
			<defs>
				<rect id="SVGID_17_" x="259" y="-228" width="132" height="66"/>
			</defs>
			<clipPath id="SVGID_18_">
				<use xlink:href="#SVGID_17_"  style="overflow:visible;"/>
			</clipPath>
			<g id="Grupo_7211" class="st12">
				<g id="Grupo_7210" transform="translate(288 -169)">
					<g id="Grupo-7">
						<g class="st6">
							<path d="M4.3-1.5c0.4,0,0.8-0.1,1.3-0.2v1.6C5.1,0,4.5,0.1,3.7,0.1c-0.8,0-1.4-0.2-1.8-0.6C1.5-0.9,1.3-1.5,1.3-2.4v-3.7h-1
								V-7l1.1-0.7l0.6-1.6h1.3v1.6h2.1v1.6H3.4v3.7c0,0.3,0.1,0.5,0.3,0.7C3.8-1.6,4-1.5,4.3-1.5z"/>
							<path d="M12,0l-0.4-1h-0.1c-0.4,0.4-0.7,0.7-1.1,0.9C10,0.1,9.6,0.1,9,0.1c-0.7,0-1.3-0.2-1.7-0.6s-0.6-1-0.6-1.8
								c0-0.8,0.3-1.4,0.9-1.8C8-4.5,8.9-4.7,10-4.7l1.3,0v-0.3c0-0.8-0.4-1.2-1.2-1.2C9.5-6.3,8.8-6.1,8-5.7L7.3-7.1
								c0.9-0.5,1.9-0.7,2.9-0.7c1,0,1.8,0.2,2.4,0.7s0.8,1.1,0.8,2V0H12z M11.3-3.5l-0.8,0c-0.6,0-1.1,0.1-1.4,0.3
								C8.9-3,8.7-2.7,8.7-2.3c0,0.6,0.3,0.9,1,0.9c0.5,0,0.9-0.1,1.2-0.4s0.4-0.6,0.4-1.1V-3.5z"/>
						</g>
						<g class="st6">
							<path d="M20.4,0h-6v-1.2L17.9-6h-3.3v-1.6h5.7v1.4l-3.4,4.7h3.6V0z"/>
						</g>
						<g class="st6">
							<path d="M26.9,0l-0.4-1h-0.1c-0.4,0.4-0.7,0.7-1.1,0.9C25,0.1,24.5,0.1,24,0.1c-0.7,0-1.3-0.2-1.7-0.6
								c-0.4-0.4-0.6-1-0.6-1.8c0-0.8,0.3-1.4,0.9-1.8C23-4.5,23.9-4.7,25-4.7l1.3,0v-0.3c0-0.8-0.4-1.2-1.2-1.2
								c-0.6,0-1.3,0.2-2.2,0.6l-0.7-1.4c0.9-0.5,1.9-0.7,2.9-0.7c1,0,1.8,0.2,2.4,0.7s0.8,1.1,0.8,2V0H26.9z M26.3-3.5l-0.8,0
								c-0.6,0-1.1,0.1-1.4,0.3c-0.3,0.2-0.4,0.5-0.4,0.9c0,0.6,0.3,0.9,1,0.9c0.5,0,0.9-0.1,1.2-0.4c0.3-0.3,0.4-0.6,0.4-1.1V-3.5z
								"/>
						</g>
						<g class="st6">
							<path d="M35.4-2.3c0,0.8-0.3,1.4-0.8,1.8c-0.5,0.4-1.4,0.6-2.4,0.6c-0.6,0-1,0-1.4-0.1c-0.4-0.1-0.8-0.2-1.1-0.3V-2
								C30-1.8,30.5-1.7,31-1.6c0.5,0.1,0.9,0.2,1.3,0.2c0.8,0,1.1-0.2,1.1-0.7c0-0.2,0-0.3-0.2-0.4c-0.1-0.1-0.3-0.2-0.5-0.3
								c-0.2-0.1-0.6-0.3-1-0.5c-0.6-0.2-1-0.5-1.3-0.7c-0.3-0.2-0.5-0.5-0.6-0.7c-0.1-0.3-0.2-0.6-0.2-1c0-0.7,0.3-1.2,0.8-1.6
								c0.5-0.4,1.3-0.6,2.2-0.6c0.9,0,1.8,0.2,2.7,0.6l-0.6,1.5C34.3-5.8,34-6,33.6-6.1s-0.7-0.2-1-0.2c-0.6,0-0.9,0.2-0.9,0.5
								c0,0.2,0.1,0.3,0.3,0.5c0.2,0.1,0.6,0.3,1.3,0.6c0.6,0.2,1,0.5,1.3,0.7s0.5,0.5,0.6,0.7S35.4-2.6,35.4-2.3z"/>
							<path d="M39-1.5c-0.2,0.9-0.6,2-1.2,3.3h-1.5c0.3-1.2,0.5-2.4,0.7-3.4h1.9L39-1.5z"/>
						</g>
						<g class="st6">
							<path d="M48.5,0.1c-1.2,0-2.2-0.3-2.9-1c-0.7-0.7-1-1.6-1-2.9c0-1.3,0.3-2.3,1-3c0.6-0.7,1.5-1,2.7-1c1.1,0,1.9,0.3,2.5,0.9
								s0.9,1.5,0.9,2.5v1h-4.9c0,0.6,0.2,1.1,0.5,1.4s0.8,0.5,1.4,0.5c0.5,0,0.9,0,1.3-0.1s0.8-0.2,1.3-0.5v1.6
								c-0.4,0.2-0.8,0.3-1.2,0.4C49.6,0.1,49.1,0.1,48.5,0.1z M48.3-6.3c-0.4,0-0.8,0.1-1,0.4c-0.3,0.3-0.4,0.7-0.4,1.2h2.9
								c0-0.5-0.1-0.9-0.4-1.2C49-6.2,48.7-6.3,48.3-6.3z"/>
							<path d="M56.5-1.5c0.4,0,0.8-0.1,1.3-0.2v1.6c-0.5,0.2-1.2,0.3-1.9,0.3c-0.8,0-1.4-0.2-1.8-0.6c-0.4-0.4-0.6-1.1-0.6-1.9
								v-3.7h-1V-7l1.1-0.7l0.6-1.6h1.3v1.6h2.1v1.6h-2.1v3.7c0,0.3,0.1,0.5,0.3,0.7C56-1.6,56.2-1.5,56.5-1.5z"/>
							<path d="M62.4,0.1c-2.4,0-3.6-1.3-3.6-3.9c0-1.3,0.3-2.3,1-3c0.6-0.7,1.6-1,2.8-1c0.9,0,1.7,0.2,2.4,0.5l-0.6,1.6
								C64-5.8,63.7-5.9,63.4-6c-0.3-0.1-0.6-0.1-0.8-0.1c-1.1,0-1.6,0.8-1.6,2.3c0,1.5,0.5,2.2,1.6,2.2c0.4,0,0.8-0.1,1.1-0.2
								c0.3-0.1,0.7-0.3,1-0.5v1.8c-0.3,0.2-0.7,0.4-1,0.4C63.4,0.1,62.9,0.1,62.4,0.1z"/>
							<path d="M66.1-1c0-0.4,0.1-0.7,0.3-0.9s0.5-0.3,0.9-0.3c0.4,0,0.7,0.1,0.9,0.3c0.2,0.2,0.3,0.5,0.3,0.9
								c0,0.4-0.1,0.6-0.3,0.9c-0.2,0.2-0.5,0.3-0.9,0.3c-0.4,0-0.7-0.1-0.9-0.3C66.2-0.3,66.1-0.6,66.1-1z"/>
							<path d="M73.4-3.8c0,1.2-0.2,2.3-0.5,3.3c-0.4,1-0.9,1.9-1.5,2.7h-1.7c0.6-0.8,1.1-1.8,1.4-2.8c0.3-1,0.5-2.1,0.5-3.2
								c0-1.1-0.2-2.2-0.5-3.2s-0.8-2-1.5-2.9h1.7c0.7,0.8,1.2,1.7,1.5,2.8C73.3-6.2,73.4-5,73.4-3.8z"/>
						</g>
					</g>
				</g>
			</g>
		</g>
		<g>
			<defs>
				<rect id="SVGID_19_" x="392" y="-228" width="155" height="66"/>
			</defs>
			<clipPath id="SVGID_20_">
				<use xlink:href="#SVGID_19_"  style="overflow:visible;"/>
			</clipPath>
			<g id="Grupo_7213" class="st13">
				<g id="Grupo_7212" transform="translate(419 -201)">
					<g id="Grupo-8">
						<g class="st6">
							<path d="M5.5-8.4c-0.8,0-1.4,0.3-1.9,0.9C3.2-6.9,3-6,3-5c0,2.2,0.8,3.3,2.5,3.3c0.7,0,1.6-0.2,2.5-0.5v1.8
								C7.2,0,6.3,0.1,5.3,0.1C3.9,0.1,2.7-0.3,2-1.2C1.2-2.1,0.8-3.3,0.8-5c0-1,0.2-1.9,0.6-2.7C1.8-8.5,2.3-9.1,3-9.5
								c0.7-0.4,1.5-0.6,2.5-0.6c1,0,1.9,0.2,2.9,0.7L7.7-7.7C7.4-7.9,7-8,6.6-8.2S5.9-8.4,5.5-8.4z"/>
							<path d="M15,0l-0.4-1h-0.1c-0.4,0.4-0.7,0.7-1.1,0.9C13,0.1,12.6,0.1,12,0.1c-0.7,0-1.3-0.2-1.7-0.6c-0.4-0.4-0.6-1-0.6-1.8
								c0-0.8,0.3-1.4,0.9-1.8C11-4.5,11.9-4.7,13-4.7l1.3,0v-0.3c0-0.8-0.4-1.2-1.2-1.2c-0.6,0-1.3,0.2-2.2,0.6l-0.7-1.4
								c0.9-0.5,1.9-0.7,2.9-0.7c1,0,1.8,0.2,2.4,0.7s0.8,1.1,0.8,2V0H15z M14.3-3.5l-0.8,0c-0.6,0-1.1,0.1-1.4,0.3
								s-0.4,0.5-0.4,0.9c0,0.6,0.3,0.9,1,0.9c0.5,0,0.9-0.1,1.2-0.4c0.3-0.3,0.4-0.6,0.4-1.1V-3.5z"/>
						</g>
						<g class="st6">
							<path d="M22.4-7.8c0.3,0,0.5,0,0.7,0.1l-0.2,2c-0.2,0-0.4-0.1-0.6-0.1c-0.7,0-1.2,0.2-1.6,0.5c-0.4,0.3-0.6,0.8-0.6,1.4V0
								h-2.1v-7.6h1.6L20-6.4h0.1c0.2-0.4,0.6-0.8,1-1C21.4-7.7,21.9-7.8,22.4-7.8z"/>
						</g>
						<g class="st6">
							<path d="M28.9,0l-0.4-1h-0.1c-0.4,0.4-0.7,0.7-1.1,0.9C27,0.1,26.5,0.1,26,0.1c-0.7,0-1.3-0.2-1.7-0.6
								c-0.4-0.4-0.6-1-0.6-1.8c0-0.8,0.3-1.4,0.9-1.8C25-4.5,25.9-4.7,27-4.7l1.3,0v-0.3c0-0.8-0.4-1.2-1.2-1.2
								c-0.6,0-1.3,0.2-2.2,0.6l-0.7-1.4c0.9-0.5,1.9-0.7,2.9-0.7c1,0,1.8,0.2,2.4,0.7s0.8,1.1,0.8,2V0H28.9z M28.3-3.5l-0.8,0
								c-0.6,0-1.1,0.1-1.4,0.3c-0.3,0.2-0.4,0.5-0.4,0.9c0,0.6,0.3,0.9,1,0.9c0.5,0,0.9-0.1,1.2-0.4c0.3-0.3,0.4-0.6,0.4-1.1V-3.5z
								"/>
						</g>
						<g class="st6">
							<path d="M35.2,0.1c-2.4,0-3.6-1.3-3.6-3.9c0-1.3,0.3-2.3,1-3c0.6-0.7,1.6-1,2.8-1c0.9,0,1.7,0.2,2.4,0.5l-0.6,1.6
								c-0.3-0.1-0.6-0.2-0.9-0.3c-0.3-0.1-0.6-0.1-0.8-0.1c-1.1,0-1.6,0.8-1.6,2.3c0,1.5,0.5,2.2,1.6,2.2c0.4,0,0.8-0.1,1.1-0.2
								c0.3-0.1,0.7-0.3,1-0.5v1.8c-0.3,0.2-0.7,0.4-1,0.4C36.1,0.1,35.7,0.1,35.2,0.1z"/>
						</g>
						<g class="st6">
							<path d="M42.3-1.5c0.4,0,0.8-0.1,1.3-0.2v1.6c-0.5,0.2-1.2,0.3-1.9,0.3c-0.8,0-1.4-0.2-1.8-0.6c-0.4-0.4-0.6-1.1-0.6-1.9
								v-3.7h-1V-7l1.1-0.7l0.6-1.6h1.3v1.6h2.1v1.6h-2.1v3.7c0,0.3,0.1,0.5,0.2,0.7C41.8-1.6,42-1.5,42.3-1.5z"/>
							<path d="M48.7,0.1c-1.2,0-2.2-0.3-2.9-1c-0.7-0.7-1-1.6-1-2.9c0-1.3,0.3-2.3,1-3c0.6-0.7,1.5-1,2.7-1c1.1,0,1.9,0.3,2.5,0.9
								s0.9,1.5,0.9,2.5v1h-4.9c0,0.6,0.2,1.1,0.5,1.4s0.8,0.5,1.4,0.5c0.5,0,0.9,0,1.3-0.1s0.8-0.2,1.3-0.5v1.6
								C51-0.2,50.6-0.1,50.2,0C49.8,0.1,49.3,0.1,48.7,0.1z M48.4-6.3c-0.4,0-0.8,0.1-1,0.4c-0.3,0.3-0.4,0.7-0.4,1.2h2.9
								c0-0.5-0.1-0.9-0.4-1.2C49.2-6.2,48.9-6.3,48.4-6.3z"/>
						</g>
						<g class="st6">
							<path d="M57.3-7.8c0.3,0,0.5,0,0.7,0.1l-0.2,2c-0.2,0-0.4-0.1-0.6-0.1c-0.7,0-1.2,0.2-1.6,0.5c-0.4,0.3-0.6,0.8-0.6,1.4V0
								h-2.1v-7.6h1.6L55-6.4h0.1c0.2-0.4,0.6-0.8,1-1C56.4-7.7,56.9-7.8,57.3-7.8z"/>
						</g>
						<g class="st6">
							<path d="M59-8.5v-0.2c0.8-0.9,1.3-1.6,1.6-2.1h2.3v0.1c-0.2,0.2-0.6,0.6-1.2,1.1c-0.6,0.5-1,0.8-1.3,1H59z M61.2,0h-2.1v-7.6
								h2.1V0z"/>
						</g>
						<g class="st6">
							<path d="M68.4-2.3c0,0.8-0.3,1.4-0.8,1.8c-0.5,0.4-1.4,0.6-2.4,0.6c-0.6,0-1,0-1.4-0.1c-0.4-0.1-0.8-0.2-1.1-0.3V-2
								c0.4,0.2,0.8,0.3,1.3,0.5s0.9,0.2,1.3,0.2c0.8,0,1.1-0.2,1.1-0.7c0-0.2-0.1-0.3-0.2-0.4c-0.1-0.1-0.3-0.2-0.5-0.3
								c-0.2-0.1-0.6-0.3-1-0.5c-0.6-0.2-1-0.5-1.3-0.7c-0.3-0.2-0.5-0.5-0.6-0.7c-0.1-0.3-0.2-0.6-0.2-1c0-0.7,0.3-1.2,0.8-1.6
								c0.5-0.4,1.3-0.6,2.2-0.6c0.9,0,1.8,0.2,2.7,0.6l-0.6,1.5C67.3-5.8,67-6,66.6-6.1c-0.3-0.1-0.7-0.2-1-0.2
								c-0.6,0-0.9,0.2-0.9,0.5c0,0.2,0.1,0.3,0.3,0.5s0.6,0.3,1.3,0.6c0.6,0.2,1,0.5,1.3,0.7c0.3,0.2,0.5,0.5,0.6,0.7
								C68.4-3,68.4-2.6,68.4-2.3z"/>
							<path d="M73.3-1.5c0.4,0,0.8-0.1,1.3-0.2v1.6c-0.5,0.2-1.2,0.3-1.9,0.3c-0.8,0-1.4-0.2-1.8-0.6c-0.4-0.4-0.6-1.1-0.6-1.9
								v-3.7h-1V-7l1.1-0.7l0.6-1.6h1.3v1.6h2.1v1.6h-2.1v3.7c0,0.3,0.1,0.5,0.2,0.7C72.9-1.6,73.1-1.5,73.3-1.5z"/>
							<path d="M76.2-9.6c0-0.7,0.4-1,1.1-1c0.8,0,1.1,0.3,1.1,1c0,0.3-0.1,0.6-0.3,0.8c-0.2,0.2-0.5,0.3-0.9,0.3
								C76.6-8.6,76.2-8.9,76.2-9.6z M78.4,0h-2.1v-7.6h2.1V0z"/>
						</g>
						<g class="st6">
							<path d="M83.2,0.1c-2.4,0-3.6-1.3-3.6-3.9c0-1.3,0.3-2.3,1-3c0.6-0.7,1.6-1,2.8-1c0.9,0,1.7,0.2,2.4,0.5l-0.6,1.6
								c-0.3-0.1-0.6-0.2-0.9-0.3c-0.3-0.1-0.6-0.1-0.8-0.1c-1.1,0-1.6,0.8-1.6,2.3c0,1.5,0.5,2.2,1.6,2.2c0.4,0,0.8-0.1,1.1-0.2
								c0.3-0.1,0.7-0.3,1-0.5v1.8c-0.3,0.2-0.7,0.4-1,0.4C84.2,0.1,83.7,0.1,83.2,0.1z"/>
						</g>
						<g class="st6">
							<path d="M91.9,0l-0.4-1h-0.1c-0.4,0.4-0.7,0.7-1.1,0.9C90,0.1,89.5,0.1,89,0.1c-0.7,0-1.3-0.2-1.7-0.6
								c-0.4-0.4-0.6-1-0.6-1.8c0-0.8,0.3-1.4,0.9-1.8C88-4.5,88.9-4.7,90-4.7l1.3,0v-0.3c0-0.8-0.4-1.2-1.2-1.2
								c-0.6,0-1.3,0.2-2.2,0.6l-0.7-1.4c0.9-0.5,1.9-0.7,2.9-0.7c1,0,1.8,0.2,2.4,0.7s0.8,1.1,0.8,2V0H91.9z M91.3-3.5l-0.8,0
								c-0.6,0-1.1,0.1-1.4,0.3c-0.3,0.2-0.4,0.5-0.4,0.9c0,0.6,0.3,0.9,1,0.9c0.5,0,0.9-0.1,1.2-0.4c0.3-0.3,0.4-0.6,0.4-1.1V-3.5z
								"/>
						</g>
						<g class="st6">
							<path d="M100.4-2.3c0,0.8-0.3,1.4-0.8,1.8c-0.5,0.4-1.4,0.6-2.4,0.6c-0.6,0-1,0-1.4-0.1c-0.4-0.1-0.8-0.2-1.1-0.3V-2
								c0.4,0.2,0.8,0.3,1.3,0.5s0.9,0.2,1.3,0.2c0.8,0,1.1-0.2,1.1-0.7c0-0.2-0.1-0.3-0.2-0.4c-0.1-0.1-0.3-0.2-0.5-0.3
								c-0.2-0.1-0.6-0.3-1-0.5c-0.6-0.2-1-0.5-1.3-0.7c-0.3-0.2-0.5-0.5-0.6-0.7c-0.1-0.3-0.2-0.6-0.2-1c0-0.7,0.3-1.2,0.8-1.6
								c0.5-0.4,1.3-0.6,2.2-0.6c0.9,0,1.8,0.2,2.7,0.6l-0.6,1.5C99.3-5.8,99-6,98.6-6.1c-0.3-0.1-0.7-0.2-1-0.2
								c-0.6,0-0.9,0.2-0.9,0.5c0,0.2,0.1,0.3,0.3,0.5s0.6,0.3,1.3,0.6c0.6,0.2,1,0.5,1.3,0.7c0.3,0.2,0.5,0.5,0.6,0.7
								C100.3-3,100.4-2.6,100.4-2.3z"/>
						</g>
					</g>
				</g>
			</g>
		</g>
		<g>
			<defs>
				<rect id="SVGID_21_" x="392" y="-228" width="155" height="66"/>
			</defs>
			<clipPath id="SVGID_22_">
				<use xlink:href="#SVGID_21_"  style="overflow:visible;"/>
			</clipPath>
			<g id="Grupo_7215" class="st14">
				<g id="Grupo_7214" transform="translate(434 -180)">
					<g id="Grupo-9">
						<g class="st6">
							<path d="M7.7-7.6v1.1L6.5-6.3c0.2,0.3,0.3,0.7,0.3,1.1c0,0.8-0.3,1.5-0.9,1.9C5.4-2.8,4.7-2.5,3.6-2.5l-0.4,0L3-2.6
								C2.7-2.4,2.6-2.2,2.6-2c0,0.3,0.4,0.5,1.1,0.5h1.3C5.9-1.6,6.6-1.4,7-1c0.4,0.4,0.7,0.9,0.7,1.6c0,0.9-0.4,1.6-1.1,2.1
								C5.8,3.1,4.7,3.4,3.3,3.4c-1.1,0-1.9-0.2-2.4-0.6C0.3,2.4,0,1.9,0,1.2c0-0.5,0.1-0.8,0.4-1.2s0.7-0.5,1.3-0.7
								C1.5-0.7,1.3-0.8,1.2-1C1-1.2,0.9-1.4,0.9-1.7C0.9-2,1-2.2,1.2-2.4C1.4-2.6,1.6-2.8,1.9-3C1.5-3.2,1.2-3.4,1-3.8
								C0.7-4.2,0.6-4.6,0.6-5.2c0-0.8,0.3-1.5,0.8-1.9s1.3-0.7,2.3-0.7c0.2,0,0.5,0,0.8,0.1c0.3,0,0.5,0.1,0.6,0.1H7.7z M1.8,1.1
								c0,0.3,0.1,0.5,0.4,0.7C2.5,1.9,2.9,2,3.4,2c0.7,0,1.3-0.1,1.8-0.3s0.6-0.5,0.6-0.8c0-0.3-0.1-0.5-0.4-0.6S4.8,0.1,4.3,0.1
								H3.2c-0.4,0-0.7,0.1-1,0.3C2,0.5,1.8,0.8,1.8,1.1z M2.6-5.1c0,0.4,0.1,0.7,0.3,1c0.2,0.2,0.5,0.4,0.9,0.4
								c0.4,0,0.7-0.1,0.9-0.4s0.3-0.6,0.3-1c0-0.9-0.4-1.4-1.1-1.4C3-6.5,2.6-6.1,2.6-5.1z"/>
							<path d="M14.5,0l-0.3-1h-0.1c-0.2,0.4-0.5,0.6-1,0.8c-0.4,0.2-0.9,0.3-1.4,0.3c-0.9,0-1.6-0.2-2-0.7C9.3-1.1,9-1.8,9-2.7v-5
								h2.1v4.5c0,0.6,0.1,1,0.3,1.2c0.2,0.3,0.5,0.4,0.9,0.4c0.6,0,1-0.2,1.3-0.6C13.9-2.5,14-3.1,14-4v-3.6h2.1V0H14.5z"/>
						</g>
						<g class="st6">
							<path d="M23.4-2.3c0,0.8-0.3,1.4-0.8,1.8c-0.5,0.4-1.4,0.6-2.4,0.6c-0.6,0-1,0-1.4-0.1c-0.4-0.1-0.8-0.2-1.1-0.3V-2
								c0.4,0.2,0.8,0.3,1.3,0.5s0.9,0.2,1.3,0.2c0.8,0,1.1-0.2,1.1-0.7c0-0.2-0.1-0.3-0.2-0.4c-0.1-0.1-0.3-0.2-0.5-0.3
								c-0.2-0.1-0.6-0.3-1-0.5c-0.6-0.2-1-0.5-1.3-0.7c-0.3-0.2-0.5-0.5-0.6-0.7c-0.1-0.3-0.2-0.6-0.2-1c0-0.7,0.3-1.2,0.8-1.6
								c0.5-0.4,1.3-0.6,2.2-0.6c0.9,0,1.8,0.2,2.7,0.6l-0.6,1.5C22.3-5.8,22-6,21.6-6.1c-0.3-0.1-0.7-0.2-1-0.2
								c-0.6,0-0.9,0.2-0.9,0.5c0,0.2,0.1,0.3,0.3,0.5s0.6,0.3,1.3,0.6c0.6,0.2,1,0.5,1.3,0.7c0.3,0.2,0.5,0.5,0.6,0.7
								C23.4-3,23.4-2.6,23.4-2.3z"/>
							<path d="M28.3-1.5c0.4,0,0.8-0.1,1.3-0.2v1.6c-0.5,0.2-1.2,0.3-1.9,0.3c-0.8,0-1.4-0.2-1.8-0.6c-0.4-0.4-0.6-1.1-0.6-1.9
								v-3.7h-1V-7l1.1-0.7l0.6-1.6h1.3v1.6h2.1v1.6h-2.1v3.7c0,0.3,0.1,0.5,0.2,0.7C27.9-1.6,28.1-1.5,28.3-1.5z"/>
							<path d="M36.1,0l-0.4-1h-0.1c-0.4,0.4-0.7,0.7-1.1,0.9c-0.4,0.2-0.9,0.3-1.5,0.3c-0.7,0-1.3-0.2-1.7-0.6
								c-0.4-0.4-0.6-1-0.6-1.8c0-0.8,0.3-1.4,0.9-1.8c0.6-0.4,1.4-0.6,2.6-0.6l1.3,0v-0.3c0-0.8-0.4-1.2-1.2-1.2
								c-0.6,0-1.3,0.2-2.2,0.6l-0.7-1.4c0.9-0.5,1.9-0.7,2.9-0.7c1,0,1.8,0.2,2.4,0.7s0.8,1.1,0.8,2V0H36.1z M35.5-3.5l-0.8,0
								c-0.6,0-1.1,0.1-1.4,0.3c-0.3,0.2-0.4,0.5-0.4,0.9c0,0.6,0.3,0.9,1,0.9c0.5,0,0.9-0.1,1.2-0.4c0.3-0.3,0.4-0.6,0.4-1.1V-3.5z
								"/>
						</g>
						<g class="st6">
							<path d="M42.3-1.5c0.4,0,0.8-0.1,1.3-0.2v1.6c-0.5,0.2-1.2,0.3-1.9,0.3c-0.8,0-1.4-0.2-1.8-0.6c-0.4-0.4-0.6-1.1-0.6-1.9
								v-3.7h-1V-7l1.1-0.7l0.6-1.6h1.3v1.6h2.1v1.6h-2.1v3.7c0,0.3,0.1,0.5,0.2,0.7C41.8-1.6,42-1.5,42.3-1.5z"/>
							<path d="M45.2-9.6c0-0.7,0.4-1,1.1-1c0.8,0,1.1,0.3,1.1,1c0,0.3-0.1,0.6-0.3,0.8c-0.2,0.2-0.5,0.3-0.9,0.3
								C45.5-8.6,45.2-8.9,45.2-9.6z M47.3,0h-2.1v-7.6h2.1V0z"/>
						</g>
						<g class="st6">
							<path d="M50.9,0L48-7.6h2.2l1.5,4.4c0.2,0.6,0.3,1.1,0.3,1.6h0c0-0.4,0.1-1,0.3-1.6l1.5-4.4H56L53,0H50.9z"/>
							<path d="M62,0l-0.4-1h-0.1c-0.4,0.4-0.7,0.7-1.1,0.9c-0.4,0.2-0.9,0.3-1.5,0.3c-0.7,0-1.3-0.2-1.7-0.6
								c-0.4-0.4-0.6-1-0.6-1.8c0-0.8,0.3-1.4,0.9-1.8C58-4.5,58.9-4.7,60-4.7l1.3,0v-0.3c0-0.8-0.4-1.2-1.2-1.2
								c-0.6,0-1.3,0.2-2.2,0.6l-0.7-1.4c0.9-0.5,1.9-0.7,2.9-0.7c1,0,1.8,0.2,2.4,0.7s0.8,1.1,0.8,2V0H62z M61.4-3.5l-0.8,0
								c-0.6,0-1.1,0.1-1.4,0.3c-0.3,0.2-0.4,0.5-0.4,0.9c0,0.6,0.3,0.9,1,0.9c0.5,0,0.9-0.1,1.2-0.4c0.3-0.3,0.4-0.6,0.4-1.1V-3.5z
								"/>
						</g>
						<g class="st6">
							<path d="M70.4-2.3c0,0.8-0.3,1.4-0.8,1.8c-0.5,0.4-1.4,0.6-2.4,0.6c-0.6,0-1,0-1.4-0.1c-0.4-0.1-0.8-0.2-1.1-0.3V-2
								c0.4,0.2,0.8,0.3,1.3,0.5s0.9,0.2,1.3,0.2c0.8,0,1.1-0.2,1.1-0.7c0-0.2-0.1-0.3-0.2-0.4c-0.1-0.1-0.3-0.2-0.5-0.3
								c-0.2-0.1-0.6-0.3-1-0.5c-0.6-0.2-1-0.5-1.3-0.7c-0.3-0.2-0.5-0.5-0.6-0.7c-0.1-0.3-0.2-0.6-0.2-1c0-0.7,0.3-1.2,0.8-1.6
								c0.5-0.4,1.3-0.6,2.2-0.6c0.9,0,1.8,0.2,2.7,0.6l-0.6,1.5C69.3-5.8,69-6,68.6-6.1c-0.3-0.1-0.7-0.2-1-0.2
								c-0.6,0-0.9,0.2-0.9,0.5c0,0.2,0.1,0.3,0.3,0.5s0.6,0.3,1.3,0.6c0.6,0.2,1,0.5,1.3,0.7c0.3,0.2,0.5,0.5,0.6,0.7
								C70.3-3,70.4-2.6,70.4-2.3z"/>
						</g>
					</g>
				</g>
			</g>
		</g>
		<g>
			<defs>
				<rect id="SVGID_23_" x="1" y="-161" width="547" height="22"/>
			</defs>
			<clipPath id="SVGID_24_">
				<use xlink:href="#SVGID_23_"  style="overflow:visible;"/>
			</clipPath>
			<g id="Grupo_7217" class="st15">
				<g id="Grupo_7216" transform="translate(29 -145)">
					<g id="Grupo-10">
						<g class="st6">
							<path d="M0.8-4.3c0-2,0.4-3.4,1.1-4.4c0.8-1,1.9-1.5,3.4-1.5c0.5,0,0.9,0,1.2,0.1v1C6.2-9.1,5.8-9.2,5.3-9.2
								c-1.1,0-1.9,0.3-2.5,1C2.3-7.5,2-6.5,2-5.1H2c0.5-0.8,1.3-1.2,2.4-1.2C5.3-6.2,6-6,6.5-5.4s0.8,1.3,0.8,2.2
								c0,1-0.3,1.9-0.9,2.5C5.9-0.2,5.1,0.1,4.2,0.1c-1,0-1.9-0.4-2.5-1.2C1.1-1.8,0.8-2.9,0.8-4.3z M4.2-0.8
								c0.6,0,1.1-0.2,1.5-0.6c0.4-0.4,0.5-1,0.5-1.8c0-0.7-0.2-1.2-0.5-1.6S4.9-5.3,4.2-5.3c-0.4,0-0.8,0.1-1.1,0.3
								S2.5-4.7,2.3-4.4S2-3.8,2-3.5C2-3,2.1-2.6,2.2-2.1s0.4,0.7,0.8,1S3.7-0.8,4.2-0.8z"/>
							<path d="M8.6-3.2v-1h3.4v1H8.6z"/>
						</g>
						<g class="st6">
							<path d="M13.6-3.2v-1h3.4v1H13.6z"/>
						</g>
						<g class="st6">
							<path d="M22.9,0h-1.1v-7.1c0-0.6,0-1.2,0.1-1.7c-0.1,0.1-0.2,0.2-0.3,0.3S20.9-8,19.9-7.2L19.3-8l2.6-2h1V0z"/>
						</g>
					</g>
				</g>
			</g>
		</g>
		<g>
			<defs>
				<rect id="SVGID_25_" x="1" y="-161" width="547" height="22"/>
			</defs>
			<clipPath id="SVGID_26_">
				<use xlink:href="#SVGID_25_"  style="overflow:visible;"/>
			</clipPath>
			<g id="Grupo_7219" class="st16">
				<g id="Grupo_7218" transform="translate(167 -145)">
					<g class="st6">
						<path d="M0.8-4.3c0-2,0.4-3.4,1.1-4.4c0.8-1,1.9-1.5,3.4-1.5c0.5,0,0.9,0,1.2,0.1v1C6.2-9.1,5.8-9.2,5.3-9.2
							c-1.1,0-1.9,0.3-2.5,1C2.3-7.5,2-6.5,2-5.1H2c0.5-0.8,1.3-1.2,2.4-1.2C5.3-6.2,6-6,6.5-5.4s0.8,1.3,0.8,2.2
							c0,1-0.3,1.9-0.9,2.5C5.9-0.2,5.1,0.1,4.2,0.1c-1,0-1.9-0.4-2.5-1.2C1.1-1.8,0.8-2.9,0.8-4.3z M4.2-0.8c0.6,0,1.1-0.2,1.5-0.6
							c0.4-0.4,0.5-1,0.5-1.8c0-0.7-0.2-1.2-0.5-1.6S4.9-5.3,4.2-5.3c-0.4,0-0.8,0.1-1.1,0.3S2.5-4.7,2.3-4.4S2-3.8,2-3.5
							C2-3,2.1-2.6,2.2-2.1s0.4,0.7,0.8,1S3.7-0.8,4.2-0.8z"/>
					</g>
				</g>
			</g>
		</g>
		<g>
			<defs>
				<rect id="SVGID_27_" x="1" y="-161" width="547" height="22"/>
			</defs>
			<clipPath id="SVGID_28_">
				<use xlink:href="#SVGID_27_"  style="overflow:visible;"/>
			</clipPath>
			<g id="Grupo_7221" class="st17">
				<g id="Grupo_7220" transform="translate(321 -145)">
					<g class="st6">
						<path d="M4.9,0H3.8v-7.1c0-0.6,0-1.2,0.1-1.7C3.7-8.7,3.6-8.6,3.5-8.5S2.9-8,1.9-7.2L1.3-8l2.6-2h1V0z"/>
					</g>
				</g>
			</g>
		</g>
		<g>
			<defs>
				<rect id="SVGID_29_" x="1" y="-161" width="547" height="22"/>
			</defs>
			<clipPath id="SVGID_30_">
				<use xlink:href="#SVGID_29_"  style="overflow:visible;"/>
			</clipPath>
			<g id="Grupo_7223" class="st18">
				<g id="Grupo_7222" transform="translate(432 -145)">
					<g id="Grupo-11">
						<g class="st6">
							<path d="M5.8,0L2.4-8.9H2.4c0.1,0.7,0.1,1.5,0.1,2.5V0H1.4v-10h1.8l3.2,8.2h0.1L9.5-10h1.7V0h-1.2v-6.4c0-0.7,0-1.5,0.1-2.4
								h-0.1L6.7,0H5.8z"/>
							<path d="M15.3-7.5v4.9c0,0.6,0.1,1.1,0.4,1.4C16-1,16.4-0.8,17-0.8c0.8,0,1.4-0.2,1.7-0.6s0.5-1.1,0.5-2.1v-3.9h1.1V0h-0.9
								l-0.2-1h-0.1c-0.2,0.4-0.6,0.7-1,0.8s-0.9,0.3-1.4,0.3c-0.9,0-1.6-0.2-2-0.6s-0.7-1.1-0.7-2.1v-4.9H15.3z"/>
							<path d="M22-7.5h1.2l1.6,4.3c0.4,1,0.6,1.7,0.7,2.1h0.1c0.1-0.2,0.2-0.6,0.4-1.2c0.2-0.6,0.8-2.3,1.9-5.2H29L25.8,1
								c-0.3,0.8-0.7,1.4-1.1,1.8c-0.4,0.4-0.9,0.5-1.6,0.5c-0.3,0-0.7,0-1-0.1V2.3c0.3,0.1,0.5,0.1,0.8,0.1c0.8,0,1.3-0.4,1.7-1.3
								L25,0L22-7.5z"/>
						</g>
						<g class="st6">
							<path d="M37.6-6.6h-1.9V0h-1.1v-6.6h-1.3v-0.5l1.3-0.4V-8c0-1.8,0.8-2.8,2.4-2.8c0.4,0,0.9,0.1,1.4,0.2L38-9.6
								c-0.4-0.1-0.8-0.2-1.1-0.2c-0.4,0-0.7,0.1-1,0.4c-0.2,0.3-0.3,0.7-0.3,1.4v0.5h1.9V-6.6z"/>
							<path d="M40.4-7.5v4.9c0,0.6,0.1,1.1,0.4,1.4c0.3,0.3,0.7,0.5,1.3,0.5c0.8,0,1.4-0.2,1.7-0.6s0.5-1.1,0.5-2.1v-3.9h1.1V0
								h-0.9l-0.2-1h-0.1c-0.2,0.4-0.6,0.7-1,0.8c-0.4,0.2-0.9,0.3-1.4,0.3c-0.9,0-1.6-0.2-2-0.6c-0.5-0.4-0.7-1.1-0.7-2.1v-4.9
								H40.4z"/>
							<path d="M51.4,0.1c-1.1,0-2-0.3-2.6-1c-0.6-0.7-1-1.6-1-2.8c0-1.2,0.3-2.2,0.9-2.9s1.4-1.1,2.4-1.1c0.9,0,1.7,0.3,2.2,0.9
								c0.5,0.6,0.8,1.4,0.8,2.4v0.7H49c0,0.9,0.2,1.5,0.7,2c0.4,0.5,1,0.7,1.8,0.7c0.8,0,1.6-0.2,2.4-0.5v1
								c-0.4,0.2-0.8,0.3-1.1,0.4C52.4,0.1,51.9,0.1,51.4,0.1z M51.1-6.7c-0.6,0-1.1,0.2-1.4,0.6c-0.4,0.4-0.6,0.9-0.6,1.6H53
								c0-0.7-0.2-1.3-0.5-1.6C52.2-6.5,51.7-6.7,51.1-6.7z"/>
						</g>
						<g class="st6">
							<path d="M59.6-7.6c0.3,0,0.6,0,0.9,0.1l-0.2,1.1c-0.3-0.1-0.6-0.1-0.8-0.1c-0.6,0-1.1,0.2-1.6,0.7S57.3-4.8,57.3-4v4h-1.1
								v-7.5h0.9l0.1,1.4h0.1c0.3-0.5,0.6-0.9,1-1.1C58.7-7.5,59.1-7.6,59.6-7.6z"/>
							<path d="M64.7-0.8c0.2,0,0.4,0,0.6,0c0.2,0,0.3-0.1,0.4-0.1v0.9C65.6,0,65.4,0,65.2,0.1c-0.2,0-0.5,0.1-0.6,0.1
								c-1.4,0-2.2-0.8-2.2-2.3v-4.5h-1.1v-0.5l1.1-0.5l0.5-1.6h0.7v1.7h2.2v0.9h-2.2v4.4c0,0.5,0.1,0.8,0.3,1S64.3-0.8,64.7-0.8z"
								/>
						</g>
						<g class="st6">
							<path d="M70.3,0.1c-1.1,0-2-0.3-2.6-1c-0.6-0.7-1-1.6-1-2.8c0-1.2,0.3-2.2,0.9-2.9S69-7.6,70-7.6c0.9,0,1.7,0.3,2.2,0.9
								c0.5,0.6,0.8,1.4,0.8,2.4v0.7h-5.2c0,0.9,0.2,1.5,0.7,2c0.4,0.5,1,0.7,1.8,0.7c0.8,0,1.6-0.2,2.4-0.5v1
								C72.4-0.2,72-0.1,71.6,0C71.3,0.1,70.8,0.1,70.3,0.1z M70-6.7c-0.6,0-1.1,0.2-1.4,0.6C68.2-5.7,68-5.2,68-4.5h3.9
								c0-0.7-0.2-1.3-0.5-1.6C71.1-6.5,70.6-6.7,70-6.7z"/>
						</g>
					</g>
				</g>
			</g>
		</g>
		<g>
			<defs>
				<rect id="SVGID_31_" x="1" y="-138" width="547" height="22"/>
			</defs>
			<clipPath id="SVGID_32_">
				<use xlink:href="#SVGID_31_"  style="overflow:visible;"/>
			</clipPath>
			<g id="Grupo_7225" class="st19">
				<g id="Grupo_7224" transform="translate(29 -122)">
					<g id="Grupo-12">
						<g class="st6">
							<path d="M3.8-6.1c1.1,0,1.9,0.3,2.5,0.8c0.6,0.5,0.9,1.2,0.9,2.1c0,1-0.3,1.8-1,2.4S4.6,0.1,3.5,0.1c-1.1,0-2-0.2-2.6-0.5
								v-1.1C1.2-1.3,1.6-1.1,2.1-1C2.6-0.9,3-0.8,3.5-0.8c0.8,0,1.4-0.2,1.9-0.6S6-2.3,6-3c0-1.4-0.9-2.1-2.6-2.1
								c-0.4,0-1,0.1-1.7,0.2L1.1-5.3L1.5-10h5v1h-4l-0.3,3C2.8-6.1,3.3-6.1,3.8-6.1z"/>
							<path d="M8.6-3.2v-1h3.4v1H8.6z"/>
						</g>
						<g class="st6">
							<path d="M13.6-3.2v-1h3.4v1H13.6z"/>
						</g>
						<g class="st6">
							<path d="M22.9,0h-1.1v-7.1c0-0.6,0-1.2,0.1-1.7c-0.1,0.1-0.2,0.2-0.3,0.3S20.9-8,19.9-7.2L19.3-8l2.6-2h1V0z"/>
						</g>
					</g>
				</g>
			</g>
		</g>
		<g>
			<defs>
				<rect id="SVGID_33_" x="1" y="-138" width="547" height="22"/>
			</defs>
			<clipPath id="SVGID_34_">
				<use xlink:href="#SVGID_33_"  style="overflow:visible;"/>
			</clipPath>
			<g id="Grupo_7227" class="st20">
				<g id="Grupo_7226" transform="translate(167 -122)">
					<g class="st6">
						<path d="M3.8-6.1c1.1,0,1.9,0.3,2.5,0.8c0.6,0.5,0.9,1.2,0.9,2.1c0,1-0.3,1.8-1,2.4S4.6,0.1,3.5,0.1c-1.1,0-2-0.2-2.6-0.5
							v-1.1C1.2-1.3,1.6-1.1,2.1-1C2.6-0.9,3-0.8,3.5-0.8c0.8,0,1.4-0.2,1.9-0.6S6-2.3,6-3c0-1.4-0.9-2.1-2.6-2.1
							c-0.4,0-1,0.1-1.7,0.2L1.1-5.3L1.5-10h5v1h-4l-0.3,3C2.8-6.1,3.3-6.1,3.8-6.1z"/>
					</g>
				</g>
			</g>
		</g>
		<g>
			<defs>
				<rect id="SVGID_35_" x="1" y="-138" width="547" height="22"/>
			</defs>
			<clipPath id="SVGID_36_">
				<use xlink:href="#SVGID_35_"  style="overflow:visible;"/>
			</clipPath>
			<g id="Grupo_7229" class="st21">
				<g id="Grupo_7228" transform="translate(321 -122)">
					<g class="st6">
						<path d="M4.9,0H3.8v-7.1c0-0.6,0-1.2,0.1-1.7C3.7-8.7,3.6-8.6,3.5-8.5S2.9-8,1.9-7.2L1.3-8l2.6-2h1V0z"/>
					</g>
				</g>
			</g>
		</g>
		<g>
			<defs>
				<rect id="SVGID_37_" x="1" y="-138" width="547" height="22"/>
			</defs>
			<clipPath id="SVGID_38_">
				<use xlink:href="#SVGID_37_"  style="overflow:visible;"/>
			</clipPath>
			<g id="Grupo_7231" class="st22">
				<g id="Grupo_7230" transform="translate(432 -122)">
					<g id="Grupo-13">
						<g class="st6">
							<path d="M5.8,0L2.4-8.9H2.4c0.1,0.7,0.1,1.5,0.1,2.5V0H1.4v-10h1.8l3.2,8.2h0.1L9.5-10h1.7V0h-1.2v-6.4c0-0.7,0-1.5,0.1-2.4
								h-0.1L6.7,0H5.8z"/>
							<path d="M15.3-7.5v4.9c0,0.6,0.1,1.1,0.4,1.4C16-1,16.4-0.8,17-0.8c0.8,0,1.4-0.2,1.7-0.6s0.5-1.1,0.5-2.1v-3.9h1.1V0h-0.9
								l-0.2-1h-0.1c-0.2,0.4-0.6,0.7-1,0.8s-0.9,0.3-1.4,0.3c-0.9,0-1.6-0.2-2-0.6s-0.7-1.1-0.7-2.1v-4.9H15.3z"/>
							<path d="M22-7.5h1.2l1.6,4.3c0.4,1,0.6,1.7,0.7,2.1h0.1c0.1-0.2,0.2-0.6,0.4-1.2c0.2-0.6,0.8-2.3,1.9-5.2H29L25.8,1
								c-0.3,0.8-0.7,1.4-1.1,1.8c-0.4,0.4-0.9,0.5-1.6,0.5c-0.3,0-0.7,0-1-0.1V2.3c0.3,0.1,0.5,0.1,0.8,0.1c0.8,0,1.3-0.4,1.7-1.3
								L25,0L22-7.5z"/>
						</g>
						<g class="st6">
							<path d="M37.6-6.6h-1.9V0h-1.1v-6.6h-1.3v-0.5l1.3-0.4V-8c0-1.8,0.8-2.8,2.4-2.8c0.4,0,0.9,0.1,1.4,0.2L38-9.6
								c-0.4-0.1-0.8-0.2-1.1-0.2c-0.4,0-0.7,0.1-1,0.4c-0.2,0.3-0.3,0.7-0.3,1.4v0.5h1.9V-6.6z"/>
							<path d="M40.4-7.5v4.9c0,0.6,0.1,1.1,0.4,1.4c0.3,0.3,0.7,0.5,1.3,0.5c0.8,0,1.4-0.2,1.7-0.6s0.5-1.1,0.5-2.1v-3.9h1.1V0
								h-0.9l-0.2-1h-0.1c-0.2,0.4-0.6,0.7-1,0.8c-0.4,0.2-0.9,0.3-1.4,0.3c-0.9,0-1.6-0.2-2-0.6c-0.5-0.4-0.7-1.1-0.7-2.1v-4.9
								H40.4z"/>
							<path d="M51.4,0.1c-1.1,0-2-0.3-2.6-1c-0.6-0.7-1-1.6-1-2.8c0-1.2,0.3-2.2,0.9-2.9s1.4-1.1,2.4-1.1c0.9,0,1.7,0.3,2.2,0.9
								c0.5,0.6,0.8,1.4,0.8,2.4v0.7H49c0,0.9,0.2,1.5,0.7,2c0.4,0.5,1,0.7,1.8,0.7c0.8,0,1.6-0.2,2.4-0.5v1
								c-0.4,0.2-0.8,0.3-1.1,0.4C52.4,0.1,51.9,0.1,51.4,0.1z M51.1-6.7c-0.6,0-1.1,0.2-1.4,0.6c-0.4,0.4-0.6,0.9-0.6,1.6H53
								c0-0.7-0.2-1.3-0.5-1.6C52.2-6.5,51.7-6.7,51.1-6.7z"/>
						</g>
						<g class="st6">
							<path d="M59.6-7.6c0.3,0,0.6,0,0.9,0.1l-0.2,1.1c-0.3-0.1-0.6-0.1-0.8-0.1c-0.6,0-1.1,0.2-1.6,0.7S57.3-4.8,57.3-4v4h-1.1
								v-7.5h0.9l0.1,1.4h0.1c0.3-0.5,0.6-0.9,1-1.1C58.7-7.5,59.1-7.6,59.6-7.6z"/>
							<path d="M64.7-0.8c0.2,0,0.4,0,0.6,0c0.2,0,0.3-0.1,0.4-0.1v0.9C65.6,0,65.4,0,65.2,0.1c-0.2,0-0.5,0.1-0.6,0.1
								c-1.4,0-2.2-0.8-2.2-2.3v-4.5h-1.1v-0.5l1.1-0.5l0.5-1.6h0.7v1.7h2.2v0.9h-2.2v4.4c0,0.5,0.1,0.8,0.3,1S64.3-0.8,64.7-0.8z"
								/>
						</g>
						<g class="st6">
							<path d="M70.3,0.1c-1.1,0-2-0.3-2.6-1c-0.6-0.7-1-1.6-1-2.8c0-1.2,0.3-2.2,0.9-2.9S69-7.6,70-7.6c0.9,0,1.7,0.3,2.2,0.9
								c0.5,0.6,0.8,1.4,0.8,2.4v0.7h-5.2c0,0.9,0.2,1.5,0.7,2c0.4,0.5,1,0.7,1.8,0.7c0.8,0,1.6-0.2,2.4-0.5v1
								C72.4-0.2,72-0.1,71.6,0C71.3,0.1,70.8,0.1,70.3,0.1z M70-6.7c-0.6,0-1.1,0.2-1.4,0.6C68.2-5.7,68-5.2,68-4.5h3.9
								c0-0.7-0.2-1.3-0.5-1.6C71.1-6.5,70.6-6.7,70-6.7z"/>
						</g>
					</g>
				</g>
			</g>
		</g>
		<g>
			<defs>
				<rect id="SVGID_39_" x="1" y="-115" width="547" height="22"/>
			</defs>
			<clipPath id="SVGID_40_">
				<use xlink:href="#SVGID_39_"  style="overflow:visible;"/>
			</clipPath>
			<g id="Grupo_7233" class="st23">
				<g id="Grupo_7232" transform="translate(29 -99)">
					<g id="Grupo-14">
						<g class="st6">
							<path d="M7.7-2.3H6.2V0H5.2v-2.3H0.3v-1L5-10h1.2v6.7h1.5V-2.3z M5.2-3.3v-3.3c0-0.7,0-1.4,0.1-2.2H5.2
								C4.9-8.4,4.7-8.1,4.6-7.8L1.4-3.3H5.2z"/>
							<path d="M8.6-3.2v-1h3.4v1H8.6z"/>
						</g>
						<g class="st6">
							<path d="M13.6-3.2v-1h3.4v1H13.6z"/>
						</g>
						<g class="st6">
							<path d="M22.9,0h-1.1v-7.1c0-0.6,0-1.2,0.1-1.7c-0.1,0.1-0.2,0.2-0.3,0.3S20.9-8,19.9-7.2L19.3-8l2.6-2h1V0z"/>
						</g>
					</g>
				</g>
			</g>
		</g>
		<g>
			<defs>
				<rect id="SVGID_41_" x="1" y="-115" width="547" height="22"/>
			</defs>
			<clipPath id="SVGID_42_">
				<use xlink:href="#SVGID_41_"  style="overflow:visible;"/>
			</clipPath>
			<g id="Grupo_7235" class="st24">
				<g id="Grupo_7234" transform="translate(167 -99)">
					<g class="st6">
						<path d="M7.7-2.3H6.2V0H5.2v-2.3H0.3v-1L5-10h1.2v6.7h1.5V-2.3z M5.2-3.3v-3.3c0-0.7,0-1.4,0.1-2.2H5.2
							C4.9-8.4,4.7-8.1,4.6-7.8L1.4-3.3H5.2z"/>
					</g>
				</g>
			</g>
		</g>
		<g>
			<defs>
				<rect id="SVGID_43_" x="1" y="-115" width="547" height="22"/>
			</defs>
			<clipPath id="SVGID_44_">
				<use xlink:href="#SVGID_43_"  style="overflow:visible;"/>
			</clipPath>
			<g id="Grupo_7237" class="st25">
				<g id="Grupo_7236" transform="translate(321 -99)">
					<g class="st6">
						<path d="M4.9,0H3.8v-7.1c0-0.6,0-1.2,0.1-1.7C3.7-8.7,3.6-8.6,3.5-8.5S2.9-8,1.9-7.2L1.3-8l2.6-2h1V0z"/>
					</g>
				</g>
			</g>
		</g>
		<g>
			<defs>
				<rect id="SVGID_45_" x="1" y="-115" width="547" height="22"/>
			</defs>
			<clipPath id="SVGID_46_">
				<use xlink:href="#SVGID_45_"  style="overflow:visible;"/>
			</clipPath>
			<g id="Grupo_7239" class="st26">
				<g id="Grupo_7238" transform="translate(448 -99)">
					<g id="Grupo-15">
						<g class="st6">
							<path d="M2.5,0H1.4v-10h5.6v1H2.5v3.7h4.1v1H2.5V0z"/>
							<path d="M9.3-7.5v4.9c0,0.6,0.1,1.1,0.4,1.4C10-1,10.4-0.8,11-0.8c0.8,0,1.4-0.2,1.7-0.6s0.5-1.1,0.5-2.1v-3.9h1.1V0h-0.9
								l-0.2-1h-0.1c-0.2,0.4-0.6,0.7-1,0.8s-0.9,0.3-1.4,0.3c-0.9,0-1.6-0.2-2-0.6S8.1-1.6,8.1-2.6v-4.9H9.3z"/>
						</g>
						<g class="st6">
							<path d="M20.4,0.1c-1.1,0-2-0.3-2.6-1c-0.6-0.7-1-1.6-1-2.8c0-1.2,0.3-2.2,0.9-2.9s1.4-1.1,2.4-1.1c0.9,0,1.7,0.3,2.2,0.9
								c0.5,0.6,0.8,1.4,0.8,2.4v0.7H18c0,0.9,0.2,1.5,0.7,2c0.4,0.5,1,0.7,1.8,0.7c0.8,0,1.6-0.2,2.4-0.5v1C22.4-0.2,22-0.1,21.7,0
								C21.3,0.1,20.9,0.1,20.4,0.1z M20.1-6.7c-0.6,0-1.1,0.2-1.4,0.6c-0.4,0.4-0.6,0.9-0.6,1.6h3.9c0-0.7-0.2-1.3-0.5-1.6
								C21.1-6.5,20.7-6.7,20.1-6.7z"/>
						</g>
						<g class="st6">
							<path d="M28.6-7.6c0.3,0,0.6,0,0.9,0.1l-0.2,1.1c-0.3-0.1-0.6-0.1-0.8-0.1c-0.6,0-1.1,0.2-1.6,0.7S26.3-4.8,26.3-4v4h-1.1
								v-7.5h0.9l0.1,1.4h0.1c0.3-0.5,0.6-0.9,1-1.1C27.7-7.5,28.1-7.6,28.6-7.6z"/>
						</g>
						<g class="st6">
							<path d="M33.6-0.8c0.2,0,0.4,0,0.6,0c0.2,0,0.3-0.1,0.4-0.1v0.9C34.5,0,34.3,0,34.1,0.1c-0.2,0-0.5,0.1-0.6,0.1
								c-1.4,0-2.2-0.8-2.2-2.3v-4.5h-1.1v-0.5l1.1-0.5l0.5-1.6h0.7v1.7h2.2v0.9h-2.2v4.4c0,0.5,0.1,0.8,0.3,1
								C33-0.9,33.3-0.8,33.6-0.8z"/>
						</g>
						<g class="st6">
							<path d="M39.4,0.1c-1.1,0-2-0.3-2.6-1c-0.6-0.7-1-1.6-1-2.8c0-1.2,0.3-2.2,0.9-2.9c0.6-0.7,1.4-1.1,2.4-1.1
								c0.9,0,1.7,0.3,2.2,0.9c0.5,0.6,0.8,1.4,0.8,2.4v0.7H37c0,0.9,0.2,1.5,0.7,2c0.4,0.5,1,0.7,1.8,0.7c0.8,0,1.6-0.2,2.4-0.5v1
								C41.4-0.2,41-0.1,40.7,0C40.3,0.1,39.9,0.1,39.4,0.1z M39.1-6.7c-0.6,0-1.1,0.2-1.4,0.6c-0.4,0.4-0.6,0.9-0.6,1.6h3.9
								c0-0.7-0.2-1.3-0.5-1.6C40.1-6.5,39.7-6.7,39.1-6.7z"/>
						</g>
					</g>
				</g>
			</g>
		</g>
		<g>
			<defs>
				<rect id="SVGID_47_" x="1" y="-92" width="547" height="22"/>
			</defs>
			<clipPath id="SVGID_48_">
				<use xlink:href="#SVGID_47_"  style="overflow:visible;"/>
			</clipPath>
			<g id="Grupo_7241" class="st27">
				<g id="Grupo_7240" transform="translate(29 -76)">
					<g id="Grupo-16">
						<g class="st6">
							<path d="M6.9-7.6c0,0.6-0.2,1.2-0.5,1.6S5.5-5.4,4.8-5.3v0.1c0.8,0.1,1.4,0.4,1.8,0.8s0.6,0.9,0.6,1.6c0,1-0.3,1.7-1,2.2
								C5.5-0.1,4.6,0.1,3.4,0.1c-0.5,0-1,0-1.5-0.1C1.5-0.1,1.1-0.2,0.6-0.4v-1.1C1.1-1.3,1.5-1.1,2-1c0.5,0.1,1,0.2,1.4,0.2
								c1.7,0,2.6-0.7,2.6-2c0-1.2-1-1.8-2.9-1.8h-1v-1h1c0.8,0,1.4-0.2,1.9-0.5C5.5-6.5,5.7-7,5.7-7.6c0-0.5-0.2-0.9-0.5-1.1
								S4.4-9.2,3.8-9.2C3.4-9.2,3-9.1,2.6-9S1.8-8.7,1.3-8.3L0.7-9.1c0.4-0.3,0.9-0.6,1.4-0.8c0.5-0.2,1.1-0.3,1.7-0.3
								c1,0,1.7,0.2,2.3,0.7C6.6-9,6.9-8.4,6.9-7.6z"/>
							<path d="M8.6-3.2v-1h3.4v1H8.6z"/>
						</g>
						<g class="st6">
							<path d="M13.6-3.2v-1h3.4v1H13.6z"/>
						</g>
						<g class="st6">
							<path d="M22.9,0h-1.1v-7.1c0-0.6,0-1.2,0.1-1.7c-0.1,0.1-0.2,0.2-0.3,0.3S20.9-8,19.9-7.2L19.3-8l2.6-2h1V0z"/>
						</g>
					</g>
				</g>
			</g>
		</g>
		<g>
			<defs>
				<rect id="SVGID_49_" x="1" y="-92" width="547" height="22"/>
			</defs>
			<clipPath id="SVGID_50_">
				<use xlink:href="#SVGID_49_"  style="overflow:visible;"/>
			</clipPath>
			<g id="Grupo_7243" class="st28">
				<g id="Grupo_7242" transform="translate(167 -76)">
					<g class="st6">
						<path d="M6.9-7.6c0,0.6-0.2,1.2-0.5,1.6S5.5-5.4,4.8-5.3v0.1c0.8,0.1,1.4,0.4,1.8,0.8s0.6,0.9,0.6,1.6c0,1-0.3,1.7-1,2.2
							C5.5-0.1,4.6,0.1,3.4,0.1c-0.5,0-1,0-1.5-0.1C1.5-0.1,1.1-0.2,0.6-0.4v-1.1C1.1-1.3,1.5-1.1,2-1c0.5,0.1,1,0.2,1.4,0.2
							c1.7,0,2.6-0.7,2.6-2c0-1.2-1-1.8-2.9-1.8h-1v-1h1c0.8,0,1.4-0.2,1.9-0.5C5.5-6.5,5.7-7,5.7-7.6c0-0.5-0.2-0.9-0.5-1.1
							S4.4-9.2,3.8-9.2C3.4-9.2,3-9.1,2.6-9S1.8-8.7,1.3-8.3L0.7-9.1c0.4-0.3,0.9-0.6,1.4-0.8c0.5-0.2,1.1-0.3,1.7-0.3
							c1,0,1.7,0.2,2.3,0.7C6.6-9,6.9-8.4,6.9-7.6z"/>
					</g>
				</g>
			</g>
		</g>
		<g>
			<defs>
				<rect id="SVGID_51_" x="1" y="-92" width="547" height="22"/>
			</defs>
			<clipPath id="SVGID_52_">
				<use xlink:href="#SVGID_51_"  style="overflow:visible;"/>
			</clipPath>
			<g id="Grupo_7245" class="st29">
				<g id="Grupo_7244" transform="translate(321 -76)">
					<g class="st6">
						<path d="M4.9,0H3.8v-7.1c0-0.6,0-1.2,0.1-1.7C3.7-8.7,3.6-8.6,3.5-8.5S2.9-8,1.9-7.2L1.3-8l2.6-2h1V0z"/>
					</g>
				</g>
			</g>
		</g>
		<g>
			<defs>
				<rect id="SVGID_53_" x="1" y="-92" width="547" height="22"/>
			</defs>
			<clipPath id="SVGID_54_">
				<use xlink:href="#SVGID_53_"  style="overflow:visible;"/>
			</clipPath>
			<g id="Grupo_7247" class="st30">
				<g id="Grupo_7246" transform="translate(448 -76)">
					<g id="Grupo-17">
						<g class="st6">
							<path d="M2.5,0H1.4v-10h5.6v1H2.5v3.7h4.1v1H2.5V0z"/>
							<path d="M9.3-7.5v4.9c0,0.6,0.1,1.1,0.4,1.4C10-1,10.4-0.8,11-0.8c0.8,0,1.4-0.2,1.7-0.6s0.5-1.1,0.5-2.1v-3.9h1.1V0h-0.9
								l-0.2-1h-0.1c-0.2,0.4-0.6,0.7-1,0.8s-0.9,0.3-1.4,0.3c-0.9,0-1.6-0.2-2-0.6S8.1-1.6,8.1-2.6v-4.9H9.3z"/>
						</g>
						<g class="st6">
							<path d="M20.4,0.1c-1.1,0-2-0.3-2.6-1c-0.6-0.7-1-1.6-1-2.8c0-1.2,0.3-2.2,0.9-2.9s1.4-1.1,2.4-1.1c0.9,0,1.7,0.3,2.2,0.9
								c0.5,0.6,0.8,1.4,0.8,2.4v0.7H18c0,0.9,0.2,1.5,0.7,2c0.4,0.5,1,0.7,1.8,0.7c0.8,0,1.6-0.2,2.4-0.5v1C22.4-0.2,22-0.1,21.7,0
								C21.3,0.1,20.9,0.1,20.4,0.1z M20.1-6.7c-0.6,0-1.1,0.2-1.4,0.6c-0.4,0.4-0.6,0.9-0.6,1.6h3.9c0-0.7-0.2-1.3-0.5-1.6
								C21.1-6.5,20.7-6.7,20.1-6.7z"/>
						</g>
						<g class="st6">
							<path d="M28.6-7.6c0.3,0,0.6,0,0.9,0.1l-0.2,1.1c-0.3-0.1-0.6-0.1-0.8-0.1c-0.6,0-1.1,0.2-1.6,0.7S26.3-4.8,26.3-4v4h-1.1
								v-7.5h0.9l0.1,1.4h0.1c0.3-0.5,0.6-0.9,1-1.1C27.7-7.5,28.1-7.6,28.6-7.6z"/>
						</g>
						<g class="st6">
							<path d="M33.6-0.8c0.2,0,0.4,0,0.6,0c0.2,0,0.3-0.1,0.4-0.1v0.9C34.5,0,34.3,0,34.1,0.1c-0.2,0-0.5,0.1-0.6,0.1
								c-1.4,0-2.2-0.8-2.2-2.3v-4.5h-1.1v-0.5l1.1-0.5l0.5-1.6h0.7v1.7h2.2v0.9h-2.2v4.4c0,0.5,0.1,0.8,0.3,1
								C33-0.9,33.3-0.8,33.6-0.8z"/>
						</g>
						<g class="st6">
							<path d="M39.4,0.1c-1.1,0-2-0.3-2.6-1c-0.6-0.7-1-1.6-1-2.8c0-1.2,0.3-2.2,0.9-2.9c0.6-0.7,1.4-1.1,2.4-1.1
								c0.9,0,1.7,0.3,2.2,0.9c0.5,0.6,0.8,1.4,0.8,2.4v0.7H37c0,0.9,0.2,1.5,0.7,2c0.4,0.5,1,0.7,1.8,0.7c0.8,0,1.6-0.2,2.4-0.5v1
								C41.4-0.2,41-0.1,40.7,0C40.3,0.1,39.9,0.1,39.4,0.1z M39.1-6.7c-0.6,0-1.1,0.2-1.4,0.6c-0.4,0.4-0.6,0.9-0.6,1.6h3.9
								c0-0.7-0.2-1.3-0.5-1.6C40.1-6.5,39.7-6.7,39.1-6.7z"/>
						</g>
					</g>
				</g>
			</g>
		</g>
		<g>
			<defs>
				<rect id="SVGID_55_" x="1" y="-69" width="547" height="22"/>
			</defs>
			<clipPath id="SVGID_56_">
				<use xlink:href="#SVGID_55_"  style="overflow:visible;"/>
			</clipPath>
			<g id="Grupo_7249" class="st31">
				<g id="Grupo_7248" transform="translate(29 -53)">
					<g id="Grupo-18">
						<g class="st6">
							<path d="M7.3,0H0.7v-1l2.6-2.6C4.1-4.4,4.6-5,4.9-5.4s0.4-0.7,0.6-1s0.2-0.7,0.2-1.1c0-0.5-0.2-1-0.5-1.3
								C4.9-9,4.4-9.2,3.8-9.2C3.4-9.2,3-9.1,2.7-9S1.9-8.6,1.4-8.2L0.8-9c0.9-0.8,1.9-1.1,3-1.1c0.9,0,1.7,0.2,2.2,0.7
								c0.5,0.5,0.8,1.1,0.8,1.9c0,0.6-0.2,1.3-0.5,1.9s-1,1.4-2,2.4L2.1-1.1v0.1h5.1V0z"/>
							<path d="M8.6-3.2v-1h3.4v1H8.6z"/>
						</g>
						<g class="st6">
							<path d="M13.6-3.2v-1h3.4v1H13.6z"/>
						</g>
						<g class="st6">
							<path d="M22.9,0h-1.1v-7.1c0-0.6,0-1.2,0.1-1.7c-0.1,0.1-0.2,0.2-0.3,0.3S20.9-8,19.9-7.2L19.3-8l2.6-2h1V0z"/>
						</g>
					</g>
				</g>
			</g>
		</g>
		<g>
			<defs>
				<rect id="SVGID_57_" x="1" y="-69" width="547" height="22"/>
			</defs>
			<clipPath id="SVGID_58_">
				<use xlink:href="#SVGID_57_"  style="overflow:visible;"/>
			</clipPath>
			<g id="Grupo_7251" class="st32">
				<g id="Grupo_7250" transform="translate(167 -53)">
					<g class="st6">
						<path d="M7.3,0H0.7v-1l2.6-2.6C4.1-4.4,4.6-5,4.9-5.4s0.4-0.7,0.6-1s0.2-0.7,0.2-1.1c0-0.5-0.2-1-0.5-1.3
							C4.9-9,4.4-9.2,3.8-9.2C3.4-9.2,3-9.1,2.7-9S1.9-8.6,1.4-8.2L0.8-9c0.9-0.8,1.9-1.1,3-1.1c0.9,0,1.7,0.2,2.2,0.7
							c0.5,0.5,0.8,1.1,0.8,1.9c0,0.6-0.2,1.3-0.5,1.9s-1,1.4-2,2.4L2.1-1.1v0.1h5.1V0z"/>
					</g>
				</g>
			</g>
		</g>
		<g>
			<defs>
				<rect id="SVGID_59_" x="1" y="-69" width="547" height="22"/>
			</defs>
			<clipPath id="SVGID_60_">
				<use xlink:href="#SVGID_59_"  style="overflow:visible;"/>
			</clipPath>
			<g id="Grupo_7253" class="st33">
				<g id="Grupo_7252" transform="translate(321 -53)">
					<g class="st6">
						<path d="M4.9,0H3.8v-7.1c0-0.6,0-1.2,0.1-1.7C3.7-8.7,3.6-8.6,3.5-8.5S2.9-8,1.9-7.2L1.3-8l2.6-2h1V0z"/>
					</g>
				</g>
			</g>
		</g>
		<g>
			<defs>
				<rect id="SVGID_61_" x="1" y="-69" width="547" height="22"/>
			</defs>
			<clipPath id="SVGID_62_">
				<use xlink:href="#SVGID_61_"  style="overflow:visible;"/>
			</clipPath>
			<g id="Grupo_7255" class="st34">
				<g id="Grupo_7254" transform="translate(449 -53)">
					<g id="Grupo-19">
						<g class="st6">
							<path d="M7-2.7c0,0.9-0.3,1.6-1,2.1S4.6,0.1,3.5,0.1C2.3,0.1,1.4,0,0.7-0.3v-1.1C1.1-1.3,1.6-1.1,2.1-1s1,0.2,1.4,0.2
								c0.8,0,1.4-0.1,1.8-0.4C5.6-1.6,5.8-2,5.8-2.5c0-0.3-0.1-0.6-0.2-0.9C5.5-3.6,5.3-3.8,4.9-4C4.6-4.2,4.1-4.4,3.4-4.6
								C2.5-5,1.9-5.4,1.5-5.8C1.1-6.3,0.9-6.9,0.9-7.6c0-0.8,0.3-1.4,0.9-1.8s1.3-0.7,2.3-0.7c1,0,1.9,0.2,2.7,0.5l-0.4,1
								C5.6-8.9,4.8-9.1,4-9.1C3.4-9.1,2.9-9,2.5-8.7S2-8.1,2-7.6C2-7.3,2.1-7,2.2-6.8c0.1,0.2,0.3,0.4,0.6,0.6
								C3.2-6,3.6-5.8,4.3-5.5c1,0.4,1.8,0.8,2.2,1.2C6.8-3.9,7-3.3,7-2.7z"/>
							<path d="M10.3-7.5v4.9c0,0.6,0.1,1.1,0.4,1.4C11-1,11.4-0.8,12-0.8c0.8,0,1.4-0.2,1.7-0.6s0.5-1.1,0.5-2.1v-3.9h1.1V0h-0.9
								l-0.2-1h-0.1c-0.2,0.4-0.6,0.7-1,0.8s-0.9,0.3-1.4,0.3c-0.9,0-1.6-0.2-2-0.6S9.1-1.6,9.1-2.6v-4.9H10.3z"/>
							<path d="M22.7,0l-0.2-1.1h-0.1c-0.4,0.5-0.7,0.8-1.1,1c-0.4,0.2-0.8,0.3-1.4,0.3c-0.7,0-1.3-0.2-1.7-0.6
								c-0.4-0.4-0.6-0.9-0.6-1.6c0-1.5,1.2-2.3,3.6-2.4l1.3,0V-5c0-0.6-0.1-1-0.4-1.3c-0.3-0.3-0.7-0.4-1.2-0.4
								c-0.6,0-1.3,0.2-2.1,0.6L18.4-7c0.4-0.2,0.8-0.4,1.2-0.5c0.4-0.1,0.9-0.2,1.3-0.2c0.9,0,1.6,0.2,2,0.6c0.4,0.4,0.6,1,0.6,1.9
								V0H22.7z M20.1-0.8c0.7,0,1.3-0.2,1.7-0.6c0.4-0.4,0.6-0.9,0.6-1.6v-0.7l-1.1,0c-0.9,0-1.6,0.2-2,0.4
								c-0.4,0.2-0.6,0.6-0.6,1.2c0,0.4,0.1,0.7,0.4,0.9C19.3-0.9,19.7-0.8,20.1-0.8z"/>
							<path d="M27.8,0L25-7.5h1.2L27.8-3c0.4,1,0.6,1.7,0.6,2h0.1c0.1-0.2,0.2-0.7,0.5-1.5c0.3-0.8,0.9-2.4,1.8-5H32L29.2,0H27.8z"
								/>
						</g>
						<g class="st6">
							<path d="M36.4,0.1c-1.1,0-2-0.3-2.6-1c-0.6-0.7-1-1.6-1-2.8c0-1.2,0.3-2.2,0.9-2.9s1.4-1.1,2.4-1.1c0.9,0,1.7,0.3,2.2,0.9
								c0.5,0.6,0.8,1.4,0.8,2.4v0.7H34c0,0.9,0.2,1.5,0.7,2c0.4,0.5,1,0.7,1.8,0.7c0.8,0,1.6-0.2,2.4-0.5v1C38.4-0.2,38-0.1,37.7,0
								C37.3,0.1,36.9,0.1,36.4,0.1z M36.1-6.7c-0.6,0-1.1,0.2-1.4,0.6c-0.4,0.4-0.6,0.9-0.6,1.6h3.9c0-0.7-0.2-1.3-0.5-1.6
								C37.1-6.5,36.7-6.7,36.1-6.7z"/>
						</g>
					</g>
				</g>
			</g>
		</g>
		<g>
			<defs>
				<rect id="SVGID_63_" x="1" y="-46" width="547" height="22"/>
			</defs>
			<clipPath id="SVGID_64_">
				<use xlink:href="#SVGID_63_"  style="overflow:visible;"/>
			</clipPath>
			<g id="Grupo_7257" class="st35">
				<g id="Grupo_7256" transform="translate(29 -30)">
					<g id="Grupo-20">
						<g class="st6">
							<path d="M4.9,0H3.8v-7.1c0-0.6,0-1.2,0.1-1.7C3.7-8.7,3.6-8.6,3.5-8.5S2.9-8,1.9-7.2L1.3-8l2.6-2h1V0z"/>
							<path d="M8.6-3.2v-1h3.4v1H8.6z"/>
						</g>
						<g class="st6">
							<path d="M13.6-3.2v-1h3.4v1H13.6z"/>
						</g>
						<g class="st6">
							<path d="M22.9,0h-1.1v-7.1c0-0.6,0-1.2,0.1-1.7c-0.1,0.1-0.2,0.2-0.3,0.3S20.9-8,19.9-7.2L19.3-8l2.6-2h1V0z"/>
						</g>
					</g>
				</g>
			</g>
		</g>
		<g>
			<defs>
				<rect id="SVGID_65_" x="1" y="-46" width="547" height="22"/>
			</defs>
			<clipPath id="SVGID_66_">
				<use xlink:href="#SVGID_65_"  style="overflow:visible;"/>
			</clipPath>
			<g id="Grupo_7259" class="st36">
				<g id="Grupo_7258" transform="translate(167 -30)">
					<g class="st6">
						<path d="M4.9,0H3.8v-7.1c0-0.6,0-1.2,0.1-1.7C3.7-8.7,3.6-8.6,3.5-8.5S2.9-8,1.9-7.2L1.3-8l2.6-2h1V0z"/>
					</g>
				</g>
			</g>
		</g>
		<g>
			<defs>
				<rect id="SVGID_67_" x="1" y="-46" width="547" height="22"/>
			</defs>
			<clipPath id="SVGID_68_">
				<use xlink:href="#SVGID_67_"  style="overflow:visible;"/>
			</clipPath>
			<g id="Grupo_7261" class="st37">
				<g id="Grupo_7260" transform="translate(321 -30)">
					<g class="st6">
						<path d="M4.9,0H3.8v-7.1c0-0.6,0-1.2,0.1-1.7C3.7-8.7,3.6-8.6,3.5-8.5S2.9-8,1.9-7.2L1.3-8l2.6-2h1V0z"/>
					</g>
				</g>
			</g>
		</g>
		<g>
			<defs>
				<rect id="SVGID_69_" x="1" y="-46" width="547" height="22"/>
			</defs>
			<clipPath id="SVGID_70_">
				<use xlink:href="#SVGID_69_"  style="overflow:visible;"/>
			</clipPath>
			<g id="Grupo_7263" class="st38">
				<g id="Grupo_7262" transform="translate(449 -30)">
					<g id="Grupo-21">
						<g class="st6">
							<path d="M7-2.7c0,0.9-0.3,1.6-1,2.1S4.6,0.1,3.5,0.1C2.3,0.1,1.4,0,0.7-0.3v-1.1C1.1-1.3,1.6-1.1,2.1-1s1,0.2,1.4,0.2
								c0.8,0,1.4-0.1,1.8-0.4C5.6-1.6,5.8-2,5.8-2.5c0-0.3-0.1-0.6-0.2-0.9C5.5-3.6,5.3-3.8,4.9-4C4.6-4.2,4.1-4.4,3.4-4.6
								C2.5-5,1.9-5.4,1.5-5.8C1.1-6.3,0.9-6.9,0.9-7.6c0-0.8,0.3-1.4,0.9-1.8s1.3-0.7,2.3-0.7c1,0,1.9,0.2,2.7,0.5l-0.4,1
								C5.6-8.9,4.8-9.1,4-9.1C3.4-9.1,2.9-9,2.5-8.7S2-8.1,2-7.6C2-7.3,2.1-7,2.2-6.8c0.1,0.2,0.3,0.4,0.6,0.6
								C3.2-6,3.6-5.8,4.3-5.5c1,0.4,1.8,0.8,2.2,1.2C6.8-3.9,7-3.3,7-2.7z"/>
							<path d="M10.3-7.5v4.9c0,0.6,0.1,1.1,0.4,1.4C11-1,11.4-0.8,12-0.8c0.8,0,1.4-0.2,1.7-0.6s0.5-1.1,0.5-2.1v-3.9h1.1V0h-0.9
								l-0.2-1h-0.1c-0.2,0.4-0.6,0.7-1,0.8s-0.9,0.3-1.4,0.3c-0.9,0-1.6-0.2-2-0.6S9.1-1.6,9.1-2.6v-4.9H10.3z"/>
							<path d="M22.7,0l-0.2-1.1h-0.1c-0.4,0.5-0.7,0.8-1.1,1c-0.4,0.2-0.8,0.3-1.4,0.3c-0.7,0-1.3-0.2-1.7-0.6
								c-0.4-0.4-0.6-0.9-0.6-1.6c0-1.5,1.2-2.3,3.6-2.4l1.3,0V-5c0-0.6-0.1-1-0.4-1.3c-0.3-0.3-0.7-0.4-1.2-0.4
								c-0.6,0-1.3,0.2-2.1,0.6L18.4-7c0.4-0.2,0.8-0.4,1.2-0.5c0.4-0.1,0.9-0.2,1.3-0.2c0.9,0,1.6,0.2,2,0.6c0.4,0.4,0.6,1,0.6,1.9
								V0H22.7z M20.1-0.8c0.7,0,1.3-0.2,1.7-0.6c0.4-0.4,0.6-0.9,0.6-1.6v-0.7l-1.1,0c-0.9,0-1.6,0.2-2,0.4
								c-0.4,0.2-0.6,0.6-0.6,1.2c0,0.4,0.1,0.7,0.4,0.9C19.3-0.9,19.7-0.8,20.1-0.8z"/>
							<path d="M27.8,0L25-7.5h1.2L27.8-3c0.4,1,0.6,1.7,0.6,2h0.1c0.1-0.2,0.2-0.7,0.5-1.5c0.3-0.8,0.9-2.4,1.8-5H32L29.2,0H27.8z"
								/>
						</g>
						<g class="st6">
							<path d="M36.4,0.1c-1.1,0-2-0.3-2.6-1c-0.6-0.7-1-1.6-1-2.8c0-1.2,0.3-2.2,0.9-2.9s1.4-1.1,2.4-1.1c0.9,0,1.7,0.3,2.2,0.9
								c0.5,0.6,0.8,1.4,0.8,2.4v0.7H34c0,0.9,0.2,1.5,0.7,2c0.4,0.5,1,0.7,1.8,0.7c0.8,0,1.6-0.2,2.4-0.5v1C38.4-0.2,38-0.1,37.7,0
								C37.3,0.1,36.9,0.1,36.4,0.1z M36.1-6.7c-0.6,0-1.1,0.2-1.4,0.6c-0.4,0.4-0.6,0.9-0.6,1.6h3.9c0-0.7-0.2-1.3-0.5-1.6
								C37.1-6.5,36.7-6.7,36.1-6.7z"/>
						</g>
					</g>
				</g>
			</g>
		</g>
		<g>
			<defs>
				<rect id="SVGID_71_" x="1" y="-23" width="547" height="22"/>
			</defs>
			<clipPath id="SVGID_72_">
				<use xlink:href="#SVGID_71_"  style="overflow:visible;"/>
			</clipPath>
			<g id="Grupo_7265" class="st39">
				<g id="Grupo_7264" transform="translate(29 -7)">
					<g id="Grupo-22">
						<g class="st6">
							<path d="M7.3,0H0.7v-1l2.6-2.6C4.1-4.4,4.6-5,4.9-5.4s0.4-0.7,0.6-1s0.2-0.7,0.2-1.1c0-0.5-0.2-1-0.5-1.3
								C4.9-9,4.4-9.2,3.8-9.2C3.4-9.2,3-9.1,2.7-9S1.9-8.6,1.4-8.2L0.8-9c0.9-0.8,1.9-1.1,3-1.1c0.9,0,1.7,0.2,2.2,0.7
								c0.5,0.5,0.8,1.1,0.8,1.9c0,0.6-0.2,1.3-0.5,1.9s-1,1.4-2,2.4L2.1-1.1v0.1h5.1V0z"/>
							<path d="M8.6-3.2v-1h3.4v1H8.6z"/>
						</g>
						<g class="st6">
							<path d="M13.6-3.2v-1h3.4v1H13.6z"/>
						</g>
						<g class="st6">
							<path d="M24.9-7.6c0,0.6-0.2,1.2-0.5,1.6s-0.9,0.7-1.5,0.8v0.1c0.8,0.1,1.4,0.4,1.8,0.8s0.6,0.9,0.6,1.6c0,1-0.3,1.7-1,2.2
								c-0.7,0.5-1.6,0.8-2.8,0.8c-0.5,0-1,0-1.5-0.1c-0.4-0.1-0.9-0.2-1.3-0.4v-1.1C19.1-1.3,19.5-1.1,20-1c0.5,0.1,1,0.2,1.4,0.2
								c1.7,0,2.6-0.7,2.6-2c0-1.2-1-1.8-2.9-1.8h-1v-1h1c0.8,0,1.4-0.2,1.9-0.5c0.5-0.3,0.7-0.8,0.7-1.4c0-0.5-0.2-0.9-0.5-1.1
								s-0.8-0.4-1.4-0.4c-0.4,0-0.9,0.1-1.2,0.2s-0.8,0.3-1.3,0.7l-0.6-0.8c0.4-0.3,0.9-0.6,1.4-0.8c0.5-0.2,1.1-0.3,1.7-0.3
								c1,0,1.7,0.2,2.3,0.7C24.6-9,24.9-8.4,24.9-7.6z"/>
						</g>
					</g>
				</g>
			</g>
		</g>
		<g>
			<defs>
				<rect id="SVGID_73_" x="1" y="-23" width="547" height="22"/>
			</defs>
			<clipPath id="SVGID_74_">
				<use xlink:href="#SVGID_73_"  style="overflow:visible;"/>
			</clipPath>
			<g id="Grupo_7267" class="st40">
				<g id="Grupo_7266" transform="translate(167 -7)">
					<g class="st6">
						<path d="M7.3,0H0.7v-1l2.6-2.6C4.1-4.4,4.6-5,4.9-5.4s0.4-0.7,0.6-1s0.2-0.7,0.2-1.1c0-0.5-0.2-1-0.5-1.3
							C4.9-9,4.4-9.2,3.8-9.2C3.4-9.2,3-9.1,2.7-9S1.9-8.6,1.4-8.2L0.8-9c0.9-0.8,1.9-1.1,3-1.1c0.9,0,1.7,0.2,2.2,0.7
							c0.5,0.5,0.8,1.1,0.8,1.9c0,0.6-0.2,1.3-0.5,1.9s-1,1.4-2,2.4L2.1-1.1v0.1h5.1V0z"/>
					</g>
				</g>
			</g>
		</g>
		<g>
			<defs>
				<rect id="SVGID_75_" x="1" y="-23" width="547" height="22"/>
			</defs>
			<clipPath id="SVGID_76_">
				<use xlink:href="#SVGID_75_"  style="overflow:visible;"/>
			</clipPath>
			<g id="Grupo_7269" class="st41">
				<g id="Grupo_7268" transform="translate(321 -7)">
					<g class="st6">
						<path d="M6.9-7.6c0,0.6-0.2,1.2-0.5,1.6C6-5.7,5.5-5.4,4.8-5.3v0.1c0.8,0.1,1.4,0.4,1.8,0.8s0.6,0.9,0.6,1.6
							c0,1-0.3,1.7-1,2.2C5.5-0.1,4.6,0.1,3.4,0.1c-0.5,0-1,0-1.5-0.1C1.5-0.1,1.1-0.2,0.6-0.4v-1.1C1.1-1.3,1.5-1.1,2-1
							c0.5,0.1,1,0.2,1.4,0.2c1.7,0,2.6-0.7,2.6-2c0-1.2-1-1.8-2.9-1.8h-1v-1h1c0.8,0,1.4-0.2,1.9-0.5C5.5-6.5,5.7-7,5.7-7.6
							c0-0.5-0.2-0.9-0.5-1.1C4.9-9,4.4-9.2,3.8-9.2C3.4-9.2,3-9.1,2.6-9S1.8-8.7,1.3-8.3L0.7-9.1c0.4-0.3,0.9-0.6,1.4-0.8
							c0.5-0.2,1.1-0.3,1.7-0.3c1,0,1.7,0.2,2.3,0.7C6.6-9,6.9-8.4,6.9-7.6z"/>
					</g>
				</g>
			</g>
		</g>
		<g>
			<defs>
				<rect id="SVGID_77_" x="1" y="-23" width="547" height="22"/>
			</defs>
			<clipPath id="SVGID_78_">
				<use xlink:href="#SVGID_77_"  style="overflow:visible;"/>
			</clipPath>
			<g id="Grupo_7271" class="st42">
				<g id="Grupo_7270" transform="translate(433 -7)">
					<g id="Grupo-23">
						<g class="st6">
							<path d="M5.8,0L2.4-8.9H2.4c0.1,0.7,0.1,1.5,0.1,2.5V0H1.4v-10h1.8l3.2,8.2h0.1L9.5-10h1.7V0h-1.2v-6.4c0-0.7,0-1.5,0.1-2.4
								h-0.1L6.7,0H5.8z"/>
							<path d="M15.3-7.5v4.9c0,0.6,0.1,1.1,0.4,1.4C16-1,16.4-0.8,17-0.8c0.8,0,1.4-0.2,1.7-0.6s0.5-1.1,0.5-2.1v-3.9h1.1V0h-0.9
								l-0.2-1h-0.1c-0.2,0.4-0.6,0.7-1,0.8s-0.9,0.3-1.4,0.3c-0.9,0-1.6-0.2-2-0.6s-0.7-1.1-0.7-2.1v-4.9H15.3z"/>
							<path d="M22-7.5h1.2l1.6,4.3c0.4,1,0.6,1.7,0.7,2.1h0.1c0.1-0.2,0.2-0.6,0.4-1.2c0.2-0.6,0.8-2.3,1.9-5.2H29L25.8,1
								c-0.3,0.8-0.7,1.4-1.1,1.8c-0.4,0.4-0.9,0.5-1.6,0.5c-0.3,0-0.7,0-1-0.1V2.3c0.3,0.1,0.5,0.1,0.8,0.1c0.8,0,1.3-0.4,1.7-1.3
								L25,0L22-7.5z"/>
						</g>
						<g class="st6">
							<path d="M39-2c0,0.7-0.3,1.2-0.8,1.6S37,0.1,36.1,0.1c-1,0-1.8-0.2-2.3-0.5v-1.1c0.4,0.2,0.7,0.3,1.2,0.4
								c0.4,0.1,0.8,0.2,1.2,0.2c0.6,0,1-0.1,1.4-0.3c0.3-0.2,0.5-0.5,0.5-0.9c0-0.3-0.1-0.5-0.4-0.7c-0.3-0.2-0.7-0.5-1.5-0.7
								c-0.7-0.3-1.2-0.5-1.5-0.7c-0.3-0.2-0.5-0.4-0.7-0.7s-0.2-0.5-0.2-0.9c0-0.6,0.2-1.1,0.7-1.4c0.5-0.4,1.2-0.5,2-0.5
								c0.8,0,1.6,0.2,2.4,0.5l-0.4,0.9c-0.8-0.3-1.4-0.5-2-0.5c-0.5,0-0.9,0.1-1.2,0.3S34.8-6,34.8-5.7c0,0.2,0.1,0.4,0.2,0.5
								s0.3,0.3,0.5,0.4c0.2,0.1,0.7,0.3,1.3,0.6c0.9,0.3,1.5,0.6,1.8,1C38.9-3,39-2.5,39-2z"/>
							<path d="M42.3-7.5v4.9c0,0.6,0.1,1.1,0.4,1.4C43-1,43.4-0.8,44-0.8c0.8,0,1.4-0.2,1.7-0.6s0.5-1.1,0.5-2.1v-3.9h1.1V0h-0.9
								l-0.2-1h-0.1c-0.2,0.4-0.6,0.7-1,0.8c-0.4,0.2-0.9,0.3-1.4,0.3c-0.9,0-1.6-0.2-2-0.6c-0.5-0.4-0.7-1.1-0.7-2.1v-4.9H42.3z"/>
							<path d="M54.8,0l-0.2-1.1h-0.1c-0.4,0.5-0.7,0.8-1.1,1C53,0.1,52.6,0.1,52,0.1c-0.7,0-1.3-0.2-1.7-0.6
								c-0.4-0.4-0.6-0.9-0.6-1.6c0-1.5,1.2-2.3,3.6-2.4l1.3,0V-5c0-0.6-0.1-1-0.4-1.3c-0.3-0.3-0.7-0.4-1.2-0.4
								c-0.6,0-1.3,0.2-2.1,0.6L50.5-7c0.4-0.2,0.8-0.4,1.2-0.5c0.4-0.1,0.9-0.2,1.3-0.2c0.9,0,1.6,0.2,2,0.6s0.6,1,0.6,1.9V0H54.8z
								 M52.2-0.8c0.7,0,1.3-0.2,1.7-0.6s0.6-0.9,0.6-1.6v-0.7l-1.1,0c-0.9,0-1.6,0.2-2,0.4C51-3,50.8-2.6,50.8-2.1
								c0,0.4,0.1,0.7,0.4,0.9C51.4-0.9,51.8-0.8,52.2-0.8z"/>
							<path d="M60,0l-2.8-7.5h1.2L60-3c0.4,1,0.6,1.7,0.6,2h0.1c0-0.2,0.2-0.7,0.5-1.5c0.3-0.8,0.9-2.4,1.8-5h1.2L61.3,0H60z"/>
						</g>
						<g class="st6">
							<path d="M68.3,0.1c-1.1,0-2-0.3-2.6-1c-0.6-0.7-1-1.6-1-2.8c0-1.2,0.3-2.2,0.9-2.9s1.4-1.1,2.4-1.1c0.9,0,1.7,0.3,2.2,0.9
								c0.5,0.6,0.8,1.4,0.8,2.4v0.7h-5.2c0,0.9,0.2,1.5,0.7,2c0.4,0.5,1,0.7,1.8,0.7c0.8,0,1.6-0.2,2.4-0.5v1
								C70.4-0.2,70-0.1,69.6,0C69.3,0.1,68.9,0.1,68.3,0.1z M68-6.7c-0.6,0-1.1,0.2-1.4,0.6C66.2-5.7,66-5.2,66-4.5h3.9
								c0-0.7-0.2-1.3-0.5-1.6C69.1-6.5,68.6-6.7,68-6.7z"/>
						</g>
					</g>
				</g>
			</g>
		</g>
		<g>
			<defs>
				<rect id="SVGID_79_" y="-229" width="548" height="229"/>
			</defs>
			<clipPath id="SVGID_80_">
				<use xlink:href="#SVGID_79_"  style="overflow:visible;"/>
			</clipPath>
			<g id="Grupo_7272" class="st43">
				<path id="Trazado_13278" class="st3" d="M0-230h1v1H0V-230z"/>
			</g>
		</g>
		<g>
			<defs>
				<rect id="SVGID_81_" y="-229" width="548" height="229"/>
			</defs>
			<clipPath id="SVGID_82_">
				<use xlink:href="#SVGID_81_"  style="overflow:visible;"/>
			</clipPath>
			<g id="Grupo_7273" class="st44">
				<path id="Trazado_13280" class="st3" d="M83-230h1v1h-1V-230z"/>
			</g>
		</g>
		<g>
			<defs>
				<rect id="SVGID_83_" y="-229" width="548" height="229"/>
			</defs>
			<clipPath id="SVGID_84_">
				<use xlink:href="#SVGID_83_"  style="overflow:visible;"/>
			</clipPath>
			<g id="Grupo_7274" class="st45">
				<path id="Trazado_13282" class="st3" d="M258-230h1v1h-1V-230z"/>
			</g>
		</g>
		<g>
			<defs>
				<rect id="SVGID_85_" y="-229" width="548" height="229"/>
			</defs>
			<clipPath id="SVGID_86_">
				<use xlink:href="#SVGID_85_"  style="overflow:visible;"/>
			</clipPath>
			<g id="Grupo_7275" class="st46">
				<path id="Trazado_13284" class="st3" d="M391-230h1v1h-1V-230z"/>
			</g>
		</g>
		<g>
			<defs>
				<rect id="SVGID_87_" y="-229" width="548" height="229"/>
			</defs>
			<clipPath id="SVGID_88_">
				<use xlink:href="#SVGID_87_"  style="overflow:visible;"/>
			</clipPath>
			<g id="Grupo_7276" class="st47">
				<path id="Trazado_13286" class="st48" d="M1-230h547v2H1V-230z"/>
			</g>
		</g>
		<g>
			<defs>
				<rect id="SVGID_89_" y="-229" width="548" height="229"/>
			</defs>
			<clipPath id="SVGID_90_">
				<use xlink:href="#SVGID_89_"  style="overflow:visible;"/>
			</clipPath>
			<g id="Grupo_7277" class="st49">
				<path id="Trazado_13288" class="st3" d="M547-230h1v1h-1V-230z"/>
			</g>
		</g>
		<g>
			<defs>
				<rect id="SVGID_91_" y="-229" width="548" height="229"/>
			</defs>
			<clipPath id="SVGID_92_">
				<use xlink:href="#SVGID_91_"  style="overflow:visible;"/>
			</clipPath>
			<g id="Grupo_7278" class="st50">
				<path id="Trazado_13290" class="st48" d="M1-163h547v2H1V-163z"/>
			</g>
		</g>
		<g>
			<defs>
				<rect id="SVGID_93_" y="-229" width="548" height="229"/>
			</defs>
			<clipPath id="SVGID_94_">
				<use xlink:href="#SVGID_93_"  style="overflow:visible;"/>
			</clipPath>
			<g id="Grupo_7279" class="st51">
				<path id="Trazado_13292" class="st48" d="M1-140h547v2H1V-140z"/>
			</g>
		</g>
		<g>
			<defs>
				<rect id="SVGID_95_" y="-229" width="548" height="229"/>
			</defs>
			<clipPath id="SVGID_96_">
				<use xlink:href="#SVGID_95_"  style="overflow:visible;"/>
			</clipPath>
			<g id="Grupo_7280" class="st52">
				<path id="Trazado_13294" class="st48" d="M1-117h547v2H1V-117z"/>
			</g>
		</g>
		<g>
			<defs>
				<rect id="SVGID_97_" y="-229" width="548" height="229"/>
			</defs>
			<clipPath id="SVGID_98_">
				<use xlink:href="#SVGID_97_"  style="overflow:visible;"/>
			</clipPath>
			<g id="Grupo_7281" class="st53">
				<path id="Trazado_13296" class="st48" d="M1-94h547v2H1V-94z"/>
			</g>
		</g>
		<g>
			<defs>
				<rect id="SVGID_99_" y="-229" width="548" height="229"/>
			</defs>
			<clipPath id="SVGID_100_">
				<use xlink:href="#SVGID_99_"  style="overflow:visible;"/>
			</clipPath>
			<g id="Grupo_7282" class="st54">
				<path id="Trazado_13298" class="st48" d="M1-71h547v2H1V-71z"/>
			</g>
		</g>
		<g>
			<defs>
				<rect id="SVGID_101_" y="-229" width="548" height="229"/>
			</defs>
			<clipPath id="SVGID_102_">
				<use xlink:href="#SVGID_101_"  style="overflow:visible;"/>
			</clipPath>
			<g id="Grupo_7283" class="st55">
				<path id="Trazado_13300" class="st48" d="M1-48h547v2H1V-48z"/>
			</g>
		</g>
		<g>
			<defs>
				<rect id="SVGID_103_" y="-229" width="548" height="229"/>
			</defs>
			<clipPath id="SVGID_104_">
				<use xlink:href="#SVGID_103_"  style="overflow:visible;"/>
			</clipPath>
			<g id="Grupo_7284" class="st56">
				<path id="Trazado_13302" class="st48" d="M1-25h547v2H1V-25z"/>
			</g>
		</g>
		<g>
			<defs>
				<rect id="SVGID_105_" y="-229" width="548" height="229"/>
			</defs>
			<clipPath id="SVGID_106_">
				<use xlink:href="#SVGID_105_"  style="overflow:visible;"/>
			</clipPath>
			<g id="Grupo_7285" class="st57">
				<path id="Trazado_13304" class="st48" d="M-1-230h2V0h-2V-230z"/>
			</g>
		</g>
		<g>
			<defs>
				<rect id="SVGID_107_" y="-229" width="548" height="229"/>
			</defs>
			<clipPath id="SVGID_108_">
				<use xlink:href="#SVGID_107_"  style="overflow:visible;"/>
			</clipPath>
			<g id="Grupo_7286" class="st58">
				<path id="Trazado_13306" class="st48" d="M82-228h2V0h-2V-228z"/>
			</g>
		</g>
		<g>
			<defs>
				<rect id="SVGID_109_" y="-229" width="548" height="229"/>
			</defs>
			<clipPath id="SVGID_110_">
				<use xlink:href="#SVGID_109_"  style="overflow:visible;"/>
			</clipPath>
			<g id="Grupo_7287" class="st59">
				<path id="Trazado_13308" class="st48" d="M257-228h2V0h-2V-228z"/>
			</g>
		</g>
		<g>
			<defs>
				<rect id="SVGID_111_" y="-229" width="548" height="229"/>
			</defs>
			<clipPath id="SVGID_112_">
				<use xlink:href="#SVGID_111_"  style="overflow:visible;"/>
			</clipPath>
			<g id="Grupo_7288" class="st60">
				<path id="Trazado_13310" class="st48" d="M390-228h2V0h-2V-228z"/>
			</g>
		</g>
		<g>
			<defs>
				<rect id="SVGID_113_" y="-229" width="548" height="229"/>
			</defs>
			<clipPath id="SVGID_114_">
				<use xlink:href="#SVGID_113_"  style="overflow:visible;"/>
			</clipPath>
			<g id="Grupo_7289" class="st61">
				<path id="Trazado_13312" class="st48" d="M1-2h547v2H1V-2z"/>
			</g>
		</g>
		<g>
			<defs>
				<rect id="SVGID_115_" y="-229" width="548" height="229"/>
			</defs>
			<clipPath id="SVGID_116_">
				<use xlink:href="#SVGID_115_"  style="overflow:visible;"/>
			</clipPath>
			<g id="Grupo_7290" class="st62">
				<path id="Trazado_13314" class="st48" d="M546-228h2V0h-2V-228z"/>
			</g>
		</g>
		<g>
			<defs>
				<rect id="SVGID_117_" y="-229" width="548" height="229"/>
			</defs>
			<clipPath id="SVGID_118_">
				<use xlink:href="#SVGID_117_"  style="overflow:visible;"/>
			</clipPath>
			<g id="Grupo_7291" class="st63">
				<path id="Trazado_13316" class="st3" d="M0,0h1v1H0V0z"/>
			</g>
		</g>
		<g>
			<defs>
				<rect id="SVGID_119_" y="-229" width="548" height="229"/>
			</defs>
			<clipPath id="SVGID_120_">
				<use xlink:href="#SVGID_119_"  style="overflow:visible;"/>
			</clipPath>
			<g id="Grupo_7292" class="st64">
				<path id="Trazado_13318" class="st3" d="M83,0h1v1h-1V0z"/>
			</g>
		</g>
		<g>
			<defs>
				<rect id="SVGID_121_" y="-229" width="548" height="229"/>
			</defs>
			<clipPath id="SVGID_122_">
				<use xlink:href="#SVGID_121_"  style="overflow:visible;"/>
			</clipPath>
			<g id="Grupo_7293" class="st65">
				<path id="Trazado_13320" class="st3" d="M258,0h1v1h-1V0z"/>
			</g>
		</g>
		<g>
			<defs>
				<rect id="SVGID_123_" y="-229" width="548" height="229"/>
			</defs>
			<clipPath id="SVGID_124_">
				<use xlink:href="#SVGID_123_"  style="overflow:visible;"/>
			</clipPath>
			<g id="Grupo_7294" class="st66">
				<path id="Trazado_13322" class="st3" d="M391,0h1v1h-1V0z"/>
			</g>
		</g>
		<g>
			<defs>
				<rect id="SVGID_125_" y="-229" width="548" height="229"/>
			</defs>
			<clipPath id="SVGID_126_">
				<use xlink:href="#SVGID_125_"  style="overflow:visible;"/>
			</clipPath>
			<g id="Grupo_7295" class="st67">
				<path id="Trazado_13324" class="st3" d="M547,0h1v1h-1V0z"/>
			</g>
		</g>
		<g>
			<defs>
				<rect id="SVGID_127_" y="-229" width="548" height="229"/>
			</defs>
			<clipPath id="SVGID_128_">
				<use xlink:href="#SVGID_127_"  style="overflow:visible;"/>
			</clipPath>
			<g id="Grupo_7296" class="st68">
				<path id="Trazado_13326" class="st3" d="M548-229h1v1h-1V-229z"/>
			</g>
		</g>
		<g>
			<defs>
				<rect id="SVGID_129_" y="-229" width="548" height="229"/>
			</defs>
			<clipPath id="SVGID_130_">
				<use xlink:href="#SVGID_129_"  style="overflow:visible;"/>
			</clipPath>
			<g id="Grupo_7297" class="st69">
				<path id="Trazado_13328" class="st3" d="M548-162h1v1h-1V-162z"/>
			</g>
		</g>
		<g>
			<defs>
				<rect id="SVGID_131_" y="-229" width="548" height="229"/>
			</defs>
			<clipPath id="SVGID_132_">
				<use xlink:href="#SVGID_131_"  style="overflow:visible;"/>
			</clipPath>
			<g id="Grupo_7298" class="st70">
				<path id="Trazado_13330" class="st3" d="M548-139h1v1h-1V-139z"/>
			</g>
		</g>
		<g>
			<defs>
				<rect id="SVGID_133_" y="-229" width="548" height="229"/>
			</defs>
			<clipPath id="SVGID_134_">
				<use xlink:href="#SVGID_133_"  style="overflow:visible;"/>
			</clipPath>
			<g id="Grupo_7299" class="st71">
				<path id="Trazado_13332" class="st3" d="M548-116h1v1h-1V-116z"/>
			</g>
		</g>
		<g>
			<defs>
				<rect id="SVGID_135_" y="-229" width="548" height="229"/>
			</defs>
			<clipPath id="SVGID_136_">
				<use xlink:href="#SVGID_135_"  style="overflow:visible;"/>
			</clipPath>
			<g id="Grupo_7300" class="st72">
				<path id="Trazado_13334" class="st3" d="M548-93h1v1h-1V-93z"/>
			</g>
		</g>
		<g>
			<defs>
				<rect id="SVGID_137_" y="-229" width="548" height="229"/>
			</defs>
			<clipPath id="SVGID_138_">
				<use xlink:href="#SVGID_137_"  style="overflow:visible;"/>
			</clipPath>
			<g id="Grupo_7301" class="st73">
				<path id="Trazado_13336" class="st3" d="M548-70h1v1h-1V-70z"/>
			</g>
		</g>
		<g>
			<defs>
				<rect id="SVGID_139_" y="-229" width="548" height="229"/>
			</defs>
			<clipPath id="SVGID_140_">
				<use xlink:href="#SVGID_139_"  style="overflow:visible;"/>
			</clipPath>
			<g id="Grupo_7302" class="st74">
				<path id="Trazado_13338" class="st3" d="M548-47h1v1h-1V-47z"/>
			</g>
		</g>
		<g>
			<defs>
				<rect id="SVGID_141_" y="-229" width="548" height="229"/>
			</defs>
			<clipPath id="SVGID_142_">
				<use xlink:href="#SVGID_141_"  style="overflow:visible;"/>
			</clipPath>
			<g id="Grupo_7303" class="st75">
				<path id="Trazado_13340" class="st3" d="M548-24h1v1h-1V-24z"/>
			</g>
		</g>
		<g>
			<defs>
				<rect id="SVGID_143_" y="-229" width="548" height="229"/>
			</defs>
			<clipPath id="SVGID_144_">
				<use xlink:href="#SVGID_143_"  style="overflow:visible;"/>
			</clipPath>
			<g id="Grupo_7304" class="st76">
				<path id="Trazado_13342" class="st3" d="M548-1h1v1h-1V-1z"/>
			</g>
		</g>
	</g>
</g>
</svg>
