<?xml version="1.0" encoding="utf-8"?>
<!-- Generator: Adobe Illustrator 24.2.0, SVG Export Plug-In . SVG Version: 6.00 Build 0)  -->
<svg version="1.1" id="Capa_1" xmlns="http://www.w3.org/2000/svg" xmlns:xlink="http://www.w3.org/1999/xlink" x="0px" y="0px"
	 viewBox="0 0 742 240" style="enable-background:new 0 0 742 240;" xml:space="preserve">
<style type="text/css">
	.st0{fill:#E4F6D1;}
	.st1{fill:#C9EEA3;}
	.st2{enable-background:new    ;}
	.st3{fill:#00223D;}
	.st4{fill:#75BC3F;}
	.st5{fill:none;}
	.st6{fill-rule:evenodd;clip-rule:evenodd;fill:#FFFFFF;}
	.st7{fill:#546886;}
	.st8{opacity:0.3;fill:#6C97B7;enable-background:new    ;}
	.st9{fill:#768BA5;}
	.st10{opacity:0.3;fill:#768BA5;enable-background:new    ;}
	.st11{opacity:0.4;fill:#546886;enable-background:new    ;}
	.st12{opacity:0.3;fill:#5D608C;enable-background:new    ;}
	.st13{opacity:0.1;}
	.st14{fill:#FFFFFF;}
	.st15{opacity:0.2;fill:#546886;enable-background:new    ;}
	.st16{fill:#86A2BC;}
	.st17{fill:#99BBCE;}
	.st18{opacity:0.3;fill:#546886;enable-background:new    ;}
	.st19{fill:#F4E2DC;}
	.st20{opacity:0.5;fill:#F4E2DC;enable-background:new    ;}
	.st21{fill:#665166;}
	.st22{opacity:0.4;fill:#5D608C;enable-background:new    ;}
	.st23{opacity:0.2;fill:#6C97B7;enable-background:new    ;}
	.st24{opacity:0.5;fill:#768BA5;enable-background:new    ;}
	.st25{fill:#A2C3D6;}
	.st26{fill:#A6C8DB;}
	.st27{fill:#36475D;}
	.st28{fill:#2B3B4E;}
	.st29{fill:#3C4D68;}
	.st30{fill:#455A77;}
	.st31{fill:#BC2C2C;}
	.st32{fill:#C63835;}
	.st33{fill:#5F3533;}
	.st34{fill:#592F2F;}
	.st35{fill:#B65F17;}
	.st36{fill:#C26D1E;}
	.st37{fill:#E1A26A;}
	.st38{fill:#D59256;}
	.st39{fill:#F3BD83;}
	.st40{fill:#FFE4CB;}
	.st41{fill:#794830;}
	.st42{fill:#6B3D2B;}
	.st43{fill:#9A6335;}
	.st44{opacity:0.5;fill:url(#Trazado_13906_1_);enable-background:new    ;}
	.st45{fill:#F8E7C9;}
	.st46{fill:#D5B698;}
	.st47{fill:#CE7627;}
	.st48{opacity:0.3;fill:#A32134;enable-background:new    ;}
	.st49{fill:#6C1A2C;}
	.st50{fill:#D58F50;}
	.st51{fill:#648C1F;}
	.st52{fill:#578213;}
	.st53{fill:#7F961E;}
	.st54{fill:#CF913A;}
	.st55{fill:#9AB525;}
	.st56{opacity:0.2;fill:#6C870B;enable-background:new    ;}
	.st57{opacity:0.2;fill:#E6E6E6;enable-background:new    ;}
	.st58{fill:#85A024;}
	.st59{fill:#A4BF2F;}
	.st60{opacity:0.2;fill:#769115;enable-background:new    ;}
	.st61{opacity:0.2;fill:#F0F0F0;enable-background:new    ;}
	.st62{fill:#C78234;}
	.st63{fill:#DB8F42;}
	.st64{fill:#97B222;}
	.st65{opacity:0.2;fill:#698408;enable-background:new    ;}
	.st66{opacity:0.2;fill:#E3E3E3;enable-background:new    ;}
	.st67{fill:#8DA818;}
	.st68{opacity:0.2;fill:#5F7A00;enable-background:new    ;}
	.st69{opacity:0.2;fill:#D9D9D9;enable-background:new    ;}
	.st70{fill:#BA722A;}
	.st71{opacity:0.2;fill:#8E260E;enable-background:new    ;}
	.st72{fill:#A05D20;}
	.st73{fill:#AF6427;}
	.st74{opacity:0.2;fill:#A31D44;enable-background:new    ;}
	.st75{fill:#6C1629;}
	.st76{opacity:0.2;fill:#A83131;enable-background:new    ;}
</style>
<g id="Grupo_11357" transform="translate(-169 -1121)">
	<path id="Rectángulo_3323" class="st0" d="M181,1145h416c6.6,0,12,5.4,12,12v188c0,6.6-5.4,12-12,12H181c-6.6,0-12-5.4-12-12v-188
		C169,1150.4,174.4,1145,181,1145z"/>
	<path id="Rectángulo_3467" class="st1" d="M604,1141h297c5.5,0,10,4.5,10,10v200c0,5.5-4.5,10-10,10H604c-5.5,0-10-4.5-10-10v-200
		C594,1145.5,598.5,1141,604,1141z"/>
	<g class="st2">
		<path class="st3" d="M243.4,1182.4v4.6h-1.9v-11.4h3.2c1.5,0,2.6,0.3,3.3,0.8c0.7,0.6,1.1,1.4,1.1,2.5c0,1.4-0.7,2.4-2.2,3
			l3.2,5.1H248l-2.7-4.6H243.4z M243.4,1180.9h1.3c0.9,0,1.5-0.2,1.9-0.5s0.6-0.8,0.6-1.4c0-0.6-0.2-1.1-0.6-1.4s-1.1-0.4-1.9-0.4
			h-1.2V1180.9z"/>
		<path class="st3" d="M255.3,1187.2c-1.3,0-2.4-0.4-3.2-1.2s-1.1-1.9-1.1-3.2c0-1.4,0.4-2.5,1.1-3.3s1.7-1.2,2.9-1.2
			c1.1,0,2,0.3,2.7,1c0.7,0.7,1,1.6,1,2.9v1h-5.8c0,0.8,0.3,1.5,0.7,1.9c0.4,0.5,1,0.7,1.8,0.7c0.5,0,1,0,1.4-0.1
			c0.4-0.1,0.9-0.3,1.4-0.5v1.5c-0.4,0.2-0.9,0.4-1.4,0.5C256.4,1187.1,255.9,1187.2,255.3,1187.2z M255,1179.6
			c-0.6,0-1.1,0.2-1.4,0.6s-0.6,0.9-0.6,1.6h3.9c0-0.7-0.2-1.3-0.5-1.6C256,1179.8,255.6,1179.6,255,1179.6z"/>
		<path class="st3" d="M264.2,1187.2c-1.3,0-2.3-0.4-3-1.1s-1-1.9-1-3.3c0-1.5,0.4-2.6,1.1-3.4s1.7-1.2,3.1-1.2
			c0.9,0,1.7,0.2,2.5,0.5l-0.6,1.5c-0.8-0.3-1.4-0.5-1.9-0.5c-1.5,0-2.2,1-2.2,3c0,1,0.2,1.7,0.6,2.2c0.4,0.5,0.9,0.7,1.6,0.7
			c0.8,0,1.6-0.2,2.3-0.6v1.6c-0.3,0.2-0.7,0.3-1.1,0.4C265.2,1187.1,264.8,1187.2,264.2,1187.2z"/>
		<path class="st3" d="M272.5,1187.2c-1.3,0-2.4-0.4-3.2-1.2s-1.1-1.9-1.1-3.2c0-1.4,0.4-2.5,1.1-3.3s1.7-1.2,2.9-1.2
			c1.1,0,2,0.3,2.7,1c0.7,0.7,1,1.6,1,2.9v1h-5.8c0,0.8,0.3,1.5,0.7,1.9c0.4,0.5,1,0.7,1.8,0.7c0.5,0,1,0,1.4-0.1
			c0.4-0.1,0.9-0.3,1.4-0.5v1.5c-0.4,0.2-0.9,0.4-1.4,0.5C273.6,1187.1,273,1187.2,272.5,1187.2z M272.1,1179.6
			c-0.6,0-1.1,0.2-1.4,0.6s-0.6,0.9-0.6,1.6h3.9c0-0.7-0.2-1.3-0.5-1.6C273.2,1179.8,272.7,1179.6,272.1,1179.6z"/>
		<path class="st3" d="M282.3,1187.2c-1.1,0-1.9-0.4-2.5-1.2h-0.1c0.1,0.7,0.1,1.2,0.1,1.3v3.5h-1.8v-12.5h1.5
			c0,0.2,0.1,0.5,0.3,1.2h0.1c0.6-0.9,1.4-1.3,2.6-1.3c1.1,0,1.9,0.4,2.5,1.2s0.9,1.9,0.9,3.3s-0.3,2.5-0.9,3.3
			C284.2,1186.8,283.4,1187.2,282.3,1187.2z M281.8,1179.7c-0.7,0-1.3,0.2-1.6,0.6s-0.5,1.1-0.5,2v0.3c0,1.1,0.2,1.8,0.5,2.3
			c0.3,0.5,0.9,0.7,1.6,0.7c0.6,0,1.1-0.3,1.5-0.8s0.5-1.3,0.5-2.2c0-1-0.2-1.7-0.5-2.2C283,1180,282.5,1179.7,281.8,1179.7z"/>
		<path class="st3" d="M291.4,1187.2c-1.3,0-2.3-0.4-3-1.1s-1-1.9-1-3.3c0-1.5,0.4-2.6,1.1-3.4s1.7-1.2,3.1-1.2
			c0.9,0,1.7,0.2,2.5,0.5l-0.6,1.5c-0.8-0.3-1.4-0.5-1.9-0.5c-1.5,0-2.2,1-2.2,3c0,1,0.2,1.7,0.6,2.2c0.4,0.5,0.9,0.7,1.6,0.7
			c0.8,0,1.6-0.2,2.3-0.6v1.6c-0.3,0.2-0.7,0.3-1.1,0.4C292.3,1187.1,291.9,1187.2,291.4,1187.2z"/>
		<path class="st3" d="M295.7,1176.1c0-0.3,0.1-0.6,0.3-0.8s0.4-0.3,0.8-0.3c0.3,0,0.6,0.1,0.8,0.3s0.3,0.4,0.3,0.8
			c0,0.3-0.1,0.6-0.3,0.7s-0.4,0.3-0.8,0.3c-0.3,0-0.6-0.1-0.8-0.3S295.7,1176.4,295.7,1176.1z M297.6,1187h-1.8v-8.6h1.8V1187z"/>
		<path class="st3" d="M307.9,1182.7c0,1.4-0.4,2.5-1.1,3.3c-0.7,0.8-1.7,1.2-3,1.2c-0.8,0-1.5-0.2-2.1-0.5
			c-0.6-0.4-1.1-0.9-1.4-1.6c-0.3-0.7-0.5-1.5-0.5-2.4c0-1.4,0.4-2.5,1.1-3.3s1.7-1.2,3-1.2c1.3,0,2.2,0.4,3,1.2
			C307.5,1180.2,307.9,1181.3,307.9,1182.7z M301.6,1182.7c0,2,0.7,3,2.2,3c1.5,0,2.2-1,2.2-3c0-2-0.7-3-2.2-3
			c-0.8,0-1.3,0.3-1.7,0.8C301.8,1181,301.6,1181.7,301.6,1182.7z M302.6,1177.3v-0.2c0.3-0.4,0.6-0.8,0.9-1.2
			c0.3-0.4,0.6-0.8,0.7-1.1h2.1v0.2c-0.3,0.3-0.7,0.7-1.2,1.2s-1,0.9-1.4,1.2H302.6z"/>
		<path class="st3" d="M317.6,1187h-1.8v-5.3c0-0.7-0.1-1.2-0.4-1.5c-0.3-0.3-0.7-0.5-1.3-0.5c-0.8,0-1.3,0.2-1.7,0.7
			s-0.5,1.2-0.5,2.3v4.3H310v-8.6h1.4l0.3,1.1h0.1c0.3-0.4,0.6-0.7,1.1-1c0.5-0.2,1-0.3,1.6-0.3c2.1,0,3.1,1.1,3.1,3.2V1187z"/>
		<path class="st3" d="M327.3,1187.2c-1.1,0-1.9-0.4-2.5-1.2c-0.6-0.8-0.9-1.9-0.9-3.3c0-1.4,0.3-2.5,0.9-3.3
			c0.6-0.8,1.5-1.2,2.5-1.2c1.1,0,2,0.4,2.6,1.3h0.1c-0.1-0.6-0.1-1.1-0.1-1.5v-3.1h1.8v12.2h-1.4l-0.3-1.1h-0.1
			C329.2,1186.7,328.4,1187.2,327.3,1187.2z M327.7,1185.7c0.8,0,1.3-0.2,1.6-0.6s0.5-1.1,0.5-2.1v-0.3c0-1.1-0.2-1.9-0.5-2.3
			c-0.4-0.5-0.9-0.7-1.7-0.7c-0.6,0-1.1,0.3-1.5,0.8c-0.3,0.5-0.5,1.3-0.5,2.2c0,1,0.2,1.7,0.5,2.2
			C326.6,1185.4,327.1,1185.7,327.7,1185.7z"/>
		<path class="st3" d="M338.1,1187.2c-1.3,0-2.4-0.4-3.2-1.2s-1.1-1.9-1.1-3.2c0-1.4,0.4-2.5,1.1-3.3s1.7-1.2,2.9-1.2
			c1.1,0,2,0.3,2.7,1c0.7,0.7,1,1.6,1,2.9v1h-5.8c0,0.8,0.3,1.5,0.7,1.9c0.4,0.5,1,0.7,1.8,0.7c0.5,0,1,0,1.4-0.1
			c0.4-0.1,0.9-0.3,1.4-0.5v1.5c-0.4,0.2-0.9,0.4-1.4,0.5C339.2,1187.1,338.7,1187.2,338.1,1187.2z M337.7,1179.6
			c-0.6,0-1.1,0.2-1.4,0.6s-0.6,0.9-0.6,1.6h3.9c0-0.7-0.2-1.3-0.5-1.6C338.8,1179.8,338.3,1179.6,337.7,1179.6z"/>
		<path class="st3" d="M349.5,1187h-1.8v-12.2h1.8V1187z"/>
		<path class="st3" d="M357.5,1187l-0.4-1.2h-0.1c-0.4,0.5-0.8,0.9-1.3,1.1s-1,0.3-1.6,0.3c-0.8,0-1.5-0.2-2-0.7s-0.7-1.1-0.7-1.9
			c0-0.9,0.3-1.6,1-2c0.7-0.5,1.7-0.7,3-0.7l1.5,0v-0.5c0-0.6-0.1-1-0.4-1.2s-0.7-0.4-1.2-0.4c-0.4,0-0.9,0.1-1.3,0.2
			s-0.8,0.3-1.2,0.5l-0.6-1.3c0.5-0.2,1-0.4,1.5-0.6c0.6-0.1,1.1-0.2,1.6-0.2c1.1,0,1.9,0.2,2.5,0.7c0.6,0.5,0.8,1.2,0.8,2.3v5.8
			H357.5z M354.8,1185.8c0.7,0,1.2-0.2,1.6-0.6c0.4-0.4,0.6-0.9,0.6-1.6v-0.8l-1.1,0c-0.9,0-1.5,0.2-1.9,0.4
			c-0.4,0.3-0.6,0.7-0.6,1.2c0,0.4,0.1,0.7,0.3,0.9C354,1185.6,354.4,1185.8,354.8,1185.8z"/>
	</g>
	<g class="st2">
		<path class="st3" d="M248.6,1209h-1.8v-5.3c0-0.7-0.1-1.2-0.4-1.5s-0.6-0.5-1.2-0.5c-0.7,0-1.2,0.2-1.6,0.7
			c-0.3,0.5-0.5,1.2-0.5,2.3v4.3h-1.8v-8.6h1.4l0.3,1.1h0.1c0.2-0.4,0.6-0.7,1-1c0.5-0.2,1-0.3,1.5-0.3c1.3,0,2.2,0.5,2.6,1.4h0.1
			c0.3-0.4,0.6-0.8,1.1-1c0.5-0.2,1-0.4,1.6-0.4c1,0,1.8,0.3,2.3,0.8c0.5,0.5,0.7,1.3,0.7,2.4v5.6h-1.8v-5.3c0-0.7-0.1-1.2-0.4-1.5
			c-0.3-0.3-0.6-0.5-1.2-0.5c-0.7,0-1.2,0.2-1.6,0.7c-0.3,0.4-0.5,1.1-0.5,2.1V1209z"/>
		<path class="st3" d="M262,1209l-0.4-1.2h-0.1c-0.4,0.5-0.8,0.9-1.3,1.1s-1,0.3-1.6,0.3c-0.8,0-1.5-0.2-2-0.7s-0.7-1.1-0.7-1.9
			c0-0.9,0.3-1.6,1-2c0.7-0.5,1.7-0.7,3-0.7l1.5,0v-0.5c0-0.6-0.1-1-0.4-1.2s-0.7-0.4-1.2-0.4c-0.4,0-0.9,0.1-1.3,0.2
			s-0.8,0.3-1.2,0.5l-0.6-1.3c0.5-0.2,1-0.4,1.5-0.6c0.6-0.1,1.1-0.2,1.6-0.2c1.1,0,1.9,0.2,2.5,0.7c0.6,0.5,0.8,1.2,0.8,2.3v5.8
			H262z M259.3,1207.8c0.7,0,1.2-0.2,1.6-0.6c0.4-0.4,0.6-0.9,0.6-1.6v-0.8l-1.1,0c-0.9,0-1.5,0.2-1.9,0.4c-0.4,0.3-0.6,0.7-0.6,1.2
			c0,0.4,0.1,0.7,0.3,0.9C258.5,1207.6,258.8,1207.8,259.3,1207.8z"/>
		<path class="st3" d="M269.1,1207.7c0.4,0,0.9-0.1,1.3-0.2v1.4c-0.2,0.1-0.5,0.2-0.8,0.2s-0.7,0.1-1,0.1c-1.7,0-2.6-0.9-2.6-2.8
			v-4.7h-1.2v-0.8l1.3-0.7l0.6-1.8h1.1v1.9h2.5v1.4h-2.5v4.6c0,0.4,0.1,0.8,0.3,1C268.5,1207.6,268.8,1207.7,269.1,1207.7z"/>
		<path class="st3" d="M276,1209.2c-1.3,0-2.4-0.4-3.2-1.2s-1.1-1.9-1.1-3.2c0-1.4,0.4-2.5,1.1-3.3s1.7-1.2,2.9-1.2
			c1.1,0,2,0.3,2.7,1c0.7,0.7,1,1.6,1,2.9v1h-5.8c0,0.8,0.3,1.5,0.7,1.9c0.4,0.5,1,0.7,1.8,0.7c0.5,0,1,0,1.4-0.1
			c0.4-0.1,0.9-0.3,1.4-0.5v1.5c-0.4,0.2-0.9,0.4-1.4,0.5C277.1,1209.1,276.5,1209.2,276,1209.2z M275.6,1201.6
			c-0.6,0-1.1,0.2-1.4,0.6s-0.6,0.9-0.6,1.6h3.9c0-0.7-0.2-1.3-0.5-1.6C276.7,1201.8,276.2,1201.6,275.6,1201.6z"/>
		<path class="st3" d="M285.8,1200.2c0.4,0,0.7,0,0.9,0.1l-0.2,1.7c-0.3-0.1-0.5-0.1-0.8-0.1c-0.7,0-1.3,0.2-1.8,0.7
			c-0.5,0.5-0.7,1.1-0.7,1.9v4.5h-1.8v-8.6h1.4l0.2,1.5h0.1c0.3-0.5,0.7-0.9,1.1-1.2S285.3,1200.2,285.8,1200.2z"/>
		<path class="st3" d="M288.2,1198.1c0-0.3,0.1-0.6,0.3-0.8s0.4-0.3,0.8-0.3c0.3,0,0.6,0.1,0.8,0.3s0.3,0.4,0.3,0.8
			c0,0.3-0.1,0.6-0.3,0.7s-0.4,0.3-0.8,0.3c-0.3,0-0.6-0.1-0.8-0.3S288.2,1198.4,288.2,1198.1z M290.1,1209h-1.8v-8.6h1.8V1209z"/>
		<path class="st3" d="M298.2,1209l-0.4-1.2h-0.1c-0.4,0.5-0.8,0.9-1.3,1.1s-1,0.3-1.6,0.3c-0.8,0-1.5-0.2-2-0.7s-0.7-1.1-0.7-1.9
			c0-0.9,0.3-1.6,1-2c0.7-0.5,1.7-0.7,3-0.7l1.5,0v-0.5c0-0.6-0.1-1-0.4-1.2s-0.7-0.4-1.2-0.4c-0.4,0-0.9,0.1-1.3,0.2
			s-0.8,0.3-1.2,0.5l-0.6-1.3c0.5-0.2,1-0.4,1.5-0.6c0.6-0.1,1.1-0.2,1.6-0.2c1.1,0,1.9,0.2,2.5,0.7c0.6,0.5,0.8,1.2,0.8,2.3v5.8
			H298.2z M295.4,1207.8c0.7,0,1.2-0.2,1.6-0.6c0.4-0.4,0.6-0.9,0.6-1.6v-0.8l-1.1,0c-0.9,0-1.5,0.2-1.9,0.4
			c-0.4,0.3-0.6,0.7-0.6,1.2c0,0.4,0.1,0.7,0.3,0.9C294.6,1207.6,295,1207.8,295.4,1207.8z"/>
		<path class="st3" d="M310.6,1209.2c-1.1,0-1.9-0.4-2.5-1.2h-0.1c0.1,0.7,0.1,1.2,0.1,1.3v3.5h-1.8v-12.5h1.5
			c0,0.2,0.1,0.5,0.3,1.2h0.1c0.6-0.9,1.4-1.3,2.6-1.3c1.1,0,1.9,0.4,2.5,1.2s0.9,1.9,0.9,3.3s-0.3,2.5-0.9,3.3
			C312.5,1208.8,311.7,1209.2,310.6,1209.2z M310.1,1201.7c-0.7,0-1.3,0.2-1.6,0.6s-0.5,1.1-0.5,2v0.3c0,1.1,0.2,1.8,0.5,2.3
			c0.3,0.5,0.9,0.7,1.6,0.7c0.6,0,1.1-0.3,1.5-0.8s0.5-1.3,0.5-2.2c0-1-0.2-1.7-0.5-2.2C311.3,1202,310.8,1201.7,310.1,1201.7z"/>
		<path class="st3" d="M320.5,1200.2c0.4,0,0.7,0,0.9,0.1l-0.2,1.7c-0.3-0.1-0.5-0.1-0.8-0.1c-0.7,0-1.3,0.2-1.8,0.7
			c-0.5,0.5-0.7,1.1-0.7,1.9v4.5h-1.8v-8.6h1.4l0.2,1.5h0.1c0.3-0.5,0.7-0.9,1.1-1.2S320,1200.2,320.5,1200.2z"/>
		<path class="st3" d="M323,1198.1c0-0.3,0.1-0.6,0.3-0.8s0.4-0.3,0.8-0.3c0.3,0,0.6,0.1,0.8,0.3s0.3,0.4,0.3,0.8
			c0,0.3-0.1,0.6-0.3,0.7s-0.4,0.3-0.8,0.3c-0.3,0-0.6-0.1-0.8-0.3S323,1198.4,323,1198.1z M324.9,1209h-1.8v-8.6h1.8V1209z"/>
		<path class="st3" d="M334.8,1209H333v-5.3c0-0.7-0.1-1.2-0.4-1.5s-0.6-0.5-1.2-0.5c-0.7,0-1.2,0.2-1.6,0.7
			c-0.3,0.5-0.5,1.2-0.5,2.3v4.3h-1.8v-8.6h1.4l0.3,1.1h0.1c0.2-0.4,0.6-0.7,1-1c0.5-0.2,1-0.3,1.5-0.3c1.3,0,2.2,0.5,2.6,1.4h0.1
			c0.3-0.4,0.6-0.8,1.1-1c0.5-0.2,1-0.4,1.6-0.4c1,0,1.8,0.3,2.3,0.8c0.5,0.5,0.7,1.3,0.7,2.4v5.6h-1.8v-5.3c0-0.7-0.1-1.2-0.4-1.5
			c-0.3-0.3-0.6-0.5-1.2-0.5c-0.7,0-1.2,0.2-1.6,0.7c-0.3,0.4-0.5,1.1-0.5,2.1V1209z"/>
		<path class="st3" d="M348.2,1209l-0.4-1.2h-0.1c-0.4,0.5-0.8,0.9-1.3,1.1s-1,0.3-1.6,0.3c-0.8,0-1.5-0.2-2-0.7s-0.7-1.1-0.7-1.9
			c0-0.9,0.3-1.6,1-2c0.7-0.5,1.7-0.7,3-0.7l1.5,0v-0.5c0-0.6-0.1-1-0.4-1.2s-0.7-0.4-1.2-0.4c-0.4,0-0.9,0.1-1.3,0.2
			s-0.8,0.3-1.2,0.5l-0.6-1.3c0.5-0.2,1-0.4,1.5-0.6c0.6-0.1,1.1-0.2,1.6-0.2c1.1,0,1.9,0.2,2.5,0.7c0.6,0.5,0.8,1.2,0.8,2.3v5.8
			H348.2z M345.5,1207.8c0.7,0,1.2-0.2,1.6-0.6c0.4-0.4,0.6-0.9,0.6-1.6v-0.8l-1.1,0c-0.9,0-1.5,0.2-1.9,0.4
			c-0.4,0.3-0.6,0.7-0.6,1.2c0,0.4,0.1,0.7,0.3,0.9C344.7,1207.6,345,1207.8,345.5,1207.8z"/>
	</g>
	<g class="st2">
		<path class="st3" d="M467.1,1187c0,1.2-0.4,2.1-1.2,2.7s-1.9,1-3.3,1h-1.2v4.3h-1.9v-11.4h3.3c1.4,0,2.5,0.3,3.2,0.9
			S467.1,1185.9,467.1,1187z M461.4,1189.2h1c1,0,1.7-0.2,2.1-0.5c0.4-0.3,0.7-0.9,0.7-1.6c0-0.7-0.2-1.1-0.6-1.5
			c-0.4-0.3-1-0.5-1.9-0.5h-1.3V1189.2z"/>
		<path class="st3" d="M472.9,1195.2c-1.3,0-2.4-0.4-3.2-1.2s-1.1-1.9-1.1-3.2c0-1.4,0.4-2.5,1.1-3.3s1.7-1.2,2.9-1.2
			c1.1,0,2,0.3,2.7,1c0.7,0.7,1,1.6,1,2.9v1h-5.8c0,0.8,0.3,1.5,0.7,1.9c0.4,0.5,1,0.7,1.8,0.7c0.5,0,1,0,1.4-0.1
			c0.4-0.1,0.9-0.3,1.4-0.5v1.5c-0.4,0.2-0.9,0.4-1.4,0.5C474,1195.1,473.5,1195.2,472.9,1195.2z M472.6,1187.6
			c-0.6,0-1.1,0.2-1.4,0.6s-0.6,0.9-0.6,1.6h3.9c0-0.7-0.2-1.3-0.5-1.6C473.6,1187.8,473.2,1187.6,472.6,1187.6z"/>
		<path class="st3" d="M480.2,1195h-1.8v-12.2h1.8V1195z"/>
		<path class="st3" d="M488.2,1195l-0.4-1.2h-0.1c-0.4,0.5-0.8,0.9-1.3,1.1s-1,0.3-1.6,0.3c-0.8,0-1.5-0.2-2-0.7s-0.7-1.1-0.7-1.9
			c0-0.9,0.3-1.6,1-2c0.7-0.5,1.7-0.7,3-0.7l1.5,0v-0.5c0-0.6-0.1-1-0.4-1.2s-0.7-0.4-1.2-0.4c-0.4,0-0.9,0.1-1.3,0.2
			s-0.8,0.3-1.2,0.5l-0.6-1.3c0.5-0.2,1-0.4,1.5-0.6c0.6-0.1,1.1-0.2,1.6-0.2c1.1,0,1.9,0.2,2.5,0.7c0.6,0.5,0.8,1.2,0.8,2.3v5.8
			H488.2z M485.5,1193.8c0.7,0,1.2-0.2,1.6-0.6c0.4-0.4,0.6-0.9,0.6-1.6v-0.8l-1.1,0c-0.9,0-1.5,0.2-1.9,0.4
			c-0.4,0.3-0.6,0.7-0.6,1.2c0,0.4,0.1,0.7,0.3,0.9C484.7,1193.6,485,1193.8,485.5,1193.8z"/>
		<path class="st3" d="M495,1195.2c-1.1,0-1.9-0.4-2.5-1.2c-0.6-0.8-0.9-1.9-0.9-3.3c0-1.4,0.3-2.5,0.9-3.3c0.6-0.8,1.5-1.2,2.5-1.2
			c1.1,0,2,0.4,2.6,1.3h0.1c-0.1-0.6-0.1-1.1-0.1-1.5v-3.1h1.8v12.2H498l-0.3-1.1h-0.1C497,1194.7,496.2,1195.2,495,1195.2z
			 M495.5,1193.7c0.8,0,1.3-0.2,1.6-0.6s0.5-1.1,0.5-2.1v-0.3c0-1.1-0.2-1.9-0.5-2.3c-0.4-0.5-0.9-0.7-1.7-0.7
			c-0.6,0-1.1,0.3-1.5,0.8c-0.3,0.5-0.5,1.3-0.5,2.2c0,1,0.2,1.7,0.5,2.2C494.3,1193.4,494.8,1193.7,495.5,1193.7z"/>
		<path class="st3" d="M509.8,1190.7c0,1.4-0.4,2.5-1.1,3.3c-0.7,0.8-1.7,1.2-3,1.2c-0.8,0-1.5-0.2-2.1-0.5
			c-0.6-0.4-1.1-0.9-1.4-1.6c-0.3-0.7-0.5-1.5-0.5-2.4c0-1.4,0.4-2.5,1.1-3.3s1.7-1.2,3-1.2c1.3,0,2.2,0.4,3,1.2
			C509.4,1188.2,509.8,1189.3,509.8,1190.7z M503.5,1190.7c0,2,0.7,3,2.2,3c1.5,0,2.2-1,2.2-3c0-2-0.7-3-2.2-3
			c-0.8,0-1.3,0.3-1.7,0.8C503.6,1189,503.5,1189.7,503.5,1190.7z"/>
	</g>
	<g class="st2">
		<path class="st3" d="M244.5,1252v-11.4h1.9v9.8h4.8v1.6H244.5z"/>
		<path class="st3" d="M252.9,1241.1c0-0.3,0.1-0.6,0.3-0.8s0.4-0.3,0.8-0.3c0.3,0,0.6,0.1,0.8,0.3s0.3,0.4,0.3,0.8
			c0,0.3-0.1,0.6-0.3,0.7s-0.4,0.3-0.8,0.3c-0.3,0-0.6-0.1-0.8-0.3S252.9,1241.4,252.9,1241.1z M254.8,1252H253v-8.6h1.8V1252z"/>
		<path class="st3" d="M264.7,1252h-1.8v-5.3c0-0.7-0.1-1.2-0.4-1.5s-0.6-0.5-1.2-0.5c-0.7,0-1.2,0.2-1.6,0.7
			c-0.3,0.5-0.5,1.2-0.5,2.3v4.3h-1.8v-8.6h1.4l0.3,1.1h0.1c0.2-0.4,0.6-0.7,1-1c0.5-0.2,1-0.3,1.5-0.3c1.3,0,2.2,0.5,2.6,1.4h0.1
			c0.3-0.4,0.6-0.8,1.1-1c0.5-0.2,1-0.4,1.6-0.4c1,0,1.8,0.3,2.3,0.8c0.5,0.5,0.7,1.3,0.7,2.4v5.6h-1.8v-5.3c0-0.7-0.1-1.2-0.4-1.5
			c-0.3-0.3-0.6-0.5-1.2-0.5c-0.7,0-1.2,0.2-1.6,0.7c-0.3,0.4-0.5,1.1-0.5,2.1V1252z"/>
		<path class="st3" d="M277.1,1252.2c-1.1,0-1.9-0.4-2.5-1.2h-0.1c0.1,0.7,0.1,1.2,0.1,1.3v3.5h-1.8v-12.5h1.5
			c0,0.2,0.1,0.5,0.3,1.2h0.1c0.6-0.9,1.4-1.3,2.6-1.3c1.1,0,1.9,0.4,2.5,1.2s0.9,1.9,0.9,3.3s-0.3,2.5-0.9,3.3
			C279,1251.8,278.2,1252.2,277.1,1252.2z M276.7,1244.7c-0.7,0-1.3,0.2-1.6,0.6s-0.5,1.1-0.5,2v0.3c0,1.1,0.2,1.8,0.5,2.3
			c0.3,0.5,0.9,0.7,1.6,0.7c0.6,0,1.1-0.3,1.5-0.8s0.5-1.3,0.5-2.2c0-1-0.2-1.7-0.5-2.2C277.8,1245,277.3,1244.7,276.7,1244.7z"/>
		<path class="st3" d="M282.6,1241.1c0-0.3,0.1-0.6,0.3-0.8s0.4-0.3,0.8-0.3c0.3,0,0.6,0.1,0.8,0.3s0.3,0.4,0.3,0.8
			c0,0.3-0.1,0.6-0.3,0.7s-0.4,0.3-0.8,0.3c-0.3,0-0.6-0.1-0.8-0.3S282.6,1241.4,282.6,1241.1z M284.5,1252h-1.8v-8.6h1.8V1252z"/>
		<path class="st3" d="M290.9,1252.2c-1.3,0-2.4-0.4-3.2-1.2s-1.1-1.9-1.1-3.2c0-1.4,0.4-2.5,1.1-3.3s1.7-1.2,2.9-1.2
			c1.1,0,2,0.3,2.7,1c0.7,0.7,1,1.6,1,2.9v1h-5.8c0,0.8,0.3,1.5,0.7,1.9c0.4,0.5,1,0.7,1.8,0.7c0.5,0,1,0,1.4-0.1
			c0.4-0.1,0.9-0.3,1.4-0.5v1.5c-0.4,0.2-0.9,0.4-1.4,0.5C292.1,1252.1,291.5,1252.2,290.9,1252.2z M290.6,1244.6
			c-0.6,0-1.1,0.2-1.4,0.6s-0.6,0.9-0.6,1.6h3.9c0-0.7-0.2-1.3-0.5-1.6C291.7,1244.8,291.2,1244.6,290.6,1244.6z"/>
		<path class="st3" d="M302.2,1252h-6.6v-1.1l4.4-6.1h-4.1v-1.4h6.2v1.3l-4.3,6h4.4V1252z"/>
		<path class="st3" d="M309.4,1252l-0.4-1.2H309c-0.4,0.5-0.8,0.9-1.3,1.1s-1,0.3-1.6,0.3c-0.8,0-1.5-0.2-2-0.7s-0.7-1.1-0.7-1.9
			c0-0.9,0.3-1.6,1-2c0.7-0.5,1.7-0.7,3-0.7l1.5,0v-0.5c0-0.6-0.1-1-0.4-1.2s-0.7-0.4-1.2-0.4c-0.4,0-0.9,0.1-1.3,0.2
			s-0.8,0.3-1.2,0.5l-0.6-1.3c0.5-0.2,1-0.4,1.5-0.6c0.6-0.1,1.1-0.2,1.6-0.2c1.1,0,1.9,0.2,2.5,0.7c0.6,0.5,0.8,1.2,0.8,2.3v5.8
			H309.4z M306.7,1250.8c0.7,0,1.2-0.2,1.6-0.6c0.4-0.4,0.6-0.9,0.6-1.6v-0.8l-1.1,0c-0.9,0-1.5,0.2-1.9,0.4
			c-0.4,0.3-0.6,0.7-0.6,1.2c0,0.4,0.1,0.7,0.3,0.9C305.9,1250.6,306.3,1250.8,306.7,1250.8z"/>
	</g>
	<g class="st2">
		<path class="st3" d="M248.1,1299.9c0,1-0.4,1.8-1.1,2.4s-1.7,0.9-3,0.9c-1.3,0-2.3-0.2-3.2-0.6v-1.8c0.5,0.2,1.1,0.4,1.7,0.6
			s1.1,0.2,1.6,0.2c0.7,0,1.3-0.1,1.6-0.4s0.5-0.7,0.5-1.1c0-0.4-0.2-0.8-0.5-1.1c-0.3-0.3-1-0.6-2-1.1c-1-0.4-1.8-0.9-2.2-1.4
			c-0.4-0.5-0.6-1.2-0.6-2c0-1,0.3-1.7,1-2.3c0.7-0.5,1.6-0.8,2.7-0.8c1.1,0,2.2,0.2,3.3,0.7l-0.6,1.5c-1-0.4-1.9-0.6-2.7-0.6
			c-0.6,0-1.1,0.1-1.4,0.4s-0.5,0.6-0.5,1c0,0.3,0.1,0.6,0.2,0.8s0.3,0.4,0.6,0.6c0.3,0.2,0.8,0.4,1.5,0.7c0.8,0.3,1.5,0.7,1.8,1
			s0.7,0.6,0.9,1C248,1298.9,248.1,1299.4,248.1,1299.9z"/>
		<path class="st3" d="M253.9,1303.2c-1.3,0-2.4-0.4-3.2-1.2s-1.1-1.9-1.1-3.2c0-1.4,0.4-2.5,1.1-3.3s1.7-1.2,2.9-1.2
			c1.1,0,2,0.3,2.7,1c0.7,0.7,1,1.6,1,2.9v1h-5.8c0,0.8,0.3,1.5,0.7,1.9c0.4,0.5,1,0.7,1.8,0.7c0.5,0,1,0,1.4-0.1
			c0.4-0.1,0.9-0.3,1.4-0.5v1.5c-0.4,0.2-0.9,0.4-1.4,0.5C255,1303.1,254.5,1303.2,253.9,1303.2z M253.5,1295.6
			c-0.6,0-1.1,0.2-1.4,0.6s-0.6,0.9-0.6,1.6h3.9c0-0.7-0.2-1.3-0.5-1.6C254.6,1295.8,254.1,1295.6,253.5,1295.6z"/>
		<path class="st3" d="M261.2,1303h-1.8v-12.2h1.8V1303z"/>
		<path class="st3" d="M267.6,1303.2c-1.3,0-2.4-0.4-3.2-1.2s-1.1-1.9-1.1-3.2c0-1.4,0.4-2.5,1.1-3.3s1.7-1.2,2.9-1.2
			c1.1,0,2,0.3,2.7,1c0.7,0.7,1,1.6,1,2.9v1h-5.8c0,0.8,0.3,1.5,0.7,1.9c0.4,0.5,1,0.7,1.8,0.7c0.5,0,1,0,1.4-0.1
			c0.4-0.1,0.9-0.3,1.4-0.5v1.5c-0.4,0.2-0.9,0.4-1.4,0.5C268.7,1303.1,268.2,1303.2,267.6,1303.2z M267.2,1295.6
			c-0.6,0-1.1,0.2-1.4,0.6s-0.6,0.9-0.6,1.6h3.9c0-0.7-0.2-1.3-0.5-1.6C268.3,1295.8,267.8,1295.6,267.2,1295.6z"/>
		<path class="st3" d="M276.5,1303.2c-1.3,0-2.3-0.4-3-1.1s-1-1.9-1-3.3c0-1.5,0.4-2.6,1.1-3.4s1.7-1.2,3.1-1.2
			c0.9,0,1.7,0.2,2.5,0.5l-0.6,1.5c-0.8-0.3-1.4-0.5-1.9-0.5c-1.5,0-2.2,1-2.2,3c0,1,0.2,1.7,0.6,2.2c0.4,0.5,0.9,0.7,1.6,0.7
			c0.8,0,1.6-0.2,2.3-0.6v1.6c-0.3,0.2-0.7,0.3-1.1,0.4C277.5,1303.1,277,1303.2,276.5,1303.2z"/>
		<path class="st3" d="M284.4,1303.2c-1.3,0-2.3-0.4-3-1.1s-1-1.9-1-3.3c0-1.5,0.4-2.6,1.1-3.4s1.7-1.2,3.1-1.2
			c0.9,0,1.7,0.2,2.5,0.5l-0.6,1.5c-0.8-0.3-1.4-0.5-1.9-0.5c-1.5,0-2.2,1-2.2,3c0,1,0.2,1.7,0.6,2.2c0.4,0.5,0.9,0.7,1.6,0.7
			c0.8,0,1.6-0.2,2.3-0.6v1.6c-0.3,0.2-0.7,0.3-1.1,0.4C285.4,1303.1,284.9,1303.2,284.4,1303.2z"/>
		<path class="st3" d="M288.7,1292.1c0-0.3,0.1-0.6,0.3-0.8s0.4-0.3,0.8-0.3c0.3,0,0.6,0.1,0.8,0.3s0.3,0.4,0.3,0.8
			c0,0.3-0.1,0.6-0.3,0.7s-0.4,0.3-0.8,0.3c-0.3,0-0.6-0.1-0.8-0.3S288.7,1292.4,288.7,1292.1z M290.7,1303h-1.8v-8.6h1.8V1303z"/>
		<path class="st3" d="M301,1298.7c0,1.4-0.4,2.5-1.1,3.3c-0.7,0.8-1.7,1.2-3,1.2c-0.8,0-1.5-0.2-2.1-0.5c-0.6-0.4-1.1-0.9-1.4-1.6
			c-0.3-0.7-0.5-1.5-0.5-2.4c0-1.4,0.4-2.5,1.1-3.3s1.7-1.2,3-1.2c1.3,0,2.2,0.4,3,1.2C300.6,1296.2,301,1297.3,301,1298.7z
			 M294.7,1298.7c0,2,0.7,3,2.2,3c1.5,0,2.2-1,2.2-3c0-2-0.7-3-2.2-3c-0.8,0-1.3,0.3-1.7,0.8C294.9,1297,294.7,1297.7,294.7,1298.7z
			 M295.7,1293.3v-0.2c0.3-0.4,0.6-0.8,0.9-1.2c0.3-0.4,0.6-0.8,0.7-1.1h2.1v0.2c-0.3,0.3-0.7,0.7-1.2,1.2s-1,0.9-1.4,1.2H295.7z"/>
		<path class="st3" d="M310.7,1303h-1.8v-5.3c0-0.7-0.1-1.2-0.4-1.5c-0.3-0.3-0.7-0.5-1.3-0.5c-0.8,0-1.3,0.2-1.7,0.7
			s-0.5,1.2-0.5,2.3v4.3h-1.8v-8.6h1.4l0.3,1.1h0.1c0.3-0.4,0.6-0.7,1.1-1c0.5-0.2,1-0.3,1.6-0.3c2.1,0,3.1,1.1,3.1,3.2V1303z"/>
		<path class="st3" d="M316.1,1294.4h2l1.8,4.9c0.3,0.7,0.4,1.4,0.5,2h0.1c0-0.3,0.1-0.6,0.3-1s0.8-2.4,2-5.8h2l-3.7,9.8
			c-0.7,1.8-1.8,2.7-3.4,2.7c-0.4,0-0.8,0-1.2-0.1v-1.5c0.3,0.1,0.6,0.1,0.9,0.1c0.9,0,1.5-0.5,1.9-1.5l0.3-0.8L316.1,1294.4z"/>
	</g>
	<g class="st2">
		<path class="st3" d="M246.4,1315c-1.1,0-1.9,0.4-2.5,1.1c-0.6,0.8-0.9,1.8-0.9,3.1c0,1.4,0.3,2.5,0.9,3.2c0.6,0.7,1.4,1.1,2.6,1.1
			c0.5,0,1,0,1.4-0.1s0.9-0.2,1.4-0.4v1.6c-0.9,0.3-1.9,0.5-3,0.5c-1.7,0-3-0.5-3.9-1.5c-0.9-1-1.3-2.5-1.3-4.3
			c0-1.2,0.2-2.2,0.7-3.1c0.4-0.9,1.1-1.6,1.9-2c0.8-0.5,1.8-0.7,2.9-0.7c1.2,0,2.2,0.2,3.2,0.7l-0.7,1.6c-0.4-0.2-0.8-0.3-1.2-0.5
			S246.8,1315,246.4,1315z"/>
		<path class="st3" d="M253.3,1325h-1.8v-12.2h1.8V1325z"/>
		<path class="st3" d="M261.3,1325l-0.4-1.2h-0.1c-0.4,0.5-0.8,0.9-1.3,1.1s-1,0.3-1.6,0.3c-0.8,0-1.5-0.2-2-0.7s-0.7-1.1-0.7-1.9
			c0-0.9,0.3-1.6,1-2c0.7-0.5,1.7-0.7,3-0.7l1.5,0v-0.5c0-0.6-0.1-1-0.4-1.2s-0.7-0.4-1.2-0.4c-0.4,0-0.9,0.1-1.3,0.2
			s-0.8,0.3-1.2,0.5l-0.6-1.3c0.5-0.2,1-0.4,1.5-0.6c0.6-0.1,1.1-0.2,1.6-0.2c1.1,0,1.9,0.2,2.5,0.7c0.6,0.5,0.8,1.2,0.8,2.3v5.8
			H261.3z M258.6,1323.8c0.7,0,1.2-0.2,1.6-0.6c0.4-0.4,0.6-0.9,0.6-1.6v-0.8l-1.1,0c-0.9,0-1.5,0.2-1.9,0.4
			c-0.4,0.3-0.6,0.7-0.6,1.2c0,0.4,0.1,0.7,0.3,0.9C257.8,1323.6,258.1,1323.8,258.6,1323.8z"/>
		<path class="st3" d="M271,1322.5c0,0.8-0.3,1.5-0.9,1.9c-0.6,0.5-1.5,0.7-2.6,0.7c-1.2,0-2.1-0.2-2.8-0.5v-1.6
			c1,0.5,2,0.7,2.8,0.7c1.1,0,1.7-0.3,1.7-1c0-0.2-0.1-0.4-0.2-0.5s-0.3-0.3-0.6-0.5c-0.3-0.2-0.7-0.3-1.2-0.5c-1-0.4-1.7-0.8-2-1.2
			s-0.5-0.9-0.5-1.5c0-0.7,0.3-1.3,0.9-1.7c0.6-0.4,1.4-0.6,2.4-0.6c1,0,2,0.2,2.9,0.6l-0.6,1.4c-0.9-0.4-1.7-0.6-2.4-0.6
			c-1,0-1.5,0.3-1.5,0.8c0,0.3,0.1,0.5,0.4,0.7c0.3,0.2,0.8,0.4,1.7,0.8c0.7,0.3,1.2,0.5,1.6,0.8c0.3,0.2,0.6,0.5,0.7,0.8
			S271,1322.1,271,1322.5z"/>
		<path class="st3" d="M272.9,1314.1c0-0.3,0.1-0.6,0.3-0.8s0.4-0.3,0.8-0.3c0.3,0,0.6,0.1,0.8,0.3s0.3,0.4,0.3,0.8
			c0,0.3-0.1,0.6-0.3,0.7s-0.4,0.3-0.8,0.3c-0.3,0-0.6-0.1-0.8-0.3S272.9,1314.4,272.9,1314.1z M274.8,1325H273v-8.6h1.8V1325z"/>
		<path class="st3" d="M281.8,1317.8h-2.1v7.3h-1.8v-7.3h-1.4v-0.9l1.4-0.6v-0.6c0-1,0.2-1.8,0.7-2.3c0.5-0.5,1.2-0.7,2.2-0.7
			c0.6,0,1.3,0.1,1.9,0.3l-0.5,1.4c-0.5-0.1-0.9-0.2-1.3-0.2c-0.4,0-0.7,0.1-0.9,0.4c-0.2,0.3-0.3,0.6-0.3,1.2v0.6h2.1V1317.8z
			 M283.1,1314.1c0-0.3,0.1-0.6,0.3-0.8s0.4-0.3,0.8-0.3c0.3,0,0.6,0.1,0.8,0.3s0.3,0.4,0.3,0.8c0,0.3-0.1,0.6-0.3,0.7
			s-0.4,0.3-0.8,0.3c-0.3,0-0.6-0.1-0.8-0.3S283.1,1314.4,283.1,1314.1z M285.1,1325h-1.8v-8.6h1.8V1325z"/>
		<path class="st3" d="M291.2,1325.2c-1.3,0-2.3-0.4-3-1.1s-1-1.9-1-3.3c0-1.5,0.4-2.6,1.1-3.4s1.7-1.2,3.1-1.2
			c0.9,0,1.7,0.2,2.5,0.5l-0.6,1.5c-0.8-0.3-1.4-0.5-1.9-0.5c-1.5,0-2.2,1-2.2,3c0,1,0.2,1.7,0.6,2.2c0.4,0.5,0.9,0.7,1.6,0.7
			c0.8,0,1.6-0.2,2.3-0.6v1.6c-0.3,0.2-0.7,0.3-1.1,0.4C292.2,1325.1,291.7,1325.2,291.2,1325.2z"/>
		<path class="st3" d="M301,1325l-0.4-1.2h-0.1c-0.4,0.5-0.8,0.9-1.3,1.1s-1,0.3-1.6,0.3c-0.8,0-1.5-0.2-2-0.7s-0.7-1.1-0.7-1.9
			c0-0.9,0.3-1.6,1-2c0.7-0.5,1.7-0.7,3-0.7l1.5,0v-0.5c0-0.6-0.1-1-0.4-1.2s-0.7-0.4-1.2-0.4c-0.4,0-0.9,0.1-1.3,0.2
			s-0.8,0.3-1.2,0.5l-0.6-1.3c0.5-0.2,1-0.4,1.5-0.6c0.6-0.1,1.1-0.2,1.6-0.2c1.1,0,1.9,0.2,2.5,0.7c0.6,0.5,0.8,1.2,0.8,2.3v5.8
			H301z M298.3,1323.8c0.7,0,1.2-0.2,1.6-0.6c0.4-0.4,0.6-0.9,0.6-1.6v-0.8l-1.1,0c-0.9,0-1.5,0.2-1.9,0.4c-0.4,0.3-0.6,0.7-0.6,1.2
			c0,0.4,0.1,0.7,0.3,0.9C297.5,1323.6,297.9,1323.8,298.3,1323.8z"/>
		<path class="st3" d="M308.4,1325.2c-1.3,0-2.3-0.4-3-1.1s-1-1.9-1-3.3c0-1.5,0.4-2.6,1.1-3.4s1.7-1.2,3.1-1.2
			c0.9,0,1.7,0.2,2.5,0.5l-0.6,1.5c-0.8-0.3-1.4-0.5-1.9-0.5c-1.5,0-2.2,1-2.2,3c0,1,0.2,1.7,0.6,2.2c0.4,0.5,0.9,0.7,1.6,0.7
			c0.8,0,1.6-0.2,2.3-0.6v1.6c-0.3,0.2-0.7,0.3-1.1,0.4C309.4,1325.1,308.9,1325.2,308.4,1325.2z"/>
		<path class="st3" d="M312.7,1314.1c0-0.3,0.1-0.6,0.3-0.8s0.4-0.3,0.8-0.3c0.3,0,0.6,0.1,0.8,0.3s0.3,0.4,0.3,0.8
			c0,0.3-0.1,0.6-0.3,0.7s-0.4,0.3-0.8,0.3c-0.3,0-0.6-0.1-0.8-0.3S312.7,1314.4,312.7,1314.1z M314.7,1325h-1.8v-8.6h1.8V1325z"/>
		<path class="st3" d="M325,1320.7c0,1.4-0.4,2.5-1.1,3.3c-0.7,0.8-1.7,1.2-3,1.2c-0.8,0-1.5-0.2-2.1-0.5c-0.6-0.4-1.1-0.9-1.4-1.6
			c-0.3-0.7-0.5-1.5-0.5-2.4c0-1.4,0.4-2.5,1.1-3.3s1.7-1.2,3-1.2c1.3,0,2.2,0.4,3,1.2C324.6,1318.2,325,1319.3,325,1320.7z
			 M318.7,1320.7c0,2,0.7,3,2.2,3c1.5,0,2.2-1,2.2-3c0-2-0.7-3-2.2-3c-0.8,0-1.3,0.3-1.7,0.8C318.9,1319,318.7,1319.7,318.7,1320.7z
			 M319.7,1315.3v-0.2c0.3-0.4,0.6-0.8,0.9-1.2c0.3-0.4,0.6-0.8,0.7-1.1h2.1v0.2c-0.3,0.3-0.7,0.7-1.2,1.2s-1,0.9-1.4,1.2H319.7z"/>
		<path class="st3" d="M334.7,1325h-1.8v-5.3c0-0.7-0.1-1.2-0.4-1.5c-0.3-0.3-0.7-0.5-1.3-0.5c-0.8,0-1.3,0.2-1.7,0.7
			s-0.5,1.2-0.5,2.3v4.3h-1.8v-8.6h1.4l0.3,1.1h0.1c0.3-0.4,0.6-0.7,1.1-1c0.5-0.2,1-0.3,1.6-0.3c2.1,0,3.1,1.1,3.1,3.2V1325z"/>
	</g>
	<g class="st2">
		<path class="st3" d="M460.4,1240.4v4.6h-1.9v-11.4h3.2c1.5,0,2.6,0.3,3.3,0.8c0.7,0.6,1.1,1.4,1.1,2.5c0,1.4-0.7,2.4-2.2,3
			l3.2,5.1H465l-2.7-4.6H460.4z M460.4,1238.9h1.3c0.9,0,1.5-0.2,1.9-0.5s0.6-0.8,0.6-1.4c0-0.6-0.2-1.1-0.6-1.4s-1.1-0.4-1.9-0.4
			h-1.2V1238.9z"/>
		<path class="st3" d="M472.3,1245.2c-1.3,0-2.4-0.4-3.2-1.2s-1.1-1.9-1.1-3.2c0-1.4,0.4-2.5,1.1-3.3s1.7-1.2,2.9-1.2
			c1.1,0,2,0.3,2.7,1c0.7,0.7,1,1.6,1,2.9v1h-5.8c0,0.8,0.3,1.5,0.7,1.9c0.4,0.5,1,0.7,1.8,0.7c0.5,0,1,0,1.4-0.1
			c0.4-0.1,0.9-0.3,1.4-0.5v1.5c-0.4,0.2-0.9,0.4-1.4,0.5C473.4,1245.1,472.9,1245.2,472.3,1245.2z M472,1237.6
			c-0.6,0-1.1,0.2-1.4,0.6s-0.6,0.9-0.6,1.6h3.9c0-0.7-0.2-1.3-0.5-1.6C473,1237.8,472.6,1237.6,472,1237.6z"/>
		<path class="st3" d="M480.7,1245.2c-1.1,0-1.9-0.4-2.5-1.2c-0.6-0.8-0.9-1.9-0.9-3.3c0-1.4,0.3-2.5,0.9-3.3
			c0.6-0.8,1.5-1.2,2.5-1.2c1.1,0,2,0.4,2.6,1.3h0.1c-0.1-0.6-0.1-1.1-0.1-1.5v-3.1h1.8v12.2h-1.4l-0.3-1.1h-0.1
			C482.7,1244.7,481.8,1245.2,480.7,1245.2z M481.2,1243.7c0.8,0,1.3-0.2,1.6-0.6s0.5-1.1,0.5-2.1v-0.3c0-1.1-0.2-1.9-0.5-2.3
			c-0.4-0.5-0.9-0.7-1.7-0.7c-0.6,0-1.1,0.3-1.5,0.8c-0.3,0.5-0.5,1.3-0.5,2.2c0,1,0.2,1.7,0.5,2.2
			C480,1243.4,480.5,1243.7,481.2,1243.7z"/>
		<path class="st3" d="M493.8,1245l-0.3-1.1h-0.1c-0.3,0.4-0.6,0.7-1.1,0.9c-0.5,0.2-1,0.3-1.6,0.3c-1,0-1.8-0.3-2.3-0.8
			s-0.8-1.3-0.8-2.4v-5.6h1.9v5.3c0,0.7,0.1,1.2,0.4,1.5c0.3,0.3,0.7,0.5,1.3,0.5c0.8,0,1.3-0.2,1.7-0.7c0.4-0.5,0.5-1.2,0.5-2.3
			v-4.3h1.8v8.6H493.8z"/>
		<path class="st3" d="M501.4,1245.2c-1.3,0-2.3-0.4-3-1.1s-1-1.9-1-3.3c0-1.5,0.4-2.6,1.1-3.4s1.7-1.2,3.1-1.2
			c0.9,0,1.7,0.2,2.5,0.5l-0.6,1.5c-0.8-0.3-1.4-0.5-1.9-0.5c-1.5,0-2.2,1-2.2,3c0,1,0.2,1.7,0.6,2.2c0.4,0.5,0.9,0.7,1.6,0.7
			c0.8,0,1.6-0.2,2.3-0.6v1.6c-0.3,0.2-0.7,0.3-1.1,0.4C502.4,1245.1,501.9,1245.2,501.4,1245.2z"/>
		<path class="st3" d="M509.3,1245.2c-1.3,0-2.3-0.4-3-1.1s-1-1.9-1-3.3c0-1.5,0.4-2.6,1.1-3.4s1.7-1.2,3.1-1.2
			c0.9,0,1.7,0.2,2.5,0.5l-0.6,1.5c-0.8-0.3-1.4-0.5-1.9-0.5c-1.5,0-2.2,1-2.2,3c0,1,0.2,1.7,0.6,2.2c0.4,0.5,0.9,0.7,1.6,0.7
			c0.8,0,1.6-0.2,2.3-0.6v1.6c-0.3,0.2-0.7,0.3-1.1,0.4C510.3,1245.1,509.8,1245.2,509.3,1245.2z"/>
		<path class="st3" d="M513.6,1234.1c0-0.3,0.1-0.6,0.3-0.8s0.4-0.3,0.8-0.3c0.3,0,0.6,0.1,0.8,0.3s0.3,0.4,0.3,0.8
			c0,0.3-0.1,0.6-0.3,0.7s-0.4,0.3-0.8,0.3c-0.3,0-0.6-0.1-0.8-0.3S513.6,1234.4,513.6,1234.1z M515.6,1245h-1.8v-8.6h1.8V1245z"/>
		<path class="st3" d="M525.9,1240.7c0,1.4-0.4,2.5-1.1,3.3c-0.7,0.8-1.7,1.2-3,1.2c-0.8,0-1.5-0.2-2.1-0.5
			c-0.6-0.4-1.1-0.9-1.4-1.6c-0.3-0.7-0.5-1.5-0.5-2.4c0-1.4,0.4-2.5,1.1-3.3s1.7-1.2,3-1.2c1.3,0,2.2,0.4,3,1.2
			C525.5,1238.2,525.9,1239.3,525.9,1240.7z M519.6,1240.7c0,2,0.7,3,2.2,3c1.5,0,2.2-1,2.2-3c0-2-0.7-3-2.2-3
			c-0.8,0-1.3,0.3-1.7,0.8C519.7,1239,519.6,1239.7,519.6,1240.7z M520.6,1235.3v-0.2c0.3-0.4,0.6-0.8,0.9-1.2
			c0.3-0.4,0.6-0.8,0.7-1.1h2.1v0.2c-0.3,0.3-0.7,0.7-1.2,1.2s-1,0.9-1.4,1.2H520.6z"/>
		<path class="st3" d="M535.6,1245h-1.8v-5.3c0-0.7-0.1-1.2-0.4-1.5c-0.3-0.3-0.7-0.5-1.3-0.5c-0.8,0-1.3,0.2-1.7,0.7
			s-0.5,1.2-0.5,2.3v4.3H528v-8.6h1.4l0.3,1.1h0.1c0.3-0.4,0.6-0.7,1.1-1c0.5-0.2,1-0.3,1.6-0.3c2.1,0,3.1,1.1,3.1,3.2V1245z"/>
		<path class="st3" d="M545.2,1245.2c-1.1,0-1.9-0.4-2.5-1.2c-0.6-0.8-0.9-1.9-0.9-3.3c0-1.4,0.3-2.5,0.9-3.3
			c0.6-0.8,1.5-1.2,2.5-1.2c1.1,0,2,0.4,2.6,1.3h0.1c-0.1-0.6-0.1-1.1-0.1-1.5v-3.1h1.8v12.2h-1.4l-0.3-1.1h-0.1
			C547.2,1244.7,546.3,1245.2,545.2,1245.2z M545.7,1243.7c0.8,0,1.3-0.2,1.6-0.6s0.5-1.1,0.5-2.1v-0.3c0-1.1-0.2-1.9-0.5-2.3
			c-0.4-0.5-0.9-0.7-1.7-0.7c-0.6,0-1.1,0.3-1.5,0.8c-0.3,0.5-0.5,1.3-0.5,2.2c0,1,0.2,1.7,0.5,2.2
			C544.5,1243.4,545,1243.7,545.7,1243.7z"/>
		<path class="st3" d="M556,1245.2c-1.3,0-2.4-0.4-3.2-1.2s-1.1-1.9-1.1-3.2c0-1.4,0.4-2.5,1.1-3.3s1.7-1.2,2.9-1.2
			c1.1,0,2,0.3,2.7,1c0.7,0.7,1,1.6,1,2.9v1h-5.8c0,0.8,0.3,1.5,0.7,1.9c0.4,0.5,1,0.7,1.8,0.7c0.5,0,1,0,1.4-0.1
			c0.4-0.1,0.9-0.3,1.4-0.5v1.5c-0.4,0.2-0.9,0.4-1.4,0.5C557.1,1245.1,556.6,1245.2,556,1245.2z M555.7,1237.6
			c-0.6,0-1.1,0.2-1.4,0.6s-0.6,0.9-0.6,1.6h3.9c0-0.7-0.2-1.3-0.5-1.6C556.7,1237.8,556.3,1237.6,555.7,1237.6z"/>
	</g>
	<g class="st2">
		<path class="st3" d="M461.5,1265.7c0.4,0,0.9-0.1,1.3-0.2v1.4c-0.2,0.1-0.5,0.2-0.8,0.2s-0.7,0.1-1,0.1c-1.7,0-2.6-0.9-2.6-2.8
			v-4.7h-1.2v-0.8l1.3-0.7l0.6-1.8h1.1v1.9h2.5v1.4h-2.5v4.6c0,0.4,0.1,0.8,0.3,1C460.9,1265.6,461.2,1265.7,461.5,1265.7z"/>
		<path class="st3" d="M470,1267l-0.4-1.2h-0.1c-0.4,0.5-0.8,0.9-1.3,1.1s-1,0.3-1.6,0.3c-0.8,0-1.5-0.2-2-0.7s-0.7-1.1-0.7-1.9
			c0-0.9,0.3-1.6,1-2c0.7-0.5,1.7-0.7,3-0.7l1.5,0v-0.5c0-0.6-0.1-1-0.4-1.2s-0.7-0.4-1.2-0.4c-0.4,0-0.9,0.1-1.3,0.2
			s-0.8,0.3-1.2,0.5l-0.6-1.3c0.5-0.2,1-0.4,1.5-0.6c0.6-0.1,1.1-0.2,1.6-0.2c1.1,0,1.9,0.2,2.5,0.7c0.6,0.5,0.8,1.2,0.8,2.3v5.8
			H470z M467.3,1265.8c0.7,0,1.2-0.2,1.6-0.6c0.4-0.4,0.6-0.9,0.6-1.6v-0.8l-1.1,0c-0.9,0-1.5,0.2-1.9,0.4c-0.4,0.3-0.6,0.7-0.6,1.2
			c0,0.4,0.1,0.7,0.3,0.9C466.5,1265.6,466.8,1265.8,467.3,1265.8z"/>
		<path class="st3" d="M481.2,1267h-1.8v-5.3c0-0.7-0.1-1.2-0.4-1.5s-0.6-0.5-1.2-0.5c-0.7,0-1.2,0.2-1.6,0.7
			c-0.3,0.5-0.5,1.2-0.5,2.3v4.3h-1.8v-8.6h1.4l0.3,1.1h0.1c0.2-0.4,0.6-0.7,1-1c0.5-0.2,1-0.3,1.5-0.3c1.3,0,2.2,0.5,2.6,1.4h0.1
			c0.3-0.4,0.6-0.8,1.1-1c0.5-0.2,1-0.4,1.6-0.4c1,0,1.8,0.3,2.3,0.8c0.5,0.5,0.7,1.3,0.7,2.4v5.6h-1.8v-5.3c0-0.7-0.1-1.2-0.4-1.5
			c-0.3-0.3-0.6-0.5-1.2-0.5c-0.7,0-1.2,0.2-1.6,0.7c-0.3,0.4-0.5,1.1-0.5,2.1V1267z"/>
		<path class="st3" d="M494.6,1267l-0.4-1.2h-0.1c-0.4,0.5-0.8,0.9-1.3,1.1s-1,0.3-1.6,0.3c-0.8,0-1.5-0.2-2-0.7s-0.7-1.1-0.7-1.9
			c0-0.9,0.3-1.6,1-2c0.7-0.5,1.7-0.7,3-0.7l1.5,0v-0.5c0-0.6-0.1-1-0.4-1.2s-0.7-0.4-1.2-0.4c-0.4,0-0.9,0.1-1.3,0.2
			s-0.8,0.3-1.2,0.5l-0.6-1.3c0.5-0.2,1-0.4,1.5-0.6c0.6-0.1,1.1-0.2,1.6-0.2c1.1,0,1.9,0.2,2.5,0.7c0.6,0.5,0.8,1.2,0.8,2.3v5.8
			H494.6z M491.9,1265.8c0.7,0,1.2-0.2,1.6-0.6c0.4-0.4,0.6-0.9,0.6-1.6v-0.8l-1.1,0c-0.9,0-1.5,0.2-1.9,0.4
			c-0.4,0.3-0.6,0.7-0.6,1.2c0,0.4,0.1,0.7,0.3,0.9C491,1265.6,491.4,1265.8,491.9,1265.8z"/>
		<path class="st3" d="M506.1,1267h-1.8v-5.3c0-0.7-0.1-1.2-0.4-1.5c-0.3-0.3-0.7-0.5-1.3-0.5c-0.8,0-1.3,0.2-1.7,0.7
			s-0.5,1.2-0.5,2.3v4.3h-1.8v-8.6h1.4l0.3,1.1h0.1c0.3-0.4,0.6-0.7,1.1-1c0.5-0.2,1-0.3,1.6-0.3c2.1,0,3.1,1.1,3.1,3.2V1267z
			 M503.5,1257.3c-0.2,0-0.4,0-0.6-0.1s-0.4-0.2-0.6-0.3s-0.4-0.2-0.6-0.3c-0.2-0.1-0.4-0.1-0.6-0.1c-0.4,0-0.7,0.3-0.9,0.9h-1
			c0.1-0.7,0.3-1.3,0.6-1.7c0.3-0.4,0.8-0.6,1.3-0.6c0.2,0,0.4,0,0.7,0.1c0.2,0.1,0.4,0.2,0.6,0.3s0.4,0.2,0.6,0.3
			c0.2,0.1,0.4,0.1,0.6,0.1c0.4,0,0.7-0.3,0.8-0.9h1c-0.1,0.7-0.3,1.2-0.6,1.6C504.5,1257.1,504,1257.3,503.5,1257.3z"/>
		<path class="st3" d="M516.3,1262.7c0,1.4-0.4,2.5-1.1,3.3c-0.7,0.8-1.7,1.2-3,1.2c-0.8,0-1.5-0.2-2.1-0.5
			c-0.6-0.4-1.1-0.9-1.4-1.6c-0.3-0.7-0.5-1.5-0.5-2.4c0-1.4,0.4-2.5,1.1-3.3s1.7-1.2,3-1.2c1.3,0,2.2,0.4,3,1.2
			C515.9,1260.2,516.3,1261.3,516.3,1262.7z M510,1262.7c0,2,0.7,3,2.2,3c1.5,0,2.2-1,2.2-3c0-2-0.7-3-2.2-3c-0.8,0-1.3,0.3-1.7,0.8
			C510.2,1261,510,1261.7,510,1262.7z"/>
	</g>
	<g class="st2">
		<path class="st3" d="M464,1313h-6.5v-11.4h6.5v1.6h-4.6v3.1h4.3v1.6h-4.3v3.6h4.6V1313z"/>
		<path class="st3" d="M472,1310.5c0,0.8-0.3,1.5-0.9,1.9c-0.6,0.5-1.5,0.7-2.6,0.7c-1.2,0-2.1-0.2-2.8-0.5v-1.6
			c1,0.5,2,0.7,2.8,0.7c1.1,0,1.7-0.3,1.7-1c0-0.2-0.1-0.4-0.2-0.5s-0.3-0.3-0.6-0.5c-0.3-0.2-0.7-0.3-1.2-0.5c-1-0.4-1.7-0.8-2-1.2
			s-0.5-0.9-0.5-1.5c0-0.7,0.3-1.3,0.9-1.7c0.6-0.4,1.4-0.6,2.4-0.6c1,0,2,0.2,2.9,0.6l-0.6,1.4c-0.9-0.4-1.7-0.6-2.4-0.6
			c-1,0-1.5,0.3-1.5,0.8c0,0.3,0.1,0.5,0.4,0.7c0.3,0.2,0.8,0.4,1.7,0.8c0.7,0.3,1.2,0.5,1.6,0.8c0.3,0.2,0.6,0.5,0.7,0.8
			S472,1310.1,472,1310.5z"/>
		<path class="st3" d="M477.5,1313.2c-1.3,0-2.3-0.4-3-1.1s-1-1.9-1-3.3c0-1.5,0.4-2.6,1.1-3.4s1.7-1.2,3.1-1.2
			c0.9,0,1.7,0.2,2.5,0.5l-0.6,1.5c-0.8-0.3-1.4-0.5-1.9-0.5c-1.5,0-2.2,1-2.2,3c0,1,0.2,1.7,0.6,2.2c0.4,0.5,0.9,0.7,1.6,0.7
			c0.8,0,1.6-0.2,2.3-0.6v1.6c-0.3,0.2-0.7,0.3-1.1,0.4C478.5,1313.1,478,1313.2,477.5,1313.2z"/>
		<path class="st3" d="M487.4,1313l-0.4-1.2h-0.1c-0.4,0.5-0.8,0.9-1.3,1.1s-1,0.3-1.6,0.3c-0.8,0-1.5-0.2-2-0.7s-0.7-1.1-0.7-1.9
			c0-0.9,0.3-1.6,1-2c0.7-0.5,1.7-0.7,3-0.7l1.5,0v-0.5c0-0.6-0.1-1-0.4-1.2s-0.7-0.4-1.2-0.4c-0.4,0-0.9,0.1-1.3,0.2
			s-0.8,0.3-1.2,0.5l-0.6-1.3c0.5-0.2,1-0.4,1.5-0.6c0.6-0.1,1.1-0.2,1.6-0.2c1.1,0,1.9,0.2,2.5,0.7c0.6,0.5,0.8,1.2,0.8,2.3v5.8
			H487.4z M484.6,1311.8c0.7,0,1.2-0.2,1.6-0.6c0.4-0.4,0.6-0.9,0.6-1.6v-0.8l-1.1,0c-0.9,0-1.5,0.2-1.9,0.4
			c-0.4,0.3-0.6,0.7-0.6,1.2c0,0.4,0.1,0.7,0.3,0.9C483.8,1311.6,484.2,1311.8,484.6,1311.8z"/>
		<path class="st3" d="M493.1,1313h-1.8v-12.2h1.8V1313z"/>
		<path class="st3" d="M498.6,1313.2c-1.1,0-1.9-0.4-2.5-1.2c-0.6-0.8-0.9-1.9-0.9-3.3c0-1.4,0.3-2.5,0.9-3.3
			c0.6-0.8,1.5-1.2,2.5-1.2c1.1,0,2,0.4,2.6,1.3h0.1c-0.1-0.6-0.1-1.1-0.1-1.5v-3.1h1.8v12.2h-1.4l-0.3-1.1h-0.1
			C500.6,1312.7,499.7,1313.2,498.6,1313.2z M499.1,1311.7c0.8,0,1.3-0.2,1.6-0.6s0.5-1.1,0.5-2.1v-0.3c0-1.1-0.2-1.9-0.5-2.3
			c-0.4-0.5-0.9-0.7-1.7-0.7c-0.6,0-1.1,0.3-1.5,0.8c-0.3,0.5-0.5,1.3-0.5,2.2c0,1,0.2,1.7,0.5,2.2
			C497.9,1311.4,498.4,1311.7,499.1,1311.7z"/>
		<path class="st3" d="M511.1,1313l-0.4-1.2h-0.1c-0.4,0.5-0.8,0.9-1.3,1.1s-1,0.3-1.6,0.3c-0.8,0-1.5-0.2-2-0.7s-0.7-1.1-0.7-1.9
			c0-0.9,0.3-1.6,1-2c0.7-0.5,1.7-0.7,3-0.7l1.5,0v-0.5c0-0.6-0.1-1-0.4-1.2s-0.7-0.4-1.2-0.4c-0.4,0-0.9,0.1-1.3,0.2
			s-0.8,0.3-1.2,0.5l-0.6-1.3c0.5-0.2,1-0.4,1.5-0.6c0.6-0.1,1.1-0.2,1.6-0.2c1.1,0,1.9,0.2,2.5,0.7c0.6,0.5,0.8,1.2,0.8,2.3v5.8
			H511.1z M508.3,1311.8c0.7,0,1.2-0.2,1.6-0.6c0.4-0.4,0.6-0.9,0.6-1.6v-0.8l-1.1,0c-0.9,0-1.5,0.2-1.9,0.4
			c-0.4,0.3-0.6,0.7-0.6,1.2c0,0.4,0.1,0.7,0.3,0.9C507.5,1311.6,507.9,1311.8,508.3,1311.8z"/>
		<path class="st3" d="M517.9,1313.2c-1.1,0-1.9-0.4-2.5-1.2c-0.6-0.8-0.9-1.9-0.9-3.3c0-1.4,0.3-2.5,0.9-3.3
			c0.6-0.8,1.5-1.2,2.5-1.2c1.1,0,2,0.4,2.6,1.3h0.1c-0.1-0.6-0.1-1.1-0.1-1.5v-3.1h1.8v12.2h-1.4l-0.3-1.1h-0.1
			C519.9,1312.7,519,1313.2,517.9,1313.2z M518.4,1311.7c0.8,0,1.3-0.2,1.6-0.6s0.5-1.1,0.5-2.1v-0.3c0-1.1-0.2-1.9-0.5-2.3
			c-0.4-0.5-0.9-0.7-1.7-0.7c-0.6,0-1.1,0.3-1.5,0.8c-0.3,0.5-0.5,1.3-0.5,2.2c0,1,0.2,1.7,0.5,2.2
			C517.2,1311.4,517.7,1311.7,518.4,1311.7z"/>
		<path class="st3" d="M532.6,1308.7c0,1.4-0.4,2.5-1.1,3.3c-0.7,0.8-1.7,1.2-3,1.2c-0.8,0-1.5-0.2-2.1-0.5
			c-0.6-0.4-1.1-0.9-1.4-1.6c-0.3-0.7-0.5-1.5-0.5-2.4c0-1.4,0.4-2.5,1.1-3.3s1.7-1.2,3-1.2c1.3,0,2.2,0.4,3,1.2
			C532.2,1306.2,532.6,1307.3,532.6,1308.7z M526.3,1308.7c0,2,0.7,3,2.2,3c1.5,0,2.2-1,2.2-3c0-2-0.7-3-2.2-3
			c-0.8,0-1.3,0.3-1.7,0.8C526.5,1307,526.3,1307.7,526.3,1308.7z"/>
	</g>
	<g id="Grupo_7952" transform="translate(27 -600)">
		<path id="Trazado_13811" class="st4" d="M182.5,1778c8,0,14.5,6.5,14.5,14.5s-6.5,14.5-14.5,14.5s-14.5-6.5-14.5-14.5
			S174.5,1778,182.5,1778z"/>
		<g id="Grupo_7951" transform="translate(173.17 1783.17)">
			<rect id="rectangle" x="-0.2" y="-0.2" class="st5" width="20" height="20"/>
			<path id="path" class="st6" d="M7.5,13.5L4,10l-1.2,1.2l4.6,4.6l9.9-9.9l-1.2-1.2L7.5,13.5z"/>
		</g>
	</g>
	<g id="Grupo_7955" transform="translate(242 -600)">
		<path id="Trazado_13811-2" class="st4" d="M182.5,1778c8,0,14.5,6.5,14.5,14.5s-6.5,14.5-14.5,14.5s-14.5-6.5-14.5-14.5
			S174.5,1778,182.5,1778z"/>
		<g id="Grupo_7951-2" transform="translate(173.17 1783.17)">
			<rect id="rectangle-2" x="-0.2" y="-0.2" class="st5" width="20" height="20"/>
			<path id="path-2" class="st6" d="M7.5,13.5L4,10l-1.2,1.2l4.6,4.6l9.9-9.9l-1.2-1.2L7.5,13.5z"/>
		</g>
	</g>
	<g id="Grupo_7953" transform="translate(27 -545)">
		<circle id="Elipse_681" class="st4" cx="182.5" cy="1792.5" r="14.5"/>
		<g id="Grupo_7951-3" transform="translate(173.17 1783.17)">
			<rect id="rectangle-3" x="-0.2" y="-0.2" class="st5" width="20" height="20"/>
			<path id="path-3" class="st6" d="M7.5,13.5L4,10l-1.2,1.2l4.6,4.6l9.9-9.9l-1.2-1.2L7.5,13.5z"/>
		</g>
	</g>
	<g id="Grupo_7956" transform="translate(242 -545)">
		<circle id="Elipse_681-2" class="st4" cx="182.5" cy="1792.5" r="14.5"/>
		<g id="Grupo_7951-4" transform="translate(173.17 1783.17)">
			<rect id="rectangle-4" x="-0.2" y="-0.2" class="st5" width="20" height="20"/>
			<path id="path-4" class="st6" d="M7.5,13.5L4,10l-1.2,1.2l4.6,4.6l9.9-9.9l-1.2-1.2L7.5,13.5z"/>
		</g>
	</g>
	<g id="Grupo_7954" transform="translate(27 -485)">
		<circle id="Elipse_681-3" class="st4" cx="182.5" cy="1792.5" r="14.5"/>
		<g id="Grupo_7951-5" transform="translate(173.17 1783.17)">
			<rect id="rectangle-5" x="-0.2" y="-0.2" class="st5" width="20" height="20"/>
			<path id="path-5" class="st6" d="M7.5,13.5L4,10l-1.2,1.2l4.6,4.6l9.9-9.9l-1.2-1.2L7.5,13.5z"/>
		</g>
	</g>
	<g id="Grupo_7957" transform="translate(242 -485)">
		<circle id="Elipse_681-4" class="st4" cx="182.5" cy="1792.5" r="14.5"/>
		<g id="Grupo_7951-6" transform="translate(173.17 1783.17)">
			<rect id="rectangle-6" x="-0.2" y="-0.2" class="st5" width="20" height="20"/>
			<path id="path-6" class="st6" d="M7.5,13.5L4,10l-1.2,1.2l4.6,4.6l9.9-9.9l-1.2-1.2L7.5,13.5z"/>
		</g>
	</g>
	<g id="Grupo_8022" transform="translate(252.234 810.9)">
		<g id="Grupo_7980" transform="translate(481.318 310.1)">
			<g id="Grupo_7958" transform="translate(63.307)">
				<rect id="Rectángulo_3383" x="0" y="2.2" class="st7" width="5.6" height="4.9"/>
				<rect id="Rectángulo_3384" x="0.7" y="0" class="st7" width="4.1" height="7.1"/>
				<rect id="Rectángulo_3385" x="1.3" y="0" class="st8" width="2.1" height="2"/>
				<path id="Trazado_13812" class="st8" d="M3.4,6L0.7,6V2.3h2.7V6z"/>
			</g>
			<g id="Grupo_7961" transform="translate(3.245 160.034)">
				<g id="Grupo_7959">
					<rect id="Rectángulo_3386" x="2" y="0" class="st9" width="11.7" height="62.9"/>
					<rect id="Rectángulo_3387" x="0" y="62.9" class="st9" width="15.7" height="4"/>
					<rect id="Rectángulo_3388" x="8.4" y="62.9" class="st7" width="7.3" height="4"/>
					<path id="Trazado_13813" class="st7" d="M2,62.9h11.7V25.3L2,24.3v1.5l6.8,1v35.4H2V62.9z"/>
					<path id="Trazado_13814" class="st10" d="M7,28.8l-3.5-0.5v33H7V28.8z"/>
					<rect id="Rectángulo_3389" x="0.9" y="62.9" class="st10" width="1" height="4"/>
					<rect id="Rectángulo_3390" x="2.9" y="62.9" class="st10" width="3.2" height="4"/>
				</g>
				<g id="Grupo_7960" transform="translate(109.999)">
					<rect id="Rectángulo_3391" x="2" y="0" class="st9" width="11.7" height="62.9"/>
					<rect id="Rectángulo_3392" x="0" y="62.9" class="st9" width="15.7" height="4"/>
					<rect id="Rectángulo_3393" x="8.4" y="62.9" class="st7" width="7.3" height="4"/>
					<path id="Trazado_13815" class="st7" d="M2,62.9h11.7V24.3L2,25v2.1l6.8-0.4v35.4H2V62.9z"/>
					<path id="Trazado_13816" class="st10" d="M7,28.1l-3.5,0.2v33H7V28.1z"/>
					<rect id="Rectángulo_3394" x="0.9" y="62.9" class="st10" width="1" height="4"/>
					<rect id="Rectángulo_3395" x="2.9" y="62.9" class="st10" width="3.2" height="4"/>
				</g>
			</g>
			<path id="Trazado_13817" class="st9" d="M132.2,182.4H0V51.5l41.4-11.7h49.5l41.4,11.7L132.2,182.4z"/>
			<rect id="Rectángulo_3396" x="41.4" y="13.9" class="st9" width="49.5" height="38.5"/>
			<path id="Trazado_13818" class="st9" d="M93.2,15.4H39v-4.9c0,0,14.1-4.1,27-4.1s27.2,4.1,27.2,4.1L93.2,15.4z"/>
			<rect id="Rectángulo_3397" x="0" y="57.6" class="st11" width="132.2" height="41"/>
			<g id="Grupo_7962" transform="translate(0.001 61.141)">
				<rect id="Rectángulo_3398" x="0" y="0" class="st9" width="132.2" height="1.8"/>
				<rect id="Rectángulo_3399" x="0" y="4.6" class="st9" width="132.2" height="1.8"/>
				<rect id="Rectángulo_3400" x="0" y="9.1" class="st9" width="132.2" height="1.8"/>
				<rect id="Rectángulo_3401" x="0" y="13.7" class="st9" width="132.2" height="1.8"/>
				<rect id="Rectángulo_3402" x="0" y="18.3" class="st9" width="132.2" height="1.8"/>
				<rect id="Rectángulo_3403" x="0" y="22.9" class="st9" width="132.2" height="1.8"/>
				<rect id="Rectángulo_3404" x="0" y="27.4" class="st9" width="132.2" height="1.8"/>
				<rect id="Rectángulo_3405" x="0" y="32" class="st9" width="132.2" height="1.8"/>
			</g>
			<path id="Rectángulo_3406" class="st11" d="M0,127.5h32.6c0.6,0,1.2,0.5,1.2,1.2v38.7c0,0.6-0.5,1.2-1.2,1.2H0l0,0V127.5
				L0,127.5z"/>
			<g id="Grupo_7963" transform="translate(0.001 131.034)">
				<rect id="Rectángulo_3407" x="0" y="0" class="st9" width="29.9" height="1.8"/>
				<rect id="Rectángulo_3408" x="0" y="4.6" class="st9" width="29.9" height="1.8"/>
				<rect id="Rectángulo_3409" x="0" y="9.1" class="st9" width="29.9" height="1.8"/>
				<rect id="Rectángulo_3410" x="0" y="13.7" class="st9" width="29.9" height="1.8"/>
				<rect id="Rectángulo_3411" x="0" y="18.3" class="st9" width="29.9" height="1.8"/>
				<rect id="Rectángulo_3412" x="0" y="22.9" class="st9" width="29.9" height="1.8"/>
				<rect id="Rectángulo_3413" x="0" y="27.4" class="st9" width="29.9" height="1.8"/>
				<rect id="Rectángulo_3414" x="0" y="32" class="st9" width="29.9" height="1.8"/>
			</g>
			<path id="Trazado_13819" class="st12" d="M41.4,15.4h49.5v24.4l41.4,11.7v130.8H88.7V51.5L76,39.8V17l-34.7-0.4L41.4,15.4z"/>
			<g id="Grupo_7964" transform="translate(102.279 131.034)">
				<rect id="Rectángulo_3415" x="0" y="0" class="st9" width="29.9" height="1.8"/>
				<rect id="Rectángulo_3416" x="0" y="4.6" class="st9" width="29.9" height="1.8"/>
				<rect id="Rectángulo_3417" x="0" y="9.1" class="st9" width="29.9" height="1.8"/>
				<rect id="Rectángulo_3418" x="0" y="13.7" class="st9" width="29.9" height="1.8"/>
				<rect id="Rectángulo_3419" x="0" y="18.3" class="st9" width="29.9" height="1.8"/>
				<rect id="Rectángulo_3420" x="0" y="22.9" class="st9" width="29.9" height="1.8"/>
				<rect id="Rectángulo_3421" x="0" y="27.4" class="st9" width="29.9" height="1.8"/>
				<rect id="Rectángulo_3422" x="0" y="32" class="st9" width="29.9" height="1.8"/>
			</g>
			<g id="Grupo_7965" transform="translate(102.4 130.943)" class="st13">
				<rect id="Rectángulo_3423" x="0" y="0" class="st14" width="17.4" height="1.8"/>
				<rect id="Rectángulo_3424" x="0" y="4.6" class="st14" width="17.4" height="1.8"/>
				<rect id="Rectángulo_3425" x="0" y="9.1" class="st14" width="17.4" height="1.8"/>
				<rect id="Rectángulo_3426" x="0" y="13.7" class="st14" width="17.4" height="1.8"/>
				<rect id="Rectángulo_3427" x="0" y="18.3" class="st14" width="17.4" height="1.8"/>
				<rect id="Rectángulo_3428" x="0" y="22.9" class="st14" width="17.4" height="1.8"/>
				<rect id="Rectángulo_3429" x="0" y="27.4" class="st14" width="17.4" height="1.8"/>
				<rect id="Rectángulo_3430" x="0" y="32" class="st14" width="17.4" height="1.8"/>
			</g>
			<path id="Trazado_13820" class="st8" d="M64,49.5H12.6l35-9.8h20.2L64,49.5z"/>
			<path id="Rectángulo_3431" class="st11" d="M99.6,127.5h32.6l0,0v41l0,0H99.6c-0.6,0-1.2-0.5-1.2-1.2v-38.7
				C98.4,128,99,127.5,99.6,127.5C99.6,127.5,99.6,127.5,99.6,127.5z"/>
			<rect id="Rectángulo_3432" x="0" y="108.7" class="st11" width="132.2" height="4.8"/>
			<rect id="Rectángulo_3433" x="7.9" y="51.6" class="st8" width="56.1" height="130.7"/>
			<g id="Grupo_7973" transform="translate(48.911 134.894)">
				<path id="Trazado_13821" class="st15" d="M30.4,3.5H4c-2.2,0-4,1.8-4,4v33.1c0,2.2,1.8,4,4,4h1.1c0.6,0.5,1.3,0.8,2,0.8h20.2
					c0.7,0,1.5-0.3,2-0.8h1.1c2.2,0,4-1.8,4-4V7.5C34.4,5.3,32.6,3.5,30.4,3.5C30.4,3.5,30.4,3.5,30.4,3.5z"/>
				<path id="Rectángulo_3434" class="st7" d="M2.5,0h29.5c1.4,0,2.5,1.1,2.5,2.5v36.2c0,1.4-1.1,2.5-2.5,2.5H2.5
					C1.1,41.1,0,40,0,38.6V2.5C0,1.1,1.1,0,2.5,0z"/>
				<path id="Rectángulo_3435" class="st9" d="M5.9,5h22.6c1,0,1.9,0.8,1.9,1.9v27.4c0,1-0.8,1.9-1.9,1.9H5.9c-1,0-1.9-0.8-1.9-1.9
					V6.8C4.1,5.8,4.9,5,5.9,5z"/>
				<path id="Trazado_13822" class="st15" d="M5.7,34.5L17,20L5.2,6.6L4.4,9.5C4.4,9.5,4,35.5,5.7,34.5z"/>
				<path id="Trazado_13823" class="st15" d="M28.3,34.5L17,20L28.8,6.6l0.8,2.8C29.6,9.5,30,35.5,28.3,34.5z"/>
				<path id="Trazado_13824" class="st16" d="M27.3,5H7.1C5.4,5,4.1,6.3,4.1,8c0,0,0,0,0,0v25.1c0,1.7,1.4,3,3.1,3h20.2
					c1.7,0,3.1-1.4,3.1-3c0,0,0,0,0,0V8C30.3,6.3,29,5,27.3,5C27.3,5,27.3,5,27.3,5z M29.3,32c0,1.5-1.3,2.8-2.8,2.8H8
					c-1.5,0-2.8-1.2-2.8-2.8v-23c0-1.5,1.3-2.8,2.8-2.8h18.5c1.5,0,2.8,1.2,2.8,2.8V32z"/>
				<path id="Trazado_13825" class="st17" d="M30.4,0H4C1.8,0,0,1.8,0,4v0.7c0-2.2,1.8-4,4-4h26.4c2.2,0,4,1.8,4,4V4
					C34.4,1.8,32.6,0,30.4,0z"/>
				<path id="Trazado_13826" class="st15" d="M30.4,41.1H4c-2.2,0-4-1.8-4-4v-0.7c0,2.2,1.8,4,4,4h26.4c2.2,0,4-1.8,4-4v0.7
					C34.4,39.3,32.6,41.1,30.4,41.1z"/>
				<g id="Grupo_7970" transform="translate(0.96 2.239)">
					<g id="Grupo_7966" transform="translate(0.995)">
						<path id="Trazado_13827" class="st16" d="M1.8,0.9c0,0.5-0.4,0.9-0.9,0.9C0.4,1.8,0,1.4,0,0.9C0,0.4,0.4,0,0.9,0
							C1.4,0,1.8,0.4,1.8,0.9C1.8,0.9,1.8,0.9,1.8,0.9z"/>
						<path id="Trazado_13828" class="st16" d="M9,0.9c0,0.5-0.4,0.9-0.9,0.9c-0.5,0-0.9-0.4-0.9-0.9C7.2,0.4,7.6,0,8.1,0
							C8.6,0,9,0.4,9,0.9C9,0.9,9,0.9,9,0.9z"/>
						<path id="Trazado_13829" class="st16" d="M16.1,0.9c0,0.5-0.4,0.9-0.9,0.9c-0.5,0-0.9-0.4-0.9-0.9c0-0.5,0.4-0.9,0.9-0.9
							C15.7,0,16.1,0.4,16.1,0.9C16.1,0.9,16.1,0.9,16.1,0.9z"/>
						<path id="Trazado_13830" class="st16" d="M23.3,0.9c0,0.5-0.4,0.9-0.9,0.9c-0.5,0-0.9-0.4-0.9-0.9c0-0.5,0.4-0.9,0.9-0.9
							C22.9,0,23.3,0.4,23.3,0.9C23.3,0.9,23.3,0.9,23.3,0.9z"/>
						<path id="Trazado_13831" class="st16" d="M30.5,0.9c0,0.5-0.4,0.9-0.9,0.9c-0.5,0-0.9-0.4-0.9-0.9c0-0.5,0.4-0.9,0.9-0.9
							C30.1,0,30.5,0.4,30.5,0.9C30.5,0.9,30.5,0.9,30.5,0.9z"/>
					</g>
					<g id="Grupo_7967" transform="translate(0.995 34.758)">
						<path id="Trazado_13832" class="st16" d="M1.8,0.9c0,0.5-0.4,0.9-0.9,0.9C0.4,1.8,0,1.4,0,0.9C0,0.4,0.4,0,0.9,0
							C1.4,0,1.8,0.4,1.8,0.9z"/>
						<path id="Trazado_13833" class="st16" d="M9,0.9c0,0.5-0.4,0.9-0.9,0.9c-0.5,0-0.9-0.4-0.9-0.9C7.2,0.4,7.6,0,8.1,0
							c0,0,0,0,0,0C8.6,0,9,0.4,9,0.9z"/>
						<path id="Trazado_13834" class="st16" d="M16.1,0.9c0,0.5-0.4,0.9-0.9,0.9s-0.9-0.4-0.9-0.9S14.8,0,15.2,0
							C15.7,0,16.1,0.4,16.1,0.9z"/>
						<path id="Trazado_13835" class="st16" d="M23.3,0.9c0,0.5-0.4,0.9-0.9,0.9c-0.5,0-0.9-0.4-0.9-0.9c0-0.5,0.4-0.9,0.9-0.9
							C22.9,0,23.3,0.4,23.3,0.9z"/>
						<path id="Trazado_13836" class="st16" d="M30.5,0.9c0,0.5-0.4,0.9-0.9,0.9c-0.5,0-0.9-0.4-0.9-0.9c0-0.5,0.4-0.9,0.9-0.9
							c0,0,0,0,0,0C30.1,0,30.5,0.4,30.5,0.9z"/>
					</g>
					<g id="Grupo_7968" transform="translate(0 6.646)">
						<path id="Trazado_13837" class="st16" d="M0.9,1.8C0.4,1.8,0,1.4,0,0.9C0,0.4,0.4,0,0.9,0c0.5,0,0.9,0.4,0.9,0.9c0,0,0,0,0,0
							C1.8,1.4,1.4,1.8,0.9,1.8L0.9,1.8z"/>
						<path id="Trazado_13838" class="st16" d="M0.9,9C0.4,9,0,8.6,0,8.1s0.4-0.9,0.9-0.9s0.9,0.4,0.9,0.9S1.4,9,0.9,9L0.9,9z"/>
						<path id="Trazado_13839" class="st16" d="M0.9,16.1c-0.5,0-0.9-0.4-0.9-0.9c0-0.5,0.4-0.9,0.9-0.9c0.5,0,0.9,0.4,0.9,0.9
							S1.4,16.1,0.9,16.1C0.9,16.1,0.9,16.1,0.9,16.1z"/>
						<path id="Trazado_13840" class="st16" d="M0.9,23.3c-0.5,0-0.9-0.4-0.9-0.9c0-0.5,0.4-0.9,0.9-0.9c0.5,0,0.9,0.4,0.9,0.9
							c0,0,0,0,0,0C1.8,22.9,1.4,23.3,0.9,23.3L0.9,23.3z"/>
					</g>
					<g id="Grupo_7969" transform="translate(30.706 6.646)">
						<path id="Trazado_13841" class="st16" d="M0.9,1.8C0.4,1.8,0,1.4,0,0.9C0,0.4,0.4,0,0.9,0c0.5,0,0.9,0.4,0.9,0.9
							C1.8,1.4,1.4,1.8,0.9,1.8C0.9,1.8,0.9,1.8,0.9,1.8z"/>
						<path id="Trazado_13842" class="st16" d="M0.9,9C0.4,9,0,8.6,0,8.1c0-0.5,0.4-0.9,0.9-0.9c0.5,0,0.9,0.4,0.9,0.9
							C1.8,8.6,1.4,9,0.9,9C0.9,9,0.9,9,0.9,9z"/>
						<path id="Trazado_13843" class="st16" d="M0.9,16.1c-0.5,0-0.9-0.4-0.9-0.9c0-0.5,0.4-0.9,0.9-0.9c0.5,0,0.9,0.4,0.9,0.9
							C1.8,15.7,1.4,16.1,0.9,16.1C0.9,16.1,0.9,16.1,0.9,16.1z"/>
						<path id="Trazado_13844" class="st16" d="M0.9,23.3c-0.5,0-0.9-0.4-0.9-0.9c0-0.5,0.4-0.9,0.9-0.9c0.5,0,0.9,0.4,0.9,0.9
							C1.8,22.9,1.4,23.3,0.9,23.3C0.9,23.3,0.9,23.3,0.9,23.3z"/>
					</g>
				</g>
				<g id="Grupo_7971" transform="translate(4.052 33.076)">
					<path id="Trazado_13845" class="st9" d="M23.2,3H3.1C1.4,3,0,1.7,0,0c0,0,0,0,0,0v5.7c0,1.7,1.4,3,3,3c0,0,0,0,0,0h20.2
						c1.7,0,3-1.4,3-3c0,0,0,0,0,0V0C26.3,1.7,24.9,3,23.2,3z"/>
				</g>
				<path id="Trazado_13846" class="st18" d="M30.4,38.8v-5.7c0,1.7-1.4,3-3.1,3c0,0,0,0,0,0H7.1c-1.7,0-3.1-1.3-3.1-3c0,0,0,0,0,0
					v5.7c0,0.8,0.3,1.6,0.9,2.2c0.1-1.3,0.5-3.5,1.6-3.5h20.9c1.1,0,1.6,1.6,2.1,3.3C30.1,40.3,30.4,39.6,30.4,38.8z"/>
				<path id="Trazado_13847" class="st17" d="M29.9,34.7v3.8c0,2-1.3,2.8-2.9,2.8H7.5c-1.5,0.2-2.8-0.9-2.9-2.3c0-0.1,0-0.3,0-0.4
					v-3.8c-0.3-0.5-0.5-1.1-0.5-1.7v5.7c0,1.7,1.4,3,3,3c0,0,0,0,0,0h20.2c1.7,0,3-1.4,3-3c0,0,0,0,0,0v-5.7
					C30.3,33.7,30.2,34.2,29.9,34.7z"/>
				<g id="Grupo_7972" transform="translate(3.092 13.149)">
					<rect id="Rectángulo_3436" x="0" y="13.1" class="st17" width="28.2" height="1.6"/>
					<rect id="Rectángulo_3437" x="0" y="0" class="st17" width="28.2" height="1.6"/>
				</g>
				<rect id="Rectángulo_3438" x="4.1" y="14.8" class="st15" width="26.3" height="1.1"/>
				<rect id="Rectángulo_3439" x="4.1" y="27.9" class="st15" width="26.3" height="1.1"/>
			</g>
			<g id="Grupo_7976" transform="translate(91.505 111.319)">
				<path id="Trazado_13848" class="st15" d="M10.4,7.4c0,2.9-2.3,5.2-5.2,5.2C2.3,12.7,0,10.3,0,7.4c0-2.9,2.3-5.2,5.2-5.2
					c0,0,0,0,0,0C8.1,2.2,10.4,4.6,10.4,7.4z"/>
				<path id="Trazado_13849" class="st7" d="M10.4,5.2c0,2.9-2.3,5.2-5.2,5.2C2.3,10.4,0,8.1,0,5.2C0,2.3,2.3,0,5.2,0
					C8.1,0,10.4,2.3,10.4,5.2C10.4,5.2,10.4,5.2,10.4,5.2z"/>
				<path id="Trazado_13850" class="st18" d="M10,5.2C10,7.9,7.9,10,5.2,10S0.4,7.9,0.4,5.2s2.1-4.8,4.8-4.8h0
					C7.9,0.4,10,2.6,10,5.2z"/>
				<path id="Trazado_13851" class="st19" d="M9.6,5.2c0,2.4-1.9,4.4-4.4,4.4S0.9,7.6,0.9,5.2c0-2.4,1.9-4.4,4.4-4.4l0,0
					C7.6,0.9,9.6,2.8,9.6,5.2z"/>
				<path id="Trazado_13852" class="st20" d="M2.4,8.1l5.6-5.6C6.5,0.9,4,0.9,2.4,2.4S0.9,6.5,2.4,8.1z"/>
				<g id="Grupo_7975" transform="translate(1.675 1.567)">
					<g id="Grupo_7974">
						<rect id="Rectángulo_3440" x="3.3" y="0" class="st21" width="0.6" height="1.2"/>
						<path id="Trazado_13853" class="st21" d="M5.6,2.3L5.3,1.9l0.9-0.7l0.3,0.5L5.6,2.3z"/>
						<path id="Trazado_13854" class="st21" d="M5.8,4.5L6,4l1.1,0.3L6.9,4.8L5.8,4.5z"/>
						<path id="Trazado_13855" class="st21" d="M1.5,2.3l0.3-0.5L0.9,1.2L0.5,1.6L1.5,2.3z"/>
						<path id="Trazado_13856" class="st21" d="M1.3,4.5L1.1,4L0,4.3l0.1,0.5L1.3,4.5z"/>
					</g>
					<path id="Trazado_13857" class="st21" d="M4,3.7c0,0.3-0.2,0.5-0.5,0.5S3.1,3.9,3.1,3.7c0-0.3,0.2-0.5,0.5-0.5
						C3.8,3.2,4,3.4,4,3.7z"/>
					<path id="Trazado_13858" class="st21" d="M3.8,2.5c0-0.7,0-1.3-0.2-1.9C3.3,1.2,3.3,1.9,3.3,2.5c0,0.8,0.1,1.1,0.2,1.1
						S3.8,3.4,3.8,2.5z"/>
				</g>
			</g>
			<path id="Trazado_13859" class="st7" d="M132.2,183.9l-65.8,5.9L0,183.9v-1.6h132.2V183.9z"/>
			<rect id="Rectángulo_3441" x="62.2" y="188.6" class="st7" width="7.8" height="13.7"/>
			<path id="Trazado_13860" class="st9" d="M70,212.5h-7.8v-9.8c0-2.2,1.7-3.9,3.9-3.9l0,0c2.2,0,3.9,1.7,3.9,3.9L70,212.5z"/>
			<rect id="Rectángulo_3442" x="61.4" y="193.3" class="st7" width="9.5" height="3"/>
			<rect id="Rectángulo_3443" x="61" y="211.8" class="st9" width="10.2" height="2.7"/>
			<rect id="Rectángulo_3444" x="47.7" y="17.9" class="st8" width="20.1" height="20.3"/>
			<rect id="Rectángulo_3445" x="39" y="12.1" class="st7" width="54.2" height="1.3"/>
			<rect id="Rectángulo_3446" x="72.4" y="10.4" class="st22" width="20.8" height="5"/>
			<path id="Trazado_13861" class="st8" d="M47.6,9.2h31.1C78.7,9.2,66,4,47.6,9.2z"/>
			<rect id="Rectángulo_3447" x="41.5" y="13.5" class="st23" width="28.3" height="1"/>
			<rect id="Rectángulo_3448" x="41.5" y="10.4" class="st23" width="28.3" height="1"/>
			<rect id="Rectángulo_3449" x="67" y="211.8" class="st15" width="4.3" height="2.7"/>
			<rect id="Rectángulo_3450" x="62" y="211.8" class="st10" width="3.2" height="2.7"/>
			<g id="Grupo_7977" transform="translate(5.977 61.141)" class="st13">
				<rect id="Rectángulo_3451" x="0" y="0" class="st14" width="60.3" height="1.8"/>
				<rect id="Rectángulo_3452" x="0" y="4.6" class="st14" width="60.3" height="1.8"/>
				<rect id="Rectángulo_3453" x="0" y="9.1" class="st14" width="60.3" height="1.8"/>
				<rect id="Rectángulo_3454" x="0" y="13.7" class="st14" width="60.3" height="1.8"/>
				<rect id="Rectángulo_3455" x="0" y="18.3" class="st14" width="60.3" height="1.8"/>
				<rect id="Rectángulo_3456" x="0" y="22.9" class="st14" width="60.3" height="1.8"/>
				<rect id="Rectángulo_3457" x="0" y="27.4" class="st14" width="60.3" height="1.8"/>
				<rect id="Rectángulo_3458" x="0" y="32" class="st14" width="60.3" height="1.8"/>
			</g>
			<g id="Grupo_7978" transform="translate(5.977 130.943)" class="st13">
				<rect id="Rectángulo_3459" x="0" y="0" class="st14" width="23.8" height="1.8"/>
				<rect id="Rectángulo_3460" x="0" y="4.6" class="st14" width="23.8" height="1.8"/>
				<rect id="Rectángulo_3461" x="0" y="9.1" class="st14" width="23.8" height="1.8"/>
				<rect id="Rectángulo_3462" x="0" y="13.7" class="st14" width="23.8" height="1.8"/>
				<rect id="Rectángulo_3463" x="0" y="18.3" class="st14" width="23.8" height="1.8"/>
				<rect id="Rectángulo_3464" x="0" y="22.9" class="st14" width="23.8" height="1.8"/>
				<rect id="Rectángulo_3465" x="0" y="27.4" class="st14" width="23.8" height="1.8"/>
				<rect id="Rectángulo_3466" x="0" y="32" class="st14" width="23.8" height="1.8"/>
			</g>
			<path id="Trazado_13862" class="st10" d="M66.1,210.8h-3.2v-8.7c-0.1-1.3,0.9-2.5,2.2-2.6c0,0,0,0,0.1,0c1,0,0.9,2.6,0.9,2.6
				V210.8z"/>
			<path id="Trazado_13863" class="st15" d="M65.7,198.8c1.4,0.7,2.3,2.2,2.1,3.8v8.7l-5.7,0v0.4H70v-9.1c0-2.2-1.7-3.9-3.9-3.9
				C66,198.7,65.9,198.8,65.7,198.8z"/>
			<path id="Trazado_13864" class="st24" d="M0,52.8v-1.3c0,0,86.1-0.6,86.1,0.5S0,52.8,0,52.8z"/>
			<path id="Trazado_13865" class="st24" d="M0,182.2v-1.3c0,0,86.1-0.2,86.1,0.9S0,182.2,0,182.2z"/>
			<g id="Grupo_7979" transform="translate(22.322 30.373)">
				<path id="Trazado_13866" class="st7" d="M39,2.6c0,1.4-1.1,2.6-2.6,2.6S33.9,4,33.9,2.6S35.1,0,36.5,0S39,1.1,39,2.6L39,2.6z"/>
				<path id="Trazado_13867" class="st7" d="M21.9,140.1c0,1.4-1.1,2.6-2.6,2.6s-2.6-1.1-2.6-2.6c0-1.4,1.1-2.6,2.6-2.6
					C20.7,137.6,21.9,138.7,21.9,140.1z"/>
				<path id="Trazado_13868" class="st7" d="M14.2,140.1c0,1.4-1.1,2.6-2.6,2.6S9,141.5,9,140.1c0-1.4,1.1-2.6,2.6-2.6
					C13,137.6,14.2,138.7,14.2,140.1z"/>
				<path id="Trazado_13869" class="st25" d="M18.8,140.9H0.7c-0.4,0-0.7-0.3-0.7-0.7c0,0,0,0,0,0V2.6c0-0.4,0.3-0.7,0.7-0.7
					c0,0,0,0,0,0h35.7c0.4,0,0.7,0.3,0.8,0.7c0,0.4-0.3,0.7-0.7,0.8c0,0,0,0-0.1,0h-35v136.1h17.3c0.4,0,0.7,0.3,0.7,0.7
					C19.5,140.6,19.2,140.9,18.8,140.9L18.8,140.9z"/>
				<path id="Trazado_13870" class="st26" d="M18.8,141.1h-6.3c-0.5,0-0.9-0.4-0.9-0.9c0,0,0,0,0,0V2.6c0-0.5,0.4-0.9,0.9-0.9h24
					c0.5,0,0.9,0.4,0.9,0.9c0,0.5-0.4,0.9-0.9,0.9H13.4v135.8h5.4c0.5,0,0.9,0.4,0.9,0.9C19.7,140.7,19.3,141.1,18.8,141.1
					L18.8,141.1z"/>
			</g>
		</g>
		<g id="Grupo_8021" transform="translate(386.766 340.288)">
			<g id="Grupo_7982" transform="translate(10.393 83.427)">
				<path id="Trazado_13871" class="st27" d="M27.1,108.9C14,55.1-7,27,2.3,5.5c4-9.4,20.3-4,29.4-3.6c0,0,6.1,7.3,5.9,16.9
					s-6.1,39.2-6.1,39.2s4.9,15.1,4.6,20.2s-4.3,25.1-5,30.9L27.1,108.9z"/>
				<path id="Trazado_13872" class="st28" d="M1.4,7.9c10.5-2.9,21.3-4.1,32.2-3.5l-0.3-0.5C22.5,3.3,11.8,4.5,1.5,7.5L1.4,7.9z"/>
				<path id="Trazado_13873" class="st28" d="M11.5,19.2l3.6,2c0,0,6.8,35,7,37.6s6.5,41.8,7.1,50.2h2c0,0,4.6-27.2,5-30.9
					c0.4-3.4-2.4-13-4.6-20.2c0,0,6-28,6.1-39.2c0,0-6.6,41.6-11.1,41.5s-9.1-39.3-9.1-39.3l3.4-2.1L11.5,19.2z"/>
				<path id="Trazado_13874" class="st28" d="M8.2,50.5c0,0,5.1,11.7,7.7,11.1c4-1,0.8-29.5-0.8-40.4l1.7,0.6
					c0,0,13.4,83.6,12.5,87.2H27C21.8,89.1,15.5,69.6,8.2,50.5z"/>
				<path id="Trazado_13875" class="st28" d="M12.8,3.3l2.4,17.2l0.8-0.1L13.5,3.2L12.8,3.3z"/>
				<path id="Trazado_13876" class="st28" d="M1.1,8.7l6-1.3c0,0,0.5,7.7-7.1,8.7C0.1,13.6,0.4,11.1,1.1,8.7z"/>
				<path id="Trazado_13877" class="st28" d="M23.2,5.5c3.6-0.4,7.2-0.4,10.8-0.2c1.3,2.3,2.2,4.7,2.9,7.2
					C36.9,12.5,25.1,14.4,23.2,5.5z"/>
				<path id="Trazado_13878" class="st28" d="M16.4,2.7L18,13.8c0,0-0.5,1-2.8,1.8l0.1,0.7c0,0,3.3-1.5,3.3-2.5S17.1,2.6,17.1,2.6
					L16.4,2.7z"/>
				<g id="Grupo_7981" transform="translate(0.363 7.252)">
					<path id="Trazado_13879" class="st29" d="M8.2,0.6c0-0.3,0-0.5,0-0.5L8.8,0c0,0,0,0.2,0.1,0.5L8.2,0.6z"/>
					<path id="Trazado_13880" class="st29" d="M1.7,10.3L1.5,9.6c0.3-0.1,0.7-0.2,1-0.3l0.3,0.7C2.4,10.1,2.1,10.2,1.7,10.3z
						 M3.7,9.5L3.4,8.8C3.7,8.7,4,8.5,4.3,8.3l0.4,0.6C4.4,9.1,4.1,9.3,3.7,9.5L3.7,9.5z M5.5,8.3L5.1,7.7c0.3-0.2,0.5-0.4,0.7-0.7
						l0.5,0.5C6.1,7.8,5.8,8.1,5.5,8.3L5.5,8.3z M7.1,6.7L6.5,6.3C6.7,6,6.9,5.7,7,5.4l0.6,0.4C7.5,6.1,7.3,6.4,7.1,6.7L7.1,6.7z
						 M8.1,4.8L7.5,4.5c0.1-0.3,0.2-0.6,0.3-1l0.7,0.2C8.4,4.1,8.3,4.5,8.1,4.8L8.1,4.8z M8.7,2.7L8,2.6c0.1-0.3,0.1-0.7,0.1-1
						l0.7,0C8.8,2,8.8,2.4,8.7,2.7L8.7,2.7z"/>
					<path id="Trazado_13881" class="st29" d="M0.1,10.7L0,10c0.2,0,0.3-0.1,0.5-0.1l0.2,0.7C0.5,10.6,0.3,10.7,0.1,10.7z"/>
				</g>
				<path id="Trazado_13882" class="st29" d="M34.5,14.8h-0.4l0-0.7h0.4c0.2,0,0.4,0,0.6,0l0,0.7C34.9,14.8,34.7,14.8,34.5,14.8z
					 M33.1,14.7c-0.4,0-0.7-0.1-1-0.1l0.1-0.7c0.3,0,0.7,0.1,1,0.1L33.1,14.7z M36.2,14.7l0-0.7c0.3,0,0.7,0,1-0.1l0.1,0.7
					C36.9,14.7,36.5,14.7,36.2,14.7L36.2,14.7z M31,14.5c-0.4-0.1-0.7-0.1-1-0.2l0.2-0.7c0.3,0.1,0.6,0.1,1,0.2L31,14.5z M29,14
					c-0.3-0.1-0.7-0.2-1-0.4l0.3-0.7c0.3,0.1,0.6,0.2,0.9,0.3L29,14z M27,13.2c-0.3-0.2-0.6-0.3-0.9-0.5l0.4-0.6
					c0.3,0.2,0.6,0.3,0.9,0.5L27,13.2z M25.3,12.1c-0.3-0.2-0.5-0.4-0.8-0.7l0.5-0.5c0.2,0.2,0.5,0.4,0.7,0.6L25.3,12.1z M23.8,10.6
					c-0.2-0.3-0.4-0.6-0.6-0.8l0.6-0.4c0.2,0.3,0.4,0.5,0.6,0.8L23.8,10.6z M22.6,8.8c-0.2-0.3-0.3-0.6-0.4-1l0.7-0.3
					c0.1,0.3,0.3,0.6,0.4,0.9L22.6,8.8z M21.8,6.9c-0.1-0.3-0.2-0.7-0.2-1.1l0.7-0.1c0,0.3,0.1,0.6,0.2,0.9L21.8,6.9z"/>
				<circle id="Elipse_682" class="st30" cx="15" cy="3.3" r="1"/>
			</g>
			<path id="Trazado_13883" class="st31" d="M8.8,71.2c0,0,9.6-10.9,15.7-15.9c0,0,1.2-15.2-2.9-13.6C16.7,43.5,0.1,63.2,0,71.8
				C2.9,72.1,5.9,71.9,8.8,71.2z"/>
			<path id="Trazado_13884" class="st32" d="M12.6,89c0,0,14.8-4.3,29.5-3.8c0,0-7.3-8.6-7.4-11c0-1.5,6.2-8.5,10.7-14.4
				c2.7-3.5,4.2-11.2,3.1-11.9c-2.5-1.6-13.3-9.4-27.1-6.3c0,0-7.1,12-7,14.2c0.3,5.5,4.1,12.6,4,16.3S15.8,82.7,12.6,89z"/>
			<path id="Trazado_13885" class="st33" d="M39.6,192.3v4.5h6.1c-0.1-0.3-0.3-0.5-0.6-0.7c-0.7-0.4-3.1-1.5-3.4-1.8s-0.1-2-0.1-2
				L39.6,192.3z"/>
			<path id="Trazado_13886" class="st34" d="M37.4,192.3c0,0,0.2,0.9,0.3,1.7c0.1,1-6.5,1.9-6.4,2.8h8.3v-4.5L37.4,192.3z"/>
			<g id="Grupo_7988" transform="translate(22.47)">
				<path id="Trazado_13887" class="st35" d="M29.5,10c0,0,2.5-3.2,5.7-2.5s5.7,4.4,5.3,6.9c-0.9,5.9-8.5,10.6-9.1,12.9
					s2.7,2.2,2.7,2.2s-3.4,2.5-6.3,0.1s2.1-16.8,2.1-16.8L29.5,10z"/>
				<path id="Trazado_13888" class="st36" d="M4.8,12.6c1.7,6.9,2.9,18.2,10,20c8.6,2.2,17.4-9.3,17.4-17.2C32.7,3.8,14.9-4.8,8.8,3
					C6,5.4,4.6,9,4.8,12.6z"/>
				<path id="Trazado_13889" class="st37" d="M21.6,28.3c0,0-4.8,9.8-3.6,15c0,0-5.2-0.9-12.4-2.4c0,0,3.4-1.1,4.1-8L21.6,28.3z"/>
				<path id="Trazado_13890" class="st38" d="M9.7,33c-0.1,1.4-0.5,2.7-0.9,4l0,0.1c1.2,2.8,3.1,5.2,5.6,7c1.2-0.1,2.4-0.4,3.6-0.8
					c-1.2-5.2,3.6-15,3.6-15L9.7,33z"/>
				<path id="Trazado_13891" class="st39" d="M2.5,22c-1.7,8.5,3.6,14.5,5.3,14.9s11.3-0.3,13.8-8.6c3.4-11,3.8-18.7-6.1-20.9
					S4.4,12.4,2.5,22z"/>
				<g id="Grupo_7983" transform="translate(6.667 7.385)">
					<path id="Trazado_13892" class="st37" d="M0.2,29c1.3,0.3,8.2-1.6,10.3-8.6c3-10.1,3.1-17.5-1.7-20.3
						c10.5,1.8,9.3,10.5,6.1,20.9c-2.6,8.3-12.2,9-13.8,8.6c-0.4-0.1-0.8-0.4-1.1-0.6C0.1,28.9,0.1,28.9,0.2,29z"/>
				</g>
				<path id="Trazado_13893" class="st36" d="M13,6.9c13.3,2.2,6.3,17.2,7.6,18.1c1,0.6,3.2-2.1,3.2-2.1s3.1-13.3-2-15.3
					C15.3,4.9,13,6.9,13,6.9z"/>
				<path id="Trazado_13894" class="st38" d="M8.9,17.2c0,0,1.5,2.9,1.1,4.6s-3.7,3-3.7,3c0.7,1.2,1.7,2.1,2.9,2.7
					c0,0-3.2-0.1-3.6-2.6c0.1-0.4,2.7-1,3.4-3.3C9.4,20,9.3,18.5,8.9,17.2z"/>
				<path id="Trazado_13895" class="st36" d="M12.9,16.8c-0.1,0.3,0.9,0.7,2.4,1.3s2.9,1.1,3,0.9s-1.1-1.2-2.6-1.8
					S13,16.6,12.9,16.8z"/>
				<path id="Trazado_13896" class="st36" d="M3.3,15.6c0,0.3,1.4,0.3,3.5,0.4c1.8,0,1-0.9-0.7-1C4.1,15,3.3,15.4,3.3,15.6z"/>
				<g id="Grupo_7984" transform="translate(11.931 20.554)">
					<path id="Trazado_13897" class="st40" d="M4.6,2.1c0,0-1.5,1.4-2.9,1.1S0.4,1.1,0.4,1.1s1.1-1.3,2.2-0.9
						C3.5,0.6,4.2,1.2,4.6,2.1z"/>
					<path id="Trazado_13898" class="st41" d="M0.7,1.7C0.4,2.4,0.8,3.2,1.5,3.4C2.2,3.6,3,3.3,3.2,2.6S3.1,1.1,2.4,0.9
						c0,0-0.1,0-0.1,0C1.6,0.6,0.9,1,0.7,1.7z"/>
					<path id="Trazado_13899" class="st42" d="M0,1.6c0,0,1.3-1.1,2.3-0.6c0.9,0.4,1.7,0.9,2.5,1.5l1.5-1L4.9,1.5
						C4.9,1.5,2-1.9,0,1.6z"/>
				</g>
				<g id="Grupo_7985" transform="translate(2.706 18.76)">
					<path id="Trazado_13900" class="st40" d="M4.6,1.9c0,0-1.1,1.5-2.4,1.2S1.1,1,1.1,1s0.5-1.2,1.6-0.8C3.5,0.5,4.2,1.2,4.6,1.9z"
						/>
					<path id="Trazado_13901" class="st41" d="M1.3,1.7C1.2,2.4,1.6,3,2.2,3.1c0,0,0,0,0,0c0.6,0.2,1.3-0.2,1.5-0.9
						C3.8,1.6,3.4,1,2.8,0.9c0,0,0,0,0,0C2.1,0.7,1.5,1.1,1.3,1.7z"/>
					<path id="Trazado_13902" class="st42" d="M0.7,1.4C1.2,1,1.9,0.8,2.5,0.9c0.9,0.3,1.6,0.9,2.2,1.6c0.1-1.1-1.9-3.6-3.9-2L0,0
						L0.7,1.4z"/>
				</g>
				<g id="Grupo_7986" transform="translate(4.5 28.335)">
					<path id="Trazado_13903" class="st42" d="M7.6,1.9C7.6,2,7.9,2,8,2c0.1,0,0.2-0.1,0.1-0.2c0-0.1-0.1-0.1-0.2-0.1
						C7.8,1.7,7.6,1.8,7.6,1.9z"/>
					<path id="Trazado_13904" class="st41" d="M0.4,0.5C0.4,0.5,0.1,0.4,0,0.3C0,0.2,0,0.1,0.1,0s0.2-0.1,0.2,0l0,0
						C0.4,0.1,0.5,0.4,0.4,0.5z"/>
					<path id="Trazado_13905" class="st43" d="M7.8,1.9L0.3,0.3c0.5,1.5,1.7,2.6,3.2,3.1C5.8,3.9,7.8,1.9,7.8,1.9z"/>
					
						<linearGradient id="Trazado_13906_1_" gradientUnits="userSpaceOnUse" x1="-542.4044" y1="379.6688" x2="-543.1194" y2="379.6138" gradientTransform="matrix(7.532 0 0 -3.1482 5774.9092 1142.9375)">
						<stop  offset="0" style="stop-color:#9A6335"/>
						<stop  offset="0.301" style="stop-color:#976034"/>
						<stop  offset="0.477" style="stop-color:#8F5931"/>
						<stop  offset="0.621" style="stop-color:#814D2C"/>
						<stop  offset="0.748" style="stop-color:#6D3B25"/>
						<stop  offset="0.864" style="stop-color:#53241B"/>
						<stop  offset="0.969" style="stop-color:#330910"/>
						<stop  offset="1" style="stop-color:#29000D"/>
					</linearGradient>
					<path id="Trazado_13906" class="st44" d="M7.8,1.9L0.3,0.3c0.5,1.5,1.7,2.6,3.2,3.1C5.8,3.9,7.8,1.9,7.8,1.9z"/>
					<path id="Trazado_13907" class="st45" d="M7.2,2L1.1,0.7C1.6,2,2.6,2.9,3.9,3.2C5.2,3.3,6.4,2.9,7.2,2z"/>
					<path id="Trazado_13908" class="st46" d="M7.2,2L1.1,0.7l0.3,0.5c0.9-0.1,1.8-0.1,2.7,0.2C5,1.6,6,1.9,6.8,2.3
						C6.8,2.3,7.1,2.1,7.2,2z"/>
				</g>
				<path id="Trazado_13909" class="st37" d="M6.5,32.6c0,0.2,0.4,0.5,1.1,0.6s1.2,0.1,1.2-0.1s-0.4-0.5-1.1-0.6S6.6,32.3,6.5,32.6z
					"/>
				<g id="Grupo_7987" transform="translate(19.792 16.132)">
					<path id="Trazado_13910" class="st35" d="M12.4,0.6C11.3,2,4.7,3,1.5,0c0.2,4.2-1.3,8.4-0.6,8.8C1,8.9,1.2,9,1.4,8.9
						c0.7-1.2,2.2-1.5,3.4-0.8c1.2,0.7,1.5,2.2,0.8,3.4c-0.7,1.2-2.2,1.5-3.4,0.8C2,12.2,1.9,12.1,1.8,12c0,0-1,2.2-1.8,4.4
						c2.5-0.5,4.2-1.9,6.2-3.8C9.5,9.4,11.7,5.2,12.4,0.6z"/>
				</g>
				<path id="Trazado_13911" class="st37" d="M20.8,25.8c-0.3,1.3,0.5,2.6,1.9,2.9c1.3,0.3,2.6-0.5,2.9-1.9c0.3-1.3-0.5-2.6-1.9-2.9
					C22.5,23.6,21.2,24.5,20.8,25.8C20.8,25.8,20.8,25.8,20.8,25.8z"/>
				<path id="Trazado_13912" class="st38" d="M23.6,26.5c0.1-0.6-0.1-1.1-0.6-1.5c0.2,0,0.4,0,0.6,0c0.7,0.1,1.2,0.9,1.1,1.6
					c-0.1,0.7-0.9,1.2-1.6,1.1c0,0,0,0-0.1,0c-0.1,0-0.3-0.1-0.4-0.2C23.1,27.4,23.5,27,23.6,26.5z"/>
				<path id="Trazado_13913" class="st36" d="M31.7,9.3c0-0.6,2.2-2,4.2-1.3s4.2,3.5,4,4.6S31.5,11.9,31.7,9.3z"/>
				<path id="Trazado_13914" class="st47" d="M13.3,1.2c0.6-1,4.9-0.7,7.1,0.2s7,3.9,5.9,5.9c-0.6,1.1-5.4-0.2-7.7-1.3
					S12.1,3.2,13.3,1.2z"/>
				<path id="Trazado_13915" class="st36" d="M20.4,11.9C19.3,3.4,6.2,0,3.5,4.9C1.6,8.3,2.5,10.8,0,11.4c0,0,3.2,3.3,10.2,2.5
					C14.8,13.4,18.1,9.9,20.4,11.9z"/>
				<path id="Trazado_13916" class="st35" d="M10.2,13.9c4.3-0.5,7.5-3.6,9.8-2.2l0,0c-0.6-1-1.7-1.6-2.8-1.8
					C15.1,9.5,8.8,15.3,0,11.4C0,11.4,3.2,14.6,10.2,13.9z"/>
				<path id="Trazado_13917" class="st47" d="M4.4,5.2c0-0.9,1.7-2.1,4.6-2s6,2,6.7,3.2s-1.7,2.2-4.6,2S4.4,7.1,4.4,5.2z"/>
			</g>
			<path id="Trazado_14025" class="st32" d="M59.5,69.1c0-0.7-6.6-5.5-14.1-9.3c0,0,0.5-7.7,3.1-11.9c8,5.4,19.2,14.1,20.8,20.7
				C65.8,69.5,62.4,69.8,59.5,69.1z"/>
			<path id="Trazado_14026" class="st48" d="M18.5,72.2c-0.1,3.8-2.7,10.5-5.9,16.9c0,0,14.8-4.3,29.5-3.8c0,0-7.3-8.6-7.4-11
				c0-1.5,6.2-8.5,10.7-14.4c6.9,3.5,13,7.9,13.9,9.1C56.5,63.3,46,56.1,46,56.1s-6.6,5.4-8.2,6s-8.1,1.4-15.2-0.9s-8-5.4-8-5.4
				l0.1,1.3C15.4,62.4,18.6,68.7,18.5,72.2z"/>
			<path id="Trazado_14027" class="st48" d="M48.6,47.9c-2.5-1.6-13-9.2-26.5-6.4c2,2.5,6.6,7.7,13.3,9.7c7.9,2.4,15.1,2.2,17.4-0.2
				C51.4,49.9,49.9,48.8,48.6,47.9z"/>
			<path id="Trazado_14028" class="st49" d="M31.8,41.6l0.6,6.5l9.2-4.7L40.5,39L31.8,41.6z"/>
			<path id="Trazado_14029" class="st49" d="M31.8,41.6l-4.7,4.2l0.6-5.8l3.2-2.7L31.8,41.6z"/>
			<path id="Trazado_14030" class="st50" d="M23.6,86.1c0,0,1.4,2.6,3,2.8c0,0-0.6-3.8-2.6-4.9S23.6,86.1,23.6,86.1z"/>
			<path id="Trazado_14031" class="st50" d="M0.5,72.5c0,0,3.7,10.2,23.7,13.6L24,84c0,0-10.6-5.3-15.9-14L0.5,72.5z"/>
			<path id="Trazado_14032" class="st31" d="M0,71.4c0,0,0.2,5.5,7.7,9.7l4.8-6c0,0-3.5-3.8-4-5.2C7.8,70.1,0,71.4,0,71.4z"/>
			<g id="Grupo_7991" transform="translate(18.154 85.338)">
				<path id="Trazado_14058" class="st30" d="M0,2.1l0.3,4.3L2,6.2L1.6,1.8L0,2.1z"/>
				<path id="Trazado_14059" class="st30" d="M14,0l0.8,4.3l-1.5,0.2l-0.7-4.4L14,0z"/>
			</g>
			<g id="Grupo_8018" transform="translate(18.167 50.449)">
				<g id="Grupo_7992" transform="translate(9.296 9.654)">
					<path id="Trazado_14060" class="st51" d="M3.6,2.6C3.7,2.4,3.9,2.1,4.1,2l0,0.1c0.2-0.2,0.4-0.4,0.7-0.4l0,0.1
						C5,1.6,5.1,1.6,5.3,1.5l0,0.1l0.4,0.6l0.1-0.1c0,0.2-0.1,0.5-0.1,0.7h0.1C5.6,3.2,5.5,3.5,5.3,3.7l0.1,0.1
						c-0.4,0.5-1,0.9-1.6,1L3.6,2.6z"/>
					<path id="Trazado_14061" class="st51" d="M3.5,5C3.3,5.3,3,5.4,2.7,5.5V5.4C2.4,5.5,2,5.5,1.7,5.4l0-0.2C1.4,5.2,1.1,5.1,0.9,5
						l0-0.1C0.7,4.7,0.6,4.7,0.4,4.6l0.1-0.1l0.1-0.7L0.5,3.7c0.2-0.1,0.4-0.2,0.6-0.2V3.4c0.3-0.1,0.7-0.1,1,0L3.5,5z"/>
					<path id="Trazado_14062" class="st51" d="M2.2,3.4C1.7,3.3,1.3,3,1.1,2.7l0.2-0.1C1.1,2.3,1,2.1,0.9,1.8l0.2,0C1,1.5,1,1.3,1,1
						l0.1,0.1l1.1-0.7V0.3c0,0,0.6,0.3,0.6,0.5L3,0.7c0,0,0.7,0.6,0.6,1l0.2-0.1c0,0.4-0.1,0.8-0.3,1.1L2.2,3.4z"/>
					<path id="Trazado_14063" class="st51" d="M0,4.2c0.6-0.5,1.5-0.8,2.3-0.8c-0.5,0-0.9-0.3-1-0.8C0.9,1.8,1.3,0.7,1.2,0
						c0,0,1.9,0.5,2.4,1.5c0.3,0.4,0.3,0.9,0,1.3C4.1,2,4.8,1.6,5.7,1.5C5.4,2.1,6.3,4.3,3.6,4.9C2.3,6,1.5,5.2,0,4.2z"/>
					<path id="Trazado_14064" class="st52" d="M3.1,4.5c0-0.2,0.1-0.4,0.2-0.6c0.2-0.4,0.4-0.7,0.6-1c0.4-0.4,0.8-0.7,1.3-1
						c0,0,0,0,0,0c0,0,0,0,0,0C4.8,2.4,4.5,2.8,4.2,3.2C4.1,3.5,4,3.8,3.9,4.1c0,0.1,0,0.3,0,0.4C3.9,4.7,3.8,5,3.6,5
						S3.1,4.9,3.1,4.7C3.1,4.6,3.1,4.6,3.1,4.5L3.1,4.5z"/>
					<path id="Trazado_14065" class="st52" d="M3.3,4.8C3.2,4.8,3.1,4.7,3,4.6C2.7,4.5,2.5,4.4,2.2,4.3C1.8,4.2,1.4,4.1,1,4.1
						c0,0,0,0,0,0c0,0,0,0,0,0c0,0,0,0,0,0c0.4-0.1,0.9-0.1,1.3-0.1c0.3,0,0.6,0,1,0.1c0.2,0,0.3,0.1,0.5,0.2l0,0
						C4,4.3,4,4.5,3.9,4.7C3.8,5,3.6,5,3.4,4.9C3.3,4.9,3.3,4.9,3.3,4.8z"/>
					<path id="Trazado_14066" class="st52" d="M1.8,0.8c0,0,0.2,0.3,0.5,0.7C2.7,2.1,3,2.7,3.3,3.2C3.7,4.1,4,5,4.3,5.9v0
						C4.4,6.1,4.3,6.4,4,6.4S3.6,6.4,3.5,6.1c0,0,0,0,0-0.1C3.4,5.2,3.2,4.3,2.9,3.4C2.7,2.8,2.4,2.2,2.2,1.6
						C1.9,1.2,1.8,0.9,1.8,0.8C1.8,0.8,1.8,0.8,1.8,0.8C1.8,0.8,1.8,0.8,1.8,0.8C1.8,0.8,1.8,0.8,1.8,0.8C1.8,0.8,1.8,0.8,1.8,0.8z"
						/>
				</g>
				<path id="Trazado_14067" class="st53" d="M17.3,14c0,0-0.2-1.1,0.3-1.5c0.4-0.3,0.9-0.4,1.4-0.4c0-0.9,0.7-1.6,1.6-1.6
					c0.9-0.1,1.7,0.4,2,1.2c0.5-0.3,1.1-0.4,1.7-0.2c1,0.4,1,1.6,1,1.6s0,1.2-2.4,2.1C20.5,16.1,17.3,14,17.3,14z"/>
				<path id="Trazado_14068" class="st54" d="M41.4,15.3c0,0.4-8.9,3.7-20.3,5.2S0.3,21,0.2,20.7s8.9-3.7,20.3-5.2
					S41.4,14.9,41.4,15.3z"/>
				<path id="Trazado_14069" class="st53" d="M8.2,15.5c0.4-0.9,1.2-1.5,2.2-1.6c1-0.1,1.9,0.2,2.6,0.9c0.2-0.6,0.6-1.1,1.2-1.4
					c1.1-0.5,2.3,0.6,2.3,0.6c1.1-0.5,2.4-0.2,3,0.8l-3,4.8l-5.4,0.2L8.2,15.5z"/>
				<g id="Grupo_7993" transform="translate(16.027 14.235)">
					<path id="Trazado_14070" class="st55" d="M2.5,0.5c0.6,0.6,0.6,1.5,0,2.1c0,0,0,0,0,0C1.9,3.2,1,3.2,0.4,2.7
						c-0.6-0.6-0.6-1.6,0-2.2C0.9-0.1,1.9-0.1,2.5,0.5C2.5,0.5,2.5,0.5,2.5,0.5z"/>
					<path id="Trazado_14071" class="st56" d="M0.4,0.4L0.4,0.4C1,0.1,1.7,0.2,2.1,0.7c0.5,0.5,0.5,1.4,0,1.9c0,0,0,0,0,0
						C1.9,2.8,1.7,2.9,1.4,3C1.8,3,2.2,2.9,2.5,2.6C3.1,2,3.1,1,2.5,0.4C1.9-0.1,1-0.1,0.4,0.4L0.4,0.4z"/>
					<path id="Trazado_14072" class="st57" d="M1.5,1.1c0.2,0.4,0.1,0.8-0.2,1.1C1,2.4,0.6,2.2,0.4,1.8C0.1,1.4,0.2,0.9,0.6,0.7
						C0.9,0.5,1.3,0.6,1.5,1.1z"/>
				</g>
				<path id="Trazado_14073" class="st58" d="M1.8,20.4c0,0-1.1-1.3,1-2.3c0,0-0.4-2.4,2.7-2.4c0,0,1.1,0.1,0.9,1.5
					c0.4-1.3,1.7-2.1,3-1.9c2.6,0.1,2.3,2.9,2.3,2.9c0.3-0.7,1-1,1.7-0.8c0.7,0.2,1.2,0.8,1.4,1.5c0,0,0.4-1.6,1.4-1.9
					c0.6-0.2,1.2-0.1,1.7,0.3c0,0,0.4-2.6,2.6-3.1s3,0.4,3,0.4s0.2-1.9,1.8-2.3c0.8-0.3,1.7-0.1,2.4,0.5c0.7-0.6,1.6-0.9,2.5-0.7
					c0.8,0.3,1.4,1.1,1.4,1.9c0,0,0.3-0.3,1.8,0.1c0.8,0.2,1.6,0.7,2.1,1.4c0,0,2.1-1.5,3.7,0c0,0-4.1,2.4-17.4,4.2
					C9.1,21.5,1.8,20.4,1.8,20.4z"/>
				<g id="Grupo_7994" transform="translate(1.299 17.814)">
					<path id="Trazado_14074" class="st59" d="M2.8,1.2C3,2,2.4,2.7,1.6,2.9C0.9,3,0.1,2.4,0,1.7C-0.1,0.9,0.4,0.2,1.1,0
						C1.9-0.1,2.7,0.4,2.8,1.2C2.8,1.2,2.8,1.2,2.8,1.2z"/>
					<path id="Trazado_14075" class="st60" d="M1.1,0L1.1,0c0.6,0,1.1,0.5,1.3,1.1c0.2,0.7-0.3,1.5-1,1.7c0,0,0,0,0,0
						c-0.3,0.1-0.5,0-0.8-0.1C1,3,1.4,3.1,1.8,3c0.8-0.2,1.3-1.1,1-1.9C2.6,0.4,1.9-0.1,1.1,0L1.1,0z"/>
					<path id="Trazado_14076" class="st61" d="M1.6,1.2C1.6,1.6,1.3,2,0.9,2C0.5,2,0.3,1.7,0.3,1.2c0-0.4,0.3-0.8,0.7-0.9
						C1.4,0.3,1.7,0.7,1.6,1.2z"/>
				</g>
				<path id="Trazado_14077" class="st62" d="M5.2,21.3c0,0,1.1-17.1,13.7-19.8s15.8,13.2,15.8,13.2l3,0.1c0,0-4.9-17.5-19.2-14.5
					S2.7,19.5,2.6,21.1C2.6,21.1,3.3,22.5,5.2,21.3z"/>
				<path id="Trazado_14078" class="st63" d="M5.2,21.3l-0.7,0c0,0,2.3-18.7,15.6-20.7c13.1-2,17.6,14.3,17.6,14.3l-0.8,0
					c0,0-4.3-15.9-16.7-13.8C7.3,3.1,5.2,21.3,5.2,21.3z"/>
				<g id="Grupo_7995" transform="translate(28.368 6.119)">
					<path id="Trazado_14079" class="st51" d="M6.4,6c0.5-0.2,1-0.2,1.5,0L7.6,6.2C8.1,6.3,8.6,6.6,9,7L8.8,7.1
						C9,7.2,9.2,7.4,9.4,7.7l-0.2,0l-0.6,1l0.2,0.2C8.5,9,8.2,9.1,7.8,9.1l0,0.2c0,0-0.8,0.5-1.3,0.1L6.4,6z"/>
					<path id="Trazado_14080" class="st51" d="M0,4.3c1.4-0.2,2.9,0.2,4,1.1C3.4,4.9,3.1,4.1,3.4,3.3C3.9,2,5.8,1,6.4,0
						c0,0,1.6,2.6,1.1,4.2C7.3,5,6.8,5.6,6.2,6c0.6-0.1,1.2,0.1,1.7,0.4c1,0.6,1.1,1.3,2,1.7C9.1,8.4,8.7,8.7,7.8,9.1
						C7.1,9.3,6.7,9.4,6.2,9S-0.2,7.4,0,4.3z"/>
					<path id="Trazado_14081" class="st52" d="M3.8,7.7C4,7.5,4.3,7.4,4.6,7.3c0.6-0.2,1.2-0.2,1.8-0.2c0.6,0,1.1,0.2,1.7,0.4
						c0.2,0.1,0.5,0.2,0.7,0.3c0,0,0,0,0,0c0,0,0,0,0,0c0,0,0,0,0,0c0,0,0,0,0,0C8.5,7.8,8.2,7.7,8,7.7C7.4,7.5,6.9,7.5,6.3,7.6
						C5.8,7.6,5.3,7.8,4.8,8C4.6,8.1,4.4,8.2,4.3,8.3C4.1,8.5,3.8,8.5,3.7,8.3C3.5,8.1,3.6,7.9,3.8,7.7C3.7,7.7,3.7,7.7,3.8,7.7
						L3.8,7.7z"/>
					<path id="Trazado_14082" class="st52" d="M3.8,8.1C3.7,7.9,3.7,7.7,3.6,7.5C3.3,7.1,3.1,6.6,2.7,6.3C2.3,5.7,1.7,5.3,1,4.9
						c0,0,0,0,0,0c0,0,0,0,0,0C1.8,5.1,2.4,5.5,3,6c0.4,0.3,0.8,0.7,1.1,1.2c0.2,0.2,0.3,0.4,0.4,0.7l0,0c0.1,0.2,0,0.4-0.2,0.5
						C4.1,8.5,3.9,8.4,3.8,8.1C3.8,8.2,3.8,8.2,3.8,8.1C3.8,8.1,3.8,8.1,3.8,8.1z"/>
					<path id="Trazado_14083" class="st51" d="M3.8,5.2C3.3,4.9,3,4.3,3,3.8l0.3,0.1c0-0.5,0-1,0.2-1.5l0.2,0.3c0,0,0.5-0.8,0.7-1.2
						l0.2,0.2c0.2-0.4,0.5-0.7,0.8-1l0.1,0.2L7,1.3l0.1-0.3c0.2,0.4,0.3,0.8,0.3,1.2l0.2-0.1c0.1,0.5,0.1,1,0,1.5l0.3,0
						C7.7,4.1,7.5,4.5,7.2,4.9L7.5,5c0,0-0.7,1-1.3,1s-0.1,0-0.1,0L3.8,5.2z"/>
					<path id="Trazado_14084" class="st52" d="M6.4,1.7c0,0-0.1,0.6-0.3,1.4S5.5,5,5.2,6c-0.5,1.4-1.1,2.9-1.7,4.2
						c-0.1,0.2-0.3,0.3-0.5,0.2c-0.2-0.1-0.3-0.3-0.2-0.5l0,0c0.8-1.3,1.4-2.6,2-4c0.5-1,0.9-2.1,1.1-2.9S6.3,1.6,6.4,1.7
						C6.3,1.6,6.4,1.6,6.4,1.7C6.4,1.6,6.4,1.6,6.4,1.7C6.4,1.6,6.4,1.6,6.4,1.7C6.4,1.6,6.4,1.6,6.4,1.7z"/>
					<path id="Trazado_14085" class="st51" d="M3.8,5.2C3.4,4.7,2.9,4.3,2.3,4v0.3C1.9,4.2,1.5,4.1,1.1,4.1l0.1,0.2
						C1.2,4.3,2.9,5.8,3.8,5.2z"/>
				</g>
				<g id="Grupo_7996" transform="translate(19.357 16.306)">
					<path id="Trazado_14086" class="st59" d="M2.8,2.4C2.4,3.4,1.5,4,0.8,3.7C0,3.2-0.3,2.1,0.2,1.3c0.4-1,1.3-1.6,2.1-1.3
						C3,0.6,3.3,1.6,2.8,2.4z"/>
					<path id="Trazado_14087" class="st60" d="M2.3,0.1L2.3,0.1c0.5,0.5,0.6,1.3,0.2,2C2.1,3,1.3,3.5,0.6,3.2C0.3,3.1,0.2,2.9,0,2.7
						c0.1,0.4,0.3,0.8,0.7,1C1.5,4,2.4,3.4,2.8,2.4C3.3,1.6,3,0.6,2.3,0.1z"/>
					<path id="Trazado_14088" class="st61" d="M1.9,1.6C1.6,2.1,1,2.3,0.7,2.1S0.5,1.3,0.8,0.8S1.7,0.2,2,0.4S2.3,1.1,1.9,1.6z"/>
				</g>
				<g id="Grupo_7997" transform="translate(27.722 11.569)">
					<path id="Trazado_14089" class="st59" d="M2.8,2.1c-0.3,0.8-1.1,1.3-2,1.1C0.1,2.8-0.2,2,0.1,1.2c0,0,0,0,0-0.1
						c0.3-0.8,1.1-1.3,2-1.1C2.8,0.4,3.2,1.3,2.8,2.1C2.8,2.1,2.8,2.1,2.8,2.1z"/>
					<path id="Trazado_14090" class="st60" d="M2.1,0.1L2.1,0.1c0.5,0.4,0.7,1.1,0.4,1.7c-0.2,0.8-1,1.2-1.8,1
						C0.4,2.7,0.2,2.6,0.1,2.3C0.2,2.7,0.5,3,0.9,3.2c0.8,0.2,1.7-0.3,2-1.1C3.2,1.4,2.9,0.5,2.1,0.1C2.1,0.1,2.1,0.1,2.1,0.1z"/>
					<path id="Trazado_14091" class="st61" d="M1.9,1.4C1.6,1.8,1.2,2,0.7,1.8c-0.3-0.2-0.3-0.7,0-1.1C1,0.3,1.4,0.2,1.9,0.3
						C2.2,0.5,2.2,1,1.9,1.4z"/>
				</g>
				<g id="Grupo_7998" transform="translate(6.405 16.599)">
					<path id="Trazado_14092" class="st59" d="M2.8,2.4C2.4,3.4,1.5,4,0.8,3.7C0,3.2-0.3,2.1,0.2,1.3c0.4-1,1.3-1.6,2.1-1.3
						C3,0.6,3.3,1.6,2.8,2.4z"/>
					<path id="Trazado_14093" class="st60" d="M2.3,0.1L2.3,0.1c0.5,0.5,0.6,1.3,0.2,2C2.1,3,1.3,3.5,0.6,3.2C0.3,3.1,0.2,2.9,0,2.7
						c0.1,0.4,0.3,0.8,0.7,1C1.5,4,2.4,3.4,2.8,2.4C3.3,1.6,3,0.6,2.3,0.1z"/>
					<path id="Trazado_14094" class="st61" d="M1.9,1.6C1.6,2.1,1,2.3,0.7,2.1S0.5,1.3,0.8,0.8S1.7,0.2,2,0.4S2.3,1.1,1.9,1.6z"/>
				</g>
				<g id="Grupo_7999" transform="translate(13.518 19.438)">
					<path id="Trazado_14095" class="st59" d="M2.8,2.4C2.4,3.4,1.5,4,0.8,3.7C0,3.2-0.3,2.1,0.2,1.3c0.4-1,1.3-1.6,2.1-1.3
						C3,0.6,3.3,1.6,2.8,2.4z"/>
					<path id="Trazado_14096" class="st60" d="M2.3,0.1L2.3,0.1c0.5,0.5,0.6,1.3,0.2,2C2.1,3,1.3,3.5,0.6,3.2C0.3,3.1,0.2,2.9,0,2.7
						c0.1,0.4,0.3,0.8,0.7,1C1.5,4,2.4,3.4,2.8,2.4C3.3,1.6,3,0.6,2.3,0.1z"/>
					<path id="Trazado_14097" class="st61" d="M1.9,1.6C1.6,2.1,1,2.3,0.7,2.1S0.5,1.3,0.8,0.8S1.7,0.2,2,0.4S2.3,1.1,1.9,1.6z"/>
				</g>
				<g id="Grupo_8000" transform="translate(20.468 13.501)">
					<path id="Trazado_14098" class="st59" d="M2.8,1.2c0.4,0.7,0.2,1.6-0.5,2c0,0-0.1,0-0.1,0.1C1.4,3.5,0.5,3,0.2,2.1
						c-0.4-0.7-0.2-1.6,0.5-2c0,0,0.1,0,0.1-0.1C1.6-0.1,2.5,0.4,2.8,1.2z"/>
					<path id="Trazado_14099" class="st60" d="M0.8,0.1L0.8,0.1c0.7,0,1.3,0.5,1.6,1.1C2.7,1.8,2.5,2.7,1.9,3c0,0-0.1,0-0.1,0.1
						C1.5,3.2,1.3,3.2,1,3.1c0.4,0.2,0.8,0.3,1.2,0.2c0.7-0.4,1-1.2,0.7-1.9c0,0,0-0.1-0.1-0.1C2.5,0.4,1.6-0.1,0.8,0.1z"/>
					<path id="Trazado_14100" class="st61" d="M1.6,1.3c0.1,0.5-0.1,1-0.5,1S0.4,1.9,0.3,1.4s0.1-1,0.5-1S1.5,0.7,1.6,1.3z"/>
				</g>
				<g id="Grupo_8001" transform="translate(26.076 16.057)">
					<path id="Trazado_14101" class="st59" d="M2.8,1.2c0.4,0.7,0.2,1.6-0.5,2c0,0-0.1,0-0.1,0.1C1.4,3.5,0.5,3,0.2,2.1
						c-0.4-0.7-0.2-1.6,0.5-2c0,0,0.1,0,0.1-0.1C1.6-0.1,2.5,0.4,2.8,1.2z"/>
					<path id="Trazado_14102" class="st60" d="M0.8,0.1L0.8,0.1c0.7,0,1.3,0.5,1.6,1.1C2.7,1.8,2.5,2.6,1.9,3c0,0-0.1,0-0.1,0.1
						C1.5,3.2,1.3,3.2,1,3.1c0.4,0.2,0.8,0.3,1.2,0.2c0.7-0.4,1-1.2,0.7-1.9c0,0,0-0.1-0.1-0.1C2.5,0.4,1.6-0.1,0.8,0.1z"/>
					<path id="Trazado_14103" class="st61" d="M1.6,1.3c0.1,0.5-0.1,1-0.5,1S0.4,1.9,0.3,1.4s0.1-1,0.5-1S1.5,0.7,1.6,1.3z"/>
				</g>
				<g id="Grupo_8002" transform="translate(33.094 14.271)">
					<path id="Trazado_14104" class="st64" d="M2.8,1.2c0.4,0.7,0.2,1.6-0.5,2c0,0-0.1,0-0.1,0.1C1.4,3.5,0.5,3,0.2,2.1
						c-0.4-0.7-0.2-1.6,0.5-2c0,0,0.1,0,0.1-0.1C1.6-0.1,2.5,0.4,2.8,1.2z"/>
					<path id="Trazado_14105" class="st65" d="M0.8,0.1L0.8,0.1c0.7,0,1.3,0.5,1.6,1.1C2.7,1.8,2.5,2.6,1.9,3c0,0-0.1,0-0.1,0.1
						C1.5,3.2,1.3,3.2,1,3.1c0.4,0.2,0.8,0.3,1.2,0.2c0.7-0.4,1-1.2,0.7-1.9c0,0,0-0.1-0.1-0.1C2.5,0.4,1.6-0.1,0.8,0.1z"/>
					<path id="Trazado_14106" class="st66" d="M1.6,1.3c0.1,0.5-0.1,1-0.5,1S0.4,1.9,0.3,1.4s0.1-1,0.5-1S1.5,0.7,1.6,1.3z"/>
				</g>
				<g id="Grupo_8003" transform="translate(30.531 13.068)">
					<path id="Trazado_14107" class="st59" d="M2.8,1.2c0.4,0.7,0.2,1.6-0.5,2c0,0-0.1,0-0.1,0.1C1.4,3.5,0.5,3,0.2,2.1
						c-0.4-0.7-0.2-1.6,0.5-2c0,0,0.1,0,0.1-0.1C1.6-0.1,2.5,0.4,2.8,1.2z"/>
					<path id="Trazado_14108" class="st60" d="M0.8,0.1L0.8,0.1c0.7,0,1.3,0.5,1.6,1.1C2.7,1.8,2.5,2.6,1.9,3c0,0-0.1,0-0.1,0.1
						C1.5,3.2,1.3,3.2,1,3.1c0.4,0.2,0.8,0.3,1.2,0.2c0.7-0.4,1-1.2,0.7-2c0,0,0-0.1-0.1-0.1C2.5,0.4,1.6-0.1,0.8,0.1z"/>
					<path id="Trazado_14109" class="st61" d="M1.6,1.3c0.1,0.5-0.1,1-0.5,1S0.4,1.9,0.3,1.4s0.1-1,0.5-1S1.5,0.7,1.6,1.3z"/>
				</g>
				<g id="Grupo_8004" transform="translate(24.11 13.735)">
					<path id="Trazado_14110" class="st59" d="M2.4,1.8c-0.1,0.7-0.8,1.1-1.5,1c0,0,0,0-0.1,0c-0.7-0.3-1-1.1-0.8-1.7
						c0.1-0.7,0.8-1.1,1.5-1c0,0,0,0,0.1,0C2.3,0.3,2.6,1.1,2.4,1.8z"/>
					<path id="Trazado_14111" class="st60" d="M1.6,0L1.6,0C2,0.4,2.2,1,2.1,1.5C1.9,2.2,1.3,2.6,0.7,2.5c0,0,0,0-0.1,0
						C0.4,2.4,0.2,2.3,0.1,2.1c0.1,0.3,0.4,0.6,0.7,0.7c0.7,0.2,1.4-0.3,1.5-1c0,0,0,0,0-0.1C2.6,1.1,2.3,0.3,1.6,0z"/>
					<path id="Trazado_14112" class="st61" d="M1.5,1.2C1.4,1.6,1,1.7,0.6,1.6C0.3,1.4,0.3,1,0.5,0.7c0,0,0,0,0,0
						c0.2-0.3,0.5-0.5,0.9-0.4C1.7,0.5,1.7,0.9,1.5,1.2z"/>
				</g>
				<g id="Grupo_8005" transform="translate(25.599 11.475)">
					<path id="Trazado_14113" class="st64" d="M2.4,0.8C2.8,1.4,2.6,2.2,2,2.6c0,0,0,0-0.1,0c-0.7,0.3-1.5,0-1.8-0.7
						C-0.2,1.3,0,0.5,0.5,0.2c0,0,0,0,0,0C1.3-0.1,2.1,0.2,2.4,0.8z"/>
					<path id="Trazado_14114" class="st65" d="M0.6,0.1L0.6,0.1C1.2,0,1.7,0.3,2,0.9c0.4,0.5,0.2,1.3-0.3,1.6c0,0,0,0,0,0
						C1.4,2.6,1.2,2.6,1,2.6c0.3,0.2,0.7,0.2,1,0c0.6-0.4,0.8-1.1,0.4-1.7c0,0,0,0,0-0.1C2.1,0.1,1.3-0.2,0.6,0.1z"/>
					<path id="Trazado_14115" class="st66" d="M1.4,1c0.1,0.4,0,0.7-0.4,0.9C0.7,2,0.4,1.7,0.3,1.3C0.1,1,0.3,0.6,0.6,0.4
						C0.9,0.3,1.3,0.6,1.4,1z"/>
				</g>
				<g id="Grupo_8006" transform="translate(13.349 13.049)">
					<path id="Trazado_14116" class="st67" d="M2.4,0.8C2.8,1.4,2.6,2.2,2,2.6c0,0,0,0-0.1,0c-0.7,0.3-1.5,0-1.8-0.7
						C-0.2,1.3,0,0.5,0.5,0.2c0,0,0,0,0,0C1.3-0.1,2.1,0.2,2.4,0.8z"/>
					<path id="Trazado_14117" class="st68" d="M0.6,0.1L0.6,0.1C1.2,0,1.7,0.3,2,0.9c0.4,0.5,0.2,1.3-0.3,1.6c0,0,0,0,0,0
						C1.4,2.6,1.2,2.6,1,2.6c0.3,0.2,0.7,0.2,1,0c0.6-0.4,0.8-1.1,0.4-1.7c0,0,0,0,0-0.1C2.1,0.1,1.3-0.2,0.6,0.1z"/>
					<path id="Trazado_14118" class="st69" d="M1.4,1c0.1,0.4,0,0.7-0.4,0.9C0.7,2,0.4,1.7,0.3,1.3C0.1,1,0.3,0.6,0.6,0.4
						C0.9,0.3,1.3,0.6,1.4,1z"/>
				</g>
				<g id="Grupo_8007" transform="translate(17.836 14.14)">
					<path id="Trazado_14119" class="st64" d="M2.4,1.9C2.2,2.5,1.5,3,0.8,2.8c0,0,0,0-0.1,0C0.1,2.4-0.2,1.6,0.1,1
						C0.3,0.3,1-0.1,1.6,0.1c0,0,0,0,0,0C2.4,0.4,2.6,1.2,2.4,1.9z"/>
					<path id="Trazado_14120" class="st65" d="M1.7,0.1L1.7,0.1c0.4,0.4,0.6,1,0.4,1.5c-0.2,0.6-0.8,1-1.4,0.8c0,0,0,0,0,0
						C0.4,2.4,0.2,2.2,0.1,2c0.1,0.3,0.3,0.6,0.7,0.8C1.4,3,2.1,2.6,2.3,1.9c0,0,0,0,0-0.1C2.6,1.2,2.4,0.4,1.7,0.1z"/>
					<path id="Trazado_14121" class="st66" d="M1.5,1.2C1.4,1.6,1,1.7,0.6,1.6c-0.3-0.3-0.3-0.7,0-0.9c0,0,0,0,0,0
						c0.2-0.3,0.6-0.5,0.9-0.3C1.8,0.5,1.8,1,1.5,1.2z"/>
				</g>
				<g id="Grupo_8008" transform="translate(11.668 17.085)">
					<path id="Trazado_14122" class="st64" d="M2.4,1.8c-0.1,0.7-0.8,1.1-1.5,1c0,0,0,0-0.1,0c-0.7-0.3-1-1.1-0.8-1.7
						c0.1-0.7,0.8-1.1,1.5-1c0,0,0,0,0.1,0C2.3,0.3,2.6,1.1,2.4,1.8z"/>
					<path id="Trazado_14123" class="st65" d="M1.6,0L1.6,0C2,0.4,2.2,1,2.1,1.5C1.9,2.2,1.3,2.6,0.7,2.5c0,0,0,0-0.1,0
						C0.4,2.4,0.2,2.3,0.1,2.1c0.1,0.3,0.4,0.6,0.7,0.7c0.7,0.2,1.4-0.3,1.5-1c0,0,0,0,0-0.1C2.6,1.1,2.3,0.3,1.6,0z"/>
					<path id="Trazado_14124" class="st66" d="M1.5,1.2C1.4,1.6,1,1.7,0.6,1.6C0.3,1.4,0.3,1,0.5,0.7c0.2-0.3,0.5-0.5,0.9-0.4
						C1.7,0.5,1.7,0.9,1.5,1.2z"/>
				</g>
				<g id="Grupo_8009" transform="translate(30.869 15.614)">
					<path id="Trazado_14125" class="st59" d="M2.4,1.8c-0.1,0.7-0.8,1.1-1.5,1c0,0,0,0-0.1,0c-0.7-0.3-1-1.1-0.8-1.7
						c0.1-0.7,0.8-1.1,1.5-1c0,0,0,0,0.1,0C2.3,0.3,2.6,1.1,2.4,1.8z"/>
					<path id="Trazado_14126" class="st60" d="M1.6,0L1.6,0C2,0.4,2.2,1,2.1,1.5C1.9,2.2,1.3,2.6,0.7,2.5c0,0,0,0,0,0
						C0.4,2.4,0.2,2.3,0.1,2.1c0.1,0.3,0.4,0.6,0.7,0.7c0.7,0.2,1.4-0.3,1.5-1c0,0,0,0,0-0.1C2.6,1.1,2.3,0.3,1.6,0z"/>
					<path id="Trazado_14127" class="st61" d="M1.5,1.2C1.4,1.6,1,1.7,0.6,1.6C0.3,1.4,0.3,1,0.5,0.7c0.2-0.3,0.5-0.5,0.9-0.4
						C1.7,0.5,1.7,0.9,1.5,1.2z"/>
				</g>
				<g id="Grupo_8010" transform="translate(22.225 16.813)">
					<path id="Trazado_14128" class="st64" d="M2.8,1.2C3,2,2.4,2.7,1.6,2.9C0.9,3,0.1,2.4,0,1.7C-0.1,0.9,0.4,0.2,1.1,0
						C1.9-0.1,2.7,0.4,2.8,1.2C2.8,1.2,2.8,1.2,2.8,1.2z"/>
					<path id="Trazado_14129" class="st65" d="M1.1,0L1.1,0c0.6,0,1.1,0.5,1.3,1.1c0.2,0.7-0.3,1.5-1,1.7c0,0,0,0,0,0
						c-0.3,0.1-0.5,0-0.8-0.1C1,3,1.4,3.1,1.8,3c0.8-0.2,1.3-1.1,1-1.9C2.6,0.4,1.9-0.1,1.1,0L1.1,0z"/>
					<path id="Trazado_14130" class="st66" d="M1.6,1.2C1.6,1.6,1.3,2,0.9,2C0.5,2,0.3,1.7,0.3,1.2c0-0.4,0.3-0.8,0.7-0.9
						C1.4,0.3,1.7,0.7,1.6,1.2z"/>
				</g>
				<g id="Grupo_8011" transform="translate(8.613 14.856)">
					<path id="Trazado_14131" class="st59" d="M2.8,1.2C3,2,2.4,2.7,1.6,2.9C0.9,3,0.1,2.4,0,1.7C-0.1,0.9,0.4,0.2,1.1,0
						C1.9-0.1,2.7,0.4,2.8,1.2C2.8,1.2,2.8,1.2,2.8,1.2z"/>
					<path id="Trazado_14132" class="st60" d="M1.1,0L1.1,0c0.6,0,1.2,0.5,1.3,1.1c0.2,0.7-0.3,1.5-1,1.7c0,0,0,0,0,0
						c-0.3,0.1-0.5,0-0.8-0.1C1,3,1.4,3.1,1.8,3c0.8-0.2,1.3-1.1,1-1.9C2.6,0.4,1.9-0.1,1.1,0L1.1,0z"/>
					<path id="Trazado_14133" class="st61" d="M1.6,1.2C1.6,1.6,1.3,2,0.9,2C0.5,2,0.3,1.7,0.3,1.2c0-0.4,0.3-0.8,0.7-0.9
						C1.4,0.3,1.7,0.7,1.6,1.2z"/>
				</g>
				<g id="Grupo_8012" transform="translate(15.559 16.601)">
					<path id="Trazado_14134" class="st59" d="M2.8,1.2C3,2,2.4,2.7,1.6,2.9S0.1,2.4,0,1.7C-0.1,0.9,0.4,0.2,1.1,0
						C1.9-0.1,2.7,0.4,2.8,1.2C2.8,1.2,2.8,1.2,2.8,1.2z"/>
					<path id="Trazado_14135" class="st60" d="M1.1,0L1.1,0c0.6,0,1.2,0.5,1.3,1.1c0.2,0.7-0.3,1.5-1,1.7c0,0,0,0,0,0
						c-0.3,0.1-0.5,0-0.8-0.1C1,3,1.4,3.1,1.8,3c0.8-0.2,1.3-1.1,1-1.9C2.6,0.4,1.9-0.1,1.1,0L1.1,0z"/>
					<path id="Trazado_14136" class="st61" d="M1.6,1.2C1.6,1.6,1.3,2,0.9,2C0.5,2,0.3,1.7,0.3,1.2c0-0.4,0.3-0.8,0.7-0.9
						C1.4,0.3,1.7,0.7,1.6,1.2z"/>
				</g>
				<g id="Grupo_8013" transform="translate(27.745 14.591)">
					<path id="Trazado_14137" class="st59" d="M2.8,1.2C3,2,2.4,2.7,1.6,2.9C0.9,3,0.1,2.4,0,1.7C-0.1,0.9,0.4,0.2,1.1,0
						C1.9-0.1,2.7,0.4,2.8,1.2C2.8,1.2,2.8,1.2,2.8,1.2z"/>
					<path id="Trazado_14138" class="st60" d="M1.1,0L1.1,0c0.6,0,1.2,0.5,1.3,1.1c0.2,0.7-0.3,1.5-1,1.7c0,0,0,0,0,0
						c-0.3,0.1-0.5,0-0.8-0.1C1,3,1.4,3.1,1.8,3c0.8-0.2,1.3-1.1,1-1.9C2.6,0.4,1.9-0.1,1.1,0L1.1,0z"/>
					<path id="Trazado_14139" class="st61" d="M1.6,1.2C1.6,1.6,1.3,2,0.9,2C0.5,2,0.3,1.7,0.3,1.2c0-0.4,0.3-0.8,0.7-0.9
						C1.4,0.3,1.7,0.7,1.6,1.2z"/>
				</g>
				<g id="Grupo_8014" transform="translate(19.039 10.424)">
					<path id="Trazado_14140" class="st55" d="M2.5,1.3c0,0.7-0.6,1.2-1.3,1.2C0.5,2.5,0,1.9,0,1.2C0,0.5,0.6,0,1.2,0
						C2,0,2.5,0.6,2.5,1.3C2.5,1.3,2.5,1.3,2.5,1.3z"/>
					<path id="Trazado_14141" class="st56" d="M1.2,0L1.2,0c0.5,0.1,0.9,0.6,0.9,1.2c0,0.7-0.5,1.2-1.1,1.3c0,0,0,0,0,0
						c-0.2,0-0.5-0.1-0.6-0.2c0.2,0.3,0.6,0.4,0.9,0.4C2,2.6,2.6,2,2.5,1.2C2.4,0.6,1.9,0,1.2,0L1.2,0z"/>
					<path id="Trazado_14142" class="st57" d="M1.5,1.1C1.4,1.4,1.1,1.7,0.7,1.7C0.4,1.6,0.2,1.3,0.4,0.9c0.1-0.4,0.4-0.6,0.8-0.6
						C1.4,0.3,1.6,0.7,1.5,1.1z"/>
				</g>
				<g id="Grupo_8015" transform="translate(35.634 14.227)">
					<path id="Trazado_14143" class="st59" d="M2.4,1c0.1,0.7-0.3,1.3-1,1.4C0.7,2.5,0.1,2,0,1.4C-0.1,0.8,0.3,0.2,0.9,0
						C1.6-0.1,2.2,0.3,2.4,1C2.4,1,2.4,1,2.4,1z"/>
					<path id="Trazado_14144" class="st60" d="M0.9,0L0.9,0c0.5,0,1,0.4,1.1,0.9c0.2,0.6-0.2,1.2-0.8,1.4c0,0,0,0,0,0
						c-0.2,0-0.4,0-0.6-0.1c0.3,0.2,0.6,0.3,0.9,0.2c0.7-0.2,1.1-0.9,0.9-1.6C2.2,0.3,1.5-0.1,0.9,0L0.9,0z"/>
					<path id="Trazado_14145" class="st61" d="M1.4,1c0,0.4-0.3,0.7-0.6,0.7C0.5,1.7,0.2,1.4,0.3,1c0-0.4,0.3-0.7,0.6-0.7
						C1.2,0.3,1.4,0.6,1.4,1z"/>
				</g>
				<g id="Grupo_8016" transform="translate(9.239 18.264)">
					<path id="Trazado_14146" class="st59" d="M2.8,1.2c0.4,0.7,0.2,1.6-0.5,2c0,0-0.1,0-0.1,0.1C1.4,3.5,0.5,3,0.2,2.1
						c-0.4-0.7-0.2-1.6,0.5-2c0,0,0.1,0,0.1-0.1C1.6-0.1,2.5,0.4,2.8,1.2z"/>
					<path id="Trazado_14147" class="st60" d="M0.8,0.1L0.8,0.1c0.7,0,1.3,0.5,1.6,1.1C2.7,1.8,2.5,2.6,1.9,3c0,0-0.1,0-0.1,0.1
						C1.5,3.2,1.3,3.2,1,3.1c0.4,0.2,0.8,0.3,1.2,0.2c0.7-0.4,1-1.2,0.7-1.9c0,0,0-0.1-0.1-0.1C2.5,0.4,1.6-0.1,0.8,0.1z"/>
					<path id="Trazado_14148" class="st61" d="M1.6,1.3c0.1,0.5-0.1,1-0.5,1S0.4,1.9,0.3,1.4s0.1-1,0.5-1S1.5,0.7,1.6,1.3z"/>
				</g>
				<path id="Trazado_14149" class="st54" d="M21.1,19.8c-6.6,0.9-13.3,1-19.9,0.4c-0.7,0.3-1.1,0.5-1.1,0.5c0.1,0.3,9.6,1.3,21-0.2
					s20.3-4.8,20.3-5.2c0-0.1-0.3-0.2-0.9-0.2C34.2,17.4,27.7,19,21.1,19.8z"/>
				<path id="Trazado_14150" class="st62" d="M41.3,15.5c-1.1,0.7-9.6,3.7-20.2,5.1C9.7,22,0.3,21,0.2,20.7
					C4,31.9,8.6,40.1,15.7,48.2c6.3,0,12.5-0.8,18.6-2.4c4.4-9.5,6.8-19.8,7.2-30.3L41.3,15.5z"/>
				<path id="Trazado_14151" class="st70" d="M21.6,22.4c9.7-1.3,17.6-3.9,19.7-4.9c0.5-0.9,0.6-1.7,0.1-2.2c0,0-7.5,3.5-20.3,5.2
					C9.7,22,0.3,21,0.2,20.7c-0.4,0.7-0.2,1.4,0.7,2C2.5,23,11.2,23.8,21.6,22.4z"/>
				<path id="Trazado_14152" class="st70" d="M10.6,41.8c0.3,0.5,0.7,1,1.1,1.5c0,0,17.1-0.3,25.2-4.2c0.2-0.5,0.4-1.1,0.5-1.6
					C29.1,40.8,10.6,41.8,10.6,41.8z"/>
				<path id="Trazado_14153" class="st54" d="M4.3,25.3c0,0,3.8,15.4,14,14.2c8.9-1.1,8.8-15.5,8.8-15.5C19.6,25.4,12,25.8,4.3,25.3
					z"/>
				<path id="Trazado_14154" class="st71" d="M26.7,47.3c2.6-0.4,5.1-0.9,7.6-1.6c4.1-8.9,6.5-18.4,7-28.2c0.5-0.9,0.6-1.7,0.1-2.2
					c-3.6,1.6-7.3,2.8-11.2,3.6C29.8,28.5,28.6,38,26.7,47.3z"/>
				<path id="Trazado_14155" class="st71" d="M21.6,23.3c6.7-0.8,13.3-2.4,19.7-4.8c0-0.3,0.1-0.6,0.1-0.9c-2.1,1-10,3.6-19.7,4.9
					C11.2,23.8,2.5,23,0.9,22.7C1,23,1.1,23.3,1.2,23.6C8,24.3,14.8,24.2,21.6,23.3z"/>
				<g id="Grupo_8017" transform="translate(10.756 12.078)">
					<path id="Trazado_14156" class="st72" d="M2.2,2.6C1.8,1.6,1,0.8,0,0.4c0,0-0.1-0.3,0.3-0.4c0.9,0.6,1.5,1.4,1.9,2.4L2.2,2.6z"
						/>
					<path id="Trazado_14157" class="st73" d="M0,0.4c0,0-0.1-0.3,0.3-0.4C0.3,0.2,0.2,0.3,0,0.4z"/>
				</g>
				<path id="Trazado_14158" class="st74" d="M37.6,23.8c-0.2-0.2-0.4-0.3-0.4-0.3l-3,2.6c0.1,0.1,0.1,0.1,0.2,0.2
					c-3.7,2.7-7.8,4.8-12,6.5c-0.3-0.1-0.7-0.2-1.2-0.4c-0.8-0.2-1.7-0.4-2.6-0.4c-0.1,0.1-0.1,0.3,0.7,0.5c0.6,0.2,1,0.3,1,0.5
					c-0.9,0.3-1.9,0.4-2.9,0.3c-0.8,0-1.3,0-1.3,0.2c0,0.3,1.2,0.3,1.4,0.4c0.5,0,1.2-0.1,1.2,0c0,0.2-0.8,0.2-1.3,0.2
					c-1.2,0.1-1.7,0-1.7,0.2c0,0.2,0.1,0.4,1.7,0.4c0.9,0,1.5-0.1,1.5-0.1s-0.1,0.2-1.1,0.3s-1.6,0-1.6,0.3c0,0.2,0.2,0.4,1.7,0.3
					c0.8,0,1.4-0.2,1.5-0.2c0,0.1-0.4,0.2-0.9,0.4s-1.2,0.1-1.2,0.3s0.7,0.4,2.4,0c1.2-0.2,2.3-0.7,3.3-1.5c4.8-0.6,9.5-1.6,14.1-3
					c0.1,0.3,0.1,0.4,0.1,0.4l2.1-0.7c0.9-3.6,1.5-7.3,1.8-11.1C40,21.5,38.9,22.7,37.6,23.8z"/>
			</g>
			<path id="Trazado_14159" class="st37" d="M59.9,68.6c0,0-5.6,8.3-19.3,14l0.6,1.8c0,0,23.5-3.4,28.2-13.1L59.9,68.6z"/>
			<path id="Trazado_14160" class="st32" d="M69.4,68.7c1.8,7.8-13.4,12-13.4,12l-3-5.4c0,0,5.7-4.7,6.8-6.8L69.4,68.7z"/>
			<path id="Trazado_14161" class="st37" d="M40.6,82.5c-0.3-0.1-0.7-0.2-1.2-0.3c-0.8-0.2-1.7-0.3-2.6-0.3
				c-0.1,0.1-0.1,0.3,0.7,0.5c0.6,0.1,1,0.3,1,0.5c-0.9,0.3-1.9,0.4-2.9,0.4c-0.8,0-1.3,0-1.3,0.2c0,0.3,1.2,0.3,1.4,0.3
				c0.5,0,1.2-0.1,1.2-0.1c0,0.2-0.8,0.2-1.3,0.3c-1.2,0.1-1.7,0-1.7,0.3c0,0.2,0.1,0.4,1.7,0.3c0.9,0,1.5-0.2,1.5-0.1
				s-0.1,0.3-1.1,0.4s-1.6,0.1-1.6,0.3c0,0.2,0.2,0.4,1.7,0.2c0.8-0.1,1.4-0.3,1.5-0.2c0,0.1-0.4,0.2-0.9,0.4s-1.2,0.1-1.2,0.4
				s0.7,0.4,2.4-0.1c1.2-0.3,2.3-0.8,3.3-1.6c0.4-0.6,0.2-1.4-0.4-1.7C40.7,82.6,40.6,82.5,40.6,82.5z"/>
			<path id="Trazado_14187" class="st75" d="M13.2,75.6l-2.5-3.1c-2.6,1.7-4.6,4.1-5.7,7l3.7,2.2C9.7,79.4,11.3,77.3,13.2,75.6z"/>
			<g id="Grupo_8020" transform="translate(56.925 68.469)">
				<path id="Trazado_14188" class="st76" d="M12.1,1.3L9.9,3.4c0.5,0.7,0.9,1.3,1.2,2c0.2-0.2,0.4-0.5,0.5-0.7c0,0,0.1-0.1,0.1-0.2
					C11.9,4.3,12,4,12.1,3.8l0,0c0.3-0.6,0.4-1.2,0.5-1.8C12.4,1.7,12.3,1.5,12.1,1.3z"/>
				<path id="Trazado_14189" class="st76" d="M8.9,0.1l-1.6,0C7.5,0.4,7.8,0.6,8,0.9L8.9,0.1z"/>
				<path id="Trazado_14190" class="st76" d="M5.3,3.4c-1-1.2-2-2.2-2.7-2.9L2.1,1c-0.4,0.5-1,1.1-1.6,1.7c0.7,0.7,1.6,1.6,2.6,2.8
					L5.3,3.4z"/>
				<path id="Trazado_14191" class="st76" d="M7.2,5.8L5,7.9c0.3,0.5,0.7,0.9,1,1.4l0,0c0.4-0.2,0.9-0.5,1.3-0.8l0,0
					c0.4-0.3,0.9-0.6,1.3-0.9C8.1,7.1,7.7,6.5,7.2,5.8z"/>
				<path id="Trazado_14192" class="st76" d="M3.1,0H2.8C2.7,0.2,2.6,0.3,2.5,0.5l0.1,0.1L3.1,0z"/>
				<path id="Trazado_14193" class="st76" d="M2.5,0.4L2.5,0.4L2.5,0.4C2.4,0.6,2.3,0.8,2.1,1L2.5,0.4L2.5,0.4z"/>
				<path id="Trazado_14194" class="st76" d="M2.5,0.4L2.5,0.4L2.5,0.4C2.4,0.6,2.3,0.8,2.1,1L2.5,0.4L2.5,0.4z"/>
				<path id="Trazado_14195" class="st76" d="M0,8.4l2.1,2.2L5,7.9C4.3,7.1,3.7,6.3,3.1,5.5L0,8.4z"/>
				<path id="Trazado_14196" class="st76" d="M12.6,0.9c0-0.2-0.1-0.5-0.1-0.7l-1.1,0c0.3,0.4,0.6,0.7,0.8,1.1L12.6,0.9z"/>
				<path id="Trazado_14197" class="st76" d="M5.3,3.4C5.9,4.2,6.6,5,7.2,5.8l2.6-2.5C9.3,2.6,8.7,1.7,8,0.9L5.3,3.4z"/>
				<path id="Trazado_14198" class="st76" d="M9.9,3.4l2.3-2.1c-0.3-0.4-0.5-0.7-0.8-1.1l-2.4,0L8,0.9C8.7,1.7,9.3,2.6,9.9,3.4z"/>
				<path id="Trazado_14199" class="st76" d="M9.9,3.4l2.3-2.1c-0.3-0.4-0.5-0.7-0.8-1.1l-2.4,0L8,0.9C8.7,1.7,9.3,2.6,9.9,3.4z"/>
				<path id="Trazado_14200" class="st76" d="M3.1,5.5C3.7,6.3,4.3,7.1,5,7.9l2.3-2.1C6.6,5,5.9,4.2,5.3,3.4L3.1,5.5z"/>
				<path id="Trazado_14201" class="st76" d="M3.1,5.5C3.7,6.3,4.3,7.1,5,7.9l2.3-2.1C6.6,5,5.9,4.2,5.3,3.4L3.1,5.5z"/>
			</g>
			<path id="Trazado_14202" class="st49" d="M52.4,75.5l3-2.7c2.3,1.7,3.8,4.3,4.1,7.1l-4.2,1.5C55,79.1,54,77,52.4,75.5z"/>
		</g>
	</g>
</g>
</svg>
