<?xml version="1.0" encoding="utf-8"?>
<!-- Generator: Adobe Illustrator 24.2.0, SVG Export Plug-In . SVG Version: 6.00 Build 0)  -->
<svg version="1.1" id="Capa_1" xmlns="http://www.w3.org/2000/svg" xmlns:xlink="http://www.w3.org/1999/xlink" x="0px" y="0px"
	 viewBox="0 0 708 167" style="enable-background:new 0 0 708 167;" xml:space="preserve">
<style type="text/css">
	.st0{fill:#C9EEA3;}
	.st1{enable-background:new    ;}
	.st2{fill:#00223D;}
	.st3{fill:#80B24B;}
	.st4{fill:#FFFFFF;}
</style>
<g id="Grupo_11359" transform="translate(-216 -3689)">
	<g id="Grupo_7950" transform="translate(52 -591)">
		<path id="Rectángulo_3331" class="st0" d="M174,4304h198c5.5,0,10,4.5,10,10v123c0,5.5-4.5,10-10,10H174c-5.5,0-10-4.5-10-10
			v-123C164,4308.5,168.5,4304,174,4304z"/>
		<g class="st1">
			<path class="st2" d="M187.2,4360l-3.3-9.5h-0.1c0.1,1.4,0.1,2.7,0.1,4v5.6h-1.7v-11.4h2.6l3.2,9.1h0l3.3-9.1h2.6v11.4h-1.8v-5.6
				c0-0.6,0-1.3,0-2.2c0-0.9,0.1-1.5,0.1-1.7h-0.1l-3.4,9.5H187.2z"/>
			<path class="st2" d="M200.6,4360.2c-1.3,0-2.4-0.4-3.2-1.2s-1.1-1.9-1.1-3.2c0-1.4,0.4-2.5,1.1-3.3s1.7-1.2,2.9-1.2
				c1.1,0,2,0.3,2.7,1c0.7,0.7,1,1.6,1,2.9v1h-5.8c0,0.8,0.3,1.5,0.7,1.9c0.4,0.5,1,0.7,1.8,0.7c0.5,0,1,0,1.4-0.1
				c0.4-0.1,0.9-0.3,1.4-0.5v1.5c-0.4,0.2-0.9,0.4-1.4,0.5C201.7,4360.1,201.2,4360.2,200.6,4360.2z M200.3,4352.6
				c-0.6,0-1.1,0.2-1.4,0.6s-0.6,0.9-0.6,1.6h3.9c0-0.7-0.2-1.3-0.5-1.6C201.3,4352.8,200.9,4352.6,200.3,4352.6z"/>
			<path class="st2" d="M205.2,4363.8c-0.6,0-1-0.1-1.4-0.2v-1.5c0.4,0.1,0.7,0.1,1.1,0.1c0.8,0,1.2-0.4,1.2-1.3v-9.6h1.8v9.8
				c0,0.9-0.2,1.6-0.7,2C206.7,4363.6,206.1,4363.8,205.2,4363.8z M205.9,4349.1c0-0.3,0.1-0.6,0.3-0.8s0.4-0.3,0.8-0.3
				c0.3,0,0.6,0.1,0.8,0.3s0.3,0.4,0.3,0.8c0,0.3-0.1,0.6-0.3,0.7s-0.4,0.3-0.8,0.3c-0.3,0-0.6-0.1-0.8-0.3
				S205.9,4349.4,205.9,4349.1z"/>
			<path class="st2" d="M218.2,4355.7c0,1.4-0.4,2.5-1.1,3.3c-0.7,0.8-1.7,1.2-3,1.2c-0.8,0-1.5-0.2-2.1-0.5
				c-0.6-0.4-1.1-0.9-1.4-1.6c-0.3-0.7-0.5-1.5-0.5-2.4c0-1.4,0.4-2.5,1.1-3.3s1.7-1.2,3-1.2c1.3,0,2.2,0.4,3,1.2
				C217.8,4353.2,218.2,4354.3,218.2,4355.7z M211.9,4355.7c0,2,0.7,3,2.2,3c1.5,0,2.2-1,2.2-3c0-2-0.7-3-2.2-3
				c-0.8,0-1.3,0.3-1.7,0.8C212.1,4354,211.9,4354.7,211.9,4355.7z"/>
			<path class="st2" d="M224.7,4351.2c0.4,0,0.7,0,0.9,0.1l-0.2,1.7c-0.3-0.1-0.5-0.1-0.8-0.1c-0.7,0-1.3,0.2-1.8,0.7
				c-0.5,0.5-0.7,1.1-0.7,1.9v4.5h-1.8v-8.6h1.4l0.2,1.5h0.1c0.3-0.5,0.7-0.9,1.1-1.2S224.1,4351.2,224.7,4351.2z"/>
			<path class="st2" d="M232.6,4360l-0.4-1.2h-0.1c-0.4,0.5-0.8,0.9-1.3,1.1s-1,0.3-1.6,0.3c-0.8,0-1.5-0.2-2-0.7s-0.7-1.1-0.7-1.9
				c0-0.9,0.3-1.6,1-2c0.7-0.5,1.7-0.7,3-0.7l1.5,0v-0.5c0-0.6-0.1-1-0.4-1.2s-0.7-0.4-1.2-0.4c-0.4,0-0.9,0.1-1.3,0.2
				s-0.8,0.3-1.2,0.5l-0.6-1.3c0.5-0.2,1-0.4,1.5-0.6c0.6-0.1,1.1-0.2,1.6-0.2c1.1,0,1.9,0.2,2.5,0.7c0.6,0.5,0.8,1.2,0.8,2.3v5.8
				H232.6z M229.9,4358.8c0.7,0,1.2-0.2,1.6-0.6c0.4-0.4,0.6-0.9,0.6-1.6v-0.8l-1.1,0c-0.9,0-1.5,0.2-1.9,0.4
				c-0.4,0.3-0.6,0.7-0.6,1.2c0,0.4,0.1,0.7,0.3,0.9C229.1,4358.6,229.4,4358.8,229.9,4358.8z"/>
			<path class="st2" d="M240.9,4351.2c0.4,0,0.7,0,0.9,0.1l-0.2,1.7c-0.3-0.1-0.5-0.1-0.8-0.1c-0.7,0-1.3,0.2-1.8,0.7
				c-0.5,0.5-0.7,1.1-0.7,1.9v4.5h-1.8v-8.6h1.4l0.2,1.5h0.1c0.3-0.5,0.7-0.9,1.1-1.2S240.3,4351.2,240.9,4351.2z"/>
			<path class="st2" d="M249.4,4360h-1.8v-12.2h1.8V4360z"/>
			<path class="st2" d="M257.4,4360l-0.4-1.2H257c-0.4,0.5-0.8,0.9-1.3,1.1s-1,0.3-1.6,0.3c-0.8,0-1.5-0.2-2-0.7s-0.7-1.1-0.7-1.9
				c0-0.9,0.3-1.6,1-2c0.7-0.5,1.7-0.7,3-0.7l1.5,0v-0.5c0-0.6-0.1-1-0.4-1.2s-0.7-0.4-1.2-0.4c-0.4,0-0.9,0.1-1.3,0.2
				s-0.8,0.3-1.2,0.5l-0.6-1.3c0.5-0.2,1-0.4,1.5-0.6c0.6-0.1,1.1-0.2,1.6-0.2c1.1,0,1.9,0.2,2.5,0.7c0.6,0.5,0.8,1.2,0.8,2.3v5.8
				H257.4z M254.7,4358.8c0.7,0,1.2-0.2,1.6-0.6c0.4-0.4,0.6-0.9,0.6-1.6v-0.8l-1.1,0c-0.9,0-1.5,0.2-1.9,0.4
				c-0.4,0.3-0.6,0.7-0.6,1.2c0,0.4,0.1,0.7,0.3,0.9C253.9,4358.6,254.2,4358.8,254.7,4358.8z"/>
			<path class="st2" d="M269.8,4360.2c-1.1,0-1.9-0.4-2.5-1.2h-0.1c0.1,0.7,0.1,1.2,0.1,1.3v3.5h-1.8v-12.5h1.5
				c0,0.2,0.1,0.5,0.3,1.2h0.1c0.6-0.9,1.4-1.3,2.6-1.3c1.1,0,1.9,0.4,2.5,1.2s0.9,1.9,0.9,3.3s-0.3,2.5-0.9,3.3
				C271.7,4359.8,270.9,4360.2,269.8,4360.2z M269.4,4352.7c-0.7,0-1.3,0.2-1.6,0.6s-0.5,1.1-0.5,2v0.3c0,1.1,0.2,1.8,0.5,2.3
				c0.3,0.5,0.9,0.7,1.6,0.7c0.6,0,1.1-0.3,1.5-0.8s0.5-1.3,0.5-2.2c0-1-0.2-1.7-0.5-2.2C270.5,4353,270,4352.7,269.4,4352.7z"/>
			<path class="st2" d="M279.8,4351.2c0.4,0,0.7,0,0.9,0.1l-0.2,1.7c-0.3-0.1-0.5-0.1-0.8-0.1c-0.7,0-1.3,0.2-1.8,0.7
				c-0.5,0.5-0.7,1.1-0.7,1.9v4.5h-1.8v-8.6h1.4l0.2,1.5h0.1c0.3-0.5,0.7-0.9,1.1-1.2S279.2,4351.2,279.8,4351.2z"/>
			<path class="st2" d="M286.1,4360.2c-1.3,0-2.4-0.4-3.2-1.2s-1.1-1.9-1.1-3.2c0-1.4,0.4-2.5,1.1-3.3s1.7-1.2,2.9-1.2
				c1.1,0,2,0.3,2.7,1c0.7,0.7,1,1.6,1,2.9v1h-5.8c0,0.8,0.3,1.5,0.7,1.9c0.4,0.5,1,0.7,1.8,0.7c0.5,0,1,0,1.4-0.1
				c0.4-0.1,0.9-0.3,1.4-0.5v1.5c-0.4,0.2-0.9,0.4-1.4,0.5C287.2,4360.1,286.7,4360.2,286.1,4360.2z M285.7,4352.6
				c-0.6,0-1.1,0.2-1.4,0.6s-0.6,0.9-0.6,1.6h3.9c0-0.7-0.2-1.3-0.5-1.6C286.8,4352.8,286.3,4352.6,285.7,4352.6z"/>
			<path class="st2" d="M297.3,4357.5c0,0.8-0.3,1.5-0.9,1.9c-0.6,0.5-1.5,0.7-2.6,0.7c-1.2,0-2.1-0.2-2.8-0.5v-1.6
				c1,0.5,2,0.7,2.8,0.7c1.1,0,1.7-0.3,1.7-1c0-0.2-0.1-0.4-0.2-0.5s-0.3-0.3-0.6-0.5c-0.3-0.2-0.7-0.3-1.2-0.5
				c-1-0.4-1.7-0.8-2-1.2s-0.5-0.9-0.5-1.5c0-0.7,0.3-1.3,0.9-1.7c0.6-0.4,1.4-0.6,2.4-0.6c1,0,2,0.2,2.9,0.6l-0.6,1.4
				c-0.9-0.4-1.7-0.6-2.4-0.6c-1,0-1.5,0.3-1.5,0.8c0,0.3,0.1,0.5,0.4,0.7c0.3,0.2,0.8,0.4,1.7,0.8c0.7,0.3,1.2,0.5,1.6,0.8
				c0.3,0.2,0.6,0.5,0.7,0.8S297.3,4357.1,297.3,4357.5z"/>
			<path class="st2" d="M303.1,4360.2c-1.3,0-2.4-0.4-3.2-1.2s-1.1-1.9-1.1-3.2c0-1.4,0.4-2.5,1.1-3.3s1.7-1.2,2.9-1.2
				c1.1,0,2,0.3,2.7,1c0.7,0.7,1,1.6,1,2.9v1h-5.8c0,0.8,0.3,1.5,0.7,1.9c0.4,0.5,1,0.7,1.8,0.7c0.5,0,1,0,1.4-0.1
				c0.4-0.1,0.9-0.3,1.4-0.5v1.5c-0.4,0.2-0.9,0.4-1.4,0.5C304.2,4360.1,303.7,4360.2,303.1,4360.2z M302.7,4352.6
				c-0.6,0-1.1,0.2-1.4,0.6s-0.6,0.9-0.6,1.6h3.9c0-0.7-0.2-1.3-0.5-1.6C303.8,4352.8,303.3,4352.6,302.7,4352.6z"/>
			<path class="st2" d="M316.1,4360h-1.8v-5.3c0-0.7-0.1-1.2-0.4-1.5c-0.3-0.3-0.7-0.5-1.3-0.5c-0.8,0-1.3,0.2-1.7,0.7
				s-0.5,1.2-0.5,2.3v4.3h-1.8v-8.6h1.4l0.3,1.1h0.1c0.3-0.4,0.6-0.7,1.1-1c0.5-0.2,1-0.3,1.6-0.3c2.1,0,3.1,1.1,3.1,3.2V4360z"/>
			<path class="st2" d="M321.9,4358.7c0.4,0,0.9-0.1,1.3-0.2v1.4c-0.2,0.1-0.5,0.2-0.8,0.2s-0.7,0.1-1,0.1c-1.7,0-2.6-0.9-2.6-2.8
				v-4.7h-1.2v-0.8l1.3-0.7l0.6-1.8h1.1v1.9h2.5v1.4h-2.5v4.6c0,0.4,0.1,0.8,0.3,1C321.2,4358.6,321.5,4358.7,321.9,4358.7z"/>
			<path class="st2" d="M330.4,4360l-0.4-1.2h-0.1c-0.4,0.5-0.8,0.9-1.3,1.1s-1,0.3-1.6,0.3c-0.8,0-1.5-0.2-2-0.7s-0.7-1.1-0.7-1.9
				c0-0.9,0.3-1.6,1-2c0.7-0.5,1.7-0.7,3-0.7l1.5,0v-0.5c0-0.6-0.1-1-0.4-1.2s-0.7-0.4-1.2-0.4c-0.4,0-0.9,0.1-1.3,0.2
				s-0.8,0.3-1.2,0.5l-0.6-1.3c0.5-0.2,1-0.4,1.5-0.6c0.6-0.1,1.1-0.2,1.6-0.2c1.1,0,1.9,0.2,2.5,0.7c0.6,0.5,0.8,1.2,0.8,2.3v5.8
				H330.4z M327.6,4358.8c0.7,0,1.2-0.2,1.6-0.6c0.4-0.4,0.6-0.9,0.6-1.6v-0.8l-1.1,0c-0.9,0-1.5,0.2-1.9,0.4
				c-0.4,0.3-0.6,0.7-0.6,1.2c0,0.4,0.1,0.7,0.3,0.9C326.8,4358.6,327.2,4358.8,327.6,4358.8z"/>
			<path class="st2" d="M337.7,4360.2c-1.3,0-2.3-0.4-3-1.1s-1-1.9-1-3.3c0-1.5,0.4-2.6,1.1-3.4s1.7-1.2,3.1-1.2
				c0.9,0,1.7,0.2,2.5,0.5l-0.6,1.5c-0.8-0.3-1.4-0.5-1.9-0.5c-1.5,0-2.2,1-2.2,3c0,1,0.2,1.7,0.6,2.2c0.4,0.5,0.9,0.7,1.6,0.7
				c0.8,0,1.6-0.2,2.3-0.6v1.6c-0.3,0.2-0.7,0.3-1.1,0.4C338.7,4360.1,338.3,4360.2,337.7,4360.2z"/>
			<path class="st2" d="M342.1,4349.1c0-0.3,0.1-0.6,0.3-0.8s0.4-0.3,0.8-0.3c0.3,0,0.6,0.1,0.8,0.3s0.3,0.4,0.3,0.8
				c0,0.3-0.1,0.6-0.3,0.7s-0.4,0.3-0.8,0.3c-0.3,0-0.6-0.1-0.8-0.3S342.1,4349.4,342.1,4349.1z M344,4360h-1.8v-8.6h1.8V4360z"/>
			<path class="st2" d="M354.3,4355.7c0,1.4-0.4,2.5-1.1,3.3c-0.7,0.8-1.7,1.2-3,1.2c-0.8,0-1.5-0.2-2.1-0.5
				c-0.6-0.4-1.1-0.9-1.4-1.6c-0.3-0.7-0.5-1.5-0.5-2.4c0-1.4,0.4-2.5,1.1-3.3s1.7-1.2,3-1.2c1.3,0,2.2,0.4,3,1.2
				C353.9,4353.2,354.3,4354.3,354.3,4355.7z M348,4355.7c0,2,0.7,3,2.2,3c1.5,0,2.2-1,2.2-3c0-2-0.7-3-2.2-3
				c-0.8,0-1.3,0.3-1.7,0.8C348.2,4354,348,4354.7,348,4355.7z M349,4350.3v-0.2c0.3-0.4,0.6-0.8,0.9-1.2c0.3-0.4,0.6-0.8,0.7-1.1
				h2.1v0.2c-0.3,0.3-0.7,0.7-1.2,1.2s-1,0.9-1.4,1.2H349z"/>
			<path class="st2" d="M364,4360h-1.8v-5.3c0-0.7-0.1-1.2-0.4-1.5c-0.3-0.3-0.7-0.5-1.3-0.5c-0.8,0-1.3,0.2-1.7,0.7
				s-0.5,1.2-0.5,2.3v4.3h-1.8v-8.6h1.4l0.3,1.1h0.1c0.3-0.4,0.6-0.7,1.1-1c0.5-0.2,1-0.3,1.6-0.3c2.1,0,3.1,1.1,3.1,3.2V4360z"/>
		</g>
		<g class="st1">
			<path class="st2" d="M187.5,4382.2c-1.1,0-1.9-0.4-2.5-1.2c-0.6-0.8-0.9-1.9-0.9-3.3c0-1.4,0.3-2.5,0.9-3.3
				c0.6-0.8,1.5-1.2,2.5-1.2c1.1,0,2,0.4,2.6,1.3h0.1c-0.1-0.6-0.1-1.1-0.1-1.5v-3.1h1.8v12.2h-1.4l-0.3-1.1h-0.1
				C189.5,4381.7,188.6,4382.2,187.5,4382.2z M188,4380.7c0.8,0,1.3-0.2,1.6-0.6s0.5-1.1,0.5-2.1v-0.3c0-1.1-0.2-1.9-0.5-2.3
				c-0.4-0.5-0.9-0.7-1.7-0.7c-0.6,0-1.1,0.3-1.5,0.8c-0.3,0.5-0.5,1.3-0.5,2.2c0,1,0.2,1.7,0.5,2.2
				C186.8,4380.4,187.3,4380.7,188,4380.7z"/>
			<path class="st2" d="M198.3,4382.2c-1.3,0-2.4-0.4-3.2-1.2s-1.1-1.9-1.1-3.2c0-1.4,0.4-2.5,1.1-3.3s1.7-1.2,2.9-1.2
				c1.1,0,2,0.3,2.7,1c0.7,0.7,1,1.6,1,2.9v1h-5.8c0,0.8,0.3,1.5,0.7,1.9c0.4,0.5,1,0.7,1.8,0.7c0.5,0,1,0,1.4-0.1
				c0.4-0.1,0.9-0.3,1.4-0.5v1.5c-0.4,0.2-0.9,0.4-1.4,0.5C199.4,4382.1,198.9,4382.2,198.3,4382.2z M198,4374.6
				c-0.6,0-1.1,0.2-1.4,0.6s-0.6,0.9-0.6,1.6h3.9c0-0.7-0.2-1.3-0.5-1.6C199,4374.8,198.6,4374.6,198,4374.6z"/>
			<path class="st2" d="M205.6,4382h-1.8v-12.2h1.8V4382z"/>
			<path class="st2" d="M216.8,4382.2c-1.1,0-1.9-0.4-2.5-1.2h-0.1c0.1,0.7,0.1,1.2,0.1,1.3v3.5h-1.8v-12.5h1.5
				c0,0.2,0.1,0.5,0.3,1.2h0.1c0.6-0.9,1.4-1.3,2.6-1.3c1.1,0,1.9,0.4,2.5,1.2s0.9,1.9,0.9,3.3s-0.3,2.5-0.9,3.3
				C218.7,4381.8,217.9,4382.2,216.8,4382.2z M216.3,4374.7c-0.7,0-1.3,0.2-1.6,0.6s-0.5,1.1-0.5,2v0.3c0,1.1,0.2,1.8,0.5,2.3
				c0.3,0.5,0.9,0.7,1.6,0.7c0.6,0,1.1-0.3,1.5-0.8s0.5-1.3,0.5-2.2c0-1-0.2-1.7-0.5-2.2C217.5,4375,217,4374.7,216.3,4374.7z"/>
			<path class="st2" d="M226.7,4373.2c0.4,0,0.7,0,0.9,0.1l-0.2,1.7c-0.3-0.1-0.5-0.1-0.8-0.1c-0.7,0-1.3,0.2-1.8,0.7
				c-0.5,0.5-0.7,1.1-0.7,1.9v4.5h-1.8v-8.6h1.4l0.2,1.5h0.1c0.3-0.5,0.7-0.9,1.1-1.2S226.2,4373.2,226.7,4373.2z"/>
			<path class="st2" d="M236.9,4377.7c0,1.4-0.4,2.5-1.1,3.3c-0.7,0.8-1.7,1.2-3,1.2c-0.8,0-1.5-0.2-2.1-0.5
				c-0.6-0.4-1.1-0.9-1.4-1.6c-0.3-0.7-0.5-1.5-0.5-2.4c0-1.4,0.4-2.5,1.1-3.3s1.7-1.2,3-1.2c1.3,0,2.2,0.4,3,1.2
				C236.6,4375.2,236.9,4376.3,236.9,4377.7z M230.6,4377.7c0,2,0.7,3,2.2,3c1.5,0,2.2-1,2.2-3c0-2-0.7-3-2.2-3
				c-0.8,0-1.3,0.3-1.7,0.8C230.8,4376,230.6,4376.7,230.6,4377.7z"/>
			<path class="st2" d="M241.9,4382.2c-1.1,0-1.9-0.4-2.5-1.2c-0.6-0.8-0.9-1.9-0.9-3.3c0-1.4,0.3-2.5,0.9-3.3
				c0.6-0.8,1.5-1.2,2.5-1.2c1.1,0,2,0.4,2.6,1.3h0.1c-0.1-0.6-0.1-1.1-0.1-1.5v-3.1h1.8v12.2h-1.4l-0.3-1.1h-0.1
				C243.9,4381.7,243.1,4382.2,241.9,4382.2z M242.4,4380.7c0.8,0,1.3-0.2,1.6-0.6s0.5-1.1,0.5-2.1v-0.3c0-1.1-0.2-1.9-0.5-2.3
				c-0.4-0.5-0.9-0.7-1.7-0.7c-0.6,0-1.1,0.3-1.5,0.8c-0.3,0.5-0.5,1.3-0.5,2.2c0,1,0.2,1.7,0.5,2.2
				C241.3,4380.4,241.8,4380.7,242.4,4380.7z"/>
			<path class="st2" d="M255.1,4382l-0.3-1.1h-0.1c-0.3,0.4-0.6,0.7-1.1,0.9c-0.5,0.2-1,0.3-1.6,0.3c-1,0-1.8-0.3-2.3-0.8
				s-0.8-1.3-0.8-2.4v-5.6h1.9v5.3c0,0.7,0.1,1.2,0.4,1.5c0.3,0.3,0.7,0.5,1.3,0.5c0.8,0,1.3-0.2,1.7-0.7c0.4-0.5,0.5-1.2,0.5-2.3
				v-4.3h1.8v8.6H255.1z"/>
			<path class="st2" d="M262.6,4382.2c-1.3,0-2.3-0.4-3-1.1s-1-1.9-1-3.3c0-1.5,0.4-2.6,1.1-3.4s1.7-1.2,3.1-1.2
				c0.9,0,1.7,0.2,2.5,0.5l-0.6,1.5c-0.8-0.3-1.4-0.5-1.9-0.5c-1.5,0-2.2,1-2.2,3c0,1,0.2,1.7,0.6,2.2c0.4,0.5,0.9,0.7,1.6,0.7
				c0.8,0,1.6-0.2,2.3-0.6v1.6c-0.3,0.2-0.7,0.3-1.1,0.4C263.6,4382.1,263.2,4382.2,262.6,4382.2z"/>
			<path class="st2" d="M270.3,4380.7c0.4,0,0.9-0.1,1.3-0.2v1.4c-0.2,0.1-0.5,0.2-0.8,0.2s-0.7,0.1-1,0.1c-1.7,0-2.6-0.9-2.6-2.8
				v-4.7h-1.2v-0.8l1.3-0.7l0.6-1.8h1.1v1.9h2.5v1.4h-2.5v4.6c0,0.4,0.1,0.8,0.3,1C269.6,4380.6,269.9,4380.7,270.3,4380.7z"/>
			<path class="st2" d="M281,4377.7c0,1.4-0.4,2.5-1.1,3.3c-0.7,0.8-1.7,1.2-3,1.2c-0.8,0-1.5-0.2-2.1-0.5c-0.6-0.4-1.1-0.9-1.4-1.6
				c-0.3-0.7-0.5-1.5-0.5-2.4c0-1.4,0.4-2.5,1.1-3.3s1.7-1.2,3-1.2c1.3,0,2.2,0.4,3,1.2C280.7,4375.2,281,4376.3,281,4377.7z
				 M274.7,4377.7c0,2,0.7,3,2.2,3c1.5,0,2.2-1,2.2-3c0-2-0.7-3-2.2-3c-0.8,0-1.3,0.3-1.7,0.8C274.9,4376,274.7,4376.7,274.7,4377.7
				z"/>
			<path class="st2" d="M286.6,4377.6c0-1.4,0.2-2.7,0.6-3.9c0.4-1.2,1-2.3,1.7-3.2h1.6c-0.7,1-1.3,2.1-1.7,3.3
				c-0.4,1.2-0.6,2.5-0.6,3.7s0.2,2.5,0.6,3.7c0.4,1.2,0.9,2.3,1.6,3.2H289c-0.8-0.9-1.3-1.9-1.8-3.1
				C286.8,4380.2,286.6,4379,286.6,4377.6z"/>
			<path class="st2" d="M295.3,4382.2c-1.1,0-1.9-0.4-2.5-1.2c-0.6-0.8-0.9-1.9-0.9-3.3c0-1.4,0.3-2.5,0.9-3.3
				c0.6-0.8,1.5-1.2,2.5-1.2c1.1,0,2,0.4,2.6,1.3h0.1c-0.1-0.6-0.1-1.1-0.1-1.5v-3.1h1.8v12.2h-1.4l-0.3-1.1h-0.1
				C297.3,4381.7,296.4,4382.2,295.3,4382.2z M295.8,4380.7c0.8,0,1.3-0.2,1.6-0.6s0.5-1.1,0.5-2.1v-0.3c0-1.1-0.2-1.9-0.5-2.3
				c-0.4-0.5-0.9-0.7-1.7-0.7c-0.6,0-1.1,0.3-1.5,0.8c-0.3,0.5-0.5,1.3-0.5,2.2c0,1,0.2,1.7,0.5,2.2
				C294.6,4380.4,295.1,4380.7,295.8,4380.7z"/>
			<path class="st2" d="M308.4,4382l-0.3-1.1h-0.1c-0.3,0.4-0.6,0.7-1.1,0.9c-0.5,0.2-1,0.3-1.6,0.3c-1,0-1.8-0.3-2.3-0.8
				s-0.8-1.3-0.8-2.4v-5.6h1.9v5.3c0,0.7,0.1,1.2,0.4,1.5c0.3,0.3,0.7,0.5,1.3,0.5c0.8,0,1.3-0.2,1.7-0.7c0.4-0.5,0.5-1.2,0.5-2.3
				v-4.3h1.8v8.6H308.4z"/>
			<path class="st2" d="M316.9,4373.2c0.4,0,0.7,0,0.9,0.1l-0.2,1.7c-0.3-0.1-0.5-0.1-0.8-0.1c-0.7,0-1.3,0.2-1.8,0.7
				c-0.5,0.5-0.7,1.1-0.7,1.9v4.5h-1.8v-8.6h1.4l0.2,1.5h0.1c0.3-0.5,0.7-0.9,1.1-1.2S316.3,4373.2,316.9,4373.2z"/>
			<path class="st2" d="M324.8,4382l-0.4-1.2h-0.1c-0.4,0.5-0.8,0.9-1.3,1.1s-1,0.3-1.6,0.3c-0.8,0-1.5-0.2-2-0.7s-0.7-1.1-0.7-1.9
				c0-0.9,0.3-1.6,1-2c0.7-0.5,1.7-0.7,3-0.7l1.5,0v-0.5c0-0.6-0.1-1-0.4-1.2s-0.7-0.4-1.2-0.4c-0.4,0-0.9,0.1-1.3,0.2
				s-0.8,0.3-1.2,0.5l-0.6-1.3c0.5-0.2,1-0.4,1.5-0.6c0.6-0.1,1.1-0.2,1.6-0.2c1.1,0,1.9,0.2,2.5,0.7c0.6,0.5,0.8,1.2,0.8,2.3v5.8
				H324.8z M322.1,4380.8c0.7,0,1.2-0.2,1.6-0.6c0.4-0.4,0.6-0.9,0.6-1.6v-0.8l-1.1,0c-0.9,0-1.5,0.2-1.9,0.4
				c-0.4,0.3-0.6,0.7-0.6,1.2c0,0.4,0.1,0.7,0.3,0.9C321.3,4380.6,321.6,4380.8,322.1,4380.8z"/>
			<path class="st2" d="M334.4,4382h-6.6v-1.1l4.4-6.1h-4.1v-1.4h6.2v1.3l-4.3,6h4.4V4382z"/>
			<path class="st2" d="M343.9,4382h-1.8v-5.3c0-0.7-0.1-1.2-0.4-1.5c-0.3-0.3-0.7-0.5-1.3-0.5c-0.8,0-1.3,0.2-1.7,0.7
				s-0.5,1.2-0.5,2.3v4.3h-1.8v-8.6h1.4l0.3,1.1h0.1c0.3-0.4,0.6-0.7,1.1-1c0.5-0.2,1-0.3,1.6-0.3c2.1,0,3.1,1.1,3.1,3.2V4382z"/>
			<path class="st2" d="M354.1,4377.7c0,1.4-0.4,2.5-1.1,3.3c-0.7,0.8-1.7,1.2-3,1.2c-0.8,0-1.5-0.2-2.1-0.5
				c-0.6-0.4-1.1-0.9-1.4-1.6c-0.3-0.7-0.5-1.5-0.5-2.4c0-1.4,0.4-2.5,1.1-3.3s1.7-1.2,3-1.2c1.3,0,2.2,0.4,3,1.2
				C353.8,4375.2,354.1,4376.3,354.1,4377.7z M347.9,4377.7c0,2,0.7,3,2.2,3c1.5,0,2.2-1,2.2-3c0-2-0.7-3-2.2-3
				c-0.8,0-1.3,0.3-1.7,0.8C348,4376,347.9,4376.7,347.9,4377.7z"/>
			<path class="st2" d="M362.1,4379.5c0,0.8-0.3,1.5-0.9,1.9c-0.6,0.5-1.5,0.7-2.6,0.7c-1.2,0-2.1-0.2-2.8-0.5v-1.6
				c1,0.5,2,0.7,2.8,0.7c1.1,0,1.7-0.3,1.7-1c0-0.2-0.1-0.4-0.2-0.5s-0.3-0.3-0.6-0.5c-0.3-0.2-0.7-0.3-1.2-0.5
				c-1-0.4-1.7-0.8-2-1.2s-0.5-0.9-0.5-1.5c0-0.7,0.3-1.3,0.9-1.7c0.6-0.4,1.4-0.6,2.4-0.6c1,0,2,0.2,2.9,0.6l-0.6,1.4
				c-0.9-0.4-1.7-0.6-2.4-0.6c-1,0-1.5,0.3-1.5,0.8c0,0.3,0.1,0.5,0.4,0.7c0.3,0.2,0.8,0.4,1.7,0.8c0.7,0.3,1.2,0.5,1.6,0.8
				c0.3,0.2,0.6,0.5,0.7,0.8S362.1,4379.1,362.1,4379.5z"/>
		</g>
		<g class="st1">
			<path class="st2" d="M189.9,4404.2c-1.3,0-2.4-0.4-3.2-1.2s-1.1-1.9-1.1-3.2c0-1.4,0.4-2.5,1.1-3.3s1.7-1.2,2.9-1.2
				c1.1,0,2,0.3,2.7,1c0.7,0.7,1,1.6,1,2.9v1h-5.8c0,0.8,0.3,1.5,0.7,1.9c0.4,0.5,1,0.7,1.8,0.7c0.5,0,1,0,1.4-0.1
				c0.4-0.1,0.9-0.3,1.4-0.5v1.5c-0.4,0.2-0.9,0.4-1.4,0.5C191,4404.1,190.5,4404.2,189.9,4404.2z M189.6,4396.6
				c-0.6,0-1.1,0.2-1.4,0.6s-0.6,0.9-0.6,1.6h3.9c0-0.7-0.2-1.3-0.5-1.6C190.6,4396.8,190.2,4396.6,189.6,4396.6z"/>
			<path class="st2" d="M203,4404h-1.8v-5.3c0-0.7-0.1-1.2-0.4-1.5c-0.3-0.3-0.7-0.5-1.3-0.5c-0.8,0-1.3,0.2-1.7,0.7
				s-0.5,1.2-0.5,2.3v4.3h-1.8v-8.6h1.4l0.3,1.1h0.1c0.3-0.4,0.6-0.7,1.1-1c0.5-0.2,1-0.3,1.6-0.3c2.1,0,3.1,1.1,3.1,3.2V4404z"/>
			<path class="st2" d="M215.1,4404l-0.4-1.2h-0.1c-0.4,0.5-0.8,0.9-1.3,1.1s-1,0.3-1.6,0.3c-0.8,0-1.5-0.2-2-0.7s-0.7-1.1-0.7-1.9
				c0-0.9,0.3-1.6,1-2c0.7-0.5,1.7-0.7,3-0.7l1.5,0v-0.5c0-0.6-0.1-1-0.4-1.2s-0.7-0.4-1.2-0.4c-0.4,0-0.9,0.1-1.3,0.2
				s-0.8,0.3-1.2,0.5l-0.6-1.3c0.5-0.2,1-0.4,1.5-0.6c0.6-0.1,1.1-0.2,1.6-0.2c1.1,0,1.9,0.2,2.5,0.7c0.6,0.5,0.8,1.2,0.8,2.3v5.8
				H215.1z M212.3,4402.8c0.7,0,1.2-0.2,1.6-0.6c0.4-0.4,0.6-0.9,0.6-1.6v-0.8l-1.1,0c-0.9,0-1.5,0.2-1.9,0.4
				c-0.4,0.3-0.6,0.7-0.6,1.2c0,0.4,0.1,0.7,0.3,0.9C211.5,4402.6,211.9,4402.8,212.3,4402.8z"/>
			<path class="st2" d="M220.8,4404H219v-12.2h1.8V4404z"/>
			<path class="st2" d="M230.7,4404h-1.8v-5.3c0-0.7-0.1-1.2-0.4-1.5s-0.6-0.5-1.2-0.5c-0.7,0-1.2,0.2-1.6,0.7
				c-0.3,0.5-0.5,1.2-0.5,2.3v4.3h-1.8v-8.6h1.4l0.3,1.1h0.1c0.2-0.4,0.6-0.7,1-1c0.5-0.2,1-0.3,1.5-0.3c1.3,0,2.2,0.5,2.6,1.4h0.1
				c0.3-0.4,0.6-0.8,1.1-1c0.5-0.2,1-0.4,1.6-0.4c1,0,1.8,0.3,2.3,0.8c0.5,0.5,0.7,1.3,0.7,2.4v5.6h-1.8v-5.3c0-0.7-0.1-1.2-0.4-1.5
				c-0.3-0.3-0.6-0.5-1.2-0.5c-0.7,0-1.2,0.2-1.6,0.7c-0.3,0.4-0.5,1.1-0.5,2.1V4404z"/>
			<path class="st2" d="M238.6,4394.3v-0.2c0.3-0.4,0.6-0.8,0.9-1.2c0.3-0.4,0.6-0.8,0.7-1.1h2.1v0.2c-0.3,0.3-0.7,0.7-1.2,1.2
				s-1,0.9-1.4,1.2H238.6z M240.6,4404h-1.8v-8.6h1.8V4404z"/>
			<path class="st2" d="M247.6,4395.2c1.1,0,1.9,0.4,2.5,1.2s0.9,1.9,0.9,3.3c0,1.4-0.3,2.5-0.9,3.3s-1.5,1.2-2.5,1.2
				c-1.1,0-1.9-0.4-2.5-1.2h-0.1l-0.3,1h-1.4v-12.2h1.8v2.9c0,0.2,0,0.5,0,1c0,0.4,0,0.7,0,0.8h0.1
				C245.6,4395.6,246.5,4395.2,247.6,4395.2z M247.1,4396.7c-0.7,0-1.3,0.2-1.6,0.7c-0.3,0.4-0.5,1.2-0.5,2.2v0.1
				c0,1.1,0.2,1.8,0.5,2.3c0.3,0.5,0.9,0.7,1.6,0.7c0.7,0,1.1-0.3,1.5-0.8s0.5-1.3,0.5-2.2C249.1,4397.7,248.5,4396.7,247.1,4396.7z
				"/>
			<path class="st2" d="M258.6,4404l-0.4-1.2h-0.1c-0.4,0.5-0.8,0.9-1.3,1.1s-1,0.3-1.6,0.3c-0.8,0-1.5-0.2-2-0.7s-0.7-1.1-0.7-1.9
				c0-0.9,0.3-1.6,1-2c0.7-0.5,1.7-0.7,3-0.7l1.5,0v-0.5c0-0.6-0.1-1-0.4-1.2s-0.7-0.4-1.2-0.4c-0.4,0-0.9,0.1-1.3,0.2
				s-0.8,0.3-1.2,0.5l-0.6-1.3c0.5-0.2,1-0.4,1.5-0.6c0.6-0.1,1.1-0.2,1.6-0.2c1.1,0,1.9,0.2,2.5,0.7c0.6,0.5,0.8,1.2,0.8,2.3v5.8
				H258.6z M255.8,4402.8c0.7,0,1.2-0.2,1.6-0.6c0.4-0.4,0.6-0.9,0.6-1.6v-0.8l-1.1,0c-0.9,0-1.5,0.2-1.9,0.4
				c-0.4,0.3-0.6,0.7-0.6,1.2c0,0.4,0.1,0.7,0.3,0.9C255,4402.6,255.4,4402.8,255.8,4402.8z"/>
			<path class="st2" d="M266.8,4395.2c0.4,0,0.7,0,0.9,0.1l-0.2,1.7c-0.3-0.1-0.5-0.1-0.8-0.1c-0.7,0-1.3,0.2-1.8,0.7
				c-0.5,0.5-0.7,1.1-0.7,1.9v4.5h-1.8v-8.6h1.4l0.2,1.5h0.1c0.3-0.5,0.7-0.9,1.1-1.2S266.3,4395.2,266.8,4395.2z"/>
			<path class="st2" d="M271.2,4402.3c-0.3,1-0.7,2.2-1.4,3.7h-1.4c0.4-1.4,0.6-2.7,0.8-3.9h1.8L271.2,4402.3z"/>
			<path class="st2" d="M283.5,4404H277v-1.1l4.4-6.1h-4.1v-1.4h6.2v1.3l-4.3,6h4.4V4404z"/>
			<path class="st2" d="M290.8,4404l-0.4-1.2h-0.1c-0.4,0.5-0.8,0.9-1.3,1.1s-1,0.3-1.6,0.3c-0.8,0-1.5-0.2-2-0.7s-0.7-1.1-0.7-1.9
				c0-0.9,0.3-1.6,1-2c0.7-0.5,1.7-0.7,3-0.7l1.5,0v-0.5c0-0.6-0.1-1-0.4-1.2s-0.7-0.4-1.2-0.4c-0.4,0-0.9,0.1-1.3,0.2
				s-0.8,0.3-1.2,0.5l-0.6-1.3c0.5-0.2,1-0.4,1.5-0.6c0.6-0.1,1.1-0.2,1.6-0.2c1.1,0,1.9,0.2,2.5,0.7c0.6,0.5,0.8,1.2,0.8,2.3v5.8
				H290.8z M288.1,4402.8c0.7,0,1.2-0.2,1.6-0.6c0.4-0.4,0.6-0.9,0.6-1.6v-0.8l-1.1,0c-0.9,0-1.5,0.2-1.9,0.4
				c-0.4,0.3-0.6,0.7-0.6,1.2c0,0.4,0.1,0.7,0.3,0.9C287.3,4402.6,287.6,4402.8,288.1,4402.8z"/>
			<path class="st2" d="M302.3,4404h-1.8v-5.3c0-0.7-0.1-1.2-0.4-1.5c-0.3-0.3-0.7-0.5-1.3-0.5c-0.8,0-1.3,0.2-1.7,0.7
				s-0.5,1.2-0.5,2.3v4.3h-1.8v-8.6h1.4l0.3,1.1h0.1c0.3-0.4,0.6-0.7,1.1-1c0.5-0.2,1-0.3,1.6-0.3c2.1,0,3.1,1.1,3.1,3.2V4404z"/>
			<path class="st2" d="M310.2,4404l-0.4-1.2h-0.1c-0.4,0.5-0.8,0.9-1.3,1.1s-1,0.3-1.6,0.3c-0.8,0-1.5-0.2-2-0.7s-0.7-1.1-0.7-1.9
				c0-0.9,0.3-1.6,1-2c0.7-0.5,1.7-0.7,3-0.7l1.5,0v-0.5c0-0.6-0.1-1-0.4-1.2s-0.7-0.4-1.2-0.4c-0.4,0-0.9,0.1-1.3,0.2
				s-0.8,0.3-1.2,0.5l-0.6-1.3c0.5-0.2,1-0.4,1.5-0.6c0.6-0.1,1.1-0.2,1.6-0.2c1.1,0,1.9,0.2,2.5,0.7c0.6,0.5,0.8,1.2,0.8,2.3v5.8
				H310.2z M307.5,4402.8c0.7,0,1.2-0.2,1.6-0.6c0.4-0.4,0.6-0.9,0.6-1.6v-0.8l-1.1,0c-0.9,0-1.5,0.2-1.9,0.4
				c-0.4,0.3-0.6,0.7-0.6,1.2c0,0.4,0.1,0.7,0.3,0.9C306.7,4402.6,307.1,4402.8,307.5,4402.8z"/>
			<path class="st2" d="M321.7,4404h-1.8v-5.3c0-0.7-0.1-1.2-0.4-1.5c-0.3-0.3-0.7-0.5-1.3-0.5c-0.8,0-1.3,0.2-1.7,0.7
				c-0.4,0.5-0.5,1.2-0.5,2.3v4.3h-1.8v-12.2h1.8v3.1c0,0.5,0,1-0.1,1.6h0.1c0.3-0.4,0.6-0.7,1-1s1-0.3,1.6-0.3
				c2.1,0,3.1,1.1,3.1,3.2V4404z"/>
			<path class="st2" d="M331.9,4399.7c0,1.4-0.4,2.5-1.1,3.3c-0.7,0.8-1.7,1.2-3,1.2c-0.8,0-1.5-0.2-2.1-0.5
				c-0.6-0.4-1.1-0.9-1.4-1.6c-0.3-0.7-0.5-1.5-0.5-2.4c0-1.4,0.4-2.5,1.1-3.3s1.7-1.2,3-1.2c1.3,0,2.2,0.4,3,1.2
				C331.6,4397.2,331.9,4398.3,331.9,4399.7z M325.7,4399.7c0,2,0.7,3,2.2,3c1.5,0,2.2-1,2.2-3c0-2-0.7-3-2.2-3
				c-0.8,0-1.3,0.3-1.7,0.8C325.8,4398,325.7,4398.7,325.7,4399.7z"/>
			<path class="st2" d="M338.4,4395.2c0.4,0,0.7,0,0.9,0.1l-0.2,1.7c-0.3-0.1-0.5-0.1-0.8-0.1c-0.7,0-1.3,0.2-1.8,0.7
				c-0.5,0.5-0.7,1.1-0.7,1.9v4.5h-1.8v-8.6h1.4l0.2,1.5h0.1c0.3-0.5,0.7-0.9,1.1-1.2S337.9,4395.2,338.4,4395.2z"/>
			<path class="st2" d="M340.8,4393.1c0-0.3,0.1-0.6,0.3-0.8s0.4-0.3,0.8-0.3c0.3,0,0.6,0.1,0.8,0.3s0.3,0.4,0.3,0.8
				c0,0.3-0.1,0.6-0.3,0.7s-0.4,0.3-0.8,0.3c-0.3,0-0.6-0.1-0.8-0.3S340.8,4393.4,340.8,4393.1z M342.8,4404h-1.8v-8.6h1.8V4404z"/>
			<path class="st2" d="M350.8,4404l-0.4-1.2h-0.1c-0.4,0.5-0.8,0.9-1.3,1.1s-1,0.3-1.6,0.3c-0.8,0-1.5-0.2-2-0.7s-0.7-1.1-0.7-1.9
				c0-0.9,0.3-1.6,1-2c0.7-0.5,1.7-0.7,3-0.7l1.5,0v-0.5c0-0.6-0.1-1-0.4-1.2s-0.7-0.4-1.2-0.4c-0.4,0-0.9,0.1-1.3,0.2
				s-0.8,0.3-1.2,0.5l-0.6-1.3c0.5-0.2,1-0.4,1.5-0.6c0.6-0.1,1.1-0.2,1.6-0.2c1.1,0,1.9,0.2,2.5,0.7c0.6,0.5,0.8,1.2,0.8,2.3v5.8
				H350.8z M348.1,4402.8c0.7,0,1.2-0.2,1.6-0.6c0.4-0.4,0.6-0.9,0.6-1.6v-0.8l-1.1,0c-0.9,0-1.5,0.2-1.9,0.4
				c-0.4,0.3-0.6,0.7-0.6,1.2c0,0.4,0.1,0.7,0.3,0.9C347.3,4402.6,347.6,4402.8,348.1,4402.8z"/>
			<path class="st2" d="M360.5,4401.5c0,0.8-0.3,1.5-0.9,1.9c-0.6,0.5-1.5,0.7-2.6,0.7c-1.2,0-2.1-0.2-2.8-0.5v-1.6
				c1,0.5,2,0.7,2.8,0.7c1.1,0,1.7-0.3,1.7-1c0-0.2-0.1-0.4-0.2-0.5s-0.3-0.3-0.6-0.5c-0.3-0.2-0.7-0.3-1.2-0.5
				c-1-0.4-1.7-0.8-2-1.2s-0.5-0.9-0.5-1.5c0-0.7,0.3-1.3,0.9-1.7c0.6-0.4,1.4-0.6,2.4-0.6c1,0,2,0.2,2.9,0.6l-0.6,1.4
				c-0.9-0.4-1.7-0.6-2.4-0.6c-1,0-1.5,0.3-1.5,0.8c0,0.3,0.1,0.5,0.4,0.7c0.3,0.2,0.8,0.4,1.7,0.8c0.7,0.3,1.2,0.5,1.6,0.8
				c0.3,0.2,0.6,0.5,0.7,0.8S360.5,4401.1,360.5,4401.5z"/>
		</g>
		<g class="st1">
			<path class="st2" d="M225.4,4426.2c-1.3,0-2.4-0.4-3.2-1.2s-1.1-1.9-1.1-3.2c0-1.4,0.4-2.5,1.1-3.3s1.7-1.2,2.9-1.2
				c1.1,0,2,0.3,2.7,1c0.7,0.7,1,1.6,1,2.9v1H223c0,0.8,0.3,1.5,0.7,1.9c0.4,0.5,1,0.7,1.8,0.7c0.5,0,1,0,1.4-0.1
				c0.4-0.1,0.9-0.3,1.4-0.5v1.5c-0.4,0.2-0.9,0.4-1.4,0.5C226.5,4426.1,226,4426.2,225.4,4426.2z M225.1,4418.6
				c-0.6,0-1.1,0.2-1.4,0.6s-0.6,0.9-0.6,1.6h3.9c0-0.7-0.2-1.3-0.5-1.6C226.1,4418.8,225.6,4418.6,225.1,4418.6z"/>
			<path class="st2" d="M238.4,4426h-1.8v-5.3c0-0.7-0.1-1.2-0.4-1.5c-0.3-0.3-0.7-0.5-1.3-0.5c-0.8,0-1.3,0.2-1.7,0.7
				s-0.5,1.2-0.5,2.3v4.3h-1.8v-8.6h1.4l0.3,1.1h0.1c0.3-0.4,0.6-0.7,1.1-1c0.5-0.2,1-0.3,1.6-0.3c2.1,0,3.1,1.1,3.1,3.2V4426z"/>
			<path class="st2" d="M251,4423.5c0,0.8-0.3,1.5-0.9,1.9c-0.6,0.5-1.5,0.7-2.6,0.7c-1.2,0-2.1-0.2-2.8-0.5v-1.6
				c1,0.5,2,0.7,2.8,0.7c1.1,0,1.7-0.3,1.7-1c0-0.2-0.1-0.4-0.2-0.5s-0.3-0.3-0.6-0.5c-0.3-0.2-0.7-0.3-1.2-0.5
				c-1-0.4-1.7-0.8-2-1.2s-0.5-0.9-0.5-1.5c0-0.7,0.3-1.3,0.9-1.7c0.6-0.4,1.4-0.6,2.4-0.6c1,0,2,0.2,2.9,0.6l-0.6,1.4
				c-0.9-0.4-1.7-0.6-2.4-0.6c-1,0-1.5,0.3-1.5,0.8c0,0.3,0.1,0.5,0.4,0.7c0.3,0.2,0.8,0.4,1.7,0.8c0.7,0.3,1.2,0.5,1.6,0.8
				c0.3,0.2,0.6,0.5,0.7,0.8S251,4423.1,251,4423.5z"/>
			<path class="st2" d="M258.3,4426l-0.4-1.2h-0.1c-0.4,0.5-0.8,0.9-1.3,1.1s-1,0.3-1.6,0.3c-0.8,0-1.5-0.2-2-0.7s-0.7-1.1-0.7-1.9
				c0-0.9,0.3-1.6,1-2c0.7-0.5,1.7-0.7,3-0.7l1.5,0v-0.5c0-0.6-0.1-1-0.4-1.2s-0.7-0.4-1.2-0.4c-0.4,0-0.9,0.1-1.3,0.2
				s-0.8,0.3-1.2,0.5l-0.6-1.3c0.5-0.2,1-0.4,1.5-0.6c0.6-0.1,1.1-0.2,1.6-0.2c1.1,0,1.9,0.2,2.5,0.7c0.6,0.5,0.8,1.2,0.8,2.3v5.8
				H258.3z M255.6,4424.8c0.7,0,1.2-0.2,1.6-0.6c0.4-0.4,0.6-0.9,0.6-1.6v-0.8l-1.1,0c-0.9,0-1.5,0.2-1.9,0.4
				c-0.4,0.3-0.6,0.7-0.6,1.2c0,0.4,0.1,0.7,0.3,0.9C254.8,4424.6,255.2,4424.8,255.6,4424.8z"/>
			<path class="st2" d="M264.1,4426h-1.8v-12.2h1.8V4426z"/>
			<path class="st2" d="M274,4426h-1.8v-5.3c0-0.7-0.1-1.2-0.4-1.5s-0.6-0.5-1.2-0.5c-0.7,0-1.2,0.2-1.6,0.7
				c-0.3,0.5-0.5,1.2-0.5,2.3v4.3h-1.8v-8.6h1.4l0.3,1.1h0.1c0.2-0.4,0.6-0.7,1-1c0.5-0.2,1-0.3,1.5-0.3c1.3,0,2.2,0.5,2.6,1.4h0.1
				c0.3-0.4,0.6-0.8,1.1-1c0.5-0.2,1-0.4,1.6-0.4c1,0,1.8,0.3,2.3,0.8c0.5,0.5,0.7,1.3,0.7,2.4v5.6h-1.8v-5.3c0-0.7-0.1-1.2-0.4-1.5
				c-0.3-0.3-0.6-0.5-1.2-0.5c-0.7,0-1.2,0.2-1.6,0.7c-0.3,0.4-0.5,1.1-0.5,2.1V4426z"/>
			<path class="st2" d="M288.1,4426l-0.3-1.1h-0.1c-0.3,0.4-0.6,0.7-1.1,0.9c-0.5,0.2-1,0.3-1.6,0.3c-1,0-1.8-0.3-2.3-0.8
				s-0.8-1.3-0.8-2.4v-5.6h1.9v5.3c0,0.7,0.1,1.2,0.4,1.5c0.3,0.3,0.7,0.5,1.3,0.5c0.8,0,1.3-0.2,1.7-0.7c0.4-0.5,0.5-1.2,0.5-2.3
				v-4.3h1.8v8.6H288.1z"/>
			<path class="st2" d="M295.9,4426.2c-1.3,0-2.4-0.4-3.2-1.2s-1.1-1.9-1.1-3.2c0-1.4,0.4-2.5,1.1-3.3s1.7-1.2,2.9-1.2
				c1.1,0,2,0.3,2.7,1c0.7,0.7,1,1.6,1,2.9v1h-5.8c0,0.8,0.3,1.5,0.7,1.9c0.4,0.5,1,0.7,1.8,0.7c0.5,0,1,0,1.4-0.1
				c0.4-0.1,0.9-0.3,1.4-0.5v1.5c-0.4,0.2-0.9,0.4-1.4,0.5C297,4426.1,296.5,4426.2,295.9,4426.2z M295.6,4418.6
				c-0.6,0-1.1,0.2-1.4,0.6s-0.6,0.9-0.6,1.6h3.9c0-0.7-0.2-1.3-0.5-1.6C296.6,4418.8,296.2,4418.6,295.6,4418.6z"/>
			<path class="st2" d="M305.7,4417.2c0.4,0,0.7,0,0.9,0.1l-0.2,1.7c-0.3-0.1-0.5-0.1-0.8-0.1c-0.7,0-1.3,0.2-1.8,0.7
				c-0.5,0.5-0.7,1.1-0.7,1.9v4.5h-1.8v-8.6h1.4l0.2,1.5h0.1c0.3-0.5,0.7-0.9,1.1-1.2S305.2,4417.2,305.7,4417.2z"/>
			<path class="st2" d="M313.7,4426l-0.4-1.2h-0.1c-0.4,0.5-0.8,0.9-1.3,1.1s-1,0.3-1.6,0.3c-0.8,0-1.5-0.2-2-0.7s-0.7-1.1-0.7-1.9
				c0-0.9,0.3-1.6,1-2c0.7-0.5,1.7-0.7,3-0.7l1.5,0v-0.5c0-0.6-0.1-1-0.4-1.2s-0.7-0.4-1.2-0.4c-0.4,0-0.9,0.1-1.3,0.2
				s-0.8,0.3-1.2,0.5l-0.6-1.3c0.5-0.2,1-0.4,1.5-0.6c0.6-0.1,1.1-0.2,1.6-0.2c1.1,0,1.9,0.2,2.5,0.7c0.6,0.5,0.8,1.2,0.8,2.3v5.8
				H313.7z M310.9,4424.8c0.7,0,1.2-0.2,1.6-0.6c0.4-0.4,0.6-0.9,0.6-1.6v-0.8l-1.1,0c-0.9,0-1.5,0.2-1.9,0.4
				c-0.4,0.3-0.6,0.7-0.6,1.2c0,0.4,0.1,0.7,0.3,0.9C310.1,4424.6,310.5,4424.8,310.9,4424.8z"/>
			<path class="st2" d="M320.7,4421.6c0,1.4-0.2,2.6-0.6,3.8c-0.4,1.2-1,2.2-1.7,3.1h-1.6c0.7-1,1.3-2.1,1.7-3.2s0.6-2.4,0.6-3.7
				c0-1.3-0.2-2.5-0.6-3.7c-0.4-1.2-0.9-2.3-1.7-3.3h1.6c0.8,0.9,1.3,2,1.8,3.2C320.5,4419,320.7,4420.2,320.7,4421.6z"/>
			<path class="st2" d="M322.3,4425c0-0.4,0.1-0.7,0.3-0.9c0.2-0.2,0.5-0.3,0.9-0.3c0.4,0,0.7,0.1,0.9,0.3c0.2,0.2,0.3,0.5,0.3,0.9
				c0,0.4-0.1,0.7-0.3,0.9c-0.2,0.2-0.5,0.3-0.9,0.3s-0.7-0.1-0.9-0.3C322.4,4425.7,322.3,4425.4,322.3,4425z"/>
		</g>
		<g id="Grupo_7945" transform="translate(-691 -74)">
			<circle id="Elipse_678" class="st3" cx="964.5" cy="4377.5" r="22.5"/>
			<g class="st1">
				<path class="st4" d="M967.2,4387h-3.8v-10.3l0-1.7l0.1-1.9c-0.6,0.6-1.1,1-1.3,1.2l-2.1,1.6l-1.8-2.3l5.8-4.6h3.1V4387z"/>
			</g>
		</g>
	</g>
	<g id="Grupo_7948" transform="translate(27 -591)">
		<path id="Rectángulo_3378" class="st0" d="M444,4304h198c5.5,0,10,4.5,10,10v123c0,5.5-4.5,10-10,10H444c-5.5,0-10-4.5-10-10
			v-123C434,4308.5,438.5,4304,444,4304z"/>
		<g class="st1">
			<path class="st2" d="M480.1,4382l-3.3-9.5h-0.1c0.1,1.4,0.1,2.7,0.1,4v5.6h-1.7v-11.4h2.6l3.2,9.1h0l3.3-9.1h2.6v11.4h-1.8v-5.6
				c0-0.6,0-1.3,0-2.2c0-0.9,0.1-1.5,0.1-1.7h-0.1l-3.4,9.5H480.1z"/>
			<path class="st2" d="M493.5,4382.2c-1.3,0-2.4-0.4-3.2-1.2s-1.1-1.9-1.1-3.2c0-1.4,0.4-2.5,1.1-3.3s1.7-1.2,2.9-1.2
				c1.1,0,2,0.3,2.7,1c0.7,0.7,1,1.6,1,2.9v1h-5.8c0,0.8,0.3,1.5,0.7,1.9c0.4,0.5,1,0.7,1.8,0.7c0.5,0,1,0,1.4-0.1
				c0.4-0.1,0.9-0.3,1.4-0.5v1.5c-0.4,0.2-0.9,0.4-1.4,0.5C494.6,4382.1,494.1,4382.2,493.5,4382.2z M493.2,4374.6
				c-0.6,0-1.1,0.2-1.4,0.6s-0.6,0.9-0.6,1.6h3.9c0-0.7-0.2-1.3-0.5-1.6C494.2,4374.8,493.8,4374.6,493.2,4374.6z"/>
			<path class="st2" d="M498.1,4385.8c-0.6,0-1-0.1-1.4-0.2v-1.5c0.4,0.1,0.7,0.1,1.1,0.1c0.8,0,1.2-0.4,1.2-1.3v-9.6h1.8v9.8
				c0,0.9-0.2,1.6-0.7,2C499.6,4385.6,498.9,4385.8,498.1,4385.8z M498.8,4371.1c0-0.3,0.1-0.6,0.3-0.8s0.4-0.3,0.8-0.3
				c0.3,0,0.6,0.1,0.8,0.3s0.3,0.4,0.3,0.8c0,0.3-0.1,0.6-0.3,0.7s-0.4,0.3-0.8,0.3c-0.3,0-0.6-0.1-0.8-0.3
				S498.8,4371.4,498.8,4371.1z"/>
			<path class="st2" d="M511.1,4377.7c0,1.4-0.4,2.5-1.1,3.3c-0.7,0.8-1.7,1.2-3,1.2c-0.8,0-1.5-0.2-2.1-0.5
				c-0.6-0.4-1.1-0.9-1.4-1.6c-0.3-0.7-0.5-1.5-0.5-2.4c0-1.4,0.4-2.5,1.1-3.3s1.7-1.2,3-1.2c1.3,0,2.2,0.4,3,1.2
				C510.7,4375.2,511.1,4376.3,511.1,4377.7z M504.8,4377.7c0,2,0.7,3,2.2,3c1.5,0,2.2-1,2.2-3c0-2-0.7-3-2.2-3
				c-0.8,0-1.3,0.3-1.7,0.8C505,4376,504.8,4376.7,504.8,4377.7z"/>
			<path class="st2" d="M517.6,4373.2c0.4,0,0.7,0,0.9,0.1l-0.2,1.7c-0.3-0.1-0.5-0.1-0.8-0.1c-0.7,0-1.3,0.2-1.8,0.7
				c-0.5,0.5-0.7,1.1-0.7,1.9v4.5h-1.8v-8.6h1.4l0.2,1.5h0.1c0.3-0.5,0.7-0.9,1.1-1.2S517,4373.2,517.6,4373.2z"/>
			<path class="st2" d="M525.5,4382l-0.4-1.2h-0.1c-0.4,0.5-0.8,0.9-1.3,1.1s-1,0.3-1.6,0.3c-0.8,0-1.5-0.2-2-0.7s-0.7-1.1-0.7-1.9
				c0-0.9,0.3-1.6,1-2c0.7-0.5,1.7-0.7,3-0.7l1.5,0v-0.5c0-0.6-0.1-1-0.4-1.2s-0.7-0.4-1.2-0.4c-0.4,0-0.9,0.1-1.3,0.2
				s-0.8,0.3-1.2,0.5l-0.6-1.3c0.5-0.2,1-0.4,1.5-0.6c0.6-0.1,1.1-0.2,1.6-0.2c1.1,0,1.9,0.2,2.5,0.7c0.6,0.5,0.8,1.2,0.8,2.3v5.8
				H525.5z M522.8,4380.8c0.7,0,1.2-0.2,1.6-0.6c0.4-0.4,0.6-0.9,0.6-1.6v-0.8l-1.1,0c-0.9,0-1.5,0.2-1.9,0.4
				c-0.4,0.3-0.6,0.7-0.6,1.2c0,0.4,0.1,0.7,0.3,0.9C522,4380.6,522.3,4380.8,522.8,4380.8z"/>
			<path class="st2" d="M533.7,4373.2c0.4,0,0.7,0,0.9,0.1l-0.2,1.7c-0.3-0.1-0.5-0.1-0.8-0.1c-0.7,0-1.3,0.2-1.8,0.7
				c-0.5,0.5-0.7,1.1-0.7,1.9v4.5h-1.8v-8.6h1.4l0.2,1.5h0.1c0.3-0.5,0.7-0.9,1.1-1.2S533.2,4373.2,533.7,4373.2z"/>
			<path class="st2" d="M542.3,4382h-1.8v-12.2h1.8V4382z"/>
			<path class="st2" d="M550.3,4382l-0.4-1.2h-0.1c-0.4,0.5-0.8,0.9-1.3,1.1s-1,0.3-1.6,0.3c-0.8,0-1.5-0.2-2-0.7s-0.7-1.1-0.7-1.9
				c0-0.9,0.3-1.6,1-2c0.7-0.5,1.7-0.7,3-0.7l1.5,0v-0.5c0-0.6-0.1-1-0.4-1.2s-0.7-0.4-1.2-0.4c-0.4,0-0.9,0.1-1.3,0.2
				s-0.8,0.3-1.2,0.5l-0.6-1.3c0.5-0.2,1-0.4,1.5-0.6c0.6-0.1,1.1-0.2,1.6-0.2c1.1,0,1.9,0.2,2.5,0.7c0.6,0.5,0.8,1.2,0.8,2.3v5.8
				H550.3z M547.6,4380.8c0.7,0,1.2-0.2,1.6-0.6c0.4-0.4,0.6-0.9,0.6-1.6v-0.8l-1.1,0c-0.9,0-1.5,0.2-1.9,0.4
				c-0.4,0.3-0.6,0.7-0.6,1.2c0,0.4,0.1,0.7,0.3,0.9C546.7,4380.6,547.1,4380.8,547.6,4380.8z"/>
			<path class="st2" d="M561.8,4382.2c-1.3,0-2.3-0.4-3-1.1s-1-1.9-1-3.3c0-1.5,0.4-2.6,1.1-3.4s1.7-1.2,3.1-1.2
				c0.9,0,1.7,0.2,2.5,0.5l-0.6,1.5c-0.8-0.3-1.4-0.5-1.9-0.5c-1.5,0-2.2,1-2.2,3c0,1,0.2,1.7,0.6,2.2c0.4,0.5,0.9,0.7,1.6,0.7
				c0.8,0,1.6-0.2,2.3-0.6v1.6c-0.3,0.2-0.7,0.3-1.1,0.4C562.8,4382.1,562.3,4382.2,561.8,4382.2z"/>
			<path class="st2" d="M571.6,4382l-0.4-1.2h-0.1c-0.4,0.5-0.8,0.9-1.3,1.1s-1,0.3-1.6,0.3c-0.8,0-1.5-0.2-2-0.7s-0.7-1.1-0.7-1.9
				c0-0.9,0.3-1.6,1-2c0.7-0.5,1.7-0.7,3-0.7l1.5,0v-0.5c0-0.6-0.1-1-0.4-1.2s-0.7-0.4-1.2-0.4c-0.4,0-0.9,0.1-1.3,0.2
				s-0.8,0.3-1.2,0.5l-0.6-1.3c0.5-0.2,1-0.4,1.5-0.6c0.6-0.1,1.1-0.2,1.6-0.2c1.1,0,1.9,0.2,2.5,0.7c0.6,0.5,0.8,1.2,0.8,2.3v5.8
				H571.6z M568.9,4380.8c0.7,0,1.2-0.2,1.6-0.6c0.4-0.4,0.6-0.9,0.6-1.6v-0.8l-1.1,0c-0.9,0-1.5,0.2-1.9,0.4
				c-0.4,0.3-0.6,0.7-0.6,1.2c0,0.4,0.1,0.7,0.3,0.9C568.1,4380.6,568.5,4380.8,568.9,4380.8z"/>
			<path class="st2" d="M577.4,4382h-1.8v-12.2h1.8V4382z"/>
			<path class="st2" d="M579.9,4371.1c0-0.3,0.1-0.6,0.3-0.8s0.4-0.3,0.8-0.3c0.3,0,0.6,0.1,0.8,0.3s0.3,0.4,0.3,0.8
				c0,0.3-0.1,0.6-0.3,0.7s-0.4,0.3-0.8,0.3c-0.3,0-0.6-0.1-0.8-0.3S579.9,4371.4,579.9,4371.1z M581.8,4382H580v-8.6h1.8V4382z"/>
			<path class="st2" d="M587.4,4382.2c-1.1,0-1.9-0.4-2.5-1.2c-0.6-0.8-0.9-1.9-0.9-3.3c0-1.4,0.3-2.5,0.9-3.3
				c0.6-0.8,1.5-1.2,2.5-1.2c1.1,0,2,0.4,2.6,1.3h0.1c-0.1-0.6-0.1-1.1-0.1-1.5v-3.1h1.8v12.2h-1.4l-0.3-1.1h-0.1
				C589.4,4381.7,588.5,4382.2,587.4,4382.2z M587.8,4380.7c0.8,0,1.3-0.2,1.6-0.6s0.5-1.1,0.5-2.1v-0.3c0-1.1-0.2-1.9-0.5-2.3
				c-0.4-0.5-0.9-0.7-1.7-0.7c-0.6,0-1.1,0.3-1.5,0.8c-0.3,0.5-0.5,1.3-0.5,2.2c0,1,0.2,1.7,0.5,2.2
				C586.7,4380.4,587.2,4380.7,587.8,4380.7z"/>
			<path class="st2" d="M599.8,4382l-0.4-1.2h-0.1c-0.4,0.5-0.8,0.9-1.3,1.1s-1,0.3-1.6,0.3c-0.8,0-1.5-0.2-2-0.7s-0.7-1.1-0.7-1.9
				c0-0.9,0.3-1.6,1-2c0.7-0.5,1.7-0.7,3-0.7l1.5,0v-0.5c0-0.6-0.1-1-0.4-1.2s-0.7-0.4-1.2-0.4c-0.4,0-0.9,0.1-1.3,0.2
				s-0.8,0.3-1.2,0.5l-0.6-1.3c0.5-0.2,1-0.4,1.5-0.6c0.6-0.1,1.1-0.2,1.6-0.2c1.1,0,1.9,0.2,2.5,0.7c0.6,0.5,0.8,1.2,0.8,2.3v5.8
				H599.8z M597.1,4380.8c0.7,0,1.2-0.2,1.6-0.6c0.4-0.4,0.6-0.9,0.6-1.6v-0.8l-1.1,0c-0.9,0-1.5,0.2-1.9,0.4
				c-0.4,0.3-0.6,0.7-0.6,1.2c0,0.4,0.1,0.7,0.3,0.9C596.3,4380.6,596.6,4380.8,597.1,4380.8z"/>
			<path class="st2" d="M606.6,4382.2c-1.1,0-1.9-0.4-2.5-1.2c-0.6-0.8-0.9-1.9-0.9-3.3c0-1.4,0.3-2.5,0.9-3.3
				c0.6-0.8,1.5-1.2,2.5-1.2c1.1,0,2,0.4,2.6,1.3h0.1c-0.1-0.6-0.1-1.1-0.1-1.5v-3.1h1.8v12.2h-1.4l-0.3-1.1h-0.1
				C608.6,4381.7,607.7,4382.2,606.6,4382.2z M607.1,4380.7c0.8,0,1.3-0.2,1.6-0.6s0.5-1.1,0.5-2.1v-0.3c0-1.1-0.2-1.9-0.5-2.3
				c-0.4-0.5-0.9-0.7-1.7-0.7c-0.6,0-1.1,0.3-1.5,0.8c-0.3,0.5-0.5,1.3-0.5,2.2c0,1,0.2,1.7,0.5,2.2
				C605.9,4380.4,606.4,4380.7,607.1,4380.7z"/>
		</g>
		<g class="st1">
			<path class="st2" d="M513.9,4395.4v1l-1.5,0.3c0.1,0.2,0.2,0.4,0.3,0.7c0.1,0.3,0.1,0.5,0.1,0.8c0,0.9-0.3,1.6-0.9,2.1
				c-0.6,0.5-1.5,0.8-2.5,0.8c-0.3,0-0.5,0-0.8-0.1c-0.4,0.2-0.6,0.5-0.6,0.9c0,0.2,0.1,0.3,0.3,0.4c0.2,0.1,0.5,0.1,1,0.1h1.5
				c1,0,1.7,0.2,2.2,0.6c0.5,0.4,0.7,1,0.7,1.8c0,1-0.4,1.7-1.2,2.3c-0.8,0.5-2,0.8-3.5,0.8c-1.2,0-2.1-0.2-2.7-0.6
				c-0.6-0.4-0.9-1-0.9-1.8c0-0.5,0.2-1,0.5-1.3s0.8-0.6,1.4-0.8c-0.2-0.1-0.4-0.3-0.6-0.5c-0.2-0.2-0.2-0.5-0.2-0.7
				c0-0.3,0.1-0.6,0.3-0.8c0.2-0.2,0.5-0.4,0.8-0.7c-0.4-0.2-0.8-0.5-1.1-0.9c-0.3-0.4-0.4-0.9-0.4-1.5c0-0.9,0.3-1.7,0.9-2.2
				c0.6-0.5,1.4-0.8,2.5-0.8c0.2,0,0.5,0,0.8,0.1c0.3,0,0.5,0.1,0.6,0.1H513.9z M507.1,4405.3c0,0.4,0.2,0.7,0.5,0.9
				c0.4,0.2,0.9,0.3,1.5,0.3c1,0,1.7-0.1,2.2-0.4c0.5-0.3,0.7-0.7,0.7-1.1c0-0.4-0.1-0.6-0.4-0.8c-0.3-0.2-0.8-0.2-1.5-0.2h-1.4
				c-0.5,0-0.9,0.1-1.3,0.4C507.3,4404.6,507.1,4404.9,507.1,4405.3z M507.9,4398.2c0,0.5,0.1,1,0.4,1.3c0.3,0.3,0.7,0.4,1.2,0.4
				c1.1,0,1.6-0.6,1.6-1.7c0-0.6-0.1-1-0.4-1.3c-0.3-0.3-0.7-0.5-1.2-0.5c-0.5,0-0.9,0.2-1.2,0.5S507.9,4397.6,507.9,4398.2z"/>
			<path class="st2" d="M521.6,4404l-0.3-1.1h-0.1c-0.3,0.4-0.6,0.7-1.1,0.9c-0.5,0.2-1,0.3-1.6,0.3c-1,0-1.8-0.3-2.3-0.8
				s-0.8-1.3-0.8-2.4v-5.6h1.9v5.3c0,0.7,0.1,1.2,0.4,1.5c0.3,0.3,0.7,0.5,1.3,0.5c0.8,0,1.3-0.2,1.7-0.7c0.4-0.5,0.5-1.2,0.5-2.3
				v-4.3h1.8v8.6H521.6z"/>
			<path class="st2" d="M531.5,4401.5c0,0.8-0.3,1.5-0.9,1.9c-0.6,0.5-1.5,0.7-2.6,0.7c-1.2,0-2.1-0.2-2.8-0.5v-1.6
				c1,0.5,2,0.7,2.8,0.7c1.1,0,1.7-0.3,1.7-1c0-0.2-0.1-0.4-0.2-0.5s-0.3-0.3-0.6-0.5c-0.3-0.2-0.7-0.3-1.2-0.5
				c-1-0.4-1.7-0.8-2-1.2s-0.5-0.9-0.5-1.5c0-0.7,0.3-1.3,0.9-1.7c0.6-0.4,1.4-0.6,2.4-0.6c1,0,2,0.2,2.9,0.6l-0.6,1.4
				c-0.9-0.4-1.7-0.6-2.4-0.6c-1,0-1.5,0.3-1.5,0.8c0,0.3,0.1,0.5,0.4,0.7c0.3,0.2,0.8,0.4,1.7,0.8c0.7,0.3,1.2,0.5,1.6,0.8
				c0.3,0.2,0.6,0.5,0.7,0.8S531.5,4401.1,531.5,4401.5z"/>
			<path class="st2" d="M536.7,4402.7c0.4,0,0.9-0.1,1.3-0.2v1.4c-0.2,0.1-0.5,0.2-0.8,0.2s-0.7,0.1-1,0.1c-1.7,0-2.6-0.9-2.6-2.8
				v-4.7h-1.2v-0.8l1.3-0.7l0.6-1.8h1.1v1.9h2.5v1.4h-2.5v4.6c0,0.4,0.1,0.8,0.3,1C536,4402.6,536.3,4402.7,536.7,4402.7z"/>
			<path class="st2" d="M545.1,4404l-0.4-1.2h-0.1c-0.4,0.5-0.8,0.9-1.3,1.1s-1,0.3-1.6,0.3c-0.8,0-1.5-0.2-2-0.7s-0.7-1.1-0.7-1.9
				c0-0.9,0.3-1.6,1-2c0.7-0.5,1.7-0.7,3-0.7l1.5,0v-0.5c0-0.6-0.1-1-0.4-1.2s-0.7-0.4-1.2-0.4c-0.4,0-0.9,0.1-1.3,0.2
				s-0.8,0.3-1.2,0.5l-0.6-1.3c0.5-0.2,1-0.4,1.5-0.6c0.6-0.1,1.1-0.2,1.6-0.2c1.1,0,1.9,0.2,2.5,0.7s0.8,1.2,0.8,2.3v5.8H545.1z
				 M542.4,4402.8c0.7,0,1.2-0.2,1.6-0.6c0.4-0.4,0.6-0.9,0.6-1.6v-0.8l-1.1,0c-0.9,0-1.5,0.2-1.9,0.4c-0.4,0.3-0.6,0.7-0.6,1.2
				c0,0.4,0.1,0.7,0.3,0.9C541.6,4402.6,542,4402.8,542.4,4402.8z"/>
			<path class="st2" d="M552.2,4402.7c0.4,0,0.9-0.1,1.3-0.2v1.4c-0.2,0.1-0.5,0.2-0.8,0.2s-0.7,0.1-1,0.1c-1.7,0-2.6-0.9-2.6-2.8
				v-4.7H548v-0.8l1.3-0.7l0.6-1.8h1.1v1.9h2.5v1.4H551v4.6c0,0.4,0.1,0.8,0.3,1S551.9,4402.7,552.2,4402.7z"/>
			<path class="st2" d="M555.2,4393.1c0-0.3,0.1-0.6,0.3-0.8s0.4-0.3,0.8-0.3c0.3,0,0.6,0.1,0.8,0.3s0.3,0.4,0.3,0.8
				c0,0.3-0.1,0.6-0.3,0.7s-0.4,0.3-0.8,0.3c-0.3,0-0.6-0.1-0.8-0.3S555.2,4393.4,555.2,4393.1z M557.1,4404h-1.8v-8.6h1.8V4404z"/>
			<path class="st2" d="M561.7,4404l-3.3-8.6h1.9l1.8,5c0.3,0.8,0.5,1.5,0.5,2h0.1c0-0.4,0.2-1.1,0.5-2l1.8-5h2l-3.3,8.6H561.7z"/>
			<path class="st2" d="M573.7,4404l-0.4-1.2h-0.1c-0.4,0.5-0.8,0.9-1.3,1.1s-1,0.3-1.6,0.3c-0.8,0-1.5-0.2-2-0.7s-0.7-1.1-0.7-1.9
				c0-0.9,0.3-1.6,1-2s1.7-0.7,3-0.7l1.5,0v-0.5c0-0.6-0.1-1-0.4-1.2s-0.7-0.4-1.2-0.4c-0.4,0-0.9,0.1-1.3,0.2s-0.8,0.3-1.2,0.5
				l-0.6-1.3c0.5-0.2,1-0.4,1.5-0.6s1.1-0.2,1.6-0.2c1.1,0,1.9,0.2,2.5,0.7s0.8,1.2,0.8,2.3v5.8H573.7z M571,4402.8
				c0.7,0,1.2-0.2,1.6-0.6s0.6-0.9,0.6-1.6v-0.8l-1.1,0c-0.9,0-1.5,0.2-1.9,0.4s-0.6,0.7-0.6,1.2c0,0.4,0.1,0.7,0.3,0.9
				S570.5,4402.8,571,4402.8z"/>
			<path class="st2" d="M577.3,4403c0-0.4,0.1-0.7,0.3-0.9s0.5-0.3,0.9-0.3c0.4,0,0.7,0.1,0.9,0.3s0.3,0.5,0.3,0.9
				c0,0.4-0.1,0.7-0.3,0.9s-0.5,0.3-0.9,0.3s-0.7-0.1-0.9-0.3S577.3,4403.4,577.3,4403z"/>
		</g>
		<g id="Grupo_7946" transform="translate(-484 -75)">
			<circle id="Elipse_679" class="st3" cx="1027.5" cy="4377.5" r="22.5"/>
			<g class="st1">
				<path class="st4" d="M1033.3,4387h-12.5v-2.6l4.5-4.5c1.3-1.4,2.2-2.3,2.6-2.8c0.4-0.5,0.7-1,0.9-1.5c0.2-0.4,0.3-0.9,0.3-1.4
					c0-0.7-0.2-1.2-0.6-1.6c-0.4-0.3-0.9-0.5-1.6-0.5c-0.7,0-1.4,0.2-2,0.5s-1.3,0.8-2,1.4l-2.1-2.4c0.9-0.7,1.6-1.3,2.2-1.6
					s1.2-0.5,1.9-0.7s1.4-0.3,2.3-0.3c1.1,0,2.1,0.2,3,0.6c0.9,0.4,1.5,1,2,1.7s0.7,1.6,0.7,2.5c0,0.8-0.1,1.6-0.4,2.3
					c-0.3,0.7-0.7,1.5-1.3,2.2c-0.6,0.8-1.7,1.8-3.2,3.2l-2.3,2.2v0.2h7.8V4387z"/>
			</g>
		</g>
	</g>
	<g id="Grupo_7949" transform="translate(52 -591)">
		<path id="Rectángulo_3379" class="st0" d="M664,4304h198c5.5,0,10,4.5,10,10v123c0,5.5-4.5,10-10,10H664c-5.5,0-10-4.5-10-10
			v-123C654,4308.5,658.5,4304,664,4304z"/>
		<g class="st1">
			<path class="st2" d="M686.3,4369h-1.9v-11.4h6.4v1.6h-4.6v3.6h4.3v1.6h-4.3V4369z"/>
			<path class="st2" d="M698.1,4369l-0.4-1.2h-0.1c-0.4,0.5-0.8,0.9-1.3,1.1s-1,0.3-1.6,0.3c-0.8,0-1.5-0.2-2-0.7s-0.7-1.1-0.7-1.9
				c0-0.9,0.3-1.6,1-2c0.7-0.5,1.7-0.7,3-0.7l1.5,0v-0.5c0-0.6-0.1-1-0.4-1.2s-0.7-0.4-1.2-0.4c-0.4,0-0.9,0.1-1.3,0.2
				s-0.8,0.3-1.2,0.5l-0.6-1.3c0.5-0.2,1-0.4,1.5-0.6c0.6-0.1,1.1-0.2,1.6-0.2c1.1,0,1.9,0.2,2.5,0.7c0.6,0.5,0.8,1.2,0.8,2.3v5.8
				H698.1z M695.4,4367.8c0.7,0,1.2-0.2,1.6-0.6c0.4-0.4,0.6-0.9,0.6-1.6v-0.8l-1.1,0c-0.9,0-1.5,0.2-1.9,0.4
				c-0.4,0.3-0.6,0.7-0.6,1.2c0,0.4,0.1,0.7,0.3,0.9C694.6,4367.6,694.9,4367.8,695.4,4367.8z"/>
			<path class="st2" d="M705.5,4369.2c-1.3,0-2.3-0.4-3-1.1s-1-1.9-1-3.3c0-1.5,0.4-2.6,1.1-3.4s1.7-1.2,3.1-1.2
				c0.9,0,1.7,0.2,2.5,0.5l-0.6,1.5c-0.8-0.3-1.4-0.5-1.9-0.5c-1.5,0-2.2,1-2.2,3c0,1,0.2,1.7,0.6,2.2c0.4,0.5,0.9,0.7,1.6,0.7
				c0.8,0,1.6-0.2,2.3-0.6v1.6c-0.3,0.2-0.7,0.3-1.1,0.4C706.5,4369.1,706,4369.2,705.5,4369.2z"/>
			<path class="st2" d="M709.8,4358.1c0-0.3,0.1-0.6,0.3-0.8s0.4-0.3,0.8-0.3c0.3,0,0.6,0.1,0.8,0.3s0.3,0.4,0.3,0.8
				c0,0.3-0.1,0.6-0.3,0.7s-0.4,0.3-0.8,0.3c-0.3,0-0.6-0.1-0.8-0.3S709.8,4358.4,709.8,4358.1z M711.8,4369h-1.8v-8.6h1.8V4369z"/>
			<path class="st2" d="M716.2,4369h-1.8v-12.2h1.8V4369z"/>
			<path class="st2" d="M718.8,4358.1c0-0.3,0.1-0.6,0.3-0.8s0.4-0.3,0.8-0.3c0.3,0,0.6,0.1,0.8,0.3s0.3,0.4,0.3,0.8
				c0,0.3-0.1,0.6-0.3,0.7s-0.4,0.3-0.8,0.3c-0.3,0-0.6-0.1-0.8-0.3S718.8,4358.4,718.8,4358.1z M720.7,4369h-1.8v-8.6h1.8V4369z"/>
			<path class="st2" d="M726.5,4367.7c0.4,0,0.9-0.1,1.3-0.2v1.4c-0.2,0.1-0.5,0.2-0.8,0.2s-0.7,0.1-1,0.1c-1.7,0-2.6-0.9-2.6-2.8
				v-4.7h-1.2v-0.8l1.3-0.7l0.6-1.8h1.1v1.9h2.5v1.4h-2.5v4.6c0,0.4,0.1,0.8,0.3,1C725.9,4367.6,726.2,4367.7,726.5,4367.7z"/>
			<path class="st2" d="M735,4369l-0.4-1.2h-0.1c-0.4,0.5-0.8,0.9-1.3,1.1s-1,0.3-1.6,0.3c-0.8,0-1.5-0.2-2-0.7s-0.7-1.1-0.7-1.9
				c0-0.9,0.3-1.6,1-2c0.7-0.5,1.7-0.7,3-0.7l1.5,0v-0.5c0-0.6-0.1-1-0.4-1.2s-0.7-0.4-1.2-0.4c-0.4,0-0.9,0.1-1.3,0.2
				s-0.8,0.3-1.2,0.5l-0.6-1.3c0.5-0.2,1-0.4,1.5-0.6c0.6-0.1,1.1-0.2,1.6-0.2c1.1,0,1.9,0.2,2.5,0.7c0.6,0.5,0.8,1.2,0.8,2.3v5.8
				H735z M732.3,4367.8c0.7,0,1.2-0.2,1.6-0.6c0.4-0.4,0.6-0.9,0.6-1.6v-0.8l-1.1,0c-0.9,0-1.5,0.2-1.9,0.4
				c-0.4,0.3-0.6,0.7-0.6,1.2c0,0.4,0.1,0.7,0.3,0.9C731.5,4367.6,731.8,4367.8,732.3,4367.8z"/>
			<path class="st2" d="M743.3,4360.2c0.4,0,0.7,0,0.9,0.1l-0.2,1.7c-0.3-0.1-0.5-0.1-0.8-0.1c-0.7,0-1.3,0.2-1.8,0.7
				c-0.5,0.5-0.7,1.1-0.7,1.9v4.5h-1.8v-8.6h1.4l0.2,1.5h0.1c0.3-0.5,0.7-0.9,1.1-1.2S742.7,4360.2,743.3,4360.2z"/>
			<path class="st2" d="M757.6,4364.7c0,1.4-0.4,2.5-1.1,3.3c-0.7,0.8-1.7,1.2-3,1.2c-0.8,0-1.5-0.2-2.1-0.5
				c-0.6-0.4-1.1-0.9-1.4-1.6c-0.3-0.7-0.5-1.5-0.5-2.4c0-1.4,0.4-2.5,1.1-3.3s1.7-1.2,3-1.2c1.3,0,2.2,0.4,3,1.2
				C757.2,4362.2,757.6,4363.3,757.6,4364.7z M751.3,4364.7c0,2,0.7,3,2.2,3c1.5,0,2.2-1,2.2-3c0-2-0.7-3-2.2-3
				c-0.8,0-1.3,0.3-1.7,0.8C751.5,4363,751.3,4363.7,751.3,4364.7z"/>
			<path class="st2" d="M764.1,4369.2c-1.1,0-1.9-0.4-2.5-1.2h-0.1c0.1,0.7,0.1,1.2,0.1,1.3v3.5h-1.8v-12.5h1.5
				c0,0.2,0.1,0.5,0.3,1.2h0.1c0.6-0.9,1.4-1.3,2.6-1.3c1.1,0,1.9,0.4,2.5,1.2s0.9,1.9,0.9,3.3s-0.3,2.5-0.9,3.3
				C766,4368.8,765.2,4369.2,764.1,4369.2z M763.7,4361.7c-0.7,0-1.3,0.2-1.6,0.6s-0.5,1.1-0.5,2v0.3c0,1.1,0.2,1.8,0.5,2.3
				c0.3,0.5,0.9,0.7,1.6,0.7c0.6,0,1.1-0.3,1.5-0.8s0.5-1.3,0.5-2.2c0-1-0.2-1.7-0.5-2.2C764.8,4362,764.3,4361.7,763.7,4361.7z"/>
			<path class="st2" d="M773.5,4369.2c-1.3,0-2.4-0.4-3.2-1.2s-1.1-1.9-1.1-3.2c0-1.4,0.4-2.5,1.1-3.3s1.7-1.2,2.9-1.2
				c1.1,0,2,0.3,2.7,1c0.7,0.7,1,1.6,1,2.9v1h-5.8c0,0.8,0.3,1.5,0.7,1.9c0.4,0.5,1,0.7,1.8,0.7c0.5,0,1,0,1.4-0.1
				c0.4-0.1,0.9-0.3,1.4-0.5v1.5c-0.4,0.2-0.9,0.4-1.4,0.5C774.6,4369.1,774,4369.2,773.5,4369.2z M773.1,4361.6
				c-0.6,0-1.1,0.2-1.4,0.6s-0.6,0.9-0.6,1.6h3.9c0-0.7-0.2-1.3-0.5-1.6C774.2,4361.8,773.7,4361.6,773.1,4361.6z"/>
			<path class="st2" d="M783.3,4360.2c0.4,0,0.7,0,0.9,0.1l-0.2,1.7c-0.3-0.1-0.5-0.1-0.8-0.1c-0.7,0-1.3,0.2-1.8,0.7
				c-0.5,0.5-0.7,1.1-0.7,1.9v4.5h-1.8v-8.6h1.4l0.2,1.5h0.1c0.3-0.5,0.7-0.9,1.1-1.2S782.8,4360.2,783.3,4360.2z"/>
			<path class="st2" d="M791.2,4369l-0.4-1.2h-0.1c-0.4,0.5-0.8,0.9-1.3,1.1s-1,0.3-1.6,0.3c-0.8,0-1.5-0.2-2-0.7s-0.7-1.1-0.7-1.9
				c0-0.9,0.3-1.6,1-2c0.7-0.5,1.7-0.7,3-0.7l1.5,0v-0.5c0-0.6-0.1-1-0.4-1.2s-0.7-0.4-1.2-0.4c-0.4,0-0.9,0.1-1.3,0.2
				s-0.8,0.3-1.2,0.5l-0.6-1.3c0.5-0.2,1-0.4,1.5-0.6c0.6-0.1,1.1-0.2,1.6-0.2c1.1,0,1.9,0.2,2.5,0.7c0.6,0.5,0.8,1.2,0.8,2.3v5.8
				H791.2z M788.5,4367.8c0.7,0,1.2-0.2,1.6-0.6c0.4-0.4,0.6-0.9,0.6-1.6v-0.8l-1.1,0c-0.9,0-1.5,0.2-1.9,0.4
				c-0.4,0.3-0.6,0.7-0.6,1.2c0,0.4,0.1,0.7,0.3,0.9C787.7,4367.6,788,4367.8,788.5,4367.8z"/>
			<path class="st2" d="M798.6,4369.2c-1.3,0-2.3-0.4-3-1.1s-1-1.9-1-3.3c0-1.5,0.4-2.6,1.1-3.4s1.7-1.2,3.1-1.2
				c0.9,0,1.7,0.2,2.5,0.5l-0.6,1.5c-0.8-0.3-1.4-0.5-1.9-0.5c-1.5,0-2.2,1-2.2,3c0,1,0.2,1.7,0.6,2.2c0.4,0.5,0.9,0.7,1.6,0.7
				c0.8,0,1.6-0.2,2.3-0.6v1.6c-0.3,0.2-0.7,0.3-1.1,0.4C799.6,4369.1,799.1,4369.2,798.6,4369.2z"/>
			<path class="st2" d="M802.9,4358.1c0-0.3,0.1-0.6,0.3-0.8s0.4-0.3,0.8-0.3c0.3,0,0.6,0.1,0.8,0.3s0.3,0.4,0.3,0.8
				c0,0.3-0.1,0.6-0.3,0.7s-0.4,0.3-0.8,0.3c-0.3,0-0.6-0.1-0.8-0.3S802.9,4358.4,802.9,4358.1z M804.8,4369H803v-8.6h1.8V4369z"/>
			<path class="st2" d="M815.1,4364.7c0,1.4-0.4,2.5-1.1,3.3c-0.7,0.8-1.7,1.2-3,1.2c-0.8,0-1.5-0.2-2.1-0.5
				c-0.6-0.4-1.1-0.9-1.4-1.6c-0.3-0.7-0.5-1.5-0.5-2.4c0-1.4,0.4-2.5,1.1-3.3s1.7-1.2,3-1.2c1.3,0,2.2,0.4,3,1.2
				C814.8,4362.2,815.1,4363.3,815.1,4364.7z M808.8,4364.7c0,2,0.7,3,2.2,3c1.5,0,2.2-1,2.2-3c0-2-0.7-3-2.2-3
				c-0.8,0-1.3,0.3-1.7,0.8C809,4363,808.8,4363.7,808.8,4364.7z"/>
			<path class="st2" d="M824.8,4369H823v-5.3c0-0.7-0.1-1.2-0.4-1.5c-0.3-0.3-0.7-0.5-1.3-0.5c-0.8,0-1.3,0.2-1.7,0.7
				s-0.5,1.2-0.5,2.3v4.3h-1.8v-8.6h1.4l0.3,1.1h0.1c0.3-0.4,0.6-0.7,1.1-1c0.5-0.2,1-0.3,1.6-0.3c2.1,0,3.1,1.1,3.1,3.2V4369z"/>
			<path class="st2" d="M831.2,4369.2c-1.3,0-2.4-0.4-3.2-1.2s-1.1-1.9-1.1-3.2c0-1.4,0.4-2.5,1.1-3.3s1.7-1.2,2.9-1.2
				c1.1,0,2,0.3,2.7,1c0.7,0.7,1,1.6,1,2.9v1h-5.8c0,0.8,0.3,1.5,0.7,1.9c0.4,0.5,1,0.7,1.8,0.7c0.5,0,1,0,1.4-0.1
				c0.4-0.1,0.9-0.3,1.4-0.5v1.5c-0.4,0.2-0.9,0.4-1.4,0.5C832.3,4369.1,831.8,4369.2,831.2,4369.2z M830.8,4361.6
				c-0.6,0-1.1,0.2-1.4,0.6s-0.6,0.9-0.6,1.6h3.9c0-0.7-0.2-1.3-0.5-1.6C831.9,4361.8,831.4,4361.6,830.8,4361.6z"/>
			<path class="st2" d="M842.4,4366.5c0,0.8-0.3,1.5-0.9,1.9c-0.6,0.5-1.5,0.7-2.6,0.7c-1.2,0-2.1-0.2-2.8-0.5v-1.6
				c1,0.5,2,0.7,2.8,0.7c1.1,0,1.7-0.3,1.7-1c0-0.2-0.1-0.4-0.2-0.5s-0.3-0.3-0.6-0.5c-0.3-0.2-0.7-0.3-1.2-0.5
				c-1-0.4-1.7-0.8-2-1.2s-0.5-0.9-0.5-1.5c0-0.7,0.3-1.3,0.9-1.7c0.6-0.4,1.4-0.6,2.4-0.6c1,0,2,0.2,2.9,0.6l-0.6,1.4
				c-0.9-0.4-1.7-0.6-2.4-0.6c-1,0-1.5,0.3-1.5,0.8c0,0.3,0.1,0.5,0.4,0.7c0.3,0.2,0.8,0.4,1.7,0.8c0.7,0.3,1.2,0.5,1.6,0.8
				c0.3,0.2,0.6,0.5,0.7,0.8S842.4,4366.1,842.4,4366.5z"/>
		</g>
		<g class="st1">
			<path class="st2" d="M692.3,4391.2c-1.1,0-1.9-0.4-2.5-1.2h-0.1c0.1,0.7,0.1,1.2,0.1,1.3v3.5h-1.8v-12.5h1.5
				c0,0.2,0.1,0.5,0.3,1.2h0.1c0.6-0.9,1.4-1.3,2.6-1.3c1.1,0,1.9,0.4,2.5,1.2s0.9,1.9,0.9,3.3s-0.3,2.5-0.9,3.3
				C694.2,4390.8,693.4,4391.2,692.3,4391.2z M691.8,4383.7c-0.7,0-1.3,0.2-1.6,0.6s-0.5,1.1-0.5,2v0.3c0,1.1,0.2,1.8,0.5,2.3
				c0.3,0.5,0.9,0.7,1.6,0.7c0.6,0,1.1-0.3,1.5-0.8s0.5-1.3,0.5-2.2c0-1-0.2-1.7-0.5-2.2C693,4384,692.5,4383.7,691.8,4383.7z"/>
			<path class="st2" d="M705.5,4386.7c0,1.4-0.4,2.5-1.1,3.3c-0.7,0.8-1.7,1.2-3,1.2c-0.8,0-1.5-0.2-2.1-0.5
				c-0.6-0.4-1.1-0.9-1.4-1.6c-0.3-0.7-0.5-1.5-0.5-2.4c0-1.4,0.4-2.5,1.1-3.3s1.7-1.2,3-1.2c1.3,0,2.2,0.4,3,1.2
				C705.2,4384.2,705.5,4385.3,705.5,4386.7z M699.2,4386.7c0,2,0.7,3,2.2,3c1.5,0,2.2-1,2.2-3c0-2-0.7-3-2.2-3
				c-0.8,0-1.3,0.3-1.7,0.8C699.4,4385,699.2,4385.7,699.2,4386.7z"/>
			<path class="st2" d="M713.4,4388.5c0,0.8-0.3,1.5-0.9,1.9c-0.6,0.5-1.5,0.7-2.6,0.7c-1.2,0-2.1-0.2-2.8-0.5v-1.6
				c1,0.5,2,0.7,2.8,0.7c1.1,0,1.7-0.3,1.7-1c0-0.2-0.1-0.4-0.2-0.5s-0.3-0.3-0.6-0.5c-0.3-0.2-0.7-0.3-1.2-0.5
				c-1-0.4-1.7-0.8-2-1.2s-0.5-0.9-0.5-1.5c0-0.7,0.3-1.3,0.9-1.7c0.6-0.4,1.4-0.6,2.4-0.6c1,0,2,0.2,2.9,0.6l-0.6,1.4
				c-0.9-0.4-1.7-0.6-2.4-0.6c-1,0-1.5,0.3-1.5,0.8c0,0.3,0.1,0.5,0.4,0.7c0.3,0.2,0.8,0.4,1.7,0.8c0.7,0.3,1.2,0.5,1.6,0.8
				c0.3,0.2,0.6,0.5,0.7,0.8S713.4,4388.1,713.4,4388.5z"/>
			<path class="st2" d="M718.6,4389.7c0.4,0,0.9-0.1,1.3-0.2v1.4c-0.2,0.1-0.5,0.2-0.8,0.2s-0.7,0.1-1,0.1c-1.7,0-2.6-0.9-2.6-2.8
				v-4.7h-1.2v-0.8l1.3-0.7l0.6-1.8h1.1v1.9h2.5v1.4h-2.5v4.6c0,0.4,0.1,0.8,0.3,1C718,4389.6,718.3,4389.7,718.6,4389.7z"/>
			<path class="st2" d="M725.5,4391.2c-1.3,0-2.4-0.4-3.2-1.2s-1.1-1.9-1.1-3.2c0-1.4,0.4-2.5,1.1-3.3s1.7-1.2,2.9-1.2
				c1.1,0,2,0.3,2.7,1c0.7,0.7,1,1.6,1,2.9v1h-5.8c0,0.8,0.3,1.5,0.7,1.9c0.4,0.5,1,0.7,1.8,0.7c0.5,0,1,0,1.4-0.1
				c0.4-0.1,0.9-0.3,1.4-0.5v1.5c-0.4,0.2-0.9,0.4-1.4,0.5C726.6,4391.1,726.1,4391.2,725.5,4391.2z M725.2,4383.6
				c-0.6,0-1.1,0.2-1.4,0.6s-0.6,0.9-0.6,1.6h3.9c0-0.7-0.2-1.3-0.5-1.6C726.2,4383.8,725.7,4383.6,725.2,4383.6z"/>
			<path class="st2" d="M735.3,4382.2c0.4,0,0.7,0,0.9,0.1l-0.2,1.7c-0.3-0.1-0.5-0.1-0.8-0.1c-0.7,0-1.3,0.2-1.8,0.7
				c-0.5,0.5-0.7,1.1-0.7,1.9v4.5h-1.8v-8.6h1.4l0.2,1.5h0.1c0.3-0.5,0.7-0.9,1.1-1.2S734.8,4382.2,735.3,4382.2z"/>
			<path class="st2" d="M737.7,4380.1c0-0.3,0.1-0.6,0.3-0.8s0.4-0.3,0.8-0.3c0.3,0,0.6,0.1,0.8,0.3s0.3,0.4,0.3,0.8
				c0,0.3-0.1,0.6-0.3,0.7s-0.4,0.3-0.8,0.3c-0.3,0-0.6-0.1-0.8-0.3S737.7,4380.4,737.7,4380.1z M739.7,4391h-1.8v-8.6h1.8V4391z"/>
			<path class="st2" d="M750,4386.7c0,1.4-0.4,2.5-1.1,3.3c-0.7,0.8-1.7,1.2-3,1.2c-0.8,0-1.5-0.2-2.1-0.5c-0.6-0.4-1.1-0.9-1.4-1.6
				c-0.3-0.7-0.5-1.5-0.5-2.4c0-1.4,0.4-2.5,1.1-3.3s1.7-1.2,3-1.2c1.3,0,2.2,0.4,3,1.2C749.6,4384.2,750,4385.3,750,4386.7z
				 M743.7,4386.7c0,2,0.7,3,2.2,3c1.5,0,2.2-1,2.2-3c0-2-0.7-3-2.2-3c-0.8,0-1.3,0.3-1.7,0.8C743.8,4385,743.7,4385.7,743.7,4386.7
				z"/>
			<path class="st2" d="M756.4,4382.2c0.4,0,0.7,0,0.9,0.1l-0.2,1.7c-0.3-0.1-0.5-0.1-0.8-0.1c-0.7,0-1.3,0.2-1.8,0.7
				c-0.5,0.5-0.7,1.1-0.7,1.9v4.5h-1.8v-8.6h1.4l0.2,1.5h0.1c0.3-0.5,0.7-0.9,1.1-1.2S755.9,4382.2,756.4,4382.2z"/>
			<path class="st2" d="M762.7,4391.2c-1.3,0-2.4-0.4-3.2-1.2s-1.1-1.9-1.1-3.2c0-1.4,0.4-2.5,1.1-3.3s1.7-1.2,2.9-1.2
				c1.1,0,2,0.3,2.7,1c0.7,0.7,1,1.6,1,2.9v1h-5.8c0,0.8,0.3,1.5,0.7,1.9c0.4,0.5,1,0.7,1.8,0.7c0.5,0,1,0,1.4-0.1
				c0.4-0.1,0.9-0.3,1.4-0.5v1.5c-0.4,0.2-0.9,0.4-1.4,0.5C763.8,4391.1,763.3,4391.2,762.7,4391.2z M762.4,4383.6
				c-0.6,0-1.1,0.2-1.4,0.6s-0.6,0.9-0.6,1.6h3.9c0-0.7-0.2-1.3-0.5-1.6C763.4,4383.8,763,4383.6,762.4,4383.6z"/>
			<path class="st2" d="M774,4388.5c0,0.8-0.3,1.5-0.9,1.9c-0.6,0.5-1.5,0.7-2.6,0.7c-1.2,0-2.1-0.2-2.8-0.5v-1.6
				c1,0.5,2,0.7,2.8,0.7c1.1,0,1.7-0.3,1.7-1c0-0.2-0.1-0.4-0.2-0.5s-0.3-0.3-0.6-0.5c-0.3-0.2-0.7-0.3-1.2-0.5
				c-1-0.4-1.7-0.8-2-1.2s-0.5-0.9-0.5-1.5c0-0.7,0.3-1.3,0.9-1.7c0.6-0.4,1.4-0.6,2.4-0.6c1,0,2,0.2,2.9,0.6l-0.6,1.4
				c-0.9-0.4-1.7-0.6-2.4-0.6c-1,0-1.5,0.3-1.5,0.8c0,0.3,0.1,0.5,0.4,0.7c0.3,0.2,0.8,0.4,1.7,0.8c0.7,0.3,1.2,0.5,1.6,0.8
				c0.3,0.2,0.6,0.5,0.7,0.8S774,4388.1,774,4388.5z"/>
			<path class="st2" d="M783.6,4391.2c-1.3,0-2.3-0.4-3-1.1s-1-1.9-1-3.3c0-1.5,0.4-2.6,1.1-3.4s1.7-1.2,3.1-1.2
				c0.9,0,1.7,0.2,2.5,0.5l-0.6,1.5c-0.8-0.3-1.4-0.5-1.9-0.5c-1.5,0-2.2,1-2.2,3c0,1,0.2,1.7,0.6,2.2c0.4,0.5,0.9,0.7,1.6,0.7
				c0.8,0,1.6-0.2,2.3-0.6v1.6c-0.3,0.2-0.7,0.3-1.1,0.4C784.6,4391.1,784.1,4391.2,783.6,4391.2z"/>
			<path class="st2" d="M795.7,4386.7c0,1.4-0.4,2.5-1.1,3.3c-0.7,0.8-1.7,1.2-3,1.2c-0.8,0-1.5-0.2-2.1-0.5
				c-0.6-0.4-1.1-0.9-1.4-1.6c-0.3-0.7-0.5-1.5-0.5-2.4c0-1.4,0.4-2.5,1.1-3.3s1.7-1.2,3-1.2c1.3,0,2.2,0.4,3,1.2
				C795.3,4384.2,795.7,4385.3,795.7,4386.7z M789.4,4386.7c0,2,0.7,3,2.2,3c1.5,0,2.2-1,2.2-3c0-2-0.7-3-2.2-3
				c-0.8,0-1.3,0.3-1.7,0.8C789.6,4385,789.4,4385.7,789.4,4386.7z"/>
			<path class="st2" d="M805.1,4391h-1.8v-5.3c0-0.7-0.1-1.2-0.4-1.5s-0.6-0.5-1.2-0.5c-0.7,0-1.2,0.2-1.6,0.7
				c-0.3,0.5-0.5,1.2-0.5,2.3v4.3h-1.8v-8.6h1.4l0.3,1.1h0.1c0.2-0.4,0.6-0.7,1-1c0.5-0.2,1-0.3,1.5-0.3c1.3,0,2.2,0.5,2.6,1.4h0.1
				c0.3-0.4,0.6-0.8,1.1-1c0.5-0.2,1-0.4,1.6-0.4c1,0,1.8,0.3,2.3,0.8c0.5,0.5,0.7,1.3,0.7,2.4v5.6h-1.8v-5.3c0-0.7-0.1-1.2-0.4-1.5
				c-0.3-0.3-0.6-0.5-1.2-0.5c-0.7,0-1.2,0.2-1.6,0.7c-0.3,0.4-0.5,1.1-0.5,2.1V4391z"/>
			<path class="st2" d="M820.8,4386.7c0,1.4-0.4,2.5-1.1,3.3c-0.7,0.8-1.7,1.2-3,1.2c-0.8,0-1.5-0.2-2.1-0.5
				c-0.6-0.4-1.1-0.9-1.4-1.6c-0.3-0.7-0.5-1.5-0.5-2.4c0-1.4,0.4-2.5,1.1-3.3s1.7-1.2,3-1.2c1.3,0,2.2,0.4,3,1.2
				C820.4,4384.2,820.8,4385.3,820.8,4386.7z M814.5,4386.7c0,2,0.7,3,2.2,3c1.5,0,2.2-1,2.2-3c0-2-0.7-3-2.2-3
				c-0.8,0-1.3,0.3-1.7,0.8C814.7,4385,814.5,4385.7,814.5,4386.7z"/>
			<path class="st2" d="M830.8,4391.2c-1.3,0-2.4-0.4-3.2-1.2s-1.1-1.9-1.1-3.2c0-1.4,0.4-2.5,1.1-3.3s1.7-1.2,2.9-1.2
				c1.1,0,2,0.3,2.7,1c0.7,0.7,1,1.6,1,2.9v1h-5.8c0,0.8,0.3,1.5,0.7,1.9c0.4,0.5,1,0.7,1.8,0.7c0.5,0,1,0,1.4-0.1
				c0.4-0.1,0.9-0.3,1.4-0.5v1.5c-0.4,0.2-0.9,0.4-1.4,0.5C831.9,4391.1,831.4,4391.2,830.8,4391.2z M830.5,4383.6
				c-0.6,0-1.1,0.2-1.4,0.6s-0.6,0.9-0.6,1.6h3.9c0-0.7-0.2-1.3-0.5-1.6C831.5,4383.8,831.1,4383.6,830.5,4383.6z"/>
			<path class="st2" d="M838.1,4391h-1.8v-12.2h1.8V4391z"/>
		</g>
		<g class="st1">
			<path class="st2" d="M719.8,4413.2c-1.1,0-1.9-0.4-2.5-1.2c-0.6-0.8-0.9-1.9-0.9-3.3c0-1.4,0.3-2.5,0.9-3.3
				c0.6-0.8,1.5-1.2,2.5-1.2c1.1,0,2,0.4,2.6,1.3h0.1c-0.1-0.6-0.1-1.1-0.1-1.5v-3.1h1.8v12.2h-1.4l-0.3-1.1h-0.1
				C721.7,4412.7,720.9,4413.2,719.8,4413.2z M720.2,4411.7c0.8,0,1.3-0.2,1.6-0.6s0.5-1.1,0.5-2.1v-0.3c0-1.1-0.2-1.9-0.5-2.3
				c-0.4-0.5-0.9-0.7-1.7-0.7c-0.6,0-1.1,0.3-1.5,0.8c-0.3,0.5-0.5,1.3-0.5,2.2c0,1,0.2,1.7,0.5,2.2
				C719.1,4411.4,719.6,4411.7,720.2,4411.7z"/>
			<path class="st2" d="M730.6,4413.2c-1.3,0-2.4-0.4-3.2-1.2s-1.1-1.9-1.1-3.2c0-1.4,0.4-2.5,1.1-3.3s1.7-1.2,2.9-1.2
				c1.1,0,2,0.3,2.7,1c0.7,0.7,1,1.6,1,2.9v1h-5.8c0,0.8,0.3,1.5,0.7,1.9c0.4,0.5,1,0.7,1.8,0.7c0.5,0,1,0,1.4-0.1
				c0.4-0.1,0.9-0.3,1.4-0.5v1.5c-0.4,0.2-0.9,0.4-1.4,0.5C731.7,4413.1,731.2,4413.2,730.6,4413.2z M730.2,4405.6
				c-0.6,0-1.1,0.2-1.4,0.6s-0.6,0.9-0.6,1.6h3.9c0-0.7-0.2-1.3-0.5-1.6C731.3,4405.8,730.8,4405.6,730.2,4405.6z"/>
			<path class="st2" d="M741.8,4410.5c0,0.8-0.3,1.5-0.9,1.9c-0.6,0.5-1.5,0.7-2.6,0.7c-1.2,0-2.1-0.2-2.8-0.5v-1.6
				c1,0.5,2,0.7,2.8,0.7c1.1,0,1.7-0.3,1.7-1c0-0.2-0.1-0.4-0.2-0.5s-0.3-0.3-0.6-0.5c-0.3-0.2-0.7-0.3-1.2-0.5
				c-1-0.4-1.7-0.8-2-1.2s-0.5-0.9-0.5-1.5c0-0.7,0.3-1.3,0.9-1.7c0.6-0.4,1.4-0.6,2.4-0.6c1,0,2,0.2,2.9,0.6l-0.6,1.4
				c-0.9-0.4-1.7-0.6-2.4-0.6c-1,0-1.5,0.3-1.5,0.8c0,0.3,0.1,0.5,0.4,0.7c0.3,0.2,0.8,0.4,1.7,0.8c0.7,0.3,1.2,0.5,1.6,0.8
				c0.3,0.2,0.6,0.5,0.7,0.8S741.8,4410.1,741.8,4410.5z"/>
			<path class="st2" d="M748.2,4413.2c-1.1,0-1.9-0.4-2.5-1.2h-0.1c0.1,0.7,0.1,1.2,0.1,1.3v3.5h-1.8v-12.5h1.5
				c0,0.2,0.1,0.5,0.3,1.2h0.1c0.6-0.9,1.4-1.3,2.6-1.3c1.1,0,1.9,0.4,2.5,1.2s0.9,1.9,0.9,3.3s-0.3,2.5-0.9,3.3
				C750.1,4412.8,749.3,4413.2,748.2,4413.2z M747.8,4405.7c-0.7,0-1.3,0.2-1.6,0.6s-0.5,1.1-0.5,2v0.3c0,1.1,0.2,1.8,0.5,2.3
				c0.3,0.5,0.9,0.7,1.6,0.7c0.6,0,1.1-0.3,1.5-0.8s0.5-1.3,0.5-2.2c0-1-0.2-1.7-0.5-2.2C748.9,4406,748.4,4405.7,747.8,4405.7z"/>
			<path class="st2" d="M759.9,4413l-0.3-1.1h-0.1c-0.3,0.4-0.6,0.7-1.1,0.9c-0.5,0.2-1,0.3-1.6,0.3c-1,0-1.8-0.3-2.3-0.8
				s-0.8-1.3-0.8-2.4v-5.6h1.9v5.3c0,0.7,0.1,1.2,0.4,1.5c0.3,0.3,0.7,0.5,1.3,0.5c0.8,0,1.3-0.2,1.7-0.7c0.4-0.5,0.5-1.2,0.5-2.3
				v-4.3h1.8v8.6H759.9z"/>
			<path class="st2" d="M765.8,4413h-1.8v-12.2h1.8V4413z"/>
			<path class="st2" d="M772.8,4413.2c-1.1,0-1.9-0.4-2.5-1.2h-0.1c0.1,0.7,0.1,1.2,0.1,1.3v3.5h-1.8v-12.5h1.5
				c0,0.2,0.1,0.5,0.3,1.2h0.1c0.6-0.9,1.4-1.3,2.6-1.3c1.1,0,1.9,0.4,2.5,1.2s0.9,1.9,0.9,3.3s-0.3,2.5-0.9,3.3
				C774.7,4412.8,773.9,4413.2,772.8,4413.2z M772.3,4405.7c-0.7,0-1.3,0.2-1.6,0.6s-0.5,1.1-0.5,2v0.3c0,1.1,0.2,1.8,0.5,2.3
				c0.3,0.5,0.9,0.7,1.6,0.7c0.6,0,1.1-0.3,1.5-0.8s0.5-1.3,0.5-2.2c0-1-0.2-1.7-0.5-2.2C773.5,4406,773,4405.7,772.3,4405.7z"/>
			<path class="st2" d="M783.8,4413l-0.4-1.2h-0.1c-0.4,0.5-0.8,0.9-1.3,1.1s-1,0.3-1.6,0.3c-0.8,0-1.5-0.2-2-0.7s-0.7-1.1-0.7-1.9
				c0-0.9,0.3-1.6,1-2c0.7-0.5,1.7-0.7,3-0.7l1.5,0v-0.5c0-0.6-0.1-1-0.4-1.2s-0.7-0.4-1.2-0.4c-0.4,0-0.9,0.1-1.3,0.2
				s-0.8,0.3-1.2,0.5l-0.6-1.3c0.5-0.2,1-0.4,1.5-0.6c0.6-0.1,1.1-0.2,1.6-0.2c1.1,0,1.9,0.2,2.5,0.7c0.6,0.5,0.8,1.2,0.8,2.3v5.8
				H783.8z M781,4411.8c0.7,0,1.2-0.2,1.6-0.6c0.4-0.4,0.6-0.9,0.6-1.6v-0.8l-1.1,0c-0.9,0-1.5,0.2-1.9,0.4
				c-0.4,0.3-0.6,0.7-0.6,1.2c0,0.4,0.1,0.7,0.3,0.9C780.2,4411.6,780.6,4411.8,781,4411.8z"/>
			<path class="st2" d="M790.6,4413.2c-1.1,0-1.9-0.4-2.5-1.2c-0.6-0.8-0.9-1.9-0.9-3.3c0-1.4,0.3-2.5,0.9-3.3
				c0.6-0.8,1.5-1.2,2.5-1.2c1.1,0,2,0.4,2.6,1.3h0.1c-0.1-0.6-0.1-1.1-0.1-1.5v-3.1h1.8v12.2h-1.4l-0.3-1.1h-0.1
				C792.6,4412.7,791.7,4413.2,790.6,4413.2z M791.1,4411.7c0.8,0,1.3-0.2,1.6-0.6s0.5-1.1,0.5-2.1v-0.3c0-1.1-0.2-1.9-0.5-2.3
				c-0.4-0.5-0.9-0.7-1.7-0.7c-0.6,0-1.1,0.3-1.5,0.8c-0.3,0.5-0.5,1.3-0.5,2.2c0,1,0.2,1.7,0.5,2.2
				C789.9,4411.4,790.4,4411.7,791.1,4411.7z"/>
			<path class="st2" d="M805.3,4408.7c0,1.4-0.4,2.5-1.1,3.3c-0.7,0.8-1.7,1.2-3,1.2c-0.8,0-1.5-0.2-2.1-0.5
				c-0.6-0.4-1.1-0.9-1.4-1.6c-0.3-0.7-0.5-1.5-0.5-2.4c0-1.4,0.4-2.5,1.1-3.3s1.7-1.2,3-1.2c1.3,0,2.2,0.4,3,1.2
				C804.9,4406.2,805.3,4407.3,805.3,4408.7z M799,4408.7c0,2,0.7,3,2.2,3c1.5,0,2.2-1,2.2-3c0-2-0.7-3-2.2-3
				c-0.8,0-1.3,0.3-1.7,0.8C799.2,4407,799,4407.7,799,4408.7z"/>
			<path class="st2" d="M807.1,4412c0-0.4,0.1-0.7,0.3-0.9c0.2-0.2,0.5-0.3,0.9-0.3c0.4,0,0.7,0.1,0.9,0.3c0.2,0.2,0.3,0.5,0.3,0.9
				c0,0.4-0.1,0.7-0.3,0.9c-0.2,0.2-0.5,0.3-0.9,0.3s-0.7-0.1-0.9-0.3C807.2,4412.7,807.1,4412.4,807.1,4412z"/>
		</g>
		<g id="Grupo_7947" transform="translate(-333 -74)">
			<circle id="Elipse_680" class="st3" cx="1096.5" cy="4377.5" r="22.5"/>
			<g class="st1">
				<path class="st4" d="M1101.6,4373.1c0,1.1-0.3,2.1-1,2.8c-0.7,0.8-1.6,1.3-2.8,1.6v0.1c1.4,0.2,2.5,0.6,3.3,1.3
					c0.7,0.7,1.1,1.6,1.1,2.8c0,1.7-0.6,3.1-1.9,4c-1.2,1-3,1.4-5.3,1.4c-1.9,0-3.7-0.3-5.2-1v-3.2c0.7,0.3,1.5,0.6,2.3,0.9
					s1.7,0.3,2.5,0.3c1.2,0,2.2-0.2,2.8-0.6c0.6-0.4,0.9-1.1,0.9-2c0-0.8-0.3-1.4-1-1.8s-1.8-0.5-3.3-0.5h-1.4v-2.9h1.4
					c1.4,0,2.4-0.2,3-0.5s1-1,1-1.9c0-1.4-0.8-2-2.5-2c-0.6,0-1.2,0.1-1.8,0.3s-1.3,0.5-2,1l-1.7-2.6c1.6-1.2,3.6-1.8,5.8-1.8
					c1.8,0,3.3,0.4,4.4,1.1C1101.1,4370.8,1101.6,4371.8,1101.6,4373.1z"/>
			</g>
		</g>
	</g>
</g>
</svg>
