<?xml version="1.0" encoding="utf-8"?>
<!-- Generator: Adobe Illustrator 24.2.0, SVG Export Plug-In . SVG Version: 6.00 Build 0)  -->
<svg version="1.1" id="Capa_1" xmlns="http://www.w3.org/2000/svg" xmlns:xlink="http://www.w3.org/1999/xlink" x="0px" y="0px"
	 viewBox="0 0 651.7 687.6" style="enable-background:new 0 0 651.7 687.6;" xml:space="preserve">
<style type="text/css">
	.st0{opacity:0.1;fill:#FFFFFF;}
</style>
<path id="Trazado_8076" class="st0" d="M431.2,524c0.5-9.3,5.1-15.3,14.4-16.6c8.6-1.2,17.2,6.4,17,15.1c-0.2,9.4-5.5,15.5-14.9,16
	S433,533.2,431.2,524z"/>
<path id="Trazado_8077" class="st0" d="M484.6,159.5c9.5,0.5,15.7,5,16.5,14.5c0.8,9.5-4.4,15.4-13.7,16.8
	c-8.9,1.4-16.9-5.7-17-14.8C470.1,166.4,475.8,161.5,484.6,159.5z"/>
<path id="Trazado_8078" class="st0" d="M572.5,226.8c0.3,9.9-4.5,15.7-13.6,17.4c-8.6,1.6-17.1-5.6-17.3-14.5
	c-0.2-9.5,4.8-15.7,14.1-16.5C564.9,212.5,570.7,217.8,572.5,226.8z"/>
<path id="Trazado_8079" class="st0" d="M212,358.3c0-8.1,4.2-14.6,13.9-15.6c9.6-1,15.9,3.9,17,13.5c1.1,9.6-4.1,15.5-13.6,17.1
	C220.9,374.7,213.1,368.2,212,358.3z"/>
<path id="Trazado_8080" class="st0" d="M172.1,303.5c-0.6,9.3-5,15.7-14.7,16.3c-9.6,0.6-15.7-4.8-16.4-14.4
	c-0.7-9.6,4.6-15.7,14.3-16.3C165,288.5,170.3,294.1,172.1,303.5z"/>
<path id="Trazado_8081" class="st0" d="M516.4,560.6c9.2,0.2,15.7,4.1,16.9,13.8c1.2,9.6-3.8,15.5-12.9,17.4
	c-8.7,1.8-17.3-5.1-17.8-14C502.2,568.2,507.4,562.8,516.4,560.6z"/>
<path id="Trazado_8082" class="st0" d="M345.8,183.2c10.1,0.8,16.5,5.4,16.9,15c0.4,9.5-4.9,15.6-14.6,16.1
	c-9.7,0.5-15.5-4.9-16.1-14.5C331.4,189.8,337.5,185.1,345.8,183.2z"/>
<path id="Trazado_8083" class="st0" d="M313.1,535.6c9.1,0.5,15.7,4.4,16.6,14.1c0.9,9.6-3.8,15.5-13.4,16.9
	c-9.3,1.4-17.3-5.1-17.5-14.2C298.7,542.9,304.1,537.6,313.1,535.6z"/>
<path id="Trazado_8084" class="st0" d="M22.2,317.1c9.5,0.5,16,4.5,16.9,14.3c0.9,9.7-4,15.6-13.8,16.7c-9.9,1.1-15.7-4.5-16.8-13.7
	C7.4,324.7,13.4,319.5,22.2,317.1z"/>
<path id="Trazado_8085" class="st0" d="M566.5,379.4c-8-0.2-14-4.6-15.1-14.3c-0.9-8.5,5.8-16.8,14.1-16.9c9.5-0.1,15.5,5,16.9,14.3
	C583.6,370.9,576.6,378.6,566.5,379.4z"/>
<path id="Trazado_8086" class="st0" d="M337.4,48.2c7.8,0,14.1,3.9,15.4,13.6c1.3,9.3-4.9,17.1-14.2,17.4c-9.6,0.4-15.2-5-16.7-14.1
	C320.6,56.9,327.5,49.2,337.4,48.2z"/>
<path id="Trazado_8087" class="st0" d="M643.4,280.8c0.8,8.5-5.4,16.1-13.9,16.9c0,0-0.1,0-0.1,0c-8.3,0.7-16.4-6.1-17-14.3
	c-0.7-8.2,6.1-16.2,14.4-17C635.3,265.8,642.8,272.3,643.4,280.8C643.4,280.8,643.4,280.8,643.4,280.8z"/>
<path id="Trazado_8088" class="st0" d="M85.2,235.5c8.2-0.1,14,4.9,15.6,14.1c1.5,8.3-5.5,16.4-14.1,16.8
	c-9.6,0.5-15.6-4.1-16.8-13.9C68.9,243.6,74.9,236.5,85.2,235.5z"/>
<path id="Trazado_8089" class="st0" d="M375.9,485.3c-8.1-0.6-14.6-4.7-15.3-14.5c-0.7-9.8,4.7-15.9,14.1-16.7
	c9.6-0.9,15.4,5,16.9,14.2C392.8,476.3,385.3,484.5,375.9,485.3z"/>
<path id="Trazado_8090" class="st0" d="M259,496.7c0.5,8.7-6.1,16.1-14.8,16.6c-8.4,0.5-15.7-5.7-16.6-14.1
	c-0.6-8.3,6.2-16.3,14.4-17C250.3,481.5,258.3,488.4,259,496.7z"/>
<path id="Trazado_8091" class="st0" d="M520.8,442.9c0.2,10.8-4.1,17-13.8,18c-9.7,1-15.9-4-17-13.5c-1-9.6,4.1-15.8,13.7-16.9
	C513.5,429.3,518.7,435,520.8,442.9z"/>
<path id="Trazado_8092" class="st0" d="M393.3,118.6c-0.1-9.3,4-15.7,13.7-16.8c9.8-1.1,15.7,4.2,16.8,13.6c1.1,9.5-3.8,16-13.5,17
	C400.9,133.4,395,128.4,393.3,118.6z"/>
<path id="Trazado_8093" class="st0" d="M347.4,339.6c0.6-9.6,5.3-15.2,15-16c8.6-0.7,16.5,6.2,16.3,14.6c-0.3,9.3-5.2,15.6-15,16
	C354,354.6,348.9,349,347.4,339.6z"/>
<path id="Trazado_8094" class="st0" d="M165.5,424c9.4,0.5,15.5,5.2,15.9,14.9c0.4,9.7-4.8,15.5-14.5,16.1
	c-9.9,0.6-15.4-5.1-16-14.6C150.3,430.7,156,425.5,165.5,424z"/>
<path id="Trazado_8095" class="st0" d="M213.2,212c9.4-0.3,15.9,3.9,16.9,13.6c0.9,9.4-3.6,15.6-13.5,16.7
	c-9.9,1.1-15.9-3.8-17-13.2S203.5,213.7,213.2,212z"/>
<path id="Trazado_8096" class="st0" d="M189.6,93.1c0.1-10.1,5.1-16,14.7-16.5c9.6-0.5,15.5,5,16,14.7c0.5,9.7-4.9,15.5-14.5,16
	C195.9,107.9,190.8,102.3,189.6,93.1z"/>
<path id="Trazado_8097" class="st0" d="M274.1,130c9.5-0.6,17.5,6.1,17.5,14.5c-0.1,9.3-4.5,15.8-14.5,16.3
	c-9.8,0.5-15.4-4.7-16.2-14.4C260.2,136.5,266,131.6,274.1,130z"/>
<path id="Trazado_8098" class="st0" d="M159.2,172.6c-0.4,9.4-4.2,15.6-14.3,16.4c-10,0.8-15.7-4.3-16.6-13.7
	c-0.9-9.6,4.3-15.6,14-16.5C152,157.9,157.4,163.2,159.2,172.6z"/>
<path id="Trazado_8099" class="st0" d="M89,522.4c0.8-9.5,5.2-15.6,15-16.1c9.8-0.5,15.7,5.1,16.2,14.4c0.5,9.3-4.6,15.4-14.7,15.9
	S90.8,531.5,89,522.4z"/>
<path id="Trazado_8100" class="st0" d="M400.9,606.2c-0.1,7.6-4.9,13.4-14.6,13.8c-9.9,0.5-15.1-5.1-15.9-14.7
	c-0.7-8.7,6-16.5,14.5-16.2C394.1,589.5,400.4,593.9,400.9,606.2z"/>
<path id="Trazado_8101" class="st0" d="M320.1,416.5c-0.2,8.4-4.9,14.6-14.6,15.1c-9.6,0.5-15.3-5-16.2-14.6
	c-0.7-8.5,5.6-15.9,14-16.6c0.1,0,0.3,0,0.4,0C312.2,400,319.5,406.7,320.1,416.5z"/>
<path id="Trazado_8102" class="st0" d="M79.8,387.6c0-10.4,5.2-16.3,14.6-16.7c9.4-0.4,15.5,4.8,15.8,14.7c0.4,9.7-4.6,15.5-14.4,16
	C85.9,402.1,81.1,396.3,79.8,387.6z"/>
<path id="Trazado_8103" class="st0" d="M286.1,265.4c8.3,0,14.4,4.3,15.1,14.2c0.6,9.7-4.4,15.3-14.2,16.2
	c-10.2,0.9-15.7-4.9-16.4-14C269.8,272.5,274.8,266.4,286.1,265.4z"/>
<path id="Trazado_8104" class="st0" d="M57,121.4c0.3-9.9,5.2-15.6,14.8-16.1c9.8-0.6,15.7,5.3,16.2,14.5
	c0.5,9.3-4.8,15.4-14.7,15.9C63.2,136.2,58.4,130.5,57,121.4z"/>
<path id="Trazado_8105" class="st0" d="M418.5,393.3c0.6-9.5,5.2-15.4,14.9-16.3c8.6-0.8,16.5,5.9,16.5,14.4
	c0,9.4-4.9,15.7-14.6,16.2C425.4,408.1,420.3,402.5,418.5,393.3z"/>
<path id="Trazado_8106" class="st0" d="M409.4,259.2c-0.8-10.9,4.8-16.8,13.9-17.5c9.1-0.7,15.6,4.2,16.3,14.2
	c0.7,9.8-4.3,15.6-13.9,16.4C415.9,273.2,410.6,267.8,409.4,259.2z"/>
<path id="Trazado_8107" class="st0" d="M30.6,453c11.3-1.1,16.8,4.2,18.6,13.2c1.7,8.4-4.9,15.9-13.8,16.8c-9.8,1-15.9-3.6-17-13.2
	C17.3,460.2,22.5,454.6,30.6,453z"/>
<path id="Trazado_8108" class="st0" d="M561.4,501.2c-0.4-10.7,4.4-16.6,14-17.3c9.6-0.7,15.5,4.2,16.3,14
	c0.8,10-4.6,15.5-13.9,16.4C567.9,515.3,562.8,509.7,561.4,501.2z"/>
<path id="Trazado_8109" class="st0" d="M480.2,312.3c-0.1-10.6,5.2-16.7,14.4-17.2c9.2-0.6,15.7,4.7,16.2,14.5
	c0.5,9.5-4.6,15.6-14.3,16.3C486.6,326.5,481.7,320.7,480.2,312.3z"/>
<path id="Trazado_8110" class="st0" d="M251.5,617.6c10.3,0.3,16.2,5,16.7,14.7c0.5,9.8-4.8,15.5-14.4,16s-15.2-4.6-15.9-14.5
	C237.3,623.7,243.3,619.3,251.5,617.6z"/>
<path id="Trazado_8111" class="st0" d="M636.3,432.8c-7.2-0.4-13-5-13.9-14.7c-0.8-8.4,6.3-16.6,14.6-16.4
	c7.8,0.2,15.4,2.9,14.7,12.5C651,422.3,651.2,432.4,636.3,432.8z"/>
<path id="Trazado_8112" class="st0" d="M166.6,580.5c0.3-9.6,4.9-15.5,14.7-15.9c9.7-0.4,15.2,4.7,15.8,14.5
	c0.6,10.1-5,15.3-14.4,15.9C172.9,595.6,167.8,589.9,166.6,580.5z"/>
<path id="Trazado_8088_1_" class="st0" d="M36,185.2c8.2-0.1,14,4.9,15.6,14.1c1.5,8.3-5.5,16.4-14.1,16.8
	c-9.6,0.5-15.6-4.1-16.8-13.9C19.7,193.3,25.6,186.2,36,185.2z"/>
<path id="Trazado_8077_1_" class="st0" d="M543.3,88.1c9.5,0.5,15.7,5,16.5,14.5c0.8,9.5-4.4,15.4-13.7,16.8
	c-8.9,1.4-16.9-5.7-17-14.8C528.8,95,534.5,90.2,543.3,88.1z"/>
<path id="Trazado_8078_1_" class="st0" d="M631.1,155.5c0.3,9.9-4.5,15.7-13.6,17.4c-8.6,1.6-17.1-5.6-17.3-14.5
	c-0.2-9.5,4.8-15.7,14.1-16.5C623.6,141.2,629.4,146.4,631.1,155.5z"/>
<path id="Trazado_8092_1_" class="st0" d="M451.9,47.2c-0.1-9.3,4-15.7,13.7-16.8c9.8-1.1,15.7,4.2,16.8,13.6
	c1.1,9.5-3.8,16-13.5,17C459.5,62,453.6,57,451.9,47.2z"/>
<path id="Trazado_8099_1_" class="st0" d="M25.8,576.3c0.8-9.5,5.2-15.6,15-16.1c9.8-0.5,15.7,5.1,16.2,14.4
	c0.5,9.3-4.6,15.4-14.7,15.9S27.6,585.4,25.8,576.3z"/>
<path id="Trazado_8112_1_" class="st0" d="M103.3,634.4c0.3-9.6,4.9-15.5,14.7-15.9c9.7-0.4,15.2,4.7,15.8,14.5
	c0.6,10.1-5,15.3-14.4,15.9C109.6,649.5,104.5,643.9,103.3,634.4z"/>
<path id="Trazado_8097_1_" class="st0" d="M139.1,17.3c9.5-0.6,17.5,6.1,17.5,14.5c-0.1,9.3-4.5,15.8-14.5,16.3
	c-9.8,0.5-15.4-4.7-16.2-14.4C125.1,23.8,130.9,18.9,139.1,17.3z"/>
<path id="Trazado_8077_3_" class="st0" d="M600.7,29.7c9.5,0.5,15.7,5,16.5,14.5c0.8,9.5-4.4,15.4-13.7,16.8
	c-8.9,1.4-16.9-5.7-17-14.8C586.2,36.5,591.9,31.7,600.7,29.7z"/>
<path id="Trazado_8092_2_" class="st0" d="M263.4,18.8c-0.1-9.3,4-15.7,13.7-16.8c9.8-1.1,15.7,4.2,16.8,13.6
	c1.1,9.5-3.8,16-13.5,17C271,33.5,265.1,28.6,263.4,18.8z"/>
<path id="Trazado_8076_1_" class="st0" d="M561.1,623.3c0.5-9.3,5.1-15.3,14.4-16.6c8.6-1.2,17.2,6.4,17,15.1
	c-0.2,9.4-5.5,15.5-14.9,16S562.9,632.5,561.1,623.3z"/>
<path id="Trazado_8083_1_" class="st0" d="M453.1,638.1c9.1,0.5,15.7,4.4,16.6,14.1c0.9,9.6-3.8,15.5-13.4,16.9
	c-9.3,1.4-17.3-5.1-17.5-14.2C438.7,645.4,444.1,640.1,453.1,638.1z"/>
<path id="Trazado_8112_2_" class="st0" d="M23.5,648.3c0.3-9.6,4.9-15.5,14.7-15.9c9.7-0.4,15.2,4.7,15.8,14.5
	c0.6,10.1-5,15.3-14.4,15.9C29.8,663.4,24.7,657.8,23.5,648.3z"/>
<path id="Trazado_8098_1_" class="st0" d="M41.4,47.2c-0.4,9.4-4.2,15.6-14.3,16.4c-10,0.8-15.7-4.3-16.6-13.7
	c-0.9-9.6,4.3-15.6,14-16.5C34.2,32.5,39.6,37.8,41.4,47.2z"/>
</svg>
